999
"DXF R12 Output" (www.mydxf.blogspot.com)
 0 
SECTION
 2 
HEADER
 9 
$ACADVER
 1 
AC1009
 9 
$EXTMIN
 10 
 0 
 20 
 0 
 9 
$EXTMAX
 10 
 8.5 
 20 
 11 
 0 
ENDSEC
 0 
SECTION
 2 
ENTITIES
0
POLYLINE
8
Capa 1
62
7
70
0
10
0.000000
20
0.000000
66
1
0
VERTEX
8
Capa 1
10
102.998231
20
143.787590
70
0
0
VERTEX
8
Capa 1
10
102.702323
20
143.954320
70
0
0
VERTEX
8
Capa 1
10
102.562033
20
144.253136
70
0
0
VERTEX
8
Capa 1
10
102.663370
20
144.918970
70
0
0
VERTEX
8
Capa 1
10
103.070316
20
145.331494
70
0
0
VERTEX
8
Capa 1
10
103.606806
20
145.498136
70
0
0
VERTEX
8
Capa 1
10
104.180343
20
145.443148
70
0
0
VERTEX
8
Capa 1
10
104.698427
20
145.190780
70
0
0
VERTEX
8
Capa 1
10
105.232851
20
144.546637
70
0
0
VERTEX
8
Capa 1
10
105.426040
20
143.757894
70
0
0
VERTEX
8
Capa 1
10
105.304687
20
142.941496
70
0
0
VERTEX
8
Capa 1
10
104.895480
20
142.214390
70
0
0
VERTEX
8
Capa 1
10
104.010632
20
141.553515
70
0
0
VERTEX
8
Capa 1
10
102.960987
20
141.333606
70
0
0
VERTEX
8
Capa 1
10
101.892587
20
141.525090
70
0
0
VERTEX
8
Capa 1
10
100.951476
20
142.098390
70
0
0
VERTEX
8
Capa 1
10
100.486197
20
142.628717
70
0
0
VERTEX
8
Capa 1
10
100.160934
20
143.228018
70
0
0
VERTEX
8
Capa 1
10
99.914101
20
144.544844
70
0
0
VERTEX
8
Capa 1
10
100.178264
20
145.871470
70
0
0
VERTEX
8
Capa 1
10
100.920716
20
147.030500
70
0
0
VERTEX
8
Capa 1
10
101.570328
20
147.575169
70
0
0
VERTEX
8
Capa 1
10
102.298905
20
147.953165
70
0
0
VERTEX
8
Capa 1
10
103.080184
20
148.168985
70
0
0
VERTEX
8
Capa 1
10
103.887898
20
148.227129
70
0
0
VERTEX
8
Capa 1
10
104.695782
20
148.132094
70
0
0
VERTEX
8
Capa 1
10
105.477571
20
147.888379
70
0
0
VERTEX
8
Capa 1
10
106.206998
20
147.500481
70
0
0
VERTEX
8
Capa 1
10
106.857800
20
146.972900
70
0
0
VERTEX
8
Capa 1
10
107.483091
20
146.202466
70
0
0
VERTEX
8
Capa 1
10
107.914590
20
145.342760
70
0
0
VERTEX
8
Capa 1
10
108.157217
20
144.424256
70
0
0
VERTEX
8
Capa 1
10
108.215891
20
143.477431
70
0
0
VERTEX
8
Capa 1
10
108.095532
20
142.532761
70
0
0
VERTEX
8
Capa 1
10
107.801059
20
141.620722
70
0
0
VERTEX
8
Capa 1
10
107.337393
20
140.771790
70
0
0
VERTEX
8
Capa 1
10
106.709453
20
140.016440
70
0
0
VERTEX
8
Capa 1
10
105.816793
20
139.309488
70
0
0
VERTEX
8
Capa 1
10
104.824322
20
138.823832
70
0
0
VERTEX
8
Capa 1
10
103.766819
20
138.554122
70
0
0
VERTEX
8
Capa 1
10
102.679060
20
138.495010
70
0
0
VERTEX
8
Capa 1
10
101.595824
20
138.641147
70
0
0
VERTEX
8
Capa 1
10
100.551889
20
138.987183
70
0
0
VERTEX
8
Capa 1
10
99.582031
20
139.527771
70
0
0
VERTEX
8
Capa 1
10
98.721030
20
140.257560
70
0
0
VERTEX
8
Capa 1
10
97.931509
20
141.273725
70
0
0
VERTEX
8
Capa 1
10
97.391119
20
142.400419
70
0
0
VERTEX
8
Capa 1
10
97.094076
20
143.598489
70
0
0
VERTEX
8
Capa 1
10
97.034597
20
144.828782
70
0
0
VERTEX
8
Capa 1
10
97.206896
20
146.052147
70
0
0
VERTEX
8
Capa 1
10
97.605189
20
147.229430
70
0
0
VERTEX
8
Capa 1
10
98.223693
20
148.321478
70
0
0
VERTEX
8
Capa 1
10
99.056622
20
149.289140
70
0
0
VERTEX
8
Capa 1
10
100.197464
20
150.162034
70
0
0
VERTEX
8
Capa 1
10
101.459700
20
150.757669
70
0
0
VERTEX
8
Capa 1
10
102.799743
20
151.082269
70
0
0
VERTEX
8
Capa 1
10
104.174003
20
151.142059
70
0
0
VERTEX
8
Capa 1
10
105.538893
20
150.943263
70
0
0
VERTEX
8
Capa 1
10
106.850823
20
150.492107
70
0
0
VERTEX
8
Capa 1
10
108.066205
20
149.794814
70
0
0
VERTEX
8
Capa 1
10
109.141450
20
148.857610
70
0
0
VERTEX
8
Capa 1
10
110.098445
20
147.591017
70
0
0
VERTEX
8
Capa 1
10
110.749790
20
146.192036
70
0
0
VERTEX
8
Capa 1
10
111.102155
20
144.708744
70
0
0
VERTEX
8
Capa 1
10
111.162209
20
143.189220
70
0
0
VERTEX
8
Capa 1
10
110.936621
20
141.681540
70
0
0
VERTEX
8
Capa 1
10
110.432061
20
140.233782
70
0
0
VERTEX
8
Capa 1
10
109.655196
20
138.894023
70
0
0
VERTEX
8
Capa 1
10
108.612696
20
137.710340
70
0
0
VERTEX
8
Capa 1
10
107.219352
20
136.668582
70
0
0
VERTEX
8
Capa 1
10
105.682518
20
135.961100
70
0
0
VERTEX
8
Capa 1
10
104.054807
20
135.580778
70
0
0
VERTEX
8
Capa 1
10
102.388831
20
135.520499
70
0
0
VERTEX
8
Capa 1
10
100.737202
20
135.773145
70
0
0
VERTEX
8
Capa 1
10
99.152532
20
136.331600
70
0
0
VERTEX
8
Capa 1
10
97.687433
20
137.188748
70
0
0
VERTEX
8
Capa 1
10
96.394517
20
138.337470
70
0
0
VERTEX
8
Capa 1
10
95.267384
20
139.858491
70
0
0
VERTEX
8
Capa 1
10
94.503374
20
141.534202
70
0
0
VERTEX
8
Capa 1
10
94.094919
20
143.307413
70
0
0
VERTEX
8
Capa 1
10
94.034450
20
145.120936
70
0
0
VERTEX
8
Capa 1
10
94.314400
20
146.917583
70
0
0
VERTEX
8
Capa 1
10
94.927200
20
148.640165
70
0
0
VERTEX
8
Capa 1
10
95.865281
20
150.231494
70
0
0
VERTEX
8
Capa 1
10
97.121075
20
151.634380
70
0
0
VERTEX
8
Capa 1
10
98.770635
20
152.847457
70
0
0
VERTEX
8
Capa 1
10
100.586174
20
153.668363
70
0
0
VERTEX
8
Capa 1
10
102.505888
20
154.105119
70
0
0
VERTEX
8
Capa 1
10
104.467975
20
154.165749
70
0
0
VERTEX
8
Capa 1
10
106.410634
20
153.858274
70
0
0
VERTEX
8
Capa 1
10
108.272061
20
153.190718
70
0
0
VERTEX
8
Capa 1
10
109.990454
20
152.171102
70
0
0
VERTEX
8
Capa 1
10
111.504010
20
150.807450
70
0
0
VERTEX
8
Capa 1
10
112.803558
20
149.028537
70
0
0
VERTEX
8
Capa 1
10
113.681699
20
147.072277
70
0
0
VERTEX
8
Capa 1
10
114.146912
20
145.005121
70
0
0
VERTEX
8
Capa 1
10
114.207676
20
142.893520
70
0
0
VERTEX
8
Capa 1
10
113.872471
20
140.803924
70
0
0
VERTEX
8
Capa 1
10
113.149776
20
138.802783
70
0
0
VERTEX
8
Capa 1
10
112.048070
20
136.956548
70
0
0
VERTEX
8
Capa 1
10
110.575832
20
135.331670
70
0
0
VERTEX
8
Capa 1
10
108.666801
20
133.945152
70
0
0
VERTEX
8
Capa 1
10
106.568981
20
133.009452
70
0
0
VERTEX
8
Capa 1
10
104.353501
20
132.515633
70
0
0
VERTEX
8
Capa 1
10
102.091491
20
132.454756
70
0
0
VERTEX
8
Capa 1
10
99.854083
20
132.817883
70
0
0
VERTEX
8
Capa 1
10
97.712407
20
133.596075
70
0
0
VERTEX
8
Capa 1
10
95.737594
20
134.780393
70
0
0
VERTEX
8
Capa 1
10
94.000773
20
136.361900
70
0
0
VERTEX
8
Capa 1
10
92.526814
20
138.401770
70
0
0
VERTEX
8
Capa 1
10
91.533252
20
140.641942
70
0
0
VERTEX
8
Capa 1
10
91.010686
20
143.006577
70
0
0
VERTEX
8
Capa 1
10
90.949717
20
145.419835
70
0
0
VERTEX
8
Capa 1
10
91.340945
20
147.805875
70
0
0
VERTEX
8
Capa 1
10
92.174970
20
150.088858
70
0
0
VERTEX
8
Capa 1
10
93.442391
20
152.192943
70
0
0
VERTEX
8
Capa 1
10
95.133810
20
154.042290
70
0
0
VERTEX
8
Capa 1
10
97.305206
20
155.604134
70
0
0
VERTEX
8
Capa 1
10
99.688481
20
156.655847
70
0
0
VERTEX
8
Capa 1
10
102.203058
20
157.207293
70
0
0
VERTEX
8
Capa 1
10
104.768359
20
157.268336
70
0
0
VERTEX
8
Capa 1
10
107.303809
20
156.848840
70
0
0
VERTEX
8
Capa 1
10
109.728831
20
155.958667
70
0
0
VERTEX
8
Capa 1
10
111.962847
20
154.607683
70
0
0
VERTEX
8
Capa 1
10
113.925282
20
152.805750
70
0
0
VERTEX
8
Capa 1
10
114.818504
20
151.687236
70
0
0
VERTEX
8
Capa 1
10
115.575432
20
150.502175
70
0
0
VERTEX
8
Capa 1
10
116.685570
20
147.975086
70
0
0
VERTEX
8
Capa 1
10
117.266025
20
145.309821
70
0
0
VERTEX
8
Capa 1
10
117.327125
20
142.591720
70
0
0
VERTEX
8
Capa 1
10
116.879201
20
139.906122
70
0
0
VERTEX
8
Capa 1
10
115.932581
20
137.338367
70
0
0
VERTEX
8
Capa 1
10
114.497594
20
134.973793
70
0
0
VERTEX
8
Capa 1
10
112.584571
20
132.897740
70
0
0
VERTEX
8
Capa 1
10
111.401419
20
131.956382
70
0
0
VERTEX
8
Capa 1
10
110.148199
20
131.158881
70
0
0
VERTEX
8
Capa 1
10
108.836177
20
130.503890
70
0
0
VERTEX
8
Capa 1
10
107.476618
20
129.990058
70
0
0
VERTEX
8
Capa 1
10
104.659954
20
129.380473
70
0
0
VERTEX
8
Capa 1
10
101.788334
20
129.319330
70
0
0
VERTEX
8
Capa 1
10
98.951884
20
129.795832
70
0
0
VERTEX
8
Capa 1
10
96.240732
20
130.799182
70
0
0
VERTEX
8
Capa 1
10
93.745004
20
132.318584
70
0
0
VERTEX
8
Capa 1
10
92.606088
20
133.268430
70
0
0
VERTEX
8
Capa 1
10
91.554826
20
134.343240
70
0
0
VERTEX
8
Capa 1
10
90.565122
20
135.591319
70
0
0
VERTEX
8
Capa 1
10
89.726874
20
136.913004
70
0
0
VERTEX
8
Capa 1
10
89.038674
20
138.296429
70
0
0
VERTEX
8
Capa 1
10
88.499115
20
139.729726
70
0
0
VERTEX
8
Capa 1
10
87.860282
20
142.698467
70
0
0
VERTEX
8
Capa 1
10
87.799110
20
145.724293
70
0
0
VERTEX
8
Capa 1
10
88.304333
20
148.712264
70
0
0
VERTEX
8
Capa 1
10
89.364683
20
151.567446
70
0
0
VERTEX
8
Capa 1
10
90.099511
20
152.915572
70
0
0
VERTEX
8
Capa 1
10
90.968895
20
154.194900
70
0
0
VERTEX
8
Capa 1
10
91.971429
20
155.393561
70
0
0
VERTEX
8
Capa 1
10
93.105703
20
156.499690
70
0
0
VERTEX
8
Capa 1
10
94.418985
20
157.537940
70
0
0
VERTEX
8
Capa 1
10
95.809426
20
158.417102
70
0
0
VERTEX
8
Capa 1
10
97.264558
20
159.138645
70
0
0
VERTEX
8
Capa 1
10
98.771907
20
159.704036
70
0
0
VERTEX
8
Capa 1
10
100.319003
20
160.114741
70
0
0
VERTEX
8
Capa 1
10
101.893375
20
160.372228
70
0
0
VERTEX
8
Capa 1
10
103.482552
20
160.477964
70
0
0
VERTEX
8
Capa 1
10
105.074062
20
160.433416
70
0
0
VERTEX
8
Capa 1
10
108.214198
20
159.899338
70
0
0
VERTEX
8
Capa 1
10
109.737882
20
159.412742
70
0
0
VERTEX
8
Capa 1
10
111.214014
20
158.781731
70
0
0
VERTEX
8
Capa 1
10
112.630124
20
158.007772
70
0
0
VERTEX
8
Capa 1
10
113.973741
20
157.092333
70
0
0
VERTEX
8
Capa 1
10
115.232394
20
156.036880
70
0
0
VERTEX
8
Capa 1
10
116.393610
20
154.842880
70
0
0
VERTEX
8
Capa 1
10
117.480597
20
153.464129
70
0
0
VERTEX
8
Capa 1
10
118.400836
20
152.004650
70
0
0
VERTEX
8
Capa 1
10
119.155853
20
150.477519
70
0
0
VERTEX
8
Capa 1
10
119.747175
20
148.895815
70
0
0
VERTEX
8
Capa 1
10
120.176327
20
147.272615
70
0
0
VERTEX
8
Capa 1
10
120.444836
20
145.620998
70
0
0
VERTEX
8
Capa 1
10
120.554228
20
143.954040
70
0
0
VERTEX
8
Capa 1
10
120.506029
20
142.284820
70
0
0
VERTEX
8
Capa 1
10
120.301766
20
140.626415
70
0
0
VERTEX
8
Capa 1
10
119.942965
20
138.991904
70
0
0
VERTEX
8
Capa 1
10
119.431153
20
137.394364
70
0
0
VERTEX
8
Capa 1
10
118.767855
20
135.846873
70
0
0
VERTEX
8
Capa 1
10
117.954598
20
134.362508
70
0
0
VERTEX
8
Capa 1
10
116.992908
20
132.954347
70
0
0
VERTEX
8
Capa 1
10
115.884312
20
131.635469
70
0
0
VERTEX
8
Capa 1
10
114.630335
20
130.418950
70
0
0
VERTEX
8
Capa 1
10
113.185862
20
129.283041
70
0
0
VERTEX
8
Capa 1
10
111.657077
20
128.321572
70
0
0
VERTEX
8
Capa 1
10
110.057667
20
127.532956
70
0
0
VERTEX
8
Capa 1
10
108.401318
20
126.915608
70
0
0
VERTEX
8
Capa 1
10
106.701718
20
126.467943
70
0
0
VERTEX
8
Capa 1
10
104.972554
20
126.188374
70
0
0
VERTEX
8
Capa 1
10
103.227512
20
126.075317
70
0
0
VERTEX
8
Capa 1
10
101.480280
20
126.127186
70
0
0
VERTEX
8
Capa 1
10
99.744545
20
126.342395
70
0
0
VERTEX
8
Capa 1
10
98.033993
20
126.719359
70
0
0
VERTEX
8
Capa 1
10
96.362311
20
127.256492
70
0
0
VERTEX
8
Capa 1
10
94.743187
20
127.952209
70
0
0
VERTEX
8
Capa 1
10
93.190307
20
128.804924
70
0
0
VERTEX
8
Capa 1
10
91.717359
20
129.813051
70
0
0
VERTEX
8
Capa 1
10
90.338029
20
130.975005
70
0
0
VERTEX
8
Capa 1
10
89.066004
20
132.289200
70
0
0
VERTEX
8
Capa 1
10
87.880996
20
133.799641
70
0
0
VERTEX
8
Capa 1
10
86.878147
20
135.397990
70
0
0
VERTEX
8
Capa 1
10
86.055812
20
137.069950
70
0
0
VERTEX
8
Capa 1
10
85.412346
20
138.801222
70
0
0
VERTEX
8
Capa 1
10
84.946103
20
140.577507
70
0
0
VERTEX
8
Capa 1
10
84.655439
20
142.384507
70
0
0
VERTEX
8
Capa 1
10
84.538709
20
144.207923
70
0
0
VERTEX
8
Capa 1
10
84.594267
20
146.033457
70
0
0
VERTEX
8
Capa 1
10
84.820469
20
147.846811
70
0
0
VERTEX
8
Capa 1
10
85.215668
20
149.633685
70
0
0
VERTEX
8
Capa 1
10
85.778221
20
151.379782
70
0
0
VERTEX
8
Capa 1
10
86.506482
20
153.070802
70
0
0
VERTEX
8
Capa 1
10
87.398806
20
154.692447
70
0
0
VERTEX
8
Capa 1
10
88.453548
20
156.230420
70
0
0
VERTEX
8
Capa 1
10
89.669062
20
157.670420
70
0
0
VERTEX
8
Capa 1
10
91.043704
20
158.998150
70
0
0
VERTEX
8
Capa 1
10
92.620350
20
160.232428
70
0
0
VERTEX
8
Capa 1
10
94.288514
20
161.276800
70
0
0
VERTEX
8
Capa 1
10
96.033285
20
162.132970
70
0
0
VERTEX
8
Capa 1
10
97.839749
20
162.802644
70
0
0
VERTEX
8
Capa 1
10
99.692996
20
163.287526
70
0
0
VERTEX
8
Capa 1
10
101.578111
20
163.589320
70
0
0
VERTEX
8
Capa 1
10
103.480184
20
163.709733
70
0
0
VERTEX
8
Capa 1
10
105.384300
20
163.650468
70
0
0
VERTEX
8
Capa 1
10
107.275549
20
163.413230
70
0
0
VERTEX
8
Capa 1
10
109.139017
20
162.999724
70
0
0
VERTEX
8
Capa 1
10
110.959793
20
162.411655
70
0
0
VERTEX
8
Capa 1
10
112.722964
20
161.650727
70
0
0
VERTEX
8
Capa 1
10
114.413617
20
160.718646
70
0
0
VERTEX
8
Capa 1
10
116.016840
20
159.617117
70
0
0
VERTEX
8
Capa 1
10
117.517721
20
158.347843
70
0
0
VERTEX
8
Capa 1
10
118.901347
20
156.912530
70
0
0
VERTEX
8
Capa 1
10
120.185061
20
155.269451
70
0
0
VERTEX
8
Capa 1
10
121.271094
20
153.531232
70
0
0
VERTEX
8
Capa 1
10
122.161212
20
151.713399
70
0
0
VERTEX
8
Capa 1
10
122.857180
20
149.831483
70
0
0
VERTEX
8
Capa 1
10
123.360761
20
147.901011
70
0
0
VERTEX
8
Capa 1
10
123.673721
20
145.937511
70
0
0
VERTEX
8
Capa 1
10
123.797824
20
143.956513
70
0
0
VERTEX
8
Capa 1
10
123.734835
20
141.973544
70
0
0
VERTEX
8
Capa 1
10
123.486519
20
140.004133
70
0
0
VERTEX
8
Capa 1
10
123.054640
20
138.063808
70
0
0
VERTEX
8
Capa 1
10
122.440962
20
136.168099
70
0
0
VERTEX
8
Capa 1
10
121.647252
20
134.332533
70
0
0
VERTEX
8
Capa 1
10
120.675272
20
132.572638
70
0
0
VERTEX
8
Capa 1
10
119.526789
20
130.903944
70
0
0
VERTEX
8
Capa 1
10
118.203566
20
129.341978
70
0
0
VERTEX
8
Capa 1
10
116.707368
20
127.902270
70
0
0
VERTEX
8
Capa 1
10
114.997635
20
126.568961
70
0
0
VERTEX
8
Capa 1
10
113.189127
20
125.441132
70
0
0
VERTEX
8
Capa 1
10
111.297989
20
124.516958
70
0
0
VERTEX
8
Capa 1
10
109.340370
20
123.794614
70
0
0
VERTEX
8
Capa 1
10
107.332414
20
123.272276
70
0
0
VERTEX
8
Capa 1
10
105.290270
20
122.948118
70
0
0
VERTEX
8
Capa 1
10
103.230083
20
122.820317
70
0
0
VERTEX
8
Capa 1
10
101.168001
20
122.887046
70
0
0
VERTEX
8
Capa 1
10
99.120169
20
123.146482
70
0
0
VERTEX
8
Capa 1
10
97.102736
20
123.596800
70
0
0
VERTEX
8
Capa 1
10
95.131846
20
124.236175
70
0
0
VERTEX
8
Capa 1
10
93.223648
20
125.062783
70
0
0
VERTEX
8
Capa 1
10
91.394287
20
126.074798
70
0
0
VERTEX
8
Capa 1
10
89.659910
20
127.270395
70
0
0
VERTEX
8
Capa 1
10
88.036664
20
128.647751
70
0
0
VERTEX
8
Capa 1
10
86.540696
20
130.205040
70
0
0
VERTEX
8
Capa 1
10
85.157637
20
131.981641
70
0
0
VERTEX
8
Capa 1
10
83.987883
20
133.860663
70
0
0
VERTEX
8
Capa 1
10
83.029547
20
135.825340
70
0
0
VERTEX
8
Capa 1
10
82.280745
20
137.858906
70
0
0
VERTEX
8
Capa 1
10
81.739593
20
139.944593
70
0
0
VERTEX
8
Capa 1
10
81.404204
20
142.065633
70
0
0
VERTEX
8
Capa 1
10
81.272695
20
144.205261
70
0
0
VERTEX
8
Capa 1
10
81.343180
20
146.346710
70
0
0
VERTEX
8
Capa 1
10
81.613774
20
148.473212
70
0
0
VERTEX
8
Capa 1
10
82.082593
20
150.568000
70
0
0
VERTEX
8
Capa 1
10
82.747752
20
152.614308
70
0
0
VERTEX
8
Capa 1
10
83.607365
20
154.595368
70
0
0
VERTEX
8
Capa 1
10
84.659547
20
156.494414
70
0
0
VERTEX
8
Capa 1
10
85.902415
20
158.294679
70
0
0
VERTEX
8
Capa 1
10
87.334082
20
159.979396
70
0
0
VERTEX
8
Capa 1
10
88.952664
20
161.531798
70
0
0
VERTEX
8
Capa 1
10
90.796339
20
162.964756
70
0
0
VERTEX
8
Capa 1
10
92.746093
20
164.176562
70
0
0
VERTEX
8
Capa 1
10
94.784538
20
165.169161
70
0
0
VERTEX
8
Capa 1
10
96.894284
20
165.944499
70
0
0
VERTEX
8
Capa 1
10
99.057942
20
166.504519
70
0
0
VERTEX
8
Capa 1
10
101.258123
20
166.851169
70
0
0
VERTEX
8
Capa 1
10
103.477437
20
166.986394
70
0
0
VERTEX
8
Capa 1
10
105.698496
20
166.912137
70
0
0
VERTEX
8
Capa 1
10
107.903910
20
166.630346
70
0
0
VERTEX
8
Capa 1
10
110.076290
20
166.142965
70
0
0
VERTEX
8
Capa 1
10
112.198247
20
165.451939
70
0
0
VERTEX
8
Capa 1
10
114.252392
20
164.559214
70
0
0
VERTEX
8
Capa 1
10
116.221336
20
163.466736
70
0
0
VERTEX
8
Capa 1
10
118.087689
20
162.176449
70
0
0
VERTEX
8
Capa 1
10
119.834063
20
160.690298
70
0
0
VERTEX
8
Capa 1
10
121.443067
20
159.010230
70
0
0
VERTEX
8
Capa 1
10
122.926070
20
157.099280
70
0
0
VERTEX
8
Capa 1
10
124.180050
20
155.078581
70
0
0
VERTEX
8
Capa 1
10
125.207011
20
152.966148
70
0
0
VERTEX
8
Capa 1
10
126.008960
20
150.779994
70
0
0
VERTEX
8
Capa 1
10
126.587903
20
148.538132
70
0
0
VERTEX
8
Capa 1
10
126.945845
20
146.258575
70
0
0
VERTEX
8
Capa 1
10
127.084792
20
143.959336
70
0
0
VERTEX
8
Capa 1
10
127.006750
20
141.658430
70
0
0
VERTEX
8
Capa 1
10
126.713726
20
139.373869
70
0
0
VERTEX
8
Capa 1
10
126.207724
20
137.123667
70
0
0
VERTEX
8
Capa 1
10
125.490752
20
134.925836
70
0
0
VERTEX
8
Capa 1
10
124.564813
20
132.798391
70
0
0
VERTEX
8
Capa 1
10
123.431916
20
130.759344
70
0
0
VERTEX
8
Capa 1
10
122.094064
20
128.826710
70
0
0
VERTEX
8
Capa 1
10
120.553265
20
127.018501
70
0
0
VERTEX
8
Capa 1
10
118.811524
20
125.352730
70
0
0
VERTEX
8
Capa 1
10
116.833103
20
123.819540
70
0
0
VERTEX
8
Capa 1
10
114.741256
20
122.523269
70
0
0
VERTEX
8
Capa 1
10
112.554620
20
121.461849
70
0
0
VERTEX
8
Capa 1
10
110.291835
20
120.633215
70
0
0
VERTEX
8
Capa 1
10
107.971542
20
120.035300
70
0
0
VERTEX
8
Capa 1
10
105.612378
20
119.666036
70
0
0
VERTEX
8
Capa 1
10
103.232985
20
119.523359
70
0
0
VERTEX
8
Capa 1
10
100.852000
20
119.605200
70
0
0
VERTEX
8
Capa 1
10
98.488064
20
119.909494
70
0
0
VERTEX
8
Capa 1
10
96.159815
20
120.434173
70
0
0
VERTEX
8
Capa 1
10
93.885893
20
121.177171
70
0
0
VERTEX
8
Capa 1
10
91.684938
20
122.136423
70
0
0
VERTEX
8
Capa 1
10
89.575589
20
123.309859
70
0
0
VERTEX
8
Capa 1
10
87.576485
20
124.695416
70
0
0
VERTEX
8
Capa 1
10
85.706265
20
126.291025
70
0
0
VERTEX
8
Capa 1
10
83.983570
20
128.094620
70
0
0
VERTEX
8
Capa 1
10
82.400057
20
130.140701
70
0
0
VERTEX
8
Capa 1
10
81.061379
20
132.303900
70
0
0
VERTEX
8
Capa 1
10
79.965408
20
134.564947
70
0
0
VERTEX
8
Capa 1
10
79.110017
20
136.904577
70
0
0
VERTEX
8
Capa 1
10
78.493078
20
139.303522
70
0
0
VERTEX
8
Capa 1
10
78.112464
20
141.742515
70
0
0
VERTEX
8
Capa 1
10
77.966048
20
144.202289
70
0
0
VERTEX
8
Capa 1
10
78.051702
20
146.663576
70
0
0
VERTEX
8
Capa 1
10
78.367299
20
149.107109
70
0
0
VERTEX
8
Capa 1
10
78.910711
20
151.513621
70
0
0
VERTEX
8
Capa 1
10
79.679811
20
153.863845
70
0
0
VERTEX
8
Capa 1
10
80.672472
20
156.138513
70
0
0
VERTEX
8
Capa 1
10
81.886565
20
158.318359
70
0
0
VERTEX
8
Capa 1
10
83.319965
20
160.384114
70
0
0
VERTEX
8
Capa 1
10
84.970542
20
162.316513
70
0
0
VERTEX
8
Capa 1
10
86.836171
20
164.096287
70
0
0
VERTEX
8
Capa 1
10
88.950095
20
165.730257
70
0
0
VERTEX
8
Capa 1
10
91.184836
20
167.111455
70
0
0
VERTEX
8
Capa 1
10
93.520496
20
168.242068
70
0
0
VERTEX
8
Capa 1
10
95.937180
20
169.124286
70
0
0
VERTEX
8
Capa 1
10
98.414989
20
169.760297
70
0
0
VERTEX
8
Capa 1
10
100.934027
20
170.152289
70
0
0
VERTEX
8
Capa 1
10
103.474397
20
170.302451
70
0
0
VERTEX
8
Capa 1
10
106.016203
20
170.212971
70
0
0
VERTEX
8
Capa 1
10
108.539548
20
169.886038
70
0
0
VERTEX
8
Capa 1
10
111.024535
20
169.323839
70
0
0
VERTEX
8
Capa 1
10
113.451267
20
168.528564
70
0
0
VERTEX
8
Capa 1
10
115.799847
20
167.502400
70
0
0
VERTEX
8
Capa 1
10
118.050378
20
166.247537
70
0
0
VERTEX
8
Capa 1
10
120.182964
20
164.766162
70
0
0
VERTEX
8
Capa 1
10
122.177708
20
163.060464
70
0
0
VERTEX
8
Capa 1
10
124.014713
20
161.132632
70
0
0
VERTEX
8
Capa 1
10
125.699270
20
158.950684
70
0
0
VERTEX
8
Capa 1
10
127.123096
20
156.644210
70
0
0
VERTEX
8
Capa 1
10
128.288441
20
154.233739
70
0
0
VERTEX
8
Capa 1
10
129.197554
20
151.739798
70
0
0
VERTEX
8
Capa 1
10
129.852684
20
149.182916
70
0
0
VERTEX
8
Capa 1
10
130.256082
20
146.583621
70
0
0
VERTEX
8
Capa 1
10
130.409997
20
143.962440
70
0
0
VERTEX
8
Capa 1
10
130.316678
20
141.339903
70
0
0
VERTEX
8
Capa 1
10
129.978375
20
138.736536
70
0
0
VERTEX
8
Capa 1
10
129.397338
20
136.172870
70
0
0
VERTEX
8
Capa 1
10
128.575816
20
133.669430
70
0
0
VERTEX
8
Capa 1
10
127.516058
20
131.246746
70
0
0
VERTEX
8
Capa 1
10
126.220315
20
128.925346
70
0
0
VERTEX
8
Capa 1
10
124.690835
20
126.725758
70
0
0
VERTEX
8
Capa 1
10
122.929869
20
124.668510
70
0
0
VERTEX
8
Capa 1
10
120.939666
20
122.774130
70
0
0
VERTEX
8
Capa 1
10
118.689520
20
121.038858
70
0
0
VERTEX
8
Capa 1
10
116.311130
20
119.572297
70
0
0
VERTEX
8
Capa 1
10
113.825656
20
118.372134
70
0
0
VERTEX
8
Capa 1
10
111.254260
20
117.436059
70
0
0
VERTEX
8
Capa 1
10
108.618102
20
116.761762
70
0
0
VERTEX
8
Capa 1
10
105.938344
20
116.346931
70
0
0
VERTEX
8
Capa 1
10
103.236147
20
116.189256
70
0
0
VERTEX
8
Capa 1
10
100.532672
20
116.286425
70
0
0
VERTEX
8
Capa 1
10
97.849080
20
116.636128
70
0
0
VERTEX
8
Capa 1
10
95.206532
20
117.236055
70
0
0
VERTEX
8
Capa 1
10
92.626190
20
118.083893
70
0
0
VERTEX
8
Capa 1
10
90.129213
20
119.177333
70
0
0
VERTEX
8
Capa 1
10
87.736764
20
120.514064
70
0
0
VERTEX
8
Capa 1
10
85.470003
20
122.091774
70
0
0
VERTEX
8
Capa 1
10
83.350092
20
123.908153
70
0
0
VERTEX
8
Capa 1
10
81.398191
20
125.960890
70
0
0
VERTEX
8
Capa 1
10
79.612083
20
128.279405
70
0
0
VERTEX
8
Capa 1
10
78.102683
20
130.729893
70
0
0
VERTEX
8
Capa 1
10
76.867619
20
133.290557
70
0
0
VERTEX
8
Capa 1
10
75.904520
20
135.939603
70
0
0
VERTEX
8
Capa 1
10
75.211011
20
138.655234
70
0
0
VERTEX
8
Capa 1
10
74.784722
20
141.415654
70
0
0
VERTEX
8
Capa 1
10
74.623280
20
144.199070
70
0
0
VERTEX
8
Capa 1
10
74.724313
20
146.983683
70
0
0
VERTEX
8
Capa 1
10
75.085448
20
149.747700
70
0
0
VERTEX
8
Capa 1
10
75.704313
20
152.469324
70
0
0
VERTEX
8
Capa 1
10
76.578536
20
155.126760
70
0
0
VERTEX
8
Capa 1
10
77.705745
20
157.698211
70
0
0
VERTEX
8
Capa 1
10
79.083567
20
160.161883
70
0
0
VERTEX
8
Capa 1
10
80.709630
20
162.495980
70
0
0
VERTEX
8
Capa 1
10
82.581562
20
164.678706
70
0
0
VERTEX
8
Capa 1
10
84.696991
20
166.688266
70
0
0
VERTEX
8
Capa 1
10
87.084040
20
168.525332
70
0
0
VERTEX
8
Capa 1
10
89.606799
20
170.077672
70
0
0
VERTEX
8
Capa 1
10
92.242835
20
171.347719
70
0
0
VERTEX
8
Capa 1
10
94.969718
20
172.337908
70
0
0
VERTEX
8
Capa 1
10
97.765014
20
173.050672
70
0
0
VERTEX
8
Capa 1
10
100.606293
20
173.488446
70
0
0
VERTEX
8
Capa 1
10
103.471123
20
173.653662
70
0
0
VERTEX
8
Capa 1
10
106.337072
20
173.548755
70
0
0
VERTEX
8
Capa 1
10
109.181708
20
173.176158
70
0
0
VERTEX
8
Capa 1
10
111.982599
20
172.538306
70
0
0
VERTEX
8
Capa 1
10
114.717313
20
171.637632
70
0
0
VERTEX
8
Capa 1
10
117.363419
20
170.476571
70
0
0
VERTEX
8
Capa 1
10
119.898485
20
169.057555
70
0
0
VERTEX
8
Capa 1
10
122.300080
20
167.383019
70
0
0
VERTEX
8
Capa 1
10
124.545770
20
165.455396
70
0
0
VERTEX
8
Capa 1
10
126.613125
20
163.277121
70
0
0
VERTEX
8
Capa 1
10
128.501267
20
160.821375
70
0
0
VERTEX
8
Capa 1
10
130.096645
20
158.226173
70
0
0
VERTEX
8
Capa 1
10
131.401757
20
155.514585
70
0
0
VERTEX
8
Capa 1
10
132.419096
20
152.709682
70
0
0
VERTEX
8
Capa 1
10
133.151160
20
149.834531
70
0
0
VERTEX
8
Capa 1
10
133.600442
20
146.912202
70
0
0
VERTEX
8
Capa 1
10
133.769439
20
143.965766
70
0
0
VERTEX
8
Capa 1
10
133.660647
20
141.018291
70
0
0
VERTEX
8
Capa 1
10
133.276560
20
138.092847
70
0
0
VERTEX
8
Capa 1
10
132.619674
20
135.212504
70
0
0
VERTEX
8
Capa 1
10
131.692485
20
132.400330
70
0
0
VERTEX
8
Capa 1
10
130.497489
20
129.679396
70
0
0
VERTEX
8
Capa 1
10
129.037180
20
127.072770
70
0
0
VERTEX
8
Capa 1
10
127.314054
20
124.603523
70
0
0
VERTEX
8
Capa 1
10
125.330607
20
122.294723
70
0
0
VERTEX
8
Capa 1
10
123.089335
20
120.169440
70
0
0
VERTEX
8
Capa 1
10
120.564734
20
118.230108
70
0
0
VERTEX
8
Capa 1
10
117.896923
20
116.591594
70
0
0
VERTEX
8
Capa 1
10
115.109611
20
115.251340
70
0
0
VERTEX
8
Capa 1
10
112.226506
20
114.206790
70
0
0
VERTEX
8
Capa 1
10
109.271318
20
113.455385
70
0
0
VERTEX
8
Capa 1
10
106.267754
20
112.994569
70
0
0
VERTEX
8
Capa 1
10
103.239523
20
112.821784
70
0
0
VERTEX
8
Capa 1
10
100.210334
20
112.934472
70
0
0
VERTEX
8
Capa 1
10
97.203897
20
113.330078
70
0
0
VERTEX
8
Capa 1
10
94.243918
20
114.006043
70
0
0
VERTEX
8
Capa 1
10
91.354107
20
114.959810
70
0
0
VERTEX
8
Capa 1
10
88.558173
20
116.188822
70
0
0
VERTEX
8
Capa 1
10
85.879824
20
117.690521
70
0
0
VERTEX
8
Capa 1
10
83.342769
20
119.462350
70
0
0
VERTEX
8
Capa 1
10
80.970716
20
121.501752
70
0
0
VERTEX
8
Capa 1
10
78.787375
20
123.806170
70
0
0
VERTEX
8
Capa 1
10
76.796739
20
126.399783
70
0
0
VERTEX
8
Capa 1
10
75.114994
20
129.140369
70
0
0
VERTEX
8
Capa 1
10
73.739521
20
132.003578
70
0
0
VERTEX
8
Capa 1
10
72.667700
20
134.965061
70
0
0
VERTEX
8
Capa 1
10
71.896913
20
138.000469
70
0
0
VERTEX
8
Capa 1
10
71.424539
20
141.085452
70
0
0
VERTEX
8
Capa 1
10
71.247960
20
144.195661
70
0
0
VERTEX
8
Capa 1
10
71.364556
20
147.306747
70
0
0
VERTEX
8
Capa 1
10
71.771708
20
150.394361
70
0
0
VERTEX
8
Capa 1
10
72.466797
20
153.434152
70
0
0
VERTEX
8
Capa 1
10
73.447203
20
156.401773
70
0
0
VERTEX
8
Capa 1
10
74.710308
20
159.272874
70
0
0
VERTEX
8
Capa 1
10
76.253491
20
162.023105
70
0
0
VERTEX
8
Capa 1
10
78.074135
20
164.628117
70
0
0
VERTEX
8
Capa 1
10
80.169618
20
167.063561
70
0
0
VERTEX
8
Capa 1
10
82.537323
20
169.305087
70
0
0
VERTEX
8
Capa 1
10
85.200096
20
171.347135
70
0
0
VERTEX
8
Capa 1
10
88.013612
20
173.072202
70
0
0
VERTEX
8
Capa 1
10
90.952881
20
174.482969
70
0
0
VERTEX
8
Capa 1
10
93.992910
20
175.582117
70
0
0
VERTEX
8
Capa 1
10
97.108709
20
176.372328
70
0
0
VERTEX
8
Capa 1
10
100.275287
20
176.856282
70
0
0
VERTEX
8
Capa 1
10
103.467651
20
177.036662
70
0
0
VERTEX
8
Capa 1
10
106.660812
20
176.916148
70
0
0
VERTEX
8
Capa 1
10
109.829776
20
176.497422
70
0
0
VERTEX
8
Capa 1
10
112.949553
20
175.783165
70
0
0
VERTEX
8
Capa 1
10
115.995152
20
174.776059
70
0
0
VERTEX
8
Capa 1
10
118.941581
20
173.478785
70
0
0
VERTEX
8
Capa 1
10
121.763849
20
171.894024
70
0
0
VERTEX
8
Capa 1
10
124.436964
20
170.024458
70
0
0
VERTEX
8
Capa 1
10
126.935936
20
167.872767
70
0
0
VERTEX
8
Capa 1
10
129.235772
20
165.441634
70
0
0
VERTEX
8
Capa 1
10
131.329342
20
162.709551
70
0
0
VERTEX
8
Capa 1
10
133.097822
20
159.822946
70
0
0
VERTEX
8
Capa 1
10
134.543957
20
156.807453
70
0
0
VERTEX
8
Capa 1
10
135.670489
20
153.688707
70
0
0
VERTEX
8
Capa 1
10
136.480163
20
150.492343
70
0
0
VERTEX
8
Capa 1
10
136.975721
20
147.243995
70
0
0
VERTEX
8
Capa 1
10
137.159908
20
143.969299
70
0
0
VERTEX
8
Capa 1
10
137.035466
20
140.693889
70
0
0
VERTEX
8
Capa 1
10
136.605140
20
137.443400
70
0
0
VERTEX
8
Capa 1
10
135.871673
20
134.243467
70
0
0
VERTEX
8
Capa 1
10
134.837808
20
131.119725
70
0
0
VERTEX
8
Capa 1
10
133.506289
20
128.097808
70
0
0
VERTEX
8
Capa 1
10
131.879860
20
125.203351
70
0
0
VERTEX
8
Capa 1
10
129.961264
20
122.461989
70
0
0
VERTEX
8
Capa 1
10
127.753245
20
119.899357
70
0
0
VERTEX
8
Capa 1
10
125.258546
20
117.541090
70
0
0
VERTEX
8
Capa 1
10
122.457009
20
115.395895
70
0
0
VERTEX
8
Capa 1
10
119.497162
20
113.583913
70
0
0
VERTEX
8
Capa 1
10
116.405286
20
112.102339
70
0
0
VERTEX
8
Capa 1
10
113.207659
20
110.948367
70
0
0
VERTEX
8
Capa 1
10
109.930562
20
110.119191
70
0
0
VERTEX
8
Capa 1
10
106.600273
20
109.612006
70
0
0
VERTEX
8
Capa 1
10
103.243074
20
109.424006
70
0
0
VERTEX
8
Capa 1
10
99.885243
20
109.552384
70
0
0
VERTEX
8
Capa 1
10
96.553059
20
109.994335
70
0
0
VERTEX
8
Capa 1
10
93.272803
20
110.747053
70
0
0
VERTEX
8
Capa 1
10
90.070755
20
111.807733
70
0
0
VERTEX
8
Capa 1
10
86.973193
20
113.173569
70
0
0
VERTEX
8
Capa 1
10
84.006397
20
114.841754
70
0
0
VERTEX
8
Capa 1
10
81.196648
20
116.809483
70
0
0
VERTEX
8
Capa 1
10
78.570224
20
119.073950
70
0
0
VERTEX
8
Capa 1
10
76.153405
20
121.632350
70
0
0
VERTEX
8
Capa 1
10
73.956480
20
124.503484
70
0
0
VERTEX
8
Capa 1
10
72.100910
20
127.536722
70
0
0
VERTEX
8
Capa 1
10
70.583827
20
130.705139
70
0
0
VERTEX
8
Capa 1
10
69.402362
20
133.981807
70
0
0
VERTEX
8
Capa 1
10
68.553646
20
137.339803
70
0
0
VERTEX
8
Capa 1
10
68.034813
20
140.752199
70
0
0
VERTEX
8
Capa 1
10
67.842994
20
144.192070
70
0
0
VERTEX
8
Capa 1
10
67.975319
20
147.632490
70
0
0
VERTEX
8
Capa 1
10
68.428922
20
151.046534
70
0
0
VERTEX
8
Capa 1
10
69.200934
20
154.407276
70
0
0
VERTEX
8
Capa 1
10
70.288486
20
157.687789
70
0
0
VERTEX
8
Capa 1
10
71.688711
20
160.861149
70
0
0
VERTEX
8
Capa 1
10
73.398739
20
163.900429
70
0
0
VERTEX
8
Capa 1
10
75.415704
20
166.778704
70
0
0
VERTEX
8
Capa 1
10
77.736736
20
169.469047
70
0
0
VERTEX
8
Capa 1
10
80.358968
20
171.944533
70
0
0
VERTEX
8
Capa 1
10
83.299838
20
174.193289
70
0
0
VERTEX
8
Capa 1
10
86.406614
20
176.092532
70
0
0
VERTEX
8
Capa 1
10
89.651723
20
177.645195
70
0
0
VERTEX
8
Capa 1
10
93.007591
20
178.854207
70
0
0
VERTEX
8
Capa 1
10
96.446645
20
179.722499
70
0
0
VERTEX
8
Capa 1
10
99.941312
20
180.253002
70
0
0
VERTEX
8
Capa 1
10
103.464019
20
180.448647
70
0
0
VERTEX
8
Capa 1
10
106.987193
20
180.312365
70
0
0
VERTEX
8
Capa 1
10
110.483259
20
179.847087
70
0
0
VERTEX
8
Capa 1
10
113.924646
20
179.055742
70
0
0
VERTEX
8
Capa 1
10
117.283779
20
177.941263
70
0
0
VERTEX
8
Capa 1
10
120.533086
20
176.506579
70
0
0
VERTEX
8
Capa 1
10
123.644993
20
174.754622
70
0
0
VERTEX
8
Capa 1
10
126.591928
20
172.688322
70
0
0
VERTEX
8
Capa 1
10
129.346316
20
170.310611
70
0
0
VERTEX
8
Capa 1
10
131.880584
20
167.624418
70
0
0
VERTEX
8
Capa 1
10
134.181270
20
164.613675
70
0
0
VERTEX
8
Capa 1
10
136.124271
20
161.433217
70
0
0
VERTEX
8
Capa 1
10
137.712581
20
158.111266
70
0
0
VERTEX
8
Capa 1
10
138.949192
20
154.676044
70
0
0
VERTEX
8
Capa 1
10
139.837098
20
151.155772
70
0
0
VERTEX
8
Capa 1
10
140.379293
20
147.578673
70
0
0
VERTEX
8
Capa 1
10
140.578770
20
143.972969
70
0
0
VERTEX
8
Capa 1
10
140.438522
20
140.366881
70
0
0
VERTEX
8
Capa 1
10
139.961543
20
136.788632
70
0
0
VERTEX
8
Capa 1
10
139.150826
20
133.266444
70
0
0
VERTEX
8
Capa 1
10
138.009366
20
129.828538
70
0
0
VERTEX
8
Capa 1
10
136.540154
20
126.503137
70
0
0
VERTEX
8
Capa 1
10
134.746186
20
123.318463
70
0
0
VERTEX
8
Capa 1
10
132.630453
20
120.302737
70
0
0
VERTEX
8
Capa 1
10
130.195950
20
117.484182
70
0
0
VERTEX
8
Capa 1
10
127.445670
20
114.891020
70
0
0
VERTEX
8
Capa 1
10
124.364921
20
112.538307
70
0
0
VERTEX
8
Capa 1
10
121.110641
20
110.551467
70
0
0
VERTEX
8
Capa 1
10
117.711700
20
108.927445
70
0
0
VERTEX
8
Capa 1
10
114.196972
20
107.663183
70
0
0
VERTEX
8
Capa 1
10
110.595328
20
106.755627
70
0
0
VERTEX
8
Capa 1
10
106.935640
20
106.201720
70
0
0
VERTEX
8
Capa 1
10
103.246779
20
105.998405
70
0
0
VERTEX
8
Capa 1
10
99.557619
20
106.142626
70
0
0
VERTEX
8
Capa 1
10
95.897031
20
106.631328
70
0
0
VERTEX
8
Capa 1
10
92.293887
20
107.461454
70
0
0
VERTEX
8
Capa 1
10
88.777059
20
108.629948
70
0
0
VERTEX
8
Capa 1
10
85.375419
20
110.133754
70
0
0
VERTEX
8
Capa 1
10
82.117839
20
111.969815
70
0
0
VERTEX
8
Capa 1
10
79.033191
20
114.135075
70
0
0
VERTEX
8
Capa 1
10
76.150347
20
116.626479
70
0
0
VERTEX
8
Capa 1
10
73.498179
20
119.440970
70
0
0
VERTEX
8
Capa 1
10
71.093343
20
122.591857
70
0
0
VERTEX
8
Capa 1
10
69.062584
20
125.920100
70
0
0
VERTEX
8
Capa 1
10
67.402784
20
129.396175
70
0
0
VERTEX
8
Capa 1
10
66.110823
20
132.990559
70
0
0
VERTEX
8
Capa 1
10
65.183582
20
136.673728
70
0
0
VERTEX
8
Capa 1
10
64.617942
20
140.416160
70
0
0
VERTEX
8
Capa 1
10
64.410785
20
144.188332
70
0
0
VERTEX
8
Capa 1
10
64.558990
20
147.960719
70
0
0
VERTEX
8
Capa 1
10
65.059439
20
151.703799
70
0
0
VERTEX
8
Capa 1
10
65.909014
20
155.388049
70
0
0
VERTEX
8
Capa 1
10
67.104594
20
158.983946
70
0
0
VERTEX
8
Capa 1
10
68.643061
20
162.461966
70
0
0
VERTEX
8
Capa 1
10
70.521296
20
165.792586
70
0
0
VERTEX
8
Capa 1
10
72.736179
20
168.946282
70
0
0
VERTEX
8
Capa 1
10
75.284593
20
171.893533
70
0
0
VERTEX
8
Capa 1
10
78.163417
20
174.604814
70
0
0
VERTEX
8
Capa 1
10
81.384570
20
177.061867
70
0
0
VERTEX
8
Capa 1
10
84.786908
20
179.136623
70
0
0
VERTEX
8
Capa 1
10
88.340258
20
180.832266
70
0
0
VERTEX
8
Capa 1
10
92.014442
20
182.151977
70
0
0
VERTEX
8
Capa 1
10
95.779285
20
183.098938
70
0
0
VERTEX
8
Capa 1
10
99.604612
20
183.676330
70
0
0
VERTEX
8
Capa 1
10
103.460246
20
183.887337
70
0
0
VERTEX
8
Capa 1
10
107.316013
20
183.735140
70
0
0
VERTEX
8
Capa 1
10
111.141736
20
183.222921
70
0
0
VERTEX
8
Capa 1
10
114.907240
20
182.353862
70
0
0
VERTEX
8
Capa 1
10
118.582350
20
181.131145
70
0
0
VERTEX
8
Capa 1
10
122.136889
20
179.557953
70
0
0
VERTEX
8
Capa 1
10
125.540682
20
177.637466
70
0
0
VERTEX
8
Capa 1
10
128.763553
20
175.372868
70
0
0
VERTEX
8
Capa 1
10
131.775326
20
172.767339
70
0
0
VERTEX
8
Capa 1
10
134.545827
20
169.824063
70
0
0
VERTEX
8
Capa 1
10
137.055189
20
166.532518
70
0
0
VERTEX
8
Capa 1
10
139.174021
20
163.055949
70
0
0
VERTEX
8
Capa 1
10
140.905569
20
159.425186
70
0
0
VERTEX
8
Capa 1
10
142.253078
20
155.671058
70
0
0
VERTEX
8
Capa 1
10
143.219793
20
151.824394
70
0
0
VERTEX
8
Capa 1
10
143.808958
20
147.916023
70
0
0
VERTEX
8
Capa 1
10
144.023820
20
143.976776
70
0
0
VERTEX
8
Capa 1
10
143.867623
20
140.037480
70
0
0
VERTEX
8
Capa 1
10
143.343611
20
136.128966
70
0
0
VERTEX
8
Capa 1
10
142.455032
20
132.282063
70
0
0
VERTEX
8
Capa 1
10
141.205128
20
128.527600
70
0
0
VERTEX
8
Capa 1
10
139.597146
20
124.896406
70
0
0
VERTEX
8
Capa 1
10
137.634330
20
121.419311
70
0
0
VERTEX
8
Capa 1
10
135.319926
20
118.127143
70
0
0
VERTEX
8
Capa 1
10
132.657179
20
115.050733
70
0
0
VERTEX
8
Capa 1
10
129.649333
20
112.220910
70
0
0
VERTEX
8
Capa 1
10
126.287270
20
109.659148
70
0
0
VERTEX
8
Capa 1
10
122.736340
20
107.496163
70
0
0
VERTEX
8
Capa 1
10
119.028026
20
105.728647
70
0
0
VERTEX
8
Capa 1
10
115.193813
20
104.353293
70
0
0
VERTEX
8
Capa 1
10
111.265184
20
103.366791
70
0
0
VERTEX
8
Capa 1
10
107.273623
20
102.765833
70
0
0
VERTEX
8
Capa 1
10
103.250616
20
102.547111
70
0
0
VERTEX
8
Capa 1
10
99.227645
20
102.707318
70
0
0
VERTEX
8
Capa 1
10
95.236195
20
103.243143
70
0
0
VERTEX
8
Capa 1
10
91.307750
20
104.151280
70
0
0
VERTEX
8
Capa 1
10
87.473793
20
105.428419
70
0
0
VERTEX
8
Capa 1
10
83.765810
20
107.071253
70
0
0
VERTEX
8
Capa 1
10
80.215284
20
109.076474
70
0
0
VERTEX
8
Capa 1
10
76.853699
20
111.440772
70
0
0
VERTEX
8
Capa 1
10
73.712539
20
114.160840
70
0
0
VERTEX
8
Capa 1
10
70.823288
20
117.233370
70
0
0
VERTEX
8
Capa 1
10
68.209039
20
120.666072
70
0
0
VERTEX
8
Capa 1
10
66.001829
20
124.291492
70
0
0
VERTEX
8
Capa 1
10
64.198286
20
128.077490
70
0
0
VERTEX
8
Capa 1
10
62.795040
20
131.991927
70
0
0
VERTEX
8
Capa 1
10
61.788718
20
136.002662
70
0
0
VERTEX
8
Capa 1
10
61.175949
20
140.077555
70
0
0
VERTEX
8
Capa 1
10
60.953361
20
144.184467
70
0
0
VERTEX
8
Capa 1
10
61.117584
20
148.291257
70
0
0
VERTEX
8
Capa 1
10
61.665244
20
152.365786
70
0
0
VERTEX
8
Capa 1
10
62.592972
20
156.375912
70
0
0
VERTEX
8
Capa 1
10
63.897395
20
160.289498
70
0
0
VERTEX
8
Capa 1
10
65.575141
20
164.074401
70
0
0
VERTEX
8
Capa 1
10
67.622840
20
167.698484
70
0
0
VERTEX
8
Capa 1
10
70.037119
20
171.129604
70
0
0
VERTEX
8
Capa 1
10
72.814608
20
174.335623
70
0
0
VERTEX
8
Capa 1
10
75.951934
20
177.284401
70
0
0
VERTEX
8
Capa 1
10
79.455395
20
179.951226
70
0
0
VERTEX
8
Capa 1
10
83.155431
20
182.202736
70
0
0
VERTEX
8
Capa 1
10
87.019246
20
184.042366
70
0
0
VERTEX
8
Capa 1
10
91.014043
20
185.473551
70
0
0
VERTEX
8
Capa 1
10
95.107024
20
186.499725
70
0
0
VERTEX
8
Capa 1
10
99.265392
20
187.124324
70
0
0
VERTEX
8
Capa 1
10
103.456350
20
187.350783
70
0
0
VERTEX
8
Capa 1
10
107.647102
20
187.182536
70
0
0
VERTEX
8
Capa 1
10
111.804850
20
186.623019
70
0
0
VERTEX
8
Capa 1
10
115.896797
20
185.675666
70
0
0
VERTEX
8
Capa 1
10
119.890146
20
184.343912
70
0
0
VERTEX
8
Capa 1
10
123.752100
20
182.631193
70
0
0
VERTEX
8
Capa 1
10
127.449863
20
180.540942
70
0
0
VERTEX
8
Capa 1
10
130.950636
20
178.076596
70
0
0
VERTEX
8
Capa 1
10
134.221623
20
175.241588
70
0
0
VERTEX
8
Capa 1
10
137.230027
20
172.039354
70
0
0
VERTEX
8
Capa 1
10
139.949514
20
168.465016
70
0
0
VERTEX
8
Capa 1
10
142.245397
20
164.690239
70
0
0
VERTEX
8
Capa 1
10
144.121173
20
160.748478
70
0
0
VERTEX
8
Capa 1
10
145.580341
20
156.673189
70
0
0
VERTEX
8
Capa 1
10
146.626400
20
152.497825
70
0
0
VERTEX
8
Capa 1
10
147.262848
20
148.255844
70
0
0
VERTEX
8
Capa 1
10
147.493183
20
143.980699
70
0
0
VERTEX
8
Capa 1
10
147.320904
20
139.705847
70
0
0
VERTEX
8
Capa 1
10
146.749509
20
135.464742
70
0
0
VERTEX
8
Capa 1
10
145.782497
20
131.290839
70
0
0
VERTEX
8
Capa 1
10
144.423366
20
127.217594
70
0
0
VERTEX
8
Capa 1
10
142.675614
20
123.278462
70
0
0
VERTEX
8
Capa 1
10
140.542739
20
119.506899
70
0
0
VERTEX
8
Capa 1
10
138.028241
20
115.936359
70
0
0
VERTEX
8
Capa 1
10
135.135618
20
112.600297
70
0
0
VERTEX
8
Capa 1
10
131.868367
20
109.532170
70
0
0
VERTEX
8
Capa 1
10
128.223035
20
106.759937
70
0
0
VERTEX
8
Capa 1
10
124.373395
20
104.419611
70
0
0
VERTEX
8
Capa 1
10
120.353560
20
102.507631
70
0
0
VERTEX
8
Capa 1
10
116.197646
20
101.020434
70
0
0
VERTEX
8
Capa 1
10
111.939766
20
99.954459
70
0
0
VERTEX
8
Capa 1
10
107.614035
20
99.306144
70
0
0
VERTEX
8
Capa 1
10
103.254567
20
99.071927
70
0
0
VERTEX
8
Capa 1
10
98.895477
20
99.248245
70
0
0
VERTEX
8
Capa 1
10
94.570880
20
99.831537
70
0
0
VERTEX
8
Capa 1
10
90.314889
20
100.818242
70
0
0
VERTEX
8
Capa 1
10
86.161619
20
102.204796
70
0
0
VERTEX
8
Capa 1
10
82.145185
20
103.987638
70
0
0
VERTEX
8
Capa 1
10
78.299701
20
106.163207
70
0
0
VERTEX
8
Capa 1
10
74.659282
20
108.727940
70
0
0
VERTEX
8
Capa 1
10
71.258041
20
111.678275
70
0
0
VERTEX
8
Capa 1
10
68.130094
20
115.010650
70
0
0
VERTEX
8
Capa 1
10
65.305031
20
118.727089
70
0
0
VERTEX
8
Capa 1
10
62.920192
20
122.651714
70
0
0
VERTEX
8
Capa 1
10
60.971952
20
126.749747
70
0
0
VERTEX
8
Capa 1
10
59.456683
20
130.986417
70
0
0
VERTEX
8
Capa 1
10
58.370762
20
135.326946
70
0
0
VERTEX
8
Capa 1
10
57.710562
20
139.736561
70
0
0
VERTEX
8
Capa 1
10
57.472458
20
144.180487
70
0
0
VERTEX
8
Capa 1
10
57.652824
20
148.623949
70
0
0
VERTEX
8
Capa 1
10
58.248034
20
153.032173
70
0
0
VERTEX
8
Capa 1
10
59.254464
20
157.370383
70
0
0
VERTEX
8
Capa 1
10
60.668486
20
161.603805
70
0
0
VERTEX
8
Capa 1
10
62.486476
20
165.697665
70
0
0
VERTEX
8
Capa 1
10
64.704808
20
169.617187
70
0
0
VERTEX
8
Capa 1
10
67.319857
20
173.327597
70
0
0
VERTEX
8
Capa 1
10
70.327996
20
176.794120
70
0
0
VERTEX
8
Capa 1
10
73.725601
20
179.981981
70
0
0
VERTEX
8
Capa 1
10
77.513259
20
182.859955
70
0
0
VERTEX
8
Capa 1
10
81.512984
20
185.289377
70
0
0
VERTEX
8
Capa 1
10
85.689340
20
187.273934
70
0
0
VERTEX
8
Capa 1
10
90.006890
20
188.817317
70
0
0
VERTEX
8
Capa 1
10
94.430199
20
189.923215
70
0
0
VERTEX
8
Capa 1
10
98.923830
20
190.595318
70
0
0
VERTEX
8
Capa 1
10
103.452346
20
190.837314
70
0
0
VERTEX
8
Capa 1
10
107.980314
20
190.652894
70
0
0
VERTEX
8
Capa 1
10
112.472294
20
190.045746
70
0
0
VERTEX
8
Capa 1
10
116.892853
20
189.019560
70
0
0
VERTEX
8
Capa 1
10
121.206554
20
187.578025
70
0
0
VERTEX
8
Capa 1
10
125.377960
20
185.724831
70
0
0
VERTEX
8
Capa 1
10
129.371636
20
183.463667
70
0
0
VERTEX
8
Capa 1
10
133.152145
20
180.798222
70
0
0
VERTEX
8
Capa 1
10
136.684052
20
177.732186
70
0
0
VERTEX
8
Capa 1
10
139.931920
20
174.269248
70
0
0
VERTEX
8
Capa 1
10
142.862886
20
170.410260
70
0
0
VERTEX
8
Capa 1
10
145.336958
20
166.335317
70
0
0
VERTEX
8
Capa 1
10
147.357887
20
162.080517
70
0
0
VERTEX
8
Capa 1
10
148.929427
20
157.681961
70
0
0
VERTEX
8
Capa 1
10
150.055332
20
153.175745
70
0
0
VERTEX
8
Capa 1
10
150.739355
20
148.597968
70
0
0
VERTEX
8
Capa 1
10
150.985249
20
143.984730
70
0
0
VERTEX
8
Capa 1
10
150.796767
20
139.372127
70
0
0
VERTEX
8
Capa 1
10
150.177662
20
134.796260
70
0
0
VERTEX
8
Capa 1
10
149.131688
20
130.293225
70
0
0
VERTEX
8
Capa 1
10
147.662598
20
125.899122
70
0
0
VERTEX
8
Capa 1
10
145.774144
20
121.650050
70
0
0
VERTEX
8
Capa 1
10
143.470081
20
117.582106
70
0
0
VERTEX
8
Capa 1
10
140.754161
20
113.731389
70
0
0
VERTEX
8
Capa 1
10
137.630138
20
110.133997
70
0
0
VERTEX
8
Capa 1
10
134.101765
20
106.826030
70
0
0
VERTEX
8
Capa 1
10
130.171337
20
103.841992
70
0
0
VERTEX
8
Capa 1
10
126.021061
20
101.323205
70
0
0
VERTEX
8
Capa 1
10
121.687699
20
99.265850
70
0
0
VERTEX
8
Capa 1
10
117.208011
20
97.666110
70
0
0
VERTEX
8
Capa 1
10
112.618762
20
96.520169
70
0
0
VERTEX
8
Capa 1
10
107.956711
20
95.824210
70
0
0
VERTEX
8
Capa 1
10
103.258621
20
95.574414
70
0
0
VERTEX
8
Capa 1
10
98.561254
20
95.766965
70
0
0
VERTEX
8
Capa 1
10
93.901372
20
96.398046
70
0
0
VERTEX
8
Capa 1
10
89.315737
20
97.463839
70
0
0
VERTEX
8
Capa 1
10
84.841111
20
98.960528
70
0
0
VERTEX
8
Capa 1
10
80.514255
20
100.884295
70
0
0
VERTEX
8
Capa 1
10
76.371931
20
103.231322
70
0
0
VERTEX
8
Capa 1
10
72.450902
20
105.997794
70
0
0
VERTEX
8
Capa 1
10
68.787929
20
109.179892
70
0
0
VERTEX
8
Capa 1
10
65.419774
20
112.773800
70
0
0
VERTEX
8
Capa 1
10
62.382586
20
116.775775
70
0
0
VERTEX
8
Capa 1
10
59.819015
20
121.001498
70
0
0
VERTEX
8
Capa 1
10
57.725180
20
125.413542
70
0
0
VERTEX
8
Capa 1
10
56.097200
20
129.974482
70
0
0
VERTEX
8
Capa 1
10
54.931193
20
134.646890
70
0
0
VERTEX
8
Capa 1
10
54.223279
20
139.393341
70
0
0
VERTEX
8
Capa 1
10
53.969576
20
144.176409
70
0
0
VERTEX
8
Capa 1
10
54.166203
20
148.958666
70
0
0
VERTEX
8
Capa 1
10
54.809279
20
153.702688
70
0
0
VERTEX
8
Capa 1
10
55.894923
20
158.371047
70
0
0
VERTEX
8
Capa 1
10
57.419252
20
162.926317
70
0
0
VERTEX
8
Capa 1
10
59.378388
20
167.331072
70
0
0
VERTEX
8
Capa 1
10
61.768447
20
171.547886
70
0
0
VERTEX
8
Capa 1
10
64.585549
20
175.539332
70
0
0
VERTEX
8
Capa 1
10
67.825813
20
179.267984
70
0
0
VERTEX
8
Capa 1
10
71.485357
20
182.696416
70
0
0
VERTEX
8
Capa 1
10
75.558983
20
185.786831
70
0
0
VERTEX
8
Capa 1
10
79.860262
20
188.395250
70
0
0
VERTEX
8
Capa 1
10
84.351102
20
190.525617
70
0
0
VERTEX
8
Capa 1
10
88.993413
20
192.181878
70
0
0
VERTEX
8
Capa 1
10
93.749101
20
193.367978
70
0
0
VERTEX
8
Capa 1
10
98.580076
20
194.087864
70
0
0
VERTEX
8
Capa 1
10
103.448246
20
194.345479
70
0
0
VERTEX
8
Capa 1
10
108.315519
20
194.144769
70
0
0
VERTEX
8
Capa 1
10
113.143803
20
193.489680
70
0
0
VERTEX
8
Capa 1
10
117.895007
20
192.384156
70
0
0
VERTEX
8
Capa 1
10
122.531039
20
190.832144
70
0
0
VERTEX
8
Capa 1
10
127.013807
20
188.837589
70
0
0
VERTEX
8
Capa 1
10
131.305220
20
186.404435
70
0
0
VERTEX
8
Capa 1
10
135.367186
20
183.536628
70
0
0
VERTEX
8
Capa 1
10
139.161613
20
180.238114
70
0
0
VERTEX
8
Capa 1
10
142.650410
20
176.512837
70
0
0
VERTEX
8
Capa 1
10
145.794129
20
172.367455
70
0
0
VERTEX
8
Capa 1
10
148.447459
20
167.990509
70
0
0
VERTEX
8
Capa 1
10
150.614411
20
163.420757
70
0
0
VERTEX
8
Capa 1
10
152.298993
20
158.696957
70
0
0
VERTEX
8
Capa 1
10
153.505215
20
153.857867
70
0
0
VERTEX
8
Capa 1
10
154.237088
20
148.942245
70
0
0
VERTEX
8
Capa 1
10
154.498619
20
143.988850
70
0
0
VERTEX
8
Capa 1
10
154.293820
20
139.036438
70
0
0
VERTEX
8
Capa 1
10
153.626699
20
134.123770
70
0
0
VERTEX
8
Capa 1
10
152.501266
20
129.289601
70
0
0
VERTEX
8
Capa 1
10
150.921530
20
124.572691
70
0
0
VERTEX
8
Capa 1
10
148.891502
20
120.011798
70
0
0
VERTEX
8
Capa 1
10
146.415190
20
115.645679
70
0
0
VERTEX
8
Capa 1
10
143.496604
20
111.513092
70
0
0
VERTEX
8
Capa 1
10
140.139754
20
107.652797
70
0
0
VERTEX
8
Capa 1
10
136.348649
20
104.103550
70
0
0
VERTEX
8
Capa 1
10
132.131409
20
100.906454
70
0
0
VERTEX
8
Capa 1
10
127.678688
20
98.208150
70
0
0
VERTEX
8
Capa 1
10
123.029912
20
96.004563
70
0
0
VERTEX
8
Capa 1
10
118.224507
20
94.291620
70
0
0
VERTEX
8
Capa 1
10
113.301897
20
93.065247
70
0
0
VERTEX
8
Capa 1
10
108.301508
20
92.321371
70
0
0
VERTEX
8
Capa 1
10
103.262766
20
92.055917
70
0
0
VERTEX
8
Capa 1
10
98.225096
20
92.264811
70
0
0
VERTEX
8
Capa 1
10
93.227922
20
92.943981
70
0
0
VERTEX
8
Capa 1
10
88.310671
20
94.089352
70
0
0
VERTEX
8
Capa 1
10
83.512768
20
95.696850
70
0
0
VERTEX
8
Capa 1
10
78.873638
20
97.762402
70
0
0
VERTEX
8
Capa 1
10
74.432707
20
100.281933
70
0
0
VERTEX
8
Capa 1
10
70.229400
20
103.251371
70
0
0
VERTEX
8
Capa 1
10
66.303142
20
106.666641
70
0
0
VERTEX
8
Capa 1
10
62.693359
20
110.523670
70
0
0
VERTEX
8
Capa 1
10
59.442811
20
114.812870
70
0
0
VERTEX
8
Capa 1
10
56.699470
20
119.341472
70
0
0
VERTEX
8
Capa 1
10
54.459198
20
124.069383
70
0
0
VERTEX
8
Capa 1
10
52.717856
20
128.956509
70
0
0
VERTEX
8
Capa 1
10
51.471306
20
133.962757
70
0
0
VERTEX
8
Capa 1
10
50.715410
20
139.048032
70
0
0
VERTEX
8
Capa 1
10
50.446030
20
144.172241
70
0
0
VERTEX
8
Capa 1
10
50.659027
20
149.295290
70
0
0
VERTEX
8
Capa 1
10
51.350265
20
154.377087
70
0
0
VERTEX
8
Capa 1
10
52.515603
20
159.377537
70
0
0
VERTEX
8
Capa 1
10
54.150905
20
164.256546
70
0
0
VERTEX
8
Capa 1
10
56.252031
20
168.974021
70
0
0
VERTEX
8
Capa 1
10
58.814845
20
173.489869
70
0
0
VERTEX
8
Capa 1
10
61.835207
20
177.763995
70
0
0
VERTEX
8
Capa 1
10
65.308980
20
181.756306
70
0
0
VERTEX
8
Capa 1
10
69.232025
20
185.426709
70
0
0
VERTEX
8
Capa 1
10
73.593284
20
188.730781
70
0
0
VERTEX
8
Capa 1
10
78.197873
20
191.519220
70
0
0
VERTEX
8
Capa 1
10
83.005028
20
193.796228
70
0
0
VERTEX
8
Capa 1
10
87.973987
20
195.566008
70
0
0
VERTEX
8
Capa 1
10
93.063987
20
196.832763
70
0
0
VERTEX
8
Capa 1
10
98.234265
20
197.600694
70
0
0
VERTEX
8
Capa 1
10
103.444059
20
197.874005
70
0
0
VERTEX
8
Capa 1
10
108.652605
20
197.656898
70
0
0
VERTEX
8
Capa 1
10
113.819141
20
196.953577
70
0
0
VERTEX
8
Capa 1
10
118.902904
20
195.768243
70
0
0
VERTEX
8
Capa 1
10
123.863131
20
194.105099
70
0
0
VERTEX
8
Capa 1
10
128.659059
20
191.968348
70
0
0
VERTEX
8
Capa 1
10
133.249926
20
189.362192
70
0
0
VERTEX
8
Capa 1
10
137.594969
20
186.290835
70
0
0
VERTEX
8
Capa 1
10
141.653424
20
182.758478
70
0
0
VERTEX
8
Capa 1
10
145.384530
20
178.769324
70
0
0
VERTEX
8
Capa 1
10
148.742198
20
174.335908
70
0
0
VERTEX
8
Capa 1
10
151.575794
20
169.655229
70
0
0
VERTEX
8
Capa 1
10
153.889586
20
164.768722
70
0
0
VERTEX
8
Capa 1
10
155.687841
20
159.717818
70
0
0
VERTEX
8
Capa 1
10
156.974826
20
154.543952
70
0
0
VERTEX
8
Capa 1
10
157.754809
20
149.288555
70
0
0
VERTEX
8
Capa 1
10
158.032055
20
143.993061
70
0
0
VERTEX
8
Capa 1
10
157.810834
20
138.698902
70
0
0
VERTEX
8
Capa 1
10
157.095411
20
133.447511
70
0
0
VERTEX
8
Capa 1
10
155.890053
20
128.280322
70
0
0
VERTEX
8
Capa 1
10
154.199029
20
123.238768
70
0
0
VERTEX
8
Capa 1
10
152.026605
20
118.364280
70
0
0
VERTEX
8
Capa 1
10
149.377047
20
113.698293
70
0
0
VERTEX
8
Capa 1
10
146.254624
20
109.282238
70
0
0
VERTEX
8
Capa 1
10
142.663603
20
105.157550
70
0
0
VERTEX
8
Capa 1
10
138.608250
20
101.365660
70
0
0
VERTEX
8
Capa 1
10
134.102578
20
97.954324
70
0
0
VERTEX
8
Capa 1
10
129.345707
20
95.075509
70
0
0
VERTEX
8
Capa 1
10
124.379740
20
92.724883
70
0
0
VERTEX
8
Capa 1
10
119.246782
20
90.898114
70
0
0
VERTEX
8
Capa 1
10
113.988935
20
89.590872
70
0
0
VERTEX
8
Capa 1
10
108.648305
20
88.798823
70
0
0
VERTEX
8
Capa 1
10
103.266995
20
88.517636
70
0
0
VERTEX
8
Capa 1
10
97.887108
20
88.742980
70
0
0
VERTEX
8
Capa 1
10
92.550750
20
89.470522
70
0
0
VERTEX
8
Capa 1
10
87.300024
20
90.695931
70
0
0
VERTEX
8
Capa 1
10
82.177033
20
92.414876
70
0
0
VERTEX
8
Capa 1
10
77.223882
20
94.623023
70
0
0
VERTEX
8
Capa 1
10
72.482675
20
97.316042
70
0
0
VERTEX
8
Capa 1
10
67.995515
20
100.489601
70
0
0
VERTEX
8
Capa 1
10
63.804507
20
104.139367
70
0
0
VERTEX
8
Capa 1
10
59.951754
20
108.261010
70
0
0
VERTEX
8
Capa 1
10
58.151320
20
110.515455
70
0
0
VERTEX
8
Capa 1
10
56.486681
20
112.839032
70
0
0
VERTEX
8
Capa 1
10
53.562589
20
117.672196
70
0
0
VERTEX
8
Capa 1
10
51.175083
20
122.717726
70
0
0
VERTEX
8
Capa 1
10
49.319764
20
127.932848
70
0
0
VERTEX
8
Capa 1
10
47.992238
20
133.274784
70
0
0
VERTEX
8
Capa 1
10
47.188108
20
138.700759
70
0
0
VERTEX
8
Capa 1
10
46.902976
20
144.167998
70
0
0
VERTEX
8
Capa 1
10
47.132447
20
149.633724
70
0
0
VERTEX
8
Capa 1
10
47.872124
20
155.055161
70
0
0
VERTEX
8
Capa 1
10
49.117611
20
160.389535
70
0
0
VERTEX
8
Capa 1
10
50.864511
20
165.594068
70
0
0
VERTEX
8
Capa 1
10
53.108428
20
170.625986
70
0
0
VERTEX
8
Capa 1
10
55.844964
20
175.442512
70
0
0
VERTEX
8
Capa 1
10
59.069725
20
180.000870
70
0
0
VERTEX
8
Capa 1
10
62.778313
20
184.258285
70
0
0
VERTEX
8
Capa 1
10
66.966331
20
188.171981
70
0
0
VERTEX
8
Capa 1
10
69.256462
20
190.000381
70
0
0
VERTEX
8
Capa 1
10
71.616797
20
191.690860
70
0
0
VERTEX
8
Capa 1
10
76.526354
20
194.660287
70
0
0
VERTEX
8
Capa 1
10
81.651552
20
197.084722
70
0
0
VERTEX
8
Capa 1
10
86.948944
20
198.968626
70
0
0
VERTEX
8
Capa 1
10
92.375080
20
200.316462
70
0
0
VERTEX
8
Capa 1
10
97.886513
20
201.132689
70
0
0
VERTEX
8
Capa 1
10
103.439792
20
201.421770
70
0
0
VERTEX
8
Capa 1
10
108.991471
20
201.188165
70
0
0
VERTEX
8
Capa 1
10
114.498099
20
200.436336
70
0
0
VERTEX
8
Capa 1
10
119.916229
20
199.170745
70
0
0
VERTEX
8
Capa 1
10
125.202412
20
197.395851
70
0
0
VERTEX
8
Capa 1
10
130.313200
20
195.116118
70
0
0
VERTEX
8
Capa 1
10
135.205143
20
192.336005
70
0
0
VERTEX
8
Capa 1
10
139.834793
20
189.059975
70
0
0
VERTEX
8
Capa 1
10
144.158702
20
185.292487
70
0
0
VERTEX
8
Capa 1
10
146.192425
20
183.225842
70
0
0
VERTEX
8
Capa 1
10
148.133420
20
181.038005
70
0
0
VERTEX
8
Capa 1
10
149.989822
20
178.712141
70
0
0
VERTEX
8
Capa 1
10
151.706174
20
176.315001
70
0
0
VERTEX
8
Capa 1
10
153.283042
20
173.852100
70
0
0
VERTEX
8
Capa 1
10
154.720992
20
171.328954
70
0
0
VERTEX
8
Capa 1
10
157.182402
20
166.123986
70
0
0
VERTEX
8
Capa 1
10
159.094928
20
160.744218
70
0
0
VERTEX
8
Capa 1
10
160.463098
20
155.233774
70
0
0
VERTEX
8
Capa 1
10
161.291436
20
149.636776
70
0
0
VERTEX
8
Capa 1
10
161.584471
20
143.997346
70
0
0
VERTEX
8
Capa 1
10
161.346726
20
138.359606
70
0
0
VERTEX
8
Capa 1
10
160.582730
20
132.767678
70
0
0
VERTEX
8
Capa 1
10
159.297007
20
127.265685
70
0
0
VERTEX
8
Capa 1
10
157.494084
20
121.897748
70
0
0
VERTEX
8
Capa 1
10
155.178486
20
116.707991
70
0
0
VERTEX
8
Capa 1
10
152.354741
20
111.740536
70
0
0
VERTEX
8
Capa 1
10
149.027375
20
107.039504
70
0
0
VERTEX
8
Capa 1
10
145.200912
20
102.649018
70
0
0
VERTEX
8
Capa 1
10
143.101934
20
100.584018
70
0
0
VERTEX
8
Capa 1
10
140.879880
20
98.613200
70
0
0
VERTEX
8
Capa 1
10
138.518237
20
96.728762
70
0
0
VERTEX
8
Capa 1
10
136.084245
20
94.986505
70
0
0
VERTEX
8
Capa 1
10
133.583502
20
93.385855
70
0
0
VERTEX
8
Capa 1
10
131.021609
20
91.926238
70
0
0
VERTEX
8
Capa 1
10
125.736768
20
89.427808
70
0
0
VERTEX
8
Capa 1
10
120.274520
20
87.486624
70
0
0
VERTEX
8
Capa 1
10
114.679661
20
86.098095
70
0
0
VERTEX
8
Capa 1
10
108.996988
20
85.257630
70
0
0
VERTEX
8
Capa 1
10
103.271298
20
84.960638
70
0
0
VERTEX
8
Capa 1
10
97.547386
20
85.202528
70
0
0
VERTEX
8
Capa 1
10
91.870051
20
85.978708
70
0
0
VERTEX
8
Capa 1
10
86.284089
20
87.284588
70
0
0
VERTEX
8
Capa 1
10
80.834297
20
89.115578
70
0
0
VERTEX
8
Capa 1
10
75.565471
20
91.467085
70
0
0
VERTEX
8
Capa 1
10
70.522408
20
94.334518
70
0
0
VERTEX
8
Capa 1
10
65.749906
20
97.713288
70
0
0
VERTEX
8
Capa 1
10
63.479113
20
99.592989
70
0
0
VERTEX
8
Capa 1
10
61.292760
20
101.598802
70
0
0
VERTEX
8
Capa 1
10
59.196444
20
103.730154
70
0
0
VERTEX
8
Capa 1
10
57.195767
20
105.986470
70
0
0
VERTEX
8
Capa 1
10
55.283258
20
108.383935
70
0
0
VERTEX
8
Capa 1
10
53.515063
20
110.854825
70
0
0
VERTEX
8
Capa 1
10
51.890602
20
113.393456
70
0
0
VERTEX
8
Capa 1
10
50.409291
20
115.994144
70
0
0
VERTEX
8
Capa 1
10
49.070550
20
118.651205
70
0
0
VERTEX
8
Capa 1
10
47.873795
20
121.358955
70
0
0
VERTEX
8
Capa 1
10
45.903919
20
126.903786
70
0
0
VERTEX
8
Capa 1
10
44.495005
20
132.583164
70
0
0
VERTEX
8
Capa 1
10
43.642400
20
138.351618
70
0
0
VERTEX
8
Capa 1
10
43.341445
20
144.163675
70
0
0
VERTEX
8
Capa 1
10
43.587487
20
149.973864
70
0
0
VERTEX
8
Capa 1
10
44.375867
20
155.736712
70
0
0
VERTEX
8
Capa 1
10
45.701931
20
161.406747
70
0
0
VERTEX
8
Capa 1
10
47.561021
20
166.938497
70
0
0
VERTEX
8
Capa 1
10
49.948484
20
172.286490
70
0
0
VERTEX
8
Capa 1
10
52.859661
20
177.405254
70
0
0
VERTEX
8
Capa 1
10
56.289897
20
182.249316
70
0
0
VERTEX
8
Capa 1
10
58.198207
20
184.554124
70
0
0
VERTEX
8
Capa 1
10
60.234536
20
186.773205
70
0
0
VERTEX
8
Capa 1
10
62.398302
20
188.900874
70
0
0
VERTEX
8
Capa 1
10
64.688922
20
190.931448
70
0
0
VERTEX
8
Capa 1
10
67.122254
20
192.872062
70
0
0
VERTEX
8
Capa 1
10
69.630087
20
194.666225
70
0
0
VERTEX
8
Capa 1
10
72.206653
20
196.314527
70
0
0
VERTEX
8
Capa 1
10
74.846184
20
197.817557
70
0
0
VERTEX
8
Capa 1
10
77.542911
20
199.175906
70
0
0
VERTEX
8
Capa 1
10
80.291064
20
200.390165
70
0
0
VERTEX
8
Capa 1
10
85.918580
20
202.388768
70
0
0
VERTEX
8
Capa 1
10
91.682582
20
203.818090
70
0
0
VERTEX
8
Capa 1
10
97.536923
20
204.682851
70
0
0
VERTEX
8
Capa 1
10
103.435454
20
204.987772
70
0
0
VERTEX
8
Capa 1
10
109.332027
20
204.737574
70
0
0
VERTEX
8
Capa 1
10
115.180493
20
203.936978
70
0
0
VERTEX
8
Capa 1
10
120.934705
20
202.590706
70
0
0
VERTEX
8
Capa 1
10
126.548514
20
200.703478
70
0
0
VERTEX
8
Capa 1
10
131.975771
20
198.280017
70
0
0
VERTEX
8
Capa 1
10
137.170328
20
195.325042
70
0
0
VERTEX
8
Capa 1
10
139.665923
20
193.649712
70
0
0
VERTEX
8
Capa 1
10
142.086038
20
191.843275
70
0
0
VERTEX
8
Capa 1
10
144.424903
20
189.906320
70
0
0
VERTEX
8
Capa 1
10
146.676751
20
187.839437
70
0
0
VERTEX
8
Capa 1
10
148.835813
20
185.643217
70
0
0
VERTEX
8
Capa 1
10
150.896320
20
183.318250
70
0
0
VERTEX
8
Capa 1
10
152.865074
20
180.849007
70
0
0
VERTEX
8
Capa 1
10
154.685236
20
178.304185
70
0
0
VERTEX
8
Capa 1
10
156.357407
20
175.689637
70
0
0
VERTEX
8
Capa 1
10
157.882183
20
173.011217
70
0
0
VERTEX
8
Capa 1
10
159.260163
20
170.274776
70
0
0
VERTEX
8
Capa 1
10
160.491946
20
167.486169
70
0
0
VERTEX
8
Capa 1
10
161.578129
20
164.651249
70
0
0
VERTEX
8
Capa 1
10
162.519311
20
161.775868
70
0
0
VERTEX
8
Capa 1
10
163.969066
20
155.927140
70
0
0
VERTEX
8
Capa 1
10
164.845996
20
149.986808
70
0
0
VERTEX
8
Capa 1
10
165.154887
20
144.001699
70
0
0
VERTEX
8
Capa 1
10
164.900526
20
138.018638
70
0
0
VERTEX
8
Capa 1
10
164.087700
20
132.084449
70
0
0
VERTEX
8
Capa 1
10
162.721194
20
126.245959
70
0
0
VERTEX
8
Capa 1
10
160.805794
20
120.549993
70
0
0
VERTEX
8
Capa 1
10
158.346288
20
115.043375
70
0
0
VERTEX
8
Capa 1
10
155.347461
20
109.772932
70
0
0
VERTEX
8
Capa 1
10
153.647298
20
107.240909
70
0
0
VERTEX
8
Capa 1
10
151.814100
20
104.785488
70
0
0
VERTEX
8
Capa 1
10
149.848465
20
102.412524
70
0
0
VERTEX
8
Capa 1
10
147.750991
20
100.127869
70
0
0
VERTEX
8
Capa 1
10
145.522276
20
97.937377
70
0
0
VERTEX
8
Capa 1
10
143.162920
20
95.846900
70
0
0
VERTEX
8
Capa 1
10
140.657724
20
93.849975
70
0
0
VERTEX
8
Capa 1
10
138.075869
20
92.003782
70
0
0
VERTEX
8
Capa 1
10
135.423294
20
90.307715
70
0
0
VERTEX
8
Capa 1
10
132.705937
20
88.761168
70
0
0
VERTEX
8
Capa 1
10
129.929736
20
87.363534
70
0
0
VERTEX
8
Capa 1
10
127.100627
20
86.114206
70
0
0
VERTEX
8
Capa 1
10
124.224550
20
85.012579
70
0
0
VERTEX
8
Capa 1
10
121.307442
20
84.058046
70
0
0
VERTEX
8
Capa 1
10
115.373885
20
82.587835
70
0
0
VERTEX
8
Capa 1
10
109.347459
20
81.698723
70
0
0
VERTEX
8
Capa 1
10
103.275668
20
81.385857
70
0
0
VERTEX
8
Capa 1
10
97.206015
20
81.644386
70
0
0
VERTEX
8
Capa 1
10
91.186002
20
82.469459
70
0
0
VERTEX
8
Capa 1
10
85.263133
20
83.856224
70
0
0
VERTEX
8
Capa 1
10
79.484911
20
85.799829
70
0
0
VERTEX
8
Capa 1
10
73.898840
20
88.295423
70
0
0
VERTEX
8
Capa 1
10
71.192705
20
89.748700
70
0
0
VERTEX
8
Capa 1
10
68.552422
20
91.338155
70
0
0
VERTEX
8
Capa 1
10
65.983927
20
93.063181
70
0
0
VERTEX
8
Capa 1
10
63.493160
20
94.923173
70
0
0
VERTEX
8
Capa 1
10
61.086058
20
96.917523
70
0
0
VERTEX
8
Capa 1
10
58.768558
20
99.045625
70
0
0
VERTEX
8
Capa 1
10
56.546599
20
101.306873
70
0
0
VERTEX
8
Capa 1
10
54.426119
20
103.700660
70
0
0
VERTEX
8
Capa 1
10
52.400988
20
106.241852
70
0
0
VERTEX
8
Capa 1
10
50.528734
20
108.860783
70
0
0
VERTEX
8
Capa 1
10
48.808743
20
111.551429
70
0
0
VERTEX
8
Capa 1
10
47.240398
20
114.307769
70
0
0
VERTEX
8
Capa 1
10
45.823087
20
117.123779
70
0
0
VERTEX
8
Capa 1
10
44.556194
20
119.993437
70
0
0
VERTEX
8
Capa 1
10
43.439105
20
122.910719
70
0
0
VERTEX
8
Capa 1
10
42.471205
20
125.869604
70
0
0
VERTEX
8
Capa 1
10
41.651880
20
128.864068
70
0
0
VERTEX
8
Capa 1
10
40.980514
20
131.888089
70
0
0
VERTEX
8
Capa 1
10
40.079205
20
138.000710
70
0
0
VERTEX
8
Capa 1
10
39.762360
20
144.159285
70
0
0
VERTEX
8
Capa 1
10
40.025062
20
150.315633
70
0
0
VERTEX
8
Capa 1
10
40.862395
20
156.421572
70
0
0
VERTEX
8
Capa 1
10
42.269443
20
162.428919
70
0
0
VERTEX
8
Capa 1
10
44.241287
20
168.289493
70
0
0
VERTEX
8
Capa 1
10
45.437472
20
171.149684
70
0
0
VERTEX
8
Capa 1
10
46.773012
20
173.955113
70
0
0
VERTEX
8
Capa 1
10
48.247293
20
176.699758
70
0
0
VERTEX
8
Capa 1
10
49.859700
20
179.377596
70
0
0
VERTEX
8
Capa 1
10
51.609619
20
181.982605
70
0
0
VERTEX
8
Capa 1
10
53.496435
20
184.508761
70
0
0
VERTEX
8
Capa 1
10
55.519533
20
186.950042
70
0
0
VERTEX
8
Capa 1
10
57.678299
20
189.300425
70
0
0
VERTEX
8
Capa 1
10
59.972119
20
191.553888
70
0
0
VERTEX
8
Capa 1
10
62.400377
20
193.704408
70
0
0
VERTEX
8
Capa 1
10
64.977608
20
195.757776
70
0
0
VERTEX
8
Capa 1
10
67.633659
20
197.656121
70
0
0
VERTEX
8
Capa 1
10
70.362423
20
199.400065
70
0
0
VERTEX
8
Capa 1
10
73.157791
20
200.990231
70
0
0
VERTEX
8
Capa 1
10
76.013657
20
202.427242
70
0
0
VERTEX
8
Capa 1
10
78.923912
20
203.711721
70
0
0
VERTEX
8
Capa 1
10
81.882448
20
204.844289
70
0
0
VERTEX
8
Capa 1
10
84.883159
20
205.825571
70
0
0
VERTEX
8
Capa 1
10
87.919936
20
206.656189
70
0
0
VERTEX
8
Capa 1
10
90.986672
20
207.336765
70
0
0
VERTEX
8
Capa 1
10
94.077259
20
207.867923
70
0
0
VERTEX
8
Capa 1
10
97.185589
20
208.250286
70
0
0
VERTEX
8
Capa 1
10
103.431050
20
208.571114
70
0
0
VERTEX
8
Capa 1
10
109.674193
20
208.304232
70
0
0
VERTEX
8
Capa 1
10
115.866157
20
207.454623
70
0
0
VERTEX
8
Capa 1
10
121.958081
20
206.027269
70
0
0
VERTEX
8
Capa 1
10
127.901103
20
204.027151
70
0
0
VERTEX
8
Capa 1
10
130.801507
20
202.813863
70
0
0
VERTEX
8
Capa 1
10
133.646363
20
201.459253
70
0
0
VERTEX
8
Capa 1
10
136.429562
20
199.963943
70
0
0
VERTEX
8
Capa 1
10
139.144998
20
198.328556
70
0
0
VERTEX
8
Capa 1
10
141.786563
20
196.553715
70
0
0
VERTEX
8
Capa 1
10
144.348149
20
194.640042
70
0
0
VERTEX
8
Capa 1
10
146.823648
20
192.588161
70
0
0
VERTEX
8
Capa 1
10
149.206953
20
190.398695
70
0
0
VERTEX
8
Capa 1
10
151.491956
20
188.072265
70
0
0
VERTEX
8
Capa 1
10
153.672550
20
185.609495
70
0
0
VERTEX
8
Capa 1
10
155.754188
20
182.996184
70
0
0
VERTEX
8
Capa 1
10
157.678654
20
180.302969
70
0
0
VERTEX
8
Capa 1
10
159.446577
20
177.536045
70
0
0
VERTEX
8
Capa 1
10
161.058590
20
174.701603
70
0
0
VERTEX
8
Capa 1
10
162.515323
20
171.805837
70
0
0
VERTEX
8
Capa 1
10
163.817407
20
168.854938
70
0
0
VERTEX
8
Capa 1
10
164.965473
20
165.855101
70
0
0
VERTEX
8
Capa 1
10
165.960152
20
162.812516
70
0
0
VERTEX
8
Capa 1
10
166.802075
20
159.733377
70
0
0
VERTEX
8
Capa 1
10
167.491872
20
156.623877
70
0
0
VERTEX
8
Capa 1
10
168.030176
20
153.490209
70
0
0
VERTEX
8
Capa 1
10
168.417616
20
150.338564
70
0
0
VERTEX
8
Capa 1
10
168.654824
20
147.175136
70
0
0
VERTEX
8
Capa 1
10
168.742431
20
144.006118
70
0
0
VERTEX
8
Capa 1
10
168.471365
20
137.676079
70
0
0
VERTEX
8
Capa 1
10
167.609465
20
131.397991
70
0
0
VERTEX
8
Capa 1
10
166.161779
20
125.221393
70
0
0
VERTEX
8
Capa 1
10
165.219844
20
122.186635
70
0
0
VERTEX
8
Capa 1
10
164.133355
20
119.195828
70
0
0
VERTEX
8
Capa 1
10
162.902944
20
116.255164
70
0
0
VERTEX
8
Capa 1
10
161.529241
20
113.370837
70
0
0
VERTEX
8
Capa 1
10
160.012877
20
110.549038
70
0
0
VERTEX
8
Capa 1
10
158.354483
20
107.795961
70
0
0
VERTEX
8
Capa 1
10
156.554691
20
105.117798
70
0
0
VERTEX
8
Capa 1
10
154.614130
20
102.520742
70
0
0
VERTEX
8
Capa 1
10
152.533433
20
100.010985
70
0
0
VERTEX
8
Capa 1
10
150.313230
20
97.594721
70
0
0
VERTEX
8
Capa 1
10
147.954152
20
95.278142
70
0
0
VERTEX
8
Capa 1
10
145.456830
20
93.067440
70
0
0
VERTEX
8
Capa 1
10
142.807398
20
90.957500
70
0
0
VERTEX
8
Capa 1
10
140.076979
20
89.006884
70
0
0
VERTEX
8
Capa 1
10
137.271851
20
87.214954
70
0
0
VERTEX
8
Capa 1
10
134.398292
20
85.581070
70
0
0
VERTEX
8
Capa 1
10
131.462579
20
84.104593
70
0
0
VERTEX
8
Capa 1
10
128.470991
20
82.784884
70
0
0
VERTEX
8
Capa 1
10
125.429806
20
81.621304
70
0
0
VERTEX
8
Capa 1
10
122.345300
20
80.613213
70
0
0
VERTEX
8
Capa 1
10
119.223752
20
79.759972
70
0
0
VERTEX
8
Capa 1
10
116.071440
20
79.060943
70
0
0
VERTEX
8
Capa 1
10
112.894641
20
78.515486
70
0
0
VERTEX
8
Capa 1
10
109.699633
20
78.122962
70
0
0
VERTEX
8
Capa 1
10
106.492695
20
77.882732
70
0
0
VERTEX
8
Capa 1
10
103.280103
20
77.794156
70
0
0
VERTEX
8
Capa 1
10
100.068136
20
77.856596
70
0
0
VERTEX
8
Capa 1
10
96.863071
20
78.069412
70
0
0
VERTEX
8
Capa 1
10
93.671187
20
78.431966
70
0
0
VERTEX
8
Capa 1
10
90.498761
20
78.943618
70
0
0
VERTEX
8
Capa 1
10
87.352070
20
79.603728
70
0
0
VERTEX
8
Capa 1
10
84.237393
20
80.411658
70
0
0
VERTEX
8
Capa 1
10
81.161008
20
81.366769
70
0
0
VERTEX
8
Capa 1
10
78.129192
20
82.468421
70
0
0
VERTEX
8
Capa 1
10
75.148223
20
83.715976
70
0
0
VERTEX
8
Capa 1
10
72.224379
20
85.108793
70
0
0
VERTEX
8
Capa 1
10
69.363938
20
86.646235
70
0
0
VERTEX
8
Capa 1
10
66.573177
20
88.327662
70
0
0
VERTEX
8
Capa 1
10
63.858374
20
90.152434
70
0
0
VERTEX
8
Capa 1
10
61.225808
20
92.119913
70
0
0
VERTEX
8
Capa 1
10
58.681755
20
94.229459
70
0
0
VERTEX
8
Capa 1
10
56.232494
20
96.480433
70
0
0
VERTEX
8
Capa 1
10
53.884303
20
98.872197
70
0
0
VERTEX
8
Capa 1
10
51.643459
20
101.404110
70
0
0
VERTEX
8
Capa 1
10
49.505186
20
104.089704
70
0
0
VERTEX
8
Capa 1
10
47.528392
20
106.857371
70
0
0
VERTEX
8
Capa 1
10
45.712429
20
109.700746
70
0
0
VERTEX
8
Capa 1
10
44.056650
20
112.613467
70
0
0
VERTEX
8
Capa 1
10
42.560407
20
115.589171
70
0
0
VERTEX
8
Capa 1
10
41.223053
20
118.621495
70
0
0
VERTEX
8
Capa 1
10
40.043941
20
121.704076
70
0
0
VERTEX
8
Capa 1
10
39.022423
20
124.830550
70
0
0
VERTEX
8
Capa 1
10
38.157853
20
127.994556
70
0
0
VERTEX
8
Capa 1
10
37.449582
20
131.189729
70
0
0
VERTEX
8
Capa 1
10
36.896964
20
134.409707
70
0
0
VERTEX
8
Capa 1
10
36.499350
20
137.648126
70
0
0
VERTEX
8
Capa 1
10
36.256094
20
140.898624
70
0
0
VERTEX
8
Capa 1
10
36.166549
20
144.154838
70
0
0
VERTEX
8
Capa 1
10
36.230066
20
147.410405
70
0
0
VERTEX
8
Capa 1
10
36.445999
20
150.658961
70
0
0
VERTEX
8
Capa 1
10
36.813701
20
153.894144
70
0
0
VERTEX
8
Capa 1
10
37.332523
20
157.109590
70
0
0
VERTEX
8
Capa 1
10
38.001819
20
160.298937
70
0
0
VERTEX
8
Capa 1
10
38.820941
20
163.455822
70
0
0
VERTEX
8
Capa 1
10
39.789242
20
166.573881
70
0
0
VERTEX
8
Capa 1
10
40.906075
20
169.646752
70
0
0
VERTEX
8
Capa 1
10
42.170791
20
172.668071
70
0
0
VERTEX
8
Capa 1
10
43.582745
20
175.631475
70
0
0
VERTEX
8
Capa 1
10
45.141288
20
178.530602
70
0
0
VERTEX
8
Capa 1
10
46.845773
20
181.359089
70
0
0
VERTEX
8
Capa 1
10
48.695553
20
184.110572
70
0
0
VERTEX
8
Capa 1
10
50.689981
20
186.778688
70
0
0
VERTEX
8
Capa 1
10
52.828409
20
189.357075
70
0
0
VERTEX
8
Capa 1
10
55.110189
20
191.839369
70
0
0
VERTEX
8
Capa 1
10
57.534675
20
194.219207
70
0
0
VERTEX
8
Capa 1
10
60.101219
20
196.490227
70
0
0
VERTEX
8
Capa 1
10
62.823016
20
198.656864
70
0
0
VERTEX
8
Capa 1
10
65.627971
20
200.659866
70
0
0
VERTEX
8
Capa 1
10
68.509636
20
202.499888
70
0
0
VERTEX
8
Capa 1
10
71.461562
20
204.177587
70
0
0
VERTEX
8
Capa 1
10
74.477302
20
205.693617
70
0
0
VERTEX
8
Capa 1
10
77.550407
20
207.048635
70
0
0
VERTEX
8
Capa 1
10
80.674428
20
208.243295
70
0
0
VERTEX
8
Capa 1
10
83.842918
20
209.278254
70
0
0
VERTEX
8
Capa 1
10
87.049428
20
210.154167
70
0
0
VERTEX
8
Capa 1
10
90.287510
20
210.871689
70
0
0
VERTEX
8
Capa 1
10
93.550714
20
211.431477
70
0
0
VERTEX
8
Capa 1
10
96.832594
20
211.834185
70
0
0
VERTEX
8
Capa 1
10
100.126700
20
212.080469
70
0
0
VERTEX
8
Capa 1
10
103.426585
20
212.170985
70
0
0
VERTEX
8
Capa 1
10
106.725799
20
212.106388
70
0
0
VERTEX
8
Capa 1
10
110.017896
20
211.887334
70
0
0
VERTEX
8
Capa 1
10
113.296425
20
211.514479
70
0
0
VERTEX
8
Capa 1
10
116.554939
20
210.988477
70
0
0
VERTEX
8
Capa 1
10
119.786990
20
210.309985
70
0
0
VERTEX
8
Capa 1
10
122.986129
20
209.479658
70
0
0
VERTEX
8
Capa 1
10
126.145909
20
208.498152
70
0
0
VERTEX
8
Capa 1
10
129.259879
20
207.366122
70
0
0
VERTEX
8
Capa 1
10
132.321593
20
206.084223
70
0
0
VERTEX
8
Capa 1
10
135.324602
20
204.653112
70
0
0
VERTEX
8
Capa 1
10
138.262458
20
203.073444
70
0
0
VERTEX
8
Capa 1
10
141.128711
20
201.345873
70
0
0
VERTEX
8
Capa 1
10
143.916915
20
199.471057
70
0
0
VERTEX
8
Capa 1
10
146.620620
20
197.449651
70
0
0
VERTEX
8
Capa 1
10
149.233379
20
195.282309
70
0
0
VERTEX
8
Capa 1
10
151.748742
20
192.969688
70
0
0
VERTEX
8
Capa 1
10
154.160262
20
190.512443
70
0
0
VERTEX
8
Capa 1
10
156.461490
20
187.911230
70
0
0
VERTEX
8
Capa 1
10
158.656522
20
185.153191
70
0
0
VERTEX
8
Capa 1
10
160.685761
20
182.310906
70
0
0
VERTEX
8
Capa 1
10
162.549869
20
179.390909
70
0
0
VERTEX
8
Capa 1
10
164.249511
20
176.399734
70
0
0
VERTEX
8
Capa 1
10
165.785351
20
173.343914
70
0
0
VERTEX
8
Capa 1
10
167.158052
20
170.229983
70
0
0
VERTEX
8
Capa 1
10
168.368278
20
167.064475
70
0
0
VERTEX
8
Capa 1
10
169.416694
20
163.853924
70
0
0
VERTEX
8
Capa 1
10
170.303961
20
160.604863
70
0
0
VERTEX
8
Capa 1
10
171.030746
20
157.323826
70
0
0
VERTEX
8
Capa 1
10
171.597710
20
154.017347
70
0
0
VERTEX
8
Capa 1
10
172.005518
20
150.691960
70
0
0
VERTEX
8
Capa 1
10
172.254834
20
147.354198
70
0
0
VERTEX
8
Capa 1
10
172.346322
20
144.010595
70
0
0
VERTEX
8
Capa 1
10
172.280644
20
140.667685
70
0
0
VERTEX
8
Capa 1
10
172.058466
20
137.332001
70
0
0
VERTEX
8
Capa 1
10
171.680451
20
134.010078
70
0
0
VERTEX
8
Capa 1
10
171.147262
20
130.708449
70
0
0
VERTEX
8
Capa 1
10
170.459564
20
127.433647
70
0
0
VERTEX
8
Capa 1
10
169.618019
20
124.192207
70
0
0
VERTEX
8
Capa 1
10
168.623293
20
120.990663
70
0
0
VERTEX
8
Capa 1
10
167.476048
20
117.835547
70
0
0
VERTEX
8
Capa 1
10
166.176948
20
114.733394
70
0
0
VERTEX
8
Capa 1
10
164.726658
20
111.690738
70
0
0
VERTEX
8
Capa 1
10
163.125841
20
108.714112
70
0
0
VERTEX
8
Capa 1
10
161.375161
20
105.810049
70
0
0
VERTEX
8
Capa 1
10
159.475281
20
102.985085
70
0
0
VERTEX
8
Capa 1
10
157.426865
20
100.245752
70
0
0
VERTEX
8
Capa 1
10
155.230577
20
97.598584
70
0
0
VERTEX
8
Capa 1
10
152.887081
20
95.050116
70
0
0
VERTEX
8
Capa 1
10
150.397041
20
92.606880
70
0
0
VERTEX
8
Capa 1
10
147.761120
20
90.275410
70
0
0
VERTEX
8
Capa 1
10
144.966800
20
88.051953
70
0
0
VERTEX
8
Capa 1
10
142.087146
20
85.996451
70
0
0
VERTEX
8
Capa 1
10
139.128776
20
84.108232
70
0
0
VERTEX
8
Capa 1
10
136.098310
20
82.386624
70
0
0
VERTEX
8
Capa 1
10
133.002367
20
80.830955
70
0
0
VERTEX
8
Capa 1
10
129.847566
20
79.440552
70
0
0
VERTEX
8
Capa 1
10
126.640527
20
78.214745
70
0
0
VERTEX
8
Capa 1
10
123.387869
20
77.152860
70
0
0
VERTEX
8
Capa 1
10
120.096211
20
76.254226
70
0
0
VERTEX
8
Capa 1
10
116.772173
20
75.518171
70
0
0
VERTEX
8
Capa 1
10
113.422373
20
74.944023
70
0
0
VERTEX
8
Capa 1
10
110.053431
20
74.531110
70
0
0
VERTEX
8
Capa 1
10
106.671966
20
74.278760
70
0
0
VERTEX
8
Capa 1
10
103.284597
20
74.186300
70
0
0
VERTEX
8
Capa 1
10
99.897944
20
74.253060
70
0
0
VERTEX
8
Capa 1
10
96.518626
20
74.478366
70
0
0
VERTEX
8
Capa 1
10
93.153262
20
74.861548
70
0
0
VERTEX
8
Capa 1
10
89.808471
20
75.401932
70
0
0
VERTEX
8
Capa 1
10
86.490872
20
76.098847
70
0
0
VERTEX
8
Capa 1
10
83.207086
20
76.951621
70
0
0
VERTEX
8
Capa 1
10
79.963730
20
77.959582
70
0
0
VERTEX
8
Capa 1
10
76.767425
20
79.122058
70
0
0
VERTEX
8
Capa 1
10
73.624790
20
80.438377
70
0
0
VERTEX
8
Capa 1
10
70.542443
20
81.907867
70
0
0
VERTEX
8
Capa 1
10
67.527004
20
83.529856
70
0
0
VERTEX
8
Capa 1
10
64.585092
20
85.303671
70
0
0
VERTEX
8
Capa 1
10
61.723327
20
87.228642
70
0
0
VERTEX
8
Capa 1
10
58.948328
20
89.304096
70
0
0
VERTEX
8
Capa 1
10
56.266714
20
91.529360
70
0
0
VERTEX
8
Capa 1
10
53.685104
20
93.903764
70
0
0
VERTEX
8
Capa 1
10
51.210118
20
96.426634
70
0
0
VERTEX
8
Capa 1
10
48.848374
20
99.097300
70
0
0
VERTEX
8
Capa 1
10
46.596462
20
101.927940
70
0
0
VERTEX
8
Capa 1
10
44.514668
20
104.845004
70
0
0
VERTEX
8
Capa 1
10
42.602312
20
107.841788
70
0
0
VERTEX
8
Capa 1
10
40.858714
20
110.911587
70
0
0
VERTEX
8
Capa 1
10
39.283194
20
114.047696
70
0
0
VERTEX
8
Capa 1
10
37.875071
20
117.243409
70
0
0
VERTEX
8
Capa 1
10
36.633665
20
120.492024
70
0
0
VERTEX
8
Capa 1
10
35.558296
20
123.786834
70
0
0
VERTEX
8
Capa 1
10
34.648284
20
127.121134
70
0
0
VERTEX
8
Capa 1
10
33.902948
20
130.488220
70
0
0
VERTEX
8
Capa 1
10
33.321608
20
133.881388
70
0
0
VERTEX
8
Capa 1
10
32.903585
20
137.293931
70
0
0
VERTEX
8
Capa 1
10
32.648197
20
140.719146
70
0
0
VERTEX
8
Capa 1
10
32.554764
20
144.150327
70
0
0
VERTEX
8
Capa 1
10
32.622607
20
147.580770
70
0
0
VERTEX
8
Capa 1
10
32.851045
20
151.003769
70
0
0
VERTEX
8
Capa 1
10
33.239398
20
154.412620
70
0
0
VERTEX
8
Capa 1
10
33.786986
20
157.800619
70
0
0
VERTEX
8
Capa 1
10
34.493128
20
161.161060
70
0
0
VERTEX
8
Capa 1
10
35.357144
20
164.487238
70
0
0
VERTEX
8
Capa 1
10
36.378354
20
167.772449
70
0
0
VERTEX
8
Capa 1
10
37.556078
20
171.009987
70
0
0
VERTEX
8
Capa 1
10
38.889635
20
174.193148
70
0
0
VERTEX
8
Capa 1
10
40.378346
20
177.315228
70
0
0
VERTEX
8
Capa 1
10
42.021529
20
180.369520
70
0
0
VERTEX
8
Capa 1
10
43.818506
20
183.349321
70
0
0
VERTEX
8
Capa 1
10
45.768595
20
186.247926
70
0
0
VERTEX
8
Capa 1
10
47.871116
20
189.058629
70
0
0
VERTEX
8
Capa 1
10
50.125390
20
191.774726
70
0
0
VERTEX
8
Capa 1
10
52.530735
20
194.389512
70
0
0
VERTEX
8
Capa 1
10
55.086472
20
196.896282
70
0
0
VERTEX
8
Capa 1
10
57.791921
20
199.288332
70
0
0
VERTEX
8
Capa 1
10
60.658920
20
201.568729
70
0
0
VERTEX
8
Capa 1
10
63.613434
20
203.676842
70
0
0
VERTEX
8
Capa 1
10
66.648673
20
205.613360
70
0
0
VERTEX
8
Capa 1
10
69.757846
20
207.378970
70
0
0
VERTEX
8
Capa 1
10
72.934164
20
208.974362
70
0
0
VERTEX
8
Capa 1
10
76.170835
20
210.400224
70
0
0
VERTEX
8
Capa 1
10
79.461069
20
211.657245
70
0
0
VERTEX
8
Capa 1
10
82.798075
20
212.746112
70
0
0
VERTEX
8
Capa 1
10
86.175063
20
213.667515
70
0
0
VERTEX
8
Capa 1
10
89.585243
20
214.422141
70
0
0
VERTEX
8
Capa 1
10
93.021823
20
215.010679
70
0
0
VERTEX
8
Capa 1
10
96.478014
20
215.433819
70
0
0
VERTEX
8
Capa 1
10
99.947024
20
215.692247
70
0
0
VERTEX
8
Capa 1
10
103.422064
20
215.786653
70
0
0
VERTEX
8
Capa 1
10
106.896343
20
215.717726
70
0
0
VERTEX
8
Capa 1
10
110.363070
20
215.486152
70
0
0
VERTEX
8
Capa 1
10
113.815454
20
215.092622
70
0
0
VERTEX
8
Capa 1
10
117.246706
20
214.537824
70
0
0
VERTEX
8
Capa 1
10
120.650034
20
213.822445
70
0
0
VERTEX
8
Capa 1
10
124.018648
20
212.947175
70
0
0
VERTEX
8
Capa 1
10
127.345758
20
211.912702
70
0
0
VERTEX
8
Capa 1
10
130.624574
20
210.719714
70
0
0
VERTEX
8
Capa 1
10
133.848303
20
209.368900
70
0
0
VERTEX
8
Capa 1
10
137.010157
20
207.860948
70
0
0
VERTEX
8
Capa 1
10
140.103344
20
206.196547
70
0
0
VERTEX
8
Capa 1
10
143.121075
20
204.376385
70
0
0
VERTEX
8
Capa 1
10
146.056557
20
202.401152
70
0
0
VERTEX
8
Capa 1
10
148.903002
20
200.271534
70
0
0
VERTEX
8
Capa 1
10
151.653618
20
197.988221
70
0
0
VERTEX
8
Capa 1
10
154.301615
20
195.551901
70
0
0
VERTEX
8
Capa 1
10
156.840203
20
192.963262
70
0
0
VERTEX
8
Capa 1
10
159.262590
20
190.222994
70
0
0
VERTEX
8
Capa 1
10
161.571501
20
187.319599
70
0
0
VERTEX
8
Capa 1
10
163.705960
20
184.327596
70
0
0
VERTEX
8
Capa 1
10
165.666664
20
181.253862
70
0
0
VERTEX
8
Capa 1
10
167.454309
20
178.105272
70
0
0
VERTEX
8
Capa 1
10
169.069593
20
174.888704
70
0
0
VERTEX
8
Capa 1
10
170.513212
20
171.611034
70
0
0
VERTEX
8
Capa 1
10
171.785863
20
168.279137
70
0
0
VERTEX
8
Capa 1
10
172.888242
20
164.899890
70
0
0
VERTEX
8
Capa 1
10
173.821046
20
161.480169
70
0
0
VERTEX
8
Capa 1
10
174.584972
20
158.026852
70
0
0
VERTEX
8
Capa 1
10
175.180716
20
154.546813
70
0
0
VERTEX
8
Capa 1
10
175.608976
20
151.046929
70
0
0
VERTEX
8
Capa 1
10
175.870448
20
147.534077
70
0
0
VERTEX
8
Capa 1
10
175.965828
20
144.015133
70
0
0
VERTEX
8
Capa 1
10
175.895814
20
140.496973
70
0
0
VERTEX
8
Capa 1
10
175.661102
20
136.986474
70
0
0
VERTEX
8
Capa 1
10
175.262389
20
133.490511
70
0
0
VERTEX
8
Capa 1
10
174.700372
20
130.015961
70
0
0
VERTEX
8
Capa 1
10
173.975747
20
126.569701
70
0
0
VERTEX
8
Capa 1
10
173.089211
20
123.158606
70
0
0
VERTEX
8
Capa 1
10
172.041460
20
119.789553
70
0
0
VERTEX
8
Capa 1
10
170.833192
20
116.469419
70
0
0
VERTEX
8
Capa 1
10
169.465103
20
113.205079
70
0
0
VERTEX
8
Capa 1
10
167.937890
20
110.003409
70
0
0
VERTEX
8
Capa 1
10
166.252249
20
106.871287
70
0
0
VERTEX
8
Capa 1
10
164.408878
20
103.815589
70
0
0
VERTEX
8
Capa 1
10
162.408472
20
100.843189
70
0
0
VERTEX
8
Capa 1
10
160.251730
20
97.960966
70
0
0
VERTEX
8
Capa 1
10
157.939346
20
95.175796
70
0
0
VERTEX
8
Capa 1
10
155.472019
20
92.494553
70
0
0
VERTEX
8
Capa 1
10
152.850445
20
89.924116
70
0
0
VERTEX
8
Capa 1
10
150.075320
20
87.471360
70
0
0
VERTEX
8
Capa 1
10
147.135491
20
85.133905
70
0
0
VERTEX
8
Capa 1
10
144.105960
20
82.973071
70
0
0
VERTEX
8
Capa 1
10
140.993691
20
80.988155
70
0
0
VERTEX
8
Capa 1
10
137.805645
20
79.178451
70
0
0
VERTEX
8
Capa 1
10
134.548785
20
77.543254
70
0
0
VERTEX
8
Capa 1
10
131.230072
20
76.081860
70
0
0
VERTEX
8
Capa 1
10
127.856469
20
74.793562
70
0
0
VERTEX
8
Capa 1
10
124.434938
20
73.677658
70
0
0
VERTEX
8
Capa 1
10
120.972442
20
72.733440
70
0
0
VERTEX
8
Capa 1
10
117.475941
20
71.960204
70
0
0
VERTEX
8
Capa 1
10
113.952399
20
71.357246
70
0
0
VERTEX
8
Capa 1
10
110.408777
20
70.923861
70
0
0
VERTEX
8
Capa 1
10
106.852039
20
70.659343
70
0
0
VERTEX
8
Capa 1
10
103.289145
20
70.562987
70
0
0
VERTEX
8
Capa 1
10
99.727058
20
70.634088
70
0
0
VERTEX
8
Capa 1
10
96.172741
20
70.871942
70
0
0
VERTEX
8
Capa 1
10
92.633155
20
71.275844
70
0
0
VERTEX
8
Capa 1
10
89.115262
20
71.845088
70
0
0
VERTEX
8
Capa 1
10
85.626025
20
72.578970
70
0
0
VERTEX
8
Capa 1
10
82.172406
20
73.476784
70
0
0
VERTEX
8
Capa 1
10
78.761367
20
74.537826
70
0
0
VERTEX
8
Capa 1
10
75.399871
20
75.761390
70
0
0
VERTEX
8
Capa 1
10
72.094878
20
77.146772
70
0
0
VERTEX
8
Capa 1
10
68.853353
20
78.693266
70
0
0
VERTEX
8
Capa 1
10
65.682255
20
80.400168
70
0
0
VERTEX
8
Capa 1
10
62.588549
20
82.266773
70
0
0
VERTEX
8
Capa 1
10
59.579196
20
84.292376
70
0
0
VERTEX
8
Capa 1
10
56.661158
20
86.476271
70
0
0
VERTEX
8
Capa 1
10
53.841397
20
88.817754
70
0
0
VERTEX
8
Capa 1
10
51.126875
20
91.316120
70
0
0
VERTEX
8
Capa 1
10
48.524556
20
93.970664
70
0
0
VERTEX
8
Capa 1
10
46.041400
20
96.780680
70
0
0
VERTEX
8
Capa 1
10
43.675372
20
99.756981
70
0
0
VERTEX
8
Capa 1
10
41.488139
20
102.824078
70
0
0
VERTEX
8
Capa 1
10
39.478987
20
105.974921
70
0
0
VERTEX
8
Capa 1
10
37.647203
20
109.202464
70
0
0
VERTEX
8
Capa 1
10
35.992074
20
112.499659
70
0
0
VERTEX
8
Capa 1
10
34.512886
20
115.859456
70
0
0
VERTEX
8
Capa 1
10
33.208927
20
119.274807
70
0
0
VERTEX
8
Capa 1
10
32.079483
20
122.738666
70
0
0
VERTEX
8
Capa 1
10
31.123840
20
126.243983
70
0
0
VERTEX
8
Capa 1
10
30.341286
20
129.783711
70
0
0
VERTEX
8
Capa 1
10
29.731108
20
133.350801
70
0
0
VERTEX
8
Capa 1
10
29.292591
20
136.938205
70
0
0
VERTEX
8
Capa 1
10
29.025024
20
140.538876
70
0
0
VERTEX
8
Capa 1
10
28.927692
20
144.145765
70
0
0
VERTEX
8
Capa 1
10
28.999882
20
147.751823
70
0
0
VERTEX
8
Capa 1
10
29.240881
20
151.350004
70
0
0
VERTEX
8
Capa 1
10
29.649977
20
154.933258
70
0
0
VERTEX
8
Capa 1
10
30.226455
20
158.494538
70
0
0
VERTEX
8
Capa 1
10
30.969603
20
162.026795
70
0
0
VERTEX
8
Capa 1
10
31.878706
20
165.522981
70
0
0
VERTEX
8
Capa 1
10
32.953053
20
168.976049
70
0
0
VERTEX
8
Capa 1
10
34.191929
20
172.378950
70
0
0
VERTEX
8
Capa 1
10
35.594622
20
175.724637
70
0
0
VERTEX
8
Capa 1
10
37.160418
20
179.006060
70
0
0
VERTEX
8
Capa 1
10
38.888604
20
182.216172
70
0
0
VERTEX
8
Capa 1
10
40.778467
20
185.347924
70
0
0
VERTEX
8
Capa 1
10
42.829294
20
188.394269
70
0
0
VERTEX
8
Capa 1
10
45.040370
20
191.348159
70
0
0
VERTEX
8
Capa 1
10
47.410984
20
194.202545
70
0
0
VERTEX
8
Capa 1
10
49.940421
20
196.950380
70
0
0
VERTEX
8
Capa 1
10
52.627970
20
199.584614
70
0
0
VERTEX
8
Capa 1
10
55.472915
20
202.098201
70
0
0
VERTEX
8
Capa 1
10
58.485725
20
204.492830
70
0
0
VERTEX
8
Capa 1
10
61.590425
20
206.706489
70
0
0
VERTEX
8
Capa 1
10
64.779883
20
208.739901
70
0
0
VERTEX
8
Capa 1
10
68.046963
20
210.593788
70
0
0
VERTEX
8
Capa 1
10
71.384531
20
212.268869
70
0
0
VERTEX
8
Capa 1
10
74.785453
20
213.765868
70
0
0
VERTEX
8
Capa 1
10
78.242596
20
215.085505
70
0
0
VERTEX
8
Capa 1
10
81.748825
20
216.228502
70
0
0
VERTEX
8
Capa 1
10
85.297005
20
217.195580
70
0
0
VERTEX
8
Capa 1
10
88.880003
20
217.987462
70
0
0
VERTEX
8
Capa 1
10
92.490685
20
218.604868
70
0
0
VERTEX
8
Capa 1
10
96.121916
20
219.048520
70
0
0
VERTEX
8
Capa 1
10
99.766562
20
219.319140
70
0
0
VERTEX
8
Capa 1
10
103.417490
20
219.417449
70
0
0
VERTEX
8
Capa 1
10
107.067564
20
219.344168
70
0
0
VERTEX
8
Capa 1
10
110.709651
20
219.100020
70
0
0
VERTEX
8
Capa 1
10
114.336617
20
218.685725
70
0
0
VERTEX
8
Capa 1
10
117.941327
20
218.102005
70
0
0
VERTEX
8
Capa 1
10
121.516648
20
217.349582
70
0
0
VERTEX
8
Capa 1
10
125.055444
20
216.429177
70
0
0
VERTEX
8
Capa 1
10
128.550583
20
215.341512
70
0
0
VERTEX
8
Capa 1
10
131.994930
20
214.087308
70
0
0
VERTEX
8
Capa 1
10
135.381351
20
212.667287
70
0
0
VERTEX
8
Capa 1
10
138.702711
20
211.082169
70
0
0
VERTEX
8
Capa 1
10
141.951876
20
209.332678
70
0
0
VERTEX
8
Capa 1
10
145.121713
20
207.419534
70
0
0
VERTEX
8
Capa 1
10
148.205087
20
205.343458
70
0
0
VERTEX
8
Capa 1
10
151.194864
20
203.105173
70
0
0
VERTEX
8
Capa 1
10
154.083910
20
200.705399
70
0
0
VERTEX
8
Capa 1
10
156.865091
20
198.144859
70
0
0
VERTEX
8
Capa 1
10
159.531272
20
195.424273
70
0
0
VERTEX
8
Capa 1
10
162.075320
20
192.544364
70
0
0
VERTEX
8
Capa 1
10
164.498578
20
189.495009
70
0
0
VERTEX
8
Capa 1
10
166.738691
20
186.352667
70
0
0
VERTEX
8
Capa 1
10
168.796387
20
183.124557
70
0
0
VERTEX
8
Capa 1
10
170.672397
20
179.817901
70
0
0
VERTEX
8
Capa 1
10
172.367451
20
176.439918
70
0
0
VERTEX
8
Capa 1
10
173.882278
20
172.997829
70
0
0
VERTEX
8
Capa 1
10
175.217608
20
169.498854
70
0
0
VERTEX
8
Capa 1
10
176.374171
20
165.950213
70
0
0
VERTEX
8
Capa 1
10
177.352697
20
162.359126
70
0
0
VERTEX
8
Capa 1
10
178.153915
20
158.732814
70
0
0
VERTEX
8
Capa 1
10
178.778556
20
155.078498
70
0
0
VERTEX
8
Capa 1
10
179.227348
20
151.403396
70
0
0
VERTEX
8
Capa 1
10
179.501023
20
147.714730
70
0
0
VERTEX
8
Capa 1
10
179.600309
20
144.019720
70
0
0
VERTEX
8
Capa 1
10
179.525937
20
140.325586
70
0
0
VERTEX
8
Capa 1
10
179.278636
20
136.639548
70
0
0
VERTEX
8
Capa 1
10
178.859136
20
132.968827
70
0
0
VERTEX
8
Capa 1
10
178.268168
20
129.320643
70
0
0
VERTEX
8
Capa 1
10
177.506459
20
125.702216
70
0
0
VERTEX
8
Capa 1
10
176.574742
20
122.120766
70
0
0
VERTEX
8
Capa 1
10
175.473744
20
118.583515
70
0
0
VERTEX
8
Capa 1
10
174.204197
20
115.097681
70
0
0
VERTEX
8
Capa 1
10
172.766829
20
111.670485
70
0
0
VERTEX
8
Capa 1
10
171.162371
20
108.309148
70
0
0
VERTEX
8
Capa 1
10
169.391553
20
105.020890
70
0
0
VERTEX
8
Capa 1
10
167.455103
20
101.812930
70
0
0
VERTEX
8
Capa 1
10
165.353753
20
98.692490
70
0
0
VERTEX
8
Capa 1
10
163.088232
20
95.666790
70
0
0
VERTEX
8
Capa 1
10
160.659269
20
92.743050
70
0
0
VERTEX
8
Capa 1
10
158.067594
20
89.928489
70
0
0
VERTEX
8
Capa 1
10
155.313938
20
87.230329
70
0
0
VERTEX
8
Capa 1
10
152.399030
20
84.655790
70
0
0
VERTEX
8
Capa 1
10
149.313094
20
82.203875
70
0
0
VERTEX
8
Capa 1
10
146.133073
20
79.937285
70
0
0
VERTEX
8
Capa 1
10
142.866273
20
77.855281
70
0
0
VERTEX
8
Capa 1
10
139.520002
20
75.957126
70
0
0
VERTEX
8
Capa 1
10
136.101564
20
74.242081
70
0
0
VERTEX
8
Capa 1
10
132.618268
20
72.709409
70
0
0
VERTEX
8
Capa 1
10
129.077419
20
71.358371
70
0
0
VERTEX
8
Capa 1
10
125.486323
20
70.188229
70
0
0
VERTEX
8
Capa 1
10
121.852288
20
69.198245
70
0
0
VERTEX
8
Capa 1
10
118.182620
20
68.387681
70
0
0
VERTEX
8
Capa 1
10
114.484625
20
67.755798
70
0
0
VERTEX
8
Capa 1
10
110.765609
20
67.301860
70
0
0
VERTEX
8
Capa 1
10
107.032880
20
67.025128
70
0
0
VERTEX
8
Capa 1
10
103.293743
20
66.924863
70
0
0
VERTEX
8
Capa 1
10
99.555506
20
67.000327
70
0
0
VERTEX
8
Capa 1
10
95.825474
20
67.250784
70
0
0
VERTEX
8
Capa 1
10
92.110955
20
67.675493
70
0
0
VERTEX
8
Capa 1
10
88.419254
20
68.273719
70
0
0
VERTEX
8
Capa 1
10
84.757678
20
69.044721
70
0
0
VERTEX
8
Capa 1
10
81.133534
20
69.987763
70
0
0
VERTEX
8
Capa 1
10
77.554127
20
71.102105
70
0
0
VERTEX
8
Capa 1
10
74.026766
20
72.387011
70
0
0
VERTEX
8
Capa 1
10
70.558755
20
73.841742
70
0
0
VERTEX
8
Capa 1
10
67.157402
20
75.465560
70
0
0
VERTEX
8
Capa 1
10
63.830013
20
77.257726
70
0
0
VERTEX
8
Capa 1
10
60.583894
20
79.217503
70
0
0
VERTEX
8
Capa 1
10
57.426352
20
81.344153
70
0
0
VERTEX
8
Capa 1
10
54.364694
20
83.636938
70
0
0
VERTEX
8
Capa 1
10
51.406225
20
86.095119
70
0
0
VERTEX
8
Capa 1
10
48.558253
20
88.717958
70
0
0
VERTEX
8
Capa 1
10
45.828084
20
91.504718
70
0
0
VERTEX
8
Capa 1
10
43.223024
20
94.454660
70
0
0
VERTEX
8
Capa 1
10
40.742424
20
97.577213
70
0
0
VERTEX
8
Capa 1
10
38.449329
20
100.794950
70
0
0
VERTEX
8
Capa 1
10
36.342994
20
104.100478
70
0
0
VERTEX
8
Capa 1
10
34.422672
20
107.486404
70
0
0
VERTEX
8
Capa 1
10
32.687616
20
110.945335
70
0
0
VERTEX
8
Capa 1
10
31.137080
20
114.469880
70
0
0
VERTEX
8
Capa 1
10
29.770319
20
118.052644
70
0
0
VERTEX
8
Capa 1
10
28.586584
20
121.686235
70
0
0
VERTEX
8
Capa 1
10
27.585131
20
125.363261
70
0
0
VERTEX
8
Capa 1
10
26.765212
20
129.076328
70
0
0
VERTEX
8
Capa 1
10
26.126081
20
132.818044
70
0
0
VERTEX
8
Capa 1
10
25.666992
20
136.581016
70
0
0
VERTEX
8
Capa 1
10
25.387199
20
140.357851
70
0
0
VERTEX
8
Capa 1
10
25.285955
20
144.141157
70
0
0
VERTEX
8
Capa 1
10
25.362514
20
147.923541
70
0
0
VERTEX
8
Capa 1
10
25.616129
20
151.697609
70
0
0
VERTEX
8
Capa 1
10
26.046054
20
155.455970
70
0
0
VERTEX
8
Capa 1
10
26.651543
20
159.191230
70
0
0
VERTEX
8
Capa 1
10
27.431849
20
162.895997
70
0
0
VERTEX
8
Capa 1
10
28.386226
20
166.562878
70
0
0
VERTEX
8
Capa 1
10
29.513927
20
170.184479
70
0
0
VERTEX
8
Capa 1
10
30.814207
20
173.753409
70
0
0
VERTEX
8
Capa 1
10
32.286318
20
177.262275
70
0
0
VERTEX
8
Capa 1
10
33.929514
20
180.703683
70
0
0
VERTEX
8
Capa 1
10
35.743050
20
184.070242
70
0
0
VERTEX
8
Capa 1
10
37.726178
20
187.354557
70
0
0
VERTEX
8
Capa 1
10
39.878153
20
190.549237
70
0
0
VERTEX
8
Capa 1
10
42.198227
20
193.646889
70
0
0
VERTEX
8
Capa 1
10
44.685655
20
196.640119
70
0
0
VERTEX
8
Capa 1
10
47.339689
20
199.521536
70
0
0
VERTEX
8
Capa 1
10
50.159585
20
202.283746
70
0
0
VERTEX
8
Capa 1
10
53.144595
20
204.919356
70
0
0
VERTEX
8
Capa 1
10
56.303801
20
207.428669
70
0
0
VERTEX
8
Capa 1
10
59.559290
20
209.748292
70
0
0
VERTEX
8
Capa 1
10
62.903584
20
211.878982
70
0
0
VERTEX
8
Capa 1
10
66.329203
20
213.821493
70
0
0
VERTEX
8
Capa 1
10
69.828668
20
215.576578
70
0
0
VERTEX
8
Capa 1
10
73.394500
20
217.144994
70
0
0
VERTEX
8
Capa 1
10
77.019219
20
218.527494
70
0
0
VERTEX
8
Capa 1
10
80.695348
20
219.724834
70
0
0
VERTEX
8
Capa 1
10
84.415406
20
220.737768
70
0
0
VERTEX
8
Capa 1
10
88.171914
20
221.567050
70
0
0
VERTEX
8
Capa 1
10
91.957393
20
222.213436
70
0
0
VERTEX
8
Capa 1
10
95.764365
20
222.677680
70
0
0
VERTEX
8
Capa 1
10
99.585349
20
222.960536
70
0
0
VERTEX
8
Capa 1
10
103.412867
20
223.062760
70
0
0
VERTEX
8
Capa 1
10
107.239440
20
222.985106
70
0
0
VERTEX
8
Capa 1
10
111.057588
20
222.728329
70
0
0
VERTEX
8
Capa 1
10
114.859832
20
222.293183
70
0
0
VERTEX
8
Capa 1
10
118.638694
20
221.680424
70
0
0
VERTEX
8
Capa 1
10
122.386693
20
220.890805
70
0
0
VERTEX
8
Capa 1
10
126.096352
20
219.925081
70
0
0
VERTEX
8
Capa 1
10
129.760190
20
218.784008
70
0
0
VERTEX
8
Capa 1
10
133.370728
20
217.468340
70
0
0
VERTEX
8
Capa 1
10
136.920488
20
215.978831
70
0
0
VERTEX
8
Capa 1
10
140.401990
20
214.316237
70
0
0
VERTEX
8
Capa 1
10
143.807756
20
212.481311
70
0
0
VERTEX
8
Capa 1
10
147.130305
20
210.474809
70
0
0
VERTEX
8
Capa 1
10
150.362159
20
208.297486
70
0
0
VERTEX
8
Capa 1
10
153.495838
20
205.950095
70
0
0
VERTEX
8
Capa 1
10
156.523864
20
203.433392
70
0
0
VERTEX
8
Capa 1
10
159.438758
20
200.748131
70
0
0
VERTEX
8
Capa 1
10
162.233039
20
197.895067
70
0
0
VERTEX
8
Capa 1
10
164.899230
20
194.874955
70
0
0
VERTEX
8
Capa 1
10
167.437282
20
191.679062
70
0
0
VERTEX
8
Capa 1
10
169.783459
20
188.385784
70
0
0
VERTEX
8
Capa 1
10
171.938526
20
185.002687
70
0
0
VERTEX
8
Capa 1
10
173.903245
20
181.537338
70
0
0
VERTEX
8
Capa 1
10
175.678379
20
177.997300
70
0
0
VERTEX
8
Capa 1
10
177.264691
20
174.390141
70
0
0
VERTEX
8
Capa 1
10
178.662944
20
170.723426
70
0
0
VERTEX
8
Capa 1
10
179.873902
20
167.004720
70
0
0
VERTEX
8
Capa 1
10
180.898326
20
163.241589
70
0
0
VERTEX
8
Capa 1
10
181.736980
20
159.441598
70
0
0
VERTEX
8
Capa 1
10
182.390628
20
155.612313
70
0
0
VERTEX
8
Capa 1
10
182.860031
20
151.761301
70
0
0
VERTEX
8
Capa 1
10
183.145954
20
147.896125
70
0
0
VERTEX
8
Capa 1
10
183.249158
20
144.024353
70
0
0
VERTEX
8
Capa 1
10
183.170408
20
140.153549
70
0
0
VERTEX
8
Capa 1
10
182.910465
20
136.291280
70
0
0
VERTEX
8
Capa 1
10
182.470093
20
132.445110
70
0
0
VERTEX
8
Capa 1
10
181.850056
20
128.622606
70
0
0
VERTEX
8
Capa 1
10
181.051115
20
124.831333
70
0
0
VERTEX
8
Capa 1
10
180.074034
20
121.078856
70
0
0
VERTEX
8
Capa 1
10
178.919577
20
117.372742
70
0
0
VERTEX
8
Capa 1
10
177.588505
20
113.720556
70
0
0
VERTEX
8
Capa 1
10
176.081582
20
110.129863
70
0
0
VERTEX
8
Capa 1
10
174.399571
20
106.608229
70
0
0
VERTEX
8
Capa 1
10
172.543235
20
103.163220
70
0
0
VERTEX
8
Capa 1
10
170.513337
20
99.802401
70
0
0
VERTEX
8
Capa 1
10
168.310639
20
96.533338
70
0
0
VERTEX
8
Capa 1
10
165.935906
20
93.363597
70
0
0
VERTEX
8
Capa 1
10
163.389899
20
90.300743
70
0
0
VERTEX
8
Capa 1
10
160.673382
20
87.352342
70
0
0
VERTEX
8
Capa 1
10
157.787118
20
84.525959
70
0
0
VERTEX
8
Capa 1
10
154.731870
20
81.829160
70
0
0
VERTEX
8
Capa 1
10
151.499254
20
79.262341
70
0
0
VERTEX
8
Capa 1
10
148.168152
20
76.889583
70
0
0
VERTEX
8
Capa 1
10
144.746216
20
74.710115
70
0
0
VERTEX
8
Capa 1
10
141.241099
20
72.723165
70
0
0
VERTEX
8
Capa 1
10
137.660451
20
70.927963
70
0
0
VERTEX
8
Capa 1
10
134.011926
20
69.323737
70
0
0
VERTEX
8
Capa 1
10
130.303175
20
67.909716
70
0
0
VERTEX
8
Capa 1
10
126.541851
20
66.685127
70
0
0
VERTEX
8
Capa 1
10
122.735606
20
65.649201
70
0
0
VERTEX
8
Capa 1
10
118.892092
20
64.801166
70
0
0
VERTEX
8
Capa 1
10
115.018961
20
64.140250
70
0
0
VERTEX
8
Capa 1
10
111.123866
20
63.665682
70
0
0
VERTEX
8
Capa 1
10
107.214458
20
63.376690
70
0
0
VERTEX
8
Capa 1
10
103.298390
20
63.272504
70
0
0
VERTEX
8
Capa 1
10
99.383313
20
63.352353
70
0
0
VERTEX
8
Capa 1
10
95.476881
20
63.615464
70
0
0
VERTEX
8
Capa 1
10
91.586744
20
64.061066
70
0
0
VERTEX
8
Capa 1
10
87.720556
20
64.688389
70
0
0
VERTEX
8
Capa 1
10
83.885968
20
65.496661
70
0
0
VERTEX
8
Capa 1
10
80.090633
20
66.485110
70
0
0
VERTEX
8
Capa 1
10
76.342203
20
67.652965
70
0
0
VERTEX
8
Capa 1
10
72.648329
20
68.999456
70
0
0
VERTEX
8
Capa 1
10
69.016664
20
70.523810
70
0
0
VERTEX
8
Capa 1
10
65.454861
20
72.225256
70
0
0
VERTEX
8
Capa 1
10
61.970571
20
74.103023
70
0
0
VERTEX
8
Capa 1
10
58.571447
20
76.156340
70
0
0
VERTEX
8
Capa 1
10
55.265140
20
78.384435
70
0
0
VERTEX
8
Capa 1
10
52.059303
20
80.786537
70
0
0
VERTEX
8
Capa 1
10
48.961587
20
83.361875
70
0
0
VERTEX
8
Capa 1
10
45.979646
20
86.109677
70
0
0
VERTEX
8
Capa 1
10
43.121132
20
89.029173
70
0
0
VERTEX
8
Capa 1
10
40.393695
20
92.119590
70
0
0
VERTEX
8
Capa 1
10
37.798083
20
95.388963
70
0
0
VERTEX
8
Capa 1
10
35.398722
20
98.757924
70
0
0
VERTEX
8
Capa 1
10
33.194831
20
102.218736
70
0
0
VERTEX
8
Capa 1
10
31.185631
20
105.763660
70
0
0
VERTEX
8
Capa 1
10
29.370343
20
109.384956
70
0
0
VERTEX
8
Capa 1
10
27.748187
20
113.074886
70
0
0
VERTEX
8
Capa 1
10
26.318383
20
116.825712
70
0
0
VERTEX
8
Capa 1
10
25.080152
20
120.629693
70
0
0
VERTEX
8
Capa 1
10
24.032713
20
124.479093
70
0
0
VERTEX
8
Capa 1
10
23.175288
20
128.366171
70
0
0
VERTEX
8
Capa 1
10
22.507097
20
132.283190
70
0
0
VERTEX
8
Capa 1
10
22.027360
20
136.222409
70
0
0
VERTEX
8
Capa 1
10
21.735297
20
140.176092
70
0
0
VERTEX
8
Capa 1
10
21.630129
20
144.136497
70
0
0
VERTEX
8
Capa 1
10
21.711076
20
148.095888
70
0
0
VERTEX
8
Capa 1
10
21.977358
20
152.046525
70
0
0
VERTEX
8
Capa 1
10
22.428197
20
155.980670
70
0
0
VERTEX
8
Capa 1
10
23.062811
20
159.890583
70
0
0
VERTEX
8
Capa 1
10
23.880422
20
163.768526
70
0
0
VERTEX
8
Capa 1
10
24.880251
20
167.606760
70
0
0
VERTEX
8
Capa 1
10
26.061516
20
171.397547
70
0
0
VERTEX
8
Capa 1
10
27.423439
20
175.133146
70
0
0
VERTEX
8
Capa 1
10
28.965241
20
178.805821
70
0
0
VERTEX
8
Capa 1
10
30.686140
20
182.407832
70
0
0
VERTEX
8
Capa 1
10
32.585359
20
185.931439
70
0
0
VERTEX
8
Capa 1
10
34.662116
20
189.368905
70
0
0
VERTEX
8
Capa 1
10
36.915633
20
192.712491
70
0
0
VERTEX
8
Capa 1
10
39.345130
20
195.954458
70
0
0
VERTEX
8
Capa 1
10
41.949827
20
199.087066
70
0
0
VERTEX
8
Capa 1
10
44.728945
20
202.102578
70
0
0
VERTEX
8
Capa 1
10
47.681703
20
204.993255
70
0
0
VERTEX
8
Capa 1
10
50.807323
20
207.751357
70
0
0
VERTEX
8
Capa 1
10
54.113487
20
210.375789
70
0
0
VERTEX
8
Capa 1
10
57.520344
20
212.801779
70
0
0
VERTEX
8
Capa 1
10
61.020068
20
215.030115
70
0
0
VERTEX
8
Capa 1
10
64.604834
20
217.061585
70
0
0
VERTEX
8
Capa 1
10
68.266817
20
218.896978
70
0
0
VERTEX
8
Capa 1
10
71.998191
20
220.537080
70
0
0
VERTEX
8
Capa 1
10
75.791130
20
221.982681
70
0
0
VERTEX
8
Capa 1
10
79.637809
20
223.234568
70
0
0
VERTEX
8
Capa 1
10
83.530403
20
224.293529
70
0
0
VERTEX
8
Capa 1
10
87.461086
20
225.160352
70
0
0
VERTEX
8
Capa 1
10
91.422032
20
225.835825
70
0
0
VERTEX
8
Capa 1
10
95.405417
20
226.320736
70
0
0
VERTEX
8
Capa 1
10
99.403414
20
226.615873
70
0
0
VERTEX
8
Capa 1
10
103.408199
20
226.722024
70
0
0
VERTEX
8
Capa 1
10
107.411945
20
226.639977
70
0
0
VERTEX
8
Capa 1
10
111.406827
20
226.370520
70
0
0
VERTEX
8
Capa 1
10
115.385020
20
225.914440
70
0
0
VERTEX
8
Capa 1
10
119.338698
20
225.272527
70
0
0
VERTEX
8
Capa 1
10
123.260036
20
224.445567
70
0
0
VERTEX
8
Capa 1
10
127.141208
20
223.434349
70
0
0
VERTEX
8
Capa 1
10
130.974389
20
222.239661
70
0
0
VERTEX
8
Capa 1
10
134.751753
20
220.862290
70
0
0
VERTEX
8
Capa 1
10
138.465475
20
219.303025
70
0
0
VERTEX
8
Capa 1
10
142.107730
20
217.562654
70
0
0
VERTEX
8
Capa 1
10
145.670691
20
215.641964
70
0
0
VERTEX
8
Capa 1
10
149.146533
20
213.541744
70
0
0
VERTEX
8
Capa 1
10
152.527432
20
211.262782
70
0
0
VERTEX
8
Capa 1
10
155.805561
20
208.805865
70
0
0
VERTEX
8
Capa 1
10
158.973094
20
206.171781
70
0
0
VERTEX
8
Capa 1
10
162.022207
20
203.361320
70
0
0
VERTEX
8
Capa 1
10
164.945074
20
200.375267
70
0
0
VERTEX
8
Capa 1
10
167.733870
20
197.214412
70
0
0
VERTEX
8
Capa 1
10
170.387148
20
193.871423
70
0
0
VERTEX
8
Capa 1
10
172.839791
20
190.426637
70
0
0
VERTEX
8
Capa 1
10
175.092596
20
186.887965
70
0
0
VERTEX
8
Capa 1
10
177.146358
20
183.263320
70
0
0
VERTEX
8
Capa 1
10
179.001873
20
179.560613
70
0
0
VERTEX
8
Capa 1
10
180.659939
20
175.787758
70
0
0
VERTEX
8
Capa 1
10
182.121352
20
171.952667
70
0
0
VERTEX
8
Capa 1
10
183.386907
20
168.063251
70
0
0
VERTEX
8
Capa 1
10
184.457401
20
164.127424
70
0
0
VERTEX
8
Capa 1
10
185.333631
20
160.153096
70
0
0
VERTEX
8
Capa 1
10
186.016392
20
156.148181
70
0
0
VERTEX
8
Capa 1
10
186.506482
20
152.120591
70
0
0
VERTEX
8
Capa 1
10
186.804695
20
148.078239
70
0
0
VERTEX
8
Capa 1
10
186.911830
20
144.029035
70
0
0
VERTEX
8
Capa 1
10
186.828681
20
139.980893
70
0
0
VERTEX
8
Capa 1
10
186.556046
20
135.941725
70
0
0
VERTEX
8
Capa 1
10
186.094721
20
131.919443
70
0
0
VERTEX
8
Capa 1
10
185.445501
20
127.921960
70
0
0
VERTEX
8
Capa 1
10
184.609184
20
123.957187
70
0
0
VERTEX
8
Capa 1
10
183.586565
20
120.033037
70
0
0
VERTEX
8
Capa 1
10
182.378441
20
116.157423
70
0
0
VERTEX
8
Capa 1
10
180.985609
20
112.338255
70
0
0
VERTEX
8
Capa 1
10
179.408864
20
108.583448
70
0
0
VERTEX
8
Capa 1
10
177.649003
20
104.900912
70
0
0
VERTEX
8
Capa 1
10
175.706822
20
101.298561
70
0
0
VERTEX
8
Capa 1
10
173.583117
20
97.784306
70
0
0
VERTEX
8
Capa 1
10
171.278685
20
94.366060
70
0
0
VERTEX
8
Capa 1
10
168.794323
20
91.051735
70
0
0
VERTEX
8
Capa 1
10
166.130826
20
87.849243
70
0
0
VERTEX
8
Capa 1
10
163.288990
20
84.766497
70
0
0
VERTEX
8
Capa 1
10
160.269613
20
81.811408
70
0
0
VERTEX
8
Capa 1
10
157.073490
20
78.991890
70
0
0
VERTEX
8
Capa 1
10
153.693643
20
76.309741
70
0
0
VERTEX
8
Capa 1
10
150.210893
20
73.830423
70
0
0
VERTEX
8
Capa 1
10
146.633238
20
71.553130
70
0
0
VERTEX
8
Capa 1
10
142.968677
20
69.477057
70
0
0
VERTEX
8
Capa 1
10
139.225210
20
67.601402
70
0
0
VERTEX
8
Capa 1
10
135.410836
20
65.925357
70
0
0
VERTEX
8
Capa 1
10
131.533554
20
64.448120
70
0
0
VERTEX
8
Capa 1
10
127.601363
20
63.168885
70
0
0
VERTEX
8
Capa 1
10
123.622262
20
62.086848
70
0
0
VERTEX
8
Capa 1
10
119.604251
20
61.201203
70
0
0
VERTEX
8
Capa 1
10
115.555328
20
60.511147
70
0
0
VERTEX
8
Capa 1
10
111.483492
20
60.015875
70
0
0
VERTEX
8
Capa 1
10
107.396743
20
59.714582
70
0
0
VERTEX
8
Capa 1
10
103.303080
20
59.606463
70
0
0
VERTEX
8
Capa 1
10
99.210502
20
59.690713
70
0
0
VERTEX
8
Capa 1
10
95.127008
20
59.966529
70
0
0
VERTEX
8
Capa 1
10
91.060597
20
60.433105
70
0
0
VERTEX
8
Capa 1
10
87.019269
20
61.089636
70
0
0
VERTEX
8
Capa 1
10
83.011022
20
61.935319
70
0
0
VERTEX
8
Capa 1
10
79.043856
20
62.969348
70
0
0
VERTEX
8
Capa 1
10
75.125769
20
64.190919
70
0
0
VERTEX
8
Capa 1
10
71.264761
20
65.599227
70
0
0
VERTEX
8
Capa 1
10
67.468831
20
67.193467
70
0
0
VERTEX
8
Capa 1
10
63.745978
20
68.972835
70
0
0
VERTEX
8
Capa 1
10
60.104202
20
70.936527
70
0
0
VERTEX
8
Capa 1
10
56.551500
20
73.083736
70
0
0
VERTEX
8
Capa 1
10
53.095874
20
75.413660
70
0
0
VERTEX
8
Capa 1
10
49.745320
20
77.925492
70
0
0
VERTEX
8
Capa 1
10
46.507840
20
80.618429
70
0
0
VERTEX
8
Capa 1
10
43.391431
20
83.491666
70
0
0
VERTEX
8
Capa 1
10
40.404094
20
86.544398
70
0
0
VERTEX
8
Capa 1
10
37.553826
20
89.775820
70
0
0
VERTEX
8
Capa 1
10
34.842779
20
93.192559
70
0
0
VERTEX
8
Capa 1
10
32.336760
20
96.713308
70
0
0
VERTEX
8
Capa 1
10
30.034956
20
100.329982
70
0
0
VERTEX
8
Capa 1
10
27.936553
20
104.034494
70
0
0
VERTEX
8
Capa 1
10
26.040738
20
107.818759
70
0
0
VERTEX
8
Capa 1
10
24.346699
20
111.674690
70
0
0
VERTEX
8
Capa 1
10
22.853622
20
115.594201
70
0
0
VERTEX
8
Capa 1
10
21.560695
20
119.569206
70
0
0
VERTEX
8
Capa 1
10
20.467105
20
123.591619
70
0
0
VERTEX
8
Capa 1
10
19.572037
20
127.653355
70
0
0
VERTEX
8
Capa 1
10
18.874680
20
131.746326
70
0
0
VERTEX
8
Capa 1
10
18.374221
20
135.862447
70
0
0
VERTEX
8
Capa 1
10
18.069846
20
139.993632
70
0
0
VERTEX
8
Capa 1
10
17.960742
20
144.131795
70
0
0
VERTEX
8
Capa 1
10
18.046096
20
148.268849
70
0
0
VERTEX
8
Capa 1
10
18.325096
20
152.396709
70
0
0
VERTEX
8
Capa 1
10
18.796928
20
156.507289
70
0
0
VERTEX
8
Capa 1
10
19.460779
20
160.592502
70
0
0
VERTEX
8
Capa 1
10
20.315837
20
164.644262
70
0
0
VERTEX
8
Capa 1
10
21.361288
20
168.654484
70
0
0
VERTEX
8
Capa 1
10
22.596319
20
172.615081
70
0
0
VERTEX
8
Capa 1
10
24.020117
20
176.517968
70
0
0
VERTEX
8
Capa 1
10
25.631870
20
180.355057
70
0
0
VERTEX
8
Capa 1
10
27.430763
20
184.118263
70
0
0
VERTEX
8
Capa 1
10
29.415985
20
187.799501
70
0
0
VERTEX
8
Capa 1
10
31.586722
20
191.390683
70
0
0
VERTEX
8
Capa 1
10
33.942161
20
194.883724
70
0
0
VERTEX
8
Capa 1
10
36.481489
20
198.270538
70
0
0
VERTEX
8
Capa 1
10
39.203893
20
201.543039
70
0
0
VERTEX
8
Capa 1
10
42.108560
20
204.693141
70
0
0
VERTEX
8
Capa 1
10
45.194678
20
207.712756
70
0
0
VERTEX
8
Capa 1
10
48.461432
20
210.593801
70
0
0
VERTEX
8
Capa 1
10
51.915095
20
213.333770
70
0
0
VERTEX
8
Capa 1
10
55.473877
20
215.866513
70
0
0
VERTEX
8
Capa 1
10
59.129603
20
218.192851
70
0
0
VERTEX
8
Capa 1
10
62.874102
20
220.313604
70
0
0
VERTEX
8
Capa 1
10
66.699200
20
222.229595
70
0
0
VERTEX
8
Capa 1
10
70.596724
20
223.941645
70
0
0
VERTEX
8
Capa 1
10
74.558502
20
225.450574
70
0
0
VERTEX
8
Capa 1
10
78.576358
20
226.757206
70
0
0
VERTEX
8
Capa 1
10
82.642122
20
227.862360
70
0
0
VERTEX
8
Capa 1
10
86.747620
20
228.766859
70
0
0
VERTEX
8
Capa 1
10
90.884678
20
229.471523
70
0
0
VERTEX
8
Capa 1
10
95.045123
20
229.977174
70
0
0
VERTEX
8
Capa 1
10
99.220783
20
230.284634
70
0
0
VERTEX
8
Capa 1
10
103.403485
20
230.394723
70
0
0
VERTEX
8
Capa 1
10
107.585054
20
230.308264
70
0
0
VERTEX
8
Capa 1
10
111.757319
20
230.026077
70
0
0
VERTEX
8
Capa 1
10
115.912106
20
229.548985
70
0
0
VERTEX
8
Capa 1
10
120.041242
20
228.877807
70
0
0
VERTEX
8
Capa 1
10
124.136554
20
228.013367
70
0
0
VERTEX
8
Capa 1
10
128.189869
20
226.956484
70
0
0
VERTEX
8
Capa 1
10
132.193014
20
225.707981
70
0
0
VERTEX
8
Capa 1
10
136.137815
20
224.268679
70
0
0
VERTEX
8
Capa 1
10
140.016100
20
222.639399
70
0
0
VERTEX
8
Capa 1
10
143.819696
20
220.820963
70
0
0
VERTEX
8
Capa 1
10
147.540429
20
218.814191
70
0
0
VERTEX
8
Capa 1
10
151.170126
20
216.619907
70
0
0
VERTEX
8
Capa 1
10
154.700615
20
214.238929
70
0
0
VERTEX
8
Capa 1
10
158.123722
20
211.672081
70
0
0
VERTEX
8
Capa 1
10
161.431274
20
208.920184
70
0
0
VERTEX
8
Capa 1
10
164.615098
20
205.984058
70
0
0
VERTEX
8
Capa 1
10
167.667021
20
202.864526
70
0
0
VERTEX
8
Capa 1
10
170.578870
20
199.562408
70
0
0
VERTEX
8
Capa 1
10
173.347788
20
196.071788
70
0
0
VERTEX
8
Capa 1
10
175.907277
20
192.474940
70
0
0
VERTEX
8
Capa 1
10
178.258169
20
188.780126
70
0
0
VERTEX
8
Capa 1
10
180.401293
20
184.995605
70
0
0
VERTEX
8
Capa 1
10
182.337477
20
181.129637
70
0
0
VERTEX
8
Capa 1
10
184.067553
20
177.190482
70
0
0
VERTEX
8
Capa 1
10
185.592350
20
173.186402
70
0
0
VERTEX
8
Capa 1
10
186.912698
20
169.125655
70
0
0
VERTEX
8
Capa 1
10
188.029426
20
165.016502
70
0
0
VERTEX
8
Capa 1
10
188.943364
20
160.867203
70
0
0
VERTEX
8
Capa 1
10
189.655342
20
156.686019
70
0
0
VERTEX
8
Capa 1
10
190.166189
20
152.481210
70
0
0
VERTEX
8
Capa 1
10
190.476736
20
148.261035
70
0
0
VERTEX
8
Capa 1
10
190.587812
20
144.033755
70
0
0
VERTEX
8
Capa 1
10
190.500248
20
139.807631
70
0
0
VERTEX
8
Capa 1
10
190.214871
20
135.590921
70
0
0
VERTEX
8
Capa 1
10
189.732513
20
131.391888
70
0
0
VERTEX
8
Capa 1
10
189.054004
20
127.218790
70
0
0
VERTEX
8
Capa 1
10
188.180172
20
123.079888
70
0
0
VERTEX
8
Capa 1
10
187.111847
20
118.983442
70
0
0
VERTEX
8
Capa 1
10
185.849861
20
114.937712
70
0
0
VERTEX
8
Capa 1
10
184.395041
20
110.950958
70
0
0
VERTEX
8
Capa 1
10
182.748218
20
107.031442
70
0
0
VERTEX
8
Capa 1
10
180.910222
20
103.187422
70
0
0
VERTEX
8
Capa 1
10
178.881882
20
99.427159
70
0
0
VERTEX
8
Capa 1
10
176.664028
20
95.758913
70
0
0
VERTEX
8
Capa 1
10
174.257490
20
92.190945
70
0
0
VERTEX
8
Capa 1
10
171.663098
20
88.731514
70
0
0
VERTEX
8
Capa 1
10
168.881681
20
85.388881
70
0
0
VERTEX
8
Capa 1
10
165.914069
20
82.171306
70
0
0
VERTEX
8
Capa 1
10
162.761092
20
79.087049
70
0
0
VERTEX
8
Capa 1
10
159.423580
20
76.144370
70
0
0
VERTEX
8
Capa 1
10
155.895970
20
73.346479
70
0
0
VERTEX
8
Capa 1
10
152.261023
20
70.760219
70
0
0
VERTEX
8
Capa 1
10
148.527087
20
68.384751
70
0
0
VERTEX
8
Capa 1
10
144.702508
20
66.219238
70
0
0
VERTEX
8
Capa 1
10
140.795634
20
64.262842
70
0
0
VERTEX
8
Capa 1
10
136.814813
20
62.514724
70
0
0
VERTEX
8
Capa 1
10
132.768392
20
60.974047
70
0
0
VERTEX
8
Capa 1
10
128.664718
20
59.639971
70
0
0
VERTEX
8
Capa 1
10
124.512138
20
58.511660
70
0
0
VERTEX
8
Capa 1
10
120.319000
20
57.588274
70
0
0
VERTEX
8
Capa 1
10
116.093652
20
56.868976
70
0
0
VERTEX
8
Capa 1
10
111.844440
20
56.352928
70
0
0
VERTEX
8
Capa 1
10
107.579712
20
56.039291
70
0
0
VERTEX
8
Capa 1
10
103.307815
20
55.927228
70
0
0
VERTEX
8
Capa 1
10
99.037097
20
56.015900
70
0
0
VERTEX
8
Capa 1
10
94.775904
20
56.304469
70
0
0
VERTEX
8
Capa 1
10
90.532585
20
56.792097
70
0
0
VERTEX
8
Capa 1
10
86.315487
20
57.477946
70
0
0
VERTEX
8
Capa 1
10
82.132957
20
58.361177
70
0
0
VERTEX
8
Capa 1
10
77.993342
20
59.440953
70
0
0
VERTEX
8
Capa 1
10
73.904990
20
60.716436
70
0
0
VERTEX
8
Capa 1
10
69.876248
20
62.186787
70
0
0
VERTEX
8
Capa 1
10
65.915463
20
63.851169
70
0
0
VERTEX
8
Capa 1
10
62.030983
20
65.708742
70
0
0
VERTEX
8
Capa 1
10
58.231155
20
67.758669
70
0
0
VERTEX
8
Capa 1
10
54.524327
20
70.000113
70
0
0
VERTEX
8
Capa 1
10
50.918846
20
72.432234
70
0
0
VERTEX
8
Capa 1
10
47.423058
20
75.054194
70
0
0
VERTEX
8
Capa 1
10
44.045313
20
77.865156
70
0
0
VERTEX
8
Capa 1
10
40.793956
20
80.864282
70
0
0
VERTEX
8
Capa 1
10
37.677335
20
84.050732
70
0
0
VERTEX
8
Capa 1
10
34.703798
20
87.423670
70
0
0
VERTEX
8
Capa 1
10
31.876909
20
90.988302
70
0
0
VERTEX
8
Capa 1
10
29.263856
20
94.661381
70
0
0
VERTEX
8
Capa 1
10
26.863792
20
98.434473
70
0
0
VERTEX
8
Capa 1
10
24.675871
20
102.299144
70
0
0
VERTEX
8
Capa 1
10
22.699246
20
106.246958
70
0
0
VERTEX
8
Capa 1
10
20.933071
20
110.269482
70
0
0
VERTEX
8
Capa 1
10
19.376499
20
114.358281
70
0
0
VERTEX
8
Capa 1
10
18.028684
20
118.504919
70
0
0
VERTEX
8
Capa 1
10
16.888780
20
122.700963
70
0
0
VERTEX
8
Capa 1
10
15.955939
20
126.937978
70
0
0
VERTEX
8
Capa 1
10
15.229315
20
131.207529
70
0
0
VERTEX
8
Capa 1
10
14.708062
20
135.501182
70
0
0
VERTEX
8
Capa 1
10
14.391334
20
139.810502
70
0
0
VERTEX
8
Capa 1
10
14.278283
20
144.127054
70
0
0
VERTEX
8
Capa 1
10
14.368063
20
148.442405
70
0
0
VERTEX
8
Capa 1
10
14.659828
20
152.748118
70
0
0
VERTEX
8
Capa 1
10
15.152731
20
157.035760
70
0
0
VERTEX
8
Capa 1
10
15.845926
20
161.296897
70
0
0
VERTEX
8
Capa 1
10
16.738566
20
165.523093
70
0
0
VERTEX
8
Capa 1
10
17.829804
20
169.705913
70
0
0
VERTEX
8
Capa 1
10
19.118795
20
173.836924
70
0
0
VERTEX
8
Capa 1
10
20.604691
20
177.907691
70
0
0
VERTEX
8
Capa 1
10
22.286647
20
181.909779
70
0
0
VERTEX
8
Capa 1
10
24.163815
20
185.834753
70
0
0
VERTEX
8
Capa 1
10
26.235349
20
189.674180
70
0
0
VERTEX
8
Capa 1
10
28.500403
20
193.419623
70
0
0
VERTEX
8
Capa 1
10
30.958130
20
197.062650
70
0
0
VERTEX
8
Capa 1
10
33.607683
20
200.594824
70
0
0
VERTEX
8
Capa 1
10
36.448217
20
204.007712
70
0
0
VERTEX
8
Capa 1
10
39.478884
20
207.292880
70
0
0
VERTEX
8
Capa 1
10
42.698838
20
210.441891
70
0
0
VERTEX
8
Capa 1
10
46.107233
20
213.446312
70
0
0
VERTEX
8
Capa 1
10
49.708917
20
216.302224
70
0
0
VERTEX
8
Capa 1
10
53.420160
20
218.942093
70
0
0
VERTEX
8
Capa 1
10
57.232441
20
221.366774
70
0
0
VERTEX
8
Capa 1
10
61.137237
20
223.577122
70
0
0
VERTEX
8
Capa 1
10
65.126027
20
225.573993
70
0
0
VERTEX
8
Capa 1
10
69.190289
20
227.358240
70
0
0
VERTEX
8
Capa 1
10
73.321500
20
228.930720
70
0
0
VERTEX
8
Capa 1
10
77.511139
20
230.292286
70
0
0
VERTEX
8
Capa 1
10
81.750684
20
231.443794
70
0
0
VERTEX
8
Capa 1
10
86.031613
20
232.386098
70
0
0
VERTEX
8
Capa 1
10
90.345405
20
233.120054
70
0
0
VERTEX
8
Capa 1
10
94.683536
20
233.646516
70
0
0
VERTEX
8
Capa 1
10
99.037485
20
233.966339
70
0
0
VERTEX
8
Capa 1
10
103.398731
20
234.080379
70
0
0
VERTEX
8
Capa 1
10
107.758751
20
233.989489
70
0
0
VERTEX
8
Capa 1
10
112.109024
20
233.694526
70
0
0
VERTEX
8
Capa 1
10
116.441027
20
233.196343
70
0
0
VERTEX
8
Capa 1
10
120.746239
20
232.495796
70
0
0
VERTEX
8
Capa 1
10
125.016138
20
231.593740
70
0
0
VERTEX
8
Capa 1
10
129.242201
20
230.491029
70
0
0
VERTEX
8
Capa 1
10
133.415908
20
229.188519
70
0
0
VERTEX
8
Capa 1
10
137.528735
20
227.687064
70
0
0
VERTEX
8
Capa 1
10
141.572161
20
225.987520
70
0
0
VERTEX
8
Capa 1
10
145.537665
20
224.090740
70
0
0
VERTEX
8
Capa 1
10
149.416724
20
221.997581
70
0
0
VERTEX
8
Capa 1
10
153.200816
20
219.708897
70
0
0
VERTEX
8
Capa 1
10
156.881419
20
217.225542
70
0
0
VERTEX
8
Capa 1
10
160.450012
20
214.548372
70
0
0
VERTEX
8
Capa 1
10
163.898072
20
211.678242
70
0
0
VERTEX
8
Capa 1
10
167.217079
20
208.616007
70
0
0
VERTEX
8
Capa 1
10
170.398508
20
205.362521
70
0
0
VERTEX
8
Capa 1
10
173.433840
20
201.918639
70
0
0
VERTEX
8
Capa 1
10
176.318799
20
198.279870
70
0
0
VERTEX
8
Capa 1
10
178.985506
20
194.530430
70
0
0
VERTEX
8
Capa 1
10
181.434826
20
190.678926
70
0
0
VERTEX
8
Capa 1
10
183.667620
20
186.733970
70
0
0
VERTEX
8
Capa 1
10
185.684754
20
182.704169
70
0
0
VERTEX
8
Capa 1
10
187.487089
20
178.598134
70
0
0
VERTEX
8
Capa 1
10
189.075489
20
174.424473
70
0
0
VERTEX
8
Capa 1
10
190.450818
20
170.191796
70
0
0
VERTEX
8
Capa 1
10
191.613939
20
165.908713
70
0
0
VERTEX
8
Capa 1
10
192.565714
20
161.583832
70
0
0
VERTEX
8
Capa 1
10
193.307008
20
157.225763
70
0
0
VERTEX
8
Capa 1
10
193.838684
20
152.843115
70
0
0
VERTEX
8
Capa 1
10
194.161604
20
148.444497
70
0
0
VERTEX
8
Capa 1
10
194.276633
20
144.038520
70
0
0
VERTEX
8
Capa 1
10
194.184634
20
139.633791
70
0
0
VERTEX
8
Capa 1
10
193.886469
20
135.238921
70
0
0
VERTEX
8
Capa 1
10
193.383002
20
130.862519
70
0
0
VERTEX
8
Capa 1
10
192.675097
20
126.513194
70
0
0
VERTEX
8
Capa 1
10
191.763616
20
122.199555
70
0
0
VERTEX
8
Capa 1
10
190.649424
20
117.930212
70
0
0
VERTEX
8
Capa 1
10
189.333383
20
113.713774
70
0
0
VERTEX
8
Capa 1
10
187.816356
20
109.558850
70
0
0
VERTEX
8
Capa 1
10
186.099208
20
105.474050
70
0
0
VERTEX
8
Capa 1
10
184.182800
20
101.467983
70
0
0
VERTEX
8
Capa 1
10
182.067997
20
97.549258
70
0
0
VERTEX
8
Capa 1
10
179.755662
20
93.726485
70
0
0
VERTEX
8
Capa 1
10
177.246658
20
90.008272
70
0
0
VERTEX
8
Capa 1
10
174.541849
20
86.403230
70
0
0
VERTEX
8
Capa 1
10
171.642097
20
82.919968
70
0
0
VERTEX
8
Capa 1
10
168.548266
20
79.567094
70
0
0
VERTEX
8
Capa 1
10
165.261219
20
76.353218
70
0
0
VERTEX
8
Capa 1
10
161.781820
20
73.286950
70
0
0
VERTEX
8
Capa 1
10
158.105935
20
70.372920
70
0
0
VERTEX
8
Capa 1
10
154.318265
20
67.679352
70
0
0
VERTEX
8
Capa 1
10
150.427507
20
65.205375
70
0
0
VERTEX
8
Capa 1
10
146.442356
20
62.950115
70
0
0
VERTEX
8
Capa 1
10
142.371510
20
60.912703
70
0
0
VERTEX
8
Capa 1
10
138.223666
20
59.092265
70
0
0
VERTEX
8
Capa 1
10
134.007520
20
57.487931
70
0
0
VERTEX
8
Capa 1
10
129.731770
20
56.098828
70
0
0
VERTEX
8
Capa 1
10
125.405111
20
54.924086
70
0
0
VERTEX
8
Capa 1
10
121.036241
20
53.962831
70
0
0
VERTEX
8
Capa 1
10
116.633857
20
53.214194
70
0
0
VERTEX
8
Capa 1
10
112.206656
20
52.677301
70
0
0
VERTEX
8
Capa 1
10
107.763333
20
52.351281
70
0
0
VERTEX
8
Capa 1
10
103.312586
20
52.235262
70
0
0
VERTEX
8
Capa 1
10
98.863112
20
52.328373
70
0
0
VERTEX
8
Capa 1
10
94.423608
20
52.629742
70
0
0
VERTEX
8
Capa 1
10
90.002769
20
53.138498
70
0
0
VERTEX
8
Capa 1
10
85.609294
20
53.853768
70
0
0
VERTEX
8
Capa 1
10
81.251879
20
54.774681
70
0
0
VERTEX
8
Capa 1
10
76.939220
20
55.900365
70
0
0
VERTEX
8
Capa 1
10
72.680015
20
57.229949
70
0
0
VERTEX
8
Capa 1
10
68.482960
20
58.762561
70
0
0
VERTEX
8
Capa 1
10
64.356752
20
60.497328
70
0
0
VERTEX
8
Capa 1
10
60.310088
20
62.433380
70
0
0
VERTEX
8
Capa 1
10
56.351664
20
64.569845
70
0
0
VERTEX
8
Capa 1
10
52.490178
20
66.905851
70
0
0
VERTEX
8
Capa 1
10
48.734326
20
69.440526
70
0
0
VERTEX
8
Capa 1
10
45.092804
20
72.172998
70
0
0
VERTEX
8
Capa 1
10
41.574311
20
75.102397
70
0
0
VERTEX
8
Capa 1
10
38.187542
20
78.227849
70
0
0
VERTEX
8
Capa 1
10
34.941194
20
81.548484
70
0
0
VERTEX
8
Capa 1
10
31.843964
20
85.063430
70
0
0
VERTEX
8
Capa 1
10
28.900839
20
88.776461
70
0
0
VERTEX
8
Capa 1
10
26.180388
20
92.602392
70
0
0
VERTEX
8
Capa 1
10
23.681731
20
96.532439
70
0
0
VERTEX
8
Capa 1
10
21.403988
20
100.557817
70
0
0
VERTEX
8
Capa 1
10
19.346279
20
104.669743
70
0
0
VERTEX
8
Capa 1
10
17.507724
20
108.859431
70
0
0
VERTEX
8
Capa 1
10
15.887443
20
113.118097
70
0
0
VERTEX
8
Capa 1
10
14.484555
20
117.436957
70
0
0
VERTEX
8
Capa 1
10
13.298180
20
121.807227
70
0
0
VERTEX
8
Capa 1
10
12.327439
20
126.220122
70
0
0
VERTEX
8
Capa 1
10
11.571451
20
130.666858
70
0
0
VERTEX
8
Capa 1
10
11.029336
20
135.138651
70
0
0
VERTEX
8
Capa 1
10
10.700214
20
139.626716
70
0
0
VERTEX
8
Capa 1
10
10.583204
20
144.122270
70
0
0
VERTEX
8
Capa 1
10
10.677428
20
148.616527
70
0
0
VERTEX
8
Capa 1
10
10.982004
20
153.100703
70
0
0
VERTEX
8
Capa 1
10
11.496053
20
157.566014
70
0
0
VERTEX
8
Capa 1
10
12.218694
20
162.003676
70
0
0
VERTEX
8
Capa 1
10
13.149048
20
166.404905
70
0
0
VERTEX
8
Capa 1
10
14.286233
20
170.760915
70
0
0
VERTEX
8
Capa 1
10
15.629371
20
175.062924
70
0
0
VERTEX
8
Capa 1
10
17.177581
20
179.302145
70
0
0
VERTEX
8
Capa 1
10
18.929982
20
183.469796
70
0
0
VERTEX
8
Capa 1
10
20.885695
20
187.557091
70
0
0
VERTEX
8
Capa 1
10
23.043840
20
191.555247
70
0
0
VERTEX
8
Capa 1
10
25.403537
20
195.455479
70
0
0
VERTEX
8
Capa 1
10
27.963904
20
199.249002
70
0
0
VERTEX
8
Capa 1
10
30.724063
20
202.927033
70
0
0
VERTEX
8
Capa 1
10
33.683134
20
206.480788
70
0
0
VERTEX
8
Capa 1
10
36.840235
20
209.901480
70
0
0
VERTEX
8
Capa 1
10
40.194487
20
213.180328
70
0
0
VERTEX
8
Capa 1
10
43.745010
20
216.308545
70
0
0
VERTEX
8
Capa 1
10
47.495219
20
219.280789
70
0
0
VERTEX
8
Capa 1
10
51.359443
20
222.028145
70
0
0
VERTEX
8
Capa 1
10
55.328811
20
224.551501
70
0
0
VERTEX
8
Capa 1
10
59.394450
20
226.851745
70
0
0
VERTEX
8
Capa 1
10
63.547488
20
228.929767
70
0
0
VERTEX
8
Capa 1
10
67.779054
20
230.786454
70
0
0
VERTEX
8
Capa 1
10
72.080276
20
232.422696
70
0
0
VERTEX
8
Capa 1
10
76.442281
20
233.839381
70
0
0
VERTEX
8
Capa 1
10
80.856198
20
235.037396
70
0
0
VERTEX
8
Capa 1
10
85.313155
20
236.017632
70
0
0
VERTEX
8
Capa 1
10
89.804279
20
236.780976
70
0
0
VERTEX
8
Capa 1
10
94.320700
20
237.328317
70
0
0
VERTEX
8
Capa 1
10
98.853544
20
237.660544
70
0
0
VERTEX
8
Capa 1
10
103.393940
20
237.778544
70
0
0
VERTEX
8
Capa 1
10
107.933017
20
237.683207
70
0
0
VERTEX
8
Capa 1
10
112.461901
20
237.375421
70
0
0
VERTEX
8
Capa 1
10
116.971722
20
236.856074
70
0
0
VERTEX
8
Capa 1
10
121.453607
20
236.126056
70
0
0
VERTEX
8
Capa 1
10
125.898684
20
235.186254
70
0
0
VERTEX
8
Capa 1
10
130.298081
20
234.037558
70
0
0
VERTEX
8
Capa 1
10
134.642927
20
232.680855
70
0
0
VERTEX
8
Capa 1
10
138.924349
20
231.117034
70
0
0
VERTEX
8
Capa 1
10
143.133476
20
229.346984
70
0
0
VERTEX
8
Capa 1
10
147.261435
20
227.371593
70
0
0
VERTEX
8
Capa 1
10
151.299355
20
225.191750
70
0
0
VERTEX
8
Capa 1
10
155.238364
20
222.808344
70
0
0
VERTEX
8
Capa 1
10
159.069590
20
220.222262
70
0
0
VERTEX
8
Capa 1
10
162.784160
20
217.434394
70
0
0
VERTEX
8
Capa 1
10
166.373203
20
214.445627
70
0
0
VERTEX
8
Capa 1
10
169.827847
20
211.256851
70
0
0
VERTEX
8
Capa 1
10
173.139220
20
207.868954
70
0
0
VERTEX
8
Capa 1
10
176.298450
20
204.282825
70
0
0
VERTEX
8
Capa 1
10
179.299837
20
200.495408
70
0
0
VERTEX
8
Capa 1
10
182.074120
20
196.592860
70
0
0
VERTEX
8
Capa 1
10
184.622196
20
192.584139
70
0
0
VERTEX
8
Capa 1
10
186.944960
20
188.478207
70
0
0
VERTEX
8
Capa 1
10
189.043312
20
184.284021
70
0
0
VERTEX
8
Capa 1
10
190.918147
20
180.010543
70
0
0
VERTEX
8
Capa 1
10
192.570362
20
175.666731
70
0
0
VERTEX
8
Capa 1
10
194.000854
20
171.261545
70
0
0
VERTEX
8
Capa 1
10
195.210521
20
166.803945
70
0
0
VERTEX
8
Capa 1
10
196.200259
20
162.302891
70
0
0
VERTEX
8
Capa 1
10
196.970965
20
157.767341
70
0
0
VERTEX
8
Capa 1
10
197.523537
20
153.206257
70
0
0
VERTEX
8
Capa 1
10
197.858870
20
148.628597
70
0
0
VERTEX
8
Capa 1
10
197.977863
20
144.043320
70
0
0
VERTEX
8
Capa 1
10
197.881411
20
139.459388
70
0
0
VERTEX
8
Capa 1
10
197.570412
20
134.885758
70
0
0
VERTEX
8
Capa 1
10
197.045764
20
130.331391
70
0
0
VERTEX
8
Capa 1
10
196.308362
20
125.805247
70
0
0
VERTEX
8
Capa 1
10
195.359104
20
121.316285
70
0
0
VERTEX
8
Capa 1
10
194.198887
20
116.873465
70
0
0
VERTEX
8
Capa 1
10
192.828607
20
112.485746
70
0
0
VERTEX
8
Capa 1
10
191.249162
20
108.162088
70
0
0
VERTEX
8
Capa 1
10
189.461449
20
103.911450
70
0
0
VERTEX
8
Capa 1
10
187.466364
20
99.742793
70
0
0
VERTEX
8
Capa 1
10
185.264805
20
95.665076
70
0
0
VERTEX
8
Capa 1
10
182.857669
20
91.687258
70
0
0
VERTEX
8
Capa 1
10
180.245851
20
87.818299
70
0
0
VERTEX
8
Capa 1
10
177.430250
20
84.067160
70
0
0
VERTEX
8
Capa 1
10
174.411763
20
80.442798
70
0
0
VERTEX
8
Capa 1
10
171.191286
20
76.954174
70
0
0
VERTEX
8
Capa 1
10
167.769716
20
73.610249
70
0
0
VERTEX
8
Capa 1
10
164.147950
20
70.419980
70
0
0
VERTEX
8
Capa 1
10
160.323295
20
67.389428
70
0
0
VERTEX
8
Capa 1
10
156.382392
20
64.588198
70
0
0
VERTEX
8
Capa 1
10
152.334287
20
62.015384
70
0
0
VERTEX
8
Capa 1
10
148.188028
20
59.670082
70
0
0
VERTEX
8
Capa 1
10
143.952663
20
57.551386
70
0
0
VERTEX
8
Capa 1
10
139.637238
20
55.658390
70
0
0
VERTEX
8
Capa 1
10
135.250802
20
53.990190
70
0
0
VERTEX
8
Capa 1
10
130.802401
20
52.545879
70
0
0
VERTEX
8
Capa 1
10
126.301083
20
51.324553
70
0
0
VERTEX
8
Capa 1
10
121.755895
20
50.325305
70
0
0
VERTEX
8
Capa 1
10
117.175885
20
49.547232
70
0
0
VERTEX
8
Capa 1
10
112.570101
20
48.989426
70
0
0
VERTEX
8
Capa 1
10
107.947588
20
48.650984
70
0
0
VERTEX
8
Capa 1
10
103.317396
20
48.530999
70
0
0
VERTEX
8
Capa 1
10
98.688571
20
48.628566
70
0
0
VERTEX
8
Capa 1
10
94.070160
20
48.942780
70
0
0
VERTEX
8
Capa 1
10
89.471212
20
49.472735
70
0
0
VERTEX
8
Capa 1
10
84.900773
20
50.217526
70
0
0
VERTEX
8
Capa 1
10
80.367891
20
51.176248
70
0
0
VERTEX
8
Capa 1
10
75.881613
20
52.347995
70
0
0
VERTEX
8
Capa 1
10
71.450986
20
53.731862
70
0
0
VERTEX
8
Capa 1
10
67.085059
20
55.326944
70
0
0
VERTEX
8
Capa 1
10
62.792878
20
57.132334
70
0
0
VERTEX
8
Capa 1
10
58.583491
20
59.147128
70
0
0
VERTEX
8
Capa 1
10
54.465945
20
61.370421
70
0
0
VERTEX
8
Capa 1
10
50.449287
20
63.801306
70
0
0
VERTEX
8
Capa 1
10
46.542565
20
66.438879
70
0
0
VERTEX
8
Capa 1
10
42.754827
20
69.282235
70
0
0
VERTEX
8
Capa 1
10
39.095119
20
72.330467
70
0
0
VERTEX
8
Capa 1
10
35.572489
20
75.582670
70
0
0
VERTEX
8
Capa 1
10
32.195985
20
79.037940
70
0
0
VERTEX
8
Capa 1
10
28.974654
20
82.695370
70
0
0
VERTEX
8
Capa 1
10
25.914912
20
86.557293
70
0
0
VERTEX
8
Capa 1
10
23.086711
20
90.536583
70
0
0
VERTEX
8
Capa 1
10
20.489139
20
94.624105
70
0
0
VERTEX
8
Capa 1
10
18.121281
20
98.810722
70
0
0
VERTEX
8
Capa 1
10
15.982223
20
103.087301
70
0
0
VERTEX
8
Capa 1
10
14.071051
20
107.444706
70
0
0
VERTEX
8
Capa 1
10
12.386852
20
111.873802
70
0
0
VERTEX
8
Capa 1
10
10.928712
20
116.365453
70
0
0
VERTEX
8
Capa 1
10
9.695716
20
120.910525
70
0
0
VERTEX
8
Capa 1
10
8.686952
20
125.499881
70
0
0
VERTEX
8
Capa 1
10
7.901505
20
130.124387
70
0
0
VERTEX
8
Capa 1
10
7.338461
20
134.774908
70
0
0
VERTEX
8
Capa 1
10
6.996907
20
139.442309
70
0
0
VERTEX
8
Capa 1
10
6.875929
20
144.117454
70
0
0
VERTEX
8
Capa 1
10
6.974613
20
148.791207
70
0
0
VERTEX
8
Capa 1
10
7.292045
20
153.454435
70
0
0
VERTEX
8
Capa 1
10
7.827312
20
158.098001
70
0
0
VERTEX
8
Capa 1
10
8.579498
20
162.712770
70
0
0
VERTEX
8
Capa 1
10
9.547692
20
167.289608
70
0
0
VERTEX
8
Capa 1
10
10.730979
20
171.819378
70
0
0
VERTEX
8
Capa 1
10
12.128444
20
176.292947
70
0
0
VERTEX
8
Capa 1
10
13.739175
20
180.701177
70
0
0
VERTEX
8
Capa 1
10
15.562257
20
185.034935
70
0
0
VERTEX
8
Capa 1
10
17.596777
20
189.285085
70
0
0
VERTEX
8
Capa 1
10
19.841821
20
193.442492
70
0
0
VERTEX
8
Capa 1
10
22.296474
20
197.498021
70
0
0
VERTEX
8
Capa 1
10
24.959824
20
201.442536
70
0
0
VERTEX
8
Capa 1
10
27.830956
20
205.266903
70
0
0
VERTEX
8
Capa 1
10
30.908957
20
208.961985
70
0
0
VERTEX
8
Capa 1
10
34.192912
20
212.518648
70
0
0
VERTEX
8
Capa 1
10
37.681908
20
215.927757
70
0
0
VERTEX
8
Capa 1
10
41.375031
20
219.180176
70
0
0
VERTEX
8
Capa 1
10
45.274252
20
222.269130
70
0
0
VERTEX
8
Capa 1
10
49.291958
20
225.124321
70
0
0
VERTEX
8
Capa 1
10
53.418928
20
227.746672
70
0
0
VERTEX
8
Capa 1
10
57.645937
20
230.137104
70
0
0
VERTEX
8
Capa 1
10
61.963762
20
232.296540
70
0
0
VERTEX
8
Capa 1
10
66.363180
20
234.225901
70
0
0
VERTEX
8
Capa 1
10
70.834969
20
235.926112
70
0
0
VERTEX
8
Capa 1
10
75.369905
20
237.398092
70
0
0
VERTEX
8
Capa 1
10
79.958765
20
238.642766
70
0
0
VERTEX
8
Capa 1
10
84.592325
20
239.661055
70
0
0
VERTEX
8
Capa 1
10
89.261363
20
240.453881
70
0
0
VERTEX
8
Capa 1
10
93.956656
20
241.022167
70
0
0
VERTEX
8
Capa 1
10
98.668981
20
241.366835
70
0
0
VERTEX
8
Capa 1
10
103.389113
20
241.488807
70
0
0
VERTEX
8
Capa 1
10
108.107831
20
241.389005
70
0
0
VERTEX
8
Capa 1
10
112.815912
20
241.068353
70
0
0
VERTEX
8
Capa 1
10
117.504131
20
240.527771
70
0
0
VERTEX
8
Capa 1
10
122.163266
20
239.768182
70
0
0
VERTEX
8
Capa 1
10
126.784094
20
238.790509
70
0
0
VERTEX
8
Capa 1
10
131.357392
20
237.595674
70
0
0
VERTEX
8
Capa 1
10
135.873936
20
236.184599
70
0
0
VERTEX
8
Capa 1
10
140.324504
20
234.558206
70
0
0
VERTEX
8
Capa 1
10
144.699872
20
232.717418
70
0
0
VERTEX
8
Capa 1
10
148.990818
20
230.663157
70
0
0
VERTEX
8
Capa 1
10
153.188117
20
228.396344
70
0
0
VERTEX
8
Capa 1
10
157.282548
20
225.917903
70
0
0
VERTEX
8
Capa 1
10
161.264887
20
223.228756
70
0
0
VERTEX
8
Capa 1
10
165.125910
20
220.329825
70
0
0
VERTEX
8
Capa 1
10
168.856395
20
217.222032
70
0
0
VERTEX
8
Capa 1
10
172.447119
20
213.906299
70
0
0
VERTEX
8
Capa 1
10
175.888858
20
210.383549
70
0
0
VERTEX
8
Capa 1
10
179.172390
20
206.654704
70
0
0
VERTEX
8
Capa 1
10
182.290579
20
202.718156
70
0
0
VERTEX
8
Capa 1
10
185.172781
20
198.662002
70
0
0
VERTEX
8
Capa 1
10
187.819929
20
194.495554
70
0
0
VERTEX
8
Capa 1
10
190.232952
20
190.228122
70
0
0
VERTEX
8
Capa 1
10
192.412781
20
185.869018
70
0
0
VERTEX
8
Capa 1
10
194.360347
20
181.427553
70
0
0
VERTEX
8
Capa 1
10
196.076580
20
176.913038
70
0
0
VERTEX
8
Capa 1
10
197.562412
20
172.334783
70
0
0
VERTEX
8
Capa 1
10
198.818773
20
167.702101
70
0
0
VERTEX
8
Capa 1
10
199.846593
20
163.024302
70
0
0
VERTEX
8
Capa 1
10
200.646805
20
158.310696
70
0
0
VERTEX
8
Capa 1
10
201.220337
20
153.570597
70
0
0
VERTEX
8
Capa 1
10
201.568121
20
148.813313
70
0
0
VERTEX
8
Capa 1
10
201.691087
20
144.048157
70
0
0
VERTEX
8
Capa 1
10
201.590167
20
139.284439
70
0
0
VERTEX
8
Capa 1
10
201.266291
20
134.531471
70
0
0
VERTEX
8
Capa 1
10
200.720390
20
129.798564
70
0
0
VERTEX
8
Capa 1
10
199.953394
20
125.095028
70
0
0
VERTEX
8
Capa 1
10
198.966234
20
120.430176
70
0
0
VERTEX
8
Capa 1
10
197.759841
20
115.813317
70
0
0
VERTEX
8
Capa 1
10
196.335146
20
111.253763
70
0
0
VERTEX
8
Capa 1
10
194.693079
20
106.760825
70
0
0
VERTEX
8
Capa 1
10
192.834571
20
102.343815
70
0
0
VERTEX
8
Capa 1
10
190.760552
20
98.012042
70
0
0
VERTEX
8
Capa 1
10
188.471954
20
93.774819
70
0
0
VERTEX
8
Capa 1
10
185.969708
20
89.641457
70
0
0
VERTEX
8
Capa 1
10
183.254743
20
85.621265
70
0
0
VERTEX
8
Capa 1
10
180.327990
20
81.723557
70
0
0
VERTEX
8
Capa 1
10
177.190381
20
77.957642
70
0
0
VERTEX
8
Capa 1
10
173.842846
20
74.332832
70
0
0
VERTEX
8
Capa 1
10
170.286315
20
70.858437
70
0
0
VERTEX
8
Capa 1
10
166.521720
20
67.543770
70
0
0
VERTEX
8
Capa 1
10
162.547815
20
64.396323
70
0
0
VERTEX
8
Capa 1
10
158.453184
20
61.487086
70
0
0
VERTEX
8
Capa 1
10
154.247226
20
58.815121
70
0
0
VERTEX
8
Capa 1
10
149.939339
20
56.379489
70
0
0
VERTEX
8
Capa 1
10
145.538924
20
54.179250
70
0
0
VERTEX
8
Capa 1
10
141.055380
20
52.213465
70
0
0
VERTEX
8
Capa 1
10
136.498104
20
50.481195
70
0
0
VERTEX
8
Capa 1
10
131.876497
20
48.981501
70
0
0
VERTEX
8
Capa 1
10
127.199958
20
47.713444
70
0
0
VERTEX
8
Capa 1
10
122.477885
20
46.676084
70
0
0
VERTEX
8
Capa 1
10
117.719678
20
45.868482
70
0
0
VERTEX
8
Capa 1
10
112.934736
20
45.289700
70
0
0
VERTEX
8
Capa 1
10
108.132458
20
44.938797
70
0
0
VERTEX
8
Capa 1
10
103.322244
20
44.814835
70
0
0
VERTEX
8
Capa 1
10
98.513491
20
44.916875
70
0
0
VERTEX
8
Capa 1
10
93.715600
20
45.243977
70
0
0
VERTEX
8
Capa 1
10
88.937970
20
45.795203
70
0
0
VERTEX
8
Capa 1
10
84.189999
20
46.569613
70
0
0
VERTEX
8
Capa 1
10
79.481087
20
47.566267
70
0
0
VERTEX
8
Capa 1
10
74.820632
20
48.784228
70
0
0
VERTEX
8
Capa 1
10
70.218035
20
50.222554
70
0
0
VERTEX
8
Capa 1
10
65.682694
20
51.880309
70
0
0
VERTEX
8
Capa 1
10
61.224008
20
53.756551
70
0
0
VERTEX
8
Capa 1
10
56.851376
20
55.850343
70
0
0
VERTEX
8
Capa 1
10
52.574198
20
58.160744
70
0
0
VERTEX
8
Capa 1
10
48.401872
20
60.686816
70
0
0
VERTEX
8
Capa 1
10
44.343798
20
63.427620
70
0
0
VERTEX
8
Capa 1
10
40.409375
20
66.382216
70
0
0
VERTEX
8
Capa 1
10
36.608002
20
69.549665
70
0
0
VERTEX
8
Capa 1
10
32.949077
20
72.929028
70
0
0
VERTEX
8
Capa 1
10
29.442001
20
76.519366
70
0
0
VERTEX
8
Capa 1
10
26.096172
20
80.319740
70
0
0
VERTEX
8
Capa 1
10
22.919445
20
84.331029
70
0
0
VERTEX
8
Capa 1
10
19.983155
20
88.464167
70
0
0
VERTEX
8
Capa 1
10
17.286355
20
92.709665
70
0
0
VERTEX
8
Capa 1
10
14.828097
20
97.058036
70
0
0
VERTEX
8
Capa 1
10
12.607433
20
101.499793
70
0
0
VERTEX
8
Capa 1
10
10.623416
20
106.025450
70
0
0
VERTEX
8
Capa 1
10
8.875098
20
110.625518
70
0
0
VERTEX
8
Capa 1
10
7.361532
20
115.290511
70
0
0
VERTEX
8
Capa 1
10
6.081770
20
120.010941
70
0
0
VERTEX
8
Capa 1
10
5.034864
20
124.777321
70
0
0
VERTEX
8
Capa 1
10
4.219866
20
129.580164
70
0
0
VERTEX
8
Capa 1
10
3.635829
20
134.409982
70
0
0
VERTEX
8
Capa 1
10
3.281806
20
139.257289
70
0
0
VERTEX
8
Capa 1
10
3.156849
20
144.112597
70
0
0
VERTEX
8
Capa 1
10
3.260009
20
148.966419
70
0
0
VERTEX
8
Capa 1
10
3.590340
20
153.809267
70
0
0
VERTEX
8
Capa 1
10
4.146894
20
158.631656
70
0
0
VERTEX
8
Capa 1
10
4.928723
20
163.424096
70
0
0
VERTEX
8
Capa 1
10
5.934879
20
168.177101
70
0
0
VERTEX
8
Capa 1
10
7.164415
20
172.881185
70
0
0
VERTEX
8
Capa 1
10
8.616384
20
177.526859
70
0
0
VERTEX
8
Capa 1
10
10.289837
20
182.104636
70
0
0
VERTEX
8
Capa 1
10
12.183827
20
186.605029
70
0
0
VERTEX
8
Capa 1
10
14.297407
20
191.018552
70
0
0
VERTEX
8
Capa 1
10
16.629628
20
195.335716
70
0
0
VERTEX
8
Capa 1
10
19.179543
20
199.547034
70
0
0
VERTEX
8
Capa 1
10
21.946205
20
203.643020
70
0
0
VERTEX
8
Capa 1
10
24.928666
20
207.614186
70
0
0
VERTEX
8
Capa 1
10
28.125978
20
211.451044
70
0
0
VERTEX
8
Capa 1
10
31.537193
20
215.144109
70
0
0
VERTEX
8
Capa 1
10
35.161364
20
218.683891
70
0
0
VERTEX
8
Capa 1
10
38.997544
20
222.060905
70
0
0
VERTEX
8
Capa 1
10
43.046248
20
225.266935
70
0
0
VERTEX
8
Capa 1
10
47.217923
20
228.230299
70
0
0
VERTEX
8
Capa 1
10
51.502992
20
230.951954
70
0
0
VERTEX
8
Capa 1
10
55.891881
20
233.432855
70
0
0
VERTEX
8
Capa 1
10
60.375014
20
235.673959
70
0
0
VERTEX
8
Capa 1
10
64.942815
20
237.676222
70
0
0
VERTEX
8
Capa 1
10
69.585710
20
239.440600
70
0
0
VERTEX
8
Capa 1
10
74.294122
20
240.968050
70
0
0
VERTEX
8
Capa 1
10
79.058477
20
242.259526
70
0
0
VERTEX
8
Capa 1
10
83.869199
20
243.315986
70
0
0
VERTEX
8
Capa 1
10
88.716712
20
244.138385
70
0
0
VERTEX
8
Capa 1
10
93.591442
20
244.727680
70
0
0
VERTEX
8
Capa 1
10
98.483813
20
245.084826
70
0
0
VERTEX
8
Capa 1
10
103.384249
20
245.210780
70
0
0
VERTEX
8
Capa 1
10
108.283175
20
245.106498
70
0
0
VERTEX
8
Capa 1
10
113.171016
20
244.772936
70
0
0
VERTEX
8
Capa 1
10
118.038196
20
244.211050
70
0
0
VERTEX
8
Capa 1
10
122.875140
20
243.421796
70
0
0
VERTEX
8
Capa 1
10
127.672273
20
242.406130
70
0
0
VERTEX
8
Capa 1
10
132.420019
20
241.165008
70
0
0
VERTEX
8
Capa 1
10
137.108802
20
239.699387
70
0
0
VERTEX
8
Capa 1
10
141.729048
20
238.010223
70
0
0
VERTEX
8
Capa 1
10
146.271181
20
236.098471
70
0
0
VERTEX
8
Capa 1
10
150.725625
20
233.965088
70
0
0
VERTEX
8
Capa 1
10
155.082806
20
231.611030
70
0
0
VERTEX
8
Capa 1
10
159.333147
20
229.037253
70
0
0
VERTEX
8
Capa 1
10
163.467074
20
226.244713
70
0
0
VERTEX
8
Capa 1
10
167.475011
20
223.234366
70
0
0
VERTEX
8
Capa 1
10
171.347382
20
220.007168
70
0
0
VERTEX
8
Capa 1
10
175.074613
20
216.564076
70
0
0
VERTEX
8
Capa 1
10
178.647127
20
212.906045
70
0
0
VERTEX
8
Capa 1
10
182.055350
20
209.034032
70
0
0
VERTEX
8
Capa 1
10
185.290704
20
204.947885
70
0
0
VERTEX
8
Capa 1
10
188.281162
20
200.737644
70
0
0
VERTEX
8
Capa 1
10
191.027690
20
196.412973
70
0
0
VERTEX
8
Capa 1
10
193.531252
20
191.983536
70
0
0
VERTEX
8
Capa 1
10
195.792811
20
187.458997
70
0
0
VERTEX
8
Capa 1
10
197.813334
20
182.849019
70
0
0
VERTEX
8
Capa 1
10
199.593785
20
178.163266
70
0
0
VERTEX
8
Capa 1
10
201.135127
20
173.411401
70
0
0
VERTEX
8
Capa 1
10
202.438326
20
168.603088
70
0
0
VERTEX
8
Capa 1
10
203.504346
20
163.747990
70
0
0
VERTEX
8
Capa 1
10
204.334152
20
158.855772
70
0
0
VERTEX
8
Capa 1
10
204.928709
20
153.936097
70
0
0
VERTEX
8
Capa 1
10
205.288980
20
148.998628
70
0
0
VERTEX
8
Capa 1
10
205.415931
20
144.053030
70
0
0
VERTEX
8
Capa 1
10
205.310526
20
139.108965
70
0
0
VERTEX
8
Capa 1
10
204.973730
20
134.176098
70
0
0
VERTEX
8
Capa 1
10
204.406507
20
129.264092
70
0
0
VERTEX
8
Capa 1
10
203.609822
20
124.382611
70
0
0
VERTEX
8
Capa 1
10
202.584639
20
119.541318
70
0
0
VERTEX
8
Capa 1
10
201.331924
20
114.749876
70
0
0
VERTEX
8
Capa 1
10
199.852640
20
110.017951
70
0
0
VERTEX
8
Capa 1
10
198.147752
20
105.355205
70
0
0
VERTEX
8
Capa 1
10
196.218225
20
100.771301
70
0
0
VERTEX
8
Capa 1
10
194.065023
20
96.275905
70
0
0
VERTEX
8
Capa 1
10
191.689111
20
91.878678
70
0
0
VERTEX
8
Capa 1
10
189.091454
20
87.589285
70
0
0
VERTEX
8
Capa 1
10
186.273016
20
83.417389
70
0
0
VERTEX
8
Capa 1
10
183.234761
20
79.372655
70
0
0
VERTEX
8
Capa 1
10
179.977654
20
75.464745
70
0
0
VERTEX
8
Capa 1
10
176.502661
20
71.703324
70
0
0
VERTEX
8
Capa 1
10
172.810744
20
68.098054
70
0
0
VERTEX
8
Capa 1
10
168.902870
20
64.658600
70
0
0
VERTEX
8
Capa 1
10
163.805133
20
60.667375
70
0
0
VERTEX
8
Capa 1
10
158.467250
20
57.004445
70
0
0
VERTEX
8
Capa 1
10
152.910337
20
53.683170
70
0
0
VERTEX
8
Capa 1
10
147.155510
20
50.716910
70
0
0
SEQEND
8
Capa 1
 0 
ENDSEC
 0 
EOF