  0
SECTION
  2
HEADER
  9
$ACADVER
  1
AC1009
  9
$DWGCODEPAGE
  3
ansi_1252
  9
$INSBASE
 10
0.0
 20
0.0
 30
0.0
  9
$EXTMIN
 10
-26.3
 20
-8.3
 30
0.0
  9
$EXTMAX
 10
26.3
 20
8.100000000000001
 30
0.0
  9
$LIMMIN
 10
0.0
 20
0.0
  9
$LIMMAX
 10
12.0
 20
9.0
  9
$ORTHOMODE
 70
     0
  9
$REGENMODE
 70
     1
  9
$FILLMODE
 70
     1
  9
$QTEXTMODE
 70
     0
  9
$MIRRTEXT
 70
     1
  9
$DRAGMODE
 70
     2
  9
$LTSCALE
 40
1.0
  9
$OSMODE
 70
    37
  9
$ATTMODE
 70
     1
  9
$TEXTSIZE
 40
0.2
  9
$TRACEWID
 40
0.05
  9
$TEXTSTYLE
  7
STANDARD
  9
$CLAYER
  8
0
  9
$CELTYPE
  6
BYLAYER
  9
$CECOLOR
 62
   256
  9
$DIMSCALE
 40
1.0
  9
$DIMASZ
 40
0.18
  9
$DIMEXO
 40
0.0625
  9
$DIMDLI
 40
0.38
  9
$DIMRND
 40
0.0
  9
$DIMDLE
 40
0.0
  9
$DIMEXE
 40
0.18
  9
$DIMTP
 40
0.0
  9
$DIMTM
 40
0.0
  9
$DIMTXT
 40
0.18
  9
$DIMCEN
 40
0.09
  9
$DIMTSZ
 40
0.0
  9
$DIMTOL
 70
     0
  9
$DIMLIM
 70
     0
  9
$DIMTIH
 70
     1
  9
$DIMTOH
 70
     1
  9
$DIMSE1
 70
     0
  9
$DIMSE2
 70
     0
  9
$DIMTAD
 70
     0
  9
$DIMZIN
 70
     0
  9
$DIMBLK
  1

  9
$DIMASO
 70
     1
  9
$DIMSHO
 70
     1
  9
$DIMPOST
  1

  9
$DIMAPOST
  1

  9
$DIMALT
 70
     0
  9
$DIMALTD
 70
     2
  9
$DIMALTF
 40
25.4
  9
$DIMLFAC
 40
1.0
  9
$DIMTOFL
 70
     0
  9
$DIMTVP
 40
0.0
  9
$DIMTIX
 70
     0
  9
$DIMSOXD
 70
     0
  9
$DIMSAH
 70
     0
  9
$DIMBLK1
  1

  9
$DIMBLK2
  1

  9
$DIMSTYLE
  2
STANDARD
  9
$DIMCLRD
 70
     0
  9
$DIMCLRE
 70
     0
  9
$DIMCLRT
 70
     0
  9
$DIMTFAC
 40
1.0
  9
$DIMGAP
 40
0.09
  9
$LUNITS
 70
     2
  9
$LUPREC
 70
     4
  9
$SKETCHINC
 40
0.1
  9
$FILLETRAD
 40
0.0
  9
$AUNITS
 70
     0
  9
$AUPREC
 70
     0
  9
$MENU
  1
.
  9
$ELEVATION
 40
0.0
  9
$PELEVATION
 40
0.0
  9
$THICKNESS
 40
0.0
  9
$LIMCHECK
 70
     0
  9
$CHAMFERA
 40
0.0
  9
$CHAMFERB
 40
0.0
  9
$SKPOLY
 70
     0
  9
$TDCREATE
 40
2461103.6937436
  9
$TDUPDATE
 40
2461103.693743773
  9
$TDINDWG
 40
0.0000000116
  9
$TDUSRTIMER
 40
0.0000000116
  9
$USRTIMER
 70
     1
  9
$ANGBASE
 50
0.0
  9
$ANGDIR
 70
     0
  9
$PDMODE
 70
     0
  9
$PDSIZE
 40
0.0
  9
$PLINEWID
 40
0.0
  9
$COORDS
 70
     1
  9
$SPLFRAME
 70
     0
  9
$SPLINETYPE
 70
     6
  9
$SPLINESEGS
 70
     8
  9
$ATTDIA
 70
     0
  9
$ATTREQ
 70
     1
  9
$HANDLING
 70
     1
  9
$HANDSEED
  5
98C
  9
$SURFTAB1
 70
     6
  9
$SURFTAB2
 70
     6
  9
$SURFTYPE
 70
     6
  9
$SURFU
 70
     6
  9
$SURFV
 70
     6
  9
$UCSNAME
  2

  9
$UCSORG
 10
0.0
 20
0.0
 30
0.0
  9
$UCSXDIR
 10
1.0
 20
0.0
 30
0.0
  9
$UCSYDIR
 10
0.0
 20
1.0
 30
0.0
  9
$PUCSNAME
  2

  9
$PUCSORG
 10
0.0
 20
0.0
 30
0.0
  9
$PUCSXDIR
 10
1.0
 20
0.0
 30
0.0
  9
$PUCSYDIR
 10
0.0
 20
1.0
 30
0.0
  9
$USERI1
 70
     0
  9
$USERI2
 70
     0
  9
$USERI3
 70
     0
  9
$USERI4
 70
     0
  9
$USERI5
 70
     0
  9
$USERR1
 40
0.0
  9
$USERR2
 40
0.0
  9
$USERR3
 40
0.0
  9
$USERR4
 40
0.0
  9
$USERR5
 40
0.0
  9
$WORLDVIEW
 70
     1
  9
$SHADEDGE
 70
     3
  9
$SHADEDIF
 70
    70
  9
$TILEMODE
 70
     1
  9
$MAXACTVP
 70
    64
  9
$PLIMCHECK
 70
     0
  9
$PEXTMIN
 10
1.000000000000000E+20
 20
1.000000000000000E+20
 30
1.000000000000000E+20
  9
$PEXTMAX
 10
-1.000000000000000E+20
 20
-1.000000000000000E+20
 30
-1.000000000000000E+20
  9
$PLIMMIN
 10
-0.25
 20
-0.25
  9
$PLIMMAX
 10
10.75
 20
8.25
  9
$UNITMODE
 70
     0
  9
$VISRETAIN
 70
     1
  9
$PLINEGEN
 70
     0
  9
$PSLTSCALE
 70
     1
  0
ENDSEC
  0
SECTION
  2
TABLES
  0
TABLE
  2
VPORT
 70
     1
  0
VPORT
  2
*ACTIVE
 70
     0
 10
0.0
 20
0.0
 11
1.0
 21
1.0
 12
-9.490303900318144
 22
-5.471868020773904
 13
0.0
 23
0.0
 14
0.5
 24
0.5
 15
0.5
 25
0.5
 16
0.0
 26
0.0
 36
1.0
 17
0.0
 27
0.0
 37
0.0
 40
4.769582579360618
 41
1.801324503311258
 42
50.0
 43
0.0
 44
0.0
 50
0.0
 51
0.0
 71
     0
 72
   100
 73
     1
 74
     3
 75
     0
 76
     0
 77
     0
 78
     0
  0
ENDTAB
  0
TABLE
  2
LTYPE
 70
    51
  0
LTYPE
  2
CONTINUOUS
 70
     0
  3
Solid line
 72
    65
 73
     0
 40
0.0
  0
LTYPE
  2
DASHED
 70
     0
  3
Dashed __ __ __ __ __ __ __ __ __ __ __ __ __ _
 72
    65
 73
     2
 40
19.05
 49
12.7
 49
-6.35
  0
LTYPE
  2
DASHEDX2
 70
     0
  3
Dashed (2x) ____  ____  ____  ____  ____  ___
 72
    65
 73
     2
 40
38.09999999999999
 49
25.4
 49
-12.7
  0
LTYPE
  2
ACAD_ISO03W100
 70
     0
  3
ISO dash space __    __    __    __    __    __
 72
    65
 73
     2
 40
30.0
 49
12.0
 49
-18.0
  0
LTYPE
  2
ACAD_ISO07W100
 70
     0
  3
ISO dot . . . . . . . . . . . . . . . . . . . . 
 72
    65
 73
     2
 40
3.0
 49
0.0
 49
-3.0
  0
LTYPE
  2
HIDDENX2
 70
     0
  3
Hidden (2x) ____ ____ ____ ____ ____ ____ ____ 
 72
    65
 73
     2
 40
19.05
 49
12.7
 49
-6.35
  0
LTYPE
  2
PHANTOM
 70
     0
  3
Phantom ______  __  __  ______  __  __  ______ 
 72
    65
 73
     6
 40
63.50000000000001
 49
31.75
 49
-6.35
 49
6.35
 49
-6.35
 49
6.35
 49
-6.35
  0
LTYPE
  2
ACAD_ISO10W100
 70
     0
  3
ISO dash dot __ . __ . __ . __ . __ . __ . __ . 
 72
    65
 73
     4
 40
18.0
 49
12.0
 49
-3.0
 49
0.0
 49
-3.0
  0
LTYPE
  2
ACAD_ISO02W100
 70
     0
  3
ISO dash __ __ __ __ __ __ __ __ __ __ __ __ __
 72
    65
 73
     2
 40
15.0
 49
12.0
 49
-3.0
  0
LTYPE
  2
ACAD_ISO11W100
 70
     0
  3
ISO double-dash dot __ __ . __ __ . __ __ . __ _
 72
    65
 73
     6
 40
33.0
 49
12.0
 49
-3.0
 49
12.0
 49
-3.0
 49
0.0
 49
-3.0
  0
LTYPE
  2
DIVIDE
 70
     0
  3
Divide ____ . . ____ . . ____ . . ____ . . ____
 72
    65
 73
     6
 40
31.75
 49
12.7
 49
-6.35
 49
0.0
 49
-6.35
 49
0.0
 49
-6.35
  0
LTYPE
  2
BORDER2
 70
     0
  3
Border (.5x) __.__.__.__.__.__.__.__.__.__.__.
 72
    65
 73
     6
 40
22.225
 49
6.35
 49
-3.175
 49
6.35
 49
-3.175
 49
0.0
 49
-3.175
  0
LTYPE
  2
ACAD_ISO06W100
 70
     0
  3
ISO long-dash triple-dot ____ ... ____ ... ____
 72
    65
 73
     8
 40
36.0
 49
24.0
 49
-3.0
 49
0.0
 49
-3.0
 49
0.0
 49
-3.0
 49
0.0
 49
-3.0
  0
LTYPE
  2
PLANT
 70
     0
  3
_/^ \_\^ \_
 72
    65
 73
     7
 40
21.94
 49
0.01
 49
-3.0
 49
-3.15
 49
-4.23
 49
-4.63
 49
-2.5
 49
-4.42
  0
LTYPE
  2
FENCELINE1
 70
     0
  3
Fenceline circle ----0-----0----0-----0----0-----0--
 72
    65
 73
     4
 40
36.83
 49
6.35
 49
-2.54
 49
-2.54
 49
25.4
  0
LTYPE
  2
DOTX2
 70
     0
  3
Dot (2x) .  .  .  .  .  .  .  .  .  .  .  .  .  .
 72
    65
 73
     2
 40
12.7
 49
0.0
 49
-12.7
  0
LTYPE
  2
GAS_LINE
 70
     0
  3
Gas line ----GAS----GAS----GAS----GAS----GAS----GAS--
 72
    65
 73
     3
 40
24.13
 49
12.7
 49
-5.08
 49
-6.35
  0
LTYPE
  2
DASHDOTX2
 70
     0
  3
Dash dot (2x) ____  .  ____  .  ____  .  ___
 72
    65
 73
     4
 40
50.8
 49
25.4
 49
-12.7
 49
0.0
 49
-12.7
  0
LTYPE
  2
DRAINAGE
 70
     0
  3
Drainage ---->---->---->----
 72
    65
 73
     2
 40
10.16
 49
5.08
 49
5.08
  0
LTYPE
  2
PHANTOMX2
 70
     0
  3
Phantom (2x) ____________    ____    ____   _
 72
    65
 73
     6
 40
127.0
 49
63.5
 49
-12.7
 49
12.7
 49
-12.7
 49
12.7
 49
-12.7
  0
LTYPE
  2
POINT1
 70
     0
  3
----/\-----/\---
 72
    65
 73
     2
 40
31.26232
 49
25.4
 49
-5.86232
  0
LTYPE
  2
CENTER
 70
     0
  3
Center ____ _ ____ _ ____ _ ____ _ ____ _ ____
 72
    65
 73
     4
 40
50.8
 49
31.75
 49
-6.35
 49
6.35
 49
-6.35
  0
LTYPE
  2
DOT
 70
     0
  3
Dot . . . . . . . . . . . . . . . . . . . . . . . .
 72
    65
 73
     2
 40
6.35
 49
0.0
 49
-6.35
  0
LTYPE
  2
CENTERX2
 70
     0
  3
Center (2x) ________  __  ________  __  _____
 72
    65
 73
     4
 40
101.6
 49
63.5
 49
-12.7
 49
12.7
 49
-12.7
  0
LTYPE
  2
ACAD_ISO05W100
 70
     0
  3
ISO long-dash double-dot ____ .. ____ .. ____ . 
 72
    65
 73
     6
 40
33.0
 49
24.0
 49
-3.0
 49
0.0
 49
-3.0
 49
0.0
 49
-3.0
  0
LTYPE
  2
DASHED2
 70
     0
  3
Dashed (.5x) _ _ _ _ _ _ _ _ _ _ _ _ _ _ _ _ _ 
 72
    65
 73
     2
 40
9.524999999999999
 49
6.35
 49
-3.175
  0
LTYPE
  2
HIDDEN2
 70
     0
  3
Hidden (.5x) _ _ _ _ _ _ _ _ _ _ _ _ _ _ _ _ _ 
 72
    65
 73
     2
 40
4.762499999999999
 49
3.175
 49
-1.5875
  0
LTYPE
  2
DIVIDEX2
 70
     0
  3
Divide (2x) ________  .  .  ________  .  .  _
 72
    65
 73
     6
 40
63.5
 49
25.4
 49
-12.7
 49
0.0
 49
-12.7
 49
0.0
 49
-12.7
  0
LTYPE
  2
ACAD_ISO15W100
 70
     0
  3
ISO double-dash triple-dot __ __ . . . __ __ . .
 72
    65
 73
    10
 40
39.0
 49
12.0
 49
-3.0
 49
12.0
 49
-3.0
 49
0.0
 49
-3.0
 49
0.0
 49
-3.0
 49
0.0
 49
-3.0
  0
LTYPE
  2
ACAD_ISO04W100
 70
     0
  3
ISO long-dash dot ____ . ____ . ____ . ____ . _
 72
    65
 73
     4
 40
30.0
 49
24.0
 49
-3.0
 49
0.0
 49
-3.0
  0
LTYPE
  2
DASHDOT
 70
     0
  3
Dash dot __ . __ . __ . __ . __ . __ . __ . __
 72
    65
 73
     4
 40
25.4
 49
12.7
 49
-6.35
 49
0.0
 49
-6.35
  0
LTYPE
  2
ACAD_ISO09W100
 70
     0
  3
ISO long-dash double-short-dash ____ __ __ ____
 72
    65
 73
     6
 40
45.0
 49
24.0
 49
-3.0
 49
6.0
 49
-3.0
 49
6.0
 49
-3.0
  0
LTYPE
  2
ACAD_ISO14W100
 70
     0
  3
ISO dash triple-dot __ . . . __ . . . __ . . . _
 72
    65
 73
     8
 40
24.0
 49
12.0
 49
-3.0
 49
0.0
 49
-3.0
 49
0.0
 49
-3.0
 49
0.0
 49
-3.0
  0
LTYPE
  2
FENCELINE2
 70
     0
  3
Fenceline square ----[]-----[]----[]-----[]----[]---
 72
    65
 73
     4
 40
36.83
 49
6.35
 49
-2.54
 49
-2.54
 49
25.4
  0
LTYPE
  2
ACAD_ISO12W100
 70
     0
  3
ISO dash double-dot __ . . __ . . __ . . __ . . 
 72
    65
 73
     6
 40
21.0
 49
12.0
 49
-3.0
 49
0.0
 49
-3.0
 49
0.0
 49
-3.0
  0
LTYPE
  2
HIDDEN
 70
     0
  3
Hidden __ __ __ __ __ __ __ __ __ __ __ __ __ __
 72
    65
 73
     2
 40
9.524999999999999
 49
6.35
 49
-3.175
  0
LTYPE
  2
BATTING
 70
     0
  3
Batting SSSSSSSSSSSSSSSSSSSSSSSSSSSSSSSSSSSSSSSSSSSSSSS
 72
    65
 73
     4
 40
10.16254
 49
0.00254
 49
-2.54
 49
-5.08
 49
-2.54
  0
LTYPE
  2
BORDERX2
 70
     0
  3
Border (2x) ____  ____  .  ____  ____  .  ___
 72
    65
 73
     6
 40
88.89999999999999
 49
25.4
 49
-12.7
 49
25.4
 49
-12.7
 49
0.0
 49
-12.7
  0
LTYPE
  2
DOT2
 70
     0
  3
Dot (.5x) ........................................
 72
    65
 73
     2
 40
3.175
 49
0.0
 49
-3.175
  0
LTYPE
  2
PHANTOM2
 70
     0
  3
Phantom (.5x) ___ _ _ ___ _ _ ___ _ _ ___ _ _
 72
    65
 73
     6
 40
31.75
 49
15.875
 49
-3.175
 49
3.175
 49
-3.175
 49
3.175
 49
-3.175
  0
LTYPE
  2
ACAD_ISO08W100
 70
     0
  3
ISO long-dash short-dash ____ __ ____ __ ____ _
 72
    65
 73
     4
 40
36.0
 49
24.0
 49
-3.0
 49
6.0
 49
-3.0
  0
LTYPE
  2
CENTER2
 70
     0
  3
Center (.5x) ___ _ ___ _ ___ _ ___ _ ___ _ ___
 72
    65
 73
     4
 40
28.575
 49
19.05
 49
-3.175
 49
3.175
 49
-3.175
  0
LTYPE
  2
POINT2
 70
     0
  3
----\/-----\/---
 72
    65
 73
     2
 40
31.26232
 49
25.4
 49
-5.86232
  0
LTYPE
  2
DASHDOT2
 70
     0
  3
Dash dot (.5x) _._._._._._._._._._._._._._._.
 72
    65
 73
     4
 40
12.7
 49
6.35
 49
-3.175
 49
0.0
 49
-3.175
  0
LTYPE
  2
DRAINAGE2
 70
     0
  3
Drainage reversed----<----<----<----
 72
    65
 73
     2
 40
10.16
 49
5.08
 49
5.08
  0
LTYPE
  2
TRACKS
 70
     0
  3
Tracks -|-|-|-|-|-|-|-|-|-|-|-|-|-|-|-|-|-|-|-|-|-|-|-|-
 72
    65
 73
     2
 40
7.62
 49
3.81
 49
3.81
  0
LTYPE
  2
ZIGZAG
 70
     0
  3
Zig zag /\/\/\/\/\/\/\/\/\/\/\/\/\/\/\/\/\/\/\/\/\/\/\/
 72
    65
 73
     4
 40
20.32254
 49
0.00254
 49
-5.08
 49
-10.16
 49
-5.08
  0
LTYPE
  2
BORDER
 70
     0
  3
Border __ __ . __ __ . __ __ . __ __ . __ __ .
 72
    65
 73
     6
 40
44.45
 49
12.7
 49
-6.35
 49
12.7
 49
-6.35
 49
0.0
 49
-6.35
  0
LTYPE
  2
HOT_WATER_SUPPLY
 70
     0
  3
Hot water supply ---- HW ---- HW ---- HW ----
 72
    65
 73
     3
 40
22.86
 49
12.7
 49
-5.08
 49
-5.08
  0
LTYPE
  2
ACAD_ISO13W100
 70
     0
  3
ISO double-dash double-dot __ __ . . __ __ . . _
 72
    65
 73
     8
 40
36.0
 49
12.0
 49
-3.0
 49
12.0
 49
-3.0
 49
0.0
 49
-3.0
 49
0.0
 49
-3.0
  0
LTYPE
  2
DIVIDE2
 70
     0
  3
Divide (.5x) __..__..__..__..__..__..__..__.._
 72
    65
 73
     6
 40
15.875
 49
6.35
 49
-3.175
 49
0.0
 49
-3.175
 49
0.0
 49
-3.175
  0
ENDTAB
  0
TABLE
  2
LAYER
 70
     1
  0
LAYER
  2
0
 70
     0
 62
     7
  6
CONTINUOUS
  0
ENDTAB
  0
TABLE
  2
STYLE
 70
     5
  0
STYLE
  2
STANDARD
 70
     0
 40
0.0
 41
1.0
 50
0.0
 71
     0
 42
0.2
  3
txt
  4

  0
STYLE
  2
QCADDIMTEXTSTYLE
 70
     0
 40
0.0
 41
1.0
 50
0.0
 71
     0
 42
0.2
  3

  4

  0
STYLE
  2
TEXTSTYLE0
 70
     0
 40
0.0
 41
1.0
 50
0.0
 71
     0
 42
0.2
  3
ltypeshp.shx
  4

  0
STYLE
  2
TEXTSTYLE1
 70
     0
 40
0.0
 41
1.0
 50
0.0
 71
     0
 42
0.2
  3
STANDARD
  4

  0
STYLE
  2
TEXTSTYLE2
 70
     0
 40
0.0
 41
1.0
 50
0.0
 71
     0
 42
0.2
  3
qcadshp.shx
  4

  0
ENDTAB
  0
TABLE
  2
VIEW
 70
     0
  0
ENDTAB
  0
TABLE
  2
UCS
 70
     0
  0
ENDTAB
  0
TABLE
  2
APPID
 70
     2
  0
APPID
  2
ACAD
 70
     0
  0
APPID
  2
QCAD
 70
     0
  0
ENDTAB
  0
TABLE
  2
DIMSTYLE
 70
     2
  0
DIMSTYLE
  2
STANDARD
 70
     0
  3

  4

  5

  6

  7

 40
1.0
 41
0.18
 42
0.0625
 43
0.38
 44
0.18
 45
0.0
 46
0.0
 47
0.0
 48
0.0
140
0.18
141
0.09
142
0.0
143
25.4
144
1.0
145
0.0
146
1.0
147
0.09
 71
     0
 72
     0
 73
     1
 74
     1
 75
     0
 76
     0
 77
     0
 78
     0
170
     0
171
     2
172
     0
173
     0
174
     0
175
     0
176
     0
177
     0
178
     0
  0
DIMSTYLE
  2
QCADDIMSTYLE
 70
     0
  3

  4

  5

  6

  7

 40
1.0
 41
0.18
 42
0.0625
 43
0.38
 44
0.18
 45
0.0
 46
0.0
 47
0.0
 48
0.0
140
0.18
141
0.09
142
0.0
143
25.4
144
1.0
145
0.0
146
1.0
147
0.09
 71
     0
 72
     0
 73
     1
 74
     1
 75
     0
 76
     0
 77
     0
 78
     0
170
     0
171
     2
172
     0
173
     0
174
     0
175
     0
176
     0
177
     0
178
     0
  0
ENDTAB
  0
ENDSEC
  0
SECTION
  2
BLOCKS
  0
BLOCK
  8
0
  2
$MODEL_SPACE
 70
     0
 10
0.0
 20
0.0
 30
0.0
  3
$MODEL_SPACE
  1

  0
ENDBLK
  5
60
  8
0
  0
BLOCK
 67
     1
  8
0
  2
$PAPER_SPACE
 70
     0
 10
0.0
 20
0.0
 30
0.0
  3
$PAPER_SPACE
  1

  0
ENDBLK
  5
5C
 67
     1
  8
0
  0
ENDSEC
  0
SECTION
  2
ENTITIES
  0
POLYLINE
  5
22
  8
0
 66
     1
 10
0.0
 20
0.0
 30
0.0
  0
VERTEX
  5
116
  8
0
 10
0.5
 20
0.0
 30
0.0
  0
VERTEX
  5
117
  8
0
 10
0.509166
 20
0.044546
 30
0.0
  0
VERTEX
  5
118
  8
0
 10
0.514288
 20
0.090683
 30
0.0
  0
VERTEX
  5
119
  8
0
 10
0.51516
 20
0.138037
 30
0.0
  0
VERTEX
  5
11A
  8
0
 10
0.51161
 20
0.186211
 30
0.0
  0
VERTEX
  5
11B
  8
0
 10
0.503504
 20
0.234788
 30
0.0
  0
VERTEX
  5
11C
  8
0
 10
0.490748
 20
0.283333
 30
0.0
  0
VERTEX
  5
11D
  8
0
 10
0.473288
 20
0.3314
 30
0.0
  0
VERTEX
  5
11E
  8
0
 10
0.451115
 20
0.37853
 30
0.0
  0
VERTEX
  5
11F
  8
0
 10
0.424264
 20
0.424264
 30
0.0
  0
VERTEX
  5
120
  8
0
 10
0.392815
 20
0.468138
 30
0.0
  0
VERTEX
  5
121
  8
0
 10
0.356892
 20
0.509695
 30
0.0
  0
VERTEX
  5
122
  8
0
 10
0.316667
 20
0.548483
 30
0.0
  0
VERTEX
  5
123
  8
0
 10
0.272354
 20
0.584065
 30
0.0
  0
VERTEX
  5
124
  8
0
 10
0.224213
 20
0.616021
 30
0.0
  0
VERTEX
  5
125
  8
0
 10
0.172546
 20
0.643951
 30
0.0
  0
VERTEX
  5
126
  8
0
 10
0.117695
 20
0.667481
 30
0.0
  0
VERTEX
  5
127
  8
0
 10
0.060041
 20
0.686267
 30
0.0
  0
VERTEX
  5
128
  8
0
 10
0.0
 20
0.7
 30
0.0
  0
VERTEX
  5
129
  8
0
 10
-0.061977
 20
0.708405
 30
0.0
  0
VERTEX
  5
12A
  8
0
 10
-0.125413
 20
0.71125
 30
0.0
  0
VERTEX
  5
12B
  8
0
 10
-0.189801
 20
0.708346
 30
0.0
  0
VERTEX
  5
12C
  8
0
 10
-0.254615
 20
0.699549
 30
0.0
  0
VERTEX
  5
12D
  8
0
 10
-0.319312
 20
0.684766
 30
0.0
  0
VERTEX
  5
12E
  8
0
 10
-0.383333
 20
0.663953
 30
0.0
  0
VERTEX
  5
12F
  8
0
 10
-0.446115
 20
0.637118
 30
0.0
  0
VERTEX
  5
130
  8
0
 10
-0.507088
 20
0.604324
 30
0.0
  0
VERTEX
  5
131
  8
0
 10
-0.565685
 20
0.565685
 30
0.0
  0
VERTEX
  5
132
  8
0
 10
-0.621347
 20
0.521372
 30
0.0
  0
VERTEX
  5
133
  8
0
 10
-0.673525
 20
0.471607
 30
0.0
  0
VERTEX
  5
134
  8
0
 10
-0.721688
 20
0.416667
 30
0.0
  0
VERTEX
  5
135
  8
0
 10
-0.765327
 20
0.356878
 30
0.0
  0
VERTEX
  5
136
  8
0
 10
-0.803959
 20
0.292617
 30
0.0
  0
VERTEX
  5
137
  8
0
 10
-0.837136
 20
0.22431
 30
0.0
  0
VERTEX
  5
138
  8
0
 10
-0.864442
 20
0.152425
 30
0.0
  0
VERTEX
  5
139
  8
0
 10
-0.885506
 20
0.077472
 30
0.0
  0
VERTEX
  5
13A
  8
0
 10
-0.9
 20
0.0
 30
0.0
  0
VERTEX
  5
13B
  8
0
 10
-0.907644
 20
-0.079409
 30
0.0
  0
VERTEX
  5
13C
  8
0
 10
-0.908212
 20
-0.160142
 30
0.0
  0
VERTEX
  5
13D
  8
0
 10
-0.901531
 20
-0.241564
 30
0.0
  0
VERTEX
  5
13E
  8
0
 10
-0.887487
 20
-0.323019
 30
0.0
  0
VERTEX
  5
13F
  8
0
 10
-0.866027
 20
-0.403835
 30
0.0
  0
VERTEX
  5
140
  8
0
 10
-0.837158
 20
-0.483333
 30
0.0
  0
VERTEX
  5
141
  8
0
 10
-0.800949
 20
-0.56083
 30
0.0
  0
VERTEX
  5
142
  8
0
 10
-0.757533
 20
-0.635646
 30
0.0
  0
VERTEX
  5
143
  8
0
 10
-0.707107
 20
-0.707107
 30
0.0
  0
VERTEX
  5
144
  8
0
 10
-0.64993
 20
-0.774556
 30
0.0
  0
VERTEX
  5
145
  8
0
 10
-0.586323
 20
-0.837355
 30
0.0
  0
VERTEX
  5
146
  8
0
 10
-0.516667
 20
-0.894893
 30
0.0
  0
VERTEX
  5
147
  8
0
 10
-0.441401
 20
-0.946588
 30
0.0
  0
VERTEX
  5
148
  8
0
 10
-0.361021
 20
-0.991898
 30
0.0
  0
VERTEX
  5
149
  8
0
 10
-0.276074
 20
-1.030321
 30
0.0
  0
VERTEX
  5
14A
  8
0
 10
-0.187154
 20
-1.061404
 30
0.0
  0
VERTEX
  5
14B
  8
0
 10
-0.094903
 20
-1.084745
 30
0.0
  0
VERTEX
  5
14C
  8
0
 10
0.0
 20
-1.1
 30
0.0
  0
VERTEX
  5
14D
  8
0
 10
0.09684
 20
-1.106883
 30
0.0
  0
VERTEX
  5
14E
  8
0
 10
0.194872
 20
-1.105173
 30
0.0
  0
VERTEX
  5
14F
  8
0
 10
0.293328
 20
-1.094716
 30
0.0
  0
VERTEX
  5
150
  8
0
 10
0.391423
 20
-1.075426
 30
0.0
  0
VERTEX
  5
151
  8
0
 10
0.488359
 20
-1.047289
 30
0.0
  0
VERTEX
  5
152
  8
0
 10
0.583333
 20
-1.010363
 30
0.0
  0
VERTEX
  5
153
  8
0
 10
0.675546
 20
-0.964779
 30
0.0
  0
VERTEX
  5
154
  8
0
 10
0.764203
 20
-0.910742
 30
0.0
  0
VERTEX
  5
155
  8
0
 10
0.848528
 20
-0.848528
 30
0.0
  0
VERTEX
  5
156
  8
0
 10
0.927765
 20
-0.778487
 30
0.0
  0
VERTEX
  5
157
  8
0
 10
1.001186
 20
-0.701038
 30
0.0
  0
VERTEX
  5
158
  8
0
 10
1.068098
 20
-0.616667
 30
0.0
  0
VERTEX
  5
159
  8
0
 10
1.12785
 20
-0.525925
 30
0.0
  0
VERTEX
  5
15A
  8
0
 10
1.179836
 20
-0.429425
 30
0.0
  0
VERTEX
  5
15B
  8
0
 10
1.223506
 20
-0.327837
 30
0.0
  0
VERTEX
  5
15C
  8
0
 10
1.258365
 20
-0.221884
 30
0.0
  0
VERTEX
  5
15D
  8
0
 10
1.283984
 20
-0.112334
 30
0.0
  0
VERTEX
  5
15E
  8
0
 10
1.3
 20
0.0
 30
0.0
  0
VERTEX
  5
15F
  8
0
 10
1.306122
 20
0.114271
 30
0.0
  0
VERTEX
  5
160
  8
0
 10
1.302135
 20
0.229601
 30
0.0
  0
VERTEX
  5
161
  8
0
 10
1.287901
 20
0.345092
 30
0.0
  0
VERTEX
  5
162
  8
0
 10
1.263365
 20
0.459827
 30
0.0
  0
VERTEX
  5
163
  8
0
 10
1.228551
 20
0.572883
 30
0.0
  0
VERTEX
  5
164
  8
0
 10
1.183568
 20
0.683333
 30
0.0
  0
VERTEX
  5
165
  8
0
 10
1.128609
 20
0.790261
 30
0.0
  0
VERTEX
  5
166
  8
0
 10
1.063951
 20
0.892761
 30
0.0
  0
VERTEX
  5
167
  8
0
 10
0.989949
 20
0.989949
 30
0.0
  0
VERTEX
  5
168
  8
0
 10
0.907045
 20
1.080974
 30
0.0
  0
VERTEX
  5
169
  8
0
 10
0.815753
 20
1.165016
 30
0.0
  0
VERTEX
  5
16A
  8
0
 10
0.716667
 20
1.241303
 30
0.0
  0
VERTEX
  5
16B
  8
0
 10
0.610449
 20
1.309111
 30
0.0
  0
VERTEX
  5
16C
  8
0
 10
0.497829
 20
1.367775
 30
0.0
  0
VERTEX
  5
16D
  8
0
 10
0.379601
 20
1.416691
 30
0.0
  0
VERTEX
  5
16E
  8
0
 10
0.256613
 20
1.455327
 30
0.0
  0
VERTEX
  5
16F
  8
0
 10
0.129765
 20
1.483223
 30
0.0
  0
VERTEX
  5
170
  8
0
 10
0.0
 20
1.5
 30
0.0
  0
VERTEX
  5
171
  8
0
 10
-0.131702
 20
1.505361
 30
0.0
  0
VERTEX
  5
172
  8
0
 10
-0.264331
 20
1.499096
 30
0.0
  0
VERTEX
  5
173
  8
0
 10
-0.396856
 20
1.481086
 30
0.0
  0
VERTEX
  5
174
  8
0
 10
-0.528231
 20
1.451303
 30
0.0
  0
VERTEX
  5
175
  8
0
 10
-0.657406
 20
1.409812
 30
0.0
  0
VERTEX
  5
176
  8
0
 10
-0.783333
 20
1.356773
 30
0.0
  0
VERTEX
  5
177
  8
0
 10
-0.904976
 20
1.29244
 30
0.0
  0
VERTEX
  5
178
  8
0
 10
-1.021318
 20
1.21716
 30
0.0
  0
VERTEX
  5
179
  8
0
 10
-1.131371
 20
1.131371
 30
0.0
  0
VERTEX
  5
17A
  8
0
 10
-1.234183
 20
1.035602
 30
0.0
  0
VERTEX
  5
17B
  8
0
 10
-1.328847
 20
0.930468
 30
0.0
  0
VERTEX
  5
17C
  8
0
 10
-1.414508
 20
0.816667
 30
0.0
  0
VERTEX
  5
17D
  8
0
 10
-1.490373
 20
0.694972
 30
0.0
  0
VERTEX
  5
17E
  8
0
 10
-1.555713
 20
0.566233
 30
0.0
  0
VERTEX
  5
17F
  8
0
 10
-1.609876
 20
0.431365
 30
0.0
  0
VERTEX
  5
180
  8
0
 10
-1.652289
 20
0.291343
 30
0.0
  0
VERTEX
  5
181
  8
0
 10
-1.682462
 20
0.147196
 30
0.0
  0
VERTEX
  5
182
  8
0
 10
-1.7
 20
0.0
 30
0.0
  0
VERTEX
  5
183
  8
0
 10
-1.7046
 20
-0.149133
 30
0.0
  0
VERTEX
  5
184
  8
0
 10
-1.696058
 20
-0.299061
 30
0.0
  0
VERTEX
  5
185
  8
0
 10
-1.674271
 20
-0.44862
 30
0.0
  0
VERTEX
  5
186
  8
0
 10
-1.639242
 20
-0.596635
 30
0.0
  0
VERTEX
  5
187
  8
0
 10
-1.591074
 20
-0.74193
 30
0.0
  0
VERTEX
  5
188
  8
0
 10
-1.529978
 20
-0.883333
 30
0.0
  0
VERTEX
  5
189
  8
0
 10
-1.45627
 20
-1.019691
 30
0.0
  0
VERTEX
  5
18A
  8
0
 10
-1.370368
 20
-1.149876
 30
0.0
  0
VERTEX
  5
18B
  8
0
 10
-1.272792
 20
-1.272792
 30
0.0
  0
VERTEX
  5
18C
  8
0
 10
-1.16416
 20
-1.387392
 30
0.0
  0
VERTEX
  5
18D
  8
0
 10
-1.045184
 20
-1.492677
 30
0.0
  0
VERTEX
  5
18E
  8
0
 10
-0.916667
 20
-1.587713
 30
0.0
  0
VERTEX
  5
18F
  8
0
 10
-0.779496
 20
-1.671634
 30
0.0
  0
VERTEX
  5
190
  8
0
 10
-0.634637
 20
-1.743652
 30
0.0
  0
VERTEX
  5
191
  8
0
 10
-0.483129
 20
-1.803062
 30
0.0
  0
VERTEX
  5
192
  8
0
 10
-0.326073
 20
-1.84925
 30
0.0
  0
VERTEX
  5
193
  8
0
 10
-0.164628
 20
-1.881701
 30
0.0
  0
VERTEX
  5
194
  8
0
 10
0.0
 20
-1.9
 30
0.0
  0
VERTEX
  5
195
  8
0
 10
0.166564
 20
-1.903839
 30
0.0
  0
VERTEX
  5
196
  8
0
 10
0.33379
 20
-1.893019
 30
0.0
  0
VERTEX
  5
197
  8
0
 10
0.500383
 20
-1.867457
 30
0.0
  0
VERTEX
  5
198
  8
0
 10
0.665039
 20
-1.82718
 30
0.0
  0
VERTEX
  5
199
  8
0
 10
0.826453
 20
-1.772335
 30
0.0
  0
VERTEX
  5
19A
  8
0
 10
0.983333
 20
-1.703183
 30
0.0
  0
VERTEX
  5
19B
  8
0
 10
1.134407
 20
-1.620101
 30
0.0
  0
VERTEX
  5
19C
  8
0
 10
1.278433
 20
-1.523577
 30
0.0
  0
VERTEX
  5
19D
  8
0
 10
1.414214
 20
-1.414214
 30
0.0
  0
VERTEX
  5
19E
  8
0
 10
1.5406
 20
-1.292717
 30
0.0
  0
VERTEX
  5
19F
  8
0
 10
1.656507
 20
-1.159899
 30
0.0
  0
VERTEX
  5
1A0
  8
0
 10
1.760918
 20
-1.016667
 30
0.0
  0
VERTEX
  5
1A1
  8
0
 10
1.852896
 20
-0.86402
 30
0.0
  0
VERTEX
  5
1A2
  8
0
 10
1.93159
 20
-0.703041
 30
0.0
  0
VERTEX
  5
1A3
  8
0
 10
1.996247
 20
-0.534893
 30
0.0
  0
VERTEX
  5
1A4
  8
0
 10
2.046212
 20
-0.360802
 30
0.0
  0
VERTEX
  5
1A5
  8
0
 10
2.08094
 20
-0.182059
 30
0.0
  0
VERTEX
  5
1A6
  8
0
 10
2.1
 20
0.0
 30
0.0
  0
VERTEX
  5
1A7
  8
0
 10
2.103078
 20
0.183995
 30
0.0
  0
VERTEX
  5
1A8
  8
0
 10
2.089981
 20
0.36852
 30
0.0
  0
VERTEX
  5
1A9
  8
0
 10
2.060642
 20
0.552147
 30
0.0
  0
VERTEX
  5
1AA
  8
0
 10
2.015119
 20
0.733443
 30
0.0
  0
VERTEX
  5
1AB
  8
0
 10
1.953597
 20
0.910977
 30
0.0
  0
VERTEX
  5
1AC
  8
0
 10
1.876388
 20
1.083333
 30
0.0
  0
VERTEX
  5
1AD
  8
0
 10
1.783931
 20
1.249122
 30
0.0
  0
VERTEX
  5
1AE
  8
0
 10
1.676786
 20
1.406991
 30
0.0
  0
VERTEX
  5
1AF
  8
0
 10
1.555635
 20
1.555635
 30
0.0
  0
VERTEX
  5
1B0
  8
0
 10
1.421275
 20
1.693809
 30
0.0
  0
VERTEX
  5
1B1
  8
0
 10
1.274614
 20
1.820338
 30
0.0
  0
VERTEX
  5
1B2
  8
0
 10
1.116667
 20
1.934123
 30
0.0
  0
VERTEX
  5
1B3
  8
0
 10
0.948543
 20
2.034157
 30
0.0
  0
VERTEX
  5
1B4
  8
0
 10
0.771445
 20
2.119529
 30
0.0
  0
VERTEX
  5
1B5
  8
0
 10
0.586657
 20
2.189432
 30
0.0
  0
VERTEX
  5
1B6
  8
0
 10
0.395532
 20
2.243173
 30
0.0
  0
VERTEX
  5
1B7
  8
0
 10
0.19949
 20
2.280179
 30
0.0
  0
VERTEX
  5
1B8
  8
0
 10
0.0
 20
2.3
 30
0.0
  0
VERTEX
  5
1B9
  8
0
 10
-0.201427
 20
2.302317
 30
0.0
  0
VERTEX
  5
1BA
  8
0
 10
-0.40325
 20
2.286942
 30
0.0
  0
VERTEX
  5
1BB
  8
0
 10
-0.603911
 20
2.253827
 30
0.0
  0
VERTEX
  5
1BC
  8
0
 10
-0.801847
 20
2.203057
 30
0.0
  0
VERTEX
  5
1BD
  8
0
 10
-0.995501
 20
2.134858
 30
0.0
  0
VERTEX
  5
1BE
  8
0
 10
-1.183333
 20
2.049593
 30
0.0
  0
VERTEX
  5
1BF
  8
0
 10
-1.363837
 20
1.947762
 30
0.0
  0
VERTEX
  5
1C0
  8
0
 10
-1.535548
 20
1.829995
 30
0.0
  0
VERTEX
  5
1C1
  8
0
 10
-1.697056
 20
1.697056
 30
0.0
  0
VERTEX
  5
1C2
  8
0
 10
-1.847018
 20
1.549832
 30
0.0
  0
VERTEX
  5
1C3
  8
0
 10
-1.984168
 20
1.38933
 30
0.0
  0
VERTEX
  5
1C4
  8
0
 10
-2.107328
 20
1.216667
 30
0.0
  0
VERTEX
  5
1C5
  8
0
 10
-2.215419
 20
1.033067
 30
0.0
  0
VERTEX
  5
1C6
  8
0
 10
-2.307467
 20
0.839849
 30
0.0
  0
VERTEX
  5
1C7
  8
0
 10
-2.382617
 20
0.63842
 30
0.0
  0
VERTEX
  5
1C8
  8
0
 10
-2.440135
 20
0.430262
 30
0.0
  0
VERTEX
  5
1C9
  8
0
 10
-2.479418
 20
0.216921
 30
0.0
  0
VERTEX
  5
1CA
  8
0
 10
-2.5
 20
0.0
 30
0.0
  0
VERTEX
  5
1CB
  8
0
 10
-2.501556
 20
-0.218858
 30
0.0
  0
VERTEX
  5
1CC
  8
0
 10
-2.483904
 20
-0.437979
 30
0.0
  0
VERTEX
  5
1CD
  8
0
 10
-2.447012
 20
-0.655675
 30
0.0
  0
VERTEX
  5
1CE
  8
0
 10
-2.390996
 20
-0.870251
 30
0.0
  0
VERTEX
  5
1CF
  8
0
 10
-2.31612
 20
-1.080024
 30
0.0
  0
VERTEX
  5
1D0
  8
0
 10
-2.222799
 20
-1.283333
 30
0.0
  0
VERTEX
  5
1D1
  8
0
 10
-2.111592
 20
-1.478553
 30
0.0
  0
VERTEX
  5
1D2
  8
0
 10
-1.983204
 20
-1.664106
 30
0.0
  0
VERTEX
  5
1D3
  8
0
 10
-1.838478
 20
-1.838478
 30
0.0
  0
VERTEX
  5
1D4
  8
0
 10
-1.67839
 20
-2.000227
 30
0.0
  0
VERTEX
  5
1D5
  8
0
 10
-1.504045
 20
-2.147999
 30
0.0
  0
VERTEX
  5
1D6
  8
0
 10
-1.316667
 20
-2.280534
 30
0.0
  0
VERTEX
  5
1D7
  8
0
 10
-1.117591
 20
-2.396681
 30
0.0
  0
VERTEX
  5
1D8
  8
0
 10
-0.908253
 20
-2.495406
 30
0.0
  0
VERTEX
  5
1D9
  8
0
 10
-0.690184
 20
-2.575802
 30
0.0
  0
VERTEX
  5
1DA
  8
0
 10
-0.464991
 20
-2.637096
 30
0.0
  0
VERTEX
  5
1DB
  8
0
 10
-0.234352
 20
-2.678657
 30
0.0
  0
VERTEX
  5
1DC
  8
0
 10
0.0
 20
-2.7
 30
0.0
  0
VERTEX
  5
1DD
  8
0
 10
0.236289
 20
-2.700795
 30
0.0
  0
VERTEX
  5
1DE
  8
0
 10
0.472709
 20
-2.680866
 30
0.0
  0
VERTEX
  5
1DF
  8
0
 10
0.707439
 20
-2.640197
 30
0.0
  0
VERTEX
  5
1E0
  8
0
 10
0.938655
 20
-2.578934
 30
0.0
  0
VERTEX
  5
1E1
  8
0
 10
1.164548
 20
-2.497381
 30
0.0
  0
VERTEX
  5
1E2
  8
0
 10
1.383333
 20
-2.396004
 30
0.0
  0
VERTEX
  5
1E3
  8
0
 10
1.593268
 20
-2.275422
 30
0.0
  0
VERTEX
  5
1E4
  8
0
 10
1.792663
 20
-2.136413
 30
0.0
  0
VERTEX
  5
1E5
  8
0
 10
1.979899
 20
-1.979899
 30
0.0
  0
VERTEX
  5
1E6
  8
0
 10
2.153436
 20
-1.806947
 30
0.0
  0
VERTEX
  5
1E7
  8
0
 10
2.311829
 20
-1.61876
 30
0.0
  0
VERTEX
  5
1E8
  8
0
 10
2.453739
 20
-1.416667
 30
0.0
  0
VERTEX
  5
1E9
  8
0
 10
2.577942
 20
-1.202114
 30
0.0
  0
VERTEX
  5
1EA
  8
0
 10
2.683344
 20
-0.976658
 30
0.0
  0
VERTEX
  5
1EB
  8
0
 10
2.768987
 20
-0.741948
 30
0.0
  0
VERTEX
  5
1EC
  8
0
 10
2.834058
 20
-0.499721
 30
0.0
  0
VERTEX
  5
1ED
  8
0
 10
2.877896
 20
-0.251783
 30
0.0
  0
VERTEX
  5
1EE
  8
0
 10
2.9
 20
0.0
 30
0.0
  0
VERTEX
  5
1EF
  8
0
 10
2.900033
 20
0.25372
 30
0.0
  0
VERTEX
  5
1F0
  8
0
 10
2.877827
 20
0.507439
 30
0.0
  0
VERTEX
  5
1F1
  8
0
 10
2.833382
 20
0.759203
 30
0.0
  0
VERTEX
  5
1F2
  8
0
 10
2.766873
 20
1.007059
 30
0.0
  0
VERTEX
  5
1F3
  8
0
 10
2.678643
 20
1.249072
 30
0.0
  0
VERTEX
  5
1F4
  8
0
 10
2.569209
 20
1.483333
 30
0.0
  0
VERTEX
  5
1F5
  8
0
 10
2.439253
 20
1.707983
 30
0.0
  0
VERTEX
  5
1F6
  8
0
 10
2.289622
 20
1.921221
 30
0.0
  0
VERTEX
  5
1F7
  8
0
 10
2.12132
 20
2.12132
 30
0.0
  0
VERTEX
  5
1F8
  8
0
 10
1.935505
 20
2.306645
 30
0.0
  0
VERTEX
  5
1F9
  8
0
 10
1.733475
 20
2.47566
 30
0.0
  0
VERTEX
  5
1FA
  8
0
 10
1.516667
 20
2.626944
 30
0.0
  0
VERTEX
  5
1FB
  8
0
 10
1.286638
 20
2.759204
 30
0.0
  0
VERTEX
  5
1FC
  8
0
 10
1.045062
 20
2.871283
 30
0.0
  0
VERTEX
  5
1FD
  8
0
 10
0.793712
 20
2.962173
 30
0.0
  0
VERTEX
  5
1FE
  8
0
 10
0.534451
 20
3.031019
 30
0.0
  0
VERTEX
  5
1FF
  8
0
 10
0.269214
 20
3.077135
 30
0.0
  0
VERTEX
  5
200
  8
0
 10
0.0
 20
3.1
 30
0.0
  0
VERTEX
  5
201
  8
0
 10
-0.271151
 20
3.099272
 30
0.0
  0
VERTEX
  5
202
  8
0
 10
-0.542168
 20
3.074789
 30
0.0
  0
VERTEX
  5
203
  8
0
 10
-0.810966
 20
3.026568
 30
0.0
  0
VERTEX
  5
204
  8
0
 10
-1.075463
 20
2.954811
 30
0.0
  0
VERTEX
  5
205
  8
0
 10
-1.333595
 20
2.859905
 30
0.0
  0
VERTEX
  5
206
  8
0
 10
-1.583333
 20
2.742414
 30
0.0
  0
VERTEX
  5
207
  8
0
 10
-1.822698
 20
2.603083
 30
0.0
  0
VERTEX
  5
208
  8
0
 10
-2.049778
 20
2.442831
 30
0.0
  0
VERTEX
  5
209
  8
0
 10
-2.262742
 20
2.262742
 30
0.0
  0
VERTEX
  5
20A
  8
0
 10
-2.459854
 20
2.064062
 30
0.0
  0
VERTEX
  5
20B
  8
0
 10
-2.63949
 20
1.848191
 30
0.0
  0
VERTEX
  5
20C
  8
0
 10
-2.800149
 20
1.616667
 30
0.0
  0
VERTEX
  5
20D
  8
0
 10
-2.940465
 20
1.371161
 30
0.0
  0
VERTEX
  5
20E
  8
0
 10
-3.059222
 20
1.113466
 30
0.0
  0
VERTEX
  5
20F
  8
0
 10
-3.155358
 20
0.845476
 30
0.0
  0
VERTEX
  5
210
  8
0
 10
-3.227981
 20
0.56918
 30
0.0
  0
VERTEX
  5
211
  8
0
 10
-3.276374
 20
0.286646
 30
0.0
  0
VERTEX
  5
212
  8
0
 10
-3.3
 20
0.0
 30
0.0
  0
VERTEX
  5
213
  8
0
 10
-3.298511
 20
-0.288582
 30
0.0
  0
VERTEX
  5
214
  8
0
 10
-3.27175
 20
-0.576898
 30
0.0
  0
VERTEX
  5
215
  8
0
 10
-3.219753
 20
-0.86273
 30
0.0
  0
VERTEX
  5
216
  8
0
 10
-3.14275
 20
-1.143867
 30
0.0
  0
VERTEX
  5
217
  8
0
 10
-3.041166
 20
-1.418119
 30
0.0
  0
VERTEX
  5
218
  8
0
 10
-2.915619
 20
-1.683333
 30
0.0
  0
VERTEX
  5
219
  8
0
 10
-2.766914
 20
-1.937414
 30
0.0
  0
VERTEX
  5
21A
  8
0
 10
-2.59604
 20
-2.178336
 30
0.0
  0
VERTEX
  5
21B
  8
0
 10
-2.404163
 20
-2.404163
 30
0.0
  0
VERTEX
  5
21C
  8
0
 10
-2.19262
 20
-2.613063
 30
0.0
  0
VERTEX
  5
21D
  8
0
 10
-1.962906
 20
-2.80332
 30
0.0
  0
VERTEX
  5
21E
  8
0
 10
-1.716667
 20
-2.973354
 30
0.0
  0
VERTEX
  5
21F
  8
0
 10
-1.455685
 20
-3.121727
 30
0.0
  0
VERTEX
  5
220
  8
0
 10
-1.18187
 20
-3.24716
 30
0.0
  0
VERTEX
  5
221
  8
0
 10
-0.897239
 20
-3.348543
 30
0.0
  0
VERTEX
  5
222
  8
0
 10
-0.60391
 20
-3.424943
 30
0.0
  0
VERTEX
  5
223
  8
0
 10
-0.304077
 20
-3.475613
 30
0.0
  0
VERTEX
  5
224
  8
0
 10
0.0
 20
-3.5
 30
0.0
  0
VERTEX
  5
225
  8
0
 10
0.306013
 20
-3.49775
 30
0.0
  0
VERTEX
  5
226
  8
0
 10
0.611627
 20
-3.468712
 30
0.0
  0
VERTEX
  5
227
  8
0
 10
0.914494
 20
-3.412938
 30
0.0
  0
VERTEX
  5
228
  8
0
 10
1.212271
 20
-3.330688
 30
0.0
  0
VERTEX
  5
229
  8
0
 10
1.502643
 20
-3.222428
 30
0.0
  0
VERTEX
  5
22A
  8
0
 10
1.783333
 20
-3.088824
 30
0.0
  0
VERTEX
  5
22B
  8
0
 10
2.052129
 20
-2.930744
 30
0.0
  0
VERTEX
  5
22C
  8
0
 10
2.306893
 20
-2.749248
 30
0.0
  0
VERTEX
  5
22D
  8
0
 10
2.545584
 20
-2.545584
 30
0.0
  0
VERTEX
  5
22E
  8
0
 10
2.766272
 20
-2.321177
 30
0.0
  0
VERTEX
  5
22F
  8
0
 10
2.967151
 20
-2.077621
 30
0.0
  0
VERTEX
  5
230
  8
0
 10
3.146559
 20
-1.816667
 30
0.0
  0
VERTEX
  5
231
  8
0
 10
3.302988
 20
-1.540209
 30
0.0
  0
VERTEX
  5
232
  8
0
 10
3.435099
 20
-1.250274
 30
0.0
  0
VERTEX
  5
233
  8
0
 10
3.541728
 20
-0.949003
 30
0.0
  0
VERTEX
  5
234
  8
0
 10
3.621904
 20
-0.638639
 30
0.0
  0
VERTEX
  5
235
  8
0
 10
3.674852
 20
-0.321508
 30
0.0
  0
VERTEX
  5
236
  8
0
 10
3.7
 20
0.0
 30
0.0
  0
VERTEX
  5
237
  8
0
 10
3.696989
 20
0.323445
 30
0.0
  0
VERTEX
  5
238
  8
0
 10
3.665673
 20
0.646357
 30
0.0
  0
VERTEX
  5
239
  8
0
 10
3.606123
 20
0.966258
 30
0.0
  0
VERTEX
  5
23A
  8
0
 10
3.518627
 20
1.280675
 30
0.0
  0
VERTEX
  5
23B
  8
0
 10
3.403689
 20
1.587166
 30
0.0
  0
VERTEX
  5
23C
  8
0
 10
3.262029
 20
1.883333
 30
0.0
  0
VERTEX
  5
23D
  8
0
 10
3.094574
 20
2.166844
 30
0.0
  0
VERTEX
  5
23E
  8
0
 10
2.902457
 20
2.435451
 30
0.0
  0
VERTEX
  5
23F
  8
0
 10
2.687006
 20
2.687006
 30
0.0
  0
VERTEX
  5
240
  8
0
 10
2.449735
 20
2.91948
 30
0.0
  0
VERTEX
  5
241
  8
0
 10
2.192337
 20
3.130981
 30
0.0
  0
VERTEX
  5
242
  8
0
 10
1.916667
 20
3.319764
 30
0.0
  0
VERTEX
  5
243
  8
0
 10
1.624732
 20
3.48425
 30
0.0
  0
VERTEX
  5
244
  8
0
 10
1.318678
 20
3.623037
 30
0.0
  0
VERTEX
  5
245
  8
0
 10
1.000767
 20
3.734913
 30
0.0
  0
VERTEX
  5
246
  8
0
 10
0.673369
 20
3.818866
 30
0.0
  0
VERTEX
  5
247
  8
0
 10
0.338939
 20
3.87409
 30
0.0
  0
VERTEX
  5
248
  8
0
 10
0.0
 20
3.9
 30
0.0
  0
VERTEX
  5
249
  8
0
 10
-0.340876
 20
3.896228
 30
0.0
  0
VERTEX
  5
24A
  8
0
 10
-0.681087
 20
3.862635
 30
0.0
  0
VERTEX
  5
24B
  8
0
 10
-1.018022
 20
3.799308
 30
0.0
  0
VERTEX
  5
24C
  8
0
 10
-1.349079
 20
3.706565
 30
0.0
  0
VERTEX
  5
24D
  8
0
 10
-1.67169
 20
3.584951
 30
0.0
  0
VERTEX
  5
24E
  8
0
 10
-1.983333
 20
3.435234
 30
0.0
  0
VERTEX
  5
24F
  8
0
 10
-2.28156
 20
3.258405
 30
0.0
  0
VERTEX
  5
250
  8
0
 10
-2.564008
 20
3.055666
 30
0.0
  0
VERTEX
  5
251
  8
0
 10
-2.828427
 20
2.828427
 30
0.0
  0
VERTEX
  5
252
  8
0
 10
-3.072689
 20
2.578293
 30
0.0
  0
VERTEX
  5
253
  8
0
 10
-3.294812
 20
2.307052
 30
0.0
  0
VERTEX
  5
254
  8
0
 10
-3.492969
 20
2.016667
 30
0.0
  0
VERTEX
  5
255
  8
0
 10
-3.665511
 20
1.709256
 30
0.0
  0
VERTEX
  5
256
  8
0
 10
-3.810976
 20
1.387082
 30
0.0
  0
VERTEX
  5
257
  8
0
 10
-3.928098
 20
1.052531
 30
0.0
  0
VERTEX
  5
258
  8
0
 10
-4.015827
 20
0.708099
 30
0.0
  0
VERTEX
  5
259
  8
0
 10
-4.073329
 20
0.35637
 30
0.0
  0
VERTEX
  5
25A
  8
0
 10
-4.1
 20
0.0
 30
0.0
  0
VERTEX
  5
25B
  8
0
 10
-4.095467
 20
-0.358307
 30
0.0
  0
VERTEX
  5
25C
  8
0
 10
-4.059596
 20
-0.715816
 30
0.0
  0
VERTEX
  5
25D
  8
0
 10
-3.992493
 20
-1.069785
 30
0.0
  0
VERTEX
  5
25E
  8
0
 10
-3.894504
 20
-1.417483
 30
0.0
  0
VERTEX
  5
25F
  8
0
 10
-3.766212
 20
-1.756214
 30
0.0
  0
VERTEX
  5
260
  8
0
 10
-3.608439
 20
-2.083333
 30
0.0
  0
VERTEX
  5
261
  8
0
 10
-3.422235
 20
-2.396275
 30
0.0
  0
VERTEX
  5
262
  8
0
 10
-3.208875
 20
-2.692566
 30
0.0
  0
VERTEX
  5
263
  8
0
 10
-2.969848
 20
-2.969848
 30
0.0
  0
VERTEX
  5
264
  8
0
 10
-2.70685
 20
-3.225898
 30
0.0
  0
VERTEX
  5
265
  8
0
 10
-2.421767
 20
-3.458642
 30
0.0
  0
VERTEX
  5
266
  8
0
 10
-2.116667
 20
-3.666174
 30
0.0
  0
VERTEX
  5
267
  8
0
 10
-1.79378
 20
-3.846773
 30
0.0
  0
VERTEX
  5
268
  8
0
 10
-1.455486
 20
-3.998914
 30
0.0
  0
VERTEX
  5
269
  8
0
 10
-1.104295
 20
-4.121284
 30
0.0
  0
VERTEX
  5
26A
  8
0
 10
-0.742828
 20
-4.212789
 30
0.0
  0
VERTEX
  5
26B
  8
0
 10
-0.373801
 20
-4.272568
 30
0.0
  0
VERTEX
  5
26C
  8
0
 10
0.0
 20
-4.3
 30
0.0
  0
VERTEX
  5
26D
  8
0
 10
0.375738
 20
-4.294706
 30
0.0
  0
VERTEX
  5
26E
  8
0
 10
0.750546
 20
-4.256558
 30
0.0
  0
VERTEX
  5
26F
  8
0
 10
1.121549
 20
-4.185679
 30
0.0
  0
VERTEX
  5
270
  8
0
 10
1.485888
 20
-4.082442
 30
0.0
  0
VERTEX
  5
271
  8
0
 10
1.840737
 20
-3.947474
 30
0.0
  0
VERTEX
  5
272
  8
0
 10
2.183333
 20
-3.781644
 30
0.0
  0
VERTEX
  5
273
  8
0
 10
2.51099
 20
-3.586066
 30
0.0
  0
VERTEX
  5
274
  8
0
 10
2.821123
 20
-3.362084
 30
0.0
  0
VERTEX
  5
275
  8
0
 10
3.11127
 20
-3.11127
 30
0.0
  0
VERTEX
  5
276
  8
0
 10
3.379107
 20
-2.835408
 30
0.0
  0
VERTEX
  5
277
  8
0
 10
3.622472
 20
-2.536482
 30
0.0
  0
VERTEX
  5
278
  8
0
 10
3.839379
 20
-2.216667
 30
0.0
  0
VERTEX
  5
279
  8
0
 10
4.028035
 20
-1.878303
 30
0.0
  0
VERTEX
  5
27A
  8
0
 10
4.186853
 20
-1.52389
 30
0.0
  0
VERTEX
  5
27B
  8
0
 10
4.314469
 20
-1.156058
 30
0.0
  0
VERTEX
  5
27C
  8
0
 10
4.40975
 20
-0.777558
 30
0.0
  0
VERTEX
  5
27D
  8
0
 10
4.471807
 20
-0.391232
 30
0.0
  0
VERTEX
  5
27E
  8
0
 10
4.5
 20
0.0
 30
0.0
  0
VERTEX
  5
27F
  8
0
 10
4.493945
 20
0.393169
 30
0.0
  0
VERTEX
  5
280
  8
0
 10
4.45352
 20
0.785276
 30
0.0
  0
VERTEX
  5
281
  8
0
 10
4.378864
 20
1.173313
 30
0.0
  0
VERTEX
  5
282
  8
0
 10
4.270381
 20
1.554292
 30
0.0
  0
VERTEX
  5
283
  8
0
 10
4.128735
 20
1.925261
 30
0.0
  0
VERTEX
  5
284
  8
0
 10
3.954849
 20
2.283333
 30
0.0
  0
VERTEX
  5
285
  8
0
 10
3.749896
 20
2.625705
 30
0.0
  0
VERTEX
  5
286
  8
0
 10
3.515293
 20
2.949681
 30
0.0
  0
VERTEX
  5
287
  8
0
 10
3.252691
 20
3.252691
 30
0.0
  0
VERTEX
  5
288
  8
0
 10
2.963965
 20
3.532316
 30
0.0
  0
VERTEX
  5
289
  8
0
 10
2.651198
 20
3.786303
 30
0.0
  0
VERTEX
  5
28A
  8
0
 10
2.316667
 20
4.012584
 30
0.0
  0
VERTEX
  5
28B
  8
0
 10
1.962827
 20
4.209296
 30
0.0
  0
VERTEX
  5
28C
  8
0
 10
1.592294
 20
4.374791
 30
0.0
  0
VERTEX
  5
28D
  8
0
 10
1.207822
 20
4.507654
 30
0.0
  0
VERTEX
  5
28E
  8
0
 10
0.812288
 20
4.606712
 30
0.0
  0
VERTEX
  5
28F
  8
0
 10
0.408664
 20
4.671046
 30
0.0
  0
VERTEX
  5
290
  8
0
 10
0.0
 20
4.7
 30
0.0
  0
VERTEX
  5
291
  8
0
 10
-0.4106
 20
4.693184
 30
0.0
  0
VERTEX
  5
292
  8
0
 10
-0.820005
 20
4.650481
 30
0.0
  0
VERTEX
  5
293
  8
0
 10
-1.225077
 20
4.572049
 30
0.0
  0
VERTEX
  5
294
  8
0
 10
-1.622696
 20
4.458319
 30
0.0
  0
VERTEX
  5
295
  8
0
 10
-2.009785
 20
4.309997
 30
0.0
  0
VERTEX
  5
296
  8
0
 10
-2.383333
 20
4.128054
 30
0.0
  0
VERTEX
  5
297
  8
0
 10
-2.740421
 20
3.913726
 30
0.0
  0
VERTEX
  5
298
  8
0
 10
-3.078238
 20
3.668502
 30
0.0
  0
VERTEX
  5
299
  8
0
 10
-3.394113
 20
3.394113
 30
0.0
  0
VERTEX
  5
29A
  8
0
 10
-3.685525
 20
3.092523
 30
0.0
  0
VERTEX
  5
29B
  8
0
 10
-3.950133
 20
2.765913
 30
0.0
  0
VERTEX
  5
29C
  8
0
 10
-4.185789
 20
2.416667
 30
0.0
  0
VERTEX
  5
29D
  8
0
 10
-4.390558
 20
2.047351
 30
0.0
  0
VERTEX
  5
29E
  8
0
 10
-4.56273
 20
1.660698
 30
0.0
  0
VERTEX
  5
29F
  8
0
 10
-4.700839
 20
1.259586
 30
0.0
  0
VERTEX
  5
2A0
  8
0
 10
-4.803673
 20
0.847017
 30
0.0
  0
VERTEX
  5
2A1
  8
0
 10
-4.870285
 20
0.426095
 30
0.0
  0
VERTEX
  5
2A2
  8
0
 10
-4.9
 20
0.0
 30
0.0
  0
VERTEX
  5
2A3
  8
0
 10
-4.892423
 20
-0.428032
 30
0.0
  0
VERTEX
  5
2A4
  8
0
 10
-4.847443
 20
-0.854735
 30
0.0
  0
VERTEX
  5
2A5
  8
0
 10
-4.765234
 20
-1.276841
 30
0.0
  0
VERTEX
  5
2A6
  8
0
 10
-4.646258
 20
-1.6911
 30
0.0
  0
VERTEX
  5
2A7
  8
0
 10
-4.491259
 20
-2.094308
 30
0.0
  0
VERTEX
  5
2A8
  8
0
 10
-4.30126
 20
-2.483333
 30
0.0
  0
VERTEX
  5
2A9
  8
0
 10
-4.077557
 20
-2.855136
 30
0.0
  0
VERTEX
  5
2AA
  8
0
 10
-3.821711
 20
-3.206796
 30
0.0
  0
VERTEX
  5
2AB
  8
0
 10
-3.535534
 20
-3.535534
 30
0.0
  0
VERTEX
  5
2AC
  8
0
 10
-3.22108
 20
-3.838734
 30
0.0
  0
VERTEX
  5
2AD
  8
0
 10
-2.880628
 20
-4.113964
 30
0.0
  0
VERTEX
  5
2AE
  8
0
 10
-2.516667
 20
-4.358995
 30
0.0
  0
VERTEX
  5
2AF
  8
0
 10
-2.131874
 20
-4.571819
 30
0.0
  0
VERTEX
  5
2B0
  8
0
 10
-1.729102
 20
-4.750668
 30
0.0
  0
VERTEX
  5
2B1
  8
0
 10
-1.31135
 20
-4.894024
 30
0.0
  0
VERTEX
  5
2B2
  8
0
 10
-0.881747
 20
-5.000635
 30
0.0
  0
VERTEX
  5
2B3
  8
0
 10
-0.443526
 20
-5.069524
 30
0.0
  0
VERTEX
  5
2B4
  8
0
 10
0.0
 20
-5.1
 30
0.0
  0
VERTEX
  5
2B5
  8
0
 10
0.445463
 20
-5.091662
 30
0.0
  0
VERTEX
  5
2B6
  8
0
 10
0.889465
 20
-5.044404
 30
0.0
  0
VERTEX
  5
2B7
  8
0
 10
1.328604
 20
-4.958419
 30
0.0
  0
VERTEX
  5
2B8
  8
0
 10
1.759504
 20
-4.834196
 30
0.0
  0
VERTEX
  5
2B9
  8
0
 10
2.178832
 20
-4.67252
 30
0.0
  0
VERTEX
  5
2BA
  8
0
 10
2.583333
 20
-4.474465
 30
0.0
  0
VERTEX
  5
2BB
  8
0
 10
2.969851
 20
-4.241387
 30
0.0
  0
VERTEX
  5
2BC
  8
0
 10
3.335353
 20
-3.974919
 30
0.0
  0
VERTEX
  5
2BD
  8
0
 10
3.676955
 20
-3.676955
 30
0.0
  0
VERTEX
  5
2BE
  8
0
 10
3.991943
 20
-3.349638
 30
0.0
  0
VERTEX
  5
2BF
  8
0
 10
4.277794
 20
-2.995344
 30
0.0
  0
VERTEX
  5
2C0
  8
0
 10
4.5322
 20
-2.616667
 30
0.0
  0
VERTEX
  5
2C1
  8
0
 10
4.753081
 20
-2.216398
 30
0.0
  0
VERTEX
  5
2C2
  8
0
 10
4.938607
 20
-1.797506
 30
0.0
  0
VERTEX
  5
2C3
  8
0
 10
5.087209
 20
-1.363114
 30
0.0
  0
VERTEX
  5
2C4
  8
0
 10
5.197596
 20
-0.916476
 30
0.0
  0
VERTEX
  5
2C5
  8
0
 10
5.268763
 20
-0.460957
 30
0.0
  0
VERTEX
  5
2C6
  8
0
 10
5.3
 20
0.0
 30
0.0
  0
VERTEX
  5
2C7
  8
0
 10
5.290901
 20
0.462894
 30
0.0
  0
VERTEX
  5
2C8
  8
0
 10
5.241366
 20
0.924194
 30
0.0
  0
VERTEX
  5
2C9
  8
0
 10
5.151604
 20
1.380368
 30
0.0
  0
VERTEX
  5
2CA
  8
0
 10
5.022135
 20
1.827908
 30
0.0
  0
VERTEX
  5
2CB
  8
0
 10
4.853782
 20
2.263356
 30
0.0
  0
VERTEX
  5
2CC
  8
0
 10
4.64767
 20
2.683333
 30
0.0
  0
VERTEX
  5
2CD
  8
0
 10
4.405218
 20
3.084567
 30
0.0
  0
VERTEX
  5
2CE
  8
0
 10
4.128128
 20
3.463911
 30
0.0
  0
VERTEX
  5
2CF
  8
0
 10
3.818377
 20
3.818377
 30
0.0
  0
VERTEX
  5
2D0
  8
0
 10
3.478195
 20
4.145152
 30
0.0
  0
VERTEX
  5
2D1
  8
0
 10
3.110059
 20
4.441624
 30
0.0
  0
VERTEX
  5
2D2
  8
0
 10
2.716667
 20
4.705405
 30
0.0
  0
VERTEX
  5
2D3
  8
0
 10
2.300922
 20
4.934342
 30
0.0
  0
VERTEX
  5
2D4
  8
0
 10
1.86591
 20
5.126545
 30
0.0
  0
VERTEX
  5
2D5
  8
0
 10
1.414877
 20
5.280395
 30
0.0
  0
VERTEX
  5
2D6
  8
0
 10
0.951206
 20
5.394558
 30
0.0
  0
VERTEX
  5
2D7
  8
0
 10
0.478388
 20
5.468002
 30
0.0
  0
VERTEX
  5
2D8
  8
0
 10
0.0
 20
5.5
 30
0.0
  0
VERTEX
  5
2D9
  8
0
 10
-0.480325
 20
5.49014
 30
0.0
  0
VERTEX
  5
2DA
  8
0
 10
-0.958924
 20
5.438327
 30
0.0
  0
VERTEX
  5
2DB
  8
0
 10
-1.432132
 20
5.34479
 30
0.0
  0
VERTEX
  5
2DC
  8
0
 10
-1.896312
 20
5.210074
 30
0.0
  0
VERTEX
  5
2DD
  8
0
 10
-2.347879
 20
5.035043
 30
0.0
  0
VERTEX
  5
2DE
  8
0
 10
-2.783333
 20
4.820875
 30
0.0
  0
VERTEX
  5
2DF
  8
0
 10
-3.199282
 20
4.569048
 30
0.0
  0
VERTEX
  5
2E0
  8
0
 10
-3.592469
 20
4.281337
 30
0.0
  0
VERTEX
  5
2E1
  8
0
 10
-3.959798
 20
3.959798
 30
0.0
  0
VERTEX
  5
2E2
  8
0
 10
-4.29836
 20
3.606753
 30
0.0
  0
VERTEX
  5
2E3
  8
0
 10
-4.605455
 20
3.224774
 30
0.0
  0
VERTEX
  5
2E4
  8
0
 10
-4.87861
 20
2.816667
 30
0.0
  0
VERTEX
  5
2E5
  8
0
 10
-5.115604
 20
2.385445
 30
0.0
  0
VERTEX
  5
2E6
  8
0
 10
-5.314484
 20
1.934314
 30
0.0
  0
VERTEX
  5
2E7
  8
0
 10
-5.47358
 20
1.466641
 30
0.0
  0
VERTEX
  5
2E8
  8
0
 10
-5.59152
 20
0.985936
 30
0.0
  0
VERTEX
  5
2E9
  8
0
 10
-5.667241
 20
0.495819
 30
0.0
  0
VERTEX
  5
2EA
  8
0
 10
-5.7
 20
0.0
 30
0.0
  0
VERTEX
  5
2EB
  8
0
 10
-5.689379
 20
-0.497756
 30
0.0
  0
VERTEX
  5
2EC
  8
0
 10
-5.635289
 20
-0.993653
 30
0.0
  0
VERTEX
  5
2ED
  8
0
 10
-5.537975
 20
-1.483896
 30
0.0
  0
VERTEX
  5
2EE
  8
0
 10
-5.398012
 20
-1.964716
 30
0.0
  0
VERTEX
  5
2EF
  8
0
 10
-5.216305
 20
-2.432403
 30
0.0
  0
VERTEX
  5
2F0
  8
0
 10
-4.99408
 20
-2.883333
 30
0.0
  0
VERTEX
  5
2F1
  8
0
 10
-4.732878
 20
-3.313997
 30
0.0
  0
VERTEX
  5
2F2
  8
0
 10
-4.434546
 20
-3.721026
 30
0.0
  0
VERTEX
  5
2F3
  8
0
 10
-4.101219
 20
-4.101219
 30
0.0
  0
VERTEX
  5
2F4
  8
0
 10
-3.73531
 20
-4.451569
 30
0.0
  0
VERTEX
  5
2F5
  8
0
 10
-3.339489
 20
-4.769285
 30
0.0
  0
VERTEX
  5
2F6
  8
0
 10
-2.916667
 20
-5.051815
 30
0.0
  0
VERTEX
  5
2F7
  8
0
 10
-2.469969
 20
-5.296866
 30
0.0
  0
VERTEX
  5
2F8
  8
0
 10
-2.002718
 20
-5.502422
 30
0.0
  0
VERTEX
  5
2F9
  8
0
 10
-1.518405
 20
-5.666765
 30
0.0
  0
VERTEX
  5
2FA
  8
0
 10
-1.020665
 20
-5.788481
 30
0.0
  0
VERTEX
  5
2FB
  8
0
 10
-0.51325
 20
-5.86648
 30
0.0
  0
VERTEX
  5
2FC
  8
0
 10
0.0
 20
-5.9
 30
0.0
  0
VERTEX
  5
2FD
  8
0
 10
0.515187
 20
-5.888618
 30
0.0
  0
VERTEX
  5
2FE
  8
0
 10
1.028383
 20
-5.83225
 30
0.0
  0
VERTEX
  5
2FF
  8
0
 10
1.53566
 20
-5.73116
 30
0.0
  0
VERTEX
  5
300
  8
0
 10
2.03312
 20
-5.585951
 30
0.0
  0
VERTEX
  5
301
  8
0
 10
2.516927
 20
-5.397566
 30
0.0
  0
VERTEX
  5
302
  8
0
 10
2.983333
 20
-5.167285
 30
0.0
  0
VERTEX
  5
303
  8
0
 10
3.428712
 20
-4.896709
 30
0.0
  0
VERTEX
  5
304
  8
0
 10
3.849584
 20
-4.587755
 30
0.0
  0
VERTEX
  5
305
  8
0
 10
4.242641
 20
-4.242641
 30
0.0
  0
VERTEX
  5
306
  8
0
 10
4.604778
 20
-3.863868
 30
0.0
  0
VERTEX
  5
307
  8
0
 10
4.933116
 20
-3.454205
 30
0.0
  0
VERTEX
  5
308
  8
0
 10
5.22502
 20
-3.016667
 30
0.0
  0
VERTEX
  5
309
  8
0
 10
5.478127
 20
-2.554493
 30
0.0
  0
VERTEX
  5
30A
  8
0
 10
5.690361
 20
-2.071122
 30
0.0
  0
VERTEX
  5
30B
  8
0
 10
5.85995
 20
-1.570169
 30
0.0
  0
VERTEX
  5
30C
  8
0
 10
5.985443
 20
-1.055395
 30
0.0
  0
VERTEX
  5
30D
  8
0
 10
6.065719
 20
-0.530682
 30
0.0
  0
VERTEX
  5
30E
  8
0
 10
6.1
 20
0.0
 30
0.0
  0
VERTEX
  5
30F
  8
0
 10
6.087856
 20
0.532618
 30
0.0
  0
VERTEX
  5
310
  8
0
 10
6.029212
 20
1.063113
 30
0.0
  0
VERTEX
  5
311
  8
0
 10
5.924345
 20
1.587423
 30
0.0
  0
VERTEX
  5
312
  8
0
 10
5.773889
 20
2.101524
 30
0.0
  0
VERTEX
  5
313
  8
0
 10
5.578828
 20
2.60145
 30
0.0
  0
VERTEX
  5
314
  8
0
 10
5.34049
 20
3.083333
 30
0.0
  0
VERTEX
  5
315
  8
0
 10
5.060539
 20
3.543428
 30
0.0
  0
VERTEX
  5
316
  8
0
 10
4.740964
 20
3.978141
 30
0.0
  0
VERTEX
  5
317
  8
0
 10
4.384062
 20
4.384062
 30
0.0
  0
VERTEX
  5
318
  8
0
 10
3.992425
 20
4.757987
 30
0.0
  0
VERTEX
  5
319
  8
0
 10
3.56892
 20
5.096946
 30
0.0
  0
VERTEX
  5
31A
  8
0
 10
3.116667
 20
5.398225
 30
0.0
  0
VERTEX
  5
31B
  8
0
 10
2.639016
 20
5.659389
 30
0.0
  0
VERTEX
  5
31C
  8
0
 10
2.139526
 20
5.878299
 30
0.0
  0
VERTEX
  5
31D
  8
0
 10
1.621933
 20
6.053135
 30
0.0
  0
VERTEX
  5
31E
  8
0
 10
1.090125
 20
6.182404
 30
0.0
  0
VERTEX
  5
31F
  8
0
 10
0.548113
 20
6.264958
 30
0.0
  0
VERTEX
  5
320
  8
0
 10
0.0
 20
6.3
 30
0.0
  0
VERTEX
  5
321
  8
0
 10
-0.55005
 20
6.287095
 30
0.0
  0
VERTEX
  5
322
  8
0
 10
-1.097842
 20
6.226173
 30
0.0
  0
VERTEX
  5
323
  8
0
 10
-1.639187
 20
6.11753
 30
0.0
  0
VERTEX
  5
324
  8
0
 10
-2.169928
 20
5.961828
 30
0.0
  0
VERTEX
  5
325
  8
0
 10
-2.685974
 20
5.760089
 30
0.0
  0
VERTEX
  5
326
  8
0
 10
-3.183333
 20
5.513695
 30
0.0
  0
VERTEX
  5
327
  8
0
 10
-3.658143
 20
5.22437
 30
0.0
  0
VERTEX
  5
328
  8
0
 10
-4.106699
 20
4.894173
 30
0.0
  0
VERTEX
  5
329
  8
0
 10
-4.525483
 20
4.525483
 30
0.0
  0
VERTEX
  5
32A
  8
0
 10
-4.911196
 20
4.120983
 30
0.0
  0
VERTEX
  5
32B
  8
0
 10
-5.260776
 20
3.683635
 30
0.0
  0
VERTEX
  5
32C
  8
0
 10
-5.57143
 20
3.216667
 30
0.0
  0
VERTEX
  5
32D
  8
0
 10
-5.84065
 20
2.72354
 30
0.0
  0
VERTEX
  5
32E
  8
0
 10
-6.066238
 20
2.20793
 30
0.0
  0
VERTEX
  5
32F
  8
0
 10
-6.24632
 20
1.673696
 30
0.0
  0
VERTEX
  5
330
  8
0
 10
-6.379366
 20
1.124854
 30
0.0
  0
VERTEX
  5
331
  8
0
 10
-6.464197
 20
0.565544
 30
0.0
  0
VERTEX
  5
332
  8
0
 10
-6.5
 20
0.0
 30
0.0
  0
VERTEX
  5
333
  8
0
 10
-6.486334
 20
-0.567481
 30
0.0
  0
VERTEX
  5
334
  8
0
 10
-6.423135
 20
-1.132572
 30
0.0
  0
VERTEX
  5
335
  8
0
 10
-6.310715
 20
-1.690951
 30
0.0
  0
VERTEX
  5
336
  8
0
 10
-6.149766
 20
-2.238332
 30
0.0
  0
VERTEX
  5
337
  8
0
 10
-5.941351
 20
-2.770497
 30
0.0
  0
VERTEX
  5
338
  8
0
 10
-5.6869
 20
-3.283333
 30
0.0
  0
VERTEX
  5
339
  8
0
 10
-5.3882
 20
-3.772858
 30
0.0
  0
VERTEX
  5
33A
  8
0
 10
-5.047382
 20
-4.235256
 30
0.0
  0
VERTEX
  5
33B
  8
0
 10
-4.666905
 20
-4.666905
 30
0.0
  0
VERTEX
  5
33C
  8
0
 10
-4.24954
 20
-5.064405
 30
0.0
  0
VERTEX
  5
33D
  8
0
 10
-3.798351
 20
-5.424607
 30
0.0
  0
VERTEX
  5
33E
  8
0
 10
-3.316667
 20
-5.744635
 30
0.0
  0
VERTEX
  5
33F
  8
0
 10
-2.808064
 20
-6.021912
 30
0.0
  0
VERTEX
  5
340
  8
0
 10
-2.276334
 20
-6.254176
 30
0.0
  0
VERTEX
  5
341
  8
0
 10
-1.72546
 20
-6.439506
 30
0.0
  0
VERTEX
  5
342
  8
0
 10
-1.159584
 20
-6.576327
 30
0.0
  0
VERTEX
  5
343
  8
0
 10
-0.582975
 20
-6.663436
 30
0.0
  0
VERTEX
  5
344
  8
0
 10
0.0
 20
-6.7
 30
0.0
  0
VERTEX
  5
345
  8
0
 10
0.584912
 20
-6.685573
 30
0.0
  0
VERTEX
  5
346
  8
0
 10
1.167302
 20
-6.620097
 30
0.0
  0
VERTEX
  5
347
  8
0
 10
1.742715
 20
-6.503901
 30
0.0
  0
VERTEX
  5
348
  8
0
 10
2.306736
 20
-6.337705
 30
0.0
  0
VERTEX
  5
349
  8
0
 10
2.855021
 20
-6.122613
 30
0.0
  0
VERTEX
  5
34A
  8
0
 10
3.383333
 20
-5.860105
 30
0.0
  0
VERTEX
  5
34B
  8
0
 10
3.887574
 20
-5.552031
 30
0.0
  0
VERTEX
  5
34C
  8
0
 10
4.363814
 20
-5.200591
 30
0.0
  0
VERTEX
  5
34D
  8
0
 10
4.808326
 20
-4.808326
 30
0.0
  0
VERTEX
  5
34E
  8
0
 10
5.217614
 20
-4.378098
 30
0.0
  0
VERTEX
  5
34F
  8
0
 10
5.588437
 20
-3.913066
 30
0.0
  0
VERTEX
  5
350
  8
0
 10
5.91784
 20
-3.416667
 30
0.0
  0
VERTEX
  5
351
  8
0
 10
6.203173
 20
-2.892587
 30
0.0
  0
VERTEX
  5
352
  8
0
 10
6.442115
 20
-2.344738
 30
0.0
  0
VERTEX
  5
353
  8
0
 10
6.632691
 20
-1.777224
 30
0.0
  0
VERTEX
  5
354
  8
0
 10
6.773289
 20
-1.194314
 30
0.0
  0
VERTEX
  5
355
  8
0
 10
6.862675
 20
-0.600406
 30
0.0
  0
VERTEX
  5
356
  8
0
 10
6.9
 20
0.0
 30
0.0
  0
VERTEX
  5
357
  8
0
 10
6.884812
 20
0.602343
 30
0.0
  0
VERTEX
  5
358
  8
0
 10
6.817058
 20
1.202031
 30
0.0
  0
VERTEX
  5
359
  8
0
 10
6.697086
 20
1.794479
 30
0.0
  0
VERTEX
  5
35A
  8
0
 10
6.525643
 20
2.37514
 30
0.0
  0
VERTEX
  5
35B
  8
0
 10
6.303874
 20
2.939545
 30
0.0
  0
VERTEX
  5
35C
  8
0
 10
6.03331
 20
3.483333
 30
0.0
  0
VERTEX
  5
35D
  8
0
 10
5.715861
 20
4.002289
 30
0.0
  0
VERTEX
  5
35E
  8
0
 10
5.353799
 20
4.492371
 30
0.0
  0
VERTEX
  5
35F
  8
0
 10
4.949747
 20
4.949747
 30
0.0
  0
VERTEX
  5
360
  8
0
 10
4.506655
 20
5.370823
 30
0.0
  0
VERTEX
  5
361
  8
0
 10
4.027781
 20
5.752268
 30
0.0
  0
VERTEX
  5
362
  8
0
 10
3.516667
 20
6.091045
 30
0.0
  0
VERTEX
  5
363
  8
0
 10
2.977111
 20
6.384435
 30
0.0
  0
VERTEX
  5
364
  8
0
 10
2.413142
 20
6.630053
 30
0.0
  0
VERTEX
  5
365
  8
0
 10
1.828988
 20
6.825876
 30
0.0
  0
VERTEX
  5
366
  8
0
 10
1.229043
 20
6.97025
 30
0.0
  0
VERTEX
  5
367
  8
0
 10
0.617837
 20
7.061914
 30
0.0
  0
VERTEX
  5
368
  8
0
 10
0.0
 20
7.1
 30
0.0
  0
VERTEX
  5
369
  8
0
 10
-0.619774
 20
7.084051
 30
0.0
  0
VERTEX
  5
36A
  8
0
 10
-1.236761
 20
7.01402
 30
0.0
  0
VERTEX
  5
36B
  8
0
 10
-1.846243
 20
6.890271
 30
0.0
  0
VERTEX
  5
36C
  8
0
 10
-2.443544
 20
6.713582
 30
0.0
  0
VERTEX
  5
36D
  8
0
 10
-3.024068
 20
6.485136
 30
0.0
  0
VERTEX
  5
36E
  8
0
 10
-3.583333
 20
6.206515
 30
0.0
  0
VERTEX
  5
36F
  8
0
 10
-4.117004
 20
5.879691
 30
0.0
  0
VERTEX
  5
370
  8
0
 10
-4.620929
 20
5.507008
 30
0.0
  0
VERTEX
  5
371
  8
0
 10
-5.091169
 20
5.091169
 30
0.0
  0
VERTEX
  5
372
  8
0
 10
-5.524032
 20
4.635213
 30
0.0
  0
VERTEX
  5
373
  8
0
 10
-5.916098
 20
4.142496
 30
0.0
  0
VERTEX
  5
374
  8
0
 10
-6.26425
 20
3.616667
 30
0.0
  0
VERTEX
  5
375
  8
0
 10
-6.565696
 20
3.061635
 30
0.0
  0
VERTEX
  5
376
  8
0
 10
-6.817992
 20
2.481546
 30
0.0
  0
VERTEX
  5
377
  8
0
 10
-7.019061
 20
1.880752
 30
0.0
  0
VERTEX
  5
378
  8
0
 10
-7.167212
 20
1.263773
 30
0.0
  0
VERTEX
  5
379
  8
0
 10
-7.261152
 20
0.635269
 30
0.0
  0
VERTEX
  5
37A
  8
0
 10
-7.3
 20
0.0
 30
0.0
  0
VERTEX
  5
37B
  8
0
 10
-7.28329
 20
-0.637205
 30
0.0
  0
VERTEX
  5
37C
  8
0
 10
-7.210981
 20
-1.271491
 30
0.0
  0
VERTEX
  5
37D
  8
0
 10
-7.083456
 20
-1.898006
 30
0.0
  0
VERTEX
  5
37E
  8
0
 10
-6.90152
 20
-2.511948
 30
0.0
  0
VERTEX
  5
37F
  8
0
 10
-6.666397
 20
-3.108592
 30
0.0
  0
VERTEX
  5
380
  8
0
 10
-6.37972
 20
-3.683333
 30
0.0
  0
VERTEX
  5
381
  8
0
 10
-6.043522
 20
-4.231719
 30
0.0
  0
VERTEX
  5
382
  8
0
 10
-5.660217
 20
-4.749486
 30
0.0
  0
VERTEX
  5
383
  8
0
 10
-5.23259
 20
-5.23259
 30
0.0
  0
VERTEX
  5
384
  8
0
 10
-4.76377
 20
-5.67724
 30
0.0
  0
VERTEX
  5
385
  8
0
 10
-4.257212
 20
-6.079929
 30
0.0
  0
VERTEX
  5
386
  8
0
 10
-3.716667
 20
-6.437456
 30
0.0
  0
VERTEX
  5
387
  8
0
 10
-3.146158
 20
-6.746958
 30
0.0
  0
VERTEX
  5
388
  8
0
 10
-2.54995
 20
-7.005931
 30
0.0
  0
VERTEX
  5
389
  8
0
 10
-1.932516
 20
-7.212246
 30
0.0
  0
VERTEX
  5
38A
  8
0
 10
-1.298502
 20
-7.364174
 30
0.0
  0
VERTEX
  5
38B
  8
0
 10
-0.6527
 20
-7.460391
 30
0.0
  0
VERTEX
  5
38C
  8
0
 10
0.0
 20
-7.5
 30
0.0
  0
VERTEX
  5
38D
  8
0
 10
0.654636
 20
-7.482529
 30
0.0
  0
VERTEX
  5
38E
  8
0
 10
1.30622
 20
-7.407943
 30
0.0
  0
VERTEX
  5
38F
  8
0
 10
1.94977
 20
-7.276641
 30
0.0
  0
VERTEX
  5
390
  8
0
 10
2.580352
 20
-7.089459
 30
0.0
  0
VERTEX
  5
391
  8
0
 10
3.193116
 20
-6.847659
 30
0.0
  0
VERTEX
  5
392
  8
0
 10
3.783333
 20
-6.552926
 30
0.0
  0
VERTEX
  5
393
  8
0
 10
4.346435
 20
-6.207352
 30
0.0
  0
VERTEX
  5
394
  8
0
 10
4.878044
 20
-5.813426
 30
0.0
  0
VERTEX
  5
395
  8
0
 10
5.374012
 20
-5.374012
 30
0.0
  0
VERTEX
  5
396
  8
0
 10
5.830449
 20
-4.892328
 30
0.0
  0
VERTEX
  5
397
  8
0
 10
6.243759
 20
-4.371927
 30
0.0
  0
VERTEX
  5
398
  8
0
 10
6.610661
 20
-3.816667
 30
0.0
  0
VERTEX
  5
399
  8
0
 10
6.92822
 20
-3.230682
 30
0.0
  0
VERTEX
  5
39A
  8
0
 10
7.193869
 20
-2.618354
 30
0.0
  0
VERTEX
  5
39B
  8
0
 10
7.405431
 20
-1.984279
 30
0.0
  0
VERTEX
  5
39C
  8
0
 10
7.561135
 20
-1.333232
 30
0.0
  0
VERTEX
  5
39D
  8
0
 10
7.65963
 20
-0.670131
 30
0.0
  0
VERTEX
  5
39E
  8
0
 10
7.7
 20
0.0
 30
0.0
  0
VERTEX
  5
39F
  8
0
 10
7.681768
 20
0.672068
 30
0.0
  0
VERTEX
  5
3A0
  8
0
 10
7.604904
 20
1.34095
 30
0.0
  0
VERTEX
  5
3A1
  8
0
 10
7.469826
 20
2.001534
 30
0.0
  0
VERTEX
  5
3A2
  8
0
 10
7.277397
 20
2.648756
 30
0.0
  0
VERTEX
  5
3A3
  8
0
 10
7.02892
 20
3.277639
 30
0.0
  0
VERTEX
  5
3A4
  8
0
 10
6.726131
 20
3.883333
 30
0.0
  0
VERTEX
  5
3A5
  8
0
 10
6.371183
 20
4.46115
 30
0.0
  0
VERTEX
  5
3A6
  8
0
 10
5.966635
 20
5.006601
 30
0.0
  0
VERTEX
  5
3A7
  8
0
 10
5.515433
 20
5.515433
 30
0.0
  0
VERTEX
  5
3A8
  8
0
 10
5.020885
 20
5.983658
 30
0.0
  0
VERTEX
  5
3A9
  8
0
 10
4.486642
 20
6.407589
 30
0.0
  0
VERTEX
  5
3AA
  8
0
 10
3.916667
 20
6.783866
 30
0.0
  0
VERTEX
  5
3AB
  8
0
 10
3.315205
 20
7.109481
 30
0.0
  0
VERTEX
  5
3AC
  8
0
 10
2.686758
 20
7.381808
 30
0.0
  0
VERTEX
  5
3AD
  8
0
 10
2.036043
 20
7.598617
 30
0.0
  0
VERTEX
  5
3AE
  8
0
 10
1.367962
 20
7.758097
 30
0.0
  0
VERTEX
  5
3AF
  8
0
 10
0.687562
 20
7.858869
 30
0.0
  0
VERTEX
  5
3B0
  8
0
 10
0.0
 20
7.9
 30
0.0
  0
VERTEX
  5
3B1
  8
0
 10
-0.689499
 20
7.881007
 30
0.0
  0
VERTEX
  5
3B2
  8
0
 10
-1.375679
 20
7.801866
 30
0.0
  0
VERTEX
  5
3B3
  8
0
 10
-2.053298
 20
7.663012
 30
0.0
  0
VERTEX
  5
3B4
  8
0
 10
-2.71716
 20
7.465336
 30
0.0
  0
VERTEX
  5
3B5
  8
0
 10
-3.362163
 20
7.210182
 30
0.0
  0
VERTEX
  5
3B6
  8
0
 10
-3.983333
 20
6.899336
 30
0.0
  0
VERTEX
  5
3B7
  8
0
 10
-4.575865
 20
6.535013
 30
0.0
  0
VERTEX
  5
3B8
  8
0
 10
-5.135159
 20
6.119844
 30
0.0
  0
VERTEX
  5
3B9
  8
0
 10
-5.656854
 20
5.656854
 30
0.0
  0
VERTEX
  5
3BA
  8
0
 10
-6.136867
 20
5.149443
 30
0.0
  0
VERTEX
  5
3BB
  8
0
 10
-6.57142
 20
4.601358
 30
0.0
  0
VERTEX
  5
3BC
  8
0
 10
-6.957071
 20
4.016667
 30
0.0
  0
VERTEX
  5
3BD
  8
0
 10
-7.290743
 20
3.399729
 30
0.0
  0
VERTEX
  5
3BE
  8
0
 10
-7.569746
 20
2.755162
 30
0.0
  0
VERTEX
  5
3BF
  8
0
 10
-7.791802
 20
2.087807
 30
0.0
  0
VERTEX
  5
3C0
  8
0
 10
-7.955058
 20
1.402691
 30
0.0
  0
VERTEX
  5
3C1
  8
0
 10
-8.058108
 20
0.704993
 30
0.0
  0
VERTEX
  5
3C2
  8
0
 10
-8.1
 20
0.0
 30
0.0
  0
VERTEX
  5
3C3
  8
0
 10
-8.080246
 20
-0.70693
 30
0.0
  0
VERTEX
  5
3C4
  8
0
 10
-7.998827
 20
-1.410409
 30
0.0
  0
VERTEX
  5
3C5
  8
0
 10
-7.856197
 20
-2.105062
 30
0.0
  0
VERTEX
  5
3C6
  8
0
 10
-7.653274
 20
-2.785564
 30
0.0
  0
VERTEX
  5
3C7
  8
0
 10
-7.391444
 20
-3.446687
 30
0.0
  0
VERTEX
  5
3C8
  8
0
 10
-7.072541
 20
-4.083333
 30
0.0
  0
VERTEX
  5
3C9
  8
0
 10
-6.698843
 20
-4.690581
 30
0.0
  0
VERTEX
  5
3CA
  8
0
 10
-6.273053
 20
-5.263716
 30
0.0
  0
VERTEX
  5
3CB
  8
0
 10
-5.798276
 20
-5.798276
 30
0.0
  0
VERTEX
  5
3CC
  8
0
 10
-5.278
 20
-6.290076
 30
0.0
  0
VERTEX
  5
3CD
  8
0
 10
-4.716073
 20
-6.73525
 30
0.0
  0
VERTEX
  5
3CE
  8
0
 10
-4.116667
 20
-7.130276
 30
0.0
  0
VERTEX
  5
3CF
  8
0
 10
-3.484253
 20
-7.472004
 30
0.0
  0
VERTEX
  5
3D0
  8
0
 10
-2.823566
 20
-7.757685
 30
0.0
  0
VERTEX
  5
3D1
  8
0
 10
-2.139571
 20
-7.984987
 30
0.0
  0
VERTEX
  5
3D2
  8
0
 10
-1.437421
 20
-8.15202
 30
0.0
  0
VERTEX
  5
3D3
  8
0
 10
-0.722424
 20
-8.257347
 30
0.0
  0
VERTEX
  5
3D4
  8
0
 10
0.0
 20
-8.3
 30
0.0
  0
VERTEX
  5
3D5
  8
0
 10
0.724361
 20
-8.279485
 30
0.0
  0
VERTEX
  5
3D6
  8
0
 10
1.445139
 20
-8.195789
 30
0.0
  0
VERTEX
  5
3D7
  8
0
 10
2.156825
 20
-8.049382
 30
0.0
  0
VERTEX
  5
3D8
  8
0
 10
2.853968
 20
-7.841213
 30
0.0
  0
VERTEX
  5
3D9
  8
0
 10
3.53121
 20
-7.572705
 30
0.0
  0
VERTEX
  5
3DA
  8
0
 10
4.183333
 20
-7.245746
 30
0.0
  0
VERTEX
  5
3DB
  8
0
 10
4.805296
 20
-6.862674
 30
0.0
  0
VERTEX
  5
3DC
  8
0
 10
5.392274
 20
-6.426262
 30
0.0
  0
VERTEX
  5
3DD
  8
0
 10
5.939697
 20
-5.939697
 30
0.0
  0
VERTEX
  5
3DE
  8
0
 10
6.443285
 20
-5.406558
 30
0.0
  0
VERTEX
  5
3DF
  8
0
 10
6.899081
 20
-4.830788
 30
0.0
  0
VERTEX
  5
3E0
  8
0
 10
7.303481
 20
-4.216667
 30
0.0
  0
VERTEX
  5
3E1
  8
0
 10
7.653266
 20
-3.568776
 30
0.0
  0
VERTEX
  5
3E2
  8
0
 10
7.945623
 20
-2.89197
 30
0.0
  0
VERTEX
  5
3E3
  8
0
 10
8.178172
 20
-2.191335
 30
0.0
  0
VERTEX
  5
3E4
  8
0
 10
8.348981
 20
-1.472151
 30
0.0
  0
VERTEX
  5
3E5
  8
0
 10
8.456586
 20
-0.739855
 30
0.0
  0
VERTEX
  5
3E6
  8
0
 10
8.5
 20
0.0
 30
0.0
  0
SEQEND
  5
989
  8
0
  0
POLYLINE
  5
3E
  8
0
 66
     1
 10
0.0
 20
0.0
 30
0.0
  0
VERTEX
  5
3E7
  8
0
 10
18.3
 20
0.2000000000000002
 30
0.0
  0
VERTEX
  5
3E8
  8
0
 10
18.309166
 20
0.2445460000000002
 30
0.0
  0
VERTEX
  5
3E9
  8
0
 10
18.314288
 20
0.2906830000000002
 30
0.0
  0
VERTEX
  5
3EA
  8
0
 10
18.31516
 20
0.3380370000000001
 30
0.0
  0
VERTEX
  5
3EB
  8
0
 10
18.31161
 20
0.3862110000000002
 30
0.0
  0
VERTEX
  5
3EC
  8
0
 10
18.303504
 20
0.4347880000000002
 30
0.0
  0
VERTEX
  5
3ED
  8
0
 10
18.290748
 20
0.4833330000000002
 30
0.0
  0
VERTEX
  5
3EE
  8
0
 10
18.273288
 20
0.5314000000000001
 30
0.0
  0
VERTEX
  5
3EF
  8
0
 10
18.251115
 20
0.5785300000000002
 30
0.0
  0
VERTEX
  5
3F0
  8
0
 10
18.224264
 20
0.6242640000000002
 30
0.0
  0
VERTEX
  5
3F1
  8
0
 10
18.192815
 20
0.6681380000000001
 30
0.0
  0
VERTEX
  5
3F2
  8
0
 10
18.156892
 20
0.7096950000000002
 30
0.0
  0
VERTEX
  5
3F3
  8
0
 10
18.116667
 20
0.7484830000000002
 30
0.0
  0
VERTEX
  5
3F4
  8
0
 10
18.072354
 20
0.7840650000000001
 30
0.0
  0
VERTEX
  5
3F5
  8
0
 10
18.024213
 20
0.8160210000000002
 30
0.0
  0
VERTEX
  5
3F6
  8
0
 10
17.972546
 20
0.8439510000000002
 30
0.0
  0
VERTEX
  5
3F7
  8
0
 10
17.917695
 20
0.8674810000000002
 30
0.0
  0
VERTEX
  5
3F8
  8
0
 10
17.860041
 20
0.8862670000000001
 30
0.0
  0
VERTEX
  5
3F9
  8
0
 10
17.8
 20
0.9000000000000001
 30
0.0
  0
VERTEX
  5
3FA
  8
0
 10
17.738023
 20
0.9084050000000001
 30
0.0
  0
VERTEX
  5
3FB
  8
0
 10
17.674587
 20
0.9112500000000002
 30
0.0
  0
VERTEX
  5
3FC
  8
0
 10
17.610199
 20
0.9083460000000002
 30
0.0
  0
VERTEX
  5
3FD
  8
0
 10
17.545385
 20
0.8995490000000002
 30
0.0
  0
VERTEX
  5
3FE
  8
0
 10
17.480688
 20
0.8847660000000002
 30
0.0
  0
VERTEX
  5
3FF
  8
0
 10
17.416667
 20
0.8639530000000002
 30
0.0
  0
VERTEX
  5
400
  8
0
 10
17.353885
 20
0.8371180000000001
 30
0.0
  0
VERTEX
  5
401
  8
0
 10
17.292912
 20
0.8043240000000001
 30
0.0
  0
VERTEX
  5
402
  8
0
 10
17.234315
 20
0.7656850000000002
 30
0.0
  0
VERTEX
  5
403
  8
0
 10
17.178653
 20
0.7213720000000001
 30
0.0
  0
VERTEX
  5
404
  8
0
 10
17.126475
 20
0.6716070000000002
 30
0.0
  0
VERTEX
  5
405
  8
0
 10
17.078312
 20
0.6166670000000002
 30
0.0
  0
VERTEX
  5
406
  8
0
 10
17.034673
 20
0.5568780000000002
 30
0.0
  0
VERTEX
  5
407
  8
0
 10
16.996041
 20
0.4926170000000002
 30
0.0
  0
VERTEX
  5
408
  8
0
 10
16.962864
 20
0.4243100000000002
 30
0.0
  0
VERTEX
  5
409
  8
0
 10
16.935558
 20
0.3524250000000002
 30
0.0
  0
VERTEX
  5
40A
  8
0
 10
16.914494
 20
0.2774720000000002
 30
0.0
  0
VERTEX
  5
40B
  8
0
 10
16.9
 20
0.2000000000000002
 30
0.0
  0
VERTEX
  5
40C
  8
0
 10
16.892356
 20
0.1205910000000002
 30
0.0
  0
VERTEX
  5
40D
  8
0
 10
16.891788
 20
0.0398580000000002
 30
0.0
  0
VERTEX
  5
40E
  8
0
 10
16.898469
 20
-0.0415639999999998
 30
0.0
  0
VERTEX
  5
40F
  8
0
 10
16.912513
 20
-0.1230189999999998
 30
0.0
  0
VERTEX
  5
410
  8
0
 10
16.933973
 20
-0.2038349999999998
 30
0.0
  0
VERTEX
  5
411
  8
0
 10
16.962842
 20
-0.2833329999999998
 30
0.0
  0
VERTEX
  5
412
  8
0
 10
16.999051
 20
-0.3608299999999999
 30
0.0
  0
VERTEX
  5
413
  8
0
 10
17.042467
 20
-0.4356459999999999
 30
0.0
  0
VERTEX
  5
414
  8
0
 10
17.092893
 20
-0.5071069999999999
 30
0.0
  0
VERTEX
  5
415
  8
0
 10
17.15007
 20
-0.5745559999999998
 30
0.0
  0
VERTEX
  5
416
  8
0
 10
17.213677
 20
-0.6373549999999998
 30
0.0
  0
VERTEX
  5
417
  8
0
 10
17.283333
 20
-0.6948929999999999
 30
0.0
  0
VERTEX
  5
418
  8
0
 10
17.358599
 20
-0.7465879999999998
 30
0.0
  0
VERTEX
  5
419
  8
0
 10
17.438979
 20
-0.7918979999999998
 30
0.0
  0
VERTEX
  5
41A
  8
0
 10
17.523926
 20
-0.8303209999999999
 30
0.0
  0
VERTEX
  5
41B
  8
0
 10
17.612846
 20
-0.8614039999999998
 30
0.0
  0
VERTEX
  5
41C
  8
0
 10
17.705097
 20
-0.8847449999999999
 30
0.0
  0
VERTEX
  5
41D
  8
0
 10
17.8
 20
-0.8999999999999999
 30
0.0
  0
VERTEX
  5
41E
  8
0
 10
17.89684
 20
-0.9068829999999999
 30
0.0
  0
VERTEX
  5
41F
  8
0
 10
17.994872
 20
-0.9051729999999998
 30
0.0
  0
VERTEX
  5
420
  8
0
 10
18.093328
 20
-0.8947159999999998
 30
0.0
  0
VERTEX
  5
421
  8
0
 10
18.191423
 20
-0.8754259999999998
 30
0.0
  0
VERTEX
  5
422
  8
0
 10
18.288359
 20
-0.8472889999999997
 30
0.0
  0
VERTEX
  5
423
  8
0
 10
18.383333
 20
-0.8103629999999997
 30
0.0
  0
VERTEX
  5
424
  8
0
 10
18.475546
 20
-0.7647789999999999
 30
0.0
  0
VERTEX
  5
425
  8
0
 10
18.564203
 20
-0.7107419999999999
 30
0.0
  0
VERTEX
  5
426
  8
0
 10
18.648528
 20
-0.6485279999999998
 30
0.0
  0
VERTEX
  5
427
  8
0
 10
18.727765
 20
-0.5784869999999999
 30
0.0
  0
VERTEX
  5
428
  8
0
 10
18.801186
 20
-0.5010379999999999
 30
0.0
  0
VERTEX
  5
429
  8
0
 10
18.868098
 20
-0.4166669999999998
 30
0.0
  0
VERTEX
  5
42A
  8
0
 10
18.92785
 20
-0.3259249999999998
 30
0.0
  0
VERTEX
  5
42B
  8
0
 10
18.979836
 20
-0.2294249999999998
 30
0.0
  0
VERTEX
  5
42C
  8
0
 10
19.023506
 20
-0.1278369999999998
 30
0.0
  0
VERTEX
  5
42D
  8
0
 10
19.058365
 20
-0.0218839999999998
 30
0.0
  0
VERTEX
  5
42E
  8
0
 10
19.083984
 20
0.0876660000000002
 30
0.0
  0
VERTEX
  5
42F
  8
0
 10
19.1
 20
0.2000000000000002
 30
0.0
  0
VERTEX
  5
430
  8
0
 10
19.106122
 20
0.3142710000000002
 30
0.0
  0
VERTEX
  5
431
  8
0
 10
19.102135
 20
0.4296010000000002
 30
0.0
  0
VERTEX
  5
432
  8
0
 10
19.087901
 20
0.5450920000000001
 30
0.0
  0
VERTEX
  5
433
  8
0
 10
19.063365
 20
0.6598270000000002
 30
0.0
  0
VERTEX
  5
434
  8
0
 10
19.028551
 20
0.7728830000000002
 30
0.0
  0
VERTEX
  5
435
  8
0
 10
18.983568
 20
0.8833330000000001
 30
0.0
  0
VERTEX
  5
436
  8
0
 10
18.928609
 20
0.9902610000000002
 30
0.0
  0
VERTEX
  5
437
  8
0
 10
18.863951
 20
1.092761
 30
0.0
  0
VERTEX
  5
438
  8
0
 10
18.789949
 20
1.189949
 30
0.0
  0
VERTEX
  5
439
  8
0
 10
18.707045
 20
1.280974
 30
0.0
  0
VERTEX
  5
43A
  8
0
 10
18.615753
 20
1.365016
 30
0.0
  0
VERTEX
  5
43B
  8
0
 10
18.516667
 20
1.441303
 30
0.0
  0
VERTEX
  5
43C
  8
0
 10
18.410449
 20
1.509111
 30
0.0
  0
VERTEX
  5
43D
  8
0
 10
18.297829
 20
1.567775
 30
0.0
  0
VERTEX
  5
43E
  8
0
 10
18.179601
 20
1.616691
 30
0.0
  0
VERTEX
  5
43F
  8
0
 10
18.056613
 20
1.655327
 30
0.0
  0
VERTEX
  5
440
  8
0
 10
17.929765
 20
1.683223
 30
0.0
  0
VERTEX
  5
441
  8
0
 10
17.8
 20
1.7
 30
0.0
  0
VERTEX
  5
442
  8
0
 10
17.668298
 20
1.705361
 30
0.0
  0
VERTEX
  5
443
  8
0
 10
17.535669
 20
1.699096
 30
0.0
  0
VERTEX
  5
444
  8
0
 10
17.403144
 20
1.681086
 30
0.0
  0
VERTEX
  5
445
  8
0
 10
17.271769
 20
1.651303
 30
0.0
  0
VERTEX
  5
446
  8
0
 10
17.142594
 20
1.609812
 30
0.0
  0
VERTEX
  5
447
  8
0
 10
17.016667
 20
1.556773
 30
0.0
  0
VERTEX
  5
448
  8
0
 10
16.895024
 20
1.49244
 30
0.0
  0
VERTEX
  5
449
  8
0
 10
16.778682
 20
1.41716
 30
0.0
  0
VERTEX
  5
44A
  8
0
 10
16.668629
 20
1.331371
 30
0.0
  0
VERTEX
  5
44B
  8
0
 10
16.565817
 20
1.235602
 30
0.0
  0
VERTEX
  5
44C
  8
0
 10
16.471153
 20
1.130468
 30
0.0
  0
VERTEX
  5
44D
  8
0
 10
16.385492
 20
1.016667
 30
0.0
  0
VERTEX
  5
44E
  8
0
 10
16.309627
 20
0.8949720000000002
 30
0.0
  0
VERTEX
  5
44F
  8
0
 10
16.244287
 20
0.7662330000000002
 30
0.0
  0
VERTEX
  5
450
  8
0
 10
16.190124
 20
0.6313650000000002
 30
0.0
  0
VERTEX
  5
451
  8
0
 10
16.147711
 20
0.4913430000000002
 30
0.0
  0
VERTEX
  5
452
  8
0
 10
16.117538
 20
0.3471960000000002
 30
0.0
  0
VERTEX
  5
453
  8
0
 10
16.1
 20
0.2000000000000002
 30
0.0
  0
VERTEX
  5
454
  8
0
 10
16.0954
 20
0.0508670000000002
 30
0.0
  0
VERTEX
  5
455
  8
0
 10
16.103942
 20
-0.0990609999999998
 30
0.0
  0
VERTEX
  5
456
  8
0
 10
16.125729
 20
-0.2486199999999998
 30
0.0
  0
VERTEX
  5
457
  8
0
 10
16.160758
 20
-0.3966349999999998
 30
0.0
  0
VERTEX
  5
458
  8
0
 10
16.208926
 20
-0.5419299999999998
 30
0.0
  0
VERTEX
  5
459
  8
0
 10
16.270022
 20
-0.6833329999999999
 30
0.0
  0
VERTEX
  5
45A
  8
0
 10
16.34373
 20
-0.8196909999999997
 30
0.0
  0
VERTEX
  5
45B
  8
0
 10
16.429632
 20
-0.9498759999999997
 30
0.0
  0
VERTEX
  5
45C
  8
0
 10
16.527208
 20
-1.072792
 30
0.0
  0
VERTEX
  5
45D
  8
0
 10
16.63584
 20
-1.187392
 30
0.0
  0
VERTEX
  5
45E
  8
0
 10
16.754816
 20
-1.292677
 30
0.0
  0
VERTEX
  5
45F
  8
0
 10
16.883333
 20
-1.387713
 30
0.0
  0
VERTEX
  5
460
  8
0
 10
17.020504
 20
-1.471634
 30
0.0
  0
VERTEX
  5
461
  8
0
 10
17.165363
 20
-1.543652
 30
0.0
  0
VERTEX
  5
462
  8
0
 10
17.316871
 20
-1.603062
 30
0.0
  0
VERTEX
  5
463
  8
0
 10
17.473927
 20
-1.64925
 30
0.0
  0
VERTEX
  5
464
  8
0
 10
17.635372
 20
-1.681701
 30
0.0
  0
VERTEX
  5
465
  8
0
 10
17.8
 20
-1.7
 30
0.0
  0
VERTEX
  5
466
  8
0
 10
17.966564
 20
-1.703839
 30
0.0
  0
VERTEX
  5
467
  8
0
 10
18.13379
 20
-1.693019
 30
0.0
  0
VERTEX
  5
468
  8
0
 10
18.300383
 20
-1.667457
 30
0.0
  0
VERTEX
  5
469
  8
0
 10
18.465039
 20
-1.62718
 30
0.0
  0
VERTEX
  5
46A
  8
0
 10
18.626453
 20
-1.572335
 30
0.0
  0
VERTEX
  5
46B
  8
0
 10
18.783333
 20
-1.503183
 30
0.0
  0
VERTEX
  5
46C
  8
0
 10
18.934407
 20
-1.420101
 30
0.0
  0
VERTEX
  5
46D
  8
0
 10
19.078433
 20
-1.323577
 30
0.0
  0
VERTEX
  5
46E
  8
0
 10
19.214214
 20
-1.214214
 30
0.0
  0
VERTEX
  5
46F
  8
0
 10
19.3406
 20
-1.092717
 30
0.0
  0
VERTEX
  5
470
  8
0
 10
19.456507
 20
-0.9598989999999998
 30
0.0
  0
VERTEX
  5
471
  8
0
 10
19.560918
 20
-0.8166669999999998
 30
0.0
  0
VERTEX
  5
472
  8
0
 10
19.652896
 20
-0.6640199999999998
 30
0.0
  0
VERTEX
  5
473
  8
0
 10
19.73159
 20
-0.5030409999999998
 30
0.0
  0
VERTEX
  5
474
  8
0
 10
19.796247
 20
-0.3348929999999998
 30
0.0
  0
VERTEX
  5
475
  8
0
 10
19.846212
 20
-0.1608019999999998
 30
0.0
  0
VERTEX
  5
476
  8
0
 10
19.88094
 20
0.0179410000000002
 30
0.0
  0
VERTEX
  5
477
  8
0
 10
19.9
 20
0.2000000000000002
 30
0.0
  0
VERTEX
  5
478
  8
0
 10
19.903078
 20
0.3839950000000002
 30
0.0
  0
VERTEX
  5
479
  8
0
 10
19.889981
 20
0.5685200000000001
 30
0.0
  0
VERTEX
  5
47A
  8
0
 10
19.860642
 20
0.7521470000000002
 30
0.0
  0
VERTEX
  5
47B
  8
0
 10
19.815119
 20
0.9334430000000001
 30
0.0
  0
VERTEX
  5
47C
  8
0
 10
19.753597
 20
1.110977
 30
0.0
  0
VERTEX
  5
47D
  8
0
 10
19.676388
 20
1.283333
 30
0.0
  0
VERTEX
  5
47E
  8
0
 10
19.583931
 20
1.449122
 30
0.0
  0
VERTEX
  5
47F
  8
0
 10
19.476786
 20
1.606991
 30
0.0
  0
VERTEX
  5
480
  8
0
 10
19.355635
 20
1.755635
 30
0.0
  0
VERTEX
  5
481
  8
0
 10
19.221275
 20
1.893809
 30
0.0
  0
VERTEX
  5
482
  8
0
 10
19.074614
 20
2.020338
 30
0.0
  0
VERTEX
  5
483
  8
0
 10
18.916667
 20
2.134123
 30
0.0
  0
VERTEX
  5
484
  8
0
 10
18.748543
 20
2.234157
 30
0.0
  0
VERTEX
  5
485
  8
0
 10
18.571445
 20
2.319529
 30
0.0
  0
VERTEX
  5
486
  8
0
 10
18.386657
 20
2.389432
 30
0.0
  0
VERTEX
  5
487
  8
0
 10
18.195532
 20
2.443173
 30
0.0
  0
VERTEX
  5
488
  8
0
 10
17.99949
 20
2.480179
 30
0.0
  0
VERTEX
  5
489
  8
0
 10
17.8
 20
2.5
 30
0.0
  0
VERTEX
  5
48A
  8
0
 10
17.598573
 20
2.502317
 30
0.0
  0
VERTEX
  5
48B
  8
0
 10
17.39675
 20
2.486942
 30
0.0
  0
VERTEX
  5
48C
  8
0
 10
17.196089
 20
2.453827
 30
0.0
  0
VERTEX
  5
48D
  8
0
 10
16.998153
 20
2.403057
 30
0.0
  0
VERTEX
  5
48E
  8
0
 10
16.804499
 20
2.334858
 30
0.0
  0
VERTEX
  5
48F
  8
0
 10
16.616667
 20
2.249593
 30
0.0
  0
VERTEX
  5
490
  8
0
 10
16.436163
 20
2.147762
 30
0.0
  0
VERTEX
  5
491
  8
0
 10
16.264452
 20
2.029995
 30
0.0
  0
VERTEX
  5
492
  8
0
 10
16.102944
 20
1.897056
 30
0.0
  0
VERTEX
  5
493
  8
0
 10
15.952982
 20
1.749832
 30
0.0
  0
VERTEX
  5
494
  8
0
 10
15.815832
 20
1.58933
 30
0.0
  0
VERTEX
  5
495
  8
0
 10
15.692672
 20
1.416667
 30
0.0
  0
VERTEX
  5
496
  8
0
 10
15.584581
 20
1.233067
 30
0.0
  0
VERTEX
  5
497
  8
0
 10
15.492533
 20
1.039849
 30
0.0
  0
VERTEX
  5
498
  8
0
 10
15.417383
 20
0.8384200000000002
 30
0.0
  0
VERTEX
  5
499
  8
0
 10
15.359865
 20
0.6302620000000001
 30
0.0
  0
VERTEX
  5
49A
  8
0
 10
15.320582
 20
0.4169210000000002
 30
0.0
  0
VERTEX
  5
49B
  8
0
 10
15.3
 20
0.2000000000000002
 30
0.0
  0
VERTEX
  5
49C
  8
0
 10
15.298444
 20
-0.0188579999999998
 30
0.0
  0
VERTEX
  5
49D
  8
0
 10
15.316096
 20
-0.2379789999999998
 30
0.0
  0
VERTEX
  5
49E
  8
0
 10
15.352988
 20
-0.4556749999999998
 30
0.0
  0
VERTEX
  5
49F
  8
0
 10
15.409004
 20
-0.6702509999999998
 30
0.0
  0
VERTEX
  5
4A0
  8
0
 10
15.48388
 20
-0.8800239999999999
 30
0.0
  0
VERTEX
  5
4A1
  8
0
 10
15.577201
 20
-1.083333
 30
0.0
  0
VERTEX
  5
4A2
  8
0
 10
15.688408
 20
-1.278553
 30
0.0
  0
VERTEX
  5
4A3
  8
0
 10
15.816796
 20
-1.464106
 30
0.0
  0
VERTEX
  5
4A4
  8
0
 10
15.961522
 20
-1.638478
 30
0.0
  0
VERTEX
  5
4A5
  8
0
 10
16.12161
 20
-1.800227
 30
0.0
  0
VERTEX
  5
4A6
  8
0
 10
16.295955
 20
-1.947999
 30
0.0
  0
VERTEX
  5
4A7
  8
0
 10
16.483333
 20
-2.080534
 30
0.0
  0
VERTEX
  5
4A8
  8
0
 10
16.682409
 20
-2.196681
 30
0.0
  0
VERTEX
  5
4A9
  8
0
 10
16.891747
 20
-2.295406
 30
0.0
  0
VERTEX
  5
4AA
  8
0
 10
17.109816
 20
-2.375802
 30
0.0
  0
VERTEX
  5
4AB
  8
0
 10
17.335009
 20
-2.437096
 30
0.0
  0
VERTEX
  5
4AC
  8
0
 10
17.565648
 20
-2.478657
 30
0.0
  0
VERTEX
  5
4AD
  8
0
 10
17.8
 20
-2.5
 30
0.0
  0
VERTEX
  5
4AE
  8
0
 10
18.036289
 20
-2.500795
 30
0.0
  0
VERTEX
  5
4AF
  8
0
 10
18.272709
 20
-2.480866
 30
0.0
  0
VERTEX
  5
4B0
  8
0
 10
18.507439
 20
-2.440197
 30
0.0
  0
VERTEX
  5
4B1
  8
0
 10
18.738655
 20
-2.378934
 30
0.0
  0
VERTEX
  5
4B2
  8
0
 10
18.964548
 20
-2.297381
 30
0.0
  0
VERTEX
  5
4B3
  8
0
 10
19.183333
 20
-2.196004
 30
0.0
  0
VERTEX
  5
4B4
  8
0
 10
19.393268
 20
-2.075422
 30
0.0
  0
VERTEX
  5
4B5
  8
0
 10
19.592663
 20
-1.936413
 30
0.0
  0
VERTEX
  5
4B6
  8
0
 10
19.779899
 20
-1.779899
 30
0.0
  0
VERTEX
  5
4B7
  8
0
 10
19.953436
 20
-1.606947
 30
0.0
  0
VERTEX
  5
4B8
  8
0
 10
20.111829
 20
-1.41876
 30
0.0
  0
VERTEX
  5
4B9
  8
0
 10
20.253739
 20
-1.216667
 30
0.0
  0
VERTEX
  5
4BA
  8
0
 10
20.377942
 20
-1.002114
 30
0.0
  0
VERTEX
  5
4BB
  8
0
 10
20.483344
 20
-0.7766579999999998
 30
0.0
  0
VERTEX
  5
4BC
  8
0
 10
20.568987
 20
-0.5419479999999999
 30
0.0
  0
VERTEX
  5
4BD
  8
0
 10
20.634058
 20
-0.2997209999999998
 30
0.0
  0
VERTEX
  5
4BE
  8
0
 10
20.677896
 20
-0.0517829999999998
 30
0.0
  0
VERTEX
  5
4BF
  8
0
 10
20.7
 20
0.2000000000000002
 30
0.0
  0
VERTEX
  5
4C0
  8
0
 10
20.700033
 20
0.4537200000000002
 30
0.0
  0
VERTEX
  5
4C1
  8
0
 10
20.677827
 20
0.7074390000000002
 30
0.0
  0
VERTEX
  5
4C2
  8
0
 10
20.633382
 20
0.9592030000000001
 30
0.0
  0
VERTEX
  5
4C3
  8
0
 10
20.566873
 20
1.207059
 30
0.0
  0
VERTEX
  5
4C4
  8
0
 10
20.478643
 20
1.449072
 30
0.0
  0
VERTEX
  5
4C5
  8
0
 10
20.369209
 20
1.683333
 30
0.0
  0
VERTEX
  5
4C6
  8
0
 10
20.239253
 20
1.907983
 30
0.0
  0
VERTEX
  5
4C7
  8
0
 10
20.089622
 20
2.121221
 30
0.0
  0
VERTEX
  5
4C8
  8
0
 10
19.92132
 20
2.32132
 30
0.0
  0
VERTEX
  5
4C9
  8
0
 10
19.735505
 20
2.506645
 30
0.0
  0
VERTEX
  5
4CA
  8
0
 10
19.533475
 20
2.67566
 30
0.0
  0
VERTEX
  5
4CB
  8
0
 10
19.316667
 20
2.826944
 30
0.0
  0
VERTEX
  5
4CC
  8
0
 10
19.086638
 20
2.959204
 30
0.0
  0
VERTEX
  5
4CD
  8
0
 10
18.845062
 20
3.071283
 30
0.0
  0
VERTEX
  5
4CE
  8
0
 10
18.593712
 20
3.162173
 30
0.0
  0
VERTEX
  5
4CF
  8
0
 10
18.334451
 20
3.231019
 30
0.0
  0
VERTEX
  5
4D0
  8
0
 10
18.069214
 20
3.277135
 30
0.0
  0
VERTEX
  5
4D1
  8
0
 10
17.8
 20
3.3
 30
0.0
  0
VERTEX
  5
4D2
  8
0
 10
17.528849
 20
3.299272
 30
0.0
  0
VERTEX
  5
4D3
  8
0
 10
17.257832
 20
3.274789
 30
0.0
  0
VERTEX
  5
4D4
  8
0
 10
16.989034
 20
3.226568
 30
0.0
  0
VERTEX
  5
4D5
  8
0
 10
16.724537
 20
3.154811
 30
0.0
  0
VERTEX
  5
4D6
  8
0
 10
16.466405
 20
3.059905
 30
0.0
  0
VERTEX
  5
4D7
  8
0
 10
16.216667
 20
2.942414
 30
0.0
  0
VERTEX
  5
4D8
  8
0
 10
15.977302
 20
2.803083
 30
0.0
  0
VERTEX
  5
4D9
  8
0
 10
15.750222
 20
2.642831
 30
0.0
  0
VERTEX
  5
4DA
  8
0
 10
15.537258
 20
2.462742
 30
0.0
  0
VERTEX
  5
4DB
  8
0
 10
15.340146
 20
2.264062
 30
0.0
  0
VERTEX
  5
4DC
  8
0
 10
15.16051
 20
2.048191
 30
0.0
  0
VERTEX
  5
4DD
  8
0
 10
14.999851
 20
1.816667
 30
0.0
  0
VERTEX
  5
4DE
  8
0
 10
14.859535
 20
1.571161
 30
0.0
  0
VERTEX
  5
4DF
  8
0
 10
14.740778
 20
1.313466
 30
0.0
  0
VERTEX
  5
4E0
  8
0
 10
14.644642
 20
1.045476
 30
0.0
  0
VERTEX
  5
4E1
  8
0
 10
14.572019
 20
0.7691800000000002
 30
0.0
  0
VERTEX
  5
4E2
  8
0
 10
14.523626
 20
0.4866460000000002
 30
0.0
  0
VERTEX
  5
4E3
  8
0
 10
14.5
 20
0.2000000000000002
 30
0.0
  0
VERTEX
  5
4E4
  8
0
 10
14.501489
 20
-0.0885819999999998
 30
0.0
  0
VERTEX
  5
4E5
  8
0
 10
14.52825
 20
-0.3768979999999998
 30
0.0
  0
VERTEX
  5
4E6
  8
0
 10
14.580247
 20
-0.6627299999999998
 30
0.0
  0
VERTEX
  5
4E7
  8
0
 10
14.65725
 20
-0.9438669999999998
 30
0.0
  0
VERTEX
  5
4E8
  8
0
 10
14.758834
 20
-1.218119
 30
0.0
  0
VERTEX
  5
4E9
  8
0
 10
14.884381
 20
-1.483333
 30
0.0
  0
VERTEX
  5
4EA
  8
0
 10
15.033086
 20
-1.737414
 30
0.0
  0
VERTEX
  5
4EB
  8
0
 10
15.20396
 20
-1.978336
 30
0.0
  0
VERTEX
  5
4EC
  8
0
 10
15.395837
 20
-2.204163
 30
0.0
  0
VERTEX
  5
4ED
  8
0
 10
15.60738
 20
-2.413063
 30
0.0
  0
VERTEX
  5
4EE
  8
0
 10
15.837094
 20
-2.60332
 30
0.0
  0
VERTEX
  5
4EF
  8
0
 10
16.083333
 20
-2.773354
 30
0.0
  0
VERTEX
  5
4F0
  8
0
 10
16.344315
 20
-2.921727
 30
0.0
  0
VERTEX
  5
4F1
  8
0
 10
16.61813
 20
-3.04716
 30
0.0
  0
VERTEX
  5
4F2
  8
0
 10
16.902761
 20
-3.148543
 30
0.0
  0
VERTEX
  5
4F3
  8
0
 10
17.19609
 20
-3.224943
 30
0.0
  0
VERTEX
  5
4F4
  8
0
 10
17.495923
 20
-3.275613
 30
0.0
  0
VERTEX
  5
4F5
  8
0
 10
17.8
 20
-3.3
 30
0.0
  0
VERTEX
  5
4F6
  8
0
 10
18.106013
 20
-3.29775
 30
0.0
  0
VERTEX
  5
4F7
  8
0
 10
18.411627
 20
-3.268712
 30
0.0
  0
VERTEX
  5
4F8
  8
0
 10
18.714494
 20
-3.212938
 30
0.0
  0
VERTEX
  5
4F9
  8
0
 10
19.012271
 20
-3.130688
 30
0.0
  0
VERTEX
  5
4FA
  8
0
 10
19.302643
 20
-3.022428
 30
0.0
  0
VERTEX
  5
4FB
  8
0
 10
19.583333
 20
-2.888824
 30
0.0
  0
VERTEX
  5
4FC
  8
0
 10
19.852129
 20
-2.730744
 30
0.0
  0
VERTEX
  5
4FD
  8
0
 10
20.106893
 20
-2.549248
 30
0.0
  0
VERTEX
  5
4FE
  8
0
 10
20.345584
 20
-2.345584
 30
0.0
  0
VERTEX
  5
4FF
  8
0
 10
20.566272
 20
-2.121177
 30
0.0
  0
VERTEX
  5
500
  8
0
 10
20.767151
 20
-1.877621
 30
0.0
  0
VERTEX
  5
501
  8
0
 10
20.946559
 20
-1.616667
 30
0.0
  0
VERTEX
  5
502
  8
0
 10
21.102988
 20
-1.340209
 30
0.0
  0
VERTEX
  5
503
  8
0
 10
21.235099
 20
-1.050274
 30
0.0
  0
VERTEX
  5
504
  8
0
 10
21.341728
 20
-0.7490029999999999
 30
0.0
  0
VERTEX
  5
505
  8
0
 10
21.421904
 20
-0.4386389999999998
 30
0.0
  0
VERTEX
  5
506
  8
0
 10
21.474852
 20
-0.1215079999999998
 30
0.0
  0
VERTEX
  5
507
  8
0
 10
21.5
 20
0.2000000000000002
 30
0.0
  0
VERTEX
  5
508
  8
0
 10
21.496989
 20
0.5234450000000002
 30
0.0
  0
VERTEX
  5
509
  8
0
 10
21.465673
 20
0.8463570000000001
 30
0.0
  0
VERTEX
  5
50A
  8
0
 10
21.406123
 20
1.166258
 30
0.0
  0
VERTEX
  5
50B
  8
0
 10
21.318627
 20
1.480675
 30
0.0
  0
VERTEX
  5
50C
  8
0
 10
21.203689
 20
1.787166
 30
0.0
  0
VERTEX
  5
50D
  8
0
 10
21.062029
 20
2.083333
 30
0.0
  0
VERTEX
  5
50E
  8
0
 10
20.894574
 20
2.366844
 30
0.0
  0
VERTEX
  5
50F
  8
0
 10
20.702457
 20
2.635451
 30
0.0
  0
VERTEX
  5
510
  8
0
 10
20.487006
 20
2.887006
 30
0.0
  0
VERTEX
  5
511
  8
0
 10
20.249735
 20
3.11948
 30
0.0
  0
VERTEX
  5
512
  8
0
 10
19.992337
 20
3.330981
 30
0.0
  0
VERTEX
  5
513
  8
0
 10
19.716667
 20
3.519764
 30
0.0
  0
VERTEX
  5
514
  8
0
 10
19.424732
 20
3.68425
 30
0.0
  0
VERTEX
  5
515
  8
0
 10
19.118678
 20
3.823037
 30
0.0
  0
VERTEX
  5
516
  8
0
 10
18.800767
 20
3.934913
 30
0.0
  0
VERTEX
  5
517
  8
0
 10
18.473369
 20
4.018866
 30
0.0
  0
VERTEX
  5
518
  8
0
 10
18.138939
 20
4.07409
 30
0.0
  0
VERTEX
  5
519
  8
0
 10
17.8
 20
4.1
 30
0.0
  0
VERTEX
  5
51A
  8
0
 10
17.459124
 20
4.096228
 30
0.0
  0
VERTEX
  5
51B
  8
0
 10
17.118913
 20
4.062635
 30
0.0
  0
VERTEX
  5
51C
  8
0
 10
16.781978
 20
3.999308
 30
0.0
  0
VERTEX
  5
51D
  8
0
 10
16.450921
 20
3.906565
 30
0.0
  0
VERTEX
  5
51E
  8
0
 10
16.12831
 20
3.784951
 30
0.0
  0
VERTEX
  5
51F
  8
0
 10
15.816667
 20
3.635234
 30
0.0
  0
VERTEX
  5
520
  8
0
 10
15.51844
 20
3.458405
 30
0.0
  0
VERTEX
  5
521
  8
0
 10
15.235992
 20
3.255666
 30
0.0
  0
VERTEX
  5
522
  8
0
 10
14.971573
 20
3.028427
 30
0.0
  0
VERTEX
  5
523
  8
0
 10
14.727311
 20
2.778293
 30
0.0
  0
VERTEX
  5
524
  8
0
 10
14.505188
 20
2.507052
 30
0.0
  0
VERTEX
  5
525
  8
0
 10
14.307031
 20
2.216667
 30
0.0
  0
VERTEX
  5
526
  8
0
 10
14.134489
 20
1.909256
 30
0.0
  0
VERTEX
  5
527
  8
0
 10
13.989024
 20
1.587082
 30
0.0
  0
VERTEX
  5
528
  8
0
 10
13.871902
 20
1.252531
 30
0.0
  0
VERTEX
  5
529
  8
0
 10
13.784173
 20
0.9080990000000002
 30
0.0
  0
VERTEX
  5
52A
  8
0
 10
13.726671
 20
0.5563700000000003
 30
0.0
  0
VERTEX
  5
52B
  8
0
 10
13.7
 20
0.2000000000000002
 30
0.0
  0
VERTEX
  5
52C
  8
0
 10
13.704533
 20
-0.1583069999999998
 30
0.0
  0
VERTEX
  5
52D
  8
0
 10
13.740404
 20
-0.5158159999999998
 30
0.0
  0
VERTEX
  5
52E
  8
0
 10
13.807507
 20
-0.8697849999999998
 30
0.0
  0
VERTEX
  5
52F
  8
0
 10
13.905496
 20
-1.217483
 30
0.0
  0
VERTEX
  5
530
  8
0
 10
14.033788
 20
-1.556214
 30
0.0
  0
VERTEX
  5
531
  8
0
 10
14.191561
 20
-1.883333
 30
0.0
  0
VERTEX
  5
532
  8
0
 10
14.377765
 20
-2.196275
 30
0.0
  0
VERTEX
  5
533
  8
0
 10
14.591125
 20
-2.492566
 30
0.0
  0
VERTEX
  5
534
  8
0
 10
14.830152
 20
-2.769848
 30
0.0
  0
VERTEX
  5
535
  8
0
 10
15.09315
 20
-3.025898
 30
0.0
  0
VERTEX
  5
536
  8
0
 10
15.378233
 20
-3.258642
 30
0.0
  0
VERTEX
  5
537
  8
0
 10
15.683333
 20
-3.466174
 30
0.0
  0
VERTEX
  5
538
  8
0
 10
16.00622
 20
-3.646773
 30
0.0
  0
VERTEX
  5
539
  8
0
 10
16.344514
 20
-3.798914
 30
0.0
  0
VERTEX
  5
53A
  8
0
 10
16.695705
 20
-3.921284
 30
0.0
  0
VERTEX
  5
53B
  8
0
 10
17.057172
 20
-4.012789
 30
0.0
  0
VERTEX
  5
53C
  8
0
 10
17.426199
 20
-4.072568
 30
0.0
  0
VERTEX
  5
53D
  8
0
 10
17.8
 20
-4.1
 30
0.0
  0
VERTEX
  5
53E
  8
0
 10
18.175738
 20
-4.094706
 30
0.0
  0
VERTEX
  5
53F
  8
0
 10
18.550546
 20
-4.056558
 30
0.0
  0
VERTEX
  5
540
  8
0
 10
18.921549
 20
-3.985679
 30
0.0
  0
VERTEX
  5
541
  8
0
 10
19.285888
 20
-3.882442
 30
0.0
  0
VERTEX
  5
542
  8
0
 10
19.640737
 20
-3.747474
 30
0.0
  0
VERTEX
  5
543
  8
0
 10
19.983333
 20
-3.581644
 30
0.0
  0
VERTEX
  5
544
  8
0
 10
20.31099
 20
-3.386066
 30
0.0
  0
VERTEX
  5
545
  8
0
 10
20.621123
 20
-3.162084
 30
0.0
  0
VERTEX
  5
546
  8
0
 10
20.91127
 20
-2.91127
 30
0.0
  0
VERTEX
  5
547
  8
0
 10
21.179107
 20
-2.635408
 30
0.0
  0
VERTEX
  5
548
  8
0
 10
21.422472
 20
-2.336482
 30
0.0
  0
VERTEX
  5
549
  8
0
 10
21.639379
 20
-2.016667
 30
0.0
  0
VERTEX
  5
54A
  8
0
 10
21.828035
 20
-1.678303
 30
0.0
  0
VERTEX
  5
54B
  8
0
 10
21.986853
 20
-1.32389
 30
0.0
  0
VERTEX
  5
54C
  8
0
 10
22.114469
 20
-0.9560579999999999
 30
0.0
  0
VERTEX
  5
54D
  8
0
 10
22.20975
 20
-0.5775579999999998
 30
0.0
  0
VERTEX
  5
54E
  8
0
 10
22.271807
 20
-0.1912319999999998
 30
0.0
  0
VERTEX
  5
54F
  8
0
 10
22.3
 20
0.2000000000000002
 30
0.0
  0
VERTEX
  5
550
  8
0
 10
22.293945
 20
0.5931690000000002
 30
0.0
  0
VERTEX
  5
551
  8
0
 10
22.25352
 20
0.9852760000000002
 30
0.0
  0
VERTEX
  5
552
  8
0
 10
22.178864
 20
1.373313
 30
0.0
  0
VERTEX
  5
553
  8
0
 10
22.070381
 20
1.754292
 30
0.0
  0
VERTEX
  5
554
  8
0
 10
21.928735
 20
2.125261
 30
0.0
  0
VERTEX
  5
555
  8
0
 10
21.754849
 20
2.483333
 30
0.0
  0
VERTEX
  5
556
  8
0
 10
21.549896
 20
2.825705
 30
0.0
  0
VERTEX
  5
557
  8
0
 10
21.315293
 20
3.149681
 30
0.0
  0
VERTEX
  5
558
  8
0
 10
21.052691
 20
3.452691
 30
0.0
  0
VERTEX
  5
559
  8
0
 10
20.763965
 20
3.732316
 30
0.0
  0
VERTEX
  5
55A
  8
0
 10
20.451198
 20
3.986303
 30
0.0
  0
VERTEX
  5
55B
  8
0
 10
20.116667
 20
4.212584000000001
 30
0.0
  0
VERTEX
  5
55C
  8
0
 10
19.762827
 20
4.409296
 30
0.0
  0
VERTEX
  5
55D
  8
0
 10
19.392294
 20
4.574791
 30
0.0
  0
VERTEX
  5
55E
  8
0
 10
19.007822
 20
4.707654
 30
0.0
  0
VERTEX
  5
55F
  8
0
 10
18.612288
 20
4.806712
 30
0.0
  0
VERTEX
  5
560
  8
0
 10
18.208664
 20
4.871046
 30
0.0
  0
VERTEX
  5
561
  8
0
 10
17.8
 20
4.9
 30
0.0
  0
VERTEX
  5
562
  8
0
 10
17.3894
 20
4.893184
 30
0.0
  0
VERTEX
  5
563
  8
0
 10
16.979995
 20
4.850481
 30
0.0
  0
VERTEX
  5
564
  8
0
 10
16.574923
 20
4.772049
 30
0.0
  0
VERTEX
  5
565
  8
0
 10
16.177304
 20
4.658319000000001
 30
0.0
  0
VERTEX
  5
566
  8
0
 10
15.790215
 20
4.509997
 30
0.0
  0
VERTEX
  5
567
  8
0
 10
15.416667
 20
4.328054
 30
0.0
  0
VERTEX
  5
568
  8
0
 10
15.059579
 20
4.113726
 30
0.0
  0
VERTEX
  5
569
  8
0
 10
14.721762
 20
3.868502
 30
0.0
  0
VERTEX
  5
56A
  8
0
 10
14.405887
 20
3.594113
 30
0.0
  0
VERTEX
  5
56B
  8
0
 10
14.114475
 20
3.292523
 30
0.0
  0
VERTEX
  5
56C
  8
0
 10
13.849867
 20
2.965913
 30
0.0
  0
VERTEX
  5
56D
  8
0
 10
13.614211
 20
2.616667
 30
0.0
  0
VERTEX
  5
56E
  8
0
 10
13.409442
 20
2.247351
 30
0.0
  0
VERTEX
  5
56F
  8
0
 10
13.23727
 20
1.860698
 30
0.0
  0
VERTEX
  5
570
  8
0
 10
13.099161
 20
1.459586
 30
0.0
  0
VERTEX
  5
571
  8
0
 10
12.996327
 20
1.047017
 30
0.0
  0
VERTEX
  5
572
  8
0
 10
12.929715
 20
0.6260950000000002
 30
0.0
  0
VERTEX
  5
573
  8
0
 10
12.9
 20
0.2000000000000002
 30
0.0
  0
VERTEX
  5
574
  8
0
 10
12.907577
 20
-0.2280319999999998
 30
0.0
  0
VERTEX
  5
575
  8
0
 10
12.952557
 20
-0.6547349999999998
 30
0.0
  0
VERTEX
  5
576
  8
0
 10
13.034766
 20
-1.076841
 30
0.0
  0
VERTEX
  5
577
  8
0
 10
13.153742
 20
-1.4911
 30
0.0
  0
VERTEX
  5
578
  8
0
 10
13.308741
 20
-1.894308
 30
0.0
  0
VERTEX
  5
579
  8
0
 10
13.49874
 20
-2.283333
 30
0.0
  0
VERTEX
  5
57A
  8
0
 10
13.722443
 20
-2.655136
 30
0.0
  0
VERTEX
  5
57B
  8
0
 10
13.978289
 20
-3.006796
 30
0.0
  0
VERTEX
  5
57C
  8
0
 10
14.264466
 20
-3.335534
 30
0.0
  0
VERTEX
  5
57D
  8
0
 10
14.57892
 20
-3.638734
 30
0.0
  0
VERTEX
  5
57E
  8
0
 10
14.919372
 20
-3.913964
 30
0.0
  0
VERTEX
  5
57F
  8
0
 10
15.283333
 20
-4.158995
 30
0.0
  0
VERTEX
  5
580
  8
0
 10
15.668126
 20
-4.371818999999999
 30
0.0
  0
VERTEX
  5
581
  8
0
 10
16.070898
 20
-4.550668
 30
0.0
  0
VERTEX
  5
582
  8
0
 10
16.48865
 20
-4.694024
 30
0.0
  0
VERTEX
  5
583
  8
0
 10
16.918253
 20
-4.800635
 30
0.0
  0
VERTEX
  5
584
  8
0
 10
17.356474
 20
-4.869524
 30
0.0
  0
VERTEX
  5
585
  8
0
 10
17.8
 20
-4.899999999999999
 30
0.0
  0
VERTEX
  5
586
  8
0
 10
18.245463
 20
-4.891662
 30
0.0
  0
VERTEX
  5
587
  8
0
 10
18.689465
 20
-4.844404
 30
0.0
  0
VERTEX
  5
588
  8
0
 10
19.128604
 20
-4.758419
 30
0.0
  0
VERTEX
  5
589
  8
0
 10
19.559504
 20
-4.634196
 30
0.0
  0
VERTEX
  5
58A
  8
0
 10
19.978832
 20
-4.472519999999999
 30
0.0
  0
VERTEX
  5
58B
  8
0
 10
20.383333
 20
-4.274465
 30
0.0
  0
VERTEX
  5
58C
  8
0
 10
20.769851
 20
-4.041386999999999
 30
0.0
  0
VERTEX
  5
58D
  8
0
 10
21.135353
 20
-3.774919
 30
0.0
  0
VERTEX
  5
58E
  8
0
 10
21.476955
 20
-3.476955
 30
0.0
  0
VERTEX
  5
58F
  8
0
 10
21.791943
 20
-3.149638
 30
0.0
  0
VERTEX
  5
590
  8
0
 10
22.077794
 20
-2.795344
 30
0.0
  0
VERTEX
  5
591
  8
0
 10
22.3322
 20
-2.416667
 30
0.0
  0
VERTEX
  5
592
  8
0
 10
22.553081
 20
-2.016398
 30
0.0
  0
VERTEX
  5
593
  8
0
 10
22.738607
 20
-1.597506
 30
0.0
  0
VERTEX
  5
594
  8
0
 10
22.887209
 20
-1.163114
 30
0.0
  0
VERTEX
  5
595
  8
0
 10
22.997596
 20
-0.7164759999999998
 30
0.0
  0
VERTEX
  5
596
  8
0
 10
23.068763
 20
-0.2609569999999998
 30
0.0
  0
VERTEX
  5
597
  8
0
 10
23.1
 20
0.2000000000000002
 30
0.0
  0
VERTEX
  5
598
  8
0
 10
23.090901
 20
0.6628940000000002
 30
0.0
  0
VERTEX
  5
599
  8
0
 10
23.041366
 20
1.124194
 30
0.0
  0
VERTEX
  5
59A
  8
0
 10
22.951604
 20
1.580368
 30
0.0
  0
VERTEX
  5
59B
  8
0
 10
22.822135
 20
2.027908
 30
0.0
  0
VERTEX
  5
59C
  8
0
 10
22.653782
 20
2.463356
 30
0.0
  0
VERTEX
  5
59D
  8
0
 10
22.44767
 20
2.883333
 30
0.0
  0
VERTEX
  5
59E
  8
0
 10
22.205218
 20
3.284567
 30
0.0
  0
VERTEX
  5
59F
  8
0
 10
21.928128
 20
3.663911
 30
0.0
  0
VERTEX
  5
5A0
  8
0
 10
21.618377
 20
4.018377
 30
0.0
  0
VERTEX
  5
5A1
  8
0
 10
21.278195
 20
4.345152000000001
 30
0.0
  0
VERTEX
  5
5A2
  8
0
 10
20.910059
 20
4.641624
 30
0.0
  0
VERTEX
  5
5A3
  8
0
 10
20.516667
 20
4.905405
 30
0.0
  0
VERTEX
  5
5A4
  8
0
 10
20.100922
 20
5.134342
 30
0.0
  0
VERTEX
  5
5A5
  8
0
 10
19.66591
 20
5.326545
 30
0.0
  0
VERTEX
  5
5A6
  8
0
 10
19.214877
 20
5.480395000000001
 30
0.0
  0
VERTEX
  5
5A7
  8
0
 10
18.751206
 20
5.594558
 30
0.0
  0
VERTEX
  5
5A8
  8
0
 10
18.278388
 20
5.668002
 30
0.0
  0
VERTEX
  5
5A9
  8
0
 10
17.8
 20
5.7
 30
0.0
  0
VERTEX
  5
5AA
  8
0
 10
17.319675
 20
5.69014
 30
0.0
  0
VERTEX
  5
5AB
  8
0
 10
16.841076
 20
5.638327
 30
0.0
  0
VERTEX
  5
5AC
  8
0
 10
16.367868
 20
5.54479
 30
0.0
  0
VERTEX
  5
5AD
  8
0
 10
15.903688
 20
5.410074
 30
0.0
  0
VERTEX
  5
5AE
  8
0
 10
15.452121
 20
5.235043
 30
0.0
  0
VERTEX
  5
5AF
  8
0
 10
15.016667
 20
5.020875
 30
0.0
  0
VERTEX
  5
5B0
  8
0
 10
14.600718
 20
4.769048000000001
 30
0.0
  0
VERTEX
  5
5B1
  8
0
 10
14.207531
 20
4.481337
 30
0.0
  0
VERTEX
  5
5B2
  8
0
 10
13.840202
 20
4.159798
 30
0.0
  0
VERTEX
  5
5B3
  8
0
 10
13.50164
 20
3.806753
 30
0.0
  0
VERTEX
  5
5B4
  8
0
 10
13.194545
 20
3.424774
 30
0.0
  0
VERTEX
  5
5B5
  8
0
 10
12.92139
 20
3.016667
 30
0.0
  0
VERTEX
  5
5B6
  8
0
 10
12.684396
 20
2.585445
 30
0.0
  0
VERTEX
  5
5B7
  8
0
 10
12.485516
 20
2.134314
 30
0.0
  0
VERTEX
  5
5B8
  8
0
 10
12.32642
 20
1.666641
 30
0.0
  0
VERTEX
  5
5B9
  8
0
 10
12.20848
 20
1.185936
 30
0.0
  0
VERTEX
  5
5BA
  8
0
 10
12.132759
 20
0.6958190000000002
 30
0.0
  0
VERTEX
  5
5BB
  8
0
 10
12.1
 20
0.2000000000000002
 30
0.0
  0
VERTEX
  5
5BC
  8
0
 10
12.110621
 20
-0.2977559999999998
 30
0.0
  0
VERTEX
  5
5BD
  8
0
 10
12.164711
 20
-0.7936529999999998
 30
0.0
  0
VERTEX
  5
5BE
  8
0
 10
12.262025
 20
-1.283896
 30
0.0
  0
VERTEX
  5
5BF
  8
0
 10
12.401988
 20
-1.764716
 30
0.0
  0
VERTEX
  5
5C0
  8
0
 10
12.583695
 20
-2.232403
 30
0.0
  0
VERTEX
  5
5C1
  8
0
 10
12.80592
 20
-2.683333
 30
0.0
  0
VERTEX
  5
5C2
  8
0
 10
13.067122
 20
-3.113997
 30
0.0
  0
VERTEX
  5
5C3
  8
0
 10
13.365454
 20
-3.521026
 30
0.0
  0
VERTEX
  5
5C4
  8
0
 10
13.698781
 20
-3.901219
 30
0.0
  0
VERTEX
  5
5C5
  8
0
 10
14.06469
 20
-4.251569
 30
0.0
  0
VERTEX
  5
5C6
  8
0
 10
14.460511
 20
-4.569285
 30
0.0
  0
VERTEX
  5
5C7
  8
0
 10
14.883333
 20
-4.851815
 30
0.0
  0
VERTEX
  5
5C8
  8
0
 10
15.330031
 20
-5.096865999999999
 30
0.0
  0
VERTEX
  5
5C9
  8
0
 10
15.797282
 20
-5.302422
 30
0.0
  0
VERTEX
  5
5CA
  8
0
 10
16.281595
 20
-5.466765
 30
0.0
  0
VERTEX
  5
5CB
  8
0
 10
16.779335
 20
-5.588481
 30
0.0
  0
VERTEX
  5
5CC
  8
0
 10
17.28675
 20
-5.66648
 30
0.0
  0
VERTEX
  5
5CD
  8
0
 10
17.8
 20
-5.7
 30
0.0
  0
VERTEX
  5
5CE
  8
0
 10
18.315187
 20
-5.688618
 30
0.0
  0
VERTEX
  5
5CF
  8
0
 10
18.828383
 20
-5.63225
 30
0.0
  0
VERTEX
  5
5D0
  8
0
 10
19.33566
 20
-5.53116
 30
0.0
  0
VERTEX
  5
5D1
  8
0
 10
19.83312
 20
-5.385950999999999
 30
0.0
  0
VERTEX
  5
5D2
  8
0
 10
20.316927
 20
-5.197566
 30
0.0
  0
VERTEX
  5
5D3
  8
0
 10
20.783333
 20
-4.967285
 30
0.0
  0
VERTEX
  5
5D4
  8
0
 10
21.228712
 20
-4.696709
 30
0.0
  0
VERTEX
  5
5D5
  8
0
 10
21.649584
 20
-4.387754999999999
 30
0.0
  0
VERTEX
  5
5D6
  8
0
 10
22.042641
 20
-4.042641
 30
0.0
  0
VERTEX
  5
5D7
  8
0
 10
22.404778
 20
-3.663868
 30
0.0
  0
VERTEX
  5
5D8
  8
0
 10
22.733116
 20
-3.254205
 30
0.0
  0
VERTEX
  5
5D9
  8
0
 10
23.02502
 20
-2.816667
 30
0.0
  0
VERTEX
  5
5DA
  8
0
 10
23.278127
 20
-2.354493
 30
0.0
  0
VERTEX
  5
5DB
  8
0
 10
23.490361
 20
-1.871122
 30
0.0
  0
VERTEX
  5
5DC
  8
0
 10
23.65995
 20
-1.370169
 30
0.0
  0
VERTEX
  5
5DD
  8
0
 10
23.785443
 20
-0.8553949999999999
 30
0.0
  0
VERTEX
  5
5DE
  8
0
 10
23.865719
 20
-0.3306819999999998
 30
0.0
  0
VERTEX
  5
5DF
  8
0
 10
23.9
 20
0.2000000000000002
 30
0.0
  0
VERTEX
  5
5E0
  8
0
 10
23.887856
 20
0.7326180000000002
 30
0.0
  0
VERTEX
  5
5E1
  8
0
 10
23.829212
 20
1.263113
 30
0.0
  0
VERTEX
  5
5E2
  8
0
 10
23.724345
 20
1.787423
 30
0.0
  0
VERTEX
  5
5E3
  8
0
 10
23.573889
 20
2.301524
 30
0.0
  0
VERTEX
  5
5E4
  8
0
 10
23.378828
 20
2.80145
 30
0.0
  0
VERTEX
  5
5E5
  8
0
 10
23.14049
 20
3.283333
 30
0.0
  0
VERTEX
  5
5E6
  8
0
 10
22.860539
 20
3.743428
 30
0.0
  0
VERTEX
  5
5E7
  8
0
 10
22.540964
 20
4.178141
 30
0.0
  0
VERTEX
  5
5E8
  8
0
 10
22.184062
 20
4.584062
 30
0.0
  0
VERTEX
  5
5E9
  8
0
 10
21.792425
 20
4.957987
 30
0.0
  0
VERTEX
  5
5EA
  8
0
 10
21.36892
 20
5.296946
 30
0.0
  0
VERTEX
  5
5EB
  8
0
 10
20.916667
 20
5.598225
 30
0.0
  0
VERTEX
  5
5EC
  8
0
 10
20.439016
 20
5.859389
 30
0.0
  0
VERTEX
  5
5ED
  8
0
 10
19.939526
 20
6.078299
 30
0.0
  0
VERTEX
  5
5EE
  8
0
 10
19.421933
 20
6.253135
 30
0.0
  0
VERTEX
  5
5EF
  8
0
 10
18.890125
 20
6.382404
 30
0.0
  0
VERTEX
  5
5F0
  8
0
 10
18.348113
 20
6.464958
 30
0.0
  0
VERTEX
  5
5F1
  8
0
 10
17.8
 20
6.5
 30
0.0
  0
VERTEX
  5
5F2
  8
0
 10
17.24995
 20
6.487095
 30
0.0
  0
VERTEX
  5
5F3
  8
0
 10
16.702158
 20
6.426173
 30
0.0
  0
VERTEX
  5
5F4
  8
0
 10
16.160813
 20
6.317530000000001
 30
0.0
  0
VERTEX
  5
5F5
  8
0
 10
15.630072
 20
6.161828
 30
0.0
  0
VERTEX
  5
5F6
  8
0
 10
15.114026
 20
5.960089
 30
0.0
  0
VERTEX
  5
5F7
  8
0
 10
14.616667
 20
5.713695
 30
0.0
  0
VERTEX
  5
5F8
  8
0
 10
14.141857
 20
5.424370000000001
 30
0.0
  0
VERTEX
  5
5F9
  8
0
 10
13.693301
 20
5.094173000000001
 30
0.0
  0
VERTEX
  5
5FA
  8
0
 10
13.274517
 20
4.725483000000001
 30
0.0
  0
VERTEX
  5
5FB
  8
0
 10
12.888804
 20
4.320983
 30
0.0
  0
VERTEX
  5
5FC
  8
0
 10
12.539224
 20
3.883635
 30
0.0
  0
VERTEX
  5
5FD
  8
0
 10
12.22857
 20
3.416667
 30
0.0
  0
VERTEX
  5
5FE
  8
0
 10
11.95935
 20
2.92354
 30
0.0
  0
VERTEX
  5
5FF
  8
0
 10
11.733762
 20
2.40793
 30
0.0
  0
VERTEX
  5
600
  8
0
 10
11.55368
 20
1.873696
 30
0.0
  0
VERTEX
  5
601
  8
0
 10
11.420634
 20
1.324854
 30
0.0
  0
VERTEX
  5
602
  8
0
 10
11.335803
 20
0.7655440000000002
 30
0.0
  0
VERTEX
  5
603
  8
0
 10
11.3
 20
0.2000000000000002
 30
0.0
  0
VERTEX
  5
604
  8
0
 10
11.313666
 20
-0.3674809999999998
 30
0.0
  0
VERTEX
  5
605
  8
0
 10
11.376865
 20
-0.9325719999999997
 30
0.0
  0
VERTEX
  5
606
  8
0
 10
11.489285
 20
-1.490951
 30
0.0
  0
VERTEX
  5
607
  8
0
 10
11.650234
 20
-2.038332
 30
0.0
  0
VERTEX
  5
608
  8
0
 10
11.858649
 20
-2.570497
 30
0.0
  0
VERTEX
  5
609
  8
0
 10
12.1131
 20
-3.083333
 30
0.0
  0
VERTEX
  5
60A
  8
0
 10
12.4118
 20
-3.572858
 30
0.0
  0
VERTEX
  5
60B
  8
0
 10
12.752618
 20
-4.035256
 30
0.0
  0
VERTEX
  5
60C
  8
0
 10
13.133095
 20
-4.466905
 30
0.0
  0
VERTEX
  5
60D
  8
0
 10
13.55046
 20
-4.864405
 30
0.0
  0
VERTEX
  5
60E
  8
0
 10
14.001649
 20
-5.224607
 30
0.0
  0
VERTEX
  5
60F
  8
0
 10
14.483333
 20
-5.544635
 30
0.0
  0
VERTEX
  5
610
  8
0
 10
14.991936
 20
-5.821912
 30
0.0
  0
VERTEX
  5
611
  8
0
 10
15.523666
 20
-6.054176
 30
0.0
  0
VERTEX
  5
612
  8
0
 10
16.07454
 20
-6.239506
 30
0.0
  0
VERTEX
  5
613
  8
0
 10
16.640416
 20
-6.376327
 30
0.0
  0
VERTEX
  5
614
  8
0
 10
17.217025
 20
-6.463436
 30
0.0
  0
VERTEX
  5
615
  8
0
 10
17.8
 20
-6.5
 30
0.0
  0
VERTEX
  5
616
  8
0
 10
18.384912
 20
-6.485573
 30
0.0
  0
VERTEX
  5
617
  8
0
 10
18.967302
 20
-6.420097
 30
0.0
  0
VERTEX
  5
618
  8
0
 10
19.542715
 20
-6.303901
 30
0.0
  0
VERTEX
  5
619
  8
0
 10
20.106736
 20
-6.137705
 30
0.0
  0
VERTEX
  5
61A
  8
0
 10
20.655021
 20
-5.922613
 30
0.0
  0
VERTEX
  5
61B
  8
0
 10
21.183333
 20
-5.660105
 30
0.0
  0
VERTEX
  5
61C
  8
0
 10
21.687574
 20
-5.352031
 30
0.0
  0
VERTEX
  5
61D
  8
0
 10
22.163814
 20
-5.000591
 30
0.0
  0
VERTEX
  5
61E
  8
0
 10
22.608326
 20
-4.608326
 30
0.0
  0
VERTEX
  5
61F
  8
0
 10
23.017614
 20
-4.178097999999999
 30
0.0
  0
VERTEX
  5
620
  8
0
 10
23.388437
 20
-3.713066
 30
0.0
  0
VERTEX
  5
621
  8
0
 10
23.71784
 20
-3.216667
 30
0.0
  0
VERTEX
  5
622
  8
0
 10
24.003173
 20
-2.692587
 30
0.0
  0
VERTEX
  5
623
  8
0
 10
24.242115
 20
-2.144738
 30
0.0
  0
VERTEX
  5
624
  8
0
 10
24.432691
 20
-1.577224
 30
0.0
  0
VERTEX
  5
625
  8
0
 10
24.573289
 20
-0.9943139999999999
 30
0.0
  0
VERTEX
  5
626
  8
0
 10
24.662675
 20
-0.4004059999999998
 30
0.0
  0
VERTEX
  5
627
  8
0
 10
24.7
 20
0.2000000000000002
 30
0.0
  0
VERTEX
  5
628
  8
0
 10
24.684812
 20
0.8023430000000001
 30
0.0
  0
VERTEX
  5
629
  8
0
 10
24.617058
 20
1.402031
 30
0.0
  0
VERTEX
  5
62A
  8
0
 10
24.497086
 20
1.994479
 30
0.0
  0
VERTEX
  5
62B
  8
0
 10
24.325643
 20
2.57514
 30
0.0
  0
VERTEX
  5
62C
  8
0
 10
24.103874
 20
3.139545
 30
0.0
  0
VERTEX
  5
62D
  8
0
 10
23.83331
 20
3.683333
 30
0.0
  0
VERTEX
  5
62E
  8
0
 10
23.515861
 20
4.202289
 30
0.0
  0
VERTEX
  5
62F
  8
0
 10
23.153799
 20
4.692371000000001
 30
0.0
  0
VERTEX
  5
630
  8
0
 10
22.749747
 20
5.149747000000001
 30
0.0
  0
VERTEX
  5
631
  8
0
 10
22.306655
 20
5.570823
 30
0.0
  0
VERTEX
  5
632
  8
0
 10
21.827781
 20
5.952268
 30
0.0
  0
VERTEX
  5
633
  8
0
 10
21.316667
 20
6.291045
 30
0.0
  0
VERTEX
  5
634
  8
0
 10
20.777111
 20
6.584435
 30
0.0
  0
VERTEX
  5
635
  8
0
 10
20.213142
 20
6.830053
 30
0.0
  0
VERTEX
  5
636
  8
0
 10
19.628988
 20
7.025876
 30
0.0
  0
VERTEX
  5
637
  8
0
 10
19.029043
 20
7.17025
 30
0.0
  0
VERTEX
  5
638
  8
0
 10
18.417837
 20
7.261914
 30
0.0
  0
VERTEX
  5
639
  8
0
 10
17.8
 20
7.3
 30
0.0
  0
VERTEX
  5
63A
  8
0
 10
17.180226
 20
7.284051
 30
0.0
  0
VERTEX
  5
63B
  8
0
 10
16.563239
 20
7.214020000000001
 30
0.0
  0
VERTEX
  5
63C
  8
0
 10
15.953757
 20
7.090271
 30
0.0
  0
VERTEX
  5
63D
  8
0
 10
15.356456
 20
6.913582
 30
0.0
  0
VERTEX
  5
63E
  8
0
 10
14.775932
 20
6.685136
 30
0.0
  0
VERTEX
  5
63F
  8
0
 10
14.216667
 20
6.406515
 30
0.0
  0
VERTEX
  5
640
  8
0
 10
13.682996
 20
6.079691
 30
0.0
  0
VERTEX
  5
641
  8
0
 10
13.179071
 20
5.707008
 30
0.0
  0
VERTEX
  5
642
  8
0
 10
12.708831
 20
5.291169
 30
0.0
  0
VERTEX
  5
643
  8
0
 10
12.275968
 20
4.835213
 30
0.0
  0
VERTEX
  5
644
  8
0
 10
11.883902
 20
4.342496000000001
 30
0.0
  0
VERTEX
  5
645
  8
0
 10
11.53575
 20
3.816667
 30
0.0
  0
VERTEX
  5
646
  8
0
 10
11.234304
 20
3.261635
 30
0.0
  0
VERTEX
  5
647
  8
0
 10
10.982008
 20
2.681546
 30
0.0
  0
VERTEX
  5
648
  8
0
 10
10.780939
 20
2.080752
 30
0.0
  0
VERTEX
  5
649
  8
0
 10
10.632788
 20
1.463773
 30
0.0
  0
VERTEX
  5
64A
  8
0
 10
10.538848
 20
0.8352690000000002
 30
0.0
  0
VERTEX
  5
64B
  8
0
 10
10.5
 20
0.2000000000000002
 30
0.0
  0
VERTEX
  5
64C
  8
0
 10
10.51671
 20
-0.4372049999999998
 30
0.0
  0
VERTEX
  5
64D
  8
0
 10
10.589019
 20
-1.071491
 30
0.0
  0
VERTEX
  5
64E
  8
0
 10
10.716544
 20
-1.698006
 30
0.0
  0
VERTEX
  5
64F
  8
0
 10
10.89848
 20
-2.311948
 30
0.0
  0
VERTEX
  5
650
  8
0
 10
11.133603
 20
-2.908592
 30
0.0
  0
VERTEX
  5
651
  8
0
 10
11.42028
 20
-3.483333
 30
0.0
  0
VERTEX
  5
652
  8
0
 10
11.756478
 20
-4.031719
 30
0.0
  0
VERTEX
  5
653
  8
0
 10
12.139783
 20
-4.549486
 30
0.0
  0
VERTEX
  5
654
  8
0
 10
12.56741
 20
-5.03259
 30
0.0
  0
VERTEX
  5
655
  8
0
 10
13.03623
 20
-5.47724
 30
0.0
  0
VERTEX
  5
656
  8
0
 10
13.542788
 20
-5.879929
 30
0.0
  0
VERTEX
  5
657
  8
0
 10
14.083333
 20
-6.237456
 30
0.0
  0
VERTEX
  5
658
  8
0
 10
14.653842
 20
-6.546958
 30
0.0
  0
VERTEX
  5
659
  8
0
 10
15.25005
 20
-6.805931
 30
0.0
  0
VERTEX
  5
65A
  8
0
 10
15.867484
 20
-7.012246
 30
0.0
  0
VERTEX
  5
65B
  8
0
 10
16.501498
 20
-7.164174
 30
0.0
  0
VERTEX
  5
65C
  8
0
 10
17.1473
 20
-7.260391
 30
0.0
  0
VERTEX
  5
65D
  8
0
 10
17.8
 20
-7.3
 30
0.0
  0
VERTEX
  5
65E
  8
0
 10
18.454636
 20
-7.282529
 30
0.0
  0
VERTEX
  5
65F
  8
0
 10
19.10622
 20
-7.207943
 30
0.0
  0
VERTEX
  5
660
  8
0
 10
19.74977
 20
-7.076641
 30
0.0
  0
VERTEX
  5
661
  8
0
 10
20.380352
 20
-6.889459
 30
0.0
  0
VERTEX
  5
662
  8
0
 10
20.993116
 20
-6.647659
 30
0.0
  0
VERTEX
  5
663
  8
0
 10
21.583333
 20
-6.352926
 30
0.0
  0
VERTEX
  5
664
  8
0
 10
22.146435
 20
-6.007352
 30
0.0
  0
VERTEX
  5
665
  8
0
 10
22.678044
 20
-5.613426
 30
0.0
  0
VERTEX
  5
666
  8
0
 10
23.174012
 20
-5.174011999999999
 30
0.0
  0
VERTEX
  5
667
  8
0
 10
23.630449
 20
-4.692328
 30
0.0
  0
VERTEX
  5
668
  8
0
 10
24.043759
 20
-4.171927
 30
0.0
  0
VERTEX
  5
669
  8
0
 10
24.410661
 20
-3.616667
 30
0.0
  0
VERTEX
  5
66A
  8
0
 10
24.72822
 20
-3.030682
 30
0.0
  0
VERTEX
  5
66B
  8
0
 10
24.993869
 20
-2.418354
 30
0.0
  0
VERTEX
  5
66C
  8
0
 10
25.205431
 20
-1.784279
 30
0.0
  0
VERTEX
  5
66D
  8
0
 10
25.361135
 20
-1.133232
 30
0.0
  0
VERTEX
  5
66E
  8
0
 10
25.45963
 20
-0.4701309999999999
 30
0.0
  0
VERTEX
  5
66F
  8
0
 10
25.5
 20
0.2000000000000002
 30
0.0
  0
VERTEX
  5
670
  8
0
 10
25.481768
 20
0.8720680000000002
 30
0.0
  0
VERTEX
  5
671
  8
0
 10
25.404904
 20
1.54095
 30
0.0
  0
VERTEX
  5
672
  8
0
 10
25.269826
 20
2.201534
 30
0.0
  0
VERTEX
  5
673
  8
0
 10
25.077397
 20
2.848756
 30
0.0
  0
VERTEX
  5
674
  8
0
 10
24.82892
 20
3.477639
 30
0.0
  0
VERTEX
  5
675
  8
0
 10
24.526131
 20
4.083333
 30
0.0
  0
VERTEX
  5
676
  8
0
 10
24.171183
 20
4.66115
 30
0.0
  0
VERTEX
  5
677
  8
0
 10
23.766635
 20
5.206601
 30
0.0
  0
VERTEX
  5
678
  8
0
 10
23.315433
 20
5.715433
 30
0.0
  0
VERTEX
  5
679
  8
0
 10
22.820885
 20
6.183658
 30
0.0
  0
VERTEX
  5
67A
  8
0
 10
22.286642
 20
6.607589
 30
0.0
  0
VERTEX
  5
67B
  8
0
 10
21.716667
 20
6.983866
 30
0.0
  0
VERTEX
  5
67C
  8
0
 10
21.115205
 20
7.309481
 30
0.0
  0
VERTEX
  5
67D
  8
0
 10
20.486758
 20
7.581808000000001
 30
0.0
  0
VERTEX
  5
67E
  8
0
 10
19.836043
 20
7.798617
 30
0.0
  0
VERTEX
  5
67F
  8
0
 10
19.167962
 20
7.958097
 30
0.0
  0
VERTEX
  5
680
  8
0
 10
18.487562
 20
8.058869000000001
 30
0.0
  0
VERTEX
  5
681
  8
0
 10
17.8
 20
8.100000000000001
 30
0.0
  0
VERTEX
  5
682
  8
0
 10
17.110501
 20
8.081007
 30
0.0
  0
VERTEX
  5
683
  8
0
 10
16.424321
 20
8.001866
 30
0.0
  0
VERTEX
  5
684
  8
0
 10
15.746702
 20
7.863012
 30
0.0
  0
VERTEX
  5
685
  8
0
 10
15.08284
 20
7.665336
 30
0.0
  0
VERTEX
  5
686
  8
0
 10
14.437837
 20
7.410182
 30
0.0
  0
VERTEX
  5
687
  8
0
 10
13.816667
 20
7.099336
 30
0.0
  0
VERTEX
  5
688
  8
0
 10
13.224135
 20
6.735013
 30
0.0
  0
VERTEX
  5
689
  8
0
 10
12.664841
 20
6.319844
 30
0.0
  0
VERTEX
  5
68A
  8
0
 10
12.143146
 20
5.856854
 30
0.0
  0
VERTEX
  5
68B
  8
0
 10
11.663133
 20
5.349443
 30
0.0
  0
VERTEX
  5
68C
  8
0
 10
11.22858
 20
4.801358
 30
0.0
  0
VERTEX
  5
68D
  8
0
 10
10.842929
 20
4.216667
 30
0.0
  0
VERTEX
  5
68E
  8
0
 10
10.509257
 20
3.599729
 30
0.0
  0
VERTEX
  5
68F
  8
0
 10
10.230254
 20
2.955162
 30
0.0
  0
VERTEX
  5
690
  8
0
 10
10.008198
 20
2.287807
 30
0.0
  0
VERTEX
  5
691
  8
0
 10
9.844942
 20
1.602691
 30
0.0
  0
VERTEX
  5
692
  8
0
 10
9.741892
 20
0.9049930000000002
 30
0.0
  0
VERTEX
  5
693
  8
0
 10
9.7
 20
0.2000000000000002
 30
0.0
  0
VERTEX
  5
694
  8
0
 10
9.719753999999998
 20
-0.5069299999999998
 30
0.0
  0
VERTEX
  5
695
  8
0
 10
9.801172999999999
 20
-1.210409
 30
0.0
  0
VERTEX
  5
696
  8
0
 10
9.943802999999999
 20
-1.905062
 30
0.0
  0
VERTEX
  5
697
  8
0
 10
10.146726
 20
-2.585564
 30
0.0
  0
VERTEX
  5
698
  8
0
 10
10.408556
 20
-3.246687
 30
0.0
  0
VERTEX
  5
699
  8
0
 10
10.727459
 20
-3.883332999999999
 30
0.0
  0
VERTEX
  5
69A
  8
0
 10
11.101157
 20
-4.490581
 30
0.0
  0
VERTEX
  5
69B
  8
0
 10
11.526947
 20
-5.063715999999999
 30
0.0
  0
VERTEX
  5
69C
  8
0
 10
12.001724
 20
-5.598276
 30
0.0
  0
VERTEX
  5
69D
  8
0
 10
12.522
 20
-6.090076
 30
0.0
  0
VERTEX
  5
69E
  8
0
 10
13.083927
 20
-6.53525
 30
0.0
  0
VERTEX
  5
69F
  8
0
 10
13.683333
 20
-6.930276
 30
0.0
  0
VERTEX
  5
6A0
  8
0
 10
14.315747
 20
-7.272004
 30
0.0
  0
VERTEX
  5
6A1
  8
0
 10
14.976434
 20
-7.557685
 30
0.0
  0
VERTEX
  5
6A2
  8
0
 10
15.660429
 20
-7.784987
 30
0.0
  0
VERTEX
  5
6A3
  8
0
 10
16.362579
 20
-7.95202
 30
0.0
  0
VERTEX
  5
6A4
  8
0
 10
17.077576
 20
-8.057347
 30
0.0
  0
VERTEX
  5
6A5
  8
0
 10
17.8
 20
-8.100000000000001
 30
0.0
  0
VERTEX
  5
6A6
  8
0
 10
18.524361
 20
-8.079484999999998
 30
0.0
  0
VERTEX
  5
6A7
  8
0
 10
19.245139
 20
-7.995788999999999
 30
0.0
  0
VERTEX
  5
6A8
  8
0
 10
19.956825
 20
-7.849381999999999
 30
0.0
  0
VERTEX
  5
6A9
  8
0
 10
20.653968
 20
-7.641213
 30
0.0
  0
VERTEX
  5
6AA
  8
0
 10
21.33121
 20
-7.372705
 30
0.0
  0
VERTEX
  5
6AB
  8
0
 10
21.983333
 20
-7.045745999999999
 30
0.0
  0
VERTEX
  5
6AC
  8
0
 10
22.605296
 20
-6.662674
 30
0.0
  0
VERTEX
  5
6AD
  8
0
 10
23.192274
 20
-6.226262
 30
0.0
  0
VERTEX
  5
6AE
  8
0
 10
23.739697
 20
-5.739697
 30
0.0
  0
VERTEX
  5
6AF
  8
0
 10
24.243285
 20
-5.206558
 30
0.0
  0
VERTEX
  5
6B0
  8
0
 10
24.699081
 20
-4.630788
 30
0.0
  0
VERTEX
  5
6B1
  8
0
 10
25.103481
 20
-4.016667
 30
0.0
  0
VERTEX
  5
6B2
  8
0
 10
25.453266
 20
-3.368776
 30
0.0
  0
VERTEX
  5
6B3
  8
0
 10
25.745623
 20
-2.69197
 30
0.0
  0
VERTEX
  5
6B4
  8
0
 10
25.978172
 20
-1.991335
 30
0.0
  0
VERTEX
  5
6B5
  8
0
 10
26.148981
 20
-1.272151
 30
0.0
  0
VERTEX
  5
6B6
  8
0
 10
26.256586
 20
-0.5398549999999999
 30
0.0
  0
VERTEX
  5
6B7
  8
0
 10
26.3
 20
0.2000000000000002
 30
0.0
  0
SEQEND
  5
98A
  8
0
  0
POLYLINE
  5
40
  8
0
 66
     1
 10
0.0
 20
0.0
 30
0.0
  0
VERTEX
  5
6B8
  8
0
 10
-17.7
 20
0.2000000000000002
 30
0.0
  0
VERTEX
  5
6B9
  8
0
 10
-17.690834
 20
0.2445460000000002
 30
0.0
  0
VERTEX
  5
6BA
  8
0
 10
-17.685712
 20
0.2906830000000002
 30
0.0
  0
VERTEX
  5
6BB
  8
0
 10
-17.68484
 20
0.3380370000000001
 30
0.0
  0
VERTEX
  5
6BC
  8
0
 10
-17.68839
 20
0.3862110000000002
 30
0.0
  0
VERTEX
  5
6BD
  8
0
 10
-17.696496
 20
0.4347880000000002
 30
0.0
  0
VERTEX
  5
6BE
  8
0
 10
-17.709252
 20
0.4833330000000002
 30
0.0
  0
VERTEX
  5
6BF
  8
0
 10
-17.726712
 20
0.5314000000000001
 30
0.0
  0
VERTEX
  5
6C0
  8
0
 10
-17.748885
 20
0.5785300000000002
 30
0.0
  0
VERTEX
  5
6C1
  8
0
 10
-17.775736
 20
0.6242640000000002
 30
0.0
  0
VERTEX
  5
6C2
  8
0
 10
-17.807185
 20
0.6681380000000001
 30
0.0
  0
VERTEX
  5
6C3
  8
0
 10
-17.843108
 20
0.7096950000000002
 30
0.0
  0
VERTEX
  5
6C4
  8
0
 10
-17.883333
 20
0.7484830000000002
 30
0.0
  0
VERTEX
  5
6C5
  8
0
 10
-17.927646
 20
0.7840650000000001
 30
0.0
  0
VERTEX
  5
6C6
  8
0
 10
-17.975787
 20
0.8160210000000002
 30
0.0
  0
VERTEX
  5
6C7
  8
0
 10
-18.027454
 20
0.8439510000000002
 30
0.0
  0
VERTEX
  5
6C8
  8
0
 10
-18.082305
 20
0.8674810000000002
 30
0.0
  0
VERTEX
  5
6C9
  8
0
 10
-18.139959
 20
0.8862670000000001
 30
0.0
  0
VERTEX
  5
6CA
  8
0
 10
-18.2
 20
0.9000000000000001
 30
0.0
  0
VERTEX
  5
6CB
  8
0
 10
-18.261977
 20
0.9084050000000001
 30
0.0
  0
VERTEX
  5
6CC
  8
0
 10
-18.325413
 20
0.9112500000000002
 30
0.0
  0
VERTEX
  5
6CD
  8
0
 10
-18.389801
 20
0.9083460000000002
 30
0.0
  0
VERTEX
  5
6CE
  8
0
 10
-18.454615
 20
0.8995490000000002
 30
0.0
  0
VERTEX
  5
6CF
  8
0
 10
-18.519312
 20
0.8847660000000002
 30
0.0
  0
VERTEX
  5
6D0
  8
0
 10
-18.583333
 20
0.8639530000000002
 30
0.0
  0
VERTEX
  5
6D1
  8
0
 10
-18.646115
 20
0.8371180000000001
 30
0.0
  0
VERTEX
  5
6D2
  8
0
 10
-18.707088
 20
0.8043240000000001
 30
0.0
  0
VERTEX
  5
6D3
  8
0
 10
-18.765685
 20
0.7656850000000002
 30
0.0
  0
VERTEX
  5
6D4
  8
0
 10
-18.821347
 20
0.7213720000000001
 30
0.0
  0
VERTEX
  5
6D5
  8
0
 10
-18.873525
 20
0.6716070000000002
 30
0.0
  0
VERTEX
  5
6D6
  8
0
 10
-18.921688
 20
0.6166670000000002
 30
0.0
  0
VERTEX
  5
6D7
  8
0
 10
-18.965327
 20
0.5568780000000002
 30
0.0
  0
VERTEX
  5
6D8
  8
0
 10
-19.003959
 20
0.4926170000000002
 30
0.0
  0
VERTEX
  5
6D9
  8
0
 10
-19.037136
 20
0.4243100000000002
 30
0.0
  0
VERTEX
  5
6DA
  8
0
 10
-19.064442
 20
0.3524250000000002
 30
0.0
  0
VERTEX
  5
6DB
  8
0
 10
-19.085506
 20
0.2774720000000002
 30
0.0
  0
VERTEX
  5
6DC
  8
0
 10
-19.1
 20
0.2000000000000002
 30
0.0
  0
VERTEX
  5
6DD
  8
0
 10
-19.107644
 20
0.1205910000000002
 30
0.0
  0
VERTEX
  5
6DE
  8
0
 10
-19.108212
 20
0.0398580000000002
 30
0.0
  0
VERTEX
  5
6DF
  8
0
 10
-19.101531
 20
-0.0415639999999998
 30
0.0
  0
VERTEX
  5
6E0
  8
0
 10
-19.087487
 20
-0.1230189999999998
 30
0.0
  0
VERTEX
  5
6E1
  8
0
 10
-19.066027
 20
-0.2038349999999998
 30
0.0
  0
VERTEX
  5
6E2
  8
0
 10
-19.037158
 20
-0.2833329999999998
 30
0.0
  0
VERTEX
  5
6E3
  8
0
 10
-19.000949
 20
-0.3608299999999999
 30
0.0
  0
VERTEX
  5
6E4
  8
0
 10
-18.957533
 20
-0.4356459999999999
 30
0.0
  0
VERTEX
  5
6E5
  8
0
 10
-18.907107
 20
-0.5071069999999999
 30
0.0
  0
VERTEX
  5
6E6
  8
0
 10
-18.84993
 20
-0.5745559999999998
 30
0.0
  0
VERTEX
  5
6E7
  8
0
 10
-18.786323
 20
-0.6373549999999998
 30
0.0
  0
VERTEX
  5
6E8
  8
0
 10
-18.716667
 20
-0.6948929999999999
 30
0.0
  0
VERTEX
  5
6E9
  8
0
 10
-18.641401
 20
-0.7465879999999998
 30
0.0
  0
VERTEX
  5
6EA
  8
0
 10
-18.561021
 20
-0.7918979999999998
 30
0.0
  0
VERTEX
  5
6EB
  8
0
 10
-18.476074
 20
-0.8303209999999999
 30
0.0
  0
VERTEX
  5
6EC
  8
0
 10
-18.387154
 20
-0.8614039999999998
 30
0.0
  0
VERTEX
  5
6ED
  8
0
 10
-18.294903
 20
-0.8847449999999999
 30
0.0
  0
VERTEX
  5
6EE
  8
0
 10
-18.2
 20
-0.8999999999999999
 30
0.0
  0
VERTEX
  5
6EF
  8
0
 10
-18.10316
 20
-0.9068829999999999
 30
0.0
  0
VERTEX
  5
6F0
  8
0
 10
-18.005128
 20
-0.9051729999999998
 30
0.0
  0
VERTEX
  5
6F1
  8
0
 10
-17.906672
 20
-0.8947159999999998
 30
0.0
  0
VERTEX
  5
6F2
  8
0
 10
-17.808577
 20
-0.8754259999999998
 30
0.0
  0
VERTEX
  5
6F3
  8
0
 10
-17.711641
 20
-0.8472889999999997
 30
0.0
  0
VERTEX
  5
6F4
  8
0
 10
-17.616667
 20
-0.8103629999999997
 30
0.0
  0
VERTEX
  5
6F5
  8
0
 10
-17.524454
 20
-0.7647789999999999
 30
0.0
  0
VERTEX
  5
6F6
  8
0
 10
-17.435797
 20
-0.7107419999999999
 30
0.0
  0
VERTEX
  5
6F7
  8
0
 10
-17.351472
 20
-0.6485279999999998
 30
0.0
  0
VERTEX
  5
6F8
  8
0
 10
-17.272235
 20
-0.5784869999999999
 30
0.0
  0
VERTEX
  5
6F9
  8
0
 10
-17.198814
 20
-0.5010379999999999
 30
0.0
  0
VERTEX
  5
6FA
  8
0
 10
-17.131902
 20
-0.4166669999999998
 30
0.0
  0
VERTEX
  5
6FB
  8
0
 10
-17.07215
 20
-0.3259249999999998
 30
0.0
  0
VERTEX
  5
6FC
  8
0
 10
-17.020164
 20
-0.2294249999999998
 30
0.0
  0
VERTEX
  5
6FD
  8
0
 10
-16.976494
 20
-0.1278369999999998
 30
0.0
  0
VERTEX
  5
6FE
  8
0
 10
-16.941635
 20
-0.0218839999999998
 30
0.0
  0
VERTEX
  5
6FF
  8
0
 10
-16.916016
 20
0.0876660000000002
 30
0.0
  0
VERTEX
  5
700
  8
0
 10
-16.9
 20
0.2000000000000002
 30
0.0
  0
VERTEX
  5
701
  8
0
 10
-16.893878
 20
0.3142710000000002
 30
0.0
  0
VERTEX
  5
702
  8
0
 10
-16.897865
 20
0.4296010000000002
 30
0.0
  0
VERTEX
  5
703
  8
0
 10
-16.912099
 20
0.5450920000000001
 30
0.0
  0
VERTEX
  5
704
  8
0
 10
-16.936635
 20
0.6598270000000002
 30
0.0
  0
VERTEX
  5
705
  8
0
 10
-16.971449
 20
0.7728830000000002
 30
0.0
  0
VERTEX
  5
706
  8
0
 10
-17.016432
 20
0.8833330000000001
 30
0.0
  0
VERTEX
  5
707
  8
0
 10
-17.071391
 20
0.9902610000000002
 30
0.0
  0
VERTEX
  5
708
  8
0
 10
-17.136049
 20
1.092761
 30
0.0
  0
VERTEX
  5
709
  8
0
 10
-17.210051
 20
1.189949
 30
0.0
  0
VERTEX
  5
70A
  8
0
 10
-17.292955
 20
1.280974
 30
0.0
  0
VERTEX
  5
70B
  8
0
 10
-17.384247
 20
1.365016
 30
0.0
  0
VERTEX
  5
70C
  8
0
 10
-17.483333
 20
1.441303
 30
0.0
  0
VERTEX
  5
70D
  8
0
 10
-17.589551
 20
1.509111
 30
0.0
  0
VERTEX
  5
70E
  8
0
 10
-17.702171
 20
1.567775
 30
0.0
  0
VERTEX
  5
70F
  8
0
 10
-17.820399
 20
1.616691
 30
0.0
  0
VERTEX
  5
710
  8
0
 10
-17.943387
 20
1.655327
 30
0.0
  0
VERTEX
  5
711
  8
0
 10
-18.070235
 20
1.683223
 30
0.0
  0
VERTEX
  5
712
  8
0
 10
-18.2
 20
1.7
 30
0.0
  0
VERTEX
  5
713
  8
0
 10
-18.331702
 20
1.705361
 30
0.0
  0
VERTEX
  5
714
  8
0
 10
-18.464331
 20
1.699096
 30
0.0
  0
VERTEX
  5
715
  8
0
 10
-18.596856
 20
1.681086
 30
0.0
  0
VERTEX
  5
716
  8
0
 10
-18.728231
 20
1.651303
 30
0.0
  0
VERTEX
  5
717
  8
0
 10
-18.857406
 20
1.609812
 30
0.0
  0
VERTEX
  5
718
  8
0
 10
-18.983333
 20
1.556773
 30
0.0
  0
VERTEX
  5
719
  8
0
 10
-19.104976
 20
1.49244
 30
0.0
  0
VERTEX
  5
71A
  8
0
 10
-19.221318
 20
1.41716
 30
0.0
  0
VERTEX
  5
71B
  8
0
 10
-19.331371
 20
1.331371
 30
0.0
  0
VERTEX
  5
71C
  8
0
 10
-19.434183
 20
1.235602
 30
0.0
  0
VERTEX
  5
71D
  8
0
 10
-19.528847
 20
1.130468
 30
0.0
  0
VERTEX
  5
71E
  8
0
 10
-19.614508
 20
1.016667
 30
0.0
  0
VERTEX
  5
71F
  8
0
 10
-19.690373
 20
0.8949720000000002
 30
0.0
  0
VERTEX
  5
720
  8
0
 10
-19.755713
 20
0.7662330000000002
 30
0.0
  0
VERTEX
  5
721
  8
0
 10
-19.809876
 20
0.6313650000000002
 30
0.0
  0
VERTEX
  5
722
  8
0
 10
-19.852289
 20
0.4913430000000002
 30
0.0
  0
VERTEX
  5
723
  8
0
 10
-19.882462
 20
0.3471960000000002
 30
0.0
  0
VERTEX
  5
724
  8
0
 10
-19.9
 20
0.2000000000000002
 30
0.0
  0
VERTEX
  5
725
  8
0
 10
-19.9046
 20
0.0508670000000002
 30
0.0
  0
VERTEX
  5
726
  8
0
 10
-19.896058
 20
-0.0990609999999998
 30
0.0
  0
VERTEX
  5
727
  8
0
 10
-19.874271
 20
-0.2486199999999998
 30
0.0
  0
VERTEX
  5
728
  8
0
 10
-19.839242
 20
-0.3966349999999998
 30
0.0
  0
VERTEX
  5
729
  8
0
 10
-19.791074
 20
-0.5419299999999998
 30
0.0
  0
VERTEX
  5
72A
  8
0
 10
-19.729978
 20
-0.6833329999999999
 30
0.0
  0
VERTEX
  5
72B
  8
0
 10
-19.65627
 20
-0.8196909999999997
 30
0.0
  0
VERTEX
  5
72C
  8
0
 10
-19.570368
 20
-0.9498759999999997
 30
0.0
  0
VERTEX
  5
72D
  8
0
 10
-19.472792
 20
-1.072792
 30
0.0
  0
VERTEX
  5
72E
  8
0
 10
-19.36416
 20
-1.187392
 30
0.0
  0
VERTEX
  5
72F
  8
0
 10
-19.245184
 20
-1.292677
 30
0.0
  0
VERTEX
  5
730
  8
0
 10
-19.116667
 20
-1.387713
 30
0.0
  0
VERTEX
  5
731
  8
0
 10
-18.979496
 20
-1.471634
 30
0.0
  0
VERTEX
  5
732
  8
0
 10
-18.834637
 20
-1.543652
 30
0.0
  0
VERTEX
  5
733
  8
0
 10
-18.683129
 20
-1.603062
 30
0.0
  0
VERTEX
  5
734
  8
0
 10
-18.526073
 20
-1.64925
 30
0.0
  0
VERTEX
  5
735
  8
0
 10
-18.364628
 20
-1.681701
 30
0.0
  0
VERTEX
  5
736
  8
0
 10
-18.2
 20
-1.7
 30
0.0
  0
VERTEX
  5
737
  8
0
 10
-18.033436
 20
-1.703839
 30
0.0
  0
VERTEX
  5
738
  8
0
 10
-17.86621
 20
-1.693019
 30
0.0
  0
VERTEX
  5
739
  8
0
 10
-17.699617
 20
-1.667457
 30
0.0
  0
VERTEX
  5
73A
  8
0
 10
-17.534961
 20
-1.62718
 30
0.0
  0
VERTEX
  5
73B
  8
0
 10
-17.373547
 20
-1.572335
 30
0.0
  0
VERTEX
  5
73C
  8
0
 10
-17.216667
 20
-1.503183
 30
0.0
  0
VERTEX
  5
73D
  8
0
 10
-17.065593
 20
-1.420101
 30
0.0
  0
VERTEX
  5
73E
  8
0
 10
-16.921567
 20
-1.323577
 30
0.0
  0
VERTEX
  5
73F
  8
0
 10
-16.785786
 20
-1.214214
 30
0.0
  0
VERTEX
  5
740
  8
0
 10
-16.6594
 20
-1.092717
 30
0.0
  0
VERTEX
  5
741
  8
0
 10
-16.543493
 20
-0.9598989999999998
 30
0.0
  0
VERTEX
  5
742
  8
0
 10
-16.439082
 20
-0.8166669999999998
 30
0.0
  0
VERTEX
  5
743
  8
0
 10
-16.347104
 20
-0.6640199999999998
 30
0.0
  0
VERTEX
  5
744
  8
0
 10
-16.26841
 20
-0.5030409999999998
 30
0.0
  0
VERTEX
  5
745
  8
0
 10
-16.203753
 20
-0.3348929999999998
 30
0.0
  0
VERTEX
  5
746
  8
0
 10
-16.153788
 20
-0.1608019999999998
 30
0.0
  0
VERTEX
  5
747
  8
0
 10
-16.11906
 20
0.0179410000000002
 30
0.0
  0
VERTEX
  5
748
  8
0
 10
-16.1
 20
0.2000000000000002
 30
0.0
  0
VERTEX
  5
749
  8
0
 10
-16.096922
 20
0.3839950000000002
 30
0.0
  0
VERTEX
  5
74A
  8
0
 10
-16.110019
 20
0.5685200000000001
 30
0.0
  0
VERTEX
  5
74B
  8
0
 10
-16.139358
 20
0.7521470000000002
 30
0.0
  0
VERTEX
  5
74C
  8
0
 10
-16.184881
 20
0.9334430000000001
 30
0.0
  0
VERTEX
  5
74D
  8
0
 10
-16.246403
 20
1.110977
 30
0.0
  0
VERTEX
  5
74E
  8
0
 10
-16.323612
 20
1.283333
 30
0.0
  0
VERTEX
  5
74F
  8
0
 10
-16.416069
 20
1.449122
 30
0.0
  0
VERTEX
  5
750
  8
0
 10
-16.523214
 20
1.606991
 30
0.0
  0
VERTEX
  5
751
  8
0
 10
-16.644365
 20
1.755635
 30
0.0
  0
VERTEX
  5
752
  8
0
 10
-16.778725
 20
1.893809
 30
0.0
  0
VERTEX
  5
753
  8
0
 10
-16.925386
 20
2.020338
 30
0.0
  0
VERTEX
  5
754
  8
0
 10
-17.083333
 20
2.134123
 30
0.0
  0
VERTEX
  5
755
  8
0
 10
-17.251457
 20
2.234157
 30
0.0
  0
VERTEX
  5
756
  8
0
 10
-17.428555
 20
2.319529
 30
0.0
  0
VERTEX
  5
757
  8
0
 10
-17.613343
 20
2.389432
 30
0.0
  0
VERTEX
  5
758
  8
0
 10
-17.804468
 20
2.443173
 30
0.0
  0
VERTEX
  5
759
  8
0
 10
-18.00051
 20
2.480179
 30
0.0
  0
VERTEX
  5
75A
  8
0
 10
-18.2
 20
2.5
 30
0.0
  0
VERTEX
  5
75B
  8
0
 10
-18.401427
 20
2.502317
 30
0.0
  0
VERTEX
  5
75C
  8
0
 10
-18.60325
 20
2.486942
 30
0.0
  0
VERTEX
  5
75D
  8
0
 10
-18.803911
 20
2.453827
 30
0.0
  0
VERTEX
  5
75E
  8
0
 10
-19.001847
 20
2.403057
 30
0.0
  0
VERTEX
  5
75F
  8
0
 10
-19.195501
 20
2.334858
 30
0.0
  0
VERTEX
  5
760
  8
0
 10
-19.383333
 20
2.249593
 30
0.0
  0
VERTEX
  5
761
  8
0
 10
-19.563837
 20
2.147762
 30
0.0
  0
VERTEX
  5
762
  8
0
 10
-19.735548
 20
2.029995
 30
0.0
  0
VERTEX
  5
763
  8
0
 10
-19.897056
 20
1.897056
 30
0.0
  0
VERTEX
  5
764
  8
0
 10
-20.047018
 20
1.749832
 30
0.0
  0
VERTEX
  5
765
  8
0
 10
-20.184168
 20
1.58933
 30
0.0
  0
VERTEX
  5
766
  8
0
 10
-20.307328
 20
1.416667
 30
0.0
  0
VERTEX
  5
767
  8
0
 10
-20.415419
 20
1.233067
 30
0.0
  0
VERTEX
  5
768
  8
0
 10
-20.507467
 20
1.039849
 30
0.0
  0
VERTEX
  5
769
  8
0
 10
-20.582617
 20
0.8384200000000002
 30
0.0
  0
VERTEX
  5
76A
  8
0
 10
-20.640135
 20
0.6302620000000001
 30
0.0
  0
VERTEX
  5
76B
  8
0
 10
-20.679418
 20
0.4169210000000002
 30
0.0
  0
VERTEX
  5
76C
  8
0
 10
-20.7
 20
0.2000000000000002
 30
0.0
  0
VERTEX
  5
76D
  8
0
 10
-20.701556
 20
-0.0188579999999998
 30
0.0
  0
VERTEX
  5
76E
  8
0
 10
-20.683904
 20
-0.2379789999999998
 30
0.0
  0
VERTEX
  5
76F
  8
0
 10
-20.647012
 20
-0.4556749999999998
 30
0.0
  0
VERTEX
  5
770
  8
0
 10
-20.590996
 20
-0.6702509999999998
 30
0.0
  0
VERTEX
  5
771
  8
0
 10
-20.51612
 20
-0.8800239999999999
 30
0.0
  0
VERTEX
  5
772
  8
0
 10
-20.422799
 20
-1.083333
 30
0.0
  0
VERTEX
  5
773
  8
0
 10
-20.311592
 20
-1.278553
 30
0.0
  0
VERTEX
  5
774
  8
0
 10
-20.183204
 20
-1.464106
 30
0.0
  0
VERTEX
  5
775
  8
0
 10
-20.038478
 20
-1.638478
 30
0.0
  0
VERTEX
  5
776
  8
0
 10
-19.87839
 20
-1.800227
 30
0.0
  0
VERTEX
  5
777
  8
0
 10
-19.704045
 20
-1.947999
 30
0.0
  0
VERTEX
  5
778
  8
0
 10
-19.516667
 20
-2.080534
 30
0.0
  0
VERTEX
  5
779
  8
0
 10
-19.317591
 20
-2.196681
 30
0.0
  0
VERTEX
  5
77A
  8
0
 10
-19.108253
 20
-2.295406
 30
0.0
  0
VERTEX
  5
77B
  8
0
 10
-18.890184
 20
-2.375802
 30
0.0
  0
VERTEX
  5
77C
  8
0
 10
-18.664991
 20
-2.437096
 30
0.0
  0
VERTEX
  5
77D
  8
0
 10
-18.434352
 20
-2.478657
 30
0.0
  0
VERTEX
  5
77E
  8
0
 10
-18.2
 20
-2.5
 30
0.0
  0
VERTEX
  5
77F
  8
0
 10
-17.963711
 20
-2.500795
 30
0.0
  0
VERTEX
  5
780
  8
0
 10
-17.727291
 20
-2.480866
 30
0.0
  0
VERTEX
  5
781
  8
0
 10
-17.492561
 20
-2.440197
 30
0.0
  0
VERTEX
  5
782
  8
0
 10
-17.261345
 20
-2.378934
 30
0.0
  0
VERTEX
  5
783
  8
0
 10
-17.035452
 20
-2.297381
 30
0.0
  0
VERTEX
  5
784
  8
0
 10
-16.816667
 20
-2.196004
 30
0.0
  0
VERTEX
  5
785
  8
0
 10
-16.606732
 20
-2.075422
 30
0.0
  0
VERTEX
  5
786
  8
0
 10
-16.407337
 20
-1.936413
 30
0.0
  0
VERTEX
  5
787
  8
0
 10
-16.220101
 20
-1.779899
 30
0.0
  0
VERTEX
  5
788
  8
0
 10
-16.046564
 20
-1.606947
 30
0.0
  0
VERTEX
  5
789
  8
0
 10
-15.888171
 20
-1.41876
 30
0.0
  0
VERTEX
  5
78A
  8
0
 10
-15.746261
 20
-1.216667
 30
0.0
  0
VERTEX
  5
78B
  8
0
 10
-15.622058
 20
-1.002114
 30
0.0
  0
VERTEX
  5
78C
  8
0
 10
-15.516656
 20
-0.7766579999999998
 30
0.0
  0
VERTEX
  5
78D
  8
0
 10
-15.431013
 20
-0.5419479999999999
 30
0.0
  0
VERTEX
  5
78E
  8
0
 10
-15.365942
 20
-0.2997209999999998
 30
0.0
  0
VERTEX
  5
78F
  8
0
 10
-15.322104
 20
-0.0517829999999998
 30
0.0
  0
VERTEX
  5
790
  8
0
 10
-15.3
 20
0.2000000000000002
 30
0.0
  0
VERTEX
  5
791
  8
0
 10
-15.299967
 20
0.4537200000000002
 30
0.0
  0
VERTEX
  5
792
  8
0
 10
-15.322173
 20
0.7074390000000002
 30
0.0
  0
VERTEX
  5
793
  8
0
 10
-15.366618
 20
0.9592030000000001
 30
0.0
  0
VERTEX
  5
794
  8
0
 10
-15.433127
 20
1.207059
 30
0.0
  0
VERTEX
  5
795
  8
0
 10
-15.521357
 20
1.449072
 30
0.0
  0
VERTEX
  5
796
  8
0
 10
-15.630791
 20
1.683333
 30
0.0
  0
VERTEX
  5
797
  8
0
 10
-15.760747
 20
1.907983
 30
0.0
  0
VERTEX
  5
798
  8
0
 10
-15.910378
 20
2.121221
 30
0.0
  0
VERTEX
  5
799
  8
0
 10
-16.07868
 20
2.32132
 30
0.0
  0
VERTEX
  5
79A
  8
0
 10
-16.264495
 20
2.506645
 30
0.0
  0
VERTEX
  5
79B
  8
0
 10
-16.466525
 20
2.67566
 30
0.0
  0
VERTEX
  5
79C
  8
0
 10
-16.683333
 20
2.826944
 30
0.0
  0
VERTEX
  5
79D
  8
0
 10
-16.913362
 20
2.959204
 30
0.0
  0
VERTEX
  5
79E
  8
0
 10
-17.154938
 20
3.071283
 30
0.0
  0
VERTEX
  5
79F
  8
0
 10
-17.406288
 20
3.162173
 30
0.0
  0
VERTEX
  5
7A0
  8
0
 10
-17.665549
 20
3.231019
 30
0.0
  0
VERTEX
  5
7A1
  8
0
 10
-17.930786
 20
3.277135
 30
0.0
  0
VERTEX
  5
7A2
  8
0
 10
-18.2
 20
3.3
 30
0.0
  0
VERTEX
  5
7A3
  8
0
 10
-18.471151
 20
3.299272
 30
0.0
  0
VERTEX
  5
7A4
  8
0
 10
-18.742168
 20
3.274789
 30
0.0
  0
VERTEX
  5
7A5
  8
0
 10
-19.010966
 20
3.226568
 30
0.0
  0
VERTEX
  5
7A6
  8
0
 10
-19.275463
 20
3.154811
 30
0.0
  0
VERTEX
  5
7A7
  8
0
 10
-19.533595
 20
3.059905
 30
0.0
  0
VERTEX
  5
7A8
  8
0
 10
-19.783333
 20
2.942414
 30
0.0
  0
VERTEX
  5
7A9
  8
0
 10
-20.022698
 20
2.803083
 30
0.0
  0
VERTEX
  5
7AA
  8
0
 10
-20.249778
 20
2.642831
 30
0.0
  0
VERTEX
  5
7AB
  8
0
 10
-20.462742
 20
2.462742
 30
0.0
  0
VERTEX
  5
7AC
  8
0
 10
-20.659854
 20
2.264062
 30
0.0
  0
VERTEX
  5
7AD
  8
0
 10
-20.83949
 20
2.048191
 30
0.0
  0
VERTEX
  5
7AE
  8
0
 10
-21.000149
 20
1.816667
 30
0.0
  0
VERTEX
  5
7AF
  8
0
 10
-21.140465
 20
1.571161
 30
0.0
  0
VERTEX
  5
7B0
  8
0
 10
-21.259222
 20
1.313466
 30
0.0
  0
VERTEX
  5
7B1
  8
0
 10
-21.355358
 20
1.045476
 30
0.0
  0
VERTEX
  5
7B2
  8
0
 10
-21.427981
 20
0.7691800000000002
 30
0.0
  0
VERTEX
  5
7B3
  8
0
 10
-21.476374
 20
0.4866460000000002
 30
0.0
  0
VERTEX
  5
7B4
  8
0
 10
-21.5
 20
0.2000000000000002
 30
0.0
  0
VERTEX
  5
7B5
  8
0
 10
-21.498511
 20
-0.0885819999999998
 30
0.0
  0
VERTEX
  5
7B6
  8
0
 10
-21.47175
 20
-0.3768979999999998
 30
0.0
  0
VERTEX
  5
7B7
  8
0
 10
-21.419753
 20
-0.6627299999999998
 30
0.0
  0
VERTEX
  5
7B8
  8
0
 10
-21.34275
 20
-0.9438669999999998
 30
0.0
  0
VERTEX
  5
7B9
  8
0
 10
-21.241166
 20
-1.218119
 30
0.0
  0
VERTEX
  5
7BA
  8
0
 10
-21.115619
 20
-1.483333
 30
0.0
  0
VERTEX
  5
7BB
  8
0
 10
-20.966914
 20
-1.737414
 30
0.0
  0
VERTEX
  5
7BC
  8
0
 10
-20.79604
 20
-1.978336
 30
0.0
  0
VERTEX
  5
7BD
  8
0
 10
-20.604163
 20
-2.204163
 30
0.0
  0
VERTEX
  5
7BE
  8
0
 10
-20.39262
 20
-2.413063
 30
0.0
  0
VERTEX
  5
7BF
  8
0
 10
-20.162906
 20
-2.60332
 30
0.0
  0
VERTEX
  5
7C0
  8
0
 10
-19.916667
 20
-2.773354
 30
0.0
  0
VERTEX
  5
7C1
  8
0
 10
-19.655685
 20
-2.921727
 30
0.0
  0
VERTEX
  5
7C2
  8
0
 10
-19.38187
 20
-3.04716
 30
0.0
  0
VERTEX
  5
7C3
  8
0
 10
-19.097239
 20
-3.148543
 30
0.0
  0
VERTEX
  5
7C4
  8
0
 10
-18.80391
 20
-3.224943
 30
0.0
  0
VERTEX
  5
7C5
  8
0
 10
-18.504077
 20
-3.275613
 30
0.0
  0
VERTEX
  5
7C6
  8
0
 10
-18.2
 20
-3.3
 30
0.0
  0
VERTEX
  5
7C7
  8
0
 10
-17.893987
 20
-3.29775
 30
0.0
  0
VERTEX
  5
7C8
  8
0
 10
-17.588373
 20
-3.268712
 30
0.0
  0
VERTEX
  5
7C9
  8
0
 10
-17.285506
 20
-3.212938
 30
0.0
  0
VERTEX
  5
7CA
  8
0
 10
-16.987729
 20
-3.130688
 30
0.0
  0
VERTEX
  5
7CB
  8
0
 10
-16.697357
 20
-3.022428
 30
0.0
  0
VERTEX
  5
7CC
  8
0
 10
-16.416667
 20
-2.888824
 30
0.0
  0
VERTEX
  5
7CD
  8
0
 10
-16.147871
 20
-2.730744
 30
0.0
  0
VERTEX
  5
7CE
  8
0
 10
-15.893107
 20
-2.549248
 30
0.0
  0
VERTEX
  5
7CF
  8
0
 10
-15.654416
 20
-2.345584
 30
0.0
  0
VERTEX
  5
7D0
  8
0
 10
-15.433728
 20
-2.121177
 30
0.0
  0
VERTEX
  5
7D1
  8
0
 10
-15.232849
 20
-1.877621
 30
0.0
  0
VERTEX
  5
7D2
  8
0
 10
-15.053441
 20
-1.616667
 30
0.0
  0
VERTEX
  5
7D3
  8
0
 10
-14.897012
 20
-1.340209
 30
0.0
  0
VERTEX
  5
7D4
  8
0
 10
-14.764901
 20
-1.050274
 30
0.0
  0
VERTEX
  5
7D5
  8
0
 10
-14.658272
 20
-0.7490029999999999
 30
0.0
  0
VERTEX
  5
7D6
  8
0
 10
-14.578096
 20
-0.4386389999999998
 30
0.0
  0
VERTEX
  5
7D7
  8
0
 10
-14.525148
 20
-0.1215079999999998
 30
0.0
  0
VERTEX
  5
7D8
  8
0
 10
-14.5
 20
0.2000000000000002
 30
0.0
  0
VERTEX
  5
7D9
  8
0
 10
-14.503011
 20
0.5234450000000002
 30
0.0
  0
VERTEX
  5
7DA
  8
0
 10
-14.534327
 20
0.8463570000000001
 30
0.0
  0
VERTEX
  5
7DB
  8
0
 10
-14.593877
 20
1.166258
 30
0.0
  0
VERTEX
  5
7DC
  8
0
 10
-14.681373
 20
1.480675
 30
0.0
  0
VERTEX
  5
7DD
  8
0
 10
-14.796311
 20
1.787166
 30
0.0
  0
VERTEX
  5
7DE
  8
0
 10
-14.937971
 20
2.083333
 30
0.0
  0
VERTEX
  5
7DF
  8
0
 10
-15.105426
 20
2.366844
 30
0.0
  0
VERTEX
  5
7E0
  8
0
 10
-15.297543
 20
2.635451
 30
0.0
  0
VERTEX
  5
7E1
  8
0
 10
-15.512994
 20
2.887006
 30
0.0
  0
VERTEX
  5
7E2
  8
0
 10
-15.750265
 20
3.11948
 30
0.0
  0
VERTEX
  5
7E3
  8
0
 10
-16.007663
 20
3.330981
 30
0.0
  0
VERTEX
  5
7E4
  8
0
 10
-16.283333
 20
3.519764
 30
0.0
  0
VERTEX
  5
7E5
  8
0
 10
-16.575268
 20
3.68425
 30
0.0
  0
VERTEX
  5
7E6
  8
0
 10
-16.881322
 20
3.823037
 30
0.0
  0
VERTEX
  5
7E7
  8
0
 10
-17.199233
 20
3.934913
 30
0.0
  0
VERTEX
  5
7E8
  8
0
 10
-17.526631
 20
4.018866
 30
0.0
  0
VERTEX
  5
7E9
  8
0
 10
-17.861061
 20
4.07409
 30
0.0
  0
VERTEX
  5
7EA
  8
0
 10
-18.2
 20
4.1
 30
0.0
  0
VERTEX
  5
7EB
  8
0
 10
-18.540876
 20
4.096228
 30
0.0
  0
VERTEX
  5
7EC
  8
0
 10
-18.881087
 20
4.062635
 30
0.0
  0
VERTEX
  5
7ED
  8
0
 10
-19.218022
 20
3.999308
 30
0.0
  0
VERTEX
  5
7EE
  8
0
 10
-19.549079
 20
3.906565
 30
0.0
  0
VERTEX
  5
7EF
  8
0
 10
-19.87169
 20
3.784951
 30
0.0
  0
VERTEX
  5
7F0
  8
0
 10
-20.183333
 20
3.635234
 30
0.0
  0
VERTEX
  5
7F1
  8
0
 10
-20.48156
 20
3.458405
 30
0.0
  0
VERTEX
  5
7F2
  8
0
 10
-20.764008
 20
3.255666
 30
0.0
  0
VERTEX
  5
7F3
  8
0
 10
-21.028427
 20
3.028427
 30
0.0
  0
VERTEX
  5
7F4
  8
0
 10
-21.272689
 20
2.778293
 30
0.0
  0
VERTEX
  5
7F5
  8
0
 10
-21.494812
 20
2.507052
 30
0.0
  0
VERTEX
  5
7F6
  8
0
 10
-21.692969
 20
2.216667
 30
0.0
  0
VERTEX
  5
7F7
  8
0
 10
-21.865511
 20
1.909256
 30
0.0
  0
VERTEX
  5
7F8
  8
0
 10
-22.010976
 20
1.587082
 30
0.0
  0
VERTEX
  5
7F9
  8
0
 10
-22.128098
 20
1.252531
 30
0.0
  0
VERTEX
  5
7FA
  8
0
 10
-22.215827
 20
0.9080990000000002
 30
0.0
  0
VERTEX
  5
7FB
  8
0
 10
-22.273329
 20
0.5563700000000003
 30
0.0
  0
VERTEX
  5
7FC
  8
0
 10
-22.3
 20
0.2000000000000002
 30
0.0
  0
VERTEX
  5
7FD
  8
0
 10
-22.295467
 20
-0.1583069999999998
 30
0.0
  0
VERTEX
  5
7FE
  8
0
 10
-22.259596
 20
-0.5158159999999998
 30
0.0
  0
VERTEX
  5
7FF
  8
0
 10
-22.192493
 20
-0.8697849999999998
 30
0.0
  0
VERTEX
  5
800
  8
0
 10
-22.094504
 20
-1.217483
 30
0.0
  0
VERTEX
  5
801
  8
0
 10
-21.966212
 20
-1.556214
 30
0.0
  0
VERTEX
  5
802
  8
0
 10
-21.808439
 20
-1.883333
 30
0.0
  0
VERTEX
  5
803
  8
0
 10
-21.622235
 20
-2.196275
 30
0.0
  0
VERTEX
  5
804
  8
0
 10
-21.408875
 20
-2.492566
 30
0.0
  0
VERTEX
  5
805
  8
0
 10
-21.169848
 20
-2.769848
 30
0.0
  0
VERTEX
  5
806
  8
0
 10
-20.90685
 20
-3.025898
 30
0.0
  0
VERTEX
  5
807
  8
0
 10
-20.621767
 20
-3.258642
 30
0.0
  0
VERTEX
  5
808
  8
0
 10
-20.316667
 20
-3.466174
 30
0.0
  0
VERTEX
  5
809
  8
0
 10
-19.99378
 20
-3.646773
 30
0.0
  0
VERTEX
  5
80A
  8
0
 10
-19.655486
 20
-3.798914
 30
0.0
  0
VERTEX
  5
80B
  8
0
 10
-19.304295
 20
-3.921284
 30
0.0
  0
VERTEX
  5
80C
  8
0
 10
-18.942828
 20
-4.012789
 30
0.0
  0
VERTEX
  5
80D
  8
0
 10
-18.573801
 20
-4.072568
 30
0.0
  0
VERTEX
  5
80E
  8
0
 10
-18.2
 20
-4.1
 30
0.0
  0
VERTEX
  5
80F
  8
0
 10
-17.824262
 20
-4.094706
 30
0.0
  0
VERTEX
  5
810
  8
0
 10
-17.449454
 20
-4.056558
 30
0.0
  0
VERTEX
  5
811
  8
0
 10
-17.078451
 20
-3.985679
 30
0.0
  0
VERTEX
  5
812
  8
0
 10
-16.714112
 20
-3.882442
 30
0.0
  0
VERTEX
  5
813
  8
0
 10
-16.359263
 20
-3.747474
 30
0.0
  0
VERTEX
  5
814
  8
0
 10
-16.016667
 20
-3.581644
 30
0.0
  0
VERTEX
  5
815
  8
0
 10
-15.68901
 20
-3.386066
 30
0.0
  0
VERTEX
  5
816
  8
0
 10
-15.378877
 20
-3.162084
 30
0.0
  0
VERTEX
  5
817
  8
0
 10
-15.08873
 20
-2.91127
 30
0.0
  0
VERTEX
  5
818
  8
0
 10
-14.820893
 20
-2.635408
 30
0.0
  0
VERTEX
  5
819
  8
0
 10
-14.577528
 20
-2.336482
 30
0.0
  0
VERTEX
  5
81A
  8
0
 10
-14.360621
 20
-2.016667
 30
0.0
  0
VERTEX
  5
81B
  8
0
 10
-14.171965
 20
-1.678303
 30
0.0
  0
VERTEX
  5
81C
  8
0
 10
-14.013147
 20
-1.32389
 30
0.0
  0
VERTEX
  5
81D
  8
0
 10
-13.885531
 20
-0.9560579999999999
 30
0.0
  0
VERTEX
  5
81E
  8
0
 10
-13.79025
 20
-0.5775579999999998
 30
0.0
  0
VERTEX
  5
81F
  8
0
 10
-13.728193
 20
-0.1912319999999998
 30
0.0
  0
VERTEX
  5
820
  8
0
 10
-13.7
 20
0.2000000000000002
 30
0.0
  0
VERTEX
  5
821
  8
0
 10
-13.706055
 20
0.5931690000000002
 30
0.0
  0
VERTEX
  5
822
  8
0
 10
-13.74648
 20
0.9852760000000002
 30
0.0
  0
VERTEX
  5
823
  8
0
 10
-13.821136
 20
1.373313
 30
0.0
  0
VERTEX
  5
824
  8
0
 10
-13.929619
 20
1.754292
 30
0.0
  0
VERTEX
  5
825
  8
0
 10
-14.071265
 20
2.125261
 30
0.0
  0
VERTEX
  5
826
  8
0
 10
-14.245151
 20
2.483333
 30
0.0
  0
VERTEX
  5
827
  8
0
 10
-14.450104
 20
2.825705
 30
0.0
  0
VERTEX
  5
828
  8
0
 10
-14.684707
 20
3.149681
 30
0.0
  0
VERTEX
  5
829
  8
0
 10
-14.947309
 20
3.452691
 30
0.0
  0
VERTEX
  5
82A
  8
0
 10
-15.236035
 20
3.732316
 30
0.0
  0
VERTEX
  5
82B
  8
0
 10
-15.548802
 20
3.986303
 30
0.0
  0
VERTEX
  5
82C
  8
0
 10
-15.883333
 20
4.212584000000001
 30
0.0
  0
VERTEX
  5
82D
  8
0
 10
-16.237173
 20
4.409296
 30
0.0
  0
VERTEX
  5
82E
  8
0
 10
-16.607706
 20
4.574791
 30
0.0
  0
VERTEX
  5
82F
  8
0
 10
-16.992178
 20
4.707654
 30
0.0
  0
VERTEX
  5
830
  8
0
 10
-17.387712
 20
4.806712
 30
0.0
  0
VERTEX
  5
831
  8
0
 10
-17.791336
 20
4.871046
 30
0.0
  0
VERTEX
  5
832
  8
0
 10
-18.2
 20
4.9
 30
0.0
  0
VERTEX
  5
833
  8
0
 10
-18.6106
 20
4.893184
 30
0.0
  0
VERTEX
  5
834
  8
0
 10
-19.020005
 20
4.850481
 30
0.0
  0
VERTEX
  5
835
  8
0
 10
-19.425077
 20
4.772049
 30
0.0
  0
VERTEX
  5
836
  8
0
 10
-19.822696
 20
4.658319000000001
 30
0.0
  0
VERTEX
  5
837
  8
0
 10
-20.209785
 20
4.509997
 30
0.0
  0
VERTEX
  5
838
  8
0
 10
-20.583333
 20
4.328054
 30
0.0
  0
VERTEX
  5
839
  8
0
 10
-20.940421
 20
4.113726
 30
0.0
  0
VERTEX
  5
83A
  8
0
 10
-21.278238
 20
3.868502
 30
0.0
  0
VERTEX
  5
83B
  8
0
 10
-21.594113
 20
3.594113
 30
0.0
  0
VERTEX
  5
83C
  8
0
 10
-21.885525
 20
3.292523
 30
0.0
  0
VERTEX
  5
83D
  8
0
 10
-22.150133
 20
2.965913
 30
0.0
  0
VERTEX
  5
83E
  8
0
 10
-22.385789
 20
2.616667
 30
0.0
  0
VERTEX
  5
83F
  8
0
 10
-22.590558
 20
2.247351
 30
0.0
  0
VERTEX
  5
840
  8
0
 10
-22.76273
 20
1.860698
 30
0.0
  0
VERTEX
  5
841
  8
0
 10
-22.900839
 20
1.459586
 30
0.0
  0
VERTEX
  5
842
  8
0
 10
-23.003673
 20
1.047017
 30
0.0
  0
VERTEX
  5
843
  8
0
 10
-23.070285
 20
0.6260950000000002
 30
0.0
  0
VERTEX
  5
844
  8
0
 10
-23.1
 20
0.2000000000000002
 30
0.0
  0
VERTEX
  5
845
  8
0
 10
-23.092423
 20
-0.2280319999999998
 30
0.0
  0
VERTEX
  5
846
  8
0
 10
-23.047443
 20
-0.6547349999999998
 30
0.0
  0
VERTEX
  5
847
  8
0
 10
-22.965234
 20
-1.076841
 30
0.0
  0
VERTEX
  5
848
  8
0
 10
-22.846258
 20
-1.4911
 30
0.0
  0
VERTEX
  5
849
  8
0
 10
-22.691259
 20
-1.894308
 30
0.0
  0
VERTEX
  5
84A
  8
0
 10
-22.50126
 20
-2.283333
 30
0.0
  0
VERTEX
  5
84B
  8
0
 10
-22.277557
 20
-2.655136
 30
0.0
  0
VERTEX
  5
84C
  8
0
 10
-22.021711
 20
-3.006796
 30
0.0
  0
VERTEX
  5
84D
  8
0
 10
-21.735534
 20
-3.335534
 30
0.0
  0
VERTEX
  5
84E
  8
0
 10
-21.42108
 20
-3.638734
 30
0.0
  0
VERTEX
  5
84F
  8
0
 10
-21.080628
 20
-3.913964
 30
0.0
  0
VERTEX
  5
850
  8
0
 10
-20.716667
 20
-4.158995
 30
0.0
  0
VERTEX
  5
851
  8
0
 10
-20.331874
 20
-4.371818999999999
 30
0.0
  0
VERTEX
  5
852
  8
0
 10
-19.929102
 20
-4.550668
 30
0.0
  0
VERTEX
  5
853
  8
0
 10
-19.51135
 20
-4.694024
 30
0.0
  0
VERTEX
  5
854
  8
0
 10
-19.081747
 20
-4.800635
 30
0.0
  0
VERTEX
  5
855
  8
0
 10
-18.643526
 20
-4.869524
 30
0.0
  0
VERTEX
  5
856
  8
0
 10
-18.2
 20
-4.899999999999999
 30
0.0
  0
VERTEX
  5
857
  8
0
 10
-17.754537
 20
-4.891662
 30
0.0
  0
VERTEX
  5
858
  8
0
 10
-17.310535
 20
-4.844404
 30
0.0
  0
VERTEX
  5
859
  8
0
 10
-16.871396
 20
-4.758419
 30
0.0
  0
VERTEX
  5
85A
  8
0
 10
-16.440496
 20
-4.634196
 30
0.0
  0
VERTEX
  5
85B
  8
0
 10
-16.021168
 20
-4.472519999999999
 30
0.0
  0
VERTEX
  5
85C
  8
0
 10
-15.616667
 20
-4.274465
 30
0.0
  0
VERTEX
  5
85D
  8
0
 10
-15.230149
 20
-4.041386999999999
 30
0.0
  0
VERTEX
  5
85E
  8
0
 10
-14.864647
 20
-3.774919
 30
0.0
  0
VERTEX
  5
85F
  8
0
 10
-14.523045
 20
-3.476955
 30
0.0
  0
VERTEX
  5
860
  8
0
 10
-14.208057
 20
-3.149638
 30
0.0
  0
VERTEX
  5
861
  8
0
 10
-13.922206
 20
-2.795344
 30
0.0
  0
VERTEX
  5
862
  8
0
 10
-13.6678
 20
-2.416667
 30
0.0
  0
VERTEX
  5
863
  8
0
 10
-13.446919
 20
-2.016398
 30
0.0
  0
VERTEX
  5
864
  8
0
 10
-13.261393
 20
-1.597506
 30
0.0
  0
VERTEX
  5
865
  8
0
 10
-13.112791
 20
-1.163114
 30
0.0
  0
VERTEX
  5
866
  8
0
 10
-13.002404
 20
-0.7164759999999998
 30
0.0
  0
VERTEX
  5
867
  8
0
 10
-12.931237
 20
-0.2609569999999998
 30
0.0
  0
VERTEX
  5
868
  8
0
 10
-12.9
 20
0.2000000000000002
 30
0.0
  0
VERTEX
  5
869
  8
0
 10
-12.909099
 20
0.6628940000000002
 30
0.0
  0
VERTEX
  5
86A
  8
0
 10
-12.958634
 20
1.124194
 30
0.0
  0
VERTEX
  5
86B
  8
0
 10
-13.048396
 20
1.580368
 30
0.0
  0
VERTEX
  5
86C
  8
0
 10
-13.177865
 20
2.027908
 30
0.0
  0
VERTEX
  5
86D
  8
0
 10
-13.346218
 20
2.463356
 30
0.0
  0
VERTEX
  5
86E
  8
0
 10
-13.55233
 20
2.883333
 30
0.0
  0
VERTEX
  5
86F
  8
0
 10
-13.794782
 20
3.284567
 30
0.0
  0
VERTEX
  5
870
  8
0
 10
-14.071872
 20
3.663911
 30
0.0
  0
VERTEX
  5
871
  8
0
 10
-14.381623
 20
4.018377
 30
0.0
  0
VERTEX
  5
872
  8
0
 10
-14.721805
 20
4.345152000000001
 30
0.0
  0
VERTEX
  5
873
  8
0
 10
-15.089941
 20
4.641624
 30
0.0
  0
VERTEX
  5
874
  8
0
 10
-15.483333
 20
4.905405
 30
0.0
  0
VERTEX
  5
875
  8
0
 10
-15.899078
 20
5.134342
 30
0.0
  0
VERTEX
  5
876
  8
0
 10
-16.33409
 20
5.326545
 30
0.0
  0
VERTEX
  5
877
  8
0
 10
-16.785123
 20
5.480395000000001
 30
0.0
  0
VERTEX
  5
878
  8
0
 10
-17.248794
 20
5.594558
 30
0.0
  0
VERTEX
  5
879
  8
0
 10
-17.721612
 20
5.668002
 30
0.0
  0
VERTEX
  5
87A
  8
0
 10
-18.2
 20
5.7
 30
0.0
  0
VERTEX
  5
87B
  8
0
 10
-18.680325
 20
5.69014
 30
0.0
  0
VERTEX
  5
87C
  8
0
 10
-19.158924
 20
5.638327
 30
0.0
  0
VERTEX
  5
87D
  8
0
 10
-19.632132
 20
5.54479
 30
0.0
  0
VERTEX
  5
87E
  8
0
 10
-20.096312
 20
5.410074
 30
0.0
  0
VERTEX
  5
87F
  8
0
 10
-20.547879
 20
5.235043
 30
0.0
  0
VERTEX
  5
880
  8
0
 10
-20.983333
 20
5.020875
 30
0.0
  0
VERTEX
  5
881
  8
0
 10
-21.399282
 20
4.769048000000001
 30
0.0
  0
VERTEX
  5
882
  8
0
 10
-21.792469
 20
4.481337
 30
0.0
  0
VERTEX
  5
883
  8
0
 10
-22.159798
 20
4.159798
 30
0.0
  0
VERTEX
  5
884
  8
0
 10
-22.49836
 20
3.806753
 30
0.0
  0
VERTEX
  5
885
  8
0
 10
-22.805455
 20
3.424774
 30
0.0
  0
VERTEX
  5
886
  8
0
 10
-23.07861
 20
3.016667
 30
0.0
  0
VERTEX
  5
887
  8
0
 10
-23.315604
 20
2.585445
 30
0.0
  0
VERTEX
  5
888
  8
0
 10
-23.514484
 20
2.134314
 30
0.0
  0
VERTEX
  5
889
  8
0
 10
-23.67358
 20
1.666641
 30
0.0
  0
VERTEX
  5
88A
  8
0
 10
-23.79152
 20
1.185936
 30
0.0
  0
VERTEX
  5
88B
  8
0
 10
-23.867241
 20
0.6958190000000002
 30
0.0
  0
VERTEX
  5
88C
  8
0
 10
-23.9
 20
0.2000000000000002
 30
0.0
  0
VERTEX
  5
88D
  8
0
 10
-23.889379
 20
-0.2977559999999998
 30
0.0
  0
VERTEX
  5
88E
  8
0
 10
-23.835289
 20
-0.7936529999999998
 30
0.0
  0
VERTEX
  5
88F
  8
0
 10
-23.737975
 20
-1.283896
 30
0.0
  0
VERTEX
  5
890
  8
0
 10
-23.598012
 20
-1.764716
 30
0.0
  0
VERTEX
  5
891
  8
0
 10
-23.416305
 20
-2.232403
 30
0.0
  0
VERTEX
  5
892
  8
0
 10
-23.19408
 20
-2.683333
 30
0.0
  0
VERTEX
  5
893
  8
0
 10
-22.932878
 20
-3.113997
 30
0.0
  0
VERTEX
  5
894
  8
0
 10
-22.634546
 20
-3.521026
 30
0.0
  0
VERTEX
  5
895
  8
0
 10
-22.301219
 20
-3.901219
 30
0.0
  0
VERTEX
  5
896
  8
0
 10
-21.93531
 20
-4.251569
 30
0.0
  0
VERTEX
  5
897
  8
0
 10
-21.539489
 20
-4.569285
 30
0.0
  0
VERTEX
  5
898
  8
0
 10
-21.116667
 20
-4.851815
 30
0.0
  0
VERTEX
  5
899
  8
0
 10
-20.669969
 20
-5.096865999999999
 30
0.0
  0
VERTEX
  5
89A
  8
0
 10
-20.202718
 20
-5.302422
 30
0.0
  0
VERTEX
  5
89B
  8
0
 10
-19.718405
 20
-5.466765
 30
0.0
  0
VERTEX
  5
89C
  8
0
 10
-19.220665
 20
-5.588481
 30
0.0
  0
VERTEX
  5
89D
  8
0
 10
-18.71325
 20
-5.66648
 30
0.0
  0
VERTEX
  5
89E
  8
0
 10
-18.2
 20
-5.7
 30
0.0
  0
VERTEX
  5
89F
  8
0
 10
-17.684813
 20
-5.688618
 30
0.0
  0
VERTEX
  5
8A0
  8
0
 10
-17.171617
 20
-5.63225
 30
0.0
  0
VERTEX
  5
8A1
  8
0
 10
-16.66434
 20
-5.53116
 30
0.0
  0
VERTEX
  5
8A2
  8
0
 10
-16.16688
 20
-5.385950999999999
 30
0.0
  0
VERTEX
  5
8A3
  8
0
 10
-15.683073
 20
-5.197566
 30
0.0
  0
VERTEX
  5
8A4
  8
0
 10
-15.216667
 20
-4.967285
 30
0.0
  0
VERTEX
  5
8A5
  8
0
 10
-14.771288
 20
-4.696709
 30
0.0
  0
VERTEX
  5
8A6
  8
0
 10
-14.350416
 20
-4.387754999999999
 30
0.0
  0
VERTEX
  5
8A7
  8
0
 10
-13.957359
 20
-4.042641
 30
0.0
  0
VERTEX
  5
8A8
  8
0
 10
-13.595222
 20
-3.663868
 30
0.0
  0
VERTEX
  5
8A9
  8
0
 10
-13.266884
 20
-3.254205
 30
0.0
  0
VERTEX
  5
8AA
  8
0
 10
-12.97498
 20
-2.816667
 30
0.0
  0
VERTEX
  5
8AB
  8
0
 10
-12.721873
 20
-2.354493
 30
0.0
  0
VERTEX
  5
8AC
  8
0
 10
-12.509639
 20
-1.871122
 30
0.0
  0
VERTEX
  5
8AD
  8
0
 10
-12.34005
 20
-1.370169
 30
0.0
  0
VERTEX
  5
8AE
  8
0
 10
-12.214557
 20
-0.8553949999999999
 30
0.0
  0
VERTEX
  5
8AF
  8
0
 10
-12.134281
 20
-0.3306819999999998
 30
0.0
  0
VERTEX
  5
8B0
  8
0
 10
-12.1
 20
0.2000000000000002
 30
0.0
  0
VERTEX
  5
8B1
  8
0
 10
-12.112144
 20
0.7326180000000002
 30
0.0
  0
VERTEX
  5
8B2
  8
0
 10
-12.170788
 20
1.263113
 30
0.0
  0
VERTEX
  5
8B3
  8
0
 10
-12.275655
 20
1.787423
 30
0.0
  0
VERTEX
  5
8B4
  8
0
 10
-12.426111
 20
2.301524
 30
0.0
  0
VERTEX
  5
8B5
  8
0
 10
-12.621172
 20
2.80145
 30
0.0
  0
VERTEX
  5
8B6
  8
0
 10
-12.85951
 20
3.283333
 30
0.0
  0
VERTEX
  5
8B7
  8
0
 10
-13.139461
 20
3.743428
 30
0.0
  0
VERTEX
  5
8B8
  8
0
 10
-13.459036
 20
4.178141
 30
0.0
  0
VERTEX
  5
8B9
  8
0
 10
-13.815938
 20
4.584062
 30
0.0
  0
VERTEX
  5
8BA
  8
0
 10
-14.207575
 20
4.957987
 30
0.0
  0
VERTEX
  5
8BB
  8
0
 10
-14.63108
 20
5.296946
 30
0.0
  0
VERTEX
  5
8BC
  8
0
 10
-15.083333
 20
5.598225
 30
0.0
  0
VERTEX
  5
8BD
  8
0
 10
-15.560984
 20
5.859389
 30
0.0
  0
VERTEX
  5
8BE
  8
0
 10
-16.060474
 20
6.078299
 30
0.0
  0
VERTEX
  5
8BF
  8
0
 10
-16.578067
 20
6.253135
 30
0.0
  0
VERTEX
  5
8C0
  8
0
 10
-17.109875
 20
6.382404
 30
0.0
  0
VERTEX
  5
8C1
  8
0
 10
-17.651887
 20
6.464958
 30
0.0
  0
VERTEX
  5
8C2
  8
0
 10
-18.2
 20
6.5
 30
0.0
  0
VERTEX
  5
8C3
  8
0
 10
-18.75005
 20
6.487095
 30
0.0
  0
VERTEX
  5
8C4
  8
0
 10
-19.297842
 20
6.426173
 30
0.0
  0
VERTEX
  5
8C5
  8
0
 10
-19.839187
 20
6.317530000000001
 30
0.0
  0
VERTEX
  5
8C6
  8
0
 10
-20.369928
 20
6.161828
 30
0.0
  0
VERTEX
  5
8C7
  8
0
 10
-20.885974
 20
5.960089
 30
0.0
  0
VERTEX
  5
8C8
  8
0
 10
-21.383333
 20
5.713695
 30
0.0
  0
VERTEX
  5
8C9
  8
0
 10
-21.858143
 20
5.424370000000001
 30
0.0
  0
VERTEX
  5
8CA
  8
0
 10
-22.306699
 20
5.094173000000001
 30
0.0
  0
VERTEX
  5
8CB
  8
0
 10
-22.725483
 20
4.725483000000001
 30
0.0
  0
VERTEX
  5
8CC
  8
0
 10
-23.111196
 20
4.320983
 30
0.0
  0
VERTEX
  5
8CD
  8
0
 10
-23.460776
 20
3.883635
 30
0.0
  0
VERTEX
  5
8CE
  8
0
 10
-23.77143
 20
3.416667
 30
0.0
  0
VERTEX
  5
8CF
  8
0
 10
-24.04065
 20
2.92354
 30
0.0
  0
VERTEX
  5
8D0
  8
0
 10
-24.266238
 20
2.40793
 30
0.0
  0
VERTEX
  5
8D1
  8
0
 10
-24.44632
 20
1.873696
 30
0.0
  0
VERTEX
  5
8D2
  8
0
 10
-24.579366
 20
1.324854
 30
0.0
  0
VERTEX
  5
8D3
  8
0
 10
-24.664197
 20
0.7655440000000002
 30
0.0
  0
VERTEX
  5
8D4
  8
0
 10
-24.7
 20
0.2000000000000002
 30
0.0
  0
VERTEX
  5
8D5
  8
0
 10
-24.686334
 20
-0.3674809999999998
 30
0.0
  0
VERTEX
  5
8D6
  8
0
 10
-24.623135
 20
-0.9325719999999997
 30
0.0
  0
VERTEX
  5
8D7
  8
0
 10
-24.510715
 20
-1.490951
 30
0.0
  0
VERTEX
  5
8D8
  8
0
 10
-24.349766
 20
-2.038332
 30
0.0
  0
VERTEX
  5
8D9
  8
0
 10
-24.141351
 20
-2.570497
 30
0.0
  0
VERTEX
  5
8DA
  8
0
 10
-23.8869
 20
-3.083333
 30
0.0
  0
VERTEX
  5
8DB
  8
0
 10
-23.5882
 20
-3.572858
 30
0.0
  0
VERTEX
  5
8DC
  8
0
 10
-23.247382
 20
-4.035256
 30
0.0
  0
VERTEX
  5
8DD
  8
0
 10
-22.866905
 20
-4.466905
 30
0.0
  0
VERTEX
  5
8DE
  8
0
 10
-22.44954
 20
-4.864405
 30
0.0
  0
VERTEX
  5
8DF
  8
0
 10
-21.998351
 20
-5.224607
 30
0.0
  0
VERTEX
  5
8E0
  8
0
 10
-21.516667
 20
-5.544635
 30
0.0
  0
VERTEX
  5
8E1
  8
0
 10
-21.008064
 20
-5.821912
 30
0.0
  0
VERTEX
  5
8E2
  8
0
 10
-20.476334
 20
-6.054176
 30
0.0
  0
VERTEX
  5
8E3
  8
0
 10
-19.92546
 20
-6.239506
 30
0.0
  0
VERTEX
  5
8E4
  8
0
 10
-19.359584
 20
-6.376327
 30
0.0
  0
VERTEX
  5
8E5
  8
0
 10
-18.782975
 20
-6.463436
 30
0.0
  0
VERTEX
  5
8E6
  8
0
 10
-18.2
 20
-6.5
 30
0.0
  0
VERTEX
  5
8E7
  8
0
 10
-17.615088
 20
-6.485573
 30
0.0
  0
VERTEX
  5
8E8
  8
0
 10
-17.032698
 20
-6.420097
 30
0.0
  0
VERTEX
  5
8E9
  8
0
 10
-16.457285
 20
-6.303901
 30
0.0
  0
VERTEX
  5
8EA
  8
0
 10
-15.893264
 20
-6.137705
 30
0.0
  0
VERTEX
  5
8EB
  8
0
 10
-15.344979
 20
-5.922613
 30
0.0
  0
VERTEX
  5
8EC
  8
0
 10
-14.816667
 20
-5.660105
 30
0.0
  0
VERTEX
  5
8ED
  8
0
 10
-14.312426
 20
-5.352031
 30
0.0
  0
VERTEX
  5
8EE
  8
0
 10
-13.836186
 20
-5.000591
 30
0.0
  0
VERTEX
  5
8EF
  8
0
 10
-13.391674
 20
-4.608326
 30
0.0
  0
VERTEX
  5
8F0
  8
0
 10
-12.982386
 20
-4.178097999999999
 30
0.0
  0
VERTEX
  5
8F1
  8
0
 10
-12.611563
 20
-3.713066
 30
0.0
  0
VERTEX
  5
8F2
  8
0
 10
-12.28216
 20
-3.216667
 30
0.0
  0
VERTEX
  5
8F3
  8
0
 10
-11.996827
 20
-2.692587
 30
0.0
  0
VERTEX
  5
8F4
  8
0
 10
-11.757885
 20
-2.144738
 30
0.0
  0
VERTEX
  5
8F5
  8
0
 10
-11.567309
 20
-1.577224
 30
0.0
  0
VERTEX
  5
8F6
  8
0
 10
-11.426711
 20
-0.9943139999999999
 30
0.0
  0
VERTEX
  5
8F7
  8
0
 10
-11.337325
 20
-0.4004059999999998
 30
0.0
  0
VERTEX
  5
8F8
  8
0
 10
-11.3
 20
0.2000000000000002
 30
0.0
  0
VERTEX
  5
8F9
  8
0
 10
-11.315188
 20
0.8023430000000001
 30
0.0
  0
VERTEX
  5
8FA
  8
0
 10
-11.382942
 20
1.402031
 30
0.0
  0
VERTEX
  5
8FB
  8
0
 10
-11.502914
 20
1.994479
 30
0.0
  0
VERTEX
  5
8FC
  8
0
 10
-11.674357
 20
2.57514
 30
0.0
  0
VERTEX
  5
8FD
  8
0
 10
-11.896126
 20
3.139545
 30
0.0
  0
VERTEX
  5
8FE
  8
0
 10
-12.16669
 20
3.683333
 30
0.0
  0
VERTEX
  5
8FF
  8
0
 10
-12.484139
 20
4.202289
 30
0.0
  0
VERTEX
  5
900
  8
0
 10
-12.846201
 20
4.692371000000001
 30
0.0
  0
VERTEX
  5
901
  8
0
 10
-13.250253
 20
5.149747000000001
 30
0.0
  0
VERTEX
  5
902
  8
0
 10
-13.693345
 20
5.570823
 30
0.0
  0
VERTEX
  5
903
  8
0
 10
-14.172219
 20
5.952268
 30
0.0
  0
VERTEX
  5
904
  8
0
 10
-14.683333
 20
6.291045
 30
0.0
  0
VERTEX
  5
905
  8
0
 10
-15.222889
 20
6.584435
 30
0.0
  0
VERTEX
  5
906
  8
0
 10
-15.786858
 20
6.830053
 30
0.0
  0
VERTEX
  5
907
  8
0
 10
-16.371012
 20
7.025876
 30
0.0
  0
VERTEX
  5
908
  8
0
 10
-16.970957
 20
7.17025
 30
0.0
  0
VERTEX
  5
909
  8
0
 10
-17.582163
 20
7.261914
 30
0.0
  0
VERTEX
  5
90A
  8
0
 10
-18.2
 20
7.3
 30
0.0
  0
VERTEX
  5
90B
  8
0
 10
-18.819774
 20
7.284051
 30
0.0
  0
VERTEX
  5
90C
  8
0
 10
-19.436761
 20
7.214020000000001
 30
0.0
  0
VERTEX
  5
90D
  8
0
 10
-20.046243
 20
7.090271
 30
0.0
  0
VERTEX
  5
90E
  8
0
 10
-20.643544
 20
6.913582
 30
0.0
  0
VERTEX
  5
90F
  8
0
 10
-21.224068
 20
6.685136
 30
0.0
  0
VERTEX
  5
910
  8
0
 10
-21.783333
 20
6.406515
 30
0.0
  0
VERTEX
  5
911
  8
0
 10
-22.317004
 20
6.079691
 30
0.0
  0
VERTEX
  5
912
  8
0
 10
-22.820929
 20
5.707008
 30
0.0
  0
VERTEX
  5
913
  8
0
 10
-23.291169
 20
5.291169
 30
0.0
  0
VERTEX
  5
914
  8
0
 10
-23.724032
 20
4.835213
 30
0.0
  0
VERTEX
  5
915
  8
0
 10
-24.116098
 20
4.342496000000001
 30
0.0
  0
VERTEX
  5
916
  8
0
 10
-24.46425
 20
3.816667
 30
0.0
  0
VERTEX
  5
917
  8
0
 10
-24.765696
 20
3.261635
 30
0.0
  0
VERTEX
  5
918
  8
0
 10
-25.017992
 20
2.681546
 30
0.0
  0
VERTEX
  5
919
  8
0
 10
-25.219061
 20
2.080752
 30
0.0
  0
VERTEX
  5
91A
  8
0
 10
-25.367212
 20
1.463773
 30
0.0
  0
VERTEX
  5
91B
  8
0
 10
-25.461152
 20
0.8352690000000002
 30
0.0
  0
VERTEX
  5
91C
  8
0
 10
-25.5
 20
0.2000000000000002
 30
0.0
  0
VERTEX
  5
91D
  8
0
 10
-25.48329
 20
-0.4372049999999998
 30
0.0
  0
VERTEX
  5
91E
  8
0
 10
-25.410981
 20
-1.071491
 30
0.0
  0
VERTEX
  5
91F
  8
0
 10
-25.283456
 20
-1.698006
 30
0.0
  0
VERTEX
  5
920
  8
0
 10
-25.10152
 20
-2.311948
 30
0.0
  0
VERTEX
  5
921
  8
0
 10
-24.866397
 20
-2.908592
 30
0.0
  0
VERTEX
  5
922
  8
0
 10
-24.57972
 20
-3.483333
 30
0.0
  0
VERTEX
  5
923
  8
0
 10
-24.243522
 20
-4.031719
 30
0.0
  0
VERTEX
  5
924
  8
0
 10
-23.860217
 20
-4.549486
 30
0.0
  0
VERTEX
  5
925
  8
0
 10
-23.43259
 20
-5.03259
 30
0.0
  0
VERTEX
  5
926
  8
0
 10
-22.96377
 20
-5.47724
 30
0.0
  0
VERTEX
  5
927
  8
0
 10
-22.457212
 20
-5.879929
 30
0.0
  0
VERTEX
  5
928
  8
0
 10
-21.916667
 20
-6.237456
 30
0.0
  0
VERTEX
  5
929
  8
0
 10
-21.346158
 20
-6.546958
 30
0.0
  0
VERTEX
  5
92A
  8
0
 10
-20.74995
 20
-6.805931
 30
0.0
  0
VERTEX
  5
92B
  8
0
 10
-20.132516
 20
-7.012246
 30
0.0
  0
VERTEX
  5
92C
  8
0
 10
-19.498502
 20
-7.164174
 30
0.0
  0
VERTEX
  5
92D
  8
0
 10
-18.8527
 20
-7.260391
 30
0.0
  0
VERTEX
  5
92E
  8
0
 10
-18.2
 20
-7.3
 30
0.0
  0
VERTEX
  5
92F
  8
0
 10
-17.545364
 20
-7.282529
 30
0.0
  0
VERTEX
  5
930
  8
0
 10
-16.89378
 20
-7.207943
 30
0.0
  0
VERTEX
  5
931
  8
0
 10
-16.25023
 20
-7.076641
 30
0.0
  0
VERTEX
  5
932
  8
0
 10
-15.619648
 20
-6.889459
 30
0.0
  0
VERTEX
  5
933
  8
0
 10
-15.006884
 20
-6.647659
 30
0.0
  0
VERTEX
  5
934
  8
0
 10
-14.416667
 20
-6.352926
 30
0.0
  0
VERTEX
  5
935
  8
0
 10
-13.853565
 20
-6.007352
 30
0.0
  0
VERTEX
  5
936
  8
0
 10
-13.321956
 20
-5.613426
 30
0.0
  0
VERTEX
  5
937
  8
0
 10
-12.825988
 20
-5.174011999999999
 30
0.0
  0
VERTEX
  5
938
  8
0
 10
-12.369551
 20
-4.692328
 30
0.0
  0
VERTEX
  5
939
  8
0
 10
-11.956241
 20
-4.171927
 30
0.0
  0
VERTEX
  5
93A
  8
0
 10
-11.589339
 20
-3.616667
 30
0.0
  0
VERTEX
  5
93B
  8
0
 10
-11.27178
 20
-3.030682
 30
0.0
  0
VERTEX
  5
93C
  8
0
 10
-11.006131
 20
-2.418354
 30
0.0
  0
VERTEX
  5
93D
  8
0
 10
-10.794569
 20
-1.784279
 30
0.0
  0
VERTEX
  5
93E
  8
0
 10
-10.638865
 20
-1.133232
 30
0.0
  0
VERTEX
  5
93F
  8
0
 10
-10.54037
 20
-0.4701309999999999
 30
0.0
  0
VERTEX
  5
940
  8
0
 10
-10.5
 20
0.2000000000000002
 30
0.0
  0
VERTEX
  5
941
  8
0
 10
-10.518232
 20
0.8720680000000002
 30
0.0
  0
VERTEX
  5
942
  8
0
 10
-10.595096
 20
1.54095
 30
0.0
  0
VERTEX
  5
943
  8
0
 10
-10.730174
 20
2.201534
 30
0.0
  0
VERTEX
  5
944
  8
0
 10
-10.922603
 20
2.848756
 30
0.0
  0
VERTEX
  5
945
  8
0
 10
-11.17108
 20
3.477639
 30
0.0
  0
VERTEX
  5
946
  8
0
 10
-11.473869
 20
4.083333
 30
0.0
  0
VERTEX
  5
947
  8
0
 10
-11.828817
 20
4.66115
 30
0.0
  0
VERTEX
  5
948
  8
0
 10
-12.233365
 20
5.206601
 30
0.0
  0
VERTEX
  5
949
  8
0
 10
-12.684567
 20
5.715433
 30
0.0
  0
VERTEX
  5
94A
  8
0
 10
-13.179115
 20
6.183658
 30
0.0
  0
VERTEX
  5
94B
  8
0
 10
-13.713358
 20
6.607589
 30
0.0
  0
VERTEX
  5
94C
  8
0
 10
-14.283333
 20
6.983866
 30
0.0
  0
VERTEX
  5
94D
  8
0
 10
-14.884795
 20
7.309481
 30
0.0
  0
VERTEX
  5
94E
  8
0
 10
-15.513242
 20
7.581808000000001
 30
0.0
  0
VERTEX
  5
94F
  8
0
 10
-16.163957
 20
7.798617
 30
0.0
  0
VERTEX
  5
950
  8
0
 10
-16.832038
 20
7.958097
 30
0.0
  0
VERTEX
  5
951
  8
0
 10
-17.512438
 20
8.058869000000001
 30
0.0
  0
VERTEX
  5
952
  8
0
 10
-18.2
 20
8.100000000000001
 30
0.0
  0
VERTEX
  5
953
  8
0
 10
-18.889499
 20
8.081007
 30
0.0
  0
VERTEX
  5
954
  8
0
 10
-19.575679
 20
8.001866
 30
0.0
  0
VERTEX
  5
955
  8
0
 10
-20.253298
 20
7.863012
 30
0.0
  0
VERTEX
  5
956
  8
0
 10
-20.91716
 20
7.665336
 30
0.0
  0
VERTEX
  5
957
  8
0
 10
-21.562163
 20
7.410182
 30
0.0
  0
VERTEX
  5
958
  8
0
 10
-22.183333
 20
7.099336
 30
0.0
  0
VERTEX
  5
959
  8
0
 10
-22.775865
 20
6.735013
 30
0.0
  0
VERTEX
  5
95A
  8
0
 10
-23.335159
 20
6.319844
 30
0.0
  0
VERTEX
  5
95B
  8
0
 10
-23.856854
 20
5.856854
 30
0.0
  0
VERTEX
  5
95C
  8
0
 10
-24.336867
 20
5.349443
 30
0.0
  0
VERTEX
  5
95D
  8
0
 10
-24.77142
 20
4.801358
 30
0.0
  0
VERTEX
  5
95E
  8
0
 10
-25.157071
 20
4.216667
 30
0.0
  0
VERTEX
  5
95F
  8
0
 10
-25.490743
 20
3.599729
 30
0.0
  0
VERTEX
  5
960
  8
0
 10
-25.769746
 20
2.955162
 30
0.0
  0
VERTEX
  5
961
  8
0
 10
-25.991802
 20
2.287807
 30
0.0
  0
VERTEX
  5
962
  8
0
 10
-26.155058
 20
1.602691
 30
0.0
  0
VERTEX
  5
963
  8
0
 10
-26.258108
 20
0.9049930000000002
 30
0.0
  0
VERTEX
  5
964
  8
0
 10
-26.3
 20
0.2000000000000002
 30
0.0
  0
VERTEX
  5
965
  8
0
 10
-26.280246
 20
-0.5069299999999998
 30
0.0
  0
VERTEX
  5
966
  8
0
 10
-26.198827
 20
-1.210409
 30
0.0
  0
VERTEX
  5
967
  8
0
 10
-26.056197
 20
-1.905062
 30
0.0
  0
VERTEX
  5
968
  8
0
 10
-25.853274
 20
-2.585564
 30
0.0
  0
VERTEX
  5
969
  8
0
 10
-25.591444
 20
-3.246687
 30
0.0
  0
VERTEX
  5
96A
  8
0
 10
-25.272541
 20
-3.883332999999999
 30
0.0
  0
VERTEX
  5
96B
  8
0
 10
-24.898843
 20
-4.490581
 30
0.0
  0
VERTEX
  5
96C
  8
0
 10
-24.473053
 20
-5.063715999999999
 30
0.0
  0
VERTEX
  5
96D
  8
0
 10
-23.998276
 20
-5.598276
 30
0.0
  0
VERTEX
  5
96E
  8
0
 10
-23.478
 20
-6.090076
 30
0.0
  0
VERTEX
  5
96F
  8
0
 10
-22.916073
 20
-6.53525
 30
0.0
  0
VERTEX
  5
970
  8
0
 10
-22.316667
 20
-6.930276
 30
0.0
  0
VERTEX
  5
971
  8
0
 10
-21.684253
 20
-7.272004
 30
0.0
  0
VERTEX
  5
972
  8
0
 10
-21.023566
 20
-7.557685
 30
0.0
  0
VERTEX
  5
973
  8
0
 10
-20.339571
 20
-7.784987
 30
0.0
  0
VERTEX
  5
974
  8
0
 10
-19.637421
 20
-7.95202
 30
0.0
  0
VERTEX
  5
975
  8
0
 10
-18.922424
 20
-8.057347
 30
0.0
  0
VERTEX
  5
976
  8
0
 10
-18.2
 20
-8.100000000000001
 30
0.0
  0
VERTEX
  5
977
  8
0
 10
-17.475639
 20
-8.079484999999998
 30
0.0
  0
VERTEX
  5
978
  8
0
 10
-16.754861
 20
-7.995788999999999
 30
0.0
  0
VERTEX
  5
979
  8
0
 10
-16.043175
 20
-7.849381999999999
 30
0.0
  0
VERTEX
  5
97A
  8
0
 10
-15.346032
 20
-7.641213
 30
0.0
  0
VERTEX
  5
97B
  8
0
 10
-14.66879
 20
-7.372705
 30
0.0
  0
VERTEX
  5
97C
  8
0
 10
-14.016667
 20
-7.045745999999999
 30
0.0
  0
VERTEX
  5
97D
  8
0
 10
-13.394704
 20
-6.662674
 30
0.0
  0
VERTEX
  5
97E
  8
0
 10
-12.807726
 20
-6.226262
 30
0.0
  0
VERTEX
  5
97F
  8
0
 10
-12.260303
 20
-5.739697
 30
0.0
  0
VERTEX
  5
980
  8
0
 10
-11.756715
 20
-5.206558
 30
0.0
  0
VERTEX
  5
981
  8
0
 10
-11.300919
 20
-4.630788
 30
0.0
  0
VERTEX
  5
982
  8
0
 10
-10.896519
 20
-4.016667
 30
0.0
  0
VERTEX
  5
983
  8
0
 10
-10.546734
 20
-3.368776
 30
0.0
  0
VERTEX
  5
984
  8
0
 10
-10.254377
 20
-2.69197
 30
0.0
  0
VERTEX
  5
985
  8
0
 10
-10.021828
 20
-1.991335
 30
0.0
  0
VERTEX
  5
986
  8
0
 10
-9.851019
 20
-1.272151
 30
0.0
  0
VERTEX
  5
987
  8
0
 10
-9.743414000000001
 20
-0.5398549999999999
 30
0.0
  0
VERTEX
  5
988
  8
0
 10
-9.7
 20
0.2000000000000002
 30
0.0
  0
SEQEND
  5
98B
  8
0
  0
VIEWPORT
  5
10D
 67
     1
  8
0
 10
5.25
 20
4.0
 30
0.0
 40
11.638
 41
8.993
 68
     1
 69
     1
1001
ACAD
1000
MVIEW
1002
{
1070
    16
1010
0.0
1020
0.0
1030
0.0
1010
0.0
1020
0.0
1030
1.0
1040
0.0
1040
8.993
1040
5.25
1040
4.0
1040
50.0
1040
0.0
1040
0.0
1070
     0
1070
   100
1070
     0
1070
     3
1070
     0
1070
     0
1070
     0
1070
     0
1040
0.0
1040
0.0
1040
0.0
1040
0.5
1040
0.5
1040
0.5
1040
0.5
1070
     0
1002
{
1002
}
1002
}
  0
ENDSEC
  0
EOF
