0
SECTION
2
HEADER
9
$INSUNITS
70
5
9
$ACADVER
1
AC1014
9
$HANDSEED
5
FFFF
0
ENDSEC
0
SECTION
2
TABLES
0
TABLE
2
VPORT
5
8
100
AcDbSymbolTable
0
ENDTAB
0
TABLE
2
LTYPE
5
5
100
AcDbSymbolTable
0
LTYPE
5
14
100
AcDbSymbolTableRecord
100
AcDbLinetypeTableRecord
2
BYBLOCK
70
0
0
LTYPE
5
15
100
AcDbSymbolTableRecord
100
AcDbLinetypeTableRecord
2
BYLAYER
70
0
0
LTYPE
5
16
100
AcDbSymbolTableRecord
100
AcDbLinetypeTableRecord
2
DASHED
70
0
3
Dashed __ __ __ __ __ __ __ __ __ __ __ __ __ _
72
65
73
2
40
0.75
49
0.5
74
0
49
-0.25
74
0
0
ENDTAB
0
TABLE
2
LAYER
5
2
100
AcDbSymbolTable
70
2
0
LAYER
5
50
100
AcDbSymbolTableRecord
100
AcDbLayerTableRecord
2
0
70
0
62
7
6
CONTINUOUS
0
ENDTAB
0
TABLE
2
STYLE
5
3
100
AcDbSymbolTable
70
1
0
STYLE
5
11
100
AcDbSymbolTableRecord
100
AcDbTextStyleTableRecord
2
STANDARD
70
0
0
ENDTAB
0
TABLE
2
VIEW
5
6
100
AcDbSymbolTable
70
0
0
ENDTAB
0
TABLE
2
UCS
5
7
100
AcDbSymbolTable
70
0
0
ENDTAB
0
TABLE
2
APPID
5
9
100
AcDbSymbolTable
70
2
0
APPID
5
12
100
AcDbSymbolTableRecord
100
AcDbRegAppTableRecord
2
ACAD
70
0
0
ENDTAB
0
TABLE
2
DIMSTYLE
5
A
100
AcDbSymbolTable
70
1
0
ENDTAB
0
TABLE
2
BLOCK_RECORD
5
1
100
AcDbSymbolTable
70
1
0
BLOCK_RECORD
5
1F
100
AcDbSymbolTableRecord
100
AcDbBlockTableRecord
2
*MODEL_SPACE
0
BLOCK_RECORD
5
1B
100
AcDbSymbolTableRecord
100
AcDbBlockTableRecord
2
*PAPER_SPACE
0
ENDTAB
0
ENDSEC
0
SECTION
2
BLOCKS
0
BLOCK
5
20
100
AcDbEntity
100
AcDbBlockBegin
2
*MODEL_SPACE
0
ENDBLK
5
21
100
AcDbEntity
100
AcDbBlockEnd
0
BLOCK
5
1C
100
AcDbEntity
100
AcDbBlockBegin
2
*PAPER_SPACE
0
ENDBLK
5
1D
100
AcDbEntity
100
AcDbBlockEnd
0
ENDSEC
0
SECTION
2
ENTITIES
0
SPLINE
5
100
100
AcDbEntity
8
0
100
AcDbSpline
70
0
71
3
72
821
73
817
74
0
42
0.000000001
43
0.0000000001
44
0.0000000001
40
0
40
0
40
0
40
0
40
0.74699372626852822
40
0.74699372626852822
40
0.74699372626852822
40
1.4808254488610588
40
1.4808254488610588
40
1.4808254488610588
40
2.2026292900819922
40
2.2026292900819922
40
2.2026292900819922
40
2.9133918121267071
40
2.9133918121267071
40
2.9133918121267071
40
3.6139739566180813
40
3.6139739566180813
40
3.6139739566180813
40
4.305130292133537
40
4.305130292133537
40
4.305130292133537
40
4.9875253486773969
40
4.9875253486773969
40
4.9875253486773969
40
5.661747269780113
40
5.661747269780113
40
5.661747269780113
40
6.3283191520930711
40
6.3283191520930711
40
6.3283191520930711
40
6.9877084522531296
40
6.9877084522531296
40
6.9877084522531296
40
7.6403348023722781
40
7.6403348023722781
40
7.6403348023722781
40
8.2865765237441078
40
8.2865765237441078
40
8.2865765237441078
40
8.9267760775788947
40
8.9267760775788947
40
8.9267760775788947
40
9.5612446469327921
40
9.5612446469327921
40
9.5612446469327921
40
10.190266006670505
40
10.190266006670505
40
10.190266006670505
40
10.814099807883766
40
10.814099807883766
40
10.814099807883766
40
11.432984378726411
40
11.432984378726411
40
11.432984378726411
40
12.047139124078974
40
12.047139124078974
40
12.047139124078974
40
12.656766590869605
40
12.656766590869605
40
12.656766590869605
40
13.262054253447465
40
13.262054253447465
40
13.262054253447465
40
13.863176063472341
40
13.863176063472341
40
13.863176063472341
40
14.460293800825061
40
14.460293800825061
40
14.460293800825061
40
15.053558255642988
40
15.053558255642988
40
15.053558255642988
40
15.643110266417862
40
15.643110266417862
40
15.643110266417862
40
16.229081634904627
40
16.229081634904627
40
16.229081634904627
40
16.811595935179817
40
16.811595935179817
40
16.811595935179817
40
17.390769231400032
40
17.390769231400032
40
17.390769231400032
40
17.966710716521469
40
17.966710716521469
40
17.966710716521469
40
18.539523282353723
40
18.539523282353723
40
18.539523282353723
40
19.109304029757638
40
19.109304029757638
40
19.109304029757638
40
19.676144726497284
40
19.676144726497284
40
19.676144726497284
40
20.240132219171194
40
20.240132219171194
40
20.240132219171194
40
20.801348804738826
40
20.801348804738826
40
20.801348804738826
40
21.359872566393552
40
21.359872566393552
40
21.359872566393552
40
21.915777677888073
40
21.915777677888073
40
21.915777677888073
40
22.469134679871324
40
22.469134679871324
40
22.469134679871324
40
23.020010731331283
40
23.020010731331283
40
23.020010731331283
40
23.568469838841722
40
23.568469838841722
40
23.568469838841722
40
24.114573065972021
40
24.114573065972021
40
24.114573065972021
40
24.658378724928191
40
24.658378724928191
40
24.658378724928191
40
25.199942552243005
40
25.199942552243005
40
25.199942552243005
40
25.739317870116967
40
25.739317870116967
40
25.739317870116967
40
26.27655573482496
40
26.27655573482496
40
26.27655573482496
40
26.811705073441097
40
26.811705073441097
40
26.811705073441097
40
27.344812809993126
40
27.344812809993126
40
27.344812809993126
40
27.875923982034642
40
27.875923982034642
40
27.875923982034642
40
28.405081848515707
40
28.405081848515707
40
28.405081848515707
40
28.932327989738098
40
28.932327989738098
40
28.932327989738098
40
29.457702400098633
40
29.457702400098633
40
29.457702400098633
40
29.981243574251
40
29.981243574251
40
29.981243574251
40
30.502988587252247
40
30.502988587252247
40
30.502988587252247
40
31.022973169203176
40
31.022973169203176
40
31.022973169203176
40
31.541231774841535
40
31.541231774841535
40
31.541231774841535
40
32.057797648502223
40
32.057797648502223
40
32.057797648502223
40
32.572702884818895
40
32.572702884818895
40
32.572702884818895
40
33.085978485506139
40
33.085978485506139
40
33.085978485506139
40
33.597654412529558
40
33.597654412529558
40
33.597654412529558
40
34.107759637943111
40
34.107759637943111
40
34.107759637943111
40
34.616322190647622
40
34.616322190647622
40
34.616322190647622
40
35.123369200301774
40
35.123369200301774
40
35.123369200301774
40
35.628926938596543
40
35.628926938596543
40
35.628926938596543
40
36.133020858085658
40
36.133020858085658
40
36.133020858085658
40
36.635675628748324
40
36.635675628748324
40
36.635675628748324
40
37.136915172445342
40
37.136915172445342
40
37.136915172445342
40
37.6367626954165
40
37.6367626954165
40
37.6367626954165
40
38.135240718954876
40
38.135240718954876
40
38.135240718954876
40
38.632371108382635
40
38.632371108382635
40
38.632371108382635
40
39.128175100442959
40
39.128175100442959
40
39.128175100442959
40
39.622673329213661
40
39.622673329213661
40
39.622673329213661
40
40.115885850639742
40
40.115885850639742
40
40.115885850639742
40
40.607832165774688
40
40.607832165774688
40
40.607832165774688
40
41.098531242813358
40
41.098531242813358
40
41.098531242813358
40
41.588001537993179
40
41.588001537993179
40
41.588001537993179
40
42.076261015434575
40
42.076261015434575
40
42.076261015434575
40
42.563327165986301
40
42.563327165986301
40
42.563327165986301
40
43.049217025136642
40
43.049217025136642
40
43.049217025136642
40
43.533947190047037
40
43.533947190047037
40
43.533947190047037
40
44.017533835760624
40
44.017533835760624
40
44.017533835760624
40
44.499992730634467
40
44.499992730634467
40
44.499992730634467
40
44.981339251041021
40
44.981339251041021
40
44.981339251041021
40
45.461588395380979
40
45.461588395380979
40
45.461588395380979
40
45.940754797447013
40
45.940754797447013
40
45.940754797447013
40
46.418852739175144
40
46.418852739175144
40
46.418852739175144
40
46.895896162817998
40
46.895896162817998
40
46.895896162817998
40
47.371898682572088
40
47.371898682572088
40
47.371898682572088
40
47.846873595688962
40
47.846873595688962
40
47.846873595688962
40
48.320833893098339
40
48.320833893098339
40
48.320833893098339
40
48.793792269569373
40
48.793792269569373
40
48.793792269569373
40
49.265761133434665
40
49.265761133434665
40
49.265761133434665
40
49.736752615900016
40
49.736752615900016
40
49.736752615900016
40
50.206778579961536
40
50.206778579961536
40
50.206778579961536
40
50.675850628950379
40
50.675850628950379
40
50.675850628950379
40
51.14398011472413
40
51.14398011472413
40
51.14398011472413
40
51.611178145522729
40
51.611178145522729
40
51.611178145522729
40
52.077455593505753
40
52.077455593505753
40
52.077455593505753
40
52.542823101986919
40
52.542823101986919
40
52.542823101986919
40
53.007291092380648
40
53.007291092380648
40
53.007291092380648
40
53.470869770874756
40
53.470869770874756
40
53.470869770874756
40
53.933569134842543
40
53.933569134842543
40
53.933569134842543
40
54.395398979006615
40
54.395398979006615
40
54.395398979006615
40
54.856368901366388
40
54.856368901366388
40
54.856368901366388
40
55.316488308900283
40
55.316488308900283
40
55.316488308900283
40
55.775766423053078
40
55.775766423053078
40
55.775766423053078
40
56.234212285018401
40
56.234212285018401
40
56.234212285018401
40
56.691834760825742
40
56.691834760825742
40
56.691834760825742
40
57.148642546240822
40
57.148642546240822
40
57.148642546240822
40
57.604644171487671
40
57.604644171487671
40
57.604644171487671
40
58.059848005800497
40
58.059848005800497
40
58.059848005800497
40
58.514262261812725
40
58.514262261812725
40
58.514262261812725
40
58.967894999790488
40
58.967894999790488
40
58.967894999790488
40
59.420754131717167
40
59.420754131717167
40
59.420754131717167
40
59.872847425235598
40
59.872847425235598
40
59.872847425235598
40
60.324182507453862
40
60.324182507453862
40
60.324182507453862
40
60.774766868620574
40
60.774766868620574
40
60.774766868620574
40
61.224607865675054
40
61.224607865675054
40
61.224607865675054
40
61.673712725677717
40
61.673712725677717
40
61.673712725677717
40
62.12208854912555
40
62.12208854912555
40
62.12208854912555
40
62.569742313157462
40
62.569742313157462
40
62.569742313157462
40
63.016680874653943
40
63.016680874653943
40
63.016680874653943
40
63.462910973235346
40
63.462910973235346
40
63.462910973235346
40
63.908439234162877
40
63.908439234162877
40
63.908439234162877
40
64.353272171146131
40
64.353272171146131
40
64.353272171146131
40
64.797416189060854
40
64.797416189060854
40
64.797416189060854
40
65.240877586580538
40
65.240877586580538
40
65.240877586580538
40
65.683662558725132
40
65.683662558725132
40
65.683662558725132
40
66.125777199330059
40
66.125777199330059
40
66.125777199330059
40
66.56722750343873
40
66.56722750343873
40
66.56722750343873
40
67.02860202201596
40
67.02860202201596
40
67.02860202201596
40
67.4863720521668
40
67.4863720521668
40
67.4863720521668
40
67.940565753957088
40
67.940565753957088
40
67.940565753957088
40
68.391211067452133
40
68.391211067452133
40
68.391211067452133
40
68.838335714435502
40
68.838335714435502
40
68.838335714435502
40
69.281967200114309
40
69.281967200114309
40
69.281967200114309
40
69.72213281481126
40
69.72213281481126
40
69.72213281481126
40
70.159620469556643
40
70.159620469556643
40
70.159620469556643
40
70.596470565604989
40
70.596470565604989
40
70.596470565604989
40
71.03268852476721
40
71.03268852476721
40
71.03268852476721
40
71.468279688756979
40
71.468279688756979
40
71.468279688756979
40
71.9032493209248
40
71.9032493209248
40
71.9032493209248
40
72.337602607943026
40
72.337602607943026
40
72.337602607943026
40
72.77134466144355
40
72.77134466144355
40
72.77134466144355
40
73.20448051960976
40
73.20448051960976
40
73.20448051960976
40
73.637015148724359
40
73.637015148724359
40
73.637015148724359
40
74.068953444674619
40
74.068953444674619
40
74.068953444674619
40
74.500300234416386
40
74.500300234416386
40
74.500300234416386
40
74.931060277398316
40
74.931060277398316
40
74.931060277398316
40
75.361238266947652
40
75.361238266947652
40
75.361238266947652
40
75.7908388316188
40
75.7908388316188
40
75.7908388316188
40
76.219866536505975
40
76.219866536505975
40
76.219866536505975
40
76.648325884521071
40
76.648325884521071
40
76.648325884521071
40
77.076221317637845
40
77.076221317637845
40
77.076221317637845
40
77.503557218103595
40
77.503557218103595
40
77.503557218103595
40
77.930337909619368
40
77.930337909619368
40
77.930337909619368
40
78.356567658489581
40
78.356567658489581
40
78.356567658489581
40
78.782250674742215
40
78.782250674742215
40
78.782250674742215
40
79.207391113220353
40
79.207391113220353
40
79.207391113220353
40
79.631993074646118
40
79.631993074646118
40
79.631993074646118
40
80.056060606657638
40
80.056060606657638
40
80.056060606657638
40
80.479597704820208
40
80.479597704820208
40
80.479597704820208
40
80.902608313612092
40
80.902608313612092
40
80.902608313612092
40
81.325096327386049
40
81.325096327386049
40
81.325096327386049
40
81.747065591307106
40
81.747065591307106
40
81.747065591307106
40
82.168519902267391
40
82.168519902267391
40
82.168519902267391
40
82.58946300977874
40
82.58946300977874
40
82.58946300977874
40
83.009898616843685
40
83.009898616843685
40
83.009898616843685
40
83.429830380805512
40
83.429830380805512
40
83.429830380805512
40
83.849261914177973
40
83.849261914177973
40
83.849261914177973
40
84.268196785455288
40
84.268196785455288
40
84.268196785455288
40
84.686638519902999
40
84.686638519902999
40
84.686638519902999
40
85.104590600330226
40
85.104590600330226
40
85.104590600330226
40
85.522056467843839
40
85.522056467843839
40
85.522056467843839
40
85.93903952258519
40
85.93903952258519
40
85.93903952258519
40
86.35554312444971
40
86.35554312444971
40
86.35554312444971
40
86.771570593790031
40
86.771570593790031
40
86.771570593790031
40
87.187125212103012
40
87.187125212103012
40
87.187125212103012
40
87.602210222701117
40
87.602210222701117
40
87.602210222701117
40
88.01682883136867
40
88.01682883136867
40
88.01682883136867
40
88.43098420700332
40
88.43098420700332
40
88.43098420700332
40
88.844679482243095
40
88.844679482243095
40
88.844679482243095
40
89.257917754079656
40
89.257917754079656
40
89.257917754079656
40
89.670702084457758
40
89.670702084457758
40
89.670702084457758
40
90.083035500861754
40
90.083035500861754
40
90.083035500861754
40
90.49492099688905
40
90.49492099688905
40
90.49492099688905
40
90.906361532811218
40
90.906361532811218
40
90.906361532811218
40
91.317360036122807
40
91.317360036122807
40
91.317360036122807
40
91.727919402078484
40
91.727919402078484
40
91.727919402078484
40
92.13804249421851
40
92.13804249421851
40
92.13804249421851
40
92.547732144883057
40
92.547732144883057
40
92.547732144883057
40
92.956991155715627
40
92.956991155715627
40
92.956991155715627
40
93.365822298155848
40
93.365822298155848
40
93.365822298155848
40
93.77422831392181
40
93.77422831392181
40
93.77422831392181
40
94.182211915482441
40
94.182211915482441
40
94.182211915482441
40
94.589775786520022
40
94.589775786520022
40
94.589775786520022
40
94.99692258238305
40
94.99692258238305
40
94.99692258238305
40
95.403654930529868
40
95.403654930529868
40
95.403654930529868
40
95.809975430963178
40
95.809975430963178
40
95.809975430963178
40
96.215886656655613
40
96.215886656655613
40
96.215886656655613
40
96.621391153966826
40
96.621391153966826
40
96.621391153966826
40
97.026491443051981
40
97.026491443051981
40
97.026491443051981
40
97.431190018262157
40
97.431190018262157
40
97.431190018262157
40
97.835489348536697
40
97.835489348536697
40
97.835489348536697
40
98.239391877787739
40
98.239391877787739
40
98.239391877787739
40
98.642900025277115
40
98.642900025277115
40
98.642900025277115
40
99.064466679277842
40
99.064466679277842
40
99.064466679277842
40
99.4794463543098
40
99.4794463543098
40
99.4794463543098
40
99.887941971919389
40
99.887941971919389
40
99.887941971919389
40
100.29089865197031
40
100.29089865197031
40
100.29089865197031
40
100.69343635813851
40
100.69343635813851
40
100.69343635813851
40
101.09555810370578
40
101.09555810370578
40
101.09555810370578
40
101.49726687375558
40
101.49726687375558
40
101.49726687375558
40
101.89856562559079
40
101.89856562559079
40
101.89856562559079
40
102.29945728914353
40
102.29945728914353
40
102.29945728914353
40
102.69994476737715
40
102.69994476737715
40
102.69994476737715
40
103.10003093668071
40
103.10003093668071
40
103.10003093668071
40
103.49971864725606
40
103.49971864725606
40
103.49971864725606
40
103.89901072349764
40
103.89901072349764
40
103.89901072349764
40
104.29790996436527
40
104.29790996436527
40
104.29790996436527
40
104.69641914375008
40
104.69641914375008
40
104.69641914375008
40
105.09454101083357
40
105.09454101083357
40
105.09454101083357
40
105.49227829044028
40
105.49227829044028
40
105.49227829044028
40
105.88963368338392
40
105.88963368338392
40
105.88963368338392
40
106.28660986680715
40
106.28660986680715
40
106.28660986680715
40
106.68320949451544
40
106.68320949451544
40
106.68320949451544
40
107.07943519730466
40
107.07943519730466
40
107.07943519730466
40
107.47528958328306
40
107.47528958328306
40
107.47528958328306
40
107.87077523818732
40
107.87077523818732
40
107.87077523818732
40
108.2658947256931
40
108.2658947256931
40
108.2658947256931
40
108.66065058772006
40
108.66065058772006
40
108.66065058772006
40
109.05504534473154
40
109.05504534473154
40
109.05504534473154
40
109.44908149602902
40
109.44908149602902
40
109.44908149602902
40
109.84276152004139
40
109.84276152004139
40
109.84276152004139
40
110.23608787460927
40
110.23608787460927
40
110.23608787460927
40
110.62906299726437
40
110.62906299726437
40
110.62906299726437
40
111.0216893055041
40
111.0216893055041
40
111.0216893055041
40
111.41396919706139
40
111.41396919706139
40
111.41396919706139
40
111.8059050501701
40
111.8059050501701
40
111.8059050501701
40
112.19749922382569
40
112.19749922382569
40
112.19749922382569
40
112.58875405804166
40
112.58875405804166
40
112.58875405804166
40
112.99607942751922
40
112.99607942751922
40
112.99607942751922
40
113.3906758792006
40
113.3906758792006
40
113.3906758792006
40
113.78182961980941
40
113.78182961980941
40
113.78182961980941
40
114.17258936632423
40
114.17258936632423
40
114.17258936632423
40
114.56295979741873
40
114.56295979741873
40
114.56295979741873
40
114.95294555420372
40
114.95294555420372
40
114.95294555420372
40
115.3425512409013
40
115.3425512409013
40
115.3425512409013
40
115.73178142550715
40
115.73178142550715
40
115.73178142550715
40
116.12064064044132
40
116.12064064044132
40
116.12064064044132
40
116.5091333831877
40
116.5091333831877
40
116.5091333831877
40
116.89726411692253
40
116.89726411692253
40
116.89726411692253
40
117.28503727113214
40
117.28503727113214
40
117.28503727113214
40
117.67245724222036
40
117.67245724222036
40
117.67245724222036
40
118.05952839410567
40
118.05952839410567
40
118.05952839410567
40
118.44625505880838
40
118.44625505880838
40
118.44625505880838
40
118.83264153702824
40
118.83264153702824
40
118.83264153702824
40
119.21869209871249
40
119.21869209871249
40
119.21869209871249
40
119.61897171012569
40
119.61897171012569
40
119.61897171012569
40
120.00523111531889
40
120.00523111531889
40
120.00523111531889
40
120.39104786318114
40
120.39104786318114
40
120.39104786318114
40
120.77643506911274
40
120.77643506911274
40
120.77643506911274
40
121.16140572996498
40
121.16140572996498
40
121.16140572996498
40
121.54597272882732
40
121.54597272882732
40
121.54597272882732
40
121.93014883971048
40
121.93014883971048
40
121.93014883971048
40
122.31394673213109
40
122.31394673213109
40
122.31394673213109
40
122.69737897560276
40
122.69737897560276
40
122.69737897560276
40
123.08128867880646
40
123.08128867880646
40
123.08128867880646
40
123.46463707663372
40
123.46463707663372
40
123.46463707663372
40
123.8474708217208
40
123.8474708217208
40
123.8474708217208
40
124.22983601861505
40
124.22983601861505
40
124.22983601861505
40
124.6125246916524
40
124.6125246916524
40
124.6125246916524
40
124.9944553764997
40
124.9944553764997
40
124.9944553764997
40
125.37640267879357
40
125.37640267879357
40
125.37640267879357
40
125.62316588132353
40
125.62316588132353
40
125.62316588132353
40
125.62316588132353
10
0.80316081771559666
20
-0.22943057454041843
30
0
10
0.95092280955789454
20
-0.066768620223196989
30
0
10
1.0407577444912579
20
0.16256638270730089
30
0
10
1.0358453161653471
20
0.40284218907468961
30
0
10
1.0310194446569971
20
0.63888434402647865
30
0
10
0.93390227551920946
20
0.88302308524236972
30
0
10
0.75695170356412733
20
1.0679751833947437
30
0
10
0.58290144297824142
20
1.249895821026243
30
0
10
0.33268303624340606
20
1.3722359467779706
30
0
10
0.062492379420699261
20
1.3933807445753053
30
0
10
-0.20356521366634575
20
1.4142020937456528
30
0
10
-0.48666951719170826
20
1.3359502203262148
30
0
10
-0.71584747464874809
20
1.1656158355850206
30
0
10
-0.94174287560983727
20
0.99772118042044045
30
0
10
-1.1129275810905774
20
0.74119927902087634
30
0
10
-1.1798978099808153
20
0.44917048680724891
30
0
10
-1.2459670045104769
20
0.16107072366254283
30
0
10
-1.2094384376786922
20
-0.15946051710340997
30
0
10
-1.0673895877747563
20
-0.43865730775503958
30
0
10
-0.92714138634592214
20
-0.71431492666624252
30
0
10
-0.68452421619646597
20
-0.94733894203436531
30
0
10
-0.38551063472740804
20
-1.0785162922351437
30
0
10
-0.090078378293829753
20
-1.2081225140408376
30
0
10
0.25854846738789494
20
-1.2368530835432845
30
0
10
0.5861731562327126
20
-1.1480595760336008
30
0
10
0.91008046137982124
20
-1.0602735613915721
30
0
10
1.211129470086201
20
-0.85767525062214345
30
0
10
1.4202700900212926
20
-0.5744803574634636
30
0
10
1.6271571350246308
20
-0.29433700404020691
30
0
10
1.7423529830946629
20
0.063180604883151692
30
0
10
1.7327341059165309
20
0.42741844886662567
30
0
10
1.7232138836389099
20
0.78792052955932279
30
0
10
1.5909896321913675
20
1.1527695829168312
30
0
10
1.3537635013747424
20
1.4450172300643276
30
0
10
1.1188581484031286
20
1.7344058251233303
30
0
10
0.78201903490550739
20
1.9505977656959053
30
0
10
0.40495142207231571
20
2.0429243956234142
30
0
10
0.031409279065947704
20
2.1343877990712579
30
0
10
-0.37959553341286362
20
2.1033348408454979
30
0
10
-0.74742901201460432
20
1.9467655062293825
30
0
10
-1.1119696923868072
20
1.7915977602608901
30
0
10
-1.4319443670705772
20
1.513605464357425
30
0
10
-1.6403938409796734
20
1.15925576887638
30
0
10
-1.8470536785953242
20
0.80794833137618649
30
0
10
-1.9426494422453273
20
0.3832361284625862
30
0
10
-1.9007993937422949
20
-0.036939724501043492
30
0
10
-1.8592944838780381
20
-0.45365037426597798
30
0
10
-1.6824211599353995
20
-0.8637339093301486
30
0
10
-1.3951638305650738
20
-1.1879998034159582
30
0
10
-1.1101854778964533
20
-1.5096931106877112
30
0
10
-0.71769109604191084
20
-1.7450861545819758
30
0
10
-0.28493545614771332
20
-1.8442449465195982
30
0
10
0.14451284865851832
20
-1.9426459173646158
30
0
10
0.61163719054874854
20
-1.9060616501690548
30
0
10
1.0319826894149067
20
-1.7330285212805505
30
0
10
1.4492295862104596
20
-1.5612709164856868
30
0
10
1.8183162793750192
20
-1.255540967074519
30
0
10
2.0689223084806465
20
-0.86384981447195286
30
0
10
2.317744328236131
20
-0.4749470252663292
30
0
10
2.4483612496383049
20
-0.0028713836258636993
30
0
10
2.4305393702581455
20
0.4720745070499438
30
0
10
2.4128401487914126
20
0.94375161385070205
30
0
10
2.2484893613318673
20
1.4161831068773871
30
0
10
1.9586276716839479
20
1.8055498772788541
30
0
10
1.6706967508933028
20
2.1923230754312195
30
0
10
1.259893998129725
20
2.4952990970268951
30
0
10
0.79162262644152381
20
2.6570100598200193
30
0
10
0.32637307404489052
20
2.8176774796238195
30
0
10
-0.19377666278160477
20
2.8379421039605583
30
0
10
-0.68181405372408199
20
2.7071157722299009
30
0
10
-1.1667974752435173
20
2.5771081064954338
30
0
10
-1.618032900223136
20
2.2981337615246589
30
0
10
-1.9569364772749034
20
1.9103562448416496
30
0
10
-2.2937817245145347
20
1.5249338936898171
30
0
10
-2.5181117204073056
20
1.0333559291093639
30
0
10
-2.586763687814241
20
0.51325326095151058
30
0
10
-2.6550106276943239
20
-0.0037809460194291322
30
0
10
-2.5688721354960204
20
-0.54705187390735643
30
0
10
-2.3354691522658899
20
-1.0274642124761904
30
0
10
-2.1034048491557948
20
-1.505121151614556
30
0
10
-1.7263888379139518
20
-1.9187254221371339
30
0
10
-1.2597947147307051
20
-2.1974272997208675
30
0
10
-0.79580420617501413
20
-2.4745740092277857
30
0
10
-0.24480147669790298
20
-2.6170757980458381
30
0
10
0.30756077102646884
20
-2.5958638824439682
30
0
10
0.85692219846584894
20
-2.5747672048890209
30
0
10
1.4056453963141604
20
-2.3915506042454875
30
0
10
1.8655842935195484
20
-2.0686955371587525
30
0
10
2.3230887971595093
20
-1.7475492977068554
30
0
10
2.6909949583327344
20
-1.2891635235664736
30
0
10
2.9071277608787627
20
-0.76063187239303276
30
0
10
3.1221453249886193
20
-0.23482742784986033
30
0
10
3.1859868295433125
20
0.35868318656494258
30
0
10
3.0824808977462506
20
0.92936614731518064
30
0
10
2.9794959651419597
20
1.4971765638863843
30
0
10
2.7109581741641784
20
2.0404317573482471
30
0
10
2.3120885843540209
20
2.4736538188454675
30
0
10
1.915178666691278
20
2.9047474322753244
30
0
10
1.3903561861150422
20
3.2253051789097795
30
0
10
0.8135049226615495
20
3.3816956124578343
30
0
10
0.23942150127895034
20
3.5373356549625061
30
0
10
-0.38439105381559791
20
3.529657849418562
30
0
10
-0.9646794341988002
20
3.3536805919581072
30
0
10
-1.5422471205586121
20
3.1785284074937881
30
0
10
-2.0747973493212446
20
2.8369973066346938
30
0
10
-2.4802384086235989
20
2.3745509829436058
30
0
10
-2.8838210424535009
20
1.9142243804989749
30
0
10
-3.1600356159055885
20
1.3353832441691522
30
0
10
-3.2629732780374838
20
0.72038113818091598
30
0
10
-3.3654494239225126
20
0.10813636568843188
30
0
10
-3.2956772656018987
20
-0.53810427268358696
30
0
10
-3.0579494405041192
20
-1.1237161351793234
30
0
10
-2.8212646355684607
20
-1.7067586519137496
30
0
10
-2.4186164962617167
20
-2.227870513671522
30
0
10
-1.9034716855672422
20
-2.608343975610381
30
0
10
-1.3905396552529767
20
-2.9871831316331354
30
0
10
-0.76747313276274332
20
-3.2253066204724097
30
0
10
-0.12133394341313639
20
-3.2832930872850219
30
0
10
0.52208680597172608
20
-3.3410355931502158
30
0
10
1.1865327641644337
20
-3.2197892071955869
30
0
10
1.7767258175202474
20
-2.9311730747656672
30
0
10
2.3644858078144124
20
-2.6437467585269383
30
0
10
2.8768378247033617
20
-2.1909763357163761
30
0
10
3.2379639357142076
20
-1.6323817864797345
30
0
10
3.5976307027596262
20
-1.0760445694040581
30
0
10
3.8061203029698429
20
-0.41619940350934204
30
0
10
3.8290365511230555
20
0.25668309334891681
30
0
10
3.8518619860604164
20
0.92689907066953081
30
0
10
3.6903332487849365
20
1.6081997617226038
30
0
10
3.3615043705944752
20
2.2049125637366238
30
0
10
3.0339538231713918
20
2.7993056293020064
30
0
10
2.541134780792091
20
3.3080592035643774
30
0
10
1.946936421718255
20
3.6574348196985671
30
0
10
1.3550049375311775
20
4.0054775630670107
30
0
10
0.66396441354254643
20
4.1942680347872106
30
0
10
-0.033254780947538878
20
4.1928657778192484
30
0
10
-0.72786279010992516
20
4.1914687725036357
30
0
10
-1.4267666521119824
20
4.0011294411753591
30
0
10
-2.0338480305557369
20
3.6425338040658457
30
0
10
-2.6386967023749954
20
3.2852569997898189
30
0
10
-3.1507341920927976
20
2.7617416832373247
30
0
10
-3.4973063983509172
20
2.1387743739786207
30
0
10
-3.842626519205746
20
1.5180577018470882
30
0
10
-4.0226407869492151
20
0.80011748032781083
30
0
10
-4.0082617585965359
20
0.079635000430826441
30
0
10
-3.9939337759870623
20
-0.63828975701431712
30
0
10
-3.7864606012314632
20
-1.3569189090717819
30
0
10
-3.4084461948551112
20
-1.9794514360215165
30
0
10
-3.0317508281641952
20
-2.5998117042036744
30
0
10
-2.4865027525467331
20
-3.1231124887697748
30
0
10
-1.8410618299401933
20
-3.4767021466726913
30
0
10
-1.197835281231572
20
-3.8290787118174476
30
0
10
-0.45660785700402606
20
-4.0118990612527217
30
0
10
0.28675814857707016
20
-3.9963372375247834
30
0
10
1.0276159469585457
20
-3.980827921280401
30
0
10
1.76879639486698
20
-3.7681530159290735
30
0
10
2.4124964959456925
20
-3.381193120064546
30
0
10
3.0540599738139766
20
-2.9955176538492037
30
0
10
3.5971728262015907
20
-2.4375031302740204
30
0
10
3.968091968455417
20
-1.7758416732046907
30
0
10
4.3377996176700693
20
-1.1163413293220743
30
0
10
4.5354297532716155
20
-0.3553542380024749
30
0
10
4.5308656483149896
20
0.41059693343028603
30
0
10
4.5263162158784027
20
1.1740857526562301
30
0
10
4.320731082897054
20
1.9407245858625868
30
0
10
3.9356777346605685
20
2.6113933708080461
30
0
10
3.5518430507748389
20
3.2799395404246918
30
0
10
2.9904304984173904
20
3.8515086541345478
30
0
10
2.3192470993764602
20
4.2502206873477597
30
0
10
1.6501555091135145
20
4.6476900954719795
30
0
10
0.87342402192880508
20
4.8723490889478231
30
0
10
0.085686938463543375
20
4.8912985285635884
30
0
10
-0.69963201305569034
20
4.9101897987136072
30
0
10
-1.4941280927290306
20
4.7244469924394288
30
0
10
-2.1971271808231831
20
4.3527675609555017
30
0
10
-2.8980002418671216
20
3.9822121715062311
30
0
10
-3.5063073632849933
20
3.4275409384249436
30
0
10
-3.9430871674722887
20
2.7544324891690501
30
0
10
-4.3785653449604629
20
2.0833299383557047
30
0
10
-4.6424654669251506
20
1.2958912065332642
30
0
10
-4.6976964156158223
20
0.48822004152063209
30
0
10
-4.7527651429178048
20
-0.31707887494117476
30
0
10
-4.6001328077703798
20
-1.1407555686645274
30
0
10
-4.2540916754204634
20
-1.880487416043495
30
0
10
-3.9090524889981717
20
-2.6180774044273125
30
0
10
-3.3723398637446618
20
-3.270570774773951
30
0
10
-2.7061972906443885
20
-3.7551311603079132
30
0
10
-2.0419565026386404
20
-4.238308163731471
30
0
10
-1.2503521781032991
20
-4.5533789563367009
30
0
10
-0.42616857534794772
20
-4.6577592397490486
30
0
10
0.39569453444216962
20
-4.7618456399628499
30
0
10
1.2482493696626364
20
-4.6560782769060181
30
0
10
2.0276298327705957
20
-4.3488310319228161
30
0
10
2.8048458342521356
20
-4.0424370606654367
30
0
10
3.5076366669029984
20
-3.5361948717587768
30
0
10
4.0486976792999236
20
-2.8875192404597758
30
0
10
4.5882762741284386
20
-2.2406208729628316
30
0
10
4.9658071758379343
20
-1.4533115494546021
30
0
10
5.132054111710989
20
-0.61807959998471618
30
0
10
5.2978515994017998
20
0.21489430196405368
30
0
10
5.253046765276145
20
1.0938692810167634
30
0
10
4.9986177528151394
20
1.913790243723398
30
0
10
4.7448675843345143
20
2.7315235690826336
30
0
10
4.2830003310630653
20
3.4888420170770749
30
0
10
3.6641141841013867
20
4.0936302910523521
30
0
10
3.0468579530421596
20
4.6968257776786029
30
0
10
2.2745471671015731
20
5.147009744049452
30
0
10
1.4361833036000382
20
5.3873207748663701
30
0
10
0.59999920640312387
20
5.627006991195918
30
0
10
-0.30028739816052274
20
5.6573236405565188
30
0
10
-1.1590785786989688
20
5.4704407513996989
30
0
10
-2.015665016356142
20
5.284037639782329
30
0
10
-2.8292798107818924
20
4.8817941707779999
30
0
10
-3.5029567980352034
20
4.306919955594112
30
0
10
-4.1749258029798018
20
3.7335032267246557
30
0
10
-4.7062973401890096
20
2.9893427127194818
30
0
10
-5.0318497117757861
20
2.1585362805040278
30
0
10
-5.3565868528740008
20
1.32981030843185
30
0
10
-5.4758079401927127
20
0.41640659915516304
30
0
10
-5.3715725009195623
20
-0.47650440681901557
30
0
10
-5.2675949120616199
20
-1.3672065913478169
30
0
10
-4.9413467342160926
20
-2.2358255871680202
30
0
10
-4.4265221126139656
20
-2.9808562003066656
30
0
10
-3.9129557442415375
20
-3.7240659269999634
30
0
10
-3.2125984638703118
20
-4.3428392941426939
30
0
10
-2.4030085682411086
20
-4.7631574269451082
30
0
10
-1.5953738765032019
20
-5.1824604684608424
30
0
10
-0.68047430795890729
20
-5.4033912701599069
30
0
10
0.23826140530899667
20
-5.3967669877639999
30
0
10
1.1548043325068813
20
-5.3901585158280021
30
0
10
2.0734867633378138
20
-5.1569811464999837
30
0
10
2.888973759511086
20
-4.7197811091546553
30
0
10
3.7025369533250712
20
-4.2836124634406731
30
0
10
4.411864249604716
20
-3.6450768744223843
30
0
10
4.9340662010966714
20
-2.8733650418668706
30
0
10
5.4550503487172204
20
-2.1034528840437301
30
0
10
5.7887554784420105
20
-1.2023070958321214
30
0
10
5.8938694904444251
20
-0.26995344651618419
30
0
10
5.9987411478248225
20
0.66025053491093733
30
0
10
5.8757815867558003
20
1.6198752531860707
30
0
10
5.5348207693888538
20
2.5008991670747327
30
0
10
5.1946372761008464
20
3.3799145184908048
30
0
10
4.6379465807645897
20
4.1790988341839492
30
0
10
3.9236016541498895
20
4.8070482797237437
30
0
10
3.2108672487809291
20
5.4335819863318084
30
0
10
2.3423650940305811
20
5.8884786370260134
30
0
10
1.4127273323765017
20
6.1177404193411427
30
0
10
0.48516250628857072
20
6.3464909865119195
30
0
10
-0.50168391400549051
20
6.3501151951150563
30
0
10
-1.4387027854009045
20
6.1243115877912615
30
0
10
-2.3736549184569737
20
5.8990060248363321
30
0
10
-3.2573701281634841
20
5.4455708949558712
30
0
10
-3.9907772720597849
20
4.8104836464783913
30
0
10
-4.7225841290423709
20
4.1767821519048152
30
0
10
-5.3034266061444759
20
3.3632222304303294
30
0
10
-5.6664869909520261
20
2.4567648881428163
30
0
10
-6.0287635915448821
20
1.5522644295746768
30
0
10
-6.173493294613202
20
0.55675585939211736
30
0
10
-6.0810873810946218
20
-0.42162048490522047
30
0
10
-5.988878860088219
20
-1.397906874597896
30
0
10
-5.6606023593204924
20
-2.35549192750186
30
0
10
-5.1283537452891181
20
-3.1890248589975867
30
0
10
-4.5972302698689669
20
-4.0207957566237491
30
0
10
-3.8637943668100321
20
-4.7276062574095512
30
0
10
-3.0048426191770305
20
-5.2301988059792803
30
0
10
-2.1476879505773856
20
-5.7317398420119607
30
0
10
-1.1669027671300412
20
-6.029008011595069
30
0
10
-0.16716991663002778
20
-6.0863496165112103
30
0
10
0.83049262718706784
20
-6.1435724749964349
30
0
10
1.8454027796996493
20
-5.9616722842647709
30
0
10
2.7678886187880081
20
-5.5565120970887563
30
0
10
3.688483389591541
20
-5.1521824761369341
30
0
10
4.5155050185850536
20
-4.5260743304319835
30
0
10
5.1582345706250035
20
-3.7422126712496704
30
0
10
5.7996597066236593
20
-2.9599418549329877
30
0
10
6.2564381522264485
20
-2.0217527121137939
30
0
10
6.4765767156739962
20
-1.0260072235851372
30
0
10
6.6962729280742455
20
-0.032262606929155391
30
0
10
6.6798387338987721
20
1.0172457174994294
30
0
10
6.425351275217321
20
2.0110565148300639
30
0
10
6.1713701798748746
20
3.0028898891620091
30
0
10
5.6805939257745264
20
3.9376582248133829
30
0
10
5.001688138509321
20
4.7148250191118199
30
0
10
4.3241200901898083
20
5.4904604576499532
30
0
10
3.4601558597358255
20
6.1078397156917994
30
0
10
2.4986931268004526
20
6.4989814682785765
30
0
10
1.5391066864544987
20
6.8893599085219304
30
0
10
0.48385935158970783
20
7.0536924803165872
30
0
10
-0.55687000014779953
20
6.9711728470536958
30
0
10
-1.5955877054790735
20
6.8888127176266671
30
0
10
-2.6182343854327952
20
6.5605915328839632
30
0
10
-3.5168044257556952
20
6.0174093864313472
30
0
10
-4.4136539836211846
20
5.4752672650321088
30
0
10
-5.1854830615095713
20
4.7197404389096036
30
0
10
-5.749408923517036
20
3.8269730745808848
30
0
10
-6.3122651327875738
20
2.9358991084788295
30
0
10
-6.6670768808174943
20
1.909411316354479
30
0
10
-6.773674779046301
20
0.85287133286452987
30
0
10
-6.8800723550123983
20
-0.20168316607410564
30
0
10
-6.7389411391178733
20
-1.2845959771629341
30
0
10
-6.361377356887
20
-2.2834463628494008
30
0
10
-5.9845165940321081
20
-3.2804369007223535
30
0
10
-5.3725861817373213
20
-4.1921554755559072
30
0
10
-4.5857154170781715
20
-4.9227238424036859
30
0
10
-3.8002964721992938
20
-5.6519442704876068
30
0
10
-2.8416905884484702
20
-6.1995366419777742
30
0
10
-1.8065690528312808
20
-6.5062625768743354
30
0
10
-0.77334015830310032
20
-6.8124276867011107
30
0
10
0.33462544613562994
20
-6.8780737975844808
30
0
10
1.4042037675681986
20
-6.6930237604969607
30
0
10
2.4718439193596411
20
-6.5083090502918068
30
0
10
3.4996587045366674
20
-6.0739936738582969
30
0
10
4.381544126541443
20
-5.431167561986511
30
0
10
5.2618456488763812
20
-4.7894959901955012
30
0
10
5.9954132476041817
20
-3.9409273514803242
30
0
10
6.5051416072591426
20
-2.9694067634714587
30
0
10
7.013962514113536
20
-1.9996157419301011
30
0
10
7.298933310582818
20
-0.90867123139967709
30
0
10
7.3279059954440839
20
0.19386474060309566
30
0
10
7.3568275502124578
20
1.2944549914228038
30
0
10
7.1305306830667696
20
2.4050210784964925
30
0
10
6.6685143556886102
20
3.4128589956708586
30
0
10
6.2073063421780894
20
4.4189336648461621
30
0
10
5.5117855514676171
20
5.3211741667697243
30
0
10
4.6491963794228539
20
6.0268151020153029
30
0
10
3.7881034199343957
20
6.731232060816736
30
0
10
2.7616869894316034
20
7.2386735018661463
30
0
10
1.6712951674436352
20
7.4952842579404857
30
0
10
0.58277864065655893
20
7.7514536855770473
30
0
10
-0.56798422865769349
20
7.7572175598009103
30
0
10
-1.6660987648859211
20
7.5086551632204381
30
0
10
-2.7623406231108016
20
7.2605166544195905
30
0
10
-3.8045683738288911
20
6.7591874495156041
30
0
10
-4.6876104433271459
20
6.0515632880854664
30
0
10
-5.569159184138301
20
5.3451358028913196
30
0
10
-6.2907910065099486
20
4.4340273332133382
30
0
10
-6.7783243862788938
20
3.4065625783763314
30
0
10
-7.265040117737084
20
2.3808209974921537
30
0
10
-7.5177026714968713
20
1.2404901982475331
30
0
10
-7.5081120506908894
20
0.097608407084950277
30
0
10
-7.498537382291933
20
-1.0433723897745859
30
0
10
-7.2275173994704645
20
-2.1853366620891053
30
0
10
-6.7185717048812599
20
-3.2149792434077717
30
0
10
-6.2104656576412287
20
-4.2429231431712324
30
0
10
-5.465839325157579
20
-5.1574870982538785
30
0
10
-4.5553140146123905
20
-5.8667631627816679
30
0
10
-3.6462787225895203
20
-6.574878540768025
30
0
10
-2.5730658287769006
20
-7.0773631444760605
30
0
10
-1.4393955929622639
20
-7.3220678024271004
30
0
10
-0.30756565574298578
20
-7.5663752287810864
30
0
10
0.88302554957919144
20
-7.5533383899779496
30
0
10
2.0161181409242115
20
-7.2809972329810435
30
0
10
3.1473860126213271
20
-7.0090946511402201
30
0
10
4.2198176171608583
20
-6.4790116463227063
30
0
10
5.1276249789757511
20
-5.7394479883316931
30
0
10
6.0339819651230622
20
-5.0010659082605082
30
0
10
6.7749953364825517
20
-4.0547909791209138
30
0
10
7.2762568176903368
20
-2.9904481636861986
30
0
10
7.776723726219041
20
-1.9277924871081995
30
0
10
8.037474430543524
20
-0.74880780070287678
30
0
10
8.0301785212564543
20
0.43317166053375045
30
0
10
8.022894087089222
20
1.613292086051731
30
0
10
7.7483423566905607
20
2.7948567518404515
30
0
10
7.2299040086972459
20
3.8632247113261466
30
0
10
6.7122747734552553
20
4.9299252977433339
30
0
10
5.9521262432778492
20
5.8823668090878103
30
0
10
5.0200584810443436
20
6.6270261210829142
30
0
10
4.0894342253526856
20
7.3705321686568386
30
0
10
2.9885780654995941
20
7.905884529751912
30
0
10
1.821615379945301
20
8.1789501107360092
30
0
10
0.65644623994668061
20
8.4515960077274279
30
0
10
-0.57314945263289752
20
8.4623421880089307
30
0
10
-1.7497129629512815
20
8.2070318691048829
30
0
10
-2.9244818245849418
20
7.952110982920785
30
0
10
-4.0448689673801024
20
7.4322004129668908
30
0
10
-5.0028288397397587
20
6.6940028990620952
30
0
10
-5.9593384580109179
20
5.9569229413238443
30
0
10
-6.7526586259813168
20
5.003094157183015
30
0
10
-7.3050508877700286
20
3.9211319118694692
30
0
10
-7.8566131061581101
20
2.8407954598256291
30
0
10
-8.1672150145127063
20
1.6340382092576506
30
0
10
-8.2044492030317659
20
0.41437881744971894
30
0
10
-8.2433639022463936
20
-0.86032811895111982
30
0
10
-7.9831049458920722
20
-2.1473708381027778
30
0
10
-7.4470798747821032
20
-3.3132578526981344
30
0
10
-6.915242499540188
20
-4.4700363749919507
30
0
10
-6.1126926340052998
20
-5.5058354706148993
30
0
10
-5.1182703638617539
20
-6.3132922672711302
30
0
10
-4.131617017703701
20
-7.1144408077034873
30
0
10
-2.9574704101726392
20
-7.6896440267538155
30
0
10
-1.7118693530234026
20
-7.97831695901057
30
0
10
-0.47599955413316297
20
-8.2647346339840642
30
0
10
0.82851026387505411
20
-8.2686682221914261
30
0
10
2.0730791606751113
20
-7.98644884099207
30
0
10
3.3079248629689291
20
-7.7064342987083307
30
0
10
4.4821062571999537
20
-7.1450789920150699
30
0
10
5.4802459168151225
20
-6.3539886353807074
30
0
10
6.470587610339539
20
-5.5690786721575574
30
0
10
7.286333495199254
20
-4.5590156478886117
30
0
10
7.8470472971856386
20
-3.418408868566464
30
0
10
8.4033805225940164
20
-2.2867130797077455
30
0
10
8.707939386853031
20
-1.0279222398284955
30
0
10
8.7290672111267789
20
0.2401441171257791
30
0
10
8.7500664940847575
20
1.5004955803980615
30
0
10
8.4910203210005886
20
2.7684685037319259
30
0
10
7.9730879903968299
20
3.9254649497441698
30
0
10
7.455910451975825
20
5.0807752838430966
30
0
10
6.6811650827877633
20
6.1240114147160813
30
0
10
5.7183395721575838
20
6.9565806841853206
30
0
10
4.756907302654457
20
7.7879451977205534
30
0
10
3.6090497908041037
20
8.4082054351909647
30
0
10
2.3795644722005109
20
8.7573425891557246
30
0
10
1.1518457829759103
20
9.1059780730768018
30
0
10
-0.15581938458250999
20
9.1837910520582238
30
0
10
-1.4229428739555483
20
8.9806366316713717
30
0
10
-2.6882583432489993
20
8.7777720861660118
30
0
10
-3.9116367867537507
20
8.2949186913747042
30
0
10
-4.9794188189972282
20
7.5737569306957333
30
0
10
-6.0456878208410476
20
6.8536170449257128
30
0
10
-6.955507856093079
20
5.8966402540085969
30
0
10
-7.6232548665940651
20
4.7886140533295274
30
0
10
-8.2900622057114965
20
3.682147096640521
30
0
10
-8.7146411765677847
20
2.4263205688795155
30
0
10
-8.8553584444801849
20
1.1351202051677045
30
0
10
-8.995879046769371
20
-0.15427558453559387
30
0
10
-8.8531045472918031
20
-1.4774494554985305
30
0
10
-8.4371609696425409
20
-2.7133290717367342
30
0
10
-8.0217947567115289
20
-3.9474931829767552
30
0
10
-7.3344399470780086
20
-5.093153965935767
30
0
10
-6.4351635601066581
20
-6.0445389160903868
30
0
10
-5.5371270006482067
20
-6.9946121969366066
30
0
10
-4.4287436086097181
20
-7.7498066199316691
30
0
10
-3.2089940492680182
20
-8.239175864661787
30
0
10
-1.9909148429464669
20
-8.7278749559250386
30
0
10
-0.66314863150106407
20
-8.9508587625034348
30
0
10
0.65457749971035672
20
-8.8850942006218698
30
0
10
1.9705111716842745
20
-8.8194190960969223
30
0
10
3.2749277046671268
20
-8.4657945576211677
30
0
10
4.4492966121730531
20
-7.8533758891360588
30
0
10
5.6220786838874917
20
-7.2417847356305423
30
0
10
6.6638055073400873
20
-6.3727385430005707
30
0
10
7.4788309384205727
20
-5.3223004420420734
30
0
10
8.2927623666192414
20
-4.2732723367300878
30
0
10
8.8796343403332756
20
-3.0444859873697316
30
0
10
9.1841613018754487
20
-1.7450809258186133
30
0
10
9.4882821856240884
20
-0.44740858289979513
30
0
10
9.5104108449218572
20
0.91925111212748467
30
0
10
9.2457247364432078
20
2.2325107018331019
30
0
10
8.9813892723797899
20
3.5440305434895105
30
0
10
8.4312353343146551
20
4.8008153465005288
30
0
10
7.6418298155882765
20
5.8894307234050691
30
0
10
6.8534632694852968
20
6.9766133239390555
30
0
10
5.827302416276984
20
7.8948265113188878
30
0
10
4.652925158921172
20
8.5601334103077935
30
0
10
3.4800835627789541
20
9.2245703282122449
30
0
10
2.1606800320708341
20
9.6359766397536681
30
0
10
0.81117213987067827
20
9.7550983771485509
30
0
10
-0.53658242699688585
20
9.8740653476383695
30
0
10
-1.9128867133246552
20
9.7013178594272595
30
0
10
-3.1953502190820173
20
9.2493988380672505
30
0
10
-4.4761581582902297
20
8.7980632110972792
30
0
10
-5.6619474346479377
20
8.0687153066163066
30
0
10
-6.6463741466981849
20
7.1234931460584887
30
0
10
-7.6295381167776508
20
6.1794834390832865
30
0
10
-8.4107461631096392
20
5.021138520452916
30
0
10
-8.9187709573481087
20
3.7491068310894602
30
0
10
-9.4261482205559233
20
2.4786964798972546
30
0
10
-9.6604358074778869
20
1.0962429953283137
30
0
10
-9.5982871963947431
20
-0.27704493133665026
30
0
10
-9.5362173018905843
20
-1.6485934703360763
30
0
10
-9.1784717054300469
20
-3.009519871411884
30
0
10
-8.5537934157798805
20
-4.2396430288459674
30
0
10
-7.9299013835725862
20
-5.4682178797289724
30
0
10
-7.0403663882868468
20
-6.564976389819031
30
0
10
-5.9609603678431728
20
-7.4321371112223824
30
0
10
-4.8829044943614441
20
-8.2982131671788615
30
0
10
-3.6165666286662175
20
-8.9342981879935071
30
0
10
-2.2713525574466891
20
-9.2823766525744666
30
0
10
-0.92781069136070338
20
-9.6300224287024871
30
0
10
0.49299989781169784
20
-9.6899543510752881
30
0
10
1.8673657945747624
20
-9.4542265148810127
30
0
10
3.2400337746531651
20
-9.2187899011530803
30
0
10
4.56491316213795
20
-8.6886174976917854
30
0
10
5.7258056327011744
20
-7.9072834757667039
30
0
10
6.8852727070905306
20
-7.1269088110203498
30
0
10
7.8799064123446092
20
-6.0967630385976586
30
0
10
8.6214905364699703
20
-4.9043171001544756
30
0
10
9.3621696635421578
20
-3.7133263709387476
30
0
10
9.8495955603678329
20
-2.3616475695115793
30
0
10
10.039055828058579
20
-0.96532581519778415
30
0
10
10.22828628971873
20
0.42930226917820735
30
0
10
10.120022666031476
20
1.867021409390792
30
0
10
9.7209322394067712
20
3.2235194345334923
30
0
10
9.3223229670427106
20
4.57838202880437
30
0
10
8.6339485050054403
20
5.8508011197220249
30
0
10
7.7127386599646961
20
6.9299202016566994
30
0
10
6.7926327776215656
20
8.007746085066465
30
0
10
5.6411564208403515
20
8.8915893803082096
30
0
10
4.3556210444933861
20
9.5033940284342897
30
0
10
3.0716170219856607
20
10.114469883394493
30
0
10
1.6551670017018767
20
10.453479813381795
30
0
10
0.22707187356642641
20
10.488778683201053
30
0
10
-1.1993322021278709
20
10.524035754516273
30
0
10
-2.6358991925956952
20
10.256211443258287
30
0
10
-3.9592839418084118
20
9.7056071707626188
30
0
10
-5.2811109076893574
20
9.1556510258493518
30
0
10
-6.4886587546768757
20
8.3240901430632999
30
0
10
-7.4773941773698356
20
7.2797051448982453
30
0
10
-8.4649725972233067
20
6.2365422698418218
30
0
10
-9.2332136025060993
20
4.9820717450899723
30
0
10
-9.7144719542667151
20
3.6217156979254934
30
0
10
-10.195170447525918
20
2.2629421830852197
30
0
10
-10.389020511391626
20
0.79987950108286876
30
0
10
-10.276957992185709
20
-0.64354540745407451
30
0
10
-10.165025076906185
20
-2.0853009484190217
30
0
10
-9.747947083097614
20
-3.5060156921457444
30
0
10
-9.0585636388145829
20
-4.7845516095415581
30
0
10
-8.3699728571394036
20
-6.0616174486769783
30
0
10
-7.4103436645494707
20
-7.1955331682138315
30
0
10
-6.25883249203281
20
-8.0887356184541268
30
0
10
-5.1086376872948644
20
-8.9809169905204289
30
0
10
-3.7681096446332436
20
-9.6320088673796302
30
0
10
-2.3492137535025917
20
-9.9847450465271788
30
0
10
-0.93193055967981908
20
-10.337080310646318
30
0
10
0.56215423090943228
20
-10.391339942960151
30
0
10
2.0073593442835604
20
-10.140371678061628
30
0
10
3.4509312680818525
20
-9.889687026022143
30
0
10
4.8443051508248267
20
-9.3346604881551247
30
0
10
6.06948853454033
20
-8.5195176608102745
30
0
10
7.2932952655681778
20
-7.7052907523221466
30
0
10
8.3480627664197495
20
-6.6322870901807027
30
0
10
9.143556194756739
20
-5.3886366855418153
30
0
10
9.9381608573081142
20
-4.1463757504944248
30
0
10
10.473253437328911
20
-2.7350332360643939
30
0
10
10.701689805631778
20
-1.2717316263779239
30
0
10
10.929872395595781
20
0.18994434788752512
30
0
10
10.851808886406092
20
1.7020529978725538
30
0
10
10.471464562453455
20
3.1382793996580727
30
0
10
10.091540399573091
20
4.5729192221600368
30
0
10
9.4103219952377284
20
5.9304452663155978
30
0
10
8.482259685868458
20
7.0966769619767023
30
0
10
7.5552168511872031
20
8.2616275543303193
30
0
10
6.3827253683629639
20
9.2345522417060444
30
0
10
5.060588573426827
20
9.9326588626296495
30
0
10
3.7398960434800377
20
10.630002891546669
30
0
10
2.2711271206226891
20
11.052417452752268
30
0
10
0.77536355915431832
20
11.162449484091585
30
0
10
-0.71877514497469142
20
11.272361986945056
30
0
10
-2.238428395978572
20
11.070416673051291
30
0
10
-3.657531908163091
20
10.570824259917881
30
0
10
-5.0751023621213331
20
10.071771556715538
30
0
10
-6.390977848565889
20
9.2761425483698794
30
0
10
-7.4952159656618855
20
8.2474775154618527
30
0
10
-8.5982677405893675
20
7.2199176325091843
30
0
10
-9.4890606370019679
20
5.9607584236777402
30
0
10
-10.092158173733647
20
4.5722960895084581
30
0
10
-10.694611322090422
20
3.1853172782067705
30
0
10
-11.009372177860129
20
1.6705982455887765
30
0
10
-11.008117933034381
20
0.15216881628806764
30
0
10
-11.006865021010224
20
-1.3646470802184818
30
0
10
-10.690221562903711
20
-2.8837433439138724
30
0
10
-10.081731702359429
20
-4.2799737244805538
30
0
10
-9.4738849286054858
20
-5.6747284891459113
30
0
10
-8.5753321333156087
20
-6.9455557539390664
30
0
10
-7.4576202956331592
20
-7.9869699668285197
30
0
10
-6.3410833258957409
20
-9.0272895110073321
30
0
10
-5.00685353846964
20
-9.837676195028525
30
0
10
-3.5626680510325746
20
-10.349799372992717
30
0
10
-2.1199924175178655
20
-10.86138714106967
30
0
10
-0.56891076844307553
20
-11.074816665854639
30
0
10
0.96443164796491454
20
-10.970241953705619
30
0
10
2.4961796047187397
20
-10.865775984494629
30
0
10
4.0088097829107987
20
-10.444016319660212
30
0
10
5.3785666538436043
20
-9.7369178081300198
30
0
10
6.7469067857035352
20
-9.0305506483534952
30
0
10
7.9713912384929424
20
-8.0400416911759702
30
0
10
8.9510336399169663
20
-6.8439293717262109
30
0
10
9.9296681924569228
20
-5.6490476038171211
30
0
10
10.663033443545302
20
-4.2500484849387608
30
0
10
11.089525889494139
20
-2.7591882678721662
30
0
10
11.515581889958034
20
-1.2698537031743271
30
0
10
11.634960432507123
20
0.30981046734759721
30
0
10
11.435576654099389
20
1.8522100639658696
30
0
10
11.23639583480235
20
3.3930396028143228
30
0
10
10.71923639380547
20
4.8952770258438942
30
0
10
9.9235519633011933
20
6.2368587139966101
30
0
10
9.1286732243404334
20
7.5770819477424727
30
0
10
8.0565119497656283
20
8.7557406849741604
30
0
10
6.7916601506381262
20
9.6762427761031429
30
0
10
5.5280823996863404
20
10.595817672432897
30
0
10
4.0733121396096754
20
11.256891625763888
30
0
10
2.5433294891515215
20
11.604109977801746
30
0
10
1.014879901410854
20
11.950980412488923
30
0
10
-0.58727184463528803
20
11.984268931641473
30
0
10
-2.1345980904565112
20
11.698897986921445
30
0
10
-3.6803819563507449
20
11.413811500904337
30
0
10
-5.170061773156994
20
10.810910651093389
30
0
10
-6.4834185887299203
20
9.936261686719627
30
0
10
-7.795473026423025
20
9.0624800597292037
30
0
10
-8.930362751750458
20
7.9182284581281541
30
0
10
-9.795663907315328
20
6.5932956534568534
30
0
10
-10.660111422355321
20
5.2696699270525036
30
0
10
-11.254699213292822
20
3.766866956844328
30
0
10
-11.529768150094252
20
2.2039144861366551
30
0
10
-11.804567119503995
20
0.64249598072057745
30
0
10
-11.760188008719723
20
-0.97758452727317668
30
0
10
-11.397787153412466
20
-2.5272469096820798
30
0
10
-11.035740156468043
20
-4.0753961582626435
30
0
10
-10.35656721957521
20
-5.5518945082903013
30
0
10
-9.4120962868394802
20
-6.8383941282162741
30
0
10
-8.4253567293071718
20
-8.1824694424815956
30
0
10
-7.1496128920839643
20
-9.3175651100424055
30
0
10
-5.6935096436560384
20
-10.143402957205296
30
0
10
-4.2601580084848276
20
-10.956337088006251
30
0
10
-2.6535267741968576
20
-11.46886191460254
30
0
10
-1.007711474650117
20
-11.635496477808955
30
0
10
0.61238796084122504
20
-11.799527375965273
30
0
10
2.2689157335317827
20
-11.628323134033149
30
0
10
3.8267586264248674
20
-11.133375584834118
30
0
10
5.3634781727311669
20
-10.645139205722717
30
0
10
6.8028189634353762
20
-9.8423768703909271
30
0
10
8.0295327690904568
20
-8.7866609774826738
30
0
10
9.2549711000566148
20
-7.732042764321637
30
0
10
10.267129908030423
20
-6.425881976010821
30
0
10
10.984075973231191
20
-4.9700661041066487
30
0
10
11.700281185310505
20
-3.5157545932490195
30
0
10
12.121224396607717
20
-1.9133386567594091
30
0
10
12.211401199056921
20
-0.28873265947143373
30
0
10
12.301485390718305
20
1.3342048816591152
30
0
10
12.061361991676707
20
2.9778884995419861
30
0
10
11.507634482848509
20
4.5124710893545883
30
0
10
10.954472155518603
20
6.0454873533597571
30
0
10
10.088781256096771
20
7.4682930407344648
30
0
10
8.9766413464935439
20
8.6677931744202574
30
0
10
7.8656296216245032
20
9.8660765028032333
30
0
10
6.5095889093093424
20
10.840452583527906
30
0
10
5.0135819962552013
20
11.512563835267148
30
0
10
3.5190833810444477
20
12.183997453806523
30
0
10
1.8861577942619003
20
12.553164670567879
30
0
10
0.24219147855466411
20
12.588887856894377
30
0
10
-1.4001274988484962
20
12.624575246761655
30
0
10
-3.0520712322639794
20
12.327414496161508
30
0
10
-4.5840960492015821
20
11.718358390522946
30
0
10
-6.114595073180106
20
11.109908863516395
30
0
10
-7.5241039466774442
20
10.190661005787511
30
0
10
-8.7013943805782716
20
9.0304017594800641
30
0
10
-9.8775194633708541
20
7.8712910058126653
30
0
10
-10.820865643330228
20
6.4725929176743016
30
0
10
-11.456069827903219
20
4.9419355886301766
30
0
10
-12.090649079781011
20
3.4127841656132758
30
0
10
-12.417121780299031
20
1.7532005708221947
30
0
10
-12.407865138517508
20
0.09172243563836649
30
0
10
-12.398617548293496
20
-1.5681310320637838
30
0
10
-12.054263639151797
20
-3.2284875348207116
30
0
10
-11.39927619764347
20
-4.7600889960401176
30
0
10
-10.744925340450951
20
-6.2902018890725726
30
0
10
-9.7810518601664782
20
-7.6905197045012335
30
0
10
-8.5804034452461728
20
-8.8513334808909487
30
0
10
-7.3809148619818608
20
-10.011025906060908
30
0
10
-5.9460753383287477
20
-10.930685630472126
30
0
10
-4.3855375343060601
20
-11.537330597112023
30
0
10
-2.8264980775722535
20
-12.143393094785942
30
0
10
-1.1432752352868771
20
-12.436503148115811
30
0
10
0.53469031793422284
20
-12.391819406850873
30
0
10
2.2110545325954591
20
-12.347178308772351
30
0
10
3.8807904674452427
20
-11.965384366181496
30
0
10
5.4148450948180029
20
-11.273627332957135
30
0
10
6.9474445793859667
20
-10.582526472760515
30
0
10
8.3433467416724589
20
-9.5825805048150787
30
0
10
9.4939707227815884
20
-8.3487977070593296
30
0
10
10.643509864296966
20
-7.11617815329212
30
0
10
11.54726479954148
20
-5.6511423133841285
30
0
10
12.134001192861982
20
-4.0648831967807908
30
0
10
12.720187735214132
20
-2.4801106184615094
30
0
10
12.989435278230713
20
-0.77561796211641587
30
0
10
12.918915100061659
20
0.91844358776999635
30
0
10
12.848460610140519
20
2.6109271505049145
30
0
10
12.438888700707826
20
4.2916249624929153
30
0
10
11.719328231626935
20
5.8315627958186296
30
0
10
11.000433980351284
20
7.3700748504257962
30
0
10
9.9726700400391266
20
8.7668278299351083
30
0
10
8.7126438659790413
20
9.9139486774612422
30
0
10
7.4537772844861783
20
11.060013838339049
30
0
10
5.9640626732979136
20
11.955954633244163
30
0
10
4.3557929159379087
20
12.531641463534349
30
0
10
2.7489943318560721
20
13.10680168124761
30
0
10
1.0251328762442333
20
13.361795544952566
30
0
10
-0.68508196232765228
20
13.275046828391666
30
0
10
-2.3937417781656558
20
13.188376988603055
30
0
10
-4.087412461914778
20
12.760616176530553
30
0
10
-5.6370421440709224
20
12.022077251687156
30
0
10
-7.1852712810998645
20
11.284205813472564
30
0
10
-8.5884703182169524
20
10.236670305635283
30
0
10
-9.7390376099255889
20
8.9570464376742027
30
0
10
-10.888571269064395
20
7.6785721425513112
30
0
10
-11.784986251417036
20
6.1694147844673681
30
0
10
-12.358613487838566
20
4.5425578874261756
30
0
10
-12.931728487566247
20
2.9171537383463662
30
0
10
-13.182142702673268
20
1.1755322919910733
30
0
10
-13.088783678518121
20
-0.55116507652445823
30
0
10
-12.99550752213641
20
-2.2763297858501179
30
0
10
-12.55910342705825
20
-3.9852359080418394
30
0
10
-11.810332712164557
20
-5.5485814510444795
30
0
10
-11.062222642422533
20
-7.1105476443572542
30
0
10
-10.002849781974362
20
-8.5259675109013227
30
0
10
-8.7101493094894877
20
-9.6870698552865981
30
0
10
-7.4185825649234154
20
-10.847153886325174
30
0
10
-5.8950821919442831
20
-11.752430661811877
30
0
10
-4.2529323904005425
20
-12.333053379358192
30
0
10
-2.6122141722183998
20
-12.913169925164864
30
0
10
-0.85431959002354141
20
-13.168710414764373
30
0
10
0.88929228200435229
20
-13.078370718700405
30
0
10
2.6313932115428695
20
-12.98810930730945
30
0
10
4.3578810216915711
20
-12.552599430409758
30
0
10
5.9390280357137186
20
-11.802331390485728
30
0
10
7.5851196245256451
20
-11.021246583746777
30
0
10
9.0720930578609327
20
-9.8992885843240117
30
0
10
10.278102986749259
20
-8.5253378974658851
30
0
10
11.446425105359804
20
-7.1943231695720993
30
0
10
12.350260249039852
20
-5.6281029586090101
30
0
10
12.918914671334948
20
-3.9447363509449973
30
0
10
13.482607789827748
20
-2.2760565070232799
30
0
10
13.716528461603758
20
-0.49358687104173149
30
0
10
13.601034777582525
20
1.2696347136817585
30
0
10
13.485657425899895
20
3.031080273229807
30
0
10
13.021622434485245
20
4.771952530373051
30
0
10
12.241483815937517
20
6.3617439465545029
30
0
10
11.462122452459939
20
7.9499514475068809
30
0
10
10.367854788061296
20
9.3861403155138738
30
0
10
9.0384946862613127
20
10.56200755003195
30
0
10
7.7104445470981107
20
11.736716075076989
30
0
10
6.1487598086096762
20
12.650688001784401
30
0
10
4.4684814859600461
20
13.23411022014575
30
0
10
2.7898407193438426
20
13.816963850219768
30
0
10
0.99410804287999432
20
14.069432729240001
30
0
10
-0.78574076449373342
20
13.970661138630831
30
0
10
-2.5638741529889693
20
13.871984744113874
30
0
10
-4.3247991798541179
20
13.422784124201836
30
0
10
-5.9375446368859244
20
12.654267842927668
30
0
10
-7.5487530094973607
20
11.886484023430153
30
0
10
-9.010827435362339
20
10.800542902165617
30
0
10
-10.214395473284673
20
9.4750301851578005
30
0
10
-11.416829233825695
20
8.1507666697290979
30
0
10
-12.360309312286354
20
6.5883592133579452
30
0
10
-12.973388647316499
20
4.9020210921089475
30
0
10
-13.585896696915393
20
3.2172543505261499
30
0
10
-13.868125444295378
20
1.4100433653742768
30
0
10
-13.797193637206133
20
-0.38680443682560622
30
0
10
-13.726327178618559
20
-2.1819968277731747
30
0
10
-13.302968548417866
20
-3.9654980031624611
30
0
10
-12.556197027081698
20
-5.6056703277793316
30
0
10
-11.810105663961766
20
-7.2443487862661264
30
0
10
-10.741715588117749
20
-8.738720895758112
30
0
10
-9.4277397889339944
20
-9.9778695967637994
30
0
10
-8.1149470469623655
20
-11.215902612222971
30
0
10
-6.5579636001772084
20
-12.198224791250071
30
0
10
-4.8697578865282258
20
-12.851081730064706
30
0
10
-3.1830546491736262
20
-13.503357636564226
30
0
10
-1.3666008144278945
20
-13.826238236397209
30
0
10
0.44710079502798561
20
-13.794045069135347
30
0
10
2.2592069707375919
20
-13.761880220790545
30
0
10
4.067226093479559
20
-13.375254993455293
30
0
10
5.738697126676775
20
-12.660360125035345
30
0
10
7.4087150169963678
20
-11.946086771655537
30
0
10
8.9411787312466764
20
-10.904608377409017
30
0
10
10.223205255586786
20
-9.6101240288172303
30
0
10
11.552484707338966
20
-8.267927582387566
30
0
10
12.611183047476478
20
-6.6545329181511832
30
0
10
13.314529183347506
20
-4.8949039729868016
30
0
10
13.993239895410325
20
-3.1969078464283429
30
0
10
14.340775526479879
20
-1.3641705789064331
30
0
10
14.329725948080755
20
0.46995325657921094
30
0
10
14.318689032614408
20
2.301975166905927
30
0
10
13.949864251309746
20
4.1340338682727378
30
0
10
13.248068600193491
20
5.8323252682563114
30
0
10
12.547054280267698
20
7.5287259069631665
30
0
10
11.514293180567224
20
9.0904034775062108
30
0
10
10.223089966929697
20
10.40275571238293
30
0
10
8.9332823480000361
20
11.713689493669616
30
0
10
7.38650751558378
20
12.774859013982683
30
0
10
5.6937365645020774
20
13.507628033485574
30
0
10
4.0027405728135328
20
14.239628706123018
30
0
10
2.1672682040571485
20
14.643356532427228
30
0
10
0.3196737608682666
20
14.687591272241837
30
0
10
-1.5260427196759325
20
14.731781050247173
30
0
10
-3.3825240883209475
20
14.417143819724055
30
0
10
-5.1153779563388335
20
13.764374785025696
30
0
10
-6.8465258428882407
20
13.112248396482876
30
0
10
-8.4530324649981203
20
12.123094442575916
30
0
10
-9.8180485858604385
20
10.866455762361056
30
0
10
-11.181764239159696
20
9.6110142971952577
30
0
10
-12.303449783152329
20
8.0894733977055822
30
0
10
-13.100776682578626
20
6.4100707672433099
30
0
10
-13.899096434051714
20
4.7285769012536267
30
0
10
-14.371629846839074
20
2.8900127438636112
30
0
10
-14.482319698345556
20
1.0264437964326691
30
0
10
-14.592847712815232
20
-0.83440047053090294
30
0
10
-14.342482108645385
20
-2.7188444159140666
30
0
10
-13.747203015596835
20
-4.4911243838961674
30
0
10
-13.152723096402005
20
-6.2610250312731575
30
0
10
-12.214651431846091
20
-7.9177919265212982
30
0
10
-10.99849235378227
20
-9.3416124071216124
30
0
10
-9.7838217263724143
20
-10.763690281377325
30
0
10
-8.2925827324229893
20
-11.952363810449587
30
0
10
-6.6301990115302916
20
-12.821010989303909
30
0
10
-4.9664089349368936
20
-13.690393032736443
30
0
10
-3.1323423585123678
20
-14.238548534911773
30
0
10
-1.2588470550916226
20
-14.42425270518441
30
0
10
0.61093743216404617
20
-14.609589052791192
30
0
10
2.518675292219859
20
-14.433754458957807
30
0
10
4.3280028315560415
20
-13.907291673535662
30
0
10
6.1374090930396985
20
-13.380805982210559
30
0
10
7.8471103355928928
20
-12.503993951995014
30
0
10
9.3341333395020918
20
-11.337654478998081
30
0
10
10.294848486530507
20
-10.58412208888738
30
0
10
11.162959799192654
20
-9.7107869056962315
30
0
10
11.911881417889592
20
-8.7436116330915468
30
0
0
LINE
5
101
100
AcDbEntity
8
0
100
AcDbLine
10
11.911881417889592
20
-8.7436116330915468
30
0
11
11.911881417889564
21
-24.549348797281105
31
0
0
LINE
5
102
100
AcDbEntity
8
0
100
AcDbLine
10
18.088118582110436
20
-8.7436116330915841
30
0
11
18.088118582110436
21
-24.549348797281105
31
0
0
SPLINE
5
103
100
AcDbEntity
8
0
100
AcDbSpline
70
0
71
3
72
821
73
817
74
0
42
0.000000001
43
0.0000000001
44
0.0000000001
40
0
40
0
40
0
40
0
40
0.74699372626852822
40
0.74699372626852822
40
0.74699372626852822
40
1.4808254488610588
40
1.4808254488610588
40
1.4808254488610588
40
2.2026292900819922
40
2.2026292900819922
40
2.2026292900819922
40
2.9133918121267071
40
2.9133918121267071
40
2.9133918121267071
40
3.6139739566180813
40
3.6139739566180813
40
3.6139739566180813
40
4.305130292133537
40
4.305130292133537
40
4.305130292133537
40
4.9875253486773969
40
4.9875253486773969
40
4.9875253486773969
40
5.661747269780113
40
5.661747269780113
40
5.661747269780113
40
6.3283191520930711
40
6.3283191520930711
40
6.3283191520930711
40
6.9877084522531296
40
6.9877084522531296
40
6.9877084522531296
40
7.6403348023722781
40
7.6403348023722781
40
7.6403348023722781
40
8.2865765237441078
40
8.2865765237441078
40
8.2865765237441078
40
8.9267760775788947
40
8.9267760775788947
40
8.9267760775788947
40
9.5612446469327921
40
9.5612446469327921
40
9.5612446469327921
40
10.190266006670505
40
10.190266006670505
40
10.190266006670505
40
10.814099807883766
40
10.814099807883766
40
10.814099807883766
40
11.432984378726411
40
11.432984378726411
40
11.432984378726411
40
12.047139124078974
40
12.047139124078974
40
12.047139124078974
40
12.656766590869605
40
12.656766590869605
40
12.656766590869605
40
13.262054253447465
40
13.262054253447465
40
13.262054253447465
40
13.863176063472341
40
13.863176063472341
40
13.863176063472341
40
14.460293800825061
40
14.460293800825061
40
14.460293800825061
40
15.053558255642988
40
15.053558255642988
40
15.053558255642988
40
15.643110266417862
40
15.643110266417862
40
15.643110266417862
40
16.229081634904627
40
16.229081634904627
40
16.229081634904627
40
16.811595935179817
40
16.811595935179817
40
16.811595935179817
40
17.390769231400032
40
17.390769231400032
40
17.390769231400032
40
17.966710716521469
40
17.966710716521469
40
17.966710716521469
40
18.539523282353723
40
18.539523282353723
40
18.539523282353723
40
19.109304029757638
40
19.109304029757638
40
19.109304029757638
40
19.676144726497284
40
19.676144726497284
40
19.676144726497284
40
20.240132219171194
40
20.240132219171194
40
20.240132219171194
40
20.801348804738826
40
20.801348804738826
40
20.801348804738826
40
21.359872566393552
40
21.359872566393552
40
21.359872566393552
40
21.915777677888073
40
21.915777677888073
40
21.915777677888073
40
22.469134679871324
40
22.469134679871324
40
22.469134679871324
40
23.020010731331283
40
23.020010731331283
40
23.020010731331283
40
23.568469838841722
40
23.568469838841722
40
23.568469838841722
40
24.114573065972021
40
24.114573065972021
40
24.114573065972021
40
24.658378724928191
40
24.658378724928191
40
24.658378724928191
40
25.199942552243005
40
25.199942552243005
40
25.199942552243005
40
25.739317870116967
40
25.739317870116967
40
25.739317870116967
40
26.27655573482496
40
26.27655573482496
40
26.27655573482496
40
26.811705073441097
40
26.811705073441097
40
26.811705073441097
40
27.344812809993126
40
27.344812809993126
40
27.344812809993126
40
27.875923982034642
40
27.875923982034642
40
27.875923982034642
40
28.405081848515707
40
28.405081848515707
40
28.405081848515707
40
28.932327989738098
40
28.932327989738098
40
28.932327989738098
40
29.457702400098633
40
29.457702400098633
40
29.457702400098633
40
29.981243574251
40
29.981243574251
40
29.981243574251
40
30.502988587252247
40
30.502988587252247
40
30.502988587252247
40
31.022973169203176
40
31.022973169203176
40
31.022973169203176
40
31.541231774841535
40
31.541231774841535
40
31.541231774841535
40
32.057797648502223
40
32.057797648502223
40
32.057797648502223
40
32.572702884818895
40
32.572702884818895
40
32.572702884818895
40
33.085978485506139
40
33.085978485506139
40
33.085978485506139
40
33.597654412529558
40
33.597654412529558
40
33.597654412529558
40
34.107759637943111
40
34.107759637943111
40
34.107759637943111
40
34.616322190647622
40
34.616322190647622
40
34.616322190647622
40
35.123369200301774
40
35.123369200301774
40
35.123369200301774
40
35.628926938596543
40
35.628926938596543
40
35.628926938596543
40
36.133020858085658
40
36.133020858085658
40
36.133020858085658
40
36.635675628748324
40
36.635675628748324
40
36.635675628748324
40
37.136915172445342
40
37.136915172445342
40
37.136915172445342
40
37.6367626954165
40
37.6367626954165
40
37.6367626954165
40
38.135240718954876
40
38.135240718954876
40
38.135240718954876
40
38.632371108382635
40
38.632371108382635
40
38.632371108382635
40
39.128175100442959
40
39.128175100442959
40
39.128175100442959
40
39.622673329213661
40
39.622673329213661
40
39.622673329213661
40
40.115885850639742
40
40.115885850639742
40
40.115885850639742
40
40.607832165774688
40
40.607832165774688
40
40.607832165774688
40
41.098531242813358
40
41.098531242813358
40
41.098531242813358
40
41.588001537993179
40
41.588001537993179
40
41.588001537993179
40
42.076261015434575
40
42.076261015434575
40
42.076261015434575
40
42.563327165986301
40
42.563327165986301
40
42.563327165986301
40
43.049217025136642
40
43.049217025136642
40
43.049217025136642
40
43.533947190047037
40
43.533947190047037
40
43.533947190047037
40
44.017533835760624
40
44.017533835760624
40
44.017533835760624
40
44.499992730634467
40
44.499992730634467
40
44.499992730634467
40
44.981339251041021
40
44.981339251041021
40
44.981339251041021
40
45.461588395380979
40
45.461588395380979
40
45.461588395380979
40
45.940754797447013
40
45.940754797447013
40
45.940754797447013
40
46.418852739175144
40
46.418852739175144
40
46.418852739175144
40
46.895896162817998
40
46.895896162817998
40
46.895896162817998
40
47.371898682572088
40
47.371898682572088
40
47.371898682572088
40
47.846873595688962
40
47.846873595688962
40
47.846873595688962
40
48.320833893098339
40
48.320833893098339
40
48.320833893098339
40
48.793792269569373
40
48.793792269569373
40
48.793792269569373
40
49.265761133434665
40
49.265761133434665
40
49.265761133434665
40
49.736752615900016
40
49.736752615900016
40
49.736752615900016
40
50.206778579961536
40
50.206778579961536
40
50.206778579961536
40
50.675850628950379
40
50.675850628950379
40
50.675850628950379
40
51.14398011472413
40
51.14398011472413
40
51.14398011472413
40
51.611178145522729
40
51.611178145522729
40
51.611178145522729
40
52.077455593505753
40
52.077455593505753
40
52.077455593505753
40
52.542823101986919
40
52.542823101986919
40
52.542823101986919
40
53.007291092380648
40
53.007291092380648
40
53.007291092380648
40
53.470869770874756
40
53.470869770874756
40
53.470869770874756
40
53.933569134842543
40
53.933569134842543
40
53.933569134842543
40
54.395398979006615
40
54.395398979006615
40
54.395398979006615
40
54.856368901366388
40
54.856368901366388
40
54.856368901366388
40
55.316488308900283
40
55.316488308900283
40
55.316488308900283
40
55.775766423053078
40
55.775766423053078
40
55.775766423053078
40
56.234212285018401
40
56.234212285018401
40
56.234212285018401
40
56.691834760825742
40
56.691834760825742
40
56.691834760825742
40
57.148642546240822
40
57.148642546240822
40
57.148642546240822
40
57.604644171487671
40
57.604644171487671
40
57.604644171487671
40
58.059848005800497
40
58.059848005800497
40
58.059848005800497
40
58.514262261812725
40
58.514262261812725
40
58.514262261812725
40
58.967894999790488
40
58.967894999790488
40
58.967894999790488
40
59.420754131717167
40
59.420754131717167
40
59.420754131717167
40
59.872847425235598
40
59.872847425235598
40
59.872847425235598
40
60.324182507453862
40
60.324182507453862
40
60.324182507453862
40
60.774766868620574
40
60.774766868620574
40
60.774766868620574
40
61.224607865675054
40
61.224607865675054
40
61.224607865675054
40
61.673712725677717
40
61.673712725677717
40
61.673712725677717
40
62.12208854912555
40
62.12208854912555
40
62.12208854912555
40
62.569742313157462
40
62.569742313157462
40
62.569742313157462
40
63.016680874653943
40
63.016680874653943
40
63.016680874653943
40
63.462910973235346
40
63.462910973235346
40
63.462910973235346
40
63.908439234162877
40
63.908439234162877
40
63.908439234162877
40
64.353272171146131
40
64.353272171146131
40
64.353272171146131
40
64.797416189060854
40
64.797416189060854
40
64.797416189060854
40
65.240877586580538
40
65.240877586580538
40
65.240877586580538
40
65.683662558725132
40
65.683662558725132
40
65.683662558725132
40
66.125777199330059
40
66.125777199330059
40
66.125777199330059
40
66.56722750343873
40
66.56722750343873
40
66.56722750343873
40
67.02860202201596
40
67.02860202201596
40
67.02860202201596
40
67.4863720521668
40
67.4863720521668
40
67.4863720521668
40
67.940565753957088
40
67.940565753957088
40
67.940565753957088
40
68.391211067452133
40
68.391211067452133
40
68.391211067452133
40
68.838335714435502
40
68.838335714435502
40
68.838335714435502
40
69.281967200114309
40
69.281967200114309
40
69.281967200114309
40
69.72213281481126
40
69.72213281481126
40
69.72213281481126
40
70.159620469556643
40
70.159620469556643
40
70.159620469556643
40
70.596470565604989
40
70.596470565604989
40
70.596470565604989
40
71.03268852476721
40
71.03268852476721
40
71.03268852476721
40
71.468279688756979
40
71.468279688756979
40
71.468279688756979
40
71.9032493209248
40
71.9032493209248
40
71.9032493209248
40
72.337602607943026
40
72.337602607943026
40
72.337602607943026
40
72.77134466144355
40
72.77134466144355
40
72.77134466144355
40
73.20448051960976
40
73.20448051960976
40
73.20448051960976
40
73.637015148724359
40
73.637015148724359
40
73.637015148724359
40
74.068953444674619
40
74.068953444674619
40
74.068953444674619
40
74.500300234416386
40
74.500300234416386
40
74.500300234416386
40
74.931060277398316
40
74.931060277398316
40
74.931060277398316
40
75.361238266947652
40
75.361238266947652
40
75.361238266947652
40
75.7908388316188
40
75.7908388316188
40
75.7908388316188
40
76.219866536505975
40
76.219866536505975
40
76.219866536505975
40
76.648325884521071
40
76.648325884521071
40
76.648325884521071
40
77.076221317637845
40
77.076221317637845
40
77.076221317637845
40
77.503557218103595
40
77.503557218103595
40
77.503557218103595
40
77.930337909619368
40
77.930337909619368
40
77.930337909619368
40
78.356567658489581
40
78.356567658489581
40
78.356567658489581
40
78.782250674742215
40
78.782250674742215
40
78.782250674742215
40
79.207391113220353
40
79.207391113220353
40
79.207391113220353
40
79.631993074646118
40
79.631993074646118
40
79.631993074646118
40
80.056060606657638
40
80.056060606657638
40
80.056060606657638
40
80.479597704820208
40
80.479597704820208
40
80.479597704820208
40
80.902608313612092
40
80.902608313612092
40
80.902608313612092
40
81.325096327386049
40
81.325096327386049
40
81.325096327386049
40
81.747065591307106
40
81.747065591307106
40
81.747065591307106
40
82.168519902267391
40
82.168519902267391
40
82.168519902267391
40
82.58946300977874
40
82.58946300977874
40
82.58946300977874
40
83.009898616843685
40
83.009898616843685
40
83.009898616843685
40
83.429830380805512
40
83.429830380805512
40
83.429830380805512
40
83.849261914177973
40
83.849261914177973
40
83.849261914177973
40
84.268196785455288
40
84.268196785455288
40
84.268196785455288
40
84.686638519902999
40
84.686638519902999
40
84.686638519902999
40
85.104590600330226
40
85.104590600330226
40
85.104590600330226
40
85.522056467843839
40
85.522056467843839
40
85.522056467843839
40
85.93903952258519
40
85.93903952258519
40
85.93903952258519
40
86.35554312444971
40
86.35554312444971
40
86.35554312444971
40
86.771570593790031
40
86.771570593790031
40
86.771570593790031
40
87.187125212103012
40
87.187125212103012
40
87.187125212103012
40
87.602210222701117
40
87.602210222701117
40
87.602210222701117
40
88.01682883136867
40
88.01682883136867
40
88.01682883136867
40
88.43098420700332
40
88.43098420700332
40
88.43098420700332
40
88.844679482243095
40
88.844679482243095
40
88.844679482243095
40
89.257917754079656
40
89.257917754079656
40
89.257917754079656
40
89.670702084457758
40
89.670702084457758
40
89.670702084457758
40
90.083035500861754
40
90.083035500861754
40
90.083035500861754
40
90.49492099688905
40
90.49492099688905
40
90.49492099688905
40
90.906361532811218
40
90.906361532811218
40
90.906361532811218
40
91.317360036122807
40
91.317360036122807
40
91.317360036122807
40
91.727919402078484
40
91.727919402078484
40
91.727919402078484
40
92.13804249421851
40
92.13804249421851
40
92.13804249421851
40
92.547732144883057
40
92.547732144883057
40
92.547732144883057
40
92.956991155715627
40
92.956991155715627
40
92.956991155715627
40
93.365822298155848
40
93.365822298155848
40
93.365822298155848
40
93.77422831392181
40
93.77422831392181
40
93.77422831392181
40
94.182211915482441
40
94.182211915482441
40
94.182211915482441
40
94.589775786520022
40
94.589775786520022
40
94.589775786520022
40
94.99692258238305
40
94.99692258238305
40
94.99692258238305
40
95.403654930529868
40
95.403654930529868
40
95.403654930529868
40
95.809975430963178
40
95.809975430963178
40
95.809975430963178
40
96.215886656655613
40
96.215886656655613
40
96.215886656655613
40
96.621391153966826
40
96.621391153966826
40
96.621391153966826
40
97.026491443051981
40
97.026491443051981
40
97.026491443051981
40
97.431190018262157
40
97.431190018262157
40
97.431190018262157
40
97.835489348536697
40
97.835489348536697
40
97.835489348536697
40
98.239391877787739
40
98.239391877787739
40
98.239391877787739
40
98.642900025277115
40
98.642900025277115
40
98.642900025277115
40
99.064466679277842
40
99.064466679277842
40
99.064466679277842
40
99.4794463543098
40
99.4794463543098
40
99.4794463543098
40
99.887941971919389
40
99.887941971919389
40
99.887941971919389
40
100.29089865197031
40
100.29089865197031
40
100.29089865197031
40
100.69343635813851
40
100.69343635813851
40
100.69343635813851
40
101.09555810370578
40
101.09555810370578
40
101.09555810370578
40
101.49726687375558
40
101.49726687375558
40
101.49726687375558
40
101.89856562559079
40
101.89856562559079
40
101.89856562559079
40
102.29945728914353
40
102.29945728914353
40
102.29945728914353
40
102.69994476737715
40
102.69994476737715
40
102.69994476737715
40
103.10003093668071
40
103.10003093668071
40
103.10003093668071
40
103.49971864725606
40
103.49971864725606
40
103.49971864725606
40
103.89901072349764
40
103.89901072349764
40
103.89901072349764
40
104.29790996436527
40
104.29790996436527
40
104.29790996436527
40
104.69641914375008
40
104.69641914375008
40
104.69641914375008
40
105.09454101083357
40
105.09454101083357
40
105.09454101083357
40
105.49227829044028
40
105.49227829044028
40
105.49227829044028
40
105.88963368338392
40
105.88963368338392
40
105.88963368338392
40
106.28660986680715
40
106.28660986680715
40
106.28660986680715
40
106.68320949451544
40
106.68320949451544
40
106.68320949451544
40
107.07943519730466
40
107.07943519730466
40
107.07943519730466
40
107.47528958328306
40
107.47528958328306
40
107.47528958328306
40
107.87077523818732
40
107.87077523818732
40
107.87077523818732
40
108.2658947256931
40
108.2658947256931
40
108.2658947256931
40
108.66065058772006
40
108.66065058772006
40
108.66065058772006
40
109.05504534473154
40
109.05504534473154
40
109.05504534473154
40
109.44908149602902
40
109.44908149602902
40
109.44908149602902
40
109.84276152004139
40
109.84276152004139
40
109.84276152004139
40
110.23608787460927
40
110.23608787460927
40
110.23608787460927
40
110.62906299726437
40
110.62906299726437
40
110.62906299726437
40
111.0216893055041
40
111.0216893055041
40
111.0216893055041
40
111.41396919706139
40
111.41396919706139
40
111.41396919706139
40
111.8059050501701
40
111.8059050501701
40
111.8059050501701
40
112.19749922382569
40
112.19749922382569
40
112.19749922382569
40
112.58875405804166
40
112.58875405804166
40
112.58875405804166
40
112.99607942751922
40
112.99607942751922
40
112.99607942751922
40
113.3906758792006
40
113.3906758792006
40
113.3906758792006
40
113.78182961980941
40
113.78182961980941
40
113.78182961980941
40
114.17258936632423
40
114.17258936632423
40
114.17258936632423
40
114.56295979741873
40
114.56295979741873
40
114.56295979741873
40
114.95294555420372
40
114.95294555420372
40
114.95294555420372
40
115.3425512409013
40
115.3425512409013
40
115.3425512409013
40
115.73178142550715
40
115.73178142550715
40
115.73178142550715
40
116.12064064044132
40
116.12064064044132
40
116.12064064044132
40
116.5091333831877
40
116.5091333831877
40
116.5091333831877
40
116.89726411692253
40
116.89726411692253
40
116.89726411692253
40
117.28503727113214
40
117.28503727113214
40
117.28503727113214
40
117.67245724222036
40
117.67245724222036
40
117.67245724222036
40
118.05952839410567
40
118.05952839410567
40
118.05952839410567
40
118.44625505880838
40
118.44625505880838
40
118.44625505880838
40
118.83264153702824
40
118.83264153702824
40
118.83264153702824
40
119.21869209871249
40
119.21869209871249
40
119.21869209871249
40
119.61897171012569
40
119.61897171012569
40
119.61897171012569
40
120.00523111531889
40
120.00523111531889
40
120.00523111531889
40
120.39104786318114
40
120.39104786318114
40
120.39104786318114
40
120.77643506911274
40
120.77643506911274
40
120.77643506911274
40
121.16140572996498
40
121.16140572996498
40
121.16140572996498
40
121.54597272882732
40
121.54597272882732
40
121.54597272882732
40
121.93014883971048
40
121.93014883971048
40
121.93014883971048
40
122.31394673213109
40
122.31394673213109
40
122.31394673213109
40
122.69737897560276
40
122.69737897560276
40
122.69737897560276
40
123.08128867880646
40
123.08128867880646
40
123.08128867880646
40
123.46463707663372
40
123.46463707663372
40
123.46463707663372
40
123.8474708217208
40
123.8474708217208
40
123.8474708217208
40
124.22983601861505
40
124.22983601861505
40
124.22983601861505
40
124.6125246916524
40
124.6125246916524
40
124.6125246916524
40
124.9944553764997
40
124.9944553764997
40
124.9944553764997
40
125.37640267879357
40
125.37640267879357
40
125.37640267879357
40
125.62316588132353
40
125.62316588132353
40
125.62316588132353
40
125.62316588132353
10
29.196839182284403
20
-0.22943057454041843
30
0
10
29.049077190442105
20
-0.066768620223196989
30
0
10
28.959242255508745
20
0.16256638270730089
30
0
10
28.964154683834654
20
0.40284218907468961
30
0
10
28.968980555343002
20
0.63888434402647865
30
0
10
29.066097724480791
20
0.88302308524236972
30
0
10
29.243048296435873
20
1.0679751833947437
30
0
10
29.41709855702176
20
1.249895821026243
30
0
10
29.667316963756594
20
1.3722359467779706
30
0
10
29.9375076205793
20
1.3933807445753053
30
0
10
30.203565213666344
20
1.4142020937456528
30
0
10
30.486669517191707
20
1.3359502203262148
30
0
10
30.715847474648747
20
1.1656158355850206
30
0
10
30.941742875609837
20
0.99772118042044045
30
0
10
31.112927581090577
20
0.74119927902087634
30
0
10
31.179897809980815
20
0.44917048680724891
30
0
10
31.245967004510476
20
0.16107072366254283
30
0
10
31.209438437678692
20
-0.15946051710340997
30
0
10
31.067389587774755
20
-0.43865730775503958
30
0
10
30.927141386345923
20
-0.71431492666624252
30
0
10
30.684524216196465
20
-0.94733894203436531
30
0
10
30.385510634727407
20
-1.0785162922351437
30
0
10
30.090078378293828
20
-1.2081225140408376
30
0
10
29.741451532612103
20
-1.2368530835432845
30
0
10
29.413826843767286
20
-1.1480595760336008
30
0
10
29.089919538620176
20
-1.0602735613915721
30
0
10
28.788870529913797
20
-0.85767525062214345
30
0
10
28.579729909978706
20
-0.5744803574634636
30
0
10
28.372842864975368
20
-0.29433700404020691
30
0
10
28.257647016905338
20
0.063180604883151692
30
0
10
28.267265894083469
20
0.42741844886662567
30
0
10
28.276786116361091
20
0.78792052955932279
30
0
10
28.40901036780863
20
1.1527695829168312
30
0
10
28.646236498625257
20
1.4450172300643276
30
0
10
28.881141851596869
20
1.7344058251233303
30
0
10
29.217980965094494
20
1.9505977656959053
30
0
10
29.595048577927685
20
2.0429243956234142
30
0
10
29.968590720934053
20
2.1343877990712579
30
0
10
30.379595533412861
20
2.1033348408454979
30
0
10
30.747429012014603
20
1.9467655062293825
30
0
10
31.111969692386804
20
1.7915977602608901
30
0
10
31.431944367070578
20
1.513605464357425
30
0
10
31.640393840979673
20
1.15925576887638
30
0
10
31.847053678595323
20
0.80794833137618649
30
0
10
31.942649442245326
20
0.3832361284625862
30
0
10
31.900799393742293
20
-0.036939724501043492
30
0
10
31.859294483878035
20
-0.45365037426597798
30
0
10
31.682421159935398
20
-0.8637339093301486
30
0
10
31.395163830565071
20
-1.1879998034159582
30
0
10
31.110185477896451
20
-1.5096931106877112
30
0
10
30.717691096041907
20
-1.7450861545819758
30
0
10
30.284935456147711
20
-1.8442449465195982
30
0
10
29.855487151341478
20
-1.9426459173646158
30
0
10
29.388362809451252
20
-1.9060616501690548
30
0
10
28.968017310585093
20
-1.7330285212805505
30
0
10
28.55077041378954
20
-1.5612709164856868
30
0
10
28.181683720624978
20
-1.255540967074519
30
0
10
27.931077691519352
20
-0.86384981447195286
30
0
10
27.682255671763869
20
-0.4749470252663292
30
0
10
27.551638750361693
20
-0.0028713836258636993
30
0
10
27.569460629741855
20
0.4720745070499438
30
0
10
27.587159851208586
20
0.94375161385070205
30
0
10
27.751510638668133
20
1.4161831068773871
30
0
10
28.041372328316051
20
1.8055498772788541
30
0
10
28.329303249106697
20
2.1923230754312195
30
0
10
28.740106001870274
20
2.4952990970268951
30
0
10
29.208377373558474
20
2.6570100598200193
30
0
10
29.673626925955105
20
2.8176774796238195
30
0
10
30.193776662781605
20
2.8379421039605583
30
0
10
30.681814053724082
20
2.7071157722299009
30
0
10
31.166797475243516
20
2.5771081064954338
30
0
10
31.618032900223135
20
2.2981337615246589
30
0
10
31.956936477274901
20
1.9103562448416496
30
0
10
32.293781724514531
20
1.5249338936898171
30
0
10
32.518111720407305
20
1.0333559291093639
30
0
10
32.586763687814241
20
0.51325326095151058
30
0
10
32.655010627694324
20
-0.0037809460194291322
30
0
10
32.568872135496015
20
-0.54705187390735643
30
0
10
32.335469152265887
20
-1.0274642124761904
30
0
10
32.103404849155794
20
-1.505121151614556
30
0
10
31.726388837913948
20
-1.9187254221371339
30
0
10
31.259794714730702
20
-2.1974272997208675
30
0
10
30.79580420617501
20
-2.4745740092277857
30
0
10
30.244801476697901
20
-2.6170757980458381
30
0
10
29.69243922897353
20
-2.5958638824439682
30
0
10
29.143077801534151
20
-2.5747672048890209
30
0
10
28.594354603685836
20
-2.3915506042454875
30
0
10
28.13441570648045
20
-2.0686955371587525
30
0
10
27.67691120284049
20
-1.7475492977068554
30
0
10
27.309005041667263
20
-1.2891635235664736
30
0
10
27.092872239121235
20
-0.76063187239303276
30
0
10
26.877854675011378
20
-0.23482742784986033
30
0
10
26.814013170456686
20
0.35868318656494258
30
0
10
26.917519102253749
20
0.92936614731518064
30
0
10
27.020504034858039
20
1.4971765638863843
30
0
10
27.28904182583582
20
2.0404317573482471
30
0
10
27.687911415645978
20
2.4736538188454675
30
0
10
28.084821333308721
20
2.9047474322753244
30
0
10
28.609643813884958
20
3.2253051789097795
30
0
10
29.186495077338449
20
3.3816956124578343
30
0
10
29.760578498721049
20
3.5373356549625061
30
0
10
30.384391053815598
20
3.529657849418562
30
0
10
30.9646794341988
20
3.3536805919581072
30
0
10
31.542247120558613
20
3.1785284074937881
30
0
10
32.074797349321244
20
2.8369973066346938
30
0
10
32.480238408623599
20
2.3745509829436058
30
0
10
32.883821042453498
20
1.9142243804989749
30
0
10
33.160035615905592
20
1.3353832441691522
30
0
10
33.262973278037485
20
0.72038113818091598
30
0
10
33.365449423922513
20
0.10813636568843188
30
0
10
33.295677265601896
20
-0.53810427268358696
30
0
10
33.057949440504117
20
-1.1237161351793234
30
0
10
32.821264635568461
20
-1.7067586519137496
30
0
10
32.418616496261713
20
-2.227870513671522
30
0
10
31.90347168556724
20
-2.608343975610381
30
0
10
31.390539655252976
20
-2.9871831316331354
30
0
10
30.767473132762742
20
-3.2253066204724097
30
0
10
30.121333943413134
20
-3.2832930872850219
30
0
10
29.477913194028272
20
-3.3410355931502158
30
0
10
28.813467235835567
20
-3.2197892071955869
30
0
10
28.223274182479752
20
-2.9311730747656672
30
0
10
27.635514192185589
20
-2.6437467585269383
30
0
10
27.123162175296638
20
-2.1909763357163761
30
0
10
26.762036064285791
20
-1.6323817864797345
30
0
10
26.402369297240373
20
-1.0760445694040581
30
0
10
26.193879697030155
20
-0.41619940350934204
30
0
10
26.170963448876943
20
0.25668309334891681
30
0
10
26.148138013939583
20
0.92689907066953081
30
0
10
26.309666751215065
20
1.6081997617226038
30
0
10
26.638495629405526
20
2.2049125637366238
30
0
10
26.966046176828609
20
2.7993056293020064
30
0
10
27.458865219207908
20
3.3080592035643774
30
0
10
28.053063578281744
20
3.6574348196985671
30
0
10
28.644995062468823
20
4.0054775630670107
30
0
10
29.336035586457452
20
4.1942680347872106
30
0
10
30.033254780947537
20
4.1928657778192484
30
0
10
30.727862790109924
20
4.1914687725036357
30
0
10
31.426766652111983
20
4.0011294411753591
30
0
10
32.033848030555738
20
3.6425338040658457
30
0
10
32.638696702374993
20
3.2852569997898189
30
0
10
33.150734192092798
20
2.7617416832373247
30
0
10
33.497306398350915
20
2.1387743739786207
30
0
10
33.842626519205744
20
1.5180577018470882
30
0
10
34.022640786949211
20
0.80011748032781083
30
0
10
34.008261758596532
20
0.079635000430826441
30
0
10
33.99393377598706
20
-0.63828975701431712
30
0
10
33.786460601231461
20
-1.3569189090717819
30
0
10
33.408446194855109
20
-1.9794514360215165
30
0
10
33.031750828164192
20
-2.5998117042036744
30
0
10
32.486502752546734
20
-3.1231124887697748
30
0
10
31.841061829940191
20
-3.4767021466726913
30
0
10
31.197835281231569
20
-3.8290787118174476
30
0
10
30.456607857004023
20
-4.0118990612527217
30
0
10
29.713241851422929
20
-3.9963372375247834
30
0
10
28.972384053041452
20
-3.980827921280401
30
0
10
28.231203605133018
20
-3.7681530159290735
30
0
10
27.587503504054308
20
-3.381193120064546
30
0
10
26.945940026186022
20
-2.9955176538492037
30
0
10
26.402827173798407
20
-2.4375031302740204
30
0
10
26.031908031544582
20
-1.7758416732046907
30
0
10
25.662200382329928
20
-1.1163413293220743
30
0
10
25.464570246728385
20
-0.3553542380024749
30
0
10
25.46913435168501
20
0.41059693343028603
30
0
10
25.473683784121597
20
1.1740857526562301
30
0
10
25.679268917102945
20
1.9407245858625868
30
0
10
26.064322265339431
20
2.6113933708080461
30
0
10
26.448156949225162
20
3.2799395404246918
30
0
10
27.009569501582607
20
3.8515086541345478
30
0
10
27.680752900623538
20
4.2502206873477597
30
0
10
28.349844490886483
20
4.6476900954719795
30
0
10
29.126575978071191
20
4.8723490889478231
30
0
10
29.914313061536454
20
4.8912985285635884
30
0
10
30.699632013055687
20
4.9101897987136072
30
0
10
31.494128092729028
20
4.7244469924394288
30
0
10
32.19712718082318
20
4.3527675609555017
30
0
10
32.898000241867116
20
3.9822121715062311
30
0
10
33.506307363284989
20
3.4275409384249436
30
0
10
33.943087167472285
20
2.7544324891690501
30
0
10
34.378565344960457
20
2.0833299383557047
30
0
10
34.642465466925152
20
1.2958912065332642
30
0
10
34.697696415615823
20
0.48822004152063209
30
0
10
34.752765142917809
20
-0.31707887494117476
30
0
10
34.600132807770379
20
-1.1407555686645274
30
0
10
34.254091675420462
20
-1.880487416043495
30
0
10
33.909052488998171
20
-2.6180774044273125
30
0
10
33.372339863744664
20
-3.270570774773951
30
0
10
32.70619729064439
20
-3.7551311603079132
30
0
10
32.041956502638641
20
-4.238308163731471
30
0
10
31.250352178103299
20
-4.5533789563367009
30
0
10
30.426168575347948
20
-4.6577592397490486
30
0
10
29.604305465557829
20
-4.7618456399628499
30
0
10
28.751750630337362
20
-4.6560782769060181
30
0
10
27.972370167229403
20
-4.3488310319228161
30
0
10
27.195154165747862
20
-4.0424370606654367
30
0
10
26.492363333097003
20
-3.5361948717587768
30
0
10
25.951302320700076
20
-2.8875192404597758
30
0
10
25.41172372587156
20
-2.2406208729628316
30
0
10
25.034192824162066
20
-1.4533115494546021
30
0
10
24.867945888289011
20
-0.61807959998471618
30
0
10
24.702148400598201
20
0.21489430196405368
30
0
10
24.746953234723854
20
1.0938692810167634
30
0
10
25.001382247184861
20
1.913790243723398
30
0
10
25.255132415665486
20
2.7315235690826336
30
0
10
25.716999668936936
20
3.4888420170770749
30
0
10
26.335885815898614
20
4.0936302910523521
30
0
10
26.95314204695784
20
4.6968257776786029
30
0
10
27.725452832898426
20
5.147009744049452
30
0
10
28.563816696399961
20
5.3873207748663701
30
0
10
29.400000793596874
20
5.627006991195918
30
0
10
30.300287398160521
20
5.6573236405565188
30
0
10
31.159078578698967
20
5.4704407513996989
30
0
10
32.015665016356138
20
5.284037639782329
30
0
10
32.829279810781891
20
4.8817941707779999
30
0
10
33.5029567980352
20
4.306919955594112
30
0
10
34.1749258029798
20
3.7335032267246557
30
0
10
34.70629734018901
20
2.9893427127194818
30
0
10
35.031849711775784
20
2.1585362805040278
30
0
10
35.356586852873995
20
1.32981030843185
30
0
10
35.475807940192716
20
0.41640659915516304
30
0
10
35.371572500919562
20
-0.47650440681901557
30
0
10
35.267594912061618
20
-1.3672065913478169
30
0
10
34.941346734216097
20
-2.2358255871680202
30
0
10
34.426522112613966
20
-2.9808562003066656
30
0
10
33.912955744241536
20
-3.7240659269999634
30
0
10
33.212598463870307
20
-4.3428392941426939
30
0
10
32.403008568241106
20
-4.7631574269451082
30
0
10
31.595373876503199
20
-5.1824604684608424
30
0
10
30.680474307958907
20
-5.4033912701599069
30
0
10
29.761738594691003
20
-5.3967669877639999
30
0
10
28.845195667493119
20
-5.3901585158280021
30
0
10
27.926513236662185
20
-5.1569811464999837
30
0
10
27.111026240488911
20
-4.7197811091546553
30
0
10
26.297463046674928
20
-4.2836124634406731
30
0
10
25.588135750395281
20
-3.6450768744223843
30
0
10
25.065933798903327
20
-2.8733650418668706
30
0
10
24.544949651282778
20
-2.1034528840437301
30
0
10
24.211244521557987
20
-1.2023070958321214
30
0
10
24.106130509555573
20
-0.26995344651618419
30
0
10
24.001258852175177
20
0.66025053491093733
30
0
10
24.124218413244201
20
1.6198752531860707
30
0
10
24.465179230611145
20
2.5008991670747327
30
0
10
24.805362723899151
20
3.3799145184908048
30
0
10
25.362053419235409
20
4.1790988341839492
30
0
10
26.076398345850109
20
4.8070482797237437
30
0
10
26.789132751219068
20
5.4335819863318084
30
0
10
27.65763490596942
20
5.8884786370260134
30
0
10
28.587272667623498
20
6.1177404193411427
30
0
10
29.514837493711429
20
6.3464909865119195
30
0
10
30.50168391400549
20
6.3501151951150563
30
0
10
31.438702785400903
20
6.1243115877912615
30
0
10
32.373654918456971
20
5.8990060248363321
30
0
10
33.257370128163487
20
5.4455708949558712
30
0
10
33.990777272059788
20
4.8104836464783913
30
0
10
34.722584129042374
20
4.1767821519048152
30
0
10
35.30342660614447
20
3.3632222304303294
30
0
10
35.666486990952023
20
2.4567648881428163
30
0
10
36.02876359154488
20
1.5522644295746768
30
0
10
36.173493294613202
20
0.55675585939211736
30
0
10
36.081087381094619
20
-0.42162048490522047
30
0
10
35.988878860088214
20
-1.397906874597896
30
0
10
35.660602359320492
20
-2.35549192750186
30
0
10
35.128353745289118
20
-3.1890248589975867
30
0
10
34.597230269868966
20
-4.0207957566237491
30
0
10
33.863794366810026
20
-4.7276062574095512
30
0
10
33.004842619177026
20
-5.2301988059792803
30
0
10
32.147687950577378
20
-5.7317398420119607
30
0
10
31.16690276713004
20
-6.029008011595069
30
0
10
30.167169916630026
20
-6.0863496165112103
30
0
10
29.16950737281293
20
-6.1435724749964349
30
0
10
28.154597220300349
20
-5.9616722842647709
30
0
10
27.23211138121199
20
-5.5565120970887563
30
0
10
26.311516610408457
20
-5.1521824761369341
30
0
10
25.484494981414944
20
-4.5260743304319835
30
0
10
24.841765429374995
20
-3.7422126712496704
30
0
10
24.200340293376339
20
-2.9599418549329877
30
0
10
23.743561847773552
20
-2.0217527121137939
30
0
10
23.523423284326004
20
-1.0260072235851372
30
0
10
23.303727071925756
20
-0.032262606929155391
30
0
10
23.320161266101227
20
1.0172457174994294
30
0
10
23.574648724782676
20
2.0110565148300639
30
0
10
23.828629820125123
20
3.0028898891620091
30
0
10
24.319406074225473
20
3.9376582248133829
30
0
10
24.998311861490677
20
4.7148250191118199
30
0
10
25.675879909810188
20
5.4904604576499532
30
0
10
26.539844140264172
20
6.1078397156917994
30
0
10
27.501306873199546
20
6.4989814682785765
30
0
10
28.460893313545501
20
6.8893599085219304
30
0
10
29.516140648410293
20
7.0536924803165872
30
0
10
30.5568700001478
20
6.9711728470536958
30
0
10
31.595587705479073
20
6.8888127176266671
30
0
10
32.618234385432793
20
6.5605915328839632
30
0
10
33.516804425755694
20
6.0174093864313472
30
0
10
34.413653983621181
20
5.4752672650321088
30
0
10
35.185483061509572
20
4.7197404389096036
30
0
10
35.749408923517038
20
3.8269730745808848
30
0
10
36.312265132787573
20
2.9358991084788295
30
0
10
36.667076880817497
20
1.909411316354479
30
0
10
36.773674779046303
20
0.85287133286452987
30
0
10
36.880072355012402
20
-0.20168316607410564
30
0
10
36.73894113911787
20
-1.2845959771629341
30
0
10
36.361377356886997
20
-2.2834463628494008
30
0
10
35.984516594032108
20
-3.2804369007223535
30
0
10
35.372586181737319
20
-4.1921554755559072
30
0
10
34.58571541707817
20
-4.9227238424036859
30
0
10
33.800296472199292
20
-5.6519442704876068
30
0
10
32.841690588448465
20
-6.1995366419777742
30
0
10
31.806569052831279
20
-6.5062625768743354
30
0
10
30.7733401583031
20
-6.8124276867011107
30
0
10
29.665374553864371
20
-6.8780737975844808
30
0
10
28.595796232431802
20
-6.6930237604969607
30
0
10
27.528156080640358
20
-6.5083090502918068
30
0
10
26.500341295463333
20
-6.0739936738582969
30
0
10
25.618455873458558
20
-5.431167561986511
30
0
10
24.738154351123619
20
-4.7894959901955012
30
0
10
24.004586752395817
20
-3.9409273514803242
30
0
10
23.494858392740856
20
-2.9694067634714587
30
0
10
22.986037485886463
20
-1.9996157419301011
30
0
10
22.701066689417182
20
-0.90867123139967709
30
0
10
22.672094004555916
20
0.19386474060309566
30
0
10
22.643172449787542
20
1.2944549914228038
30
0
10
22.86946931693323
20
2.4050210784964925
30
0
10
23.331485644311389
20
3.4128589956708586
30
0
10
23.792693657821911
20
4.4189336648461621
30
0
10
24.488214448532382
20
5.3211741667697243
30
0
10
25.350803620577146
20
6.0268151020153029
30
0
10
26.211896580065606
20
6.731232060816736
30
0
10
27.238313010568397
20
7.2386735018661463
30
0
10
28.328704832556365
20
7.4952842579404857
30
0
10
29.41722135934344
20
7.7514536855770473
30
0
10
30.567984228657693
20
7.7572175598009103
30
0
10
31.66609876488592
20
7.5086551632204381
30
0
10
32.762340623110802
20
7.2605166544195905
30
0
10
33.804568373828893
20
6.7591874495156041
30
0
10
34.687610443327145
20
6.0515632880854664
30
0
10
35.5691591841383
20
5.3451358028913196
30
0
10
36.290791006509949
20
4.4340273332133382
30
0
10
36.778324386278896
20
3.4065625783763314
30
0
10
37.265040117737087
20
2.3808209974921537
30
0
10
37.51770267149687
20
1.2404901982475331
30
0
10
37.50811205069089
20
0.097608407084950277
30
0
10
37.498537382291936
20
-1.0433723897745859
30
0
10
37.227517399470457
20
-2.1853366620891053
30
0
10
36.718571704881256
20
-3.2149792434077717
30
0
10
36.210465657641222
20
-4.2429231431712324
30
0
10
35.465839325157582
20
-5.1574870982538785
30
0
10
34.555314014612392
20
-5.8667631627816679
30
0
10
33.646278722589521
20
-6.574878540768025
30
0
10
32.573065828776897
20
-7.0773631444760605
30
0
10
31.439395592962263
20
-7.3220678024271004
30
0
10
30.307565655742984
20
-7.5663752287810864
30
0
10
29.116974450420805
20
-7.5533383899779496
30
0
10
27.983881859075787
20
-7.2809972329810435
30
0
10
26.852613987378671
20
-7.0090946511402201
30
0
10
25.78018238283914
20
-6.4790116463227063
30
0
10
24.872375021024247
20
-5.7394479883316931
30
0
10
23.966018034876935
20
-5.0010659082605082
30
0
10
23.225004663517446
20
-4.0547909791209138
30
0
10
22.723743182309661
20
-2.9904481636861986
30
0
10
22.223276273780957
20
-1.9277924871081995
30
0
10
21.962525569456474
20
-0.74880780070287678
30
0
10
21.969821478743544
20
0.43317166053375045
30
0
10
21.977105912910776
20
1.613292086051731
30
0
10
22.251657643309439
20
2.7948567518404515
30
0
10
22.770095991302753
20
3.8632247113261466
30
0
10
23.287725226544744
20
4.9299252977433339
30
0
10
24.047873756722151
20
5.8823668090878103
30
0
10
24.979941518955656
20
6.6270261210829142
30
0
10
25.910565774647313
20
7.3705321686568386
30
0
10
27.011421934500405
20
7.905884529751912
30
0
10
28.178384620054697
20
8.1789501107360092
30
0
10
29.343553760053318
20
8.4515960077274279
30
0
10
30.573149452632897
20
8.4623421880089307
30
0
10
31.749712962951282
20
8.2070318691048829
30
0
10
32.924481824584944
20
7.952110982920785
30
0
10
34.044868967380097
20
7.4322004129668908
30
0
10
35.002828839739756
20
6.6940028990620952
30
0
10
35.959338458010919
20
5.9569229413238443
30
0
10
36.752658625981319
20
5.003094157183015
30
0
10
37.30505088777003
20
3.9211319118694692
30
0
10
37.856613106158107
20
2.8407954598256291
30
0
10
38.167215014512706
20
1.6340382092576506
30
0
10
38.204449203031764
20
0.41437881744971894
30
0
10
38.243363902246394
20
-0.86032811895111982
30
0
10
37.983104945892073
20
-2.1473708381027778
30
0
10
37.447079874782105
20
-3.3132578526981344
30
0
10
36.915242499540192
20
-4.4700363749919507
30
0
10
36.112692634005299
20
-5.5058354706148993
30
0
10
35.118270363861754
20
-6.3132922672711302
30
0
10
34.131617017703704
20
-7.1144408077034873
30
0
10
32.95747041017264
20
-7.6896440267538155
30
0
10
31.711869353023403
20
-7.97831695901057
30
0
10
30.475999554133164
20
-8.2647346339840642
30
0
10
29.171489736124943
20
-8.2686682221914261
30
0
10
27.926920839324886
20
-7.98644884099207
30
0
10
26.692075137031068
20
-7.7064342987083307
30
0
10
25.517893742800048
20
-7.1450789920150699
30
0
10
24.519754083184878
20
-6.3539886353807074
30
0
10
23.529412389660461
20
-5.5690786721575574
30
0
10
22.713666504800745
20
-4.5590156478886117
30
0
10
22.15295270281436
20
-3.418408868566464
30
0
10
21.596619477405984
20
-2.2867130797077455
30
0
10
21.292060613146965
20
-1.0279222398284955
30
0
10
21.270932788873218
20
0.2401441171257791
30
0
10
21.249933505915237
20
1.5004955803980615
30
0
10
21.50897967899941
20
2.7684685037319259
30
0
10
22.026912009603169
20
3.9254649497441698
30
0
10
22.544089548024175
20
5.0807752838430966
30
0
10
23.318834917212236
20
6.1240114147160813
30
0
10
24.281660427842414
20
6.9565806841853206
30
0
10
25.243092697345542
20
7.7879451977205534
30
0
10
26.390950209195893
20
8.4082054351909647
30
0
10
27.620435527799486
20
8.7573425891557246
30
0
10
28.848154217024089
20
9.1059780730768018
30
0
10
30.155819384582511
20
9.1837910520582238
30
0
10
31.422942873955549
20
8.9806366316713717
30
0
10
32.688258343248997
20
8.7777720861660118
30
0
10
33.911636786753746
20
8.2949186913747042
30
0
10
34.979418818997225
20
7.5737569306957333
30
0
10
36.045687820841046
20
6.8536170449257128
30
0
10
36.955507856093078
20
5.8966402540085969
30
0
10
37.623254866594067
20
4.7886140533295274
30
0
10
38.2900622057115
20
3.682147096640521
30
0
10
38.714641176567781
20
2.4263205688795155
30
0
10
38.855358444480181
20
1.1351202051677045
30
0
10
38.995879046769367
20
-0.15427558453559387
30
0
10
38.8531045472918
20
-1.4774494554985305
30
0
10
38.437160969642541
20
-2.7133290717367342
30
0
10
38.021794756711529
20
-3.9474931829767552
30
0
10
37.33443994707801
20
-5.093153965935767
30
0
10
36.435163560106659
20
-6.0445389160903868
30
0
10
35.537127000648205
20
-6.9946121969366066
30
0
10
34.428743608609714
20
-7.7498066199316691
30
0
10
33.208994049268014
20
-8.239175864661787
30
0
10
31.990914842946463
20
-8.7278749559250386
30
0
10
30.663148631501066
20
-8.9508587625034348
30
0
10
29.345422500289644
20
-8.8850942006218698
30
0
10
28.029488828315728
20
-8.8194190960969223
30
0
10
26.725072295332872
20
-8.4657945576211677
30
0
10
25.550703387826946
20
-7.8533758891360588
30
0
10
24.377921316112509
20
-7.2417847356305423
30
0
10
23.336194492659914
20
-6.3727385430005707
30
0
10
22.521169061579428
20
-5.3223004420420734
30
0
10
21.70723763338076
20
-4.2732723367300878
30
0
10
21.120365659666724
20
-3.0444859873697316
30
0
10
20.815838698124551
20
-1.7450809258186133
30
0
10
20.511717814375913
20
-0.44740858289979513
30
0
10
20.489589155078143
20
0.91925111212748467
30
0
10
20.754275263556792
20
2.2325107018331019
30
0
10
21.01861072762021
20
3.5440305434895105
30
0
10
21.568764665685343
20
4.8008153465005288
30
0
10
22.358170184411723
20
5.8894307234050691
30
0
10
23.146536730514701
20
6.9766133239390555
30
0
10
24.172697583723018
20
7.8948265113188878
30
0
10
25.347074841078829
20
8.5601334103077935
30
0
10
26.519916437221045
20
9.2245703282122449
30
0
10
27.839319967929168
20
9.6359766397536681
30
0
10
29.188827860129322
20
9.7550983771485509
30
0
10
30.536582426996887
20
9.8740653476383695
30
0
10
31.912886713324653
20
9.7013178594272595
30
0
10
33.195350219082016
20
9.2493988380672505
30
0
10
34.476158158290225
20
8.7980632110972792
30
0
10
35.661947434647942
20
8.0687153066163066
30
0
10
36.646374146698186
20
7.1234931460584887
30
0
10
37.629538116777653
20
6.1794834390832865
30
0
10
38.410746163109636
20
5.021138520452916
30
0
10
38.918770957348109
20
3.7491068310894602
30
0
10
39.426148220555923
20
2.4786964798972546
30
0
10
39.660435807477889
20
1.0962429953283137
30
0
10
39.598287196394743
20
-0.27704493133665026
30
0
10
39.536217301890581
20
-1.6485934703360763
30
0
10
39.178471705430049
20
-3.009519871411884
30
0
10
38.553793415779879
20
-4.2396430288459674
30
0
10
37.929901383572584
20
-5.4682178797289724
30
0
10
37.040366388286841
20
-6.564976389819031
30
0
10
35.960960367843171
20
-7.4321371112223824
30
0
10
34.882904494361441
20
-8.2982131671788615
30
0
10
33.61656662866622
20
-8.9342981879935071
30
0
10
32.27135255744669
20
-9.2823766525744666
30
0
10
30.927810691360705
20
-9.6300224287024871
30
0
10
29.5070001021883
20
-9.6899543510752881
30
0
10
28.132634205425237
20
-9.4542265148810127
30
0
10
26.759966225346833
20
-9.2187899011530803
30
0
10
25.435086837862052
20
-8.6886174976917854
30
0
10
24.274194367298826
20
-7.9072834757667039
30
0
10
23.114727292909471
20
-7.1269088110203498
30
0
10
22.12009358765539
20
-6.0967630385976586
30
0
10
21.37850946353003
20
-4.9043171001544756
30
0
10
20.637830336457842
20
-3.7133263709387476
30
0
10
20.150404439632169
20
-2.3616475695115793
30
0
10
19.960944171941421
20
-0.96532581519778415
30
0
10
19.771713710281272
20
0.42930226917820735
30
0
10
19.879977333968526
20
1.867021409390792
30
0
10
20.279067760593229
20
3.2235194345334923
30
0
10
20.677677032957291
20
4.57838202880437
30
0
10
21.366051494994558
20
5.8508011197220249
30
0
10
22.287261340035304
20
6.9299202016566994
30
0
10
23.207367222378434
20
8.007746085066465
30
0
10
24.358843579159647
20
8.8915893803082096
30
0
10
25.644378955506614
20
9.5033940284342897
30
0
10
26.928382978014341
20
10.114469883394493
30
0
10
28.344832998298124
20
10.453479813381795
30
0
10
29.772928126433573
20
10.488778683201053
30
0
10
31.19933220212787
20
10.524035754516273
30
0
10
32.635899192595694
20
10.256211443258287
30
0
10
33.959283941808408
20
9.7056071707626188
30
0
10
35.281110907689353
20
9.1556510258493518
30
0
10
36.488658754676869
20
8.3240901430632999
30
0
10
37.477394177369831
20
7.2797051448982453
30
0
10
38.464972597223301
20
6.2365422698418218
30
0
10
39.233213602506098
20
4.9820717450899723
30
0
10
39.714471954266713
20
3.6217156979254934
30
0
10
40.195170447525918
20
2.2629421830852197
30
0
10
40.389020511391621
20
0.79987950108286876
30
0
10
40.276957992185707
20
-0.64354540745407451
30
0
10
40.165025076906183
20
-2.0853009484190217
30
0
10
39.747947083097614
20
-3.5060156921457444
30
0
10
39.058563638814583
20
-4.7845516095415581
30
0
10
38.369972857139402
20
-6.0616174486769783
30
0
10
37.410343664549472
20
-7.1955331682138315
30
0
10
36.258832492032809
20
-8.0887356184541268
30
0
10
35.108637687294866
20
-8.9809169905204289
30
0
10
33.768109644633242
20
-9.6320088673796302
30
0
10
32.349213753502589
20
-9.9847450465271788
30
0
10
30.931930559679817
20
-10.337080310646318
30
0
10
29.437845769090568
20
-10.391339942960151
30
0
10
27.992640655716439
20
-10.140371678061628
30
0
10
26.549068731918148
20
-9.889687026022143
30
0
10
25.155694849175173
20
-9.3346604881551247
30
0
10
23.93051146545967
20
-8.5195176608102745
30
0
10
22.706704734431824
20
-7.7052907523221466
30
0
10
21.651937233580249
20
-6.6322870901807027
30
0
10
20.856443805243259
20
-5.3886366855418153
30
0
10
20.061839142691884
20
-4.1463757504944248
30
0
10
19.526746562671086
20
-2.7350332360643939
30
0
10
19.29831019436822
20
-1.2717316263779239
30
0
10
19.070127604404217
20
0.18994434788752512
30
0
10
19.148191113593906
20
1.7020529978725538
30
0
10
19.528535437546545
20
3.1382793996580727
30
0
10
19.908459600426909
20
4.5729192221600368
30
0
10
20.58967800476227
20
5.9304452663155978
30
0
10
21.51774031413154
20
7.0966769619767023
30
0
10
22.444783148812796
20
8.2616275543303193
30
0
10
23.617274631637034
20
9.2345522417060444
30
0
10
24.939411426573173
20
9.9326588626296495
30
0
10
26.260103956519963
20
10.630002891546669
30
0
10
27.728872879377313
20
11.052417452752268
30
0
10
29.224636440845682
20
11.162449484091585
30
0
10
30.718775144974693
20
11.272361986945056
30
0
10
32.238428395978573
20
11.070416673051291
30
0
10
33.657531908163094
20
10.570824259917881
30
0
10
35.075102362121335
20
10.071771556715538
30
0
10
36.390977848565889
20
9.2761425483698794
30
0
10
37.495215965661885
20
8.2474775154618527
30
0
10
38.598267740589364
20
7.2199176325091843
30
0
10
39.489060637001963
20
5.9607584236777402
30
0
10
40.092158173733644
20
4.5722960895084581
30
0
10
40.694611322090417
20
3.1853172782067705
30
0
10
41.009372177860122
20
1.6705982455887765
30
0
10
41.008117933034377
20
0.15216881628806764
30
0
10
41.006865021010221
20
-1.3646470802184818
30
0
10
40.690221562903709
20
-2.8837433439138724
30
0
10
40.081731702359427
20
-4.2799737244805538
30
0
10
39.473884928605486
20
-5.6747284891459113
30
0
10
38.575332133315605
20
-6.9455557539390664
30
0
10
37.457620295633156
20
-7.9869699668285197
30
0
10
36.341083325895738
20
-9.0272895110073321
30
0
10
35.006853538469642
20
-9.837676195028525
30
0
10
33.562668051032574
20
-10.349799372992717
30
0
10
32.119992417517864
20
-10.86138714106967
30
0
10
30.568910768443075
20
-11.074816665854639
30
0
10
29.035568352035085
20
-10.970241953705619
30
0
10
27.503820395281259
20
-10.865775984494629
30
0
10
25.991190217089198
20
-10.444016319660212
30
0
10
24.621433346156394
20
-9.7369178081300198
30
0
10
23.253093214296463
20
-9.0305506483534952
30
0
10
22.028608761507055
20
-8.0400416911759702
30
0
10
21.048966360083032
20
-6.8439293717262109
30
0
10
20.070331807543077
20
-5.6490476038171211
30
0
10
19.336966556454698
20
-4.2500484849387608
30
0
10
18.910474110505859
20
-2.7591882678721662
30
0
10
18.484418110041965
20
-1.2698537031743271
30
0
10
18.365039567492872
20
0.30981046734759721
30
0
10
18.564423345900607
20
1.8522100639658696
30
0
10
18.763604165197648
20
3.3930396028143228
30
0
10
19.28076360619453
20
4.8952770258438942
30
0
10
20.076448036698807
20
6.2368587139966101
30
0
10
20.871326775659568
20
7.5770819477424727
30
0
10
21.943488050234372
20
8.7557406849741604
30
0
10
23.208339849361874
20
9.6762427761031429
30
0
10
24.47191760031366
20
10.595817672432897
30
0
10
25.926687860390324
20
11.256891625763888
30
0
10
27.456670510848479
20
11.604109977801746
30
0
10
28.985120098589146
20
11.950980412488923
30
0
10
30.587271844635282
20
11.984268931641473
30
0
10
32.134598090456507
20
11.698897986921445
30
0
10
33.680381956350743
20
11.413811500904337
30
0
10
35.170061773156995
20
10.810910651093389
30
0
10
36.483418588729918
20
9.936261686719627
30
0
10
37.795473026423025
20
9.0624800597292037
30
0
10
38.930362751750458
20
7.9182284581281541
30
0
10
39.79566390731533
20
6.5932956534568534
30
0
10
40.660111422355321
20
5.2696699270525036
30
0
10
41.254699213292817
20
3.766866956844328
30
0
10
41.529768150094249
20
2.2039144861366551
30
0
10
41.804567119503993
20
0.64249598072057745
30
0
10
41.760188008719723
20
-0.97758452727317668
30
0
10
41.397787153412466
20
-2.5272469096820798
30
0
10
41.035740156468044
20
-4.0753961582626435
30
0
10
40.356567219575211
20
-5.5518945082903013
30
0
10
39.412096286839478
20
-6.8383941282162741
30
0
10
38.425356729307168
20
-8.1824694424815956
30
0
10
37.149612892083965
20
-9.3175651100424055
30
0
10
35.693509643656036
20
-10.143402957205296
30
0
10
34.260158008484822
20
-10.956337088006251
30
0
10
32.653526774196855
20
-11.46886191460254
30
0
10
31.007711474650115
20
-11.635496477808955
30
0
10
29.387612039158775
20
-11.799527375965273
30
0
10
27.731084266468216
20
-11.628323134033149
30
0
10
26.173241373575131
20
-11.133375584834118
30
0
10
24.636521827268833
20
-10.645139205722717
30
0
10
23.197181036564622
20
-9.8423768703909271
30
0
10
21.970467230909541
20
-8.7866609774826738
30
0
10
20.745028899943385
20
-7.732042764321637
30
0
10
19.732870091969573
20
-6.425881976010821
30
0
10
19.015924026768808
20
-4.9700661041066487
30
0
10
18.299718814689491
20
-3.5157545932490195
30
0
10
17.878775603392281
20
-1.9133386567594091
30
0
10
17.788598800943078
20
-0.28873265947143373
30
0
10
17.698514609281691
20
1.3342048816591152
30
0
10
17.938638008323291
20
2.9778884995419861
30
0
10
18.492365517151491
20
4.5124710893545883
30
0
10
19.045527844481395
20
6.0454873533597571
30
0
10
19.911218743903227
20
7.4682930407344648
30
0
10
21.023358653506456
20
8.6677931744202574
30
0
10
22.134370378375497
20
9.8660765028032333
30
0
10
23.490411090690657
20
10.840452583527906
30
0
10
24.986418003744799
20
11.512563835267148
30
0
10
26.480916618955554
20
12.183997453806523
30
0
10
28.113842205738099
20
12.553164670567879
30
0
10
29.757808521445334
20
12.588887856894377
30
0
10
31.400127498848494
20
12.624575246761655
30
0
10
33.052071232263984
20
12.327414496161508
30
0
10
34.584096049201584
20
11.718358390522946
30
0
10
36.114595073180105
20
11.109908863516395
30
0
10
37.524103946677442
20
10.190661005787511
30
0
10
38.701394380578272
20
9.0304017594800641
30
0
10
39.877519463370852
20
7.8712910058126653
30
0
10
40.820865643330229
20
6.4725929176743016
30
0
10
41.456069827903221
20
4.9419355886301766
30
0
10
42.090649079781009
20
3.4127841656132758
30
0
10
42.417121780299027
20
1.7532005708221947
30
0
10
42.407865138517508
20
0.09172243563836649
30
0
10
42.398617548293494
20
-1.5681310320637838
30
0
10
42.054263639151792
20
-3.2284875348207116
30
0
10
41.399276197643466
20
-4.7600889960401176
30
0
10
40.744925340450948
20
-6.2902018890725726
30
0
10
39.781051860166471
20
-7.6905197045012335
30
0
10
38.580403445246169
20
-8.8513334808909487
30
0
10
37.380914861981857
20
-10.011025906060908
30
0
10
35.946075338328747
20
-10.930685630472126
30
0
10
34.38553753430606
20
-11.537330597112023
30
0
10
32.826498077572253
20
-12.143393094785942
30
0
10
31.143275235286875
20
-12.436503148115811
30
0
10
29.465309682065776
20
-12.391819406850873
30
0
10
27.788945467404538
20
-12.347178308772351
30
0
10
26.119209532554756
20
-11.965384366181496
30
0
10
24.585154905181994
20
-11.273627332957135
30
0
10
23.052555420614031
20
-10.582526472760515
30
0
10
21.656653258327541
20
-9.5825805048150787
30
0
10
20.50602927721841
20
-8.3487977070593296
30
0
10
19.35649013570303
20
-7.11617815329212
30
0
10
18.452735200458516
20
-5.6511423133841285
30
0
10
17.865998807138016
20
-4.0648831967807908
30
0
10
17.279812264785868
20
-2.4801106184615094
30
0
10
17.010564721769285
20
-0.77561796211641587
30
0
10
17.08108489993834
20
0.91844358776999635
30
0
10
17.151539389859479
20
2.6109271505049145
30
0
10
17.561111299292172
20
4.2916249624929153
30
0
10
18.280671768373061
20
5.8315627958186296
30
0
10
18.999566019648711
20
7.3700748504257962
30
0
10
20.027329959960873
20
8.7668278299351083
30
0
10
21.287356134020957
20
9.9139486774612422
30
0
10
22.546222715513821
20
11.060013838339049
30
0
10
24.035937326702083
20
11.955954633244163
30
0
10
25.644207084062089
20
12.531641463534349
30
0
10
27.251005668143925
20
13.10680168124761
30
0
10
28.974867123755764
20
13.361795544952566
30
0
10
30.685081962327651
20
13.275046828391666
30
0
10
32.393741778165655
20
13.188376988603055
30
0
10
34.087412461914774
20
12.760616176530553
30
0
10
35.637042144070918
20
12.022077251687156
30
0
10
37.185271281099858
20
11.284205813472564
30
0
10
38.588470318216956
20
10.236670305635283
30
0
10
39.739037609925589
20
8.9570464376742027
30
0
10
40.888571269064393
20
7.6785721425513112
30
0
10
41.784986251417038
20
6.1694147844673681
30
0
10
42.358613487838568
20
4.5425578874261756
30
0
10
42.931728487566247
20
2.9171537383463662
30
0
10
43.182142702673268
20
1.1755322919910733
30
0
10
43.088783678518119
20
-0.55116507652445823
30
0
10
42.995507522136407
20
-2.2763297858501179
30
0
10
42.559103427058247
20
-3.9852359080418394
30
0
10
41.810332712164552
20
-5.5485814510444795
30
0
10
41.062222642422526
20
-7.1105476443572542
30
0
10
40.002849781974362
20
-8.5259675109013227
30
0
10
38.710149309489488
20
-9.6870698552865981
30
0
10
37.418582564923412
20
-10.847153886325174
30
0
10
35.895082191944283
20
-11.752430661811877
30
0
10
34.252932390400545
20
-12.333053379358192
30
0
10
32.612214172218401
20
-12.913169925164864
30
0
10
30.854319590023543
20
-13.168710414764373
30
0
10
29.110707717995648
20
-13.078370718700405
30
0
10
27.368606788457132
20
-12.98810930730945
30
0
10
25.642118978308428
20
-12.552599430409758
30
0
10
24.060971964286281
20
-11.802331390485728
30
0
10
22.414880375474354
20
-11.021246583746777
30
0
10
20.927906942139067
20
-9.8992885843240117
30
0
10
19.721897013250739
20
-8.5253378974658851
30
0
10
18.553574894640196
20
-7.1943231695720993
30
0
10
17.649739750960144
20
-5.6281029586090101
30
0
10
17.081085328665051
20
-3.9447363509449973
30
0
10
16.51739221017225
20
-2.2760565070232799
30
0
10
16.283471538396238
20
-0.49358687104173149
30
0
10
16.398965222417473
20
1.2696347136817585
30
0
10
16.514342574100105
20
3.031080273229807
30
0
10
16.978377565514752
20
4.771952530373051
30
0
10
17.758516184062479
20
6.3617439465545029
30
0
10
18.537877547540056
20
7.9499514475068809
30
0
10
19.632145211938699
20
9.3861403155138738
30
0
10
20.961505313738684
20
10.56200755003195
30
0
10
22.289555452901887
20
11.736716075076989
30
0
10
23.851240191390321
20
12.650688001784401
30
0
10
25.531518514039952
20
13.23411022014575
30
0
10
27.210159280656157
20
13.816963850219768
30
0
10
29.005891957120003
20
14.069432729240001
30
0
10
30.785740764493731
20
13.970661138630831
30
0
10
32.563874152988966
20
13.871984744113874
30
0
10
34.324799179854118
20
13.422784124201836
30
0
10
35.937544636885924
20
12.654267842927668
30
0
10
37.548753009497361
20
11.886484023430153
30
0
10
39.01082743536233
20
10.800542902165617
30
0
10
40.214395473284668
20
9.4750301851578005
30
0
10
41.416829233825688
20
8.1507666697290979
30
0
10
42.360309312286354
20
6.5883592133579452
30
0
10
42.973388647316497
20
4.9020210921089475
30
0
10
43.585896696915391
20
3.2172543505261499
30
0
10
43.86812544429538
20
1.4100433653742768
30
0
10
43.797193637206135
20
-0.38680443682560622
30
0
10
43.726327178618561
20
-2.1819968277731747
30
0
10
43.302968548417859
20
-3.9654980031624611
30
0
10
42.556197027081694
20
-5.6056703277793316
30
0
10
41.810105663961764
20
-7.2443487862661264
30
0
10
40.741715588117749
20
-8.738720895758112
30
0
10
39.427739788933991
20
-9.9778695967637994
30
0
10
38.114947046962364
20
-11.215902612222971
30
0
10
36.55796360017721
20
-12.198224791250071
30
0
10
34.869757886528227
20
-12.851081730064706
30
0
10
33.183054649173627
20
-13.503357636564226
30
0
10
31.366600814427894
20
-13.826238236397209
30
0
10
29.552899204972015
20
-13.794045069135347
30
0
10
27.740793029262409
20
-13.761880220790545
30
0
10
25.932773906520438
20
-13.375254993455293
30
0
10
24.261302873323224
20
-12.660360125035345
30
0
10
22.591284983003632
20
-11.946086771655537
30
0
10
21.058821268753324
20
-10.904608377409017
30
0
10
19.776794744413213
20
-9.6101240288172303
30
0
10
18.447515292661034
20
-8.267927582387566
30
0
10
17.388816952523516
20
-6.6545329181511832
30
0
10
16.68547081665249
20
-4.8949039729868016
30
0
10
16.00676010458967
20
-3.1969078464283429
30
0
10
15.659224473520119
20
-1.3641705789064331
30
0
10
15.670274051919243
20
0.46995325657921094
30
0
10
15.68131096738559
20
2.301975166905927
30
0
10
16.050135748690256
20
4.1340338682727378
30
0
10
16.751931399806509
20
5.8323252682563114
30
0
10
17.452945719732302
20
7.5287259069631665
30
0
10
18.485706819432774
20
9.0904034775062108
30
0
10
19.776910033070301
20
10.40275571238293
30
0
10
21.066717651999962
20
11.713689493669616
30
0
10
22.61349248441622
20
12.774859013982683
30
0
10
24.306263435497922
20
13.507628033485574
30
0
10
25.997259427186467
20
14.239628706123018
30
0
10
27.832731795942852
20
14.643356532427228
30
0
10
29.680326239131734
20
14.687591272241837
30
0
10
31.526042719675932
20
14.731781050247173
30
0
10
33.382524088320949
20
14.417143819724055
30
0
10
35.115377956338833
20
13.764374785025696
30
0
10
36.846525842888241
20
13.112248396482876
30
0
10
38.453032464998117
20
12.123094442575916
30
0
10
39.818048585860438
20
10.866455762361056
30
0
10
41.181764239159698
20
9.6110142971952577
30
0
10
42.303449783152331
20
8.0894733977055822
30
0
10
43.100776682578626
20
6.4100707672433099
30
0
10
43.899096434051714
20
4.7285769012536267
30
0
10
44.371629846839078
20
2.8900127438636112
30
0
10
44.482319698345556
20
1.0264437964326691
30
0
10
44.592847712815228
20
-0.83440047053090294
30
0
10
44.342482108645378
20
-2.7188444159140666
30
0
10
43.747203015596831
20
-4.4911243838961674
30
0
10
43.152723096401999
20
-6.2610250312731575
30
0
10
42.214651431846093
20
-7.9177919265212982
30
0
10
40.998492353782268
20
-9.3416124071216124
30
0
10
39.783821726372409
20
-10.763690281377325
30
0
10
38.292582732422993
20
-11.952363810449587
30
0
10
36.630199011530294
20
-12.821010989303909
30
0
10
34.966408934936894
20
-13.690393032736443
30
0
10
33.132342358512368
20
-14.238548534911773
30
0
10
31.258847055091621
20
-14.42425270518441
30
0
10
29.389062567835953
20
-14.609589052791192
30
0
10
27.481324707780139
20
-14.433754458957807
30
0
10
25.671997168443959
20
-13.907291673535662
30
0
10
23.8625909069603
20
-13.380805982210559
30
0
10
22.152889664407102
20
-12.503993951995014
30
0
10
20.665866660497905
20
-11.337654478998081
30
0
10
19.705151513469492
20
-10.58412208888738
30
0
10
18.837040200807344
20
-9.7107869056962315
30
0
10
18.088118582110404
20
-8.7436116330915468
30
0
0
ENDSEC
0
SECTION
2
OBJECTS
0
DICTIONARY
5
C
100
AcDbDictionary
3
ACAD_GROUP
350
D
3
ACAD_MLINESTYLE
350
17
0
DICTIONARY
5
D
100
AcDbDictionary
0
DICTIONARY
5
1A
330
C
100
AcDbDictionary
0
DICTIONARY
5
17
100
AcDbDictionary
0
ENDSEC
0
EOF
