ISO-10303-21;
HEADER;
/* Generated by software containing ST-Developer
 * from STEP Tools, Inc. (www.steptools.com) 
 */

FILE_DESCRIPTION(
/* description */ (''),
/* implementation_level */ '2;1');

FILE_NAME(
/* name */ 'disc.step',
/* time_stamp */ '2026-08-19T10:14:38-05:00',
/* author */ (''),
/* organization */ (''),
/* preprocessor_version */ 'ST-DEVELOPER v20.1',
/* originating_system */ 'Autodesk Translation Framework v15.8.0.0',
/* authorisation */ '');

FILE_SCHEMA (('AUTOMOTIVE_DESIGN { 1 0 10303 214 3 1 1 }'));
ENDSEC;

DATA;
#10=MECHANICAL_DESIGN_GEOMETRIC_PRESENTATION_REPRESENTATION('',(#17),#178);
#11=ITEM_DEFINED_TRANSFORMATION($,$,#106,#118);
#12=(
REPRESENTATION_RELATIONSHIP($,$,#189,#188)
REPRESENTATION_RELATIONSHIP_WITH_TRANSFORMATION(#11)
SHAPE_REPRESENTATION_RELATIONSHIP()
);
#13=CONTEXT_DEPENDENT_SHAPE_REPRESENTATION(#12,#187);
#14=NEXT_ASSEMBLY_USAGE_OCCURRENCE('disco1:1','disco1:1','disco1:1',#191,
#192,'disco1:1');
#15=SHAPE_REPRESENTATION_RELATIONSHIP('SRR','None',#189,#16);
#16=ADVANCED_BREP_SHAPE_REPRESENTATION('',(#18),#177);
#17=STYLED_ITEM('',(#202),#18);
#18=MANIFOLD_SOLID_BREP('disco1',#92);
#19=FACE_BOUND('',#34,.T.);
#20=FACE_BOUND('',#35,.T.);
#21=FACE_BOUND('',#37,.T.);
#22=FACE_BOUND('',#38,.T.);
#23=PLANE('',#116);
#24=PLANE('',#117);
#25=FACE_OUTER_BOUND('',#30,.T.);
#26=FACE_OUTER_BOUND('',#31,.T.);
#27=FACE_OUTER_BOUND('',#32,.T.);
#28=FACE_OUTER_BOUND('',#33,.T.);
#29=FACE_OUTER_BOUND('',#36,.T.);
#30=EDGE_LOOP('',(#66,#67,#68,#69));
#31=EDGE_LOOP('',(#70,#71,#72,#73));
#32=EDGE_LOOP('',(#74,#75,#76,#77));
#33=EDGE_LOOP('',(#78));
#34=EDGE_LOOP('',(#79));
#35=EDGE_LOOP('',(#80));
#36=EDGE_LOOP('',(#81));
#37=EDGE_LOOP('',(#82));
#38=EDGE_LOOP('',(#83));
#39=LINE('',#156,#42);
#40=LINE('',#162,#43);
#41=LINE('',#168,#44);
#42=VECTOR('',#127,1.475);
#43=VECTOR('',#134,2.25);
#44=VECTOR('',#141,12.625);
#45=CIRCLE('',#108,1.475);
#46=CIRCLE('',#109,1.475);
#47=CIRCLE('',#111,2.45);
#48=CIRCLE('',#112,2.45);
#49=CIRCLE('',#114,12.625);
#50=CIRCLE('',#115,12.625);
#51=VERTEX_POINT('',#153);
#52=VERTEX_POINT('',#155);
#53=VERTEX_POINT('',#159);
#54=VERTEX_POINT('',#161);
#55=VERTEX_POINT('',#165);
#56=VERTEX_POINT('',#167);
#57=EDGE_CURVE('',#51,#51,#45,.T.);
#58=EDGE_CURVE('',#51,#52,#39,.T.);
#59=EDGE_CURVE('',#52,#52,#46,.T.);
#60=EDGE_CURVE('',#53,#53,#47,.F.);
#61=EDGE_CURVE('',#53,#54,#40,.T.);
#62=EDGE_CURVE('',#54,#54,#48,.F.);
#63=EDGE_CURVE('',#55,#55,#49,.T.);
#64=EDGE_CURVE('',#55,#56,#41,.T.);
#65=EDGE_CURVE('',#56,#56,#50,.T.);
#66=ORIENTED_EDGE('',*,*,#57,.F.);
#67=ORIENTED_EDGE('',*,*,#58,.T.);
#68=ORIENTED_EDGE('',*,*,#59,.F.);
#69=ORIENTED_EDGE('',*,*,#58,.F.);
#70=ORIENTED_EDGE('',*,*,#60,.F.);
#71=ORIENTED_EDGE('',*,*,#61,.T.);
#72=ORIENTED_EDGE('',*,*,#62,.T.);
#73=ORIENTED_EDGE('',*,*,#61,.F.);
#74=ORIENTED_EDGE('',*,*,#63,.F.);
#75=ORIENTED_EDGE('',*,*,#64,.T.);
#76=ORIENTED_EDGE('',*,*,#65,.T.);
#77=ORIENTED_EDGE('',*,*,#64,.F.);
#78=ORIENTED_EDGE('',*,*,#63,.T.);
#79=ORIENTED_EDGE('',*,*,#57,.T.);
#80=ORIENTED_EDGE('',*,*,#60,.T.);
#81=ORIENTED_EDGE('',*,*,#65,.F.);
#82=ORIENTED_EDGE('',*,*,#59,.T.);
#83=ORIENTED_EDGE('',*,*,#62,.F.);
#84=CYLINDRICAL_SURFACE('',#107,1.475);
#85=CYLINDRICAL_SURFACE('',#110,2.45);
#86=CYLINDRICAL_SURFACE('',#113,12.625);
#87=ADVANCED_FACE('',(#25),#84,.F.);
#88=ADVANCED_FACE('',(#26),#85,.F.);
#89=ADVANCED_FACE('',(#27),#86,.T.);
#90=ADVANCED_FACE('',(#28,#19,#20),#23,.T.);
#91=ADVANCED_FACE('',(#29,#21,#22),#24,.F.);
#92=CLOSED_SHELL('',(#87,#88,#89,#90,#91));
#93=DERIVED_UNIT_ELEMENT(#95,1.);
#94=DERIVED_UNIT_ELEMENT(#180,-3.);
#95=(
MASS_UNIT()
NAMED_UNIT(*)
SI_UNIT(.KILO.,.GRAM.)
);
#96=DERIVED_UNIT((#93,#94));
#97=MEASURE_REPRESENTATION_ITEM('density measure',
POSITIVE_RATIO_MEASURE(7850.),#96);
#98=PROPERTY_DEFINITION_REPRESENTATION(#103,#100);
#99=PROPERTY_DEFINITION_REPRESENTATION(#104,#101);
#100=REPRESENTATION('material name',(#102),#177);
#101=REPRESENTATION('density',(#97),#177);
#102=DESCRIPTIVE_REPRESENTATION_ITEM('Steel','Steel');
#103=PROPERTY_DEFINITION('material property','material name',#192);
#104=PROPERTY_DEFINITION('material property','density of part',#192);
#105=AXIS2_PLACEMENT_3D('',#150,#119,#120);
#106=AXIS2_PLACEMENT_3D('',#151,#121,#122);
#107=AXIS2_PLACEMENT_3D('',#152,#123,#124);
#108=AXIS2_PLACEMENT_3D('',#154,#125,#126);
#109=AXIS2_PLACEMENT_3D('',#157,#128,#129);
#110=AXIS2_PLACEMENT_3D('',#158,#130,#131);
#111=AXIS2_PLACEMENT_3D('',#160,#132,#133);
#112=AXIS2_PLACEMENT_3D('',#163,#135,#136);
#113=AXIS2_PLACEMENT_3D('',#164,#137,#138);
#114=AXIS2_PLACEMENT_3D('',#166,#139,#140);
#115=AXIS2_PLACEMENT_3D('',#169,#142,#143);
#116=AXIS2_PLACEMENT_3D('',#170,#144,#145);
#117=AXIS2_PLACEMENT_3D('',#171,#146,#147);
#118=AXIS2_PLACEMENT_3D('',#172,#148,#149);
#119=DIRECTION('axis',(0.,0.,1.));
#120=DIRECTION('refdir',(1.,0.,0.));
#121=DIRECTION('axis',(0.,0.,1.));
#122=DIRECTION('refdir',(1.,0.,0.));
#123=DIRECTION('center_axis',(0.,0.,-1.));
#124=DIRECTION('ref_axis',(-1.,0.,0.));
#125=DIRECTION('center_axis',(0.,0.,-1.));
#126=DIRECTION('ref_axis',(-1.,0.,0.));
#127=DIRECTION('',(0.,0.,-1.));
#128=DIRECTION('center_axis',(0.,0.,1.));
#129=DIRECTION('ref_axis',(-1.,0.,0.));
#130=DIRECTION('center_axis',(0.,0.,1.));
#131=DIRECTION('ref_axis',(-0.996194698091745,0.0871557427476582,0.));
#132=DIRECTION('center_axis',(0.,0.,1.));
#133=DIRECTION('ref_axis',(-0.996194698091745,0.0871557427476582,0.));
#134=DIRECTION('',(0.,0.,-1.));
#135=DIRECTION('center_axis',(0.,0.,1.));
#136=DIRECTION('ref_axis',(-0.996194698091745,0.0871557427476582,0.));
#137=DIRECTION('center_axis',(0.,0.,1.));
#138=DIRECTION('ref_axis',(-0.996194698091746,0.0871557427476582,0.));
#139=DIRECTION('center_axis',(0.,0.,1.));
#140=DIRECTION('ref_axis',(-0.996194698091746,0.0871557427476582,0.));
#141=DIRECTION('',(0.,0.,-1.));
#142=DIRECTION('center_axis',(0.,0.,1.));
#143=DIRECTION('ref_axis',(-0.996194698091746,0.0871557427476582,0.));
#144=DIRECTION('center_axis',(0.,0.,1.));
#145=DIRECTION('ref_axis',(-0.996194698091746,0.0871557427476582,0.));
#146=DIRECTION('center_axis',(0.,0.,1.));
#147=DIRECTION('ref_axis',(-0.996194698091746,0.0871557427476582,0.));
#148=DIRECTION('',(0.,0.,1.));
#149=DIRECTION('',(1.,0.,0.));
#150=CARTESIAN_POINT('',(0.,0.,0.));
#151=CARTESIAN_POINT('',(0.,0.,0.));
#152=CARTESIAN_POINT('Origin',(-9.,0.0199125528606858,29.6));
#153=CARTESIAN_POINT('',(-7.525,0.019912552860686,29.6));
#154=CARTESIAN_POINT('Origin',(-9.,0.0199125528606858,29.6));
#155=CARTESIAN_POINT('',(-7.525,0.019912552860686,26.4));
#156=CARTESIAN_POINT('',(-7.525,0.0199125528606856,29.6));
#157=CARTESIAN_POINT('Origin',(-9.,0.0199125528606858,26.4));
#158=CARTESIAN_POINT('Origin',(0.,0.,26.4));
#159=CARTESIAN_POINT('',(2.44067701032478,-0.213531569731762,29.6));
#160=CARTESIAN_POINT('Origin',(0.,0.,29.6));
#161=CARTESIAN_POINT('',(2.44067701032478,-0.213531569731762,26.4));
#162=CARTESIAN_POINT('',(2.44067701032478,-0.213531569731762,26.4));
#163=CARTESIAN_POINT('Origin',(0.,0.,26.4));
#164=CARTESIAN_POINT('Origin',(0.,0.,26.4));
#165=CARTESIAN_POINT('',(12.5769580634083,-1.10034125218918,29.6));
#166=CARTESIAN_POINT('Origin',(0.,0.,29.6));
#167=CARTESIAN_POINT('',(12.5769580634083,-1.10034125218918,26.4));
#168=CARTESIAN_POINT('',(12.5769580634083,-1.10034125218918,26.4));
#169=CARTESIAN_POINT('Origin',(0.,0.,26.4));
#170=CARTESIAN_POINT('Origin',(0.,0.,29.6));
#171=CARTESIAN_POINT('Origin',(0.,0.,26.4));
#172=CARTESIAN_POINT('',(0.,0.,0.));
#173=UNCERTAINTY_MEASURE_WITH_UNIT(LENGTH_MEASURE(0.01),#179,
'DISTANCE_ACCURACY_VALUE',
'Maximum model space distance between geometric entities at asserted c
onnectivities');
#174=UNCERTAINTY_MEASURE_WITH_UNIT(LENGTH_MEASURE(0.01),#179,
'DISTANCE_ACCURACY_VALUE',
'Maximum model space distance between geometric entities at asserted c
onnectivities');
#175=UNCERTAINTY_MEASURE_WITH_UNIT(LENGTH_MEASURE(0.01),#179,
'DISTANCE_ACCURACY_VALUE',
'Maximum model space distance between geometric entities at asserted c
onnectivities');
#176=(
GEOMETRIC_REPRESENTATION_CONTEXT(3)
GLOBAL_UNCERTAINTY_ASSIGNED_CONTEXT((#173))
GLOBAL_UNIT_ASSIGNED_CONTEXT((#179,#181,#182))
REPRESENTATION_CONTEXT('','3D')
);
#177=(
GEOMETRIC_REPRESENTATION_CONTEXT(3)
GLOBAL_UNCERTAINTY_ASSIGNED_CONTEXT((#174))
GLOBAL_UNIT_ASSIGNED_CONTEXT((#179,#181,#182))
REPRESENTATION_CONTEXT('','3D')
);
#178=(
GEOMETRIC_REPRESENTATION_CONTEXT(3)
GLOBAL_UNCERTAINTY_ASSIGNED_CONTEXT((#175))
GLOBAL_UNIT_ASSIGNED_CONTEXT((#179,#181,#182))
REPRESENTATION_CONTEXT('','3D')
);
#179=(
LENGTH_UNIT()
NAMED_UNIT(*)
SI_UNIT(.MILLI.,.METRE.)
);
#180=(
LENGTH_UNIT()
NAMED_UNIT(*)
SI_UNIT($,.METRE.)
);
#181=(
NAMED_UNIT(*)
PLANE_ANGLE_UNIT()
SI_UNIT($,.RADIAN.)
);
#182=(
NAMED_UNIT(*)
SI_UNIT($,.STERADIAN.)
SOLID_ANGLE_UNIT()
);
#183=SHAPE_DEFINITION_REPRESENTATION(#185,#188);
#184=SHAPE_DEFINITION_REPRESENTATION(#186,#189);
#185=PRODUCT_DEFINITION_SHAPE('',$,#191);
#186=PRODUCT_DEFINITION_SHAPE('',$,#192);
#187=PRODUCT_DEFINITION_SHAPE($,$,#14);
#188=SHAPE_REPRESENTATION('',(#105,#118),#176);
#189=SHAPE_REPRESENTATION('',(#106),#177);
#190=PRODUCT_DEFINITION_CONTEXT('part definition',#198,'design');
#191=PRODUCT_DEFINITION('pez_semana_15_colagrande',
'pez_semana_15_colagrande v10',#193,#190);
#192=PRODUCT_DEFINITION('disco1','disco1',#194,#190);
#193=PRODUCT_DEFINITION_FORMATION('',$,#200);
#194=PRODUCT_DEFINITION_FORMATION('',$,#201);
#195=PRODUCT_RELATED_PRODUCT_CATEGORY('pez_semana_15_colagrande v10',
'pez_semana_15_colagrande v10',(#200));
#196=PRODUCT_RELATED_PRODUCT_CATEGORY('disco1','disco1',(#201));
#197=APPLICATION_PROTOCOL_DEFINITION('international standard',
'automotive_design',2009,#198);
#198=APPLICATION_CONTEXT(
'Core Data for Automotive Mechanical Design Process');
#199=PRODUCT_CONTEXT('part definition',#198,'mechanical');
#200=PRODUCT('pez_semana_15_colagrande','pez_semana_15_colagrande v10',
$,(#199));
#201=PRODUCT('disco1','disco1',$,(#199));
#202=PRESENTATION_STYLE_ASSIGNMENT((#204));
#203=PRESENTATION_STYLE_ASSIGNMENT((#205));
#204=SURFACE_STYLE_USAGE(.BOTH.,#206);
#205=SURFACE_STYLE_USAGE(.BOTH.,#207);
#206=SURFACE_SIDE_STYLE('',(#208));
#207=SURFACE_SIDE_STYLE('',(#209));
#208=SURFACE_STYLE_FILL_AREA(#210);
#209=SURFACE_STYLE_FILL_AREA(#211);
#210=FILL_AREA_STYLE('Steel - Satin',(#212));
#211=FILL_AREA_STYLE('Glass - Frosted Light',(#213));
#212=FILL_AREA_STYLE_COLOUR('Steel - Satin',#214);
#213=FILL_AREA_STYLE_COLOUR('Glass - Frosted Light',#215);
#214=COLOUR_RGB('Steel - Satin',0.627450980392157,0.627450980392157,0.627450980392157);
#215=COLOUR_RGB('Glass - Frosted Light',0.964705882352941,0.964705882352941,
0.952941176470588);
ENDSEC;
END-ISO-10303-21;
