ISO-10303-21;
HEADER;
/* Generated by software containing ST-Developer
 * from STEP Tools, Inc. (www.steptools.com) 
 */

FILE_DESCRIPTION(
/* description */ (''),
/* implementation_level */ '2;1');

FILE_NAME(
/* name */ 'reel.step',
/* time_stamp */ '2026-08-19T10:14:59-05:00',
/* author */ (''),
/* organization */ (''),
/* preprocessor_version */ 'ST-DEVELOPER v20.1',
/* originating_system */ 'Autodesk Translation Framework v15.8.0.0',
/* authorisation */ '');

FILE_SCHEMA (('AUTOMOTIVE_DESIGN { 1 0 10303 214 3 1 1 }'));
ENDSEC;

DATA;
#10=MECHANICAL_DESIGN_GEOMETRIC_PRESENTATION_REPRESENTATION('',(#13),#663);
#11=SHAPE_REPRESENTATION_RELATIONSHIP('SRR','None',#670,#12);
#12=ADVANCED_BREP_SHAPE_REPRESENTATION('',(#14),#662);
#13=STYLED_ITEM('',(#679),#14);
#14=MANIFOLD_SOLID_BREP('reel',#281);
#15=PLANE('',#331);
#16=PLANE('',#332);
#17=FACE_BOUND('',#63,.T.);
#18=FACE_BOUND('',#64,.T.);
#19=FACE_BOUND('',#69,.T.);
#20=FACE_BOUND('',#70,.T.);
#21=FACE_BOUND('',#72,.T.);
#22=FACE_BOUND('',#73,.T.);
#23=FACE_BOUND('',#74,.T.);
#24=FACE_BOUND('',#75,.T.);
#25=TOROIDAL_SURFACE('',#303,3.23532945556616,0.899999999999999);
#26=TOROIDAL_SURFACE('',#313,3.23532945556616,0.899999999999999);
#27=TOROIDAL_SURFACE('',#318,13.5,1.1);
#28=B_SPLINE_CURVE_WITH_KNOTS('',3,(#433,#434,#435,#436,#437,#438,#439,
#440,#441,#442,#443,#444,#445,#446),.UNSPECIFIED.,.F.,.F.,(4,2,2,2,2,2,
4),(-0.295512678069616,-0.294548460986137,-0.255548143443967,-0.216092278280062,
-0.181543768772898,-0.159001236454677,-0.147269465707964),.UNSPECIFIED.);
#29=B_SPLINE_CURVE_WITH_KNOTS('',3,(#450,#451,#452,#453,#454,#455,#456,
#457,#458,#459,#460,#461,#462,#463,#464,#465),.UNSPECIFIED.,.F.,.F.,(4,
2,2,2,2,2,2,4),(-0.147269465707964,-0.143281103685776,-0.125593725583537,
-0.0909176891049825,-0.0575758746344657,-0.0292641513454202,0.,0.000964835880779422),
 .UNSPECIFIED.);
#30=B_SPLINE_CURVE_WITH_KNOTS('',3,(#475,#476,#477,#478,#479,#480,#481,
#482,#483,#484,#485,#486,#487,#488,#489,#490,#491,#492,#493,#494,#495,#496,
#497,#498,#499,#500,#501,#502,#503,#504,#505,#506,#507,#508,#509,#510,#511,
#512,#513,#514),.UNSPECIFIED.,.F.,.F.,(4,2,2,2,2,2,2,2,2,2,2,2,2,2,2,2,
2,2,2,4),(-0.564170618262469,-0.548044582305044,-0.531117535789038,-0.493643979529934,
-0.466357603261476,-0.442738457952816,-0.430423017366461,-0.420216417957795,
-0.407976148651345,-0.38572278324703,-0.353564753499495,-0.321776647846196,
-0.301122788364477,-0.281758240949778,-0.255874726974012,-0.216196439177866,
-0.179626315401557,-0.15980043167052,-0.147691954502096,-0.145469281474288),
 .UNSPECIFIED.);
#31=B_SPLINE_CURVE_WITH_KNOTS('',3,(#515,#516,#517,#518,#519,#520,#521,
#522,#523,#524,#525,#526,#527,#528),.UNSPECIFIED.,.F.,.F.,(4,2,2,2,2,2,
4),(-0.145469281474288,-0.136505997828214,-0.121704364723846,-0.0896831204618234,
-0.0472154448996699,-0.0201641151466872,0.),.UNSPECIFIED.);
#32=B_SPLINE_CURVE_WITH_KNOTS('',3,(#537,#538,#539,#540,#541,#542,#543,
#544,#545,#546,#547,#548,#549,#550),.UNSPECIFIED.,.F.,.F.,(4,2,2,2,2,2,
4),(-0.295512678069616,-0.294548460986137,-0.255548143443967,-0.216092278280062,
-0.181543768772898,-0.159001236454677,-0.147269465707964),.UNSPECIFIED.);
#33=B_SPLINE_CURVE_WITH_KNOTS('',3,(#551,#552,#553,#554,#555,#556,#557,
#558,#559,#560,#561,#562,#563,#564,#565,#566),.UNSPECIFIED.,.F.,.F.,(4,
2,2,2,2,2,2,4),(-0.147269465707964,-0.143281103685776,-0.125593725583537,
-0.0909176891049825,-0.0575758746344657,-0.0292641513454202,0.,0.000964835880779422),
 .UNSPECIFIED.);
#34=B_SPLINE_CURVE_WITH_KNOTS('',3,(#579,#580,#581,#582,#583,#584,#585,
#586,#587,#588,#589,#590,#591,#592,#593,#594),.UNSPECIFIED.,.F.,.F.,(4,
2,2,2,2,2,2,4),(-0.564170618262619,-0.548044582305202,-0.531117535789201,
-0.493643979530007,-0.466357603261408,-0.442738457952562,-0.430423017366109,
-0.425366343636335),.UNSPECIFIED.);
#35=B_SPLINE_CURVE_WITH_KNOTS('',3,(#595,#596,#597,#598,#599,#600,#601,
#602,#603,#604,#605,#606,#607,#608,#609,#610,#611,#612,#613,#614,#615,#616,
#617,#618,#619,#620,#621,#622,#623,#624,#625,#626,#627,#628,#629,#630,#631,
#632),.UNSPECIFIED.,.F.,.F.,(4,2,2,2,2,2,2,2,2,2,2,2,2,2,2,2,2,2,4),(-0.425366343636335,
-0.420216417957361,-0.4079761486508,-0.385722783246205,-0.353564753498205,
-0.321776647844382,-0.301122788362266,-0.281758240947145,-0.255874726971254,
-0.216196439175911,-0.179626315400214,-0.159800431669458,-0.147691954501171,
-0.136505997827402,-0.121704364723186,-0.0896831204614467,-0.0472154448995478,
-0.020164115146663,0.),.UNSPECIFIED.);
#36=ELLIPSE('',#299,0.969354279054044,0.899999999999999);
#37=ELLIPSE('',#309,0.969354279054044,0.899999999999999);
#38=FACE_OUTER_BOUND('',#53,.T.);
#39=FACE_OUTER_BOUND('',#54,.T.);
#40=FACE_OUTER_BOUND('',#55,.T.);
#41=FACE_OUTER_BOUND('',#56,.T.);
#42=FACE_OUTER_BOUND('',#57,.T.);
#43=FACE_OUTER_BOUND('',#58,.T.);
#44=FACE_OUTER_BOUND('',#59,.T.);
#45=FACE_OUTER_BOUND('',#60,.T.);
#46=FACE_OUTER_BOUND('',#61,.T.);
#47=FACE_OUTER_BOUND('',#62,.T.);
#48=FACE_OUTER_BOUND('',#65,.T.);
#49=FACE_OUTER_BOUND('',#66,.T.);
#50=FACE_OUTER_BOUND('',#67,.T.);
#51=FACE_OUTER_BOUND('',#68,.T.);
#52=FACE_OUTER_BOUND('',#71,.T.);
#53=EDGE_LOOP('',(#178,#179,#180,#181));
#54=EDGE_LOOP('',(#182,#183));
#55=EDGE_LOOP('',(#184,#185,#186,#187,#188,#189));
#56=EDGE_LOOP('',(#190,#191,#192,#193,#194,#195,#196));
#57=EDGE_LOOP('',(#197,#198,#199,#200,#201,#202));
#58=EDGE_LOOP('',(#203,#204));
#59=EDGE_LOOP('',(#205,#206,#207,#208,#209,#210));
#60=EDGE_LOOP('',(#211,#212,#213,#214,#215,#216,#217));
#61=EDGE_LOOP('',(#218,#219,#220,#221,#222,#223));
#62=EDGE_LOOP('',(#224,#225,#226,#227,#228,#229));
#63=EDGE_LOOP('',(#230,#231));
#64=EDGE_LOOP('',(#232,#233));
#65=EDGE_LOOP('',(#234,#235,#236,#237,#238));
#66=EDGE_LOOP('',(#239,#240,#241,#242));
#67=EDGE_LOOP('',(#243,#244,#245,#246,#247));
#68=EDGE_LOOP('',(#248));
#69=EDGE_LOOP('',(#249));
#70=EDGE_LOOP('',(#250));
#71=EDGE_LOOP('',(#251));
#72=EDGE_LOOP('',(#252));
#73=EDGE_LOOP('',(#253));
#74=EDGE_LOOP('',(#254));
#75=EDGE_LOOP('',(#255));
#76=LINE('',#424,#84);
#77=LINE('',#448,#85);
#78=LINE('',#529,#86);
#79=LINE('',#568,#87);
#80=LINE('',#633,#88);
#81=LINE('',#646,#89);
#82=LINE('',#652,#90);
#83=LINE('',#657,#91);
#84=VECTOR('',#339,1.475);
#85=VECTOR('',#350,0.899999999999999);
#86=VECTOR('',#363,0.899999999999999);
#87=VECTOR('',#372,0.899999999999999);
#88=VECTOR('',#385,0.899999999999999);
#89=VECTOR('',#400,13.625);
#90=VECTOR('',#407,5.);
#91=VECTOR('',#414,13.625);
#92=CIRCLE('',#296,1.475);
#93=CIRCLE('',#297,1.475);
#94=CIRCLE('',#300,0.899999999999999);
#95=CIRCLE('',#302,0.899999999999999);
#96=CIRCLE('',#304,0.899999999999999);
#97=CIRCLE('',#305,2.33532945556616);
#98=CIRCLE('',#306,0.899999999999999);
#99=CIRCLE('',#310,0.899999999999999);
#100=CIRCLE('',#312,0.899999999999999);
#101=CIRCLE('',#314,0.899999999999999);
#102=CIRCLE('',#315,0.899999999999999);
#103=CIRCLE('',#316,2.33532945556616);
#104=CIRCLE('',#319,13.625);
#105=CIRCLE('',#320,13.625);
#106=CIRCLE('',#321,1.1);
#107=CIRCLE('',#322,13.625);
#108=CIRCLE('',#323,13.625);
#109=CIRCLE('',#325,13.625);
#110=CIRCLE('',#327,5.1);
#111=CIRCLE('',#328,5.1);
#112=CIRCLE('',#330,13.625);
#113=VERTEX_POINT('',#421);
#114=VERTEX_POINT('',#423);
#115=VERTEX_POINT('',#427);
#116=VERTEX_POINT('',#428);
#117=VERTEX_POINT('',#432);
#118=VERTEX_POINT('',#447);
#119=VERTEX_POINT('',#467);
#120=VERTEX_POINT('',#468);
#121=VERTEX_POINT('',#473);
#122=VERTEX_POINT('',#474);
#123=VERTEX_POINT('',#531);
#124=VERTEX_POINT('',#532);
#125=VERTEX_POINT('',#536);
#126=VERTEX_POINT('',#567);
#127=VERTEX_POINT('',#571);
#128=VERTEX_POINT('',#572);
#129=VERTEX_POINT('',#577);
#130=VERTEX_POINT('',#578);
#131=VERTEX_POINT('',#635);
#132=VERTEX_POINT('',#636);
#133=VERTEX_POINT('',#639);
#134=VERTEX_POINT('',#641);
#135=VERTEX_POINT('',#645);
#136=VERTEX_POINT('',#649);
#137=VERTEX_POINT('',#651);
#138=VERTEX_POINT('',#655);
#139=EDGE_CURVE('',#113,#113,#92,.F.);
#140=EDGE_CURVE('',#113,#114,#76,.T.);
#141=EDGE_CURVE('',#114,#114,#93,.T.);
#142=EDGE_CURVE('',#115,#116,#36,.T.);
#143=EDGE_CURVE('',#116,#115,#94,.T.);
#144=EDGE_CURVE('',#116,#117,#28,.T.);
#145=EDGE_CURVE('',#115,#118,#77,.T.);
#146=EDGE_CURVE('',#118,#118,#95,.T.);
#147=EDGE_CURVE('',#117,#115,#29,.T.);
#148=EDGE_CURVE('',#119,#120,#96,.T.);
#149=EDGE_CURVE('',#120,#117,#97,.T.);
#150=EDGE_CURVE('',#120,#119,#98,.T.);
#151=EDGE_CURVE('',#121,#122,#30,.T.);
#152=EDGE_CURVE('',#122,#121,#31,.T.);
#153=EDGE_CURVE('',#122,#119,#78,.T.);
#154=EDGE_CURVE('',#123,#124,#37,.T.);
#155=EDGE_CURVE('',#124,#123,#99,.T.);
#156=EDGE_CURVE('',#124,#125,#32,.T.);
#157=EDGE_CURVE('',#125,#123,#33,.T.);
#158=EDGE_CURVE('',#123,#126,#79,.T.);
#159=EDGE_CURVE('',#126,#126,#100,.T.);
#160=EDGE_CURVE('',#127,#128,#101,.T.);
#161=EDGE_CURVE('',#128,#127,#102,.T.);
#162=EDGE_CURVE('',#128,#125,#103,.T.);
#163=EDGE_CURVE('',#129,#130,#34,.T.);
#164=EDGE_CURVE('',#130,#129,#35,.T.);
#165=EDGE_CURVE('',#130,#127,#80,.T.);
#166=EDGE_CURVE('',#131,#132,#104,.T.);
#167=EDGE_CURVE('',#132,#131,#105,.T.);
#168=EDGE_CURVE('',#132,#133,#106,.T.);
#169=EDGE_CURVE('',#134,#133,#107,.T.);
#170=EDGE_CURVE('',#133,#134,#108,.T.);
#171=EDGE_CURVE('',#134,#135,#81,.T.);
#172=EDGE_CURVE('',#135,#135,#109,.T.);
#173=EDGE_CURVE('',#136,#136,#110,.T.);
#174=EDGE_CURVE('',#136,#137,#82,.T.);
#175=EDGE_CURVE('',#137,#137,#111,.T.);
#176=EDGE_CURVE('',#138,#138,#112,.T.);
#177=EDGE_CURVE('',#138,#131,#83,.T.);
#178=ORIENTED_EDGE('',*,*,#139,.F.);
#179=ORIENTED_EDGE('',*,*,#140,.T.);
#180=ORIENTED_EDGE('',*,*,#141,.F.);
#181=ORIENTED_EDGE('',*,*,#140,.F.);
#182=ORIENTED_EDGE('',*,*,#142,.T.);
#183=ORIENTED_EDGE('',*,*,#143,.T.);
#184=ORIENTED_EDGE('',*,*,#144,.F.);
#185=ORIENTED_EDGE('',*,*,#142,.F.);
#186=ORIENTED_EDGE('',*,*,#145,.T.);
#187=ORIENTED_EDGE('',*,*,#146,.F.);
#188=ORIENTED_EDGE('',*,*,#145,.F.);
#189=ORIENTED_EDGE('',*,*,#147,.F.);
#190=ORIENTED_EDGE('',*,*,#148,.T.);
#191=ORIENTED_EDGE('',*,*,#149,.T.);
#192=ORIENTED_EDGE('',*,*,#147,.T.);
#193=ORIENTED_EDGE('',*,*,#143,.F.);
#194=ORIENTED_EDGE('',*,*,#144,.T.);
#195=ORIENTED_EDGE('',*,*,#149,.F.);
#196=ORIENTED_EDGE('',*,*,#150,.T.);
#197=ORIENTED_EDGE('',*,*,#151,.F.);
#198=ORIENTED_EDGE('',*,*,#152,.F.);
#199=ORIENTED_EDGE('',*,*,#153,.T.);
#200=ORIENTED_EDGE('',*,*,#150,.F.);
#201=ORIENTED_EDGE('',*,*,#148,.F.);
#202=ORIENTED_EDGE('',*,*,#153,.F.);
#203=ORIENTED_EDGE('',*,*,#154,.F.);
#204=ORIENTED_EDGE('',*,*,#155,.F.);
#205=ORIENTED_EDGE('',*,*,#156,.T.);
#206=ORIENTED_EDGE('',*,*,#157,.T.);
#207=ORIENTED_EDGE('',*,*,#158,.T.);
#208=ORIENTED_EDGE('',*,*,#159,.F.);
#209=ORIENTED_EDGE('',*,*,#158,.F.);
#210=ORIENTED_EDGE('',*,*,#154,.T.);
#211=ORIENTED_EDGE('',*,*,#160,.F.);
#212=ORIENTED_EDGE('',*,*,#161,.F.);
#213=ORIENTED_EDGE('',*,*,#162,.T.);
#214=ORIENTED_EDGE('',*,*,#156,.F.);
#215=ORIENTED_EDGE('',*,*,#155,.T.);
#216=ORIENTED_EDGE('',*,*,#157,.F.);
#217=ORIENTED_EDGE('',*,*,#162,.F.);
#218=ORIENTED_EDGE('',*,*,#163,.F.);
#219=ORIENTED_EDGE('',*,*,#164,.F.);
#220=ORIENTED_EDGE('',*,*,#165,.T.);
#221=ORIENTED_EDGE('',*,*,#160,.T.);
#222=ORIENTED_EDGE('',*,*,#161,.T.);
#223=ORIENTED_EDGE('',*,*,#165,.F.);
#224=ORIENTED_EDGE('',*,*,#166,.F.);
#225=ORIENTED_EDGE('',*,*,#167,.F.);
#226=ORIENTED_EDGE('',*,*,#168,.T.);
#227=ORIENTED_EDGE('',*,*,#169,.F.);
#228=ORIENTED_EDGE('',*,*,#170,.F.);
#229=ORIENTED_EDGE('',*,*,#168,.F.);
#230=ORIENTED_EDGE('',*,*,#151,.T.);
#231=ORIENTED_EDGE('',*,*,#152,.T.);
#232=ORIENTED_EDGE('',*,*,#163,.T.);
#233=ORIENTED_EDGE('',*,*,#164,.T.);
#234=ORIENTED_EDGE('',*,*,#169,.T.);
#235=ORIENTED_EDGE('',*,*,#170,.T.);
#236=ORIENTED_EDGE('',*,*,#171,.T.);
#237=ORIENTED_EDGE('',*,*,#172,.T.);
#238=ORIENTED_EDGE('',*,*,#171,.F.);
#239=ORIENTED_EDGE('',*,*,#173,.F.);
#240=ORIENTED_EDGE('',*,*,#174,.T.);
#241=ORIENTED_EDGE('',*,*,#175,.T.);
#242=ORIENTED_EDGE('',*,*,#174,.F.);
#243=ORIENTED_EDGE('',*,*,#176,.F.);
#244=ORIENTED_EDGE('',*,*,#177,.T.);
#245=ORIENTED_EDGE('',*,*,#166,.T.);
#246=ORIENTED_EDGE('',*,*,#167,.T.);
#247=ORIENTED_EDGE('',*,*,#177,.F.);
#248=ORIENTED_EDGE('',*,*,#176,.T.);
#249=ORIENTED_EDGE('',*,*,#139,.T.);
#250=ORIENTED_EDGE('',*,*,#173,.T.);
#251=ORIENTED_EDGE('',*,*,#172,.F.);
#252=ORIENTED_EDGE('',*,*,#141,.T.);
#253=ORIENTED_EDGE('',*,*,#146,.T.);
#254=ORIENTED_EDGE('',*,*,#159,.T.);
#255=ORIENTED_EDGE('',*,*,#175,.F.);
#256=CYLINDRICAL_SURFACE('',#295,1.475);
#257=CYLINDRICAL_SURFACE('',#298,0.899999999999999);
#258=CYLINDRICAL_SURFACE('',#301,0.899999999999999);
#259=CYLINDRICAL_SURFACE('',#307,0.899999999999999);
#260=CYLINDRICAL_SURFACE('',#308,0.899999999999999);
#261=CYLINDRICAL_SURFACE('',#311,0.899999999999999);
#262=CYLINDRICAL_SURFACE('',#317,0.899999999999999);
#263=CYLINDRICAL_SURFACE('',#324,13.625);
#264=CYLINDRICAL_SURFACE('',#326,5.1);
#265=CYLINDRICAL_SURFACE('',#329,13.625);
#266=ADVANCED_FACE('',(#38),#256,.F.);
#267=ADVANCED_FACE('',(#39),#257,.F.);
#268=ADVANCED_FACE('',(#40),#258,.F.);
#269=ADVANCED_FACE('',(#41),#25,.F.);
#270=ADVANCED_FACE('',(#42),#259,.F.);
#271=ADVANCED_FACE('',(#43),#260,.F.);
#272=ADVANCED_FACE('',(#44),#261,.F.);
#273=ADVANCED_FACE('',(#45),#26,.F.);
#274=ADVANCED_FACE('',(#46),#262,.F.);
#275=ADVANCED_FACE('',(#47,#17,#18),#27,.F.);
#276=ADVANCED_FACE('',(#48),#263,.T.);
#277=ADVANCED_FACE('',(#49),#264,.F.);
#278=ADVANCED_FACE('',(#50),#265,.T.);
#279=ADVANCED_FACE('',(#51,#19,#20),#15,.T.);
#280=ADVANCED_FACE('',(#52,#21,#22,#23,#24),#16,.F.);
#281=CLOSED_SHELL('',(#266,#267,#268,#269,#270,#271,#272,#273,#274,#275,
#276,#277,#278,#279,#280));
#282=DERIVED_UNIT_ELEMENT(#284,1.);
#283=DERIVED_UNIT_ELEMENT(#665,-3.);
#284=(
MASS_UNIT()
NAMED_UNIT(*)
SI_UNIT(.KILO.,.GRAM.)
);
#285=DERIVED_UNIT((#282,#283));
#286=MEASURE_REPRESENTATION_ITEM('density measure',
POSITIVE_RATIO_MEASURE(7850.),#285);
#287=PROPERTY_DEFINITION_REPRESENTATION(#292,#289);
#288=PROPERTY_DEFINITION_REPRESENTATION(#293,#290);
#289=REPRESENTATION('material name',(#291),#662);
#290=REPRESENTATION('density',(#286),#662);
#291=DESCRIPTIVE_REPRESENTATION_ITEM('Steel','Steel');
#292=PROPERTY_DEFINITION('material property','material name',#672);
#293=PROPERTY_DEFINITION('material property','density of part',#672);
#294=AXIS2_PLACEMENT_3D('',#419,#333,#334);
#295=AXIS2_PLACEMENT_3D('',#420,#335,#336);
#296=AXIS2_PLACEMENT_3D('',#422,#337,#338);
#297=AXIS2_PLACEMENT_3D('',#425,#340,#341);
#298=AXIS2_PLACEMENT_3D('',#426,#342,#343);
#299=AXIS2_PLACEMENT_3D('',#429,#344,#345);
#300=AXIS2_PLACEMENT_3D('',#430,#346,#347);
#301=AXIS2_PLACEMENT_3D('',#431,#348,#349);
#302=AXIS2_PLACEMENT_3D('',#449,#351,#352);
#303=AXIS2_PLACEMENT_3D('',#466,#353,#354);
#304=AXIS2_PLACEMENT_3D('',#469,#355,#356);
#305=AXIS2_PLACEMENT_3D('',#470,#357,#358);
#306=AXIS2_PLACEMENT_3D('',#471,#359,#360);
#307=AXIS2_PLACEMENT_3D('',#472,#361,#362);
#308=AXIS2_PLACEMENT_3D('',#530,#364,#365);
#309=AXIS2_PLACEMENT_3D('',#533,#366,#367);
#310=AXIS2_PLACEMENT_3D('',#534,#368,#369);
#311=AXIS2_PLACEMENT_3D('',#535,#370,#371);
#312=AXIS2_PLACEMENT_3D('',#569,#373,#374);
#313=AXIS2_PLACEMENT_3D('',#570,#375,#376);
#314=AXIS2_PLACEMENT_3D('',#573,#377,#378);
#315=AXIS2_PLACEMENT_3D('',#574,#379,#380);
#316=AXIS2_PLACEMENT_3D('',#575,#381,#382);
#317=AXIS2_PLACEMENT_3D('',#576,#383,#384);
#318=AXIS2_PLACEMENT_3D('',#634,#386,#387);
#319=AXIS2_PLACEMENT_3D('',#637,#388,#389);
#320=AXIS2_PLACEMENT_3D('',#638,#390,#391);
#321=AXIS2_PLACEMENT_3D('',#640,#392,#393);
#322=AXIS2_PLACEMENT_3D('',#642,#394,#395);
#323=AXIS2_PLACEMENT_3D('',#643,#396,#397);
#324=AXIS2_PLACEMENT_3D('',#644,#398,#399);
#325=AXIS2_PLACEMENT_3D('',#647,#401,#402);
#326=AXIS2_PLACEMENT_3D('',#648,#403,#404);
#327=AXIS2_PLACEMENT_3D('',#650,#405,#406);
#328=AXIS2_PLACEMENT_3D('',#653,#408,#409);
#329=AXIS2_PLACEMENT_3D('',#654,#410,#411);
#330=AXIS2_PLACEMENT_3D('',#656,#412,#413);
#331=AXIS2_PLACEMENT_3D('',#658,#415,#416);
#332=AXIS2_PLACEMENT_3D('',#659,#417,#418);
#333=DIRECTION('axis',(0.,0.,1.));
#334=DIRECTION('refdir',(1.,0.,0.));
#335=DIRECTION('center_axis',(0.,0.,-1.));
#336=DIRECTION('ref_axis',(-1.,0.,0.));
#337=DIRECTION('center_axis',(0.,0.,1.));
#338=DIRECTION('ref_axis',(-1.,0.,0.));
#339=DIRECTION('',(0.,0.,-1.));
#340=DIRECTION('center_axis',(0.,0.,1.));
#341=DIRECTION('ref_axis',(-1.,0.,0.));
#342=DIRECTION('center_axis',(0.0240718264967437,-0.689326920543148,-0.724050373788738));
#343=DIRECTION('ref_axis',(-0.999390827019096,-0.0348994967025012,1.2191420596167E-31));
#344=DIRECTION('center_axis',(0.0129634044551472,-0.371223333386471,-0.928453115076022));
#345=DIRECTION('ref_axis',(-0.0324025464280226,0.927887526524281,-0.371449610452927));
#346=DIRECTION('center_axis',(-0.0240718264967438,0.689326920543149,0.724050373788737));
#347=DIRECTION('ref_axis',(-0.999390827019096,-0.0348994967025012,-8.86705972681822E-17));
#348=DIRECTION('center_axis',(0.,0.,1.));
#349=DIRECTION('ref_axis',(-0.999390827019096,-0.0348994967025012,2.55104439142478E-46));
#350=DIRECTION('',(0.,0.,-1.));
#351=DIRECTION('center_axis',(0.,0.,1.));
#352=DIRECTION('ref_axis',(-0.999390827019096,-0.0348994967025012,2.55104439142478E-46));
#353=DIRECTION('center_axis',(-0.999390827019096,-0.0348994967025012,0.));
#354=DIRECTION('ref_axis',(0.,0.,1.));
#355=DIRECTION('center_axis',(-0.0348994967025013,0.999390827019096,0.));
#356=DIRECTION('ref_axis',(-0.999390827019096,-0.0348994967025013,0.));
#357=DIRECTION('center_axis',(0.999390827019096,0.0348994967025012,0.));
#358=DIRECTION('ref_axis',(0.,0.,1.));
#359=DIRECTION('center_axis',(-0.0348994967025013,0.999390827019096,0.));
#360=DIRECTION('ref_axis',(-0.999390827019096,-0.0348994967025013,0.));
#361=DIRECTION('center_axis',(-0.0348994967025012,0.999390827019096,0.));
#362=DIRECTION('ref_axis',(-0.999390827019096,-0.0348994967025012,0.));
#363=DIRECTION('',(0.0348994967025012,-0.999390827019096,0.));
#364=DIRECTION('center_axis',(0.0240718264967437,-0.689326920543148,0.724050373788738));
#365=DIRECTION('ref_axis',(-0.999390827019096,-0.0348994967025012,1.2191420596167E-31));
#366=DIRECTION('center_axis',(0.0129634044551472,-0.371223333386471,0.928453115076022));
#367=DIRECTION('ref_axis',(0.0324025464280226,-0.927887526524281,-0.371449610452927));
#368=DIRECTION('center_axis',(-0.0240718264967436,0.689326920543149,-0.724050373788737));
#369=DIRECTION('ref_axis',(-0.999390827019096,-0.0348994967025011,-8.86705972681822E-17));
#370=DIRECTION('center_axis',(0.,0.,-1.));
#371=DIRECTION('ref_axis',(-0.999390827019096,-0.0348994967025012,2.55104439142478E-46));
#372=DIRECTION('',(0.,0.,-1.));
#373=DIRECTION('center_axis',(0.,0.,1.));
#374=DIRECTION('ref_axis',(-0.999390827019096,-0.0348994967025012,2.55104439142478E-46));
#375=DIRECTION('center_axis',(-0.999390827019096,-0.0348994967025012,0.));
#376=DIRECTION('ref_axis',(0.,0.,1.));
#377=DIRECTION('center_axis',(-0.0348994967025011,0.999390827019096,0.));
#378=DIRECTION('ref_axis',(-0.999390827019096,-0.034899496702501,0.));
#379=DIRECTION('center_axis',(-0.0348994967025011,0.999390827019096,0.));
#380=DIRECTION('ref_axis',(-0.999390827019096,-0.034899496702501,0.));
#381=DIRECTION('center_axis',(-0.999390827019096,-0.0348994967025012,0.));
#382=DIRECTION('ref_axis',(0.,0.,1.));
#383=DIRECTION('center_axis',(-0.0348994967025012,0.999390827019096,0.));
#384=DIRECTION('ref_axis',(-0.999390827019096,-0.0348994967025012,0.));
#385=DIRECTION('',(-0.0348994967025012,0.999390827019096,0.));
#386=DIRECTION('center_axis',(0.,0.,1.));
#387=DIRECTION('ref_axis',(0.99026806874157,-0.139173100960065,0.));
#388=DIRECTION('center_axis',(0.,0.,1.));
#389=DIRECTION('ref_axis',(-0.743144825477394,-0.669130606358859,0.));
#390=DIRECTION('center_axis',(0.,0.,1.));
#391=DIRECTION('ref_axis',(-0.743144825477394,-0.669130606358859,0.));
#392=DIRECTION('center_axis',(0.139173100960065,0.99026806874157,0.));
#393=DIRECTION('ref_axis',(-0.99026806874157,0.139173100960065,0.));
#394=DIRECTION('center_axis',(0.,0.,-1.));
#395=DIRECTION('ref_axis',(-0.743144825477394,-0.669130606358859,0.));
#396=DIRECTION('center_axis',(0.,0.,-1.));
#397=DIRECTION('ref_axis',(-0.743144825477394,-0.669130606358859,0.));
#398=DIRECTION('center_axis',(0.,0.,1.));
#399=DIRECTION('ref_axis',(-0.743144825477394,-0.669130606358859,0.));
#400=DIRECTION('',(0.,0.,-1.));
#401=DIRECTION('center_axis',(0.,0.,1.));
#402=DIRECTION('ref_axis',(-0.743144825477394,-0.669130606358859,0.));
#403=DIRECTION('center_axis',(0.,0.,1.));
#404=DIRECTION('ref_axis',(-0.743144825477394,-0.669130606358859,0.));
#405=DIRECTION('center_axis',(0.,0.,-1.));
#406=DIRECTION('ref_axis',(-0.743144825477394,-0.669130606358859,0.));
#407=DIRECTION('',(0.,0.,-1.));
#408=DIRECTION('center_axis',(0.,0.,-1.));
#409=DIRECTION('ref_axis',(-0.743144825477394,-0.669130606358859,0.));
#410=DIRECTION('center_axis',(0.,0.,1.));
#411=DIRECTION('ref_axis',(-0.743144825477394,-0.669130606358859,0.));
#412=DIRECTION('center_axis',(0.,0.,1.));
#413=DIRECTION('ref_axis',(-0.743144825477394,-0.669130606358859,0.));
#414=DIRECTION('',(0.,0.,-1.));
#415=DIRECTION('center_axis',(0.,0.,1.));
#416=DIRECTION('ref_axis',(-0.743144825477394,-0.669130606358859,0.));
#417=DIRECTION('center_axis',(0.,0.,1.));
#418=DIRECTION('ref_axis',(-0.743144825477394,-0.669130606358859,0.));
#419=CARTESIAN_POINT('',(0.,0.,0.));
#420=CARTESIAN_POINT('Origin',(37.,0.,29.9));
#421=CARTESIAN_POINT('',(38.475,1.80635402874235E-16,30.2));
#422=CARTESIAN_POINT('Origin',(37.,0.,30.2));
#423=CARTESIAN_POINT('',(38.475,1.80635402874235E-16,26.4));
#424=CARTESIAN_POINT('',(38.475,-1.80635402874235E-16,29.9));
#425=CARTESIAN_POINT('Origin',(37.,0.,26.4));
#426=CARTESIAN_POINT('Origin',(26.674998436958,9.30682707661532,27.2962296404884));
#427=CARTESIAN_POINT('',(27.5744501812751,9.33823662364758,27.2962296404884));
#428=CARTESIAN_POINT('',(25.7755466926408,9.27541752958308,27.2962296404884));
#429=CARTESIAN_POINT('Origin',(26.674998436958,9.30682707661533,27.2962296404884));
#430=CARTESIAN_POINT('Origin',(26.674998436958,9.30682707661533,27.2962296404884));
#431=CARTESIAN_POINT('Origin',(26.674998436958,9.30682707661533,27.2962296404884));
#432=CARTESIAN_POINT('',(26.6435888899257,10.2062788209325,26.9011992488387));
#433=CARTESIAN_POINT('Ctrl Pts',(25.7755466926408,9.27541752958308,27.2962296404884));
#434=CARTESIAN_POINT('Ctrl Pts',(25.775442482176,9.27840172684616,27.2950350141148));
#435=CARTESIAN_POINT('Ctrl Pts',(25.7753531350176,9.28138610277593,27.2938395645268));
#436=CARTESIAN_POINT('Ctrl Pts',(25.7722656936839,9.40508429054359,27.2442585392014));
#437=CARTESIAN_POINT('Ctrl Pts',(25.7935706636553,9.5253032566799,27.1947696342341));
#438=CARTESIAN_POINT('Ctrl Pts',(25.8831148873363,9.75169938334278,27.099112497603));
#439=CARTESIAN_POINT('Ctrl Pts',(25.9514813761402,9.85660124769605,27.0534461951967));
#440=CARTESIAN_POINT('Ctrl Pts',(26.1182854134696,10.0224596551667,26.9802109577687));
#441=CARTESIAN_POINT('Ctrl Pts',(26.2108846773455,10.0861868656425,26.9516186413011));
#442=CARTESIAN_POINT('Ctrl Pts',(26.3822169484227,10.1610693666286,26.9186918160354));
#443=CARTESIAN_POINT('Ctrl Pts',(26.4536785507815,10.1823918424699,26.9095692866438));
#444=CARTESIAN_POINT('Ctrl Pts',(26.5658794758806,10.2010355227232,26.9024294355542));
#445=CARTESIAN_POINT('Ctrl Pts',(26.6046622324651,10.2049194721002,26.9011992488387));
#446=CARTESIAN_POINT('Ctrl Pts',(26.6435888899257,10.2062788209325,26.9011992488387));
#447=CARTESIAN_POINT('',(27.5744501812751,9.33823662364758,26.4));
#448=CARTESIAN_POINT('',(27.5744501812751,9.33823662364758,27.2962296404884));
#449=CARTESIAN_POINT('Origin',(26.674998436958,9.30682707661533,26.4));
#450=CARTESIAN_POINT('Ctrl Pts',(26.6435888899257,10.2062788209325,26.9011992488387));
#451=CARTESIAN_POINT('Ctrl Pts',(26.6568224934131,10.2067409485494,26.9011992488387));
#452=CARTESIAN_POINT('Ctrl Pts',(26.6700727298074,10.2069112499313,26.9013413260379));
#453=CARTESIAN_POINT('Ctrl Pts',(26.7421249741753,10.2062441783418,26.9028874626082));
#454=CARTESIAN_POINT('Ctrl Pts',(26.8005225993865,10.1999440421032,26.9069425659616));
#455=CARTESIAN_POINT('Ctrl Pts',(26.9699052382233,10.1648205050687,26.9267463153319));
#456=CARTESIAN_POINT('Ctrl Pts',(27.0749644147325,10.1207354610653,26.9496820851484));
#457=CARTESIAN_POINT('Ctrl Pts',(27.2578197241645,10.0009464036481,27.0084703359634));
#458=CARTESIAN_POINT('Ctrl Pts',(27.3350417944664,9.92750052687709,27.0432681063215));
#459=CARTESIAN_POINT('Ctrl Pts',(27.4501742770757,9.77261290984302,27.1135762754084));
#460=CARTESIAN_POINT('Ctrl Pts',(27.4919295196955,9.69450378480288,27.1479836777705));
#461=CARTESIAN_POINT('Ctrl Pts',(27.5523432043254,9.52696450405914,27.2194361127491));
#462=CARTESIAN_POINT('Ctrl Pts',(27.5700325043441,9.43764390986003,27.2563607611251));
#463=CARTESIAN_POINT('Ctrl Pts',(27.5742269207825,9.3442041595934,27.2938395645268));
#464=CARTESIAN_POINT('Ctrl Pts',(27.5743459708104,9.34122082091064,27.2950350141149));
#465=CARTESIAN_POINT('Ctrl Pts',(27.5744501812751,9.33823662364758,27.2962296404884));
#466=CARTESIAN_POINT('Origin',(26.5932449175463,11.6479415652583,25.0646705444338));
#467=CARTESIAN_POINT('',(27.4926966618634,11.6793511122905,28.3));
#468=CARTESIAN_POINT('',(26.5932449175463,11.6479415652583,27.4));
#469=CARTESIAN_POINT('Origin',(26.5932449175463,11.6479415652583,28.3));
#470=CARTESIAN_POINT('Origin',(26.5932449175463,11.6479415652583,25.0646705444338));
#471=CARTESIAN_POINT('Origin',(26.5932449175463,11.6479415652583,28.3));
#472=CARTESIAN_POINT('Origin',(26.5244943574284,13.6167000181352,28.3));
#473=CARTESIAN_POINT('',(26.5509291742709,12.8597059075459,29.2));
#474=CARTESIAN_POINT('',(27.467839352952,12.3911713062095,28.3));
#475=CARTESIAN_POINT('Ctrl Pts',(26.5509291742709,12.8597059075459,29.2));
#476=CARTESIAN_POINT('Ctrl Pts',(26.4972084662308,12.8578299390834,29.2));
#477=CARTESIAN_POINT('Ctrl Pts',(26.4451210141989,12.8487627794418,29.1952371728782));
#478=CARTESIAN_POINT('Ctrl Pts',(26.3410158181742,12.8184390483998,29.1765683613158));
#479=CARTESIAN_POINT('Ctrl Pts',(26.2901662158454,12.7969333262169,29.162337400899));
#480=CARTESIAN_POINT('Ctrl Pts',(26.1365056906625,12.7186506766173,29.1046919178969));
#481=CARTESIAN_POINT('Ctrl Pts',(26.0349358885113,12.6454089191883,29.0429178366976));
#482=CARTESIAN_POINT('Ctrl Pts',(25.881329161173,12.5221771966909,28.8954492879509));
#483=CARTESIAN_POINT('Ctrl Pts',(25.8244021483227,12.4721058957296,28.8217976978491));
#484=CARTESIAN_POINT('Ctrl Pts',(25.7395766930745,12.3952933712831,28.6645936470524));
#485=CARTESIAN_POINT('Ctrl Pts',(25.7090216522321,12.3664763432598,28.5840779594775));
#486=CARTESIAN_POINT('Ctrl Pts',(25.6802931604804,12.3392250637744,28.4520728877692));
#487=CARTESIAN_POINT('Ctrl Pts',(25.6737457422908,12.3329565717876,28.4056523660635));
#488=CARTESIAN_POINT('Ctrl Pts',(25.6683043378636,12.3277484946896,28.3191785199987));
#489=CARTESIAN_POINT('Ctrl Pts',(25.668317955425,12.3277616122053,28.2797907958139));
#490=CARTESIAN_POINT('Ctrl Pts',(25.6738819327872,12.3330868189774,28.1931880283616));
#491=CARTESIAN_POINT('Ctrl Pts',(25.6804941903832,12.3394173918958,28.1465984076532));
#492=CARTESIAN_POINT('Ctrl Pts',(25.7087191787923,12.3661863632378,28.0180698022047));
#493=CARTESIAN_POINT('Ctrl Pts',(25.737697458409,12.3935142928018,27.9404525125306));
#494=CARTESIAN_POINT('Ctrl Pts',(25.8293278181712,12.4766690161391,27.7669956821451));
#495=CARTESIAN_POINT('Ctrl Pts',(25.9007609416119,12.539581866085,27.6792136106554));
#496=CARTESIAN_POINT('Ctrl Pts',(26.06534023025,12.6669671437385,27.5385144445799));
#497=CARTESIAN_POINT('Ctrl Pts',(26.1567163227784,12.7301128420817,27.4864686482162));
#498=CARTESIAN_POINT('Ctrl Pts',(26.3143680210703,12.8084004678853,27.4295142386172));
#499=CARTESIAN_POINT('Ctrl Pts',(26.3816661815424,12.834288724627,27.4132378585481));
#500=CARTESIAN_POINT('Ctrl Pts',(26.5205281682754,12.8615976563989,27.3979426929257));
#501=CARTESIAN_POINT('Ctrl Pts',(26.5875990233385,12.8635842495204,27.398166825097));
#502=CARTESIAN_POINT('Ctrl Pts',(26.7468109706264,12.8420095153453,27.4166897094245));
#503=CARTESIAN_POINT('Ctrl Pts',(26.8289171372476,12.8114930711529,27.4402899644958));
#504=CARTESIAN_POINT('Ctrl Pts',(27.0030916250484,12.7311003262397,27.5110688428442));
#505=CARTESIAN_POINT('Ctrl Pts',(27.1054302186668,12.665711446873,27.5750800396684));
#506=CARTESIAN_POINT('Ctrl Pts',(27.277469356544,12.5442512817259,27.7418635187478));
#507=CARTESIAN_POINT('Ctrl Pts',(27.3473005438422,12.4891926425634,27.8395115622515));
#508=CARTESIAN_POINT('Ctrl Pts',(27.4224962956337,12.4286689669479,28.0141599952485));
#509=CARTESIAN_POINT('Ctrl Pts',(27.4424643829505,12.4121993419992,28.0795978546755));
#510=CARTESIAN_POINT('Ctrl Pts',(27.4619619553603,12.3960664799856,28.190251850446));
#511=CARTESIAN_POINT('Ctrl Pts',(27.4663362123498,12.3924221253739,28.2329695119027));
#512=CARTESIAN_POINT('Ctrl Pts',(27.4677312227756,12.3912613028781,28.2841300731891));
#513=CARTESIAN_POINT('Ctrl Pts',(27.467839352952,12.3911713062095,28.2920655186498));
#514=CARTESIAN_POINT('Ctrl Pts',(27.467839352952,12.3911713062095,28.3));
#515=CARTESIAN_POINT('Ctrl Pts',(27.467839352952,12.3911713062095,28.3));
#516=CARTESIAN_POINT('Ctrl Pts',(27.467839352952,12.3911713062095,28.3319970621123));
#517=CARTESIAN_POINT('Ctrl Pts',(27.4660816633172,12.3926358036978,28.3639784455464));
#518=CARTESIAN_POINT('Ctrl Pts',(27.456761989529,12.4003743177456,28.4484317130213));
#519=CARTESIAN_POINT('Ctrl Pts',(27.4462558322546,12.4090910360588,28.4998876914357));
#520=CARTESIAN_POINT('Ctrl Pts',(27.3993352008764,12.4475086028608,28.6575950683638));
#521=CARTESIAN_POINT('Ctrl Pts',(27.3480729967674,12.4890826571676,28.7546774371334));
#522=CARTESIAN_POINT('Ctrl Pts',(27.1983539391491,12.6020259793898,28.9497505354014));
#523=CARTESIAN_POINT('Ctrl Pts',(27.0926190107404,12.676784203014,29.0343397524092));
#524=CARTESIAN_POINT('Ctrl Pts',(26.9096932138188,12.7766008809919,29.1305342073558));
#525=CARTESIAN_POINT('Ctrl Pts',(26.8305500130567,12.8130121281017,29.1603209215166));
#526=CARTESIAN_POINT('Ctrl Pts',(26.6830876323465,12.8529494537682,29.1925771726107));
#527=CARTESIAN_POINT('Ctrl Pts',(26.6181019466461,12.8620516324461,29.2));
#528=CARTESIAN_POINT('Ctrl Pts',(26.5509291742709,12.8597059075459,29.2));
#529=CARTESIAN_POINT('',(27.4239461017456,13.6481095651674,28.3));
#530=CARTESIAN_POINT('Origin',(27.325001563042,-9.30682707661533,27.2962296404884));
#531=CARTESIAN_POINT('',(28.2244533073592,-9.27541752958308,27.2962296404884));
#532=CARTESIAN_POINT('',(26.4255498187249,-9.33823662364758,27.2962296404884));
#533=CARTESIAN_POINT('Origin',(27.325001563042,-9.30682707661533,27.2962296404884));
#534=CARTESIAN_POINT('Origin',(27.325001563042,-9.30682707661533,27.2962296404884));
#535=CARTESIAN_POINT('Origin',(27.325001563042,-9.30682707661533,27.2962296404884));
#536=CARTESIAN_POINT('',(27.3564111100743,-10.2062788209325,26.9011992488387));
#537=CARTESIAN_POINT('Ctrl Pts',(26.4255498187249,-9.33823662364758,27.2962296404884));
#538=CARTESIAN_POINT('Ctrl Pts',(26.4256540291896,-9.34122082091066,27.2950350141148));
#539=CARTESIAN_POINT('Ctrl Pts',(26.4257730792175,-9.34420415959338,27.2938395645268));
#540=CARTESIAN_POINT('Ctrl Pts',(26.4313219081229,-9.46781639381302,27.2442585392014));
#541=CARTESIAN_POINT('Ctrl Pts',(26.4609610314132,-9.58625635301156,27.1947696342341));
#542=CARTESIAN_POINT('Ctrl Pts',(26.566079725331,-9.80585470080039,27.099112497603));
#543=CARTESIAN_POINT('Ctrl Pts',(26.6415972609508,-9.90573202430321,27.0534461951967));
#544=CARTESIAN_POINT('Ctrl Pts',(26.8195646696747,-10.0595507475789,26.9802109577687));
#545=CARTESIAN_POINT('Ctrl Pts',(26.9163837518822,-10.1166633236536,26.9516186413011));
#546=CARTESIAN_POINT('Ctrl Pts',(27.0925222053722,-10.179411879562,26.9186918160354));
#547=CARTESIAN_POINT('Ctrl Pts',(27.1652971115854,-10.1956975055351,26.9095692866438));
#548=CARTESIAN_POINT('Ctrl Pts',(27.2785252382623,-10.2064690298346,26.9024294355542));
#549=CARTESIAN_POINT('Ctrl Pts',(27.3174844526137,-10.2076381697648,26.9011992488387));
#550=CARTESIAN_POINT('Ctrl Pts',(27.3564111100743,-10.2062788209325,26.9011992488387));
#551=CARTESIAN_POINT('Ctrl Pts',(27.3564111100743,-10.2062788209325,26.9011992488387));
#552=CARTESIAN_POINT('Ctrl Pts',(27.3696447135617,-10.2058166933156,26.9011992488387));
#553=CARTESIAN_POINT('Ctrl Pts',(27.3828745526699,-10.2050622900847,26.9013413260379));
#554=CARTESIAN_POINT('Ctrl Pts',(27.4547047488301,-10.1993707329556,26.9028874626082));
#555=CARTESIAN_POINT('Ctrl Pts',(27.5125206450732,-10.1890123311225,26.9069425659616));
#556=CARTESIAN_POINT('Ctrl Pts',(27.679040582226,-10.1421588176602,26.9267463153319));
#557=CARTESIAN_POINT('Ctrl Pts',(27.7807686226469,-10.0908526049205,26.9496820851484));
#558=CARTESIAN_POINT('Ctrl Pts',(27.9548224434969,-9.95860000603525,27.0084703359634));
#559=CARTESIAN_POINT('Ctrl Pts',(28.0267330793421,-9.87994630040917,27.0432681063215));
#560=CARTESIAN_POINT('Ctrl Pts',(28.1307806910194,-9.71740474582533,27.1135762754084));
#561=CARTESIAN_POINT('Ctrl Pts',(28.1669856028367,-9.63657319220256,27.1479836777705));
#562=CARTESIAN_POINT('Ctrl Pts',(28.2155651733289,-9.46522778312055,27.2194361127491));
#563=CARTESIAN_POINT('Ctrl Pts',(28.2269806934178,-9.37489082620736,27.2563607611251));
#564=CARTESIAN_POINT('Ctrl Pts',(28.2246468649824,-9.28138610277595,27.2938395645268));
#565=CARTESIAN_POINT('Ctrl Pts',(28.224557517824,-9.27840172684614,27.2950350141149));
#566=CARTESIAN_POINT('Ctrl Pts',(28.2244533073592,-9.27541752958308,27.2962296404884));
#567=CARTESIAN_POINT('',(28.2244533073592,-9.27541752958308,26.4));
#568=CARTESIAN_POINT('',(28.2244533073592,-9.27541752958308,27.2962296404884));
#569=CARTESIAN_POINT('Origin',(27.325001563042,-9.30682707661533,26.4));
#570=CARTESIAN_POINT('Origin',(27.4067550824537,-11.6479415652583,25.0646705444338));
#571=CARTESIAN_POINT('',(28.3062068267709,-11.616532018226,28.3));
#572=CARTESIAN_POINT('',(27.4067550824537,-11.6479415652583,27.4));
#573=CARTESIAN_POINT('Origin',(27.4067550824537,-11.6479415652583,28.3));
#574=CARTESIAN_POINT('Origin',(27.4067550824537,-11.6479415652583,28.3));
#575=CARTESIAN_POINT('Origin',(27.4067550824537,-11.6479415652583,25.0646705444338));
#576=CARTESIAN_POINT('Origin',(27.4755056425716,-13.6167000181352,28.3));
#577=CARTESIAN_POINT('',(27.4490708257291,-12.8597059075459,29.2));
#578=CARTESIAN_POINT('',(28.3310641356823,-12.328352212145,28.3));
#579=CARTESIAN_POINT('Ctrl Pts',(27.4490708257291,-12.8597059075459,29.2));
#580=CARTESIAN_POINT('Ctrl Pts',(27.5027915337692,-12.8578299390834,29.2));
#581=CARTESIAN_POINT('Ctrl Pts',(27.554878985801,-12.8487627794418,29.1952371728782));
#582=CARTESIAN_POINT('Ctrl Pts',(27.6589841818258,-12.8184390483998,29.1765683613158));
#583=CARTESIAN_POINT('Ctrl Pts',(27.7098337841546,-12.7969333262169,29.162337400899));
#584=CARTESIAN_POINT('Ctrl Pts',(27.8634943093377,-12.7186506766172,29.1046919178969));
#585=CARTESIAN_POINT('Ctrl Pts',(27.9650641114888,-12.6454089191882,29.0429178366975));
#586=CARTESIAN_POINT('Ctrl Pts',(28.118670838827,-12.5221771966908,28.8954492879508));
#587=CARTESIAN_POINT('Ctrl Pts',(28.1755978516773,-12.4721058957295,28.821797697849));
#588=CARTESIAN_POINT('Ctrl Pts',(28.2604233069256,-12.395293371283,28.6645936470523));
#589=CARTESIAN_POINT('Ctrl Pts',(28.2909783477679,-12.3664763432598,28.5840779594774));
#590=CARTESIAN_POINT('Ctrl Pts',(28.3197068395196,-12.3392250637745,28.4520728877692));
#591=CARTESIAN_POINT('Ctrl Pts',(28.3262542577092,-12.3329565717876,28.4056523660635));
#592=CARTESIAN_POINT('Ctrl Pts',(28.330451421899,-12.3289393819268,28.3389517679151));
#593=CARTESIAN_POINT('Ctrl Pts',(28.3310641356823,-12.328352212145,28.3194876511808));
#594=CARTESIAN_POINT('Ctrl Pts',(28.3310641356823,-12.328352212145,28.3));
#595=CARTESIAN_POINT('Ctrl Pts',(28.3310641356823,-12.328352212145,28.3));
#596=CARTESIAN_POINT('Ctrl Pts',(28.3310641356823,-12.328352212145,28.2801529699952));
#597=CARTESIAN_POINT('Ctrl Pts',(28.3304286306349,-12.3289612375754,28.2602815295258));
#598=CARTESIAN_POINT('Ctrl Pts',(28.3261180672128,-12.3330868189774,28.1931880283615));
#599=CARTESIAN_POINT('Ctrl Pts',(28.3195058096168,-12.3394173918958,28.1465984076531));
#600=CARTESIAN_POINT('Ctrl Pts',(28.2912808212077,-12.3661863632379,28.0180698022046));
#601=CARTESIAN_POINT('Ctrl Pts',(28.262302541591,-12.3935142928019,27.9404525125306));
#602=CARTESIAN_POINT('Ctrl Pts',(28.1706721818287,-12.4766690161392,27.766995682145));
#603=CARTESIAN_POINT('Ctrl Pts',(28.099239058388,-12.5395818660851,27.6792136106553));
#604=CARTESIAN_POINT('Ctrl Pts',(27.93465976975,-12.6669671437386,27.5385144445798));
#605=CARTESIAN_POINT('Ctrl Pts',(27.8432836772216,-12.7301128420818,27.4864686482162));
#606=CARTESIAN_POINT('Ctrl Pts',(27.6856319789296,-12.8084004678854,27.4295142386172));
#607=CARTESIAN_POINT('Ctrl Pts',(27.6183338184575,-12.834288724627,27.413237858548));
#608=CARTESIAN_POINT('Ctrl Pts',(27.4794718317245,-12.8615976563989,27.3979426929257));
#609=CARTESIAN_POINT('Ctrl Pts',(27.4124009766615,-12.8635842495204,27.398166825097));
#610=CARTESIAN_POINT('Ctrl Pts',(27.2531890293753,-12.8420095153455,27.4166897094243));
#611=CARTESIAN_POINT('Ctrl Pts',(27.1710828627543,-12.8114930711538,27.440289964495));
#612=CARTESIAN_POINT('Ctrl Pts',(26.9969083749513,-12.7311003262396,27.5110688428443));
#613=CARTESIAN_POINT('Ctrl Pts',(26.8945697813329,-12.6657114468728,27.5750800396687));
#614=CARTESIAN_POINT('Ctrl Pts',(26.7225306434559,-12.5442512817258,27.7418635187479));
#615=CARTESIAN_POINT('Ctrl Pts',(26.6526994561577,-12.4891926425634,27.8395115622516));
#616=CARTESIAN_POINT('Ctrl Pts',(26.5775037043663,-12.4286689669479,28.0141599952486));
#617=CARTESIAN_POINT('Ctrl Pts',(26.5575356170495,-12.4121993419992,28.0795978546756));
#618=CARTESIAN_POINT('Ctrl Pts',(26.5380380446397,-12.3960664799856,28.1902518504461));
#619=CARTESIAN_POINT('Ctrl Pts',(26.5336637876502,-12.3924221253739,28.2329695119028));
#620=CARTESIAN_POINT('Ctrl Pts',(26.5313962810211,-12.3905352773218,28.3161279670094));
#621=CARTESIAN_POINT('Ctrl Pts',(26.5330466909803,-12.391912039898,28.3560797433671));
#622=CARTESIAN_POINT('Ctrl Pts',(26.543238010471,-12.4003743177456,28.4484317130213));
#623=CARTESIAN_POINT('Ctrl Pts',(26.5537441677454,-12.4090910360588,28.4998876914358));
#624=CARTESIAN_POINT('Ctrl Pts',(26.6006647991236,-12.4475086028608,28.6575950683639));
#625=CARTESIAN_POINT('Ctrl Pts',(26.6519270032327,-12.4890826571677,28.7546774371336));
#626=CARTESIAN_POINT('Ctrl Pts',(26.801646060851,-12.6020259793899,28.9497505354015));
#627=CARTESIAN_POINT('Ctrl Pts',(26.9073809892597,-12.6767842030141,29.0343397524093));
#628=CARTESIAN_POINT('Ctrl Pts',(27.0903067861813,-12.7766008809919,29.1305342073558));
#629=CARTESIAN_POINT('Ctrl Pts',(27.1694499869434,-12.8130121281017,29.1603209215167));
#630=CARTESIAN_POINT('Ctrl Pts',(27.3169123676536,-12.8529494537683,29.1925771726107));
#631=CARTESIAN_POINT('Ctrl Pts',(27.381898053354,-12.8620516324461,29.2));
#632=CARTESIAN_POINT('Ctrl Pts',(27.4490708257291,-12.8597059075459,29.2));
#633=CARTESIAN_POINT('',(28.3749573868888,-13.5852904711029,28.3));
#634=CARTESIAN_POINT('Origin',(27.,-1.11022302462516E-15,28.3));
#635=CARTESIAN_POINT('',(37.1253482471295,9.11690451163945,29.3928746497197));
#636=CARTESIAN_POINT('',(13.5075975633961,1.89623350058088,29.3928746497197));
#637=CARTESIAN_POINT('Origin',(27.,-1.11022302462516E-15,29.3928746497197));
#638=CARTESIAN_POINT('Origin',(27.,-1.11022302462516E-15,29.3928746497197));
#639=CARTESIAN_POINT('',(13.5075975633961,1.89623350058088,27.2071253502803));
#640=CARTESIAN_POINT('Origin',(13.6313810719888,1.87883686296088,28.3));
#641=CARTESIAN_POINT('',(37.1253482471295,9.11690451163945,27.2071253502803));
#642=CARTESIAN_POINT('Origin',(27.,-1.11022302462516E-15,27.2071253502803));
#643=CARTESIAN_POINT('Origin',(27.,-1.11022302462516E-15,27.2071253502803));
#644=CARTESIAN_POINT('Origin',(27.,0.,26.7));
#645=CARTESIAN_POINT('',(37.1253482471295,9.11690451163945,26.4));
#646=CARTESIAN_POINT('',(37.1253482471295,9.11690451163945,26.7));
#647=CARTESIAN_POINT('Origin',(27.,0.,26.4));
#648=CARTESIAN_POINT('Origin',(27.,0.,26.7));
#649=CARTESIAN_POINT('',(30.7900386099347,3.41256609243018,30.2));
#650=CARTESIAN_POINT('Origin',(27.,0.,30.2));
#651=CARTESIAN_POINT('',(30.7900386099347,3.41256609243018,26.4));
#652=CARTESIAN_POINT('',(30.7900386099347,3.41256609243018,26.7));
#653=CARTESIAN_POINT('Origin',(27.,0.,26.4));
#654=CARTESIAN_POINT('Origin',(27.,0.,26.7));
#655=CARTESIAN_POINT('',(37.1253482471295,9.11690451163945,30.2));
#656=CARTESIAN_POINT('Origin',(27.,0.,30.2));
#657=CARTESIAN_POINT('',(37.1253482471295,9.11690451163945,26.7));
#658=CARTESIAN_POINT('Origin',(27.,0.,30.2));
#659=CARTESIAN_POINT('Origin',(27.,0.,26.4));
#660=UNCERTAINTY_MEASURE_WITH_UNIT(LENGTH_MEASURE(0.01),#664,
'DISTANCE_ACCURACY_VALUE',
'Maximum model space distance between geometric entities at asserted c
onnectivities');
#661=UNCERTAINTY_MEASURE_WITH_UNIT(LENGTH_MEASURE(0.01),#664,
'DISTANCE_ACCURACY_VALUE',
'Maximum model space distance between geometric entities at asserted c
onnectivities');
#662=(
GEOMETRIC_REPRESENTATION_CONTEXT(3)
GLOBAL_UNCERTAINTY_ASSIGNED_CONTEXT((#660))
GLOBAL_UNIT_ASSIGNED_CONTEXT((#664,#666,#667))
REPRESENTATION_CONTEXT('','3D')
);
#663=(
GEOMETRIC_REPRESENTATION_CONTEXT(3)
GLOBAL_UNCERTAINTY_ASSIGNED_CONTEXT((#661))
GLOBAL_UNIT_ASSIGNED_CONTEXT((#664,#666,#667))
REPRESENTATION_CONTEXT('','3D')
);
#664=(
LENGTH_UNIT()
NAMED_UNIT(*)
SI_UNIT(.MILLI.,.METRE.)
);
#665=(
LENGTH_UNIT()
NAMED_UNIT(*)
SI_UNIT($,.METRE.)
);
#666=(
NAMED_UNIT(*)
PLANE_ANGLE_UNIT()
SI_UNIT($,.RADIAN.)
);
#667=(
NAMED_UNIT(*)
SI_UNIT($,.STERADIAN.)
SOLID_ANGLE_UNIT()
);
#668=SHAPE_DEFINITION_REPRESENTATION(#669,#670);
#669=PRODUCT_DEFINITION_SHAPE('',$,#672);
#670=SHAPE_REPRESENTATION('',(#294),#662);
#671=PRODUCT_DEFINITION_CONTEXT('part definition',#676,'design');
#672=PRODUCT_DEFINITION('reel','reel',#673,#671);
#673=PRODUCT_DEFINITION_FORMATION('',$,#678);
#674=PRODUCT_RELATED_PRODUCT_CATEGORY('reel','reel',(#678));
#675=APPLICATION_PROTOCOL_DEFINITION('international standard',
'automotive_design',2009,#676);
#676=APPLICATION_CONTEXT(
'Core Data for Automotive Mechanical Design Process');
#677=PRODUCT_CONTEXT('part definition',#676,'mechanical');
#678=PRODUCT('reel','reel',$,(#677));
#679=PRESENTATION_STYLE_ASSIGNMENT((#680));
#680=SURFACE_STYLE_USAGE(.BOTH.,#681);
#681=SURFACE_SIDE_STYLE('',(#682));
#682=SURFACE_STYLE_FILL_AREA(#683);
#683=FILL_AREA_STYLE('Steel - Satin',(#684));
#684=FILL_AREA_STYLE_COLOUR('Steel - Satin',#685);
#685=COLOUR_RGB('Steel - Satin',0.627450980392157,0.627450980392157,0.627450980392157);
ENDSEC;
END-ISO-10303-21;
