ISO-10303-21;
HEADER;
/* Generated by software containing ST-Developer
 * from STEP Tools, Inc. (www.steptools.com) 
 */

FILE_DESCRIPTION(
/* description */ (''),
/* implementation_level */ '2;1');

FILE_NAME(
/* name */ 'Servo_motor_CAD.step',
/* time_stamp */ '2026-08-19T10:14:01-05:00',
/* author */ (''),
/* organization */ (''),
/* preprocessor_version */ 'ST-DEVELOPER v20.1',
/* originating_system */ 'Autodesk Translation Framework v15.8.0.0',
/* authorisation */ '');

FILE_SCHEMA (('AUTOMOTIVE_DESIGN { 1 0 10303 214 3 1 1 }'));
ENDSEC;

DATA;
#10=MECHANICAL_DESIGN_GEOMETRIC_PRESENTATION_REPRESENTATION('',(#13),#870);
#11=SHAPE_REPRESENTATION_RELATIONSHIP('SRR','None',#877,#12);
#12=ADVANCED_BREP_SHAPE_REPRESENTATION('',(#14),#869);
#13=STYLED_ITEM('',(#887),#14);
#14=MANIFOLD_SOLID_BREP('motor',#525);
#15=FACE_BOUND('',#81,.T.);
#16=CIRCLE('',#542,1.);
#17=CIRCLE('',#543,1.);
#18=CIRCLE('',#546,1.);
#19=CIRCLE('',#547,1.);
#20=CIRCLE('',#562,2.25);
#21=CIRCLE('',#563,2.25);
#22=CIRCLE('',#566,5.875);
#23=CIRCLE('',#567,5.875);
#24=CIRCLE('',#568,5.875);
#25=CIRCLE('',#569,5.875);
#26=CIRCLE('',#570,5.875);
#27=CYLINDRICAL_SURFACE('',#541,1.);
#28=CYLINDRICAL_SURFACE('',#545,1.);
#29=CYLINDRICAL_SURFACE('',#561,2.25);
#30=CYLINDRICAL_SURFACE('',#565,5.875);
#31=FACE_OUTER_BOUND('',#59,.T.);
#32=FACE_OUTER_BOUND('',#60,.T.);
#33=FACE_OUTER_BOUND('',#61,.T.);
#34=FACE_OUTER_BOUND('',#62,.T.);
#35=FACE_OUTER_BOUND('',#63,.T.);
#36=FACE_OUTER_BOUND('',#64,.T.);
#37=FACE_OUTER_BOUND('',#65,.T.);
#38=FACE_OUTER_BOUND('',#66,.T.);
#39=FACE_OUTER_BOUND('',#67,.T.);
#40=FACE_OUTER_BOUND('',#68,.T.);
#41=FACE_OUTER_BOUND('',#69,.T.);
#42=FACE_OUTER_BOUND('',#70,.T.);
#43=FACE_OUTER_BOUND('',#71,.T.);
#44=FACE_OUTER_BOUND('',#72,.T.);
#45=FACE_OUTER_BOUND('',#73,.T.);
#46=FACE_OUTER_BOUND('',#74,.T.);
#47=FACE_OUTER_BOUND('',#75,.T.);
#48=FACE_OUTER_BOUND('',#76,.T.);
#49=FACE_OUTER_BOUND('',#77,.T.);
#50=FACE_OUTER_BOUND('',#78,.T.);
#51=FACE_OUTER_BOUND('',#79,.T.);
#52=FACE_OUTER_BOUND('',#80,.T.);
#53=FACE_OUTER_BOUND('',#82,.T.);
#54=FACE_OUTER_BOUND('',#83,.T.);
#55=FACE_OUTER_BOUND('',#84,.T.);
#56=FACE_OUTER_BOUND('',#85,.T.);
#57=FACE_OUTER_BOUND('',#86,.T.);
#58=FACE_OUTER_BOUND('',#87,.T.);
#59=EDGE_LOOP('',(#329,#330,#331,#332));
#60=EDGE_LOOP('',(#333,#334,#335,#336));
#61=EDGE_LOOP('',(#337,#338,#339,#340));
#62=EDGE_LOOP('',(#341,#342,#343,#344));
#63=EDGE_LOOP('',(#345,#346,#347,#348));
#64=EDGE_LOOP('',(#349,#350,#351,#352));
#65=EDGE_LOOP('',(#353,#354,#355,#356,#357,#358,#359,#360));
#66=EDGE_LOOP('',(#361,#362,#363,#364));
#67=EDGE_LOOP('',(#365,#366,#367,#368));
#68=EDGE_LOOP('',(#369,#370,#371,#372));
#69=EDGE_LOOP('',(#373,#374,#375,#376,#377,#378,#379,#380));
#70=EDGE_LOOP('',(#381,#382,#383,#384));
#71=EDGE_LOOP('',(#385,#386,#387,#388,#389,#390,#391,#392));
#72=EDGE_LOOP('',(#393,#394,#395,#396));
#73=EDGE_LOOP('',(#397,#398,#399,#400,#401,#402,#403,#404));
#74=EDGE_LOOP('',(#405,#406,#407,#408));
#75=EDGE_LOOP('',(#409,#410,#411,#412,#413,#414,#415,#416,#417,#418,#419,
#420,#421));
#76=EDGE_LOOP('',(#422,#423,#424,#425,#426));
#77=EDGE_LOOP('',(#427,#428,#429,#430));
#78=EDGE_LOOP('',(#431));
#79=EDGE_LOOP('',(#432,#433,#434,#435,#436,#437,#438));
#80=EDGE_LOOP('',(#439));
#81=EDGE_LOOP('',(#440));
#82=EDGE_LOOP('',(#441,#442,#443,#444,#445,#446,#447,#448,#449,#450,#451,
#452,#453));
#83=EDGE_LOOP('',(#454,#455,#456));
#84=EDGE_LOOP('',(#457,#458,#459,#460,#461));
#85=EDGE_LOOP('',(#462,#463,#464));
#86=EDGE_LOOP('',(#465,#466,#467,#468));
#87=EDGE_LOOP('',(#469,#470,#471,#472));
#88=LINE('',#723,#149);
#89=LINE('',#725,#150);
#90=LINE('',#727,#151);
#91=LINE('',#728,#152);
#92=LINE('',#732,#153);
#93=LINE('',#734,#154);
#94=LINE('',#736,#155);
#95=LINE('',#737,#156);
#96=LINE('',#744,#157);
#97=LINE('',#746,#158);
#98=LINE('',#748,#159);
#99=LINE('',#749,#160);
#100=LINE('',#754,#161);
#101=LINE('',#758,#162);
#102=LINE('',#760,#163);
#103=LINE('',#761,#164);
#104=LINE('',#764,#165);
#105=LINE('',#766,#166);
#106=LINE('',#768,#167);
#107=LINE('',#770,#168);
#108=LINE('',#771,#169);
#109=LINE('',#774,#170);
#110=LINE('',#775,#171);
#111=LINE('',#778,#172);
#112=LINE('',#780,#173);
#113=LINE('',#781,#174);
#114=LINE('',#784,#175);
#115=LINE('',#786,#176);
#116=LINE('',#787,#177);
#117=LINE('',#790,#178);
#118=LINE('',#792,#179);
#119=LINE('',#793,#180);
#120=LINE('',#797,#181);
#121=LINE('',#799,#182);
#122=LINE('',#801,#183);
#123=LINE('',#802,#184);
#124=LINE('',#805,#185);
#125=LINE('',#806,#186);
#126=LINE('',#807,#187);
#127=LINE('',#811,#188);
#128=LINE('',#813,#189);
#129=LINE('',#815,#190);
#130=LINE('',#816,#191);
#131=LINE('',#818,#192);
#132=LINE('',#819,#193);
#133=LINE('',#821,#194);
#134=LINE('',#824,#195);
#135=LINE('',#826,#196);
#136=LINE('',#828,#197);
#137=LINE('',#829,#198);
#138=LINE('',#830,#199);
#139=LINE('',#833,#200);
#140=LINE('',#835,#201);
#141=LINE('',#836,#202);
#142=LINE('',#841,#203);
#143=LINE('',#848,#204);
#144=LINE('',#856,#205);
#145=LINE('',#858,#206);
#146=LINE('',#859,#207);
#147=LINE('',#860,#208);
#148=LINE('',#863,#209);
#149=VECTOR('',#582,10.);
#150=VECTOR('',#583,10.);
#151=VECTOR('',#584,10.);
#152=VECTOR('',#585,10.);
#153=VECTOR('',#588,10.);
#154=VECTOR('',#589,10.);
#155=VECTOR('',#590,10.);
#156=VECTOR('',#591,10.);
#157=VECTOR('',#600,10.);
#158=VECTOR('',#601,10.);
#159=VECTOR('',#602,10.);
#160=VECTOR('',#603,10.);
#161=VECTOR('',#608,10.);
#162=VECTOR('',#613,10.);
#163=VECTOR('',#614,10.);
#164=VECTOR('',#615,10.);
#165=VECTOR('',#618,10.);
#166=VECTOR('',#619,10.);
#167=VECTOR('',#620,10.);
#168=VECTOR('',#621,10.);
#169=VECTOR('',#622,10.);
#170=VECTOR('',#625,10.);
#171=VECTOR('',#626,10.);
#172=VECTOR('',#629,10.);
#173=VECTOR('',#630,10.);
#174=VECTOR('',#631,10.);
#175=VECTOR('',#634,10.);
#176=VECTOR('',#635,10.);
#177=VECTOR('',#636,10.);
#178=VECTOR('',#639,10.);
#179=VECTOR('',#640,10.);
#180=VECTOR('',#641,10.);
#181=VECTOR('',#644,10.);
#182=VECTOR('',#645,10.);
#183=VECTOR('',#646,10.);
#184=VECTOR('',#647,10.);
#185=VECTOR('',#650,10.);
#186=VECTOR('',#651,10.);
#187=VECTOR('',#652,10.);
#188=VECTOR('',#655,10.);
#189=VECTOR('',#656,10.);
#190=VECTOR('',#657,10.);
#191=VECTOR('',#658,10.);
#192=VECTOR('',#661,10.);
#193=VECTOR('',#662,10.);
#194=VECTOR('',#665,10.);
#195=VECTOR('',#668,10.);
#196=VECTOR('',#669,10.);
#197=VECTOR('',#670,10.);
#198=VECTOR('',#671,10.);
#199=VECTOR('',#672,10.);
#200=VECTOR('',#675,10.);
#201=VECTOR('',#676,10.);
#202=VECTOR('',#677,10.);
#203=VECTOR('',#682,2.25);
#204=VECTOR('',#691,5.875);
#205=VECTOR('',#704,10.);
#206=VECTOR('',#705,10.);
#207=VECTOR('',#706,10.);
#208=VECTOR('',#707,10.);
#209=VECTOR('',#712,10.);
#210=VERTEX_POINT('',#721);
#211=VERTEX_POINT('',#722);
#212=VERTEX_POINT('',#724);
#213=VERTEX_POINT('',#726);
#214=VERTEX_POINT('',#730);
#215=VERTEX_POINT('',#731);
#216=VERTEX_POINT('',#733);
#217=VERTEX_POINT('',#735);
#218=VERTEX_POINT('',#742);
#219=VERTEX_POINT('',#743);
#220=VERTEX_POINT('',#745);
#221=VERTEX_POINT('',#747);
#222=VERTEX_POINT('',#751);
#223=VERTEX_POINT('',#753);
#224=VERTEX_POINT('',#757);
#225=VERTEX_POINT('',#759);
#226=VERTEX_POINT('',#763);
#227=VERTEX_POINT('',#765);
#228=VERTEX_POINT('',#767);
#229=VERTEX_POINT('',#769);
#230=VERTEX_POINT('',#773);
#231=VERTEX_POINT('',#777);
#232=VERTEX_POINT('',#779);
#233=VERTEX_POINT('',#783);
#234=VERTEX_POINT('',#785);
#235=VERTEX_POINT('',#789);
#236=VERTEX_POINT('',#791);
#237=VERTEX_POINT('',#795);
#238=VERTEX_POINT('',#796);
#239=VERTEX_POINT('',#798);
#240=VERTEX_POINT('',#800);
#241=VERTEX_POINT('',#804);
#242=VERTEX_POINT('',#809);
#243=VERTEX_POINT('',#810);
#244=VERTEX_POINT('',#812);
#245=VERTEX_POINT('',#814);
#246=VERTEX_POINT('',#823);
#247=VERTEX_POINT('',#825);
#248=VERTEX_POINT('',#827);
#249=VERTEX_POINT('',#832);
#250=VERTEX_POINT('',#834);
#251=VERTEX_POINT('',#838);
#252=VERTEX_POINT('',#840);
#253=VERTEX_POINT('',#845);
#254=VERTEX_POINT('',#847);
#255=VERTEX_POINT('',#851);
#256=VERTEX_POINT('',#857);
#257=EDGE_CURVE('',#210,#211,#88,.T.);
#258=EDGE_CURVE('',#212,#210,#89,.T.);
#259=EDGE_CURVE('',#213,#212,#90,.T.);
#260=EDGE_CURVE('',#211,#213,#91,.T.);
#261=EDGE_CURVE('',#214,#215,#92,.T.);
#262=EDGE_CURVE('',#214,#216,#93,.T.);
#263=EDGE_CURVE('',#217,#216,#94,.T.);
#264=EDGE_CURVE('',#215,#217,#95,.T.);
#265=EDGE_CURVE('',#211,#214,#16,.T.);
#266=EDGE_CURVE('',#216,#213,#17,.T.);
#267=EDGE_CURVE('',#218,#219,#96,.T.);
#268=EDGE_CURVE('',#218,#220,#97,.T.);
#269=EDGE_CURVE('',#221,#220,#98,.T.);
#270=EDGE_CURVE('',#219,#221,#99,.T.);
#271=EDGE_CURVE('',#222,#218,#18,.T.);
#272=EDGE_CURVE('',#222,#223,#100,.T.);
#273=EDGE_CURVE('',#220,#223,#19,.T.);
#274=EDGE_CURVE('',#224,#222,#101,.T.);
#275=EDGE_CURVE('',#225,#224,#102,.T.);
#276=EDGE_CURVE('',#223,#225,#103,.T.);
#277=EDGE_CURVE('',#212,#226,#104,.T.);
#278=EDGE_CURVE('',#226,#227,#105,.T.);
#279=EDGE_CURVE('',#228,#227,#106,.T.);
#280=EDGE_CURVE('',#228,#229,#107,.T.);
#281=EDGE_CURVE('',#229,#217,#108,.T.);
#282=EDGE_CURVE('',#210,#230,#109,.T.);
#283=EDGE_CURVE('',#230,#226,#110,.T.);
#284=EDGE_CURVE('',#224,#231,#111,.T.);
#285=EDGE_CURVE('',#231,#232,#112,.T.);
#286=EDGE_CURVE('',#225,#232,#113,.T.);
#287=EDGE_CURVE('',#233,#221,#114,.T.);
#288=EDGE_CURVE('',#234,#233,#115,.T.);
#289=EDGE_CURVE('',#234,#219,#116,.T.);
#290=EDGE_CURVE('',#232,#235,#117,.T.);
#291=EDGE_CURVE('',#236,#235,#118,.T.);
#292=EDGE_CURVE('',#236,#233,#119,.T.);
#293=EDGE_CURVE('',#237,#238,#120,.T.);
#294=EDGE_CURVE('',#239,#237,#121,.T.);
#295=EDGE_CURVE('',#239,#240,#122,.T.);
#296=EDGE_CURVE('',#238,#240,#123,.T.);
#297=EDGE_CURVE('',#241,#215,#124,.T.);
#298=EDGE_CURVE('',#240,#241,#125,.T.);
#299=EDGE_CURVE('',#230,#239,#126,.T.);
#300=EDGE_CURVE('',#242,#243,#127,.T.);
#301=EDGE_CURVE('',#244,#242,#128,.T.);
#302=EDGE_CURVE('',#244,#245,#129,.T.);
#303=EDGE_CURVE('',#243,#245,#130,.T.);
#304=EDGE_CURVE('',#245,#234,#131,.T.);
#305=EDGE_CURVE('',#231,#244,#132,.T.);
#306=EDGE_CURVE('',#241,#229,#133,.T.);
#307=EDGE_CURVE('',#228,#246,#134,.T.);
#308=EDGE_CURVE('',#247,#246,#135,.T.);
#309=EDGE_CURVE('',#248,#247,#136,.T.);
#310=EDGE_CURVE('',#235,#248,#137,.T.);
#311=EDGE_CURVE('',#242,#238,#138,.T.);
#312=EDGE_CURVE('',#227,#249,#139,.T.);
#313=EDGE_CURVE('',#250,#249,#140,.T.);
#314=EDGE_CURVE('',#246,#250,#141,.T.);
#315=EDGE_CURVE('',#251,#251,#20,.T.);
#316=EDGE_CURVE('',#251,#252,#142,.T.);
#317=EDGE_CURVE('',#252,#252,#21,.T.);
#318=EDGE_CURVE('',#253,#253,#22,.T.);
#319=EDGE_CURVE('',#253,#254,#143,.T.);
#320=EDGE_CURVE('',#247,#254,#23,.T.);
#321=EDGE_CURVE('',#250,#247,#24,.T.);
#322=EDGE_CURVE('',#255,#250,#25,.T.);
#323=EDGE_CURVE('',#254,#255,#26,.T.);
#324=EDGE_CURVE('',#243,#237,#144,.T.);
#325=EDGE_CURVE('',#236,#256,#145,.T.);
#326=EDGE_CURVE('',#255,#256,#146,.T.);
#327=EDGE_CURVE('',#249,#255,#147,.T.);
#328=EDGE_CURVE('',#256,#248,#148,.T.);
#329=ORIENTED_EDGE('',*,*,#257,.F.);
#330=ORIENTED_EDGE('',*,*,#258,.F.);
#331=ORIENTED_EDGE('',*,*,#259,.F.);
#332=ORIENTED_EDGE('',*,*,#260,.F.);
#333=ORIENTED_EDGE('',*,*,#261,.F.);
#334=ORIENTED_EDGE('',*,*,#262,.T.);
#335=ORIENTED_EDGE('',*,*,#263,.F.);
#336=ORIENTED_EDGE('',*,*,#264,.F.);
#337=ORIENTED_EDGE('',*,*,#265,.F.);
#338=ORIENTED_EDGE('',*,*,#260,.T.);
#339=ORIENTED_EDGE('',*,*,#266,.F.);
#340=ORIENTED_EDGE('',*,*,#262,.F.);
#341=ORIENTED_EDGE('',*,*,#267,.F.);
#342=ORIENTED_EDGE('',*,*,#268,.T.);
#343=ORIENTED_EDGE('',*,*,#269,.F.);
#344=ORIENTED_EDGE('',*,*,#270,.F.);
#345=ORIENTED_EDGE('',*,*,#271,.F.);
#346=ORIENTED_EDGE('',*,*,#272,.T.);
#347=ORIENTED_EDGE('',*,*,#273,.F.);
#348=ORIENTED_EDGE('',*,*,#268,.F.);
#349=ORIENTED_EDGE('',*,*,#274,.F.);
#350=ORIENTED_EDGE('',*,*,#275,.F.);
#351=ORIENTED_EDGE('',*,*,#276,.F.);
#352=ORIENTED_EDGE('',*,*,#272,.F.);
#353=ORIENTED_EDGE('',*,*,#263,.T.);
#354=ORIENTED_EDGE('',*,*,#266,.T.);
#355=ORIENTED_EDGE('',*,*,#259,.T.);
#356=ORIENTED_EDGE('',*,*,#277,.T.);
#357=ORIENTED_EDGE('',*,*,#278,.T.);
#358=ORIENTED_EDGE('',*,*,#279,.F.);
#359=ORIENTED_EDGE('',*,*,#280,.T.);
#360=ORIENTED_EDGE('',*,*,#281,.T.);
#361=ORIENTED_EDGE('',*,*,#258,.T.);
#362=ORIENTED_EDGE('',*,*,#282,.T.);
#363=ORIENTED_EDGE('',*,*,#283,.T.);
#364=ORIENTED_EDGE('',*,*,#277,.F.);
#365=ORIENTED_EDGE('',*,*,#275,.T.);
#366=ORIENTED_EDGE('',*,*,#284,.T.);
#367=ORIENTED_EDGE('',*,*,#285,.T.);
#368=ORIENTED_EDGE('',*,*,#286,.F.);
#369=ORIENTED_EDGE('',*,*,#270,.T.);
#370=ORIENTED_EDGE('',*,*,#287,.F.);
#371=ORIENTED_EDGE('',*,*,#288,.F.);
#372=ORIENTED_EDGE('',*,*,#289,.T.);
#373=ORIENTED_EDGE('',*,*,#269,.T.);
#374=ORIENTED_EDGE('',*,*,#273,.T.);
#375=ORIENTED_EDGE('',*,*,#276,.T.);
#376=ORIENTED_EDGE('',*,*,#286,.T.);
#377=ORIENTED_EDGE('',*,*,#290,.T.);
#378=ORIENTED_EDGE('',*,*,#291,.F.);
#379=ORIENTED_EDGE('',*,*,#292,.T.);
#380=ORIENTED_EDGE('',*,*,#287,.T.);
#381=ORIENTED_EDGE('',*,*,#293,.F.);
#382=ORIENTED_EDGE('',*,*,#294,.F.);
#383=ORIENTED_EDGE('',*,*,#295,.T.);
#384=ORIENTED_EDGE('',*,*,#296,.F.);
#385=ORIENTED_EDGE('',*,*,#261,.T.);
#386=ORIENTED_EDGE('',*,*,#297,.F.);
#387=ORIENTED_EDGE('',*,*,#298,.F.);
#388=ORIENTED_EDGE('',*,*,#295,.F.);
#389=ORIENTED_EDGE('',*,*,#299,.F.);
#390=ORIENTED_EDGE('',*,*,#282,.F.);
#391=ORIENTED_EDGE('',*,*,#257,.T.);
#392=ORIENTED_EDGE('',*,*,#265,.T.);
#393=ORIENTED_EDGE('',*,*,#300,.F.);
#394=ORIENTED_EDGE('',*,*,#301,.F.);
#395=ORIENTED_EDGE('',*,*,#302,.T.);
#396=ORIENTED_EDGE('',*,*,#303,.F.);
#397=ORIENTED_EDGE('',*,*,#267,.T.);
#398=ORIENTED_EDGE('',*,*,#289,.F.);
#399=ORIENTED_EDGE('',*,*,#304,.F.);
#400=ORIENTED_EDGE('',*,*,#302,.F.);
#401=ORIENTED_EDGE('',*,*,#305,.F.);
#402=ORIENTED_EDGE('',*,*,#284,.F.);
#403=ORIENTED_EDGE('',*,*,#274,.T.);
#404=ORIENTED_EDGE('',*,*,#271,.T.);
#405=ORIENTED_EDGE('',*,*,#264,.T.);
#406=ORIENTED_EDGE('',*,*,#281,.F.);
#407=ORIENTED_EDGE('',*,*,#306,.F.);
#408=ORIENTED_EDGE('',*,*,#297,.T.);
#409=ORIENTED_EDGE('',*,*,#296,.T.);
#410=ORIENTED_EDGE('',*,*,#298,.T.);
#411=ORIENTED_EDGE('',*,*,#306,.T.);
#412=ORIENTED_EDGE('',*,*,#280,.F.);
#413=ORIENTED_EDGE('',*,*,#307,.T.);
#414=ORIENTED_EDGE('',*,*,#308,.F.);
#415=ORIENTED_EDGE('',*,*,#309,.F.);
#416=ORIENTED_EDGE('',*,*,#310,.F.);
#417=ORIENTED_EDGE('',*,*,#290,.F.);
#418=ORIENTED_EDGE('',*,*,#285,.F.);
#419=ORIENTED_EDGE('',*,*,#305,.T.);
#420=ORIENTED_EDGE('',*,*,#301,.T.);
#421=ORIENTED_EDGE('',*,*,#311,.T.);
#422=ORIENTED_EDGE('',*,*,#279,.T.);
#423=ORIENTED_EDGE('',*,*,#312,.T.);
#424=ORIENTED_EDGE('',*,*,#313,.F.);
#425=ORIENTED_EDGE('',*,*,#314,.F.);
#426=ORIENTED_EDGE('',*,*,#307,.F.);
#427=ORIENTED_EDGE('',*,*,#315,.F.);
#428=ORIENTED_EDGE('',*,*,#316,.T.);
#429=ORIENTED_EDGE('',*,*,#317,.F.);
#430=ORIENTED_EDGE('',*,*,#316,.F.);
#431=ORIENTED_EDGE('',*,*,#315,.T.);
#432=ORIENTED_EDGE('',*,*,#318,.F.);
#433=ORIENTED_EDGE('',*,*,#319,.T.);
#434=ORIENTED_EDGE('',*,*,#320,.F.);
#435=ORIENTED_EDGE('',*,*,#321,.F.);
#436=ORIENTED_EDGE('',*,*,#322,.F.);
#437=ORIENTED_EDGE('',*,*,#323,.F.);
#438=ORIENTED_EDGE('',*,*,#319,.F.);
#439=ORIENTED_EDGE('',*,*,#318,.T.);
#440=ORIENTED_EDGE('',*,*,#317,.T.);
#441=ORIENTED_EDGE('',*,*,#294,.T.);
#442=ORIENTED_EDGE('',*,*,#324,.F.);
#443=ORIENTED_EDGE('',*,*,#303,.T.);
#444=ORIENTED_EDGE('',*,*,#304,.T.);
#445=ORIENTED_EDGE('',*,*,#288,.T.);
#446=ORIENTED_EDGE('',*,*,#292,.F.);
#447=ORIENTED_EDGE('',*,*,#325,.T.);
#448=ORIENTED_EDGE('',*,*,#326,.F.);
#449=ORIENTED_EDGE('',*,*,#327,.F.);
#450=ORIENTED_EDGE('',*,*,#312,.F.);
#451=ORIENTED_EDGE('',*,*,#278,.F.);
#452=ORIENTED_EDGE('',*,*,#283,.F.);
#453=ORIENTED_EDGE('',*,*,#299,.T.);
#454=ORIENTED_EDGE('',*,*,#321,.T.);
#455=ORIENTED_EDGE('',*,*,#308,.T.);
#456=ORIENTED_EDGE('',*,*,#314,.T.);
#457=ORIENTED_EDGE('',*,*,#320,.T.);
#458=ORIENTED_EDGE('',*,*,#323,.T.);
#459=ORIENTED_EDGE('',*,*,#326,.T.);
#460=ORIENTED_EDGE('',*,*,#328,.T.);
#461=ORIENTED_EDGE('',*,*,#309,.T.);
#462=ORIENTED_EDGE('',*,*,#322,.T.);
#463=ORIENTED_EDGE('',*,*,#313,.T.);
#464=ORIENTED_EDGE('',*,*,#327,.T.);
#465=ORIENTED_EDGE('',*,*,#293,.T.);
#466=ORIENTED_EDGE('',*,*,#311,.F.);
#467=ORIENTED_EDGE('',*,*,#300,.T.);
#468=ORIENTED_EDGE('',*,*,#324,.T.);
#469=ORIENTED_EDGE('',*,*,#291,.T.);
#470=ORIENTED_EDGE('',*,*,#310,.T.);
#471=ORIENTED_EDGE('',*,*,#328,.F.);
#472=ORIENTED_EDGE('',*,*,#325,.F.);
#473=PLANE('',#539);
#474=PLANE('',#540);
#475=PLANE('',#544);
#476=PLANE('',#548);
#477=PLANE('',#549);
#478=PLANE('',#550);
#479=PLANE('',#551);
#480=PLANE('',#552);
#481=PLANE('',#553);
#482=PLANE('',#554);
#483=PLANE('',#555);
#484=PLANE('',#556);
#485=PLANE('',#557);
#486=PLANE('',#558);
#487=PLANE('',#559);
#488=PLANE('',#560);
#489=PLANE('',#564);
#490=PLANE('',#571);
#491=PLANE('',#572);
#492=PLANE('',#573);
#493=PLANE('',#574);
#494=PLANE('',#575);
#495=PLANE('',#576);
#496=PLANE('',#577);
#497=ADVANCED_FACE('',(#31),#473,.F.);
#498=ADVANCED_FACE('',(#32),#474,.F.);
#499=ADVANCED_FACE('',(#33),#27,.F.);
#500=ADVANCED_FACE('',(#34),#475,.F.);
#501=ADVANCED_FACE('',(#35),#28,.F.);
#502=ADVANCED_FACE('',(#36),#476,.F.);
#503=ADVANCED_FACE('',(#37),#477,.T.);
#504=ADVANCED_FACE('',(#38),#478,.T.);
#505=ADVANCED_FACE('',(#39),#479,.T.);
#506=ADVANCED_FACE('',(#40),#480,.T.);
#507=ADVANCED_FACE('',(#41),#481,.T.);
#508=ADVANCED_FACE('',(#42),#482,.F.);
#509=ADVANCED_FACE('',(#43),#483,.F.);
#510=ADVANCED_FACE('',(#44),#484,.F.);
#511=ADVANCED_FACE('',(#45),#485,.F.);
#512=ADVANCED_FACE('',(#46),#486,.T.);
#513=ADVANCED_FACE('',(#47),#487,.T.);
#514=ADVANCED_FACE('',(#48),#488,.T.);
#515=ADVANCED_FACE('',(#49),#29,.T.);
#516=ADVANCED_FACE('',(#50),#489,.T.);
#517=ADVANCED_FACE('',(#51),#30,.T.);
#518=ADVANCED_FACE('',(#52,#15),#490,.T.);
#519=ADVANCED_FACE('',(#53),#491,.T.);
#520=ADVANCED_FACE('',(#54),#492,.T.);
#521=ADVANCED_FACE('',(#55),#493,.T.);
#522=ADVANCED_FACE('',(#56),#494,.T.);
#523=ADVANCED_FACE('',(#57),#495,.F.);
#524=ADVANCED_FACE('',(#58),#496,.T.);
#525=CLOSED_SHELL('',(#497,#498,#499,#500,#501,#502,#503,#504,#505,#506,
#507,#508,#509,#510,#511,#512,#513,#514,#515,#516,#517,#518,#519,#520,#521,
#522,#523,#524));
#526=DERIVED_UNIT_ELEMENT(#528,1.);
#527=DERIVED_UNIT_ELEMENT(#872,-3.);
#528=(
MASS_UNIT()
NAMED_UNIT(*)
SI_UNIT(.KILO.,.GRAM.)
);
#529=DERIVED_UNIT((#526,#527));
#530=MEASURE_REPRESENTATION_ITEM('density measure',
POSITIVE_RATIO_MEASURE(7850.),#529);
#531=PROPERTY_DEFINITION_REPRESENTATION(#536,#533);
#532=PROPERTY_DEFINITION_REPRESENTATION(#537,#534);
#533=REPRESENTATION('material name',(#535),#869);
#534=REPRESENTATION('density',(#530),#869);
#535=DESCRIPTIVE_REPRESENTATION_ITEM('Steel','Steel');
#536=PROPERTY_DEFINITION('material property','material name',#879);
#537=PROPERTY_DEFINITION('material property','density of part',#879);
#538=AXIS2_PLACEMENT_3D('',#719,#578,#579);
#539=AXIS2_PLACEMENT_3D('',#720,#580,#581);
#540=AXIS2_PLACEMENT_3D('',#729,#586,#587);
#541=AXIS2_PLACEMENT_3D('',#738,#592,#593);
#542=AXIS2_PLACEMENT_3D('',#739,#594,#595);
#543=AXIS2_PLACEMENT_3D('',#740,#596,#597);
#544=AXIS2_PLACEMENT_3D('',#741,#598,#599);
#545=AXIS2_PLACEMENT_3D('',#750,#604,#605);
#546=AXIS2_PLACEMENT_3D('',#752,#606,#607);
#547=AXIS2_PLACEMENT_3D('',#755,#609,#610);
#548=AXIS2_PLACEMENT_3D('',#756,#611,#612);
#549=AXIS2_PLACEMENT_3D('',#762,#616,#617);
#550=AXIS2_PLACEMENT_3D('',#772,#623,#624);
#551=AXIS2_PLACEMENT_3D('',#776,#627,#628);
#552=AXIS2_PLACEMENT_3D('',#782,#632,#633);
#553=AXIS2_PLACEMENT_3D('',#788,#637,#638);
#554=AXIS2_PLACEMENT_3D('',#794,#642,#643);
#555=AXIS2_PLACEMENT_3D('',#803,#648,#649);
#556=AXIS2_PLACEMENT_3D('',#808,#653,#654);
#557=AXIS2_PLACEMENT_3D('',#817,#659,#660);
#558=AXIS2_PLACEMENT_3D('',#820,#663,#664);
#559=AXIS2_PLACEMENT_3D('',#822,#666,#667);
#560=AXIS2_PLACEMENT_3D('',#831,#673,#674);
#561=AXIS2_PLACEMENT_3D('',#837,#678,#679);
#562=AXIS2_PLACEMENT_3D('',#839,#680,#681);
#563=AXIS2_PLACEMENT_3D('',#842,#683,#684);
#564=AXIS2_PLACEMENT_3D('',#843,#685,#686);
#565=AXIS2_PLACEMENT_3D('',#844,#687,#688);
#566=AXIS2_PLACEMENT_3D('',#846,#689,#690);
#567=AXIS2_PLACEMENT_3D('',#849,#692,#693);
#568=AXIS2_PLACEMENT_3D('',#850,#694,#695);
#569=AXIS2_PLACEMENT_3D('',#852,#696,#697);
#570=AXIS2_PLACEMENT_3D('',#853,#698,#699);
#571=AXIS2_PLACEMENT_3D('',#854,#700,#701);
#572=AXIS2_PLACEMENT_3D('',#855,#702,#703);
#573=AXIS2_PLACEMENT_3D('',#861,#708,#709);
#574=AXIS2_PLACEMENT_3D('',#862,#710,#711);
#575=AXIS2_PLACEMENT_3D('',#864,#713,#714);
#576=AXIS2_PLACEMENT_3D('',#865,#715,#716);
#577=AXIS2_PLACEMENT_3D('',#866,#717,#718);
#578=DIRECTION('axis',(0.,0.,1.));
#579=DIRECTION('refdir',(1.,0.,0.));
#580=DIRECTION('center_axis',(0.,1.,0.));
#581=DIRECTION('ref_axis',(-1.,0.,0.));
#582=DIRECTION('',(-1.,0.,0.));
#583=DIRECTION('',(0.,0.,-1.));
#584=DIRECTION('',(1.,0.,0.));
#585=DIRECTION('',(0.,0.,1.));
#586=DIRECTION('center_axis',(0.,-1.,0.));
#587=DIRECTION('ref_axis',(1.,0.,0.));
#588=DIRECTION('',(1.,0.,0.));
#589=DIRECTION('',(0.,0.,1.));
#590=DIRECTION('',(-1.,0.,0.));
#591=DIRECTION('',(0.,0.,1.));
#592=DIRECTION('center_axis',(0.,0.,1.));
#593=DIRECTION('ref_axis',(-1.,1.22464679914735E-16,0.));
#594=DIRECTION('center_axis',(0.,0.,1.));
#595=DIRECTION('ref_axis',(1.,0.,0.));
#596=DIRECTION('center_axis',(0.,0.,-1.));
#597=DIRECTION('ref_axis',(1.,0.,0.));
#598=DIRECTION('center_axis',(-4.44089209850063E-16,1.,0.));
#599=DIRECTION('ref_axis',(-1.,-4.44089209850063E-16,0.));
#600=DIRECTION('',(-1.,-4.44089209850063E-16,0.));
#601=DIRECTION('',(0.,0.,1.));
#602=DIRECTION('',(1.,4.44089209850063E-16,0.));
#603=DIRECTION('',(0.,0.,1.));
#604=DIRECTION('center_axis',(0.,0.,1.));
#605=DIRECTION('ref_axis',(1.,0.,0.));
#606=DIRECTION('center_axis',(0.,0.,1.));
#607=DIRECTION('ref_axis',(1.,0.,0.));
#608=DIRECTION('',(0.,0.,1.));
#609=DIRECTION('center_axis',(0.,0.,-1.));
#610=DIRECTION('ref_axis',(1.,0.,0.));
#611=DIRECTION('center_axis',(4.44089209850063E-16,-1.,0.));
#612=DIRECTION('ref_axis',(1.,4.44089209850063E-16,0.));
#613=DIRECTION('',(1.,4.44089209850063E-16,0.));
#614=DIRECTION('',(0.,0.,-1.));
#615=DIRECTION('',(-1.,-4.44089209850063E-16,0.));
#616=DIRECTION('center_axis',(0.,0.,1.));
#617=DIRECTION('ref_axis',(1.,0.,0.));
#618=DIRECTION('',(0.,1.,0.));
#619=DIRECTION('',(-1.,0.,0.));
#620=DIRECTION('',(0.,1.,0.));
#621=DIRECTION('',(1.,0.,0.));
#622=DIRECTION('',(0.,1.,0.));
#623=DIRECTION('center_axis',(1.,0.,0.));
#624=DIRECTION('ref_axis',(0.,1.,0.));
#625=DIRECTION('',(0.,1.,0.));
#626=DIRECTION('',(0.,0.,1.));
#627=DIRECTION('center_axis',(-1.,-3.77948263702181E-16,0.));
#628=DIRECTION('ref_axis',(3.77948263702181E-16,-1.,0.));
#629=DIRECTION('',(3.77948263702181E-16,-1.,0.));
#630=DIRECTION('',(0.,0.,1.));
#631=DIRECTION('',(3.77948263702181E-16,-1.,0.));
#632=DIRECTION('center_axis',(-1.,-3.77948263702181E-16,0.));
#633=DIRECTION('ref_axis',(3.77948263702181E-16,-1.,0.));
#634=DIRECTION('',(3.77948263702181E-16,-1.,0.));
#635=DIRECTION('',(0.,0.,1.));
#636=DIRECTION('',(3.77948263702181E-16,-1.,0.));
#637=DIRECTION('center_axis',(0.,0.,1.));
#638=DIRECTION('ref_axis',(1.,0.,0.));
#639=DIRECTION('',(1.,0.,0.));
#640=DIRECTION('',(0.,-1.,0.));
#641=DIRECTION('',(-1.,-2.46716227694479E-16,0.));
#642=DIRECTION('center_axis',(-1.,0.,0.));
#643=DIRECTION('ref_axis',(0.,-1.,0.));
#644=DIRECTION('',(0.,-1.,0.));
#645=DIRECTION('',(0.,0.,-1.));
#646=DIRECTION('',(0.,-1.,0.));
#647=DIRECTION('',(0.,0.,1.));
#648=DIRECTION('center_axis',(0.,0.,1.));
#649=DIRECTION('ref_axis',(1.,0.,0.));
#650=DIRECTION('',(0.,1.,0.));
#651=DIRECTION('',(1.,0.,0.));
#652=DIRECTION('',(-1.,0.,0.));
#653=DIRECTION('center_axis',(1.,0.,0.));
#654=DIRECTION('ref_axis',(0.,1.,0.));
#655=DIRECTION('',(0.,1.,0.));
#656=DIRECTION('',(0.,0.,-1.));
#657=DIRECTION('',(0.,1.,0.));
#658=DIRECTION('',(0.,0.,1.));
#659=DIRECTION('center_axis',(0.,0.,1.));
#660=DIRECTION('ref_axis',(1.,0.,0.));
#661=DIRECTION('',(-1.,0.,0.));
#662=DIRECTION('',(1.,0.,0.));
#663=DIRECTION('center_axis',(1.,0.,0.));
#664=DIRECTION('ref_axis',(0.,1.,0.));
#665=DIRECTION('',(0.,0.,1.));
#666=DIRECTION('center_axis',(0.,-1.,0.));
#667=DIRECTION('ref_axis',(1.,0.,0.));
#668=DIRECTION('',(0.,0.,1.));
#669=DIRECTION('',(1.,0.,0.));
#670=DIRECTION('',(1.,0.,0.));
#671=DIRECTION('',(0.,0.,1.));
#672=DIRECTION('',(1.,0.,0.));
#673=DIRECTION('center_axis',(1.,0.,0.));
#674=DIRECTION('ref_axis',(0.,1.,0.));
#675=DIRECTION('',(0.,0.,1.));
#676=DIRECTION('',(0.,1.,0.));
#677=DIRECTION('',(0.,1.,0.));
#678=DIRECTION('center_axis',(0.,0.,1.));
#679=DIRECTION('ref_axis',(1.,0.,0.));
#680=DIRECTION('center_axis',(0.,0.,1.));
#681=DIRECTION('ref_axis',(1.,0.,0.));
#682=DIRECTION('',(0.,0.,-1.));
#683=DIRECTION('center_axis',(0.,0.,-1.));
#684=DIRECTION('ref_axis',(1.,0.,0.));
#685=DIRECTION('center_axis',(0.,0.,1.));
#686=DIRECTION('ref_axis',(1.,0.,0.));
#687=DIRECTION('center_axis',(0.,0.,1.));
#688=DIRECTION('ref_axis',(1.,0.,0.));
#689=DIRECTION('center_axis',(0.,0.,1.));
#690=DIRECTION('ref_axis',(1.,0.,0.));
#691=DIRECTION('',(0.,0.,-1.));
#692=DIRECTION('center_axis',(0.,0.,-1.));
#693=DIRECTION('ref_axis',(1.,0.,0.));
#694=DIRECTION('center_axis',(0.,0.,-1.));
#695=DIRECTION('ref_axis',(1.,0.,0.));
#696=DIRECTION('center_axis',(0.,0.,-1.));
#697=DIRECTION('ref_axis',(1.,0.,0.));
#698=DIRECTION('center_axis',(0.,0.,-1.));
#699=DIRECTION('ref_axis',(1.,0.,0.));
#700=DIRECTION('center_axis',(0.,0.,1.));
#701=DIRECTION('ref_axis',(1.,0.,0.));
#702=DIRECTION('center_axis',(0.,1.,0.));
#703=DIRECTION('ref_axis',(-1.,0.,0.));
#704=DIRECTION('',(1.,0.,0.));
#705=DIRECTION('',(0.,0.,1.));
#706=DIRECTION('',(-1.,0.,0.));
#707=DIRECTION('',(-1.,0.,0.));
#708=DIRECTION('center_axis',(0.,0.,1.));
#709=DIRECTION('ref_axis',(1.,0.,0.));
#710=DIRECTION('center_axis',(0.,0.,1.));
#711=DIRECTION('ref_axis',(1.,0.,0.));
#712=DIRECTION('',(0.,-1.,0.));
#713=DIRECTION('center_axis',(0.,0.,1.));
#714=DIRECTION('ref_axis',(1.,0.,0.));
#715=DIRECTION('center_axis',(0.,0.,1.));
#716=DIRECTION('ref_axis',(1.,0.,0.));
#717=DIRECTION('center_axis',(-1.,0.,0.));
#718=DIRECTION('ref_axis',(0.,-1.,0.));
#719=CARTESIAN_POINT('',(0.,0.,0.));
#720=CARTESIAN_POINT('Origin',(10.375,0.5,0.));
#721=CARTESIAN_POINT('',(10.375,0.5,16.3));
#722=CARTESIAN_POINT('',(8.74102540378444,0.5,16.3));
#723=CARTESIAN_POINT('',(9.25,0.5,16.3));
#724=CARTESIAN_POINT('',(10.375,0.5,18.3));
#725=CARTESIAN_POINT('',(10.375,0.499999999999999,0.));
#726=CARTESIAN_POINT('',(8.74102540378444,0.5,18.3));
#727=CARTESIAN_POINT('',(9.25,0.5,18.3));
#728=CARTESIAN_POINT('',(8.74102540378444,0.5,0.));
#729=CARTESIAN_POINT('Origin',(8.74102540378444,-0.5,0.));
#730=CARTESIAN_POINT('',(8.74102540378444,-0.5,16.3));
#731=CARTESIAN_POINT('',(10.375,-0.5,16.3));
#732=CARTESIAN_POINT('',(8.43301270189222,-0.5,16.3));
#733=CARTESIAN_POINT('',(8.74102540378444,-0.5,18.3));
#734=CARTESIAN_POINT('',(8.74102540378444,-0.5,0.));
#735=CARTESIAN_POINT('',(10.375,-0.5,18.3));
#736=CARTESIAN_POINT('',(8.43301270189222,-0.5,18.3));
#737=CARTESIAN_POINT('',(10.375,-0.5,0.));
#738=CARTESIAN_POINT('Origin',(7.875,-1.76787105832032E-16,0.));
#739=CARTESIAN_POINT('Origin',(7.875,-1.76787105832032E-16,16.3));
#740=CARTESIAN_POINT('Origin',(7.875,-1.76787105832032E-16,18.3));
#741=CARTESIAN_POINT('Origin',(-19.3910254037844,0.499999999999997,0.));
#742=CARTESIAN_POINT('',(-19.3910254037844,0.499999999999997,16.3));
#743=CARTESIAN_POINT('',(-21.025,0.499999999999996,16.3));
#744=CARTESIAN_POINT('',(-19.0830127018922,0.499999999999997,16.3));
#745=CARTESIAN_POINT('',(-19.3910254037844,0.499999999999997,18.3));
#746=CARTESIAN_POINT('',(-19.3910254037844,0.499999999999997,0.));
#747=CARTESIAN_POINT('',(-21.025,0.499999999999996,18.3));
#748=CARTESIAN_POINT('',(-19.0830127018922,0.499999999999997,18.3));
#749=CARTESIAN_POINT('',(-21.025,0.499999999999996,0.));
#750=CARTESIAN_POINT('Origin',(-18.525,-2.68313175806279E-15,0.));
#751=CARTESIAN_POINT('',(-19.3910254037844,-0.500000000000003,16.3));
#752=CARTESIAN_POINT('Origin',(-18.525,-2.68313175806279E-15,16.3));
#753=CARTESIAN_POINT('',(-19.3910254037844,-0.500000000000003,18.3));
#754=CARTESIAN_POINT('',(-19.3910254037844,-0.500000000000003,0.));
#755=CARTESIAN_POINT('Origin',(-18.525,-2.68313175806279E-15,18.3));
#756=CARTESIAN_POINT('Origin',(-21.025,-0.500000000000004,0.));
#757=CARTESIAN_POINT('',(-21.025,-0.500000000000004,16.3));
#758=CARTESIAN_POINT('',(-19.9,-0.500000000000003,16.3));
#759=CARTESIAN_POINT('',(-21.025,-0.500000000000004,18.3));
#760=CARTESIAN_POINT('',(-21.025,-0.500000000000004,0.));
#761=CARTESIAN_POINT('',(-19.9,-0.500000000000003,18.3));
#762=CARTESIAN_POINT('Origin',(8.125,0.,18.3));
#763=CARTESIAN_POINT('',(10.375,5.875,18.3));
#764=CARTESIAN_POINT('',(10.375,5.875,18.3));
#765=CARTESIAN_POINT('',(5.875,5.875,18.3));
#766=CARTESIAN_POINT('',(5.875,5.875,18.3));
#767=CARTESIAN_POINT('',(5.875,-5.875,18.3));
#768=CARTESIAN_POINT('',(5.875,-2.9375,18.3));
#769=CARTESIAN_POINT('',(10.375,-5.875,18.3));
#770=CARTESIAN_POINT('',(10.375,-5.875,18.3));
#771=CARTESIAN_POINT('',(10.375,5.875,18.3));
#772=CARTESIAN_POINT('Origin',(10.375,-5.875,0.));
#773=CARTESIAN_POINT('',(10.375,5.875,16.3));
#774=CARTESIAN_POINT('',(10.375,-2.9375,16.3));
#775=CARTESIAN_POINT('',(10.375,5.875,0.));
#776=CARTESIAN_POINT('Origin',(-21.025,5.875,0.));
#777=CARTESIAN_POINT('',(-21.025,-5.875,16.3));
#778=CARTESIAN_POINT('',(-21.025,2.9375,16.3));
#779=CARTESIAN_POINT('',(-21.025,-5.875,18.3));
#780=CARTESIAN_POINT('',(-21.025,-5.875,0.));
#781=CARTESIAN_POINT('',(-21.025,5.875,18.3));
#782=CARTESIAN_POINT('Origin',(-21.025,5.875,0.));
#783=CARTESIAN_POINT('',(-21.025,5.875,18.3));
#784=CARTESIAN_POINT('',(-21.025,5.875,18.3));
#785=CARTESIAN_POINT('',(-21.025,5.875,16.3));
#786=CARTESIAN_POINT('',(-21.025,5.875,0.));
#787=CARTESIAN_POINT('',(-21.025,2.9375,16.3));
#788=CARTESIAN_POINT('Origin',(-18.775,-2.22044604925031E-15,18.3));
#789=CARTESIAN_POINT('',(-16.525,-5.875,18.3));
#790=CARTESIAN_POINT('',(-21.025,-5.875,18.3));
#791=CARTESIAN_POINT('',(-16.525,5.875,18.3));
#792=CARTESIAN_POINT('',(-16.525,2.9375,18.3));
#793=CARTESIAN_POINT('',(-16.525,5.875,18.3));
#794=CARTESIAN_POINT('Origin',(5.875,5.875,0.));
#795=CARTESIAN_POINT('',(5.875,5.875,0.));
#796=CARTESIAN_POINT('',(5.875,-5.875,0.));
#797=CARTESIAN_POINT('',(5.875,2.9375,0.));
#798=CARTESIAN_POINT('',(5.875,5.875,16.3));
#799=CARTESIAN_POINT('',(5.875,5.875,0.));
#800=CARTESIAN_POINT('',(5.875,-5.875,16.3));
#801=CARTESIAN_POINT('',(5.875,-5.875,16.3));
#802=CARTESIAN_POINT('',(5.875,-5.875,0.));
#803=CARTESIAN_POINT('Origin',(8.125,0.,16.3));
#804=CARTESIAN_POINT('',(10.375,-5.875,16.3));
#805=CARTESIAN_POINT('',(10.375,-2.9375,16.3));
#806=CARTESIAN_POINT('',(-4.2,-5.875,16.3));
#807=CARTESIAN_POINT('',(7.,5.875,16.3));
#808=CARTESIAN_POINT('Origin',(-16.525,-5.875,0.));
#809=CARTESIAN_POINT('',(-16.525,-5.875,0.));
#810=CARTESIAN_POINT('',(-16.525,5.875,0.));
#811=CARTESIAN_POINT('',(-16.525,-2.9375,0.));
#812=CARTESIAN_POINT('',(-16.525,-5.875,16.3));
#813=CARTESIAN_POINT('',(-16.525,-5.875,0.));
#814=CARTESIAN_POINT('',(-16.525,5.875,16.3));
#815=CARTESIAN_POINT('',(-16.525,-5.875,16.3));
#816=CARTESIAN_POINT('',(-16.525,5.875,0.));
#817=CARTESIAN_POINT('Origin',(-18.775,-2.22044604925031E-15,16.3));
#818=CARTESIAN_POINT('',(-6.45,5.875,16.3));
#819=CARTESIAN_POINT('',(-17.65,-5.875,16.3));
#820=CARTESIAN_POINT('Origin',(10.375,-5.875,0.));
#821=CARTESIAN_POINT('',(10.375,-5.875,0.));
#822=CARTESIAN_POINT('Origin',(-16.525,-5.875,0.));
#823=CARTESIAN_POINT('',(5.875,-5.875,22.));
#824=CARTESIAN_POINT('',(5.875,-5.875,0.));
#825=CARTESIAN_POINT('',(0.,-5.875,22.));
#826=CARTESIAN_POINT('',(5.875,-5.875,22.));
#827=CARTESIAN_POINT('',(-16.525,-5.875,22.));
#828=CARTESIAN_POINT('',(5.875,-5.875,22.));
#829=CARTESIAN_POINT('',(-16.525,-5.875,0.));
#830=CARTESIAN_POINT('',(-21.025,-5.875,0.));
#831=CARTESIAN_POINT('Origin',(5.875,-5.875,0.));
#832=CARTESIAN_POINT('',(5.875,5.875,22.));
#833=CARTESIAN_POINT('',(5.875,5.875,0.));
#834=CARTESIAN_POINT('',(5.875,0.,22.));
#835=CARTESIAN_POINT('',(5.875,-5.875,22.));
#836=CARTESIAN_POINT('',(5.875,-5.875,22.));
#837=CARTESIAN_POINT('Origin',(0.,0.,0.));
#838=CARTESIAN_POINT('',(-2.25,-2.75545529808154E-16,29.6));
#839=CARTESIAN_POINT('Origin',(0.,0.,29.6));
#840=CARTESIAN_POINT('',(-2.25,2.75545529808154E-16,26.4));
#841=CARTESIAN_POINT('',(-2.25,-2.75545529808154E-16,0.));
#842=CARTESIAN_POINT('Origin',(0.,0.,26.4));
#843=CARTESIAN_POINT('Origin',(0.,0.,29.6));
#844=CARTESIAN_POINT('Origin',(0.,0.,0.));
#845=CARTESIAN_POINT('',(-5.875,-7.1947999449907E-16,26.4));
#846=CARTESIAN_POINT('Origin',(0.,0.,26.4));
#847=CARTESIAN_POINT('',(-5.875,-7.1947999449907E-16,22.));
#848=CARTESIAN_POINT('',(-5.875,-7.1947999449907E-16,0.));
#849=CARTESIAN_POINT('Origin',(0.,0.,22.));
#850=CARTESIAN_POINT('Origin',(0.,0.,22.));
#851=CARTESIAN_POINT('',(0.,5.875,22.));
#852=CARTESIAN_POINT('Origin',(0.,0.,22.));
#853=CARTESIAN_POINT('Origin',(0.,0.,22.));
#854=CARTESIAN_POINT('Origin',(0.,0.,26.4));
#855=CARTESIAN_POINT('Origin',(5.875,5.875,0.));
#856=CARTESIAN_POINT('',(5.875,5.875,0.));
#857=CARTESIAN_POINT('',(-16.525,5.875,22.));
#858=CARTESIAN_POINT('',(-16.525,5.875,0.));
#859=CARTESIAN_POINT('',(-16.525,5.875,22.));
#860=CARTESIAN_POINT('',(-16.525,5.875,22.));
#861=CARTESIAN_POINT('Origin',(-5.325,-1.11022302462516E-15,22.));
#862=CARTESIAN_POINT('Origin',(-5.325,-1.11022302462516E-15,22.));
#863=CARTESIAN_POINT('',(-16.525,-5.875,22.));
#864=CARTESIAN_POINT('Origin',(-5.325,-1.11022302462516E-15,22.));
#865=CARTESIAN_POINT('Origin',(-5.325,-1.11022302462516E-15,0.));
#866=CARTESIAN_POINT('Origin',(-16.525,5.875,0.));
#867=UNCERTAINTY_MEASURE_WITH_UNIT(LENGTH_MEASURE(0.01),#871,
'DISTANCE_ACCURACY_VALUE',
'Maximum model space distance between geometric entities at asserted c
onnectivities');
#868=UNCERTAINTY_MEASURE_WITH_UNIT(LENGTH_MEASURE(0.01),#871,
'DISTANCE_ACCURACY_VALUE',
'Maximum model space distance between geometric entities at asserted c
onnectivities');
#869=(
GEOMETRIC_REPRESENTATION_CONTEXT(3)
GLOBAL_UNCERTAINTY_ASSIGNED_CONTEXT((#867))
GLOBAL_UNIT_ASSIGNED_CONTEXT((#871,#873,#874))
REPRESENTATION_CONTEXT('','3D')
);
#870=(
GEOMETRIC_REPRESENTATION_CONTEXT(3)
GLOBAL_UNCERTAINTY_ASSIGNED_CONTEXT((#868))
GLOBAL_UNIT_ASSIGNED_CONTEXT((#871,#873,#874))
REPRESENTATION_CONTEXT('','3D')
);
#871=(
LENGTH_UNIT()
NAMED_UNIT(*)
SI_UNIT(.MILLI.,.METRE.)
);
#872=(
LENGTH_UNIT()
NAMED_UNIT(*)
SI_UNIT($,.METRE.)
);
#873=(
NAMED_UNIT(*)
PLANE_ANGLE_UNIT()
SI_UNIT($,.RADIAN.)
);
#874=(
NAMED_UNIT(*)
SI_UNIT($,.STERADIAN.)
SOLID_ANGLE_UNIT()
);
#875=SHAPE_DEFINITION_REPRESENTATION(#876,#877);
#876=PRODUCT_DEFINITION_SHAPE('',$,#879);
#877=SHAPE_REPRESENTATION('',(#538),#869);
#878=PRODUCT_DEFINITION_CONTEXT('part definition',#883,'design');
#879=PRODUCT_DEFINITION('motor','motor',#880,#878);
#880=PRODUCT_DEFINITION_FORMATION('',$,#885);
#881=PRODUCT_RELATED_PRODUCT_CATEGORY('motor','motor',(#885));
#882=APPLICATION_PROTOCOL_DEFINITION('international standard',
'automotive_design',2009,#883);
#883=APPLICATION_CONTEXT(
'Core Data for Automotive Mechanical Design Process');
#884=PRODUCT_CONTEXT('part definition',#883,'mechanical');
#885=PRODUCT('motor','motor',$,(#884));
#886=PRESENTATION_STYLE_ASSIGNMENT((#888));
#887=PRESENTATION_STYLE_ASSIGNMENT((#889));
#888=SURFACE_STYLE_USAGE(.BOTH.,#890);
#889=SURFACE_STYLE_USAGE(.BOTH.,#891);
#890=SURFACE_SIDE_STYLE('',(#892));
#891=SURFACE_SIDE_STYLE('',(#893));
#892=SURFACE_STYLE_FILL_AREA(#894);
#893=SURFACE_STYLE_FILL_AREA(#895);
#894=FILL_AREA_STYLE('Steel - Satin',(#896));
#895=FILL_AREA_STYLE('Paint - Metallic (Blue)',(#897));
#896=FILL_AREA_STYLE_COLOUR('Steel - Satin',#898);
#897=FILL_AREA_STYLE_COLOUR('Paint - Metallic (Blue)',#899);
#898=COLOUR_RGB('Steel - Satin',0.627450980392157,0.627450980392157,0.627450980392157);
#899=COLOUR_RGB('Paint - Metallic (Blue)',0.286274509803922,0.462745098039216,
0.843137254901961);
ENDSEC;
END-ISO-10303-21;
