ISO-10303-21;
HEADER;
/* Generated by software containing ST-Developer
 * from STEP Tools, Inc. (www.steptools.com) 
 */

FILE_DESCRIPTION(
/* description */ (''),
/* implementation_level */ '2;1');

FILE_NAME(
/* name */ 'side_fin.step',
/* time_stamp */ '2026-08-19T10:19:03-05:00',
/* author */ (''),
/* organization */ (''),
/* preprocessor_version */ 'ST-DEVELOPER v20.1',
/* originating_system */ 'Autodesk Translation Framework v15.8.0.0',
/* authorisation */ '');

FILE_SCHEMA (('AUTOMOTIVE_DESIGN { 1 0 10303 214 3 1 1 }'));
ENDSEC;

DATA;
#10=MECHANICAL_DESIGN_GEOMETRIC_PRESENTATION_REPRESENTATION('',(#17),#441);
#11=ITEM_DEFINED_TRANSFORMATION($,$,#81,#85);
#12=(
REPRESENTATION_RELATIONSHIP($,$,#452,#451)
REPRESENTATION_RELATIONSHIP_WITH_TRANSFORMATION(#11)
SHAPE_REPRESENTATION_RELATIONSHIP()
);
#13=CONTEXT_DEPENDENT_SHAPE_REPRESENTATION(#12,#450);
#14=NEXT_ASSEMBLY_USAGE_OCCURRENCE('aleta1:1','aleta1:1','aleta1:1',#454,
#455,'aleta1:1');
#15=SHAPE_REPRESENTATION_RELATIONSHIP('SRR','None',#452,#16);
#16=ADVANCED_BREP_SHAPE_REPRESENTATION('',(#18),#440);
#17=STYLED_ITEM('',(#465),#18);
#18=MANIFOLD_SOLID_BREP('aleta1',#67);
#19=PLANE('',#82);
#20=PLANE('',#83);
#21=PLANE('',#84);
#22=FACE_OUTER_BOUND('',#26,.T.);
#23=FACE_OUTER_BOUND('',#27,.T.);
#24=FACE_OUTER_BOUND('',#28,.T.);
#25=FACE_OUTER_BOUND('',#29,.T.);
#26=EDGE_LOOP('',(#50,#51,#52,#53));
#27=EDGE_LOOP('',(#54,#55,#56,#57));
#28=EDGE_LOOP('',(#58,#59));
#29=EDGE_LOOP('',(#60,#61));
#30=LINE('',#347,#34);
#31=LINE('',#429,#35);
#32=LINE('',#431,#36);
#33=LINE('',#432,#37);
#34=VECTOR('',#90,10.);
#35=VECTOR('',#91,10.);
#36=VECTOR('',#94,10.);
#37=VECTOR('',#95,10.);
#38=(
BOUNDED_CURVE()
B_SPLINE_CURVE(5,(#266,#267,#268,#269,#270,#271,#272,#273,#274,#275,#276,
#277,#278,#279,#280,#281,#282,#283,#284,#285,#286,#287,#288,#289,#290,#291,
#292,#293,#294,#295,#296,#297,#298,#299,#300,#301,#302,#303,#304,#305,#306,
#307,#308,#309,#310,#311,#312,#313,#314,#315,#316,#317,#318,#319,#320,#321,
#322,#323,#324,#325,#326,#327,#328,#329,#330,#331,#332,#333,#334,#335,#336,
#337,#338,#339,#340,#341,#342,#343,#344,#345),.UNSPECIFIED.,.F.,.F.)
B_SPLINE_CURVE_WITH_KNOTS((6,1,1,1,1,1,1,1,1,1,1,1,1,1,1,1,1,1,1,1,1,1,
1,1,1,1,1,1,1,1,1,1,1,1,1,1,1,1,1,1,1,1,1,1,1,1,1,1,1,1,1,1,1,1,1,1,1,1,
1,1,1,1,1,1,1,1,1,1,1,1,1,1,1,1,1,6),(0.,0.0133333333333333,0.0266666666666667,
0.04,0.0533333333333333,0.0666666666666667,0.08,0.0933333333333333,0.106666666666667,
0.12,0.133333333333333,0.146666666666667,0.16,0.173333333333333,0.186666666666667,
0.2,0.213333333333333,0.226666666666667,0.24,0.253333333333333,0.266666666666667,
0.28,0.293333333333333,0.306666666666667,0.32,0.333333333333333,0.346666666666667,
0.36,0.373333333333333,0.386666666666666,0.4,0.413333333333333,0.426666666666666,
0.44,0.453333333333333,0.466666666666666,0.48,0.493333333333333,0.506666666666666,
0.52,0.533333333333333,0.546666666666666,0.559999999999999,0.573333333333333,
0.586666666666666,0.599999999999999,0.613333333333333,0.626666666666666,
0.639999999999999,0.653333333333333,0.666666666666666,0.679999999999999,
0.693333333333333,0.706666666666666,0.719999999999999,0.733333333333333,
0.746666666666666,0.759999999999999,0.773333333333332,0.786666666666666,
0.799999999999999,0.813333333333332,0.826666666666666,0.839999999999999,
0.853333333333332,0.866666666666666,0.879999999999999,0.893333333333332,
0.906666666666666,0.919999999999999,0.933333333333332,0.946666666666665,
0.959999999999999,0.973333333333332,0.986666666666665,1.),.UNSPECIFIED.)
CURVE()
GEOMETRIC_REPRESENTATION_ITEM()
RATIONAL_B_SPLINE_CURVE((1.,1.,1.,1.,1.,1.,1.,1.,1.,1.,1.,1.,1.,1.,1.,1.,
1.,1.,1.,1.,1.,1.,1.,1.,1.,1.,1.,1.,1.,1.,1.,1.,1.,1.,1.,1.,1.,1.,1.,1.,
1.,1.,1.,1.,1.,1.,1.,1.,1.,1.,1.,1.,1.,1.,1.,1.,1.,1.,1.,1.,1.,1.,1.,1.,
1.,1.,1.,1.,1.,1.,1.,1.,1.,1.,1.,1.,1.,1.,1.,1.))
REPRESENTATION_ITEM('')
);
#39=(
BOUNDED_CURVE()
B_SPLINE_CURVE(5,(#349,#350,#351,#352,#353,#354,#355,#356,#357,#358,#359,
#360,#361,#362,#363,#364,#365,#366,#367,#368,#369,#370,#371,#372,#373,#374,
#375,#376,#377,#378,#379,#380,#381,#382,#383,#384,#385,#386,#387,#388,#389,
#390,#391,#392,#393,#394,#395,#396,#397,#398,#399,#400,#401,#402,#403,#404,
#405,#406,#407,#408,#409,#410,#411,#412,#413,#414,#415,#416,#417,#418,#419,
#420,#421,#422,#423,#424,#425,#426,#427,#428),.UNSPECIFIED.,.F.,.F.)
B_SPLINE_CURVE_WITH_KNOTS((6,1,1,1,1,1,1,1,1,1,1,1,1,1,1,1,1,1,1,1,1,1,
1,1,1,1,1,1,1,1,1,1,1,1,1,1,1,1,1,1,1,1,1,1,1,1,1,1,1,1,1,1,1,1,1,1,1,1,
1,1,1,1,1,1,1,1,1,1,1,1,1,1,1,1,1,6),(-1.,-0.986666666666665,-0.973333333333332,
-0.959999999999999,-0.946666666666665,-0.933333333333332,-0.919999999999999,
-0.906666666666666,-0.893333333333332,-0.879999999999999,-0.866666666666666,
-0.853333333333332,-0.839999999999999,-0.826666666666666,-0.813333333333332,
-0.799999999999999,-0.786666666666666,-0.773333333333332,-0.759999999999999,
-0.746666666666666,-0.733333333333333,-0.719999999999999,-0.706666666666666,
-0.693333333333333,-0.679999999999999,-0.666666666666666,-0.653333333333333,
-0.639999999999999,-0.626666666666666,-0.613333333333333,-0.599999999999999,
-0.586666666666666,-0.573333333333333,-0.559999999999999,-0.546666666666666,
-0.533333333333333,-0.52,-0.506666666666666,-0.493333333333333,-0.48,-0.466666666666666,
-0.453333333333333,-0.44,-0.426666666666666,-0.413333333333333,-0.4,-0.386666666666666,
-0.373333333333333,-0.36,-0.346666666666667,-0.333333333333333,-0.32,-0.306666666666667,
-0.293333333333333,-0.28,-0.266666666666667,-0.253333333333333,-0.24,-0.226666666666667,
-0.213333333333333,-0.2,-0.186666666666667,-0.173333333333333,-0.16,-0.146666666666667,
-0.133333333333333,-0.12,-0.106666666666667,-0.0933333333333333,-0.08,-0.0666666666666667,
-0.0533333333333333,-0.04,-0.0266666666666667,-0.0133333333333333,0.),
 .UNSPECIFIED.)
CURVE()
GEOMETRIC_REPRESENTATION_ITEM()
RATIONAL_B_SPLINE_CURVE((1.,1.,1.,1.,1.,1.,1.,1.,1.,1.,1.,1.,1.,1.,1.,1.,
1.,1.,1.,1.,1.,1.,1.,1.,1.,1.,1.,1.,1.,1.,1.,1.,1.,1.,1.,1.,1.,1.,1.,1.,
1.,1.,1.,1.,1.,1.,1.,1.,1.,1.,1.,1.,1.,1.,1.,1.,1.,1.,1.,1.,1.,1.,1.,1.,
1.,1.,1.,1.,1.,1.,1.,1.,1.,1.,1.,1.,1.,1.,1.,1.))
REPRESENTATION_ITEM('')
);
#40=VERTEX_POINT('',#264);
#41=VERTEX_POINT('',#265);
#42=VERTEX_POINT('',#346);
#43=VERTEX_POINT('',#348);
#44=EDGE_CURVE('',#40,#41,#38,.T.);
#45=EDGE_CURVE('',#40,#42,#30,.T.);
#46=EDGE_CURVE('',#43,#42,#39,.T.);
#47=EDGE_CURVE('',#41,#43,#31,.T.);
#48=EDGE_CURVE('',#40,#41,#32,.T.);
#49=EDGE_CURVE('',#42,#43,#33,.T.);
#50=ORIENTED_EDGE('',*,*,#44,.F.);
#51=ORIENTED_EDGE('',*,*,#45,.T.);
#52=ORIENTED_EDGE('',*,*,#46,.F.);
#53=ORIENTED_EDGE('',*,*,#47,.F.);
#54=ORIENTED_EDGE('',*,*,#48,.T.);
#55=ORIENTED_EDGE('',*,*,#47,.T.);
#56=ORIENTED_EDGE('',*,*,#49,.F.);
#57=ORIENTED_EDGE('',*,*,#45,.F.);
#58=ORIENTED_EDGE('',*,*,#49,.T.);
#59=ORIENTED_EDGE('',*,*,#46,.T.);
#60=ORIENTED_EDGE('',*,*,#48,.F.);
#61=ORIENTED_EDGE('',*,*,#44,.T.);
#62=(
BOUNDED_SURFACE()
B_SPLINE_SURFACE(5,1,((#104,#105),(#106,#107),(#108,#109),(#110,#111),(#112,
#113),(#114,#115),(#116,#117),(#118,#119),(#120,#121),(#122,#123),(#124,
#125),(#126,#127),(#128,#129),(#130,#131),(#132,#133),(#134,#135),(#136,
#137),(#138,#139),(#140,#141),(#142,#143),(#144,#145),(#146,#147),(#148,
#149),(#150,#151),(#152,#153),(#154,#155),(#156,#157),(#158,#159),(#160,
#161),(#162,#163),(#164,#165),(#166,#167),(#168,#169),(#170,#171),(#172,
#173),(#174,#175),(#176,#177),(#178,#179),(#180,#181),(#182,#183),(#184,
#185),(#186,#187),(#188,#189),(#190,#191),(#192,#193),(#194,#195),(#196,
#197),(#198,#199),(#200,#201),(#202,#203),(#204,#205),(#206,#207),(#208,
#209),(#210,#211),(#212,#213),(#214,#215),(#216,#217),(#218,#219),(#220,
#221),(#222,#223),(#224,#225),(#226,#227),(#228,#229),(#230,#231),(#232,
#233),(#234,#235),(#236,#237),(#238,#239),(#240,#241),(#242,#243),(#244,
#245),(#246,#247),(#248,#249),(#250,#251),(#252,#253),(#254,#255),(#256,
#257),(#258,#259),(#260,#261),(#262,#263)),.UNSPECIFIED.,.F.,.F.,.F.)
B_SPLINE_SURFACE_WITH_KNOTS((6,1,1,1,1,1,1,1,1,1,1,1,1,1,1,1,1,1,1,1,1,
1,1,1,1,1,1,1,1,1,1,1,1,1,1,1,1,1,1,1,1,1,1,1,1,1,1,1,1,1,1,1,1,1,1,1,1,
1,1,1,1,1,1,1,1,1,1,1,1,1,1,1,1,1,1,6),(2,2),(-1.,-0.986666666666665,-0.973333333333332,
-0.959999999999999,-0.946666666666665,-0.933333333333332,-0.919999999999999,
-0.906666666666666,-0.893333333333332,-0.879999999999999,-0.866666666666666,
-0.853333333333332,-0.839999999999999,-0.826666666666666,-0.813333333333332,
-0.799999999999999,-0.786666666666666,-0.773333333333332,-0.759999999999999,
-0.746666666666666,-0.733333333333333,-0.719999999999999,-0.706666666666666,
-0.693333333333333,-0.679999999999999,-0.666666666666666,-0.653333333333333,
-0.639999999999999,-0.626666666666666,-0.613333333333333,-0.599999999999999,
-0.586666666666666,-0.573333333333333,-0.559999999999999,-0.546666666666666,
-0.533333333333333,-0.52,-0.506666666666666,-0.493333333333333,-0.48,-0.466666666666666,
-0.453333333333333,-0.44,-0.426666666666666,-0.413333333333333,-0.4,-0.386666666666666,
-0.373333333333333,-0.36,-0.346666666666667,-0.333333333333333,-0.32,-0.306666666666667,
-0.293333333333333,-0.28,-0.266666666666667,-0.253333333333333,-0.24,-0.226666666666667,
-0.213333333333333,-0.2,-0.186666666666667,-0.173333333333333,-0.16,-0.146666666666667,
-0.133333333333333,-0.12,-0.106666666666667,-0.0933333333333333,-0.08,-0.0666666666666667,
-0.0533333333333333,-0.04,-0.0266666666666667,-0.0133333333333333,0.),(0.,
0.3),.UNSPECIFIED.)
GEOMETRIC_REPRESENTATION_ITEM()
RATIONAL_B_SPLINE_SURFACE(((1.,1.),(1.,1.),(1.,1.),(1.,1.),(1.,1.),(1.,
1.),(1.,1.),(1.,1.),(1.,1.),(1.,1.),(1.,1.),(1.,1.),(1.,1.),(1.,1.),(1.,
1.),(1.,1.),(1.,1.),(1.,1.),(1.,1.),(1.,1.),(1.,1.),(1.,1.),(1.,1.),(1.,
1.),(1.,1.),(1.,1.),(1.,1.),(1.,1.),(1.,1.),(1.,1.),(1.,1.),(1.,1.),(1.,
1.),(1.,1.),(1.,1.),(1.,1.),(1.,1.),(1.,1.),(1.,1.),(1.,1.),(1.,1.),(1.,
1.),(1.,1.),(1.,1.),(1.,1.),(1.,1.),(1.,1.),(1.,1.),(1.,1.),(1.,1.),(1.,
1.),(1.,1.),(1.,1.),(1.,1.),(1.,1.),(1.,1.),(1.,1.),(1.,1.),(1.,1.),(1.,
1.),(1.,1.),(1.,1.),(1.,1.),(1.,1.),(1.,1.),(1.,1.),(1.,1.),(1.,1.),(1.,
1.),(1.,1.),(1.,1.),(1.,1.),(1.,1.),(1.,1.),(1.,1.),(1.,1.),(1.,1.),(1.,
1.),(1.,1.),(1.,1.)))
REPRESENTATION_ITEM('')
SURFACE()
);
#63=ADVANCED_FACE('',(#22),#62,.T.);
#64=ADVANCED_FACE('',(#23),#19,.T.);
#65=ADVANCED_FACE('',(#24),#20,.T.);
#66=ADVANCED_FACE('',(#25),#21,.F.);
#67=CLOSED_SHELL('',(#63,#64,#65,#66));
#68=DERIVED_UNIT_ELEMENT(#70,1.);
#69=DERIVED_UNIT_ELEMENT(#443,-3.);
#70=(
MASS_UNIT()
NAMED_UNIT(*)
SI_UNIT(.KILO.,.GRAM.)
);
#71=DERIVED_UNIT((#68,#69));
#72=MEASURE_REPRESENTATION_ITEM('density measure',
POSITIVE_RATIO_MEASURE(7850.),#71);
#73=PROPERTY_DEFINITION_REPRESENTATION(#78,#75);
#74=PROPERTY_DEFINITION_REPRESENTATION(#79,#76);
#75=REPRESENTATION('material name',(#77),#440);
#76=REPRESENTATION('density',(#72),#440);
#77=DESCRIPTIVE_REPRESENTATION_ITEM('Steel','Steel');
#78=PROPERTY_DEFINITION('material property','material name',#455);
#79=PROPERTY_DEFINITION('material property','density of part',#455);
#80=AXIS2_PLACEMENT_3D('',#102,#86,#87);
#81=AXIS2_PLACEMENT_3D('',#103,#88,#89);
#82=AXIS2_PLACEMENT_3D('',#430,#92,#93);
#83=AXIS2_PLACEMENT_3D('',#433,#96,#97);
#84=AXIS2_PLACEMENT_3D('',#434,#98,#99);
#85=AXIS2_PLACEMENT_3D('',#435,#100,#101);
#86=DIRECTION('axis',(0.,0.,1.));
#87=DIRECTION('refdir',(1.,0.,0.));
#88=DIRECTION('axis',(0.,0.,1.));
#89=DIRECTION('refdir',(1.,0.,0.));
#90=DIRECTION('',(0.,0.,1.));
#91=DIRECTION('',(0.,0.,1.));
#92=DIRECTION('center_axis',(-0.075623195258294,-0.997136466256714,0.));
#93=DIRECTION('ref_axis',(0.997136466256713,-0.075623195258294,0.));
#94=DIRECTION('',(0.997136466256713,-0.075623195258294,0.));
#95=DIRECTION('',(0.997136466256713,-0.075623195258294,0.));
#96=DIRECTION('center_axis',(0.,0.,1.));
#97=DIRECTION('ref_axis',(1.,-5.55111512312578E-17,0.));
#98=DIRECTION('center_axis',(0.,0.,1.));
#99=DIRECTION('ref_axis',(1.,-5.55111512312578E-17,0.));
#100=DIRECTION('',(0.,0.,1.));
#101=DIRECTION('',(1.,0.,0.));
#102=CARTESIAN_POINT('',(0.,0.,0.));
#103=CARTESIAN_POINT('',(0.,0.,0.));
#104=CARTESIAN_POINT('Ctrl Pts',(40.102105886903,18.2257834511512,3.3));
#105=CARTESIAN_POINT('Ctrl Pts',(40.102105886903,18.2257834511512,6.3));
#106=CARTESIAN_POINT('Ctrl Pts',(40.0416075224744,18.3487173465425,3.3));
#107=CARTESIAN_POINT('Ctrl Pts',(40.0416075224744,18.3487173465425,6.3));
#108=CARTESIAN_POINT('Ctrl Pts',(39.9189873121137,18.5928052958869,3.3));
#109=CARTESIAN_POINT('Ctrl Pts',(39.9189873121137,18.5928052958869,6.3));
#110=CARTESIAN_POINT('Ctrl Pts',(39.7301867747841,18.9535972940706,3.3));
#111=CARTESIAN_POINT('Ctrl Pts',(39.7301867747841,18.9535972940706,6.3));
#112=CARTESIAN_POINT('Ctrl Pts',(39.46870753222,19.4239738289002,3.3));
#113=CARTESIAN_POINT('Ctrl Pts',(39.46870753222,19.4239738289002,6.3));
#114=CARTESIAN_POINT('Ctrl Pts',(39.1252589201875,19.9947647857634,3.3));
#115=CARTESIAN_POINT('Ctrl Pts',(39.1252589201875,19.9947647857634,6.3));
#116=CARTESIAN_POINT('Ctrl Pts',(38.7641300054665,20.5503306294918,3.3));
#117=CARTESIAN_POINT('Ctrl Pts',(38.7641300054665,20.5503306294918,6.3));
#118=CARTESIAN_POINT('Ctrl Pts',(38.3832432720227,21.0944908291861,3.3));
#119=CARTESIAN_POINT('Ctrl Pts',(38.3832432720227,21.0944908291861,6.3));
#120=CARTESIAN_POINT('Ctrl Pts',(37.9790073144691,21.6338989022775,3.3));
#121=CARTESIAN_POINT('Ctrl Pts',(37.9790073144691,21.6338989022775,6.3));
#122=CARTESIAN_POINT('Ctrl Pts',(37.5466686339258,22.1774420353699,3.3));
#123=CARTESIAN_POINT('Ctrl Pts',(37.5466686339258,22.1774420353699,6.3));
#124=CARTESIAN_POINT('Ctrl Pts',(37.0815224554564,22.7340745450813,3.3));
#125=CARTESIAN_POINT('Ctrl Pts',(37.0815224554564,22.7340745450813,6.3));
#126=CARTESIAN_POINT('Ctrl Pts',(36.5799571147778,23.310976809924,3.3));
#127=CARTESIAN_POINT('Ctrl Pts',(36.5799571147778,23.310976809924,6.3));
#128=CARTESIAN_POINT('Ctrl Pts',(36.040428199755,23.9117864886529,3.3));
#129=CARTESIAN_POINT('Ctrl Pts',(36.040428199755,23.9117864886529,6.3));
#130=CARTESIAN_POINT('Ctrl Pts',(35.4648173935413,24.5342724511211,3.3));
#131=CARTESIAN_POINT('Ctrl Pts',(35.4648173935413,24.5342724511211,6.3));
#132=CARTESIAN_POINT('Ctrl Pts',(34.8576527379491,25.171171471708,3.3));
#133=CARTESIAN_POINT('Ctrl Pts',(34.8576527379491,25.171171471708,6.3));
#134=CARTESIAN_POINT('Ctrl Pts',(34.224403482133,25.8123903398822,3.3));
#135=CARTESIAN_POINT('Ctrl Pts',(34.224403482133,25.8123903398822,6.3));
#136=CARTESIAN_POINT('Ctrl Pts',(33.5700952389564,26.4467466032409,3.3));
#137=CARTESIAN_POINT('Ctrl Pts',(33.5700952389564,26.4467466032409,6.3));
#138=CARTESIAN_POINT('Ctrl Pts',(32.8977473565252,27.0639364961063,3.3));
#139=CARTESIAN_POINT('Ctrl Pts',(32.8977473565252,27.0639364961063,6.3));
#140=CARTESIAN_POINT('Ctrl Pts',(32.2069889966534,27.6563191020273,3.3));
#141=CARTESIAN_POINT('Ctrl Pts',(32.2069889966534,27.6563191020273,6.3));
#142=CARTESIAN_POINT('Ctrl Pts',(31.4923155697503,28.221014065667,3.3));
#143=CARTESIAN_POINT('Ctrl Pts',(31.4923155697503,28.221014065667,6.3));
#144=CARTESIAN_POINT('Ctrl Pts',(30.74513396624,28.7588764243265,3.3));
#145=CARTESIAN_POINT('Ctrl Pts',(30.74513396624,28.7588764243265,6.3));
#146=CARTESIAN_POINT('Ctrl Pts',(29.9562888038649,29.2730981992556,3.3));
#147=CARTESIAN_POINT('Ctrl Pts',(29.9562888038649,29.2730981992556,6.3));
#148=CARTESIAN_POINT('Ctrl Pts',(29.1183427662366,29.7679717957965,3.3));
#149=CARTESIAN_POINT('Ctrl Pts',(29.1183427662366,29.7679717957965,6.3));
#150=CARTESIAN_POINT('Ctrl Pts',(28.2281279753241,30.2475283442993,3.3));
#151=CARTESIAN_POINT('Ctrl Pts',(28.2281279753241,30.2475283442993,6.3));
#152=CARTESIAN_POINT('Ctrl Pts',(27.2887984803152,30.7143673179024,3.3));
#153=CARTESIAN_POINT('Ctrl Pts',(27.2887984803152,30.7143673179024,6.3));
#154=CARTESIAN_POINT('Ctrl Pts',(26.3130827283267,31.1680557937329,3.3));
#155=CARTESIAN_POINT('Ctrl Pts',(26.3130827283267,31.1680557937329,6.3));
#156=CARTESIAN_POINT('Ctrl Pts',(25.3211821378282,31.6054298374838,3.3));
#157=CARTESIAN_POINT('Ctrl Pts',(25.3211821378282,31.6054298374838,6.3));
#158=CARTESIAN_POINT('Ctrl Pts',(24.3357845773975,32.0219203221743,3.3));
#159=CARTESIAN_POINT('Ctrl Pts',(24.3357845773975,32.0219203221743,6.3));
#160=CARTESIAN_POINT('Ctrl Pts',(23.3779494665567,32.4125657794196,3.3));
#161=CARTESIAN_POINT('Ctrl Pts',(23.3779494665567,32.4125657794196,6.3));
#162=CARTESIAN_POINT('Ctrl Pts',(22.4626865955702,32.7731416620884,3.3));
#163=CARTESIAN_POINT('Ctrl Pts',(22.4626865955702,32.7731416620884,6.3));
#164=CARTESIAN_POINT('Ctrl Pts',(21.5945320967193,33.1012693478351,3.3));
#165=CARTESIAN_POINT('Ctrl Pts',(21.5945320967193,33.1012693478351,6.3));
#166=CARTESIAN_POINT('Ctrl Pts',(20.7634165287641,33.3974674128772,3.3));
#167=CARTESIAN_POINT('Ctrl Pts',(20.7634165287641,33.3974674128772,6.3));
#168=CARTESIAN_POINT('Ctrl Pts',(19.9395755428429,33.6664156684708,3.3));
#169=CARTESIAN_POINT('Ctrl Pts',(19.9395755428429,33.6664156684708,6.3));
#170=CARTESIAN_POINT('Ctrl Pts',(19.0816832563441,33.9152251524098,3.3));
#171=CARTESIAN_POINT('Ctrl Pts',(19.0816832563441,33.9152251524098,6.3));
#172=CARTESIAN_POINT('Ctrl Pts',(18.1462639838721,34.1514172224533,3.3));
#173=CARTESIAN_POINT('Ctrl Pts',(18.1462639838721,34.1514172224533,6.3));
#174=CARTESIAN_POINT('Ctrl Pts',(17.0965367233365,34.3810326966295,3.3));
#175=CARTESIAN_POINT('Ctrl Pts',(17.0965367233365,34.3810326966295,6.3));
#176=CARTESIAN_POINT('Ctrl Pts',(15.9117353348151,34.6066304846368,3.3));
#177=CARTESIAN_POINT('Ctrl Pts',(15.9117353348151,34.6066304846368,6.3));
#178=CARTESIAN_POINT('Ctrl Pts',(14.5957056061127,34.8254567758234,3.3));
#179=CARTESIAN_POINT('Ctrl Pts',(14.5957056061127,34.8254567758234,6.3));
#180=CARTESIAN_POINT('Ctrl Pts',(13.1871213271804,35.0272325254216,3.3));
#181=CARTESIAN_POINT('Ctrl Pts',(13.1871213271804,35.0272325254216,6.3));
#182=CARTESIAN_POINT('Ctrl Pts',(11.7652306725969,35.1929973267439,3.3));
#183=CARTESIAN_POINT('Ctrl Pts',(11.7652306725969,35.1929973267439,6.3));
#184=CARTESIAN_POINT('Ctrl Pts',(10.4318313525495,35.2995532968394,3.3));
#185=CARTESIAN_POINT('Ctrl Pts',(10.4318313525495,35.2995532968394,6.3));
#186=CARTESIAN_POINT('Ctrl Pts',(9.29600842009913,35.3232699628256,3.3));
#187=CARTESIAN_POINT('Ctrl Pts',(9.29600842009913,35.3232699628256,6.3));
#188=CARTESIAN_POINT('Ctrl Pts',(8.45822686840608,35.2440164998011,3.3));
#189=CARTESIAN_POINT('Ctrl Pts',(8.45822686840608,35.2440164998011,6.3));
#190=CARTESIAN_POINT('Ctrl Pts',(7.99375739261827,35.0493130603668,3.3));
#191=CARTESIAN_POINT('Ctrl Pts',(7.99375739261827,35.0493130603668,6.3));
#192=CARTESIAN_POINT('Ctrl Pts',(7.93854456955439,34.7377667514018,3.3));
#193=CARTESIAN_POINT('Ctrl Pts',(7.93854456955439,34.7377667514018,6.3));
#194=CARTESIAN_POINT('Ctrl Pts',(8.26859093015699,34.324382753488,3.3));
#195=CARTESIAN_POINT('Ctrl Pts',(8.26859093015699,34.324382753488,6.3));
#196=CARTESIAN_POINT('Ctrl Pts',(8.90315836888885,33.8390076472098,3.3));
#197=CARTESIAN_POINT('Ctrl Pts',(8.90315836888885,33.8390076472098,6.3));
#198=CARTESIAN_POINT('Ctrl Pts',(9.73180494334507,33.3179368769653,3.3));
#199=CARTESIAN_POINT('Ctrl Pts',(9.73180494334507,33.3179368769653,6.3));
#200=CARTESIAN_POINT('Ctrl Pts',(10.6356998511129,32.7971101335903,3.3));
#201=CARTESIAN_POINT('Ctrl Pts',(10.6356998511129,32.7971101335903,6.3));
#202=CARTESIAN_POINT('Ctrl Pts',(11.5096360947957,32.3052354294419,3.3));
#203=CARTESIAN_POINT('Ctrl Pts',(11.5096360947957,32.3052354294419,6.3));
#204=CARTESIAN_POINT('Ctrl Pts',(12.287642973091,31.8555567295484,3.3));
#205=CARTESIAN_POINT('Ctrl Pts',(12.287642973091,31.8555567295484,6.3));
#206=CARTESIAN_POINT('Ctrl Pts',(12.9540313286563,31.442821111756,3.3));
#207=CARTESIAN_POINT('Ctrl Pts',(12.9540313286563,31.442821111756,6.3));
#208=CARTESIAN_POINT('Ctrl Pts',(13.5247695566756,31.0507380630272,3.3));
#209=CARTESIAN_POINT('Ctrl Pts',(13.5247695566756,31.0507380630272,6.3));
#210=CARTESIAN_POINT('Ctrl Pts',(14.0349766751437,30.6573002442446,3.3));
#211=CARTESIAN_POINT('Ctrl Pts',(14.0349766751437,30.6573002442446,6.3));
#212=CARTESIAN_POINT('Ctrl Pts',(14.5246736711893,30.2406651083886,3.3));
#213=CARTESIAN_POINT('Ctrl Pts',(14.5246736711893,30.2406651083886,6.3));
#214=CARTESIAN_POINT('Ctrl Pts',(15.0236706558861,29.7854775785212,3.3));
#215=CARTESIAN_POINT('Ctrl Pts',(15.0236706558861,29.7854775785212,6.3));
#216=CARTESIAN_POINT('Ctrl Pts',(15.5420513953385,29.2868011530104,3.3));
#217=CARTESIAN_POINT('Ctrl Pts',(15.5420513953385,29.2868011530104,6.3));
#218=CARTESIAN_POINT('Ctrl Pts',(16.0761797946209,28.7474749048666,3.3));
#219=CARTESIAN_POINT('Ctrl Pts',(16.0761797946209,28.7474749048666,6.3));
#220=CARTESIAN_POINT('Ctrl Pts',(16.6116785501876,28.176794997652,3.3));
#221=CARTESIAN_POINT('Ctrl Pts',(16.6116785501876,28.176794997652,6.3));
#222=CARTESIAN_POINT('Ctrl Pts',(17.1275797698558,27.5885944563035,3.3));
#223=CARTESIAN_POINT('Ctrl Pts',(17.1275797698558,27.5885944563035,6.3));
#224=CARTESIAN_POINT('Ctrl Pts',(17.6000099858925,26.9997868359028,3.3));
#225=CARTESIAN_POINT('Ctrl Pts',(17.6000099858925,26.9997868359028,6.3));
#226=CARTESIAN_POINT('Ctrl Pts',(18.0059050988872,26.4280182139171,3.3));
#227=CARTESIAN_POINT('Ctrl Pts',(18.0059050988872,26.4280182139171,6.3));
#228=CARTESIAN_POINT('Ctrl Pts',(18.3262556211382,25.8881818993684,3.3));
#229=CARTESIAN_POINT('Ctrl Pts',(18.3262556211382,25.8881818993684,6.3));
#230=CARTESIAN_POINT('Ctrl Pts',(18.5495843649433,25.3890937088731,3.3));
#231=CARTESIAN_POINT('Ctrl Pts',(18.5495843649433,25.3890937088731,6.3));
#232=CARTESIAN_POINT('Ctrl Pts',(18.6751222886807,24.9303047717416,3.3));
#233=CARTESIAN_POINT('Ctrl Pts',(18.6751222886807,24.9303047717416,6.3));
#234=CARTESIAN_POINT('Ctrl Pts',(18.7166850593447,24.4983047605464,3.3));
#235=CARTESIAN_POINT('Ctrl Pts',(18.7166850593447,24.4983047605464,6.3));
#236=CARTESIAN_POINT('Ctrl Pts',(18.6939666880335,24.0748556786406,3.3));
#237=CARTESIAN_POINT('Ctrl Pts',(18.6939666880335,24.0748556786406,6.3));
#238=CARTESIAN_POINT('Ctrl Pts',(18.6240405923452,23.6451375272542,3.3));
#239=CARTESIAN_POINT('Ctrl Pts',(18.6240405923452,23.6451375272542,6.3));
#240=CARTESIAN_POINT('Ctrl Pts',(18.5110505803624,23.2076417892635,3.3));
#241=CARTESIAN_POINT('Ctrl Pts',(18.5110505803624,23.2076417892635,6.3));
#242=CARTESIAN_POINT('Ctrl Pts',(18.3498032821081,22.7705900822907,3.3));
#243=CARTESIAN_POINT('Ctrl Pts',(18.3498032821081,22.7705900822907,6.3));
#244=CARTESIAN_POINT('Ctrl Pts',(18.1319536934929,22.3458081087559,3.3));
#245=CARTESIAN_POINT('Ctrl Pts',(18.1319536934929,22.3458081087559,6.3));
#246=CARTESIAN_POINT('Ctrl Pts',(17.852428664739,21.9424398668577,3.3));
#247=CARTESIAN_POINT('Ctrl Pts',(17.852428664739,21.9424398668577,6.3));
#248=CARTESIAN_POINT('Ctrl Pts',(17.5106597479998,21.5654039547329,3.3));
#249=CARTESIAN_POINT('Ctrl Pts',(17.5106597479998,21.5654039547329,6.3));
#250=CARTESIAN_POINT('Ctrl Pts',(17.1081396157974,21.2172532823001,3.3));
#251=CARTESIAN_POINT('Ctrl Pts',(17.1081396157974,21.2172532823001,6.3));
#252=CARTESIAN_POINT('Ctrl Pts',(16.6470388447553,20.8990220907154,3.3));
#253=CARTESIAN_POINT('Ctrl Pts',(16.6470388447553,20.8990220907154,6.3));
#254=CARTESIAN_POINT('Ctrl Pts',(16.1285988535717,20.6113746797238,3.3));
#255=CARTESIAN_POINT('Ctrl Pts',(16.1285988535717,20.6113746797238,6.3));
#256=CARTESIAN_POINT('Ctrl Pts',(15.6685292734568,20.4059543370881,3.3));
#257=CARTESIAN_POINT('Ctrl Pts',(15.6685292734568,20.4059543370881,6.3));
#258=CARTESIAN_POINT('Ctrl Pts',(15.298098578094,20.2658205960214,3.3));
#259=CARTESIAN_POINT('Ctrl Pts',(15.298098578094,20.2658205960214,6.3));
#260=CARTESIAN_POINT('Ctrl Pts',(15.0398694091624,20.1785876198922,3.3));
#261=CARTESIAN_POINT('Ctrl Pts',(15.0398694091624,20.1785876198922,6.3));
#262=CARTESIAN_POINT('Ctrl Pts',(14.9079359411615,20.1365185387264,3.3));
#263=CARTESIAN_POINT('Ctrl Pts',(14.9079359411615,20.1365185387264,6.3));
#264=CARTESIAN_POINT('',(14.9079359411615,20.1365185387264,3.3));
#265=CARTESIAN_POINT('',(40.102105886903,18.2257834511512,3.3));
#266=CARTESIAN_POINT('Ctrl Pts',(14.9079359411615,20.1365185387264,3.3));
#267=CARTESIAN_POINT('Ctrl Pts',(15.0398694091624,20.1785876198922,3.3));
#268=CARTESIAN_POINT('Ctrl Pts',(15.298098578094,20.2658205960214,3.3));
#269=CARTESIAN_POINT('Ctrl Pts',(15.6685292734568,20.4059543370881,3.3));
#270=CARTESIAN_POINT('Ctrl Pts',(16.1285988535717,20.6113746797238,3.3));
#271=CARTESIAN_POINT('Ctrl Pts',(16.6470388447553,20.8990220907154,3.3));
#272=CARTESIAN_POINT('Ctrl Pts',(17.1081396157974,21.2172532823001,3.3));
#273=CARTESIAN_POINT('Ctrl Pts',(17.5106597479998,21.5654039547329,3.3));
#274=CARTESIAN_POINT('Ctrl Pts',(17.852428664739,21.9424398668577,3.3));
#275=CARTESIAN_POINT('Ctrl Pts',(18.1319536934929,22.3458081087559,3.3));
#276=CARTESIAN_POINT('Ctrl Pts',(18.3498032821081,22.7705900822907,3.3));
#277=CARTESIAN_POINT('Ctrl Pts',(18.5110505803624,23.2076417892635,3.3));
#278=CARTESIAN_POINT('Ctrl Pts',(18.6240405923452,23.6451375272542,3.3));
#279=CARTESIAN_POINT('Ctrl Pts',(18.6939666880335,24.0748556786406,3.3));
#280=CARTESIAN_POINT('Ctrl Pts',(18.7166850593447,24.4983047605464,3.3));
#281=CARTESIAN_POINT('Ctrl Pts',(18.6751222886807,24.9303047717416,3.3));
#282=CARTESIAN_POINT('Ctrl Pts',(18.5495843649433,25.3890937088731,3.3));
#283=CARTESIAN_POINT('Ctrl Pts',(18.3262556211382,25.8881818993684,3.3));
#284=CARTESIAN_POINT('Ctrl Pts',(18.0059050988872,26.4280182139171,3.3));
#285=CARTESIAN_POINT('Ctrl Pts',(17.6000099858925,26.9997868359028,3.3));
#286=CARTESIAN_POINT('Ctrl Pts',(17.1275797698558,27.5885944563035,3.3));
#287=CARTESIAN_POINT('Ctrl Pts',(16.6116785501876,28.176794997652,3.3));
#288=CARTESIAN_POINT('Ctrl Pts',(16.0761797946209,28.7474749048666,3.3));
#289=CARTESIAN_POINT('Ctrl Pts',(15.5420513953385,29.2868011530104,3.3));
#290=CARTESIAN_POINT('Ctrl Pts',(15.0236706558861,29.7854775785212,3.3));
#291=CARTESIAN_POINT('Ctrl Pts',(14.5246736711893,30.2406651083886,3.3));
#292=CARTESIAN_POINT('Ctrl Pts',(14.0349766751437,30.6573002442446,3.3));
#293=CARTESIAN_POINT('Ctrl Pts',(13.5247695566756,31.0507380630272,3.3));
#294=CARTESIAN_POINT('Ctrl Pts',(12.9540313286563,31.442821111756,3.3));
#295=CARTESIAN_POINT('Ctrl Pts',(12.287642973091,31.8555567295484,3.3));
#296=CARTESIAN_POINT('Ctrl Pts',(11.5096360947957,32.3052354294419,3.3));
#297=CARTESIAN_POINT('Ctrl Pts',(10.6356998511129,32.7971101335903,3.3));
#298=CARTESIAN_POINT('Ctrl Pts',(9.73180494334507,33.3179368769653,3.3));
#299=CARTESIAN_POINT('Ctrl Pts',(8.90315836888885,33.8390076472098,3.3));
#300=CARTESIAN_POINT('Ctrl Pts',(8.26859093015699,34.324382753488,3.3));
#301=CARTESIAN_POINT('Ctrl Pts',(7.93854456955439,34.7377667514018,3.3));
#302=CARTESIAN_POINT('Ctrl Pts',(7.99375739261827,35.0493130603668,3.3));
#303=CARTESIAN_POINT('Ctrl Pts',(8.45822686840608,35.2440164998011,3.3));
#304=CARTESIAN_POINT('Ctrl Pts',(9.29600842009913,35.3232699628256,3.3));
#305=CARTESIAN_POINT('Ctrl Pts',(10.4318313525495,35.2995532968394,3.3));
#306=CARTESIAN_POINT('Ctrl Pts',(11.7652306725969,35.1929973267439,3.3));
#307=CARTESIAN_POINT('Ctrl Pts',(13.1871213271804,35.0272325254216,3.3));
#308=CARTESIAN_POINT('Ctrl Pts',(14.5957056061127,34.8254567758234,3.3));
#309=CARTESIAN_POINT('Ctrl Pts',(15.9117353348151,34.6066304846368,3.3));
#310=CARTESIAN_POINT('Ctrl Pts',(17.0965367233365,34.3810326966295,3.3));
#311=CARTESIAN_POINT('Ctrl Pts',(18.1462639838721,34.1514172224533,3.3));
#312=CARTESIAN_POINT('Ctrl Pts',(19.0816832563441,33.9152251524098,3.3));
#313=CARTESIAN_POINT('Ctrl Pts',(19.9395755428429,33.6664156684708,3.3));
#314=CARTESIAN_POINT('Ctrl Pts',(20.7634165287641,33.3974674128772,3.3));
#315=CARTESIAN_POINT('Ctrl Pts',(21.5945320967193,33.1012693478351,3.3));
#316=CARTESIAN_POINT('Ctrl Pts',(22.4626865955702,32.7731416620884,3.3));
#317=CARTESIAN_POINT('Ctrl Pts',(23.3779494665567,32.4125657794196,3.3));
#318=CARTESIAN_POINT('Ctrl Pts',(24.3357845773975,32.0219203221743,3.3));
#319=CARTESIAN_POINT('Ctrl Pts',(25.3211821378282,31.6054298374838,3.3));
#320=CARTESIAN_POINT('Ctrl Pts',(26.3130827283267,31.1680557937329,3.3));
#321=CARTESIAN_POINT('Ctrl Pts',(27.2887984803152,30.7143673179024,3.3));
#322=CARTESIAN_POINT('Ctrl Pts',(28.2281279753241,30.2475283442993,3.3));
#323=CARTESIAN_POINT('Ctrl Pts',(29.1183427662366,29.7679717957965,3.3));
#324=CARTESIAN_POINT('Ctrl Pts',(29.9562888038649,29.2730981992556,3.3));
#325=CARTESIAN_POINT('Ctrl Pts',(30.74513396624,28.7588764243265,3.3));
#326=CARTESIAN_POINT('Ctrl Pts',(31.4923155697503,28.221014065667,3.3));
#327=CARTESIAN_POINT('Ctrl Pts',(32.2069889966534,27.6563191020273,3.3));
#328=CARTESIAN_POINT('Ctrl Pts',(32.8977473565252,27.0639364961063,3.3));
#329=CARTESIAN_POINT('Ctrl Pts',(33.5700952389564,26.4467466032409,3.3));
#330=CARTESIAN_POINT('Ctrl Pts',(34.224403482133,25.8123903398822,3.3));
#331=CARTESIAN_POINT('Ctrl Pts',(34.8576527379491,25.171171471708,3.3));
#332=CARTESIAN_POINT('Ctrl Pts',(35.4648173935413,24.5342724511211,3.3));
#333=CARTESIAN_POINT('Ctrl Pts',(36.040428199755,23.9117864886529,3.3));
#334=CARTESIAN_POINT('Ctrl Pts',(36.5799571147778,23.310976809924,3.3));
#335=CARTESIAN_POINT('Ctrl Pts',(37.0815224554564,22.7340745450813,3.3));
#336=CARTESIAN_POINT('Ctrl Pts',(37.5466686339258,22.1774420353699,3.3));
#337=CARTESIAN_POINT('Ctrl Pts',(37.9790073144691,21.6338989022775,3.3));
#338=CARTESIAN_POINT('Ctrl Pts',(38.3832432720227,21.0944908291861,3.3));
#339=CARTESIAN_POINT('Ctrl Pts',(38.7641300054665,20.5503306294918,3.3));
#340=CARTESIAN_POINT('Ctrl Pts',(39.1252589201875,19.9947647857634,3.3));
#341=CARTESIAN_POINT('Ctrl Pts',(39.46870753222,19.4239738289002,3.3));
#342=CARTESIAN_POINT('Ctrl Pts',(39.7301867747841,18.9535972940706,3.3));
#343=CARTESIAN_POINT('Ctrl Pts',(39.9189873121137,18.5928052958869,3.3));
#344=CARTESIAN_POINT('Ctrl Pts',(40.0416075224744,18.3487173465425,3.3));
#345=CARTESIAN_POINT('Ctrl Pts',(40.102105886903,18.2257834511512,3.3));
#346=CARTESIAN_POINT('',(14.9079359411615,20.1365185387264,6.3));
#347=CARTESIAN_POINT('',(14.9079359411615,20.1365185387264,3.3));
#348=CARTESIAN_POINT('',(40.102105886903,18.2257834511512,6.3));
#349=CARTESIAN_POINT('Ctrl Pts',(40.102105886903,18.2257834511512,6.3));
#350=CARTESIAN_POINT('Ctrl Pts',(40.0416075224744,18.3487173465425,6.3));
#351=CARTESIAN_POINT('Ctrl Pts',(39.9189873121137,18.5928052958869,6.3));
#352=CARTESIAN_POINT('Ctrl Pts',(39.7301867747841,18.9535972940706,6.3));
#353=CARTESIAN_POINT('Ctrl Pts',(39.46870753222,19.4239738289002,6.3));
#354=CARTESIAN_POINT('Ctrl Pts',(39.1252589201875,19.9947647857634,6.3));
#355=CARTESIAN_POINT('Ctrl Pts',(38.7641300054665,20.5503306294918,6.3));
#356=CARTESIAN_POINT('Ctrl Pts',(38.3832432720227,21.0944908291861,6.3));
#357=CARTESIAN_POINT('Ctrl Pts',(37.9790073144691,21.6338989022775,6.3));
#358=CARTESIAN_POINT('Ctrl Pts',(37.5466686339258,22.1774420353699,6.3));
#359=CARTESIAN_POINT('Ctrl Pts',(37.0815224554564,22.7340745450813,6.3));
#360=CARTESIAN_POINT('Ctrl Pts',(36.5799571147778,23.310976809924,6.3));
#361=CARTESIAN_POINT('Ctrl Pts',(36.040428199755,23.9117864886529,6.3));
#362=CARTESIAN_POINT('Ctrl Pts',(35.4648173935413,24.5342724511211,6.3));
#363=CARTESIAN_POINT('Ctrl Pts',(34.8576527379491,25.171171471708,6.3));
#364=CARTESIAN_POINT('Ctrl Pts',(34.224403482133,25.8123903398822,6.3));
#365=CARTESIAN_POINT('Ctrl Pts',(33.5700952389564,26.4467466032409,6.3));
#366=CARTESIAN_POINT('Ctrl Pts',(32.8977473565252,27.0639364961063,6.3));
#367=CARTESIAN_POINT('Ctrl Pts',(32.2069889966534,27.6563191020273,6.3));
#368=CARTESIAN_POINT('Ctrl Pts',(31.4923155697503,28.221014065667,6.3));
#369=CARTESIAN_POINT('Ctrl Pts',(30.74513396624,28.7588764243265,6.3));
#370=CARTESIAN_POINT('Ctrl Pts',(29.9562888038649,29.2730981992556,6.3));
#371=CARTESIAN_POINT('Ctrl Pts',(29.1183427662366,29.7679717957965,6.3));
#372=CARTESIAN_POINT('Ctrl Pts',(28.2281279753241,30.2475283442993,6.3));
#373=CARTESIAN_POINT('Ctrl Pts',(27.2887984803152,30.7143673179024,6.3));
#374=CARTESIAN_POINT('Ctrl Pts',(26.3130827283267,31.1680557937329,6.3));
#375=CARTESIAN_POINT('Ctrl Pts',(25.3211821378282,31.6054298374838,6.3));
#376=CARTESIAN_POINT('Ctrl Pts',(24.3357845773975,32.0219203221743,6.3));
#377=CARTESIAN_POINT('Ctrl Pts',(23.3779494665567,32.4125657794196,6.3));
#378=CARTESIAN_POINT('Ctrl Pts',(22.4626865955702,32.7731416620884,6.3));
#379=CARTESIAN_POINT('Ctrl Pts',(21.5945320967193,33.1012693478351,6.3));
#380=CARTESIAN_POINT('Ctrl Pts',(20.7634165287641,33.3974674128772,6.3));
#381=CARTESIAN_POINT('Ctrl Pts',(19.9395755428429,33.6664156684708,6.3));
#382=CARTESIAN_POINT('Ctrl Pts',(19.0816832563441,33.9152251524098,6.3));
#383=CARTESIAN_POINT('Ctrl Pts',(18.1462639838721,34.1514172224533,6.3));
#384=CARTESIAN_POINT('Ctrl Pts',(17.0965367233365,34.3810326966295,6.3));
#385=CARTESIAN_POINT('Ctrl Pts',(15.9117353348151,34.6066304846368,6.3));
#386=CARTESIAN_POINT('Ctrl Pts',(14.5957056061127,34.8254567758234,6.3));
#387=CARTESIAN_POINT('Ctrl Pts',(13.1871213271804,35.0272325254216,6.3));
#388=CARTESIAN_POINT('Ctrl Pts',(11.7652306725969,35.1929973267439,6.3));
#389=CARTESIAN_POINT('Ctrl Pts',(10.4318313525495,35.2995532968394,6.3));
#390=CARTESIAN_POINT('Ctrl Pts',(9.29600842009913,35.3232699628256,6.3));
#391=CARTESIAN_POINT('Ctrl Pts',(8.45822686840608,35.2440164998011,6.3));
#392=CARTESIAN_POINT('Ctrl Pts',(7.99375739261827,35.0493130603668,6.3));
#393=CARTESIAN_POINT('Ctrl Pts',(7.93854456955439,34.7377667514018,6.3));
#394=CARTESIAN_POINT('Ctrl Pts',(8.26859093015699,34.324382753488,6.3));
#395=CARTESIAN_POINT('Ctrl Pts',(8.90315836888885,33.8390076472098,6.3));
#396=CARTESIAN_POINT('Ctrl Pts',(9.73180494334507,33.3179368769653,6.3));
#397=CARTESIAN_POINT('Ctrl Pts',(10.6356998511129,32.7971101335903,6.3));
#398=CARTESIAN_POINT('Ctrl Pts',(11.5096360947957,32.3052354294419,6.3));
#399=CARTESIAN_POINT('Ctrl Pts',(12.287642973091,31.8555567295484,6.3));
#400=CARTESIAN_POINT('Ctrl Pts',(12.9540313286563,31.442821111756,6.3));
#401=CARTESIAN_POINT('Ctrl Pts',(13.5247695566756,31.0507380630272,6.3));
#402=CARTESIAN_POINT('Ctrl Pts',(14.0349766751437,30.6573002442446,6.3));
#403=CARTESIAN_POINT('Ctrl Pts',(14.5246736711893,30.2406651083886,6.3));
#404=CARTESIAN_POINT('Ctrl Pts',(15.0236706558861,29.7854775785212,6.3));
#405=CARTESIAN_POINT('Ctrl Pts',(15.5420513953385,29.2868011530104,6.3));
#406=CARTESIAN_POINT('Ctrl Pts',(16.0761797946209,28.7474749048666,6.3));
#407=CARTESIAN_POINT('Ctrl Pts',(16.6116785501876,28.176794997652,6.3));
#408=CARTESIAN_POINT('Ctrl Pts',(17.1275797698558,27.5885944563035,6.3));
#409=CARTESIAN_POINT('Ctrl Pts',(17.6000099858925,26.9997868359028,6.3));
#410=CARTESIAN_POINT('Ctrl Pts',(18.0059050988872,26.4280182139171,6.3));
#411=CARTESIAN_POINT('Ctrl Pts',(18.3262556211382,25.8881818993684,6.3));
#412=CARTESIAN_POINT('Ctrl Pts',(18.5495843649433,25.3890937088731,6.3));
#413=CARTESIAN_POINT('Ctrl Pts',(18.6751222886807,24.9303047717416,6.3));
#414=CARTESIAN_POINT('Ctrl Pts',(18.7166850593447,24.4983047605464,6.3));
#415=CARTESIAN_POINT('Ctrl Pts',(18.6939666880335,24.0748556786406,6.3));
#416=CARTESIAN_POINT('Ctrl Pts',(18.6240405923452,23.6451375272542,6.3));
#417=CARTESIAN_POINT('Ctrl Pts',(18.5110505803624,23.2076417892635,6.3));
#418=CARTESIAN_POINT('Ctrl Pts',(18.3498032821081,22.7705900822907,6.3));
#419=CARTESIAN_POINT('Ctrl Pts',(18.1319536934929,22.3458081087559,6.3));
#420=CARTESIAN_POINT('Ctrl Pts',(17.852428664739,21.9424398668577,6.3));
#421=CARTESIAN_POINT('Ctrl Pts',(17.5106597479998,21.5654039547329,6.3));
#422=CARTESIAN_POINT('Ctrl Pts',(17.1081396157974,21.2172532823001,6.3));
#423=CARTESIAN_POINT('Ctrl Pts',(16.6470388447553,20.8990220907154,6.3));
#424=CARTESIAN_POINT('Ctrl Pts',(16.1285988535717,20.6113746797238,6.3));
#425=CARTESIAN_POINT('Ctrl Pts',(15.6685292734568,20.4059543370881,6.3));
#426=CARTESIAN_POINT('Ctrl Pts',(15.298098578094,20.2658205960214,6.3));
#427=CARTESIAN_POINT('Ctrl Pts',(15.0398694091624,20.1785876198922,6.3));
#428=CARTESIAN_POINT('Ctrl Pts',(14.9079359411615,20.1365185387264,6.3));
#429=CARTESIAN_POINT('',(40.102105886903,18.2257834511512,3.3));
#430=CARTESIAN_POINT('Origin',(14.9079359411615,20.1365185387264,3.3));
#431=CARTESIAN_POINT('',(14.9079359411615,20.1365185387264,3.3));
#432=CARTESIAN_POINT('',(14.9079359411615,20.1365185387264,6.3));
#433=CARTESIAN_POINT('Origin',(24.0203252282287,26.7745267069884,6.3));
#434=CARTESIAN_POINT('Origin',(24.0203252282287,26.7745267069884,3.3));
#435=CARTESIAN_POINT('',(0.,0.,0.));
#436=UNCERTAINTY_MEASURE_WITH_UNIT(LENGTH_MEASURE(0.01),#442,
'DISTANCE_ACCURACY_VALUE',
'Maximum model space distance between geometric entities at asserted c
onnectivities');
#437=UNCERTAINTY_MEASURE_WITH_UNIT(LENGTH_MEASURE(0.01),#442,
'DISTANCE_ACCURACY_VALUE',
'Maximum model space distance between geometric entities at asserted c
onnectivities');
#438=UNCERTAINTY_MEASURE_WITH_UNIT(LENGTH_MEASURE(0.01),#442,
'DISTANCE_ACCURACY_VALUE',
'Maximum model space distance between geometric entities at asserted c
onnectivities');
#439=(
GEOMETRIC_REPRESENTATION_CONTEXT(3)
GLOBAL_UNCERTAINTY_ASSIGNED_CONTEXT((#436))
GLOBAL_UNIT_ASSIGNED_CONTEXT((#442,#444,#445))
REPRESENTATION_CONTEXT('','3D')
);
#440=(
GEOMETRIC_REPRESENTATION_CONTEXT(3)
GLOBAL_UNCERTAINTY_ASSIGNED_CONTEXT((#437))
GLOBAL_UNIT_ASSIGNED_CONTEXT((#442,#444,#445))
REPRESENTATION_CONTEXT('','3D')
);
#441=(
GEOMETRIC_REPRESENTATION_CONTEXT(3)
GLOBAL_UNCERTAINTY_ASSIGNED_CONTEXT((#438))
GLOBAL_UNIT_ASSIGNED_CONTEXT((#442,#444,#445))
REPRESENTATION_CONTEXT('','3D')
);
#442=(
LENGTH_UNIT()
NAMED_UNIT(*)
SI_UNIT(.MILLI.,.METRE.)
);
#443=(
LENGTH_UNIT()
NAMED_UNIT(*)
SI_UNIT($,.METRE.)
);
#444=(
NAMED_UNIT(*)
PLANE_ANGLE_UNIT()
SI_UNIT($,.RADIAN.)
);
#445=(
NAMED_UNIT(*)
SI_UNIT($,.STERADIAN.)
SOLID_ANGLE_UNIT()
);
#446=SHAPE_DEFINITION_REPRESENTATION(#448,#451);
#447=SHAPE_DEFINITION_REPRESENTATION(#449,#452);
#448=PRODUCT_DEFINITION_SHAPE('',$,#454);
#449=PRODUCT_DEFINITION_SHAPE('',$,#455);
#450=PRODUCT_DEFINITION_SHAPE($,$,#14);
#451=SHAPE_REPRESENTATION('',(#80,#85),#439);
#452=SHAPE_REPRESENTATION('',(#81),#440);
#453=PRODUCT_DEFINITION_CONTEXT('part definition',#461,'design');
#454=PRODUCT_DEFINITION('pez_semana_15_colagrande',
'pez_semana_15_colagrande v10',#456,#453);
#455=PRODUCT_DEFINITION('aleta1','aleta1',#457,#453);
#456=PRODUCT_DEFINITION_FORMATION('',$,#463);
#457=PRODUCT_DEFINITION_FORMATION('',$,#464);
#458=PRODUCT_RELATED_PRODUCT_CATEGORY('pez_semana_15_colagrande v10',
'pez_semana_15_colagrande v10',(#463));
#459=PRODUCT_RELATED_PRODUCT_CATEGORY('aleta1','aleta1',(#464));
#460=APPLICATION_PROTOCOL_DEFINITION('international standard',
'automotive_design',2009,#461);
#461=APPLICATION_CONTEXT(
'Core Data for Automotive Mechanical Design Process');
#462=PRODUCT_CONTEXT('part definition',#461,'mechanical');
#463=PRODUCT('pez_semana_15_colagrande','pez_semana_15_colagrande v10',
$,(#462));
#464=PRODUCT('aleta1','aleta1',$,(#462));
#465=PRESENTATION_STYLE_ASSIGNMENT((#467));
#466=PRESENTATION_STYLE_ASSIGNMENT((#468));
#467=SURFACE_STYLE_USAGE(.BOTH.,#469);
#468=SURFACE_STYLE_USAGE(.BOTH.,#470);
#469=SURFACE_SIDE_STYLE('',(#471));
#470=SURFACE_SIDE_STYLE('',(#472));
#471=SURFACE_STYLE_FILL_AREA(#473);
#472=SURFACE_STYLE_FILL_AREA(#474);
#473=FILL_AREA_STYLE('Steel - Satin',(#475));
#474=FILL_AREA_STYLE('Glass - Frosted Light',(#476));
#475=FILL_AREA_STYLE_COLOUR('Steel - Satin',#477);
#476=FILL_AREA_STYLE_COLOUR('Glass - Frosted Light',#478);
#477=COLOUR_RGB('Steel - Satin',0.627450980392157,0.627450980392157,0.627450980392157);
#478=COLOUR_RGB('Glass - Frosted Light',0.964705882352941,0.964705882352941,
0.952941176470588);
ENDSEC;
END-ISO-10303-21;
