ISO-10303-21;
HEADER;
/* Generated by software containing ST-Developer
 * from STEP Tools, Inc. (www.steptools.com) 
 */

FILE_DESCRIPTION(
/* description */ (''),
/* implementation_level */ '2;1');

FILE_NAME(
/* name */ 'slot.step',
/* time_stamp */ '2026-08-19T10:15:18-05:00',
/* author */ (''),
/* organization */ (''),
/* preprocessor_version */ 'ST-DEVELOPER v20.1',
/* originating_system */ 'Autodesk Translation Framework v15.8.0.0',
/* authorisation */ '');

FILE_SCHEMA (('AUTOMOTIVE_DESIGN { 1 0 10303 214 3 1 1 }'));
ENDSEC;

DATA;
#10=MECHANICAL_DESIGN_GEOMETRIC_PRESENTATION_REPRESENTATION('',(#13),#506);
#11=SHAPE_REPRESENTATION_RELATIONSHIP('SRR','None',#513,#12);
#12=ADVANCED_BREP_SHAPE_REPRESENTATION('',(#14),#505);
#13=STYLED_ITEM('',(#522),#14);
#14=MANIFOLD_SOLID_BREP('slot',#294);
#15=FACE_BOUND('',#58,.T.);
#16=FACE_BOUND('',#59,.T.);
#17=FACE_BOUND('',#60,.T.);
#18=FACE_BOUND('',#62,.T.);
#19=FACE_BOUND('',#63,.T.);
#20=FACE_BOUND('',#64,.T.);
#21=PLANE('',#311);
#22=PLANE('',#315);
#23=PLANE('',#319);
#24=PLANE('',#323);
#25=PLANE('',#330);
#26=PLANE('',#334);
#27=PLANE('',#335);
#28=PLANE('',#336);
#29=FACE_OUTER_BOUND('',#44,.T.);
#30=FACE_OUTER_BOUND('',#45,.T.);
#31=FACE_OUTER_BOUND('',#46,.T.);
#32=FACE_OUTER_BOUND('',#47,.T.);
#33=FACE_OUTER_BOUND('',#48,.T.);
#34=FACE_OUTER_BOUND('',#49,.T.);
#35=FACE_OUTER_BOUND('',#50,.T.);
#36=FACE_OUTER_BOUND('',#51,.T.);
#37=FACE_OUTER_BOUND('',#52,.T.);
#38=FACE_OUTER_BOUND('',#53,.T.);
#39=FACE_OUTER_BOUND('',#54,.T.);
#40=FACE_OUTER_BOUND('',#55,.T.);
#41=FACE_OUTER_BOUND('',#56,.T.);
#42=FACE_OUTER_BOUND('',#57,.T.);
#43=FACE_OUTER_BOUND('',#61,.T.);
#44=EDGE_LOOP('',(#194,#195,#196,#197));
#45=EDGE_LOOP('',(#198,#199,#200,#201));
#46=EDGE_LOOP('',(#202,#203,#204,#205));
#47=EDGE_LOOP('',(#206,#207,#208,#209));
#48=EDGE_LOOP('',(#210,#211,#212,#213));
#49=EDGE_LOOP('',(#214,#215,#216,#217));
#50=EDGE_LOOP('',(#218,#219,#220,#221));
#51=EDGE_LOOP('',(#222,#223,#224,#225));
#52=EDGE_LOOP('',(#226,#227,#228,#229));
#53=EDGE_LOOP('',(#230,#231,#232,#233));
#54=EDGE_LOOP('',(#234,#235,#236,#237));
#55=EDGE_LOOP('',(#238,#239,#240,#241));
#56=EDGE_LOOP('',(#242,#243,#244,#245));
#57=EDGE_LOOP('',(#246,#247,#248,#249));
#58=EDGE_LOOP('',(#250));
#59=EDGE_LOOP('',(#251,#252,#253,#254));
#60=EDGE_LOOP('',(#255,#256,#257,#258));
#61=EDGE_LOOP('',(#259,#260,#261,#262));
#62=EDGE_LOOP('',(#263));
#63=EDGE_LOOP('',(#264,#265,#266,#267));
#64=EDGE_LOOP('',(#268,#269,#270,#271));
#65=LINE('',#427,#90);
#66=LINE('',#432,#91);
#67=LINE('',#434,#92);
#68=LINE('',#436,#93);
#69=LINE('',#437,#94);
#70=LINE('',#443,#95);
#71=LINE('',#446,#96);
#72=LINE('',#448,#97);
#73=LINE('',#449,#98);
#74=LINE('',#456,#99);
#75=LINE('',#458,#100);
#76=LINE('',#460,#101);
#77=LINE('',#461,#102);
#78=LINE('',#467,#103);
#79=LINE('',#470,#104);
#80=LINE('',#472,#105);
#81=LINE('',#473,#106);
#82=LINE('',#482,#107);
#83=LINE('',#485,#108);
#84=LINE('',#488,#109);
#85=LINE('',#490,#110);
#86=LINE('',#491,#111);
#87=LINE('',#497,#112);
#88=LINE('',#499,#113);
#89=LINE('',#500,#114);
#90=VECTOR('',#343,1.125);
#91=VECTOR('',#348,10.);
#92=VECTOR('',#349,10.);
#93=VECTOR('',#350,10.);
#94=VECTOR('',#351,10.);
#95=VECTOR('',#358,10.);
#96=VECTOR('',#361,10.);
#97=VECTOR('',#362,10.);
#98=VECTOR('',#363,10.);
#99=VECTOR('',#372,10.);
#100=VECTOR('',#373,10.);
#101=VECTOR('',#374,10.);
#102=VECTOR('',#375,10.);
#103=VECTOR('',#382,10.);
#104=VECTOR('',#385,10.);
#105=VECTOR('',#386,10.);
#106=VECTOR('',#387,10.);
#107=VECTOR('',#398,10.);
#108=VECTOR('',#401,10.);
#109=VECTOR('',#404,10.);
#110=VECTOR('',#405,10.);
#111=VECTOR('',#406,10.);
#112=VECTOR('',#413,10.);
#113=VECTOR('',#416,10.);
#114=VECTOR('',#417,10.);
#115=CIRCLE('',#309,1.125);
#116=CIRCLE('',#310,1.125);
#117=CIRCLE('',#313,1.125);
#118=CIRCLE('',#314,1.125);
#119=CIRCLE('',#317,1.125);
#120=CIRCLE('',#318,1.125);
#121=CIRCLE('',#321,1.125);
#122=CIRCLE('',#322,1.125);
#123=CIRCLE('',#325,1.125);
#124=CIRCLE('',#326,1.125);
#125=CIRCLE('',#328,2.5);
#126=CIRCLE('',#329,2.5);
#127=CIRCLE('',#332,2.5);
#128=CIRCLE('',#333,2.5);
#129=VERTEX_POINT('',#424);
#130=VERTEX_POINT('',#426);
#131=VERTEX_POINT('',#430);
#132=VERTEX_POINT('',#431);
#133=VERTEX_POINT('',#433);
#134=VERTEX_POINT('',#435);
#135=VERTEX_POINT('',#439);
#136=VERTEX_POINT('',#441);
#137=VERTEX_POINT('',#445);
#138=VERTEX_POINT('',#447);
#139=VERTEX_POINT('',#454);
#140=VERTEX_POINT('',#455);
#141=VERTEX_POINT('',#457);
#142=VERTEX_POINT('',#459);
#143=VERTEX_POINT('',#463);
#144=VERTEX_POINT('',#465);
#145=VERTEX_POINT('',#469);
#146=VERTEX_POINT('',#471);
#147=VERTEX_POINT('',#478);
#148=VERTEX_POINT('',#479);
#149=VERTEX_POINT('',#481);
#150=VERTEX_POINT('',#483);
#151=VERTEX_POINT('',#487);
#152=VERTEX_POINT('',#489);
#153=VERTEX_POINT('',#493);
#154=VERTEX_POINT('',#495);
#155=EDGE_CURVE('',#129,#129,#115,.T.);
#156=EDGE_CURVE('',#129,#130,#65,.T.);
#157=EDGE_CURVE('',#130,#130,#116,.T.);
#158=EDGE_CURVE('',#131,#132,#66,.T.);
#159=EDGE_CURVE('',#132,#133,#67,.T.);
#160=EDGE_CURVE('',#134,#133,#68,.T.);
#161=EDGE_CURVE('',#131,#134,#69,.T.);
#162=EDGE_CURVE('',#135,#131,#117,.T.);
#163=EDGE_CURVE('',#136,#134,#118,.T.);
#164=EDGE_CURVE('',#135,#136,#70,.T.);
#165=EDGE_CURVE('',#137,#135,#71,.T.);
#166=EDGE_CURVE('',#138,#136,#72,.T.);
#167=EDGE_CURVE('',#137,#138,#73,.T.);
#168=EDGE_CURVE('',#132,#137,#119,.T.);
#169=EDGE_CURVE('',#133,#138,#120,.T.);
#170=EDGE_CURVE('',#139,#140,#74,.T.);
#171=EDGE_CURVE('',#140,#141,#75,.T.);
#172=EDGE_CURVE('',#142,#141,#76,.T.);
#173=EDGE_CURVE('',#139,#142,#77,.T.);
#174=EDGE_CURVE('',#143,#139,#121,.T.);
#175=EDGE_CURVE('',#144,#142,#122,.T.);
#176=EDGE_CURVE('',#143,#144,#78,.T.);
#177=EDGE_CURVE('',#145,#143,#79,.T.);
#178=EDGE_CURVE('',#146,#144,#80,.T.);
#179=EDGE_CURVE('',#145,#146,#81,.T.);
#180=EDGE_CURVE('',#140,#145,#123,.T.);
#181=EDGE_CURVE('',#141,#146,#124,.T.);
#182=EDGE_CURVE('',#147,#148,#125,.T.);
#183=EDGE_CURVE('',#148,#149,#82,.T.);
#184=EDGE_CURVE('',#150,#149,#126,.T.);
#185=EDGE_CURVE('',#147,#150,#83,.T.);
#186=EDGE_CURVE('',#151,#147,#84,.T.);
#187=EDGE_CURVE('',#152,#150,#85,.T.);
#188=EDGE_CURVE('',#151,#152,#86,.T.);
#189=EDGE_CURVE('',#153,#151,#127,.T.);
#190=EDGE_CURVE('',#154,#152,#128,.T.);
#191=EDGE_CURVE('',#153,#154,#87,.T.);
#192=EDGE_CURVE('',#148,#153,#88,.T.);
#193=EDGE_CURVE('',#149,#154,#89,.T.);
#194=ORIENTED_EDGE('',*,*,#155,.F.);
#195=ORIENTED_EDGE('',*,*,#156,.T.);
#196=ORIENTED_EDGE('',*,*,#157,.F.);
#197=ORIENTED_EDGE('',*,*,#156,.F.);
#198=ORIENTED_EDGE('',*,*,#158,.T.);
#199=ORIENTED_EDGE('',*,*,#159,.T.);
#200=ORIENTED_EDGE('',*,*,#160,.F.);
#201=ORIENTED_EDGE('',*,*,#161,.F.);
#202=ORIENTED_EDGE('',*,*,#162,.T.);
#203=ORIENTED_EDGE('',*,*,#161,.T.);
#204=ORIENTED_EDGE('',*,*,#163,.F.);
#205=ORIENTED_EDGE('',*,*,#164,.F.);
#206=ORIENTED_EDGE('',*,*,#165,.T.);
#207=ORIENTED_EDGE('',*,*,#164,.T.);
#208=ORIENTED_EDGE('',*,*,#166,.F.);
#209=ORIENTED_EDGE('',*,*,#167,.F.);
#210=ORIENTED_EDGE('',*,*,#168,.T.);
#211=ORIENTED_EDGE('',*,*,#167,.T.);
#212=ORIENTED_EDGE('',*,*,#169,.F.);
#213=ORIENTED_EDGE('',*,*,#159,.F.);
#214=ORIENTED_EDGE('',*,*,#170,.T.);
#215=ORIENTED_EDGE('',*,*,#171,.T.);
#216=ORIENTED_EDGE('',*,*,#172,.F.);
#217=ORIENTED_EDGE('',*,*,#173,.F.);
#218=ORIENTED_EDGE('',*,*,#174,.T.);
#219=ORIENTED_EDGE('',*,*,#173,.T.);
#220=ORIENTED_EDGE('',*,*,#175,.F.);
#221=ORIENTED_EDGE('',*,*,#176,.F.);
#222=ORIENTED_EDGE('',*,*,#177,.T.);
#223=ORIENTED_EDGE('',*,*,#176,.T.);
#224=ORIENTED_EDGE('',*,*,#178,.F.);
#225=ORIENTED_EDGE('',*,*,#179,.F.);
#226=ORIENTED_EDGE('',*,*,#180,.T.);
#227=ORIENTED_EDGE('',*,*,#179,.T.);
#228=ORIENTED_EDGE('',*,*,#181,.F.);
#229=ORIENTED_EDGE('',*,*,#171,.F.);
#230=ORIENTED_EDGE('',*,*,#182,.T.);
#231=ORIENTED_EDGE('',*,*,#183,.T.);
#232=ORIENTED_EDGE('',*,*,#184,.F.);
#233=ORIENTED_EDGE('',*,*,#185,.F.);
#234=ORIENTED_EDGE('',*,*,#186,.T.);
#235=ORIENTED_EDGE('',*,*,#185,.T.);
#236=ORIENTED_EDGE('',*,*,#187,.F.);
#237=ORIENTED_EDGE('',*,*,#188,.F.);
#238=ORIENTED_EDGE('',*,*,#189,.T.);
#239=ORIENTED_EDGE('',*,*,#188,.T.);
#240=ORIENTED_EDGE('',*,*,#190,.F.);
#241=ORIENTED_EDGE('',*,*,#191,.F.);
#242=ORIENTED_EDGE('',*,*,#192,.T.);
#243=ORIENTED_EDGE('',*,*,#191,.T.);
#244=ORIENTED_EDGE('',*,*,#193,.F.);
#245=ORIENTED_EDGE('',*,*,#183,.F.);
#246=ORIENTED_EDGE('',*,*,#193,.T.);
#247=ORIENTED_EDGE('',*,*,#190,.T.);
#248=ORIENTED_EDGE('',*,*,#187,.T.);
#249=ORIENTED_EDGE('',*,*,#184,.T.);
#250=ORIENTED_EDGE('',*,*,#157,.T.);
#251=ORIENTED_EDGE('',*,*,#181,.T.);
#252=ORIENTED_EDGE('',*,*,#178,.T.);
#253=ORIENTED_EDGE('',*,*,#175,.T.);
#254=ORIENTED_EDGE('',*,*,#172,.T.);
#255=ORIENTED_EDGE('',*,*,#169,.T.);
#256=ORIENTED_EDGE('',*,*,#166,.T.);
#257=ORIENTED_EDGE('',*,*,#163,.T.);
#258=ORIENTED_EDGE('',*,*,#160,.T.);
#259=ORIENTED_EDGE('',*,*,#192,.F.);
#260=ORIENTED_EDGE('',*,*,#182,.F.);
#261=ORIENTED_EDGE('',*,*,#186,.F.);
#262=ORIENTED_EDGE('',*,*,#189,.F.);
#263=ORIENTED_EDGE('',*,*,#155,.T.);
#264=ORIENTED_EDGE('',*,*,#180,.F.);
#265=ORIENTED_EDGE('',*,*,#170,.F.);
#266=ORIENTED_EDGE('',*,*,#174,.F.);
#267=ORIENTED_EDGE('',*,*,#177,.F.);
#268=ORIENTED_EDGE('',*,*,#168,.F.);
#269=ORIENTED_EDGE('',*,*,#158,.F.);
#270=ORIENTED_EDGE('',*,*,#162,.F.);
#271=ORIENTED_EDGE('',*,*,#165,.F.);
#272=CYLINDRICAL_SURFACE('',#308,1.125);
#273=CYLINDRICAL_SURFACE('',#312,1.125);
#274=CYLINDRICAL_SURFACE('',#316,1.125);
#275=CYLINDRICAL_SURFACE('',#320,1.125);
#276=CYLINDRICAL_SURFACE('',#324,1.125);
#277=CYLINDRICAL_SURFACE('',#327,2.5);
#278=CYLINDRICAL_SURFACE('',#331,2.5);
#279=ADVANCED_FACE('',(#29),#272,.F.);
#280=ADVANCED_FACE('',(#30),#21,.T.);
#281=ADVANCED_FACE('',(#31),#273,.F.);
#282=ADVANCED_FACE('',(#32),#22,.T.);
#283=ADVANCED_FACE('',(#33),#274,.F.);
#284=ADVANCED_FACE('',(#34),#23,.T.);
#285=ADVANCED_FACE('',(#35),#275,.F.);
#286=ADVANCED_FACE('',(#36),#24,.T.);
#287=ADVANCED_FACE('',(#37),#276,.F.);
#288=ADVANCED_FACE('',(#38),#277,.T.);
#289=ADVANCED_FACE('',(#39),#25,.T.);
#290=ADVANCED_FACE('',(#40),#278,.T.);
#291=ADVANCED_FACE('',(#41),#26,.T.);
#292=ADVANCED_FACE('',(#42,#15,#16,#17),#27,.T.);
#293=ADVANCED_FACE('',(#43,#18,#19,#20),#28,.F.);
#294=CLOSED_SHELL('',(#279,#280,#281,#282,#283,#284,#285,#286,#287,#288,
#289,#290,#291,#292,#293));
#295=DERIVED_UNIT_ELEMENT(#297,1.);
#296=DERIVED_UNIT_ELEMENT(#508,-3.);
#297=(
MASS_UNIT()
NAMED_UNIT(*)
SI_UNIT(.KILO.,.GRAM.)
);
#298=DERIVED_UNIT((#295,#296));
#299=MEASURE_REPRESENTATION_ITEM('density measure',
POSITIVE_RATIO_MEASURE(7850.),#298);
#300=PROPERTY_DEFINITION_REPRESENTATION(#305,#302);
#301=PROPERTY_DEFINITION_REPRESENTATION(#306,#303);
#302=REPRESENTATION('material name',(#304),#505);
#303=REPRESENTATION('density',(#299),#505);
#304=DESCRIPTIVE_REPRESENTATION_ITEM('Steel','Steel');
#305=PROPERTY_DEFINITION('material property','material name',#515);
#306=PROPERTY_DEFINITION('material property','density of part',#515);
#307=AXIS2_PLACEMENT_3D('',#422,#337,#338);
#308=AXIS2_PLACEMENT_3D('',#423,#339,#340);
#309=AXIS2_PLACEMENT_3D('',#425,#341,#342);
#310=AXIS2_PLACEMENT_3D('',#428,#344,#345);
#311=AXIS2_PLACEMENT_3D('',#429,#346,#347);
#312=AXIS2_PLACEMENT_3D('',#438,#352,#353);
#313=AXIS2_PLACEMENT_3D('',#440,#354,#355);
#314=AXIS2_PLACEMENT_3D('',#442,#356,#357);
#315=AXIS2_PLACEMENT_3D('',#444,#359,#360);
#316=AXIS2_PLACEMENT_3D('',#450,#364,#365);
#317=AXIS2_PLACEMENT_3D('',#451,#366,#367);
#318=AXIS2_PLACEMENT_3D('',#452,#368,#369);
#319=AXIS2_PLACEMENT_3D('',#453,#370,#371);
#320=AXIS2_PLACEMENT_3D('',#462,#376,#377);
#321=AXIS2_PLACEMENT_3D('',#464,#378,#379);
#322=AXIS2_PLACEMENT_3D('',#466,#380,#381);
#323=AXIS2_PLACEMENT_3D('',#468,#383,#384);
#324=AXIS2_PLACEMENT_3D('',#474,#388,#389);
#325=AXIS2_PLACEMENT_3D('',#475,#390,#391);
#326=AXIS2_PLACEMENT_3D('',#476,#392,#393);
#327=AXIS2_PLACEMENT_3D('',#477,#394,#395);
#328=AXIS2_PLACEMENT_3D('',#480,#396,#397);
#329=AXIS2_PLACEMENT_3D('',#484,#399,#400);
#330=AXIS2_PLACEMENT_3D('',#486,#402,#403);
#331=AXIS2_PLACEMENT_3D('',#492,#407,#408);
#332=AXIS2_PLACEMENT_3D('',#494,#409,#410);
#333=AXIS2_PLACEMENT_3D('',#496,#411,#412);
#334=AXIS2_PLACEMENT_3D('',#498,#414,#415);
#335=AXIS2_PLACEMENT_3D('',#501,#418,#419);
#336=AXIS2_PLACEMENT_3D('',#502,#420,#421);
#337=DIRECTION('axis',(0.,0.,1.));
#338=DIRECTION('refdir',(1.,0.,0.));
#339=DIRECTION('center_axis',(0.,0.,1.));
#340=DIRECTION('ref_axis',(1.,0.,0.));
#341=DIRECTION('center_axis',(0.,0.,1.));
#342=DIRECTION('ref_axis',(1.,0.,0.));
#343=DIRECTION('',(0.,0.,1.));
#344=DIRECTION('center_axis',(0.,0.,-1.));
#345=DIRECTION('ref_axis',(1.,0.,0.));
#346=DIRECTION('center_axis',(-1.38777878078145E-17,-1.,0.));
#347=DIRECTION('ref_axis',(1.,-1.38777878078145E-17,0.));
#348=DIRECTION('',(1.,-1.38777878078145E-17,0.));
#349=DIRECTION('',(0.,0.,1.));
#350=DIRECTION('',(1.,-1.38777878078145E-17,0.));
#351=DIRECTION('',(0.,0.,1.));
#352=DIRECTION('center_axis',(0.,0.,1.));
#353=DIRECTION('ref_axis',(1.54197642309049E-17,1.,0.));
#354=DIRECTION('center_axis',(0.,0.,-1.));
#355=DIRECTION('ref_axis',(1.54197642309049E-17,1.,0.));
#356=DIRECTION('center_axis',(0.,0.,-1.));
#357=DIRECTION('ref_axis',(1.54197642309049E-17,1.,0.));
#358=DIRECTION('',(0.,0.,1.));
#359=DIRECTION('center_axis',(1.38777878078145E-17,1.,0.));
#360=DIRECTION('ref_axis',(-1.,1.38777878078145E-17,0.));
#361=DIRECTION('',(-1.,1.38777878078145E-17,0.));
#362=DIRECTION('',(-1.,1.38777878078145E-17,0.));
#363=DIRECTION('',(0.,0.,1.));
#364=DIRECTION('center_axis',(0.,0.,1.));
#365=DIRECTION('ref_axis',(-1.54197642309049E-17,-1.,0.));
#366=DIRECTION('center_axis',(0.,0.,-1.));
#367=DIRECTION('ref_axis',(-1.54197642309049E-17,-1.,0.));
#368=DIRECTION('center_axis',(0.,0.,-1.));
#369=DIRECTION('ref_axis',(-1.54197642309049E-17,-1.,0.));
#370=DIRECTION('center_axis',(1.38777878078145E-17,1.,0.));
#371=DIRECTION('ref_axis',(-1.,1.38777878078145E-17,0.));
#372=DIRECTION('',(-1.,1.38777878078145E-17,0.));
#373=DIRECTION('',(0.,0.,1.));
#374=DIRECTION('',(-1.,1.38777878078145E-17,0.));
#375=DIRECTION('',(0.,0.,1.));
#376=DIRECTION('center_axis',(0.,0.,1.));
#377=DIRECTION('ref_axis',(-1.54197642309049E-17,-1.,0.));
#378=DIRECTION('center_axis',(0.,0.,-1.));
#379=DIRECTION('ref_axis',(-1.54197642309049E-17,-1.,0.));
#380=DIRECTION('center_axis',(0.,0.,-1.));
#381=DIRECTION('ref_axis',(-1.54197642309049E-17,-1.,0.));
#382=DIRECTION('',(0.,0.,1.));
#383=DIRECTION('center_axis',(-1.38777878078145E-17,-1.,0.));
#384=DIRECTION('ref_axis',(1.,-1.38777878078145E-17,0.));
#385=DIRECTION('',(1.,-1.38777878078145E-17,0.));
#386=DIRECTION('',(1.,-1.38777878078145E-17,0.));
#387=DIRECTION('',(0.,0.,1.));
#388=DIRECTION('center_axis',(0.,0.,1.));
#389=DIRECTION('ref_axis',(-4.62592926927148E-17,1.,0.));
#390=DIRECTION('center_axis',(0.,0.,-1.));
#391=DIRECTION('ref_axis',(-4.62592926927148E-17,1.,0.));
#392=DIRECTION('center_axis',(0.,0.,-1.));
#393=DIRECTION('ref_axis',(-4.62592926927148E-17,1.,0.));
#394=DIRECTION('center_axis',(0.,0.,1.));
#395=DIRECTION('ref_axis',(0.,-1.,0.));
#396=DIRECTION('center_axis',(0.,0.,1.));
#397=DIRECTION('ref_axis',(0.,-1.,0.));
#398=DIRECTION('',(0.,0.,1.));
#399=DIRECTION('center_axis',(0.,0.,1.));
#400=DIRECTION('ref_axis',(0.,-1.,0.));
#401=DIRECTION('',(0.,0.,1.));
#402=DIRECTION('center_axis',(-4.16333634234434E-17,-1.,0.));
#403=DIRECTION('ref_axis',(1.,-4.16333634234434E-17,0.));
#404=DIRECTION('',(1.,-4.16333634234434E-17,0.));
#405=DIRECTION('',(1.,-4.16333634234434E-17,0.));
#406=DIRECTION('',(0.,0.,1.));
#407=DIRECTION('center_axis',(0.,0.,1.));
#408=DIRECTION('ref_axis',(1.38777878078145E-16,1.,0.));
#409=DIRECTION('center_axis',(0.,0.,1.));
#410=DIRECTION('ref_axis',(1.38777878078145E-16,1.,0.));
#411=DIRECTION('center_axis',(0.,0.,1.));
#412=DIRECTION('ref_axis',(1.38777878078145E-16,1.,0.));
#413=DIRECTION('',(0.,0.,1.));
#414=DIRECTION('center_axis',(-2.77555756156289E-17,1.,0.));
#415=DIRECTION('ref_axis',(-1.,-2.77555756156289E-17,0.));
#416=DIRECTION('',(-1.,-2.77555756156289E-17,0.));
#417=DIRECTION('',(-1.,-2.77555756156289E-17,0.));
#418=DIRECTION('center_axis',(0.,0.,1.));
#419=DIRECTION('ref_axis',(1.,-1.38777878078145E-17,0.));
#420=DIRECTION('center_axis',(0.,0.,1.));
#421=DIRECTION('ref_axis',(1.,-1.38777878078145E-17,0.));
#422=CARTESIAN_POINT('',(0.,0.,0.));
#423=CARTESIAN_POINT('Origin',(37.9955027698754,0.314513652585341,26.4));
#424=CARTESIAN_POINT('',(36.8705027698754,0.314513652585341,29.6));
#425=CARTESIAN_POINT('Origin',(37.9955027698754,0.314513652585341,29.6));
#426=CARTESIAN_POINT('',(36.8705027698754,0.314513652585342,32.6));
#427=CARTESIAN_POINT('',(36.8705027698754,0.314513652585341,26.4));
#428=CARTESIAN_POINT('Origin',(37.9955027698754,0.314513652585341,32.6));
#429=CARTESIAN_POINT('Origin',(44.7300695591027,1.1702513061007,29.6));
#430=CARTESIAN_POINT('',(44.7300695591027,1.1702513061007,29.6));
#431=CARTESIAN_POINT('',(64.7300695591027,1.1702513061007,29.6));
#432=CARTESIAN_POINT('',(64.7300695591027,1.1702513061007,29.6));
#433=CARTESIAN_POINT('',(64.7300695591027,1.1702513061007,32.6));
#434=CARTESIAN_POINT('',(64.7300695591027,1.1702513061007,29.6));
#435=CARTESIAN_POINT('',(44.7300695591027,1.1702513061007,32.6));
#436=CARTESIAN_POINT('',(64.7300695591027,1.1702513061007,32.6));
#437=CARTESIAN_POINT('',(44.7300695591027,1.1702513061007,29.6));
#438=CARTESIAN_POINT('Origin',(44.7300695591027,0.0452513061006957,29.6));
#439=CARTESIAN_POINT('',(44.7300695591027,-1.0797486938993,29.6));
#440=CARTESIAN_POINT('Origin',(44.7300695591027,0.0452513061006957,29.6));
#441=CARTESIAN_POINT('',(44.7300695591027,-1.0797486938993,32.6));
#442=CARTESIAN_POINT('Origin',(44.7300695591027,0.0452513061006957,32.6));
#443=CARTESIAN_POINT('',(44.7300695591027,-1.0797486938993,29.6));
#444=CARTESIAN_POINT('Origin',(64.7300695591028,-1.0797486938993,29.6));
#445=CARTESIAN_POINT('',(64.7300695591028,-1.0797486938993,29.6));
#446=CARTESIAN_POINT('',(44.7300695591027,-1.0797486938993,29.6));
#447=CARTESIAN_POINT('',(64.7300695591028,-1.0797486938993,32.6));
#448=CARTESIAN_POINT('',(44.7300695591027,-1.0797486938993,32.6));
#449=CARTESIAN_POINT('',(64.7300695591028,-1.0797486938993,29.6));
#450=CARTESIAN_POINT('Origin',(64.7300695591027,0.0452513061006957,29.6));
#451=CARTESIAN_POINT('Origin',(64.7300695591027,0.0452513061006957,29.6));
#452=CARTESIAN_POINT('Origin',(64.7300695591027,0.0452513061006957,32.6));
#453=CARTESIAN_POINT('Origin',(13.6800695591027,-1.0797486938993,29.6));
#454=CARTESIAN_POINT('',(13.6800695591027,-1.0797486938993,29.6));
#455=CARTESIAN_POINT('',(-10.5199304408973,-1.0797486938993,29.6));
#456=CARTESIAN_POINT('',(-10.5199304408973,-1.0797486938993,29.6));
#457=CARTESIAN_POINT('',(-10.5199304408973,-1.0797486938993,32.6));
#458=CARTESIAN_POINT('',(-10.5199304408973,-1.0797486938993,29.6));
#459=CARTESIAN_POINT('',(13.6800695591027,-1.0797486938993,32.6));
#460=CARTESIAN_POINT('',(-10.5199304408973,-1.0797486938993,32.6));
#461=CARTESIAN_POINT('',(13.6800695591027,-1.0797486938993,29.6));
#462=CARTESIAN_POINT('Origin',(13.6800695591027,0.0452513061006962,29.6));
#463=CARTESIAN_POINT('',(13.6800695591027,1.1702513061007,29.6));
#464=CARTESIAN_POINT('Origin',(13.6800695591027,0.0452513061006962,29.6));
#465=CARTESIAN_POINT('',(13.6800695591027,1.1702513061007,32.6));
#466=CARTESIAN_POINT('Origin',(13.6800695591027,0.0452513061006962,32.6));
#467=CARTESIAN_POINT('',(13.6800695591027,1.1702513061007,29.6));
#468=CARTESIAN_POINT('Origin',(-10.5199304408973,1.1702513061007,29.6));
#469=CARTESIAN_POINT('',(-10.5199304408973,1.1702513061007,29.6));
#470=CARTESIAN_POINT('',(13.6800695591027,1.1702513061007,29.6));
#471=CARTESIAN_POINT('',(-10.5199304408973,1.1702513061007,32.6));
#472=CARTESIAN_POINT('',(13.6800695591027,1.1702513061007,32.6));
#473=CARTESIAN_POINT('',(-10.5199304408973,1.1702513061007,29.6));
#474=CARTESIAN_POINT('Origin',(-10.5199304408973,0.0452513061006962,29.6));
#475=CARTESIAN_POINT('Origin',(-10.5199304408973,0.0452513061006962,29.6));
#476=CARTESIAN_POINT('Origin',(-10.5199304408973,0.0452513061006962,32.6));
#477=CARTESIAN_POINT('Origin',(64.7300695591027,0.0452513061006957,29.6));
#478=CARTESIAN_POINT('',(64.7300695591027,-2.45474869389931,29.6));
#479=CARTESIAN_POINT('',(64.7300695591027,2.5452513061007,29.6));
#480=CARTESIAN_POINT('Origin',(64.7300695591027,0.0452513061006957,29.6));
#481=CARTESIAN_POINT('',(64.7300695591027,2.5452513061007,32.6));
#482=CARTESIAN_POINT('',(64.7300695591027,2.5452513061007,29.6));
#483=CARTESIAN_POINT('',(64.7300695591027,-2.45474869389931,32.6));
#484=CARTESIAN_POINT('Origin',(64.7300695591027,0.0452513061006957,32.6));
#485=CARTESIAN_POINT('',(64.7300695591027,-2.45474869389931,29.6));
#486=CARTESIAN_POINT('Origin',(-10.5199304408973,-2.4547486938993,29.6));
#487=CARTESIAN_POINT('',(-10.5199304408973,-2.4547486938993,29.6));
#488=CARTESIAN_POINT('',(-10.5199304408973,-2.4547486938993,29.6));
#489=CARTESIAN_POINT('',(-10.5199304408973,-2.4547486938993,32.6));
#490=CARTESIAN_POINT('',(-10.5199304408973,-2.4547486938993,32.6));
#491=CARTESIAN_POINT('',(-10.5199304408973,-2.4547486938993,29.6));
#492=CARTESIAN_POINT('Origin',(-10.5199304408973,0.0452513061006962,29.6));
#493=CARTESIAN_POINT('',(-10.5199304408973,2.5452513061007,29.6));
#494=CARTESIAN_POINT('Origin',(-10.5199304408973,0.0452513061006962,29.6));
#495=CARTESIAN_POINT('',(-10.5199304408973,2.5452513061007,32.6));
#496=CARTESIAN_POINT('Origin',(-10.5199304408973,0.0452513061006962,32.6));
#497=CARTESIAN_POINT('',(-10.5199304408973,2.5452513061007,29.6));
#498=CARTESIAN_POINT('Origin',(64.7300695591027,2.5452513061007,29.6));
#499=CARTESIAN_POINT('',(64.7300695591027,2.5452513061007,29.6));
#500=CARTESIAN_POINT('',(64.7300695591027,2.5452513061007,32.6));
#501=CARTESIAN_POINT('Origin',(27.1050695591027,0.0452513061006962,32.6));
#502=CARTESIAN_POINT('Origin',(27.1050695591027,0.0452513061006962,29.6));
#503=UNCERTAINTY_MEASURE_WITH_UNIT(LENGTH_MEASURE(0.01),#507,
'DISTANCE_ACCURACY_VALUE',
'Maximum model space distance between geometric entities at asserted c
onnectivities');
#504=UNCERTAINTY_MEASURE_WITH_UNIT(LENGTH_MEASURE(0.01),#507,
'DISTANCE_ACCURACY_VALUE',
'Maximum model space distance between geometric entities at asserted c
onnectivities');
#505=(
GEOMETRIC_REPRESENTATION_CONTEXT(3)
GLOBAL_UNCERTAINTY_ASSIGNED_CONTEXT((#503))
GLOBAL_UNIT_ASSIGNED_CONTEXT((#507,#509,#510))
REPRESENTATION_CONTEXT('','3D')
);
#506=(
GEOMETRIC_REPRESENTATION_CONTEXT(3)
GLOBAL_UNCERTAINTY_ASSIGNED_CONTEXT((#504))
GLOBAL_UNIT_ASSIGNED_CONTEXT((#507,#509,#510))
REPRESENTATION_CONTEXT('','3D')
);
#507=(
LENGTH_UNIT()
NAMED_UNIT(*)
SI_UNIT(.MILLI.,.METRE.)
);
#508=(
LENGTH_UNIT()
NAMED_UNIT(*)
SI_UNIT($,.METRE.)
);
#509=(
NAMED_UNIT(*)
PLANE_ANGLE_UNIT()
SI_UNIT($,.RADIAN.)
);
#510=(
NAMED_UNIT(*)
SI_UNIT($,.STERADIAN.)
SOLID_ANGLE_UNIT()
);
#511=SHAPE_DEFINITION_REPRESENTATION(#512,#513);
#512=PRODUCT_DEFINITION_SHAPE('',$,#515);
#513=SHAPE_REPRESENTATION('',(#307),#505);
#514=PRODUCT_DEFINITION_CONTEXT('part definition',#519,'design');
#515=PRODUCT_DEFINITION('slot','slot',#516,#514);
#516=PRODUCT_DEFINITION_FORMATION('',$,#521);
#517=PRODUCT_RELATED_PRODUCT_CATEGORY('slot','slot',(#521));
#518=APPLICATION_PROTOCOL_DEFINITION('international standard',
'automotive_design',2009,#519);
#519=APPLICATION_CONTEXT(
'Core Data for Automotive Mechanical Design Process');
#520=PRODUCT_CONTEXT('part definition',#519,'mechanical');
#521=PRODUCT('slot','slot',$,(#520));
#522=PRESENTATION_STYLE_ASSIGNMENT((#523));
#523=SURFACE_STYLE_USAGE(.BOTH.,#524);
#524=SURFACE_SIDE_STYLE('',(#525));
#525=SURFACE_STYLE_FILL_AREA(#526);
#526=FILL_AREA_STYLE('Steel - Satin',(#527));
#527=FILL_AREA_STYLE_COLOUR('Steel - Satin',#528);
#528=COLOUR_RGB('Steel - Satin',0.627450980392157,0.627450980392157,0.627450980392157);
ENDSEC;
END-ISO-10303-21;
