ISO-10303-21;
HEADER;
/* Generated by software containing ST-Developer
 * from STEP Tools, Inc. (www.steptools.com) 
 */

FILE_DESCRIPTION(
/* description */ (''),
/* implementation_level */ '2;1');

FILE_NAME(
/* name */ 'Stainless Steel Ball Bearing - 7804K111.step',
/* time_stamp */ '2026-08-19T10:11:03-05:00',
/* author */ (''),
/* organization */ (''),
/* preprocessor_version */ 'ST-DEVELOPER v20.1',
/* originating_system */ 'Autodesk Translation Framework v15.8.0.0',
/* authorisation */ '');

FILE_SCHEMA (('AUTOMOTIVE_DESIGN { 1 0 10303 214 3 1 1 }'));
ENDSEC;

DATA;
#10=MECHANICAL_DESIGN_GEOMETRIC_PRESENTATION_REPRESENTATION('',(#37,#38,
#39,#40,#41,#42,#43,#44,#45,#46,#47,#48,#49,#50,#51,#52),#1848);
#11=SHAPE_REPRESENTATION_RELATIONSHIP('SRR','None',#1855,#12);
#12=ADVANCED_BREP_SHAPE_REPRESENTATION('',(#53,#54,#55,#56,#57,#58,#59,
#60,#61,#62,#63,#64,#65,#66,#67,#68),#1847);
#13=SPHERICAL_SURFACE('',#1078,0.734247234014172);
#14=SPHERICAL_SURFACE('',#1082,0.734247234014172);
#15=SPHERICAL_SURFACE('',#1084,0.734247234014172);
#16=SPHERICAL_SURFACE('',#1088,0.734247234014172);
#17=SPHERICAL_SURFACE('',#1090,0.734247234014172);
#18=SPHERICAL_SURFACE('',#1094,0.734247234014172);
#19=SPHERICAL_SURFACE('',#1096,0.734247234014172);
#20=SPHERICAL_SURFACE('',#1100,0.734247234014172);
#21=SPHERICAL_SURFACE('',#1102,0.734247234014172);
#22=SPHERICAL_SURFACE('',#1106,0.734247234014172);
#23=SPHERICAL_SURFACE('',#1108,0.734247234014172);
#24=SPHERICAL_SURFACE('',#1112,0.734247234014172);
#25=SPHERICAL_SURFACE('',#1114,0.734247234014172);
#26=SPHERICAL_SURFACE('',#1118,0.734247234014172);
#27=SPHERICAL_SURFACE('',#1120,0.734247234014172);
#28=SPHERICAL_SURFACE('',#1124,0.734247234014172);
#29=SPHERICAL_SURFACE('',#1126,0.734247234014172);
#30=SPHERICAL_SURFACE('',#1130,0.734247234014172);
#31=SPHERICAL_SURFACE('',#1132,0.734247234014172);
#32=SPHERICAL_SURFACE('',#1136,0.734247234014172);
#33=SPHERICAL_SURFACE('',#1138,0.734247234014172);
#34=SPHERICAL_SURFACE('',#1142,0.734247234014172);
#35=SPHERICAL_SURFACE('',#1144,0.734247234014172);
#36=SPHERICAL_SURFACE('',#1148,0.734247234014172);
#37=STYLED_ITEM('',(#1864),#53);
#38=STYLED_ITEM('',(#1864),#54);
#39=STYLED_ITEM('',(#1864),#55);
#40=STYLED_ITEM('',(#1864),#56);
#41=STYLED_ITEM('',(#1864),#57);
#42=STYLED_ITEM('',(#1864),#58);
#43=STYLED_ITEM('',(#1864),#59);
#44=STYLED_ITEM('',(#1864),#60);
#45=STYLED_ITEM('',(#1864),#61);
#46=STYLED_ITEM('',(#1864),#62);
#47=STYLED_ITEM('',(#1864),#63);
#48=STYLED_ITEM('',(#1864),#64);
#49=STYLED_ITEM('',(#1864),#65);
#50=STYLED_ITEM('',(#1864),#66);
#51=STYLED_ITEM('',(#1864),#67);
#52=STYLED_ITEM('',(#1864),#68);
#53=MANIFOLD_SOLID_BREP('Body1',#979);
#54=MANIFOLD_SOLID_BREP('Body2',#980);
#55=MANIFOLD_SOLID_BREP('Body3',#981);
#56=MANIFOLD_SOLID_BREP('Body4',#982);
#57=MANIFOLD_SOLID_BREP('Body5',#983);
#58=MANIFOLD_SOLID_BREP('Body6',#984);
#59=MANIFOLD_SOLID_BREP('Body7',#985);
#60=MANIFOLD_SOLID_BREP('Body8',#986);
#61=MANIFOLD_SOLID_BREP('Body9',#987);
#62=MANIFOLD_SOLID_BREP('Body10',#988);
#63=MANIFOLD_SOLID_BREP('Body11',#989);
#64=MANIFOLD_SOLID_BREP('Body12',#990);
#65=MANIFOLD_SOLID_BREP('Body13',#991);
#66=MANIFOLD_SOLID_BREP('Body14',#992);
#67=MANIFOLD_SOLID_BREP('Body15',#993);
#68=MANIFOLD_SOLID_BREP('Body16',#994);
#69=FACE_BOUND('',#175,.T.);
#70=FACE_BOUND('',#180,.T.);
#71=FACE_BOUND('',#190,.T.);
#72=FACE_BOUND('',#195,.T.);
#73=FACE_BOUND('',#226,.T.);
#74=FACE_BOUND('',#229,.T.);
#75=FACE_BOUND('',#234,.T.);
#76=FACE_BOUND('',#237,.T.);
#77=PLANE('',#1031);
#78=PLANE('',#1039);
#79=PLANE('',#1064);
#80=PLANE('',#1071);
#81=PLANE('',#1156);
#82=PLANE('',#1161);
#83=PLANE('',#1170);
#84=PLANE('',#1175);
#85=CONICAL_SURFACE('',#1017,4.85,0.785398163397445);
#86=CONICAL_SURFACE('',#1022,5.,0.785398163397445);
#87=CONICAL_SURFACE('',#1024,5.,0.785398163397445);
#88=CONICAL_SURFACE('',#1029,4.85,0.785398163397445);
#89=CONICAL_SURFACE('',#1048,3.15,0.785398163397451);
#90=CONICAL_SURFACE('',#1053,3.,0.785398163397445);
#91=CONICAL_SURFACE('',#1073,3.,0.785398163397445);
#92=CONICAL_SURFACE('',#1077,3.15,0.785398163397451);
#93=TOROIDAL_SURFACE('',#1011,4.,0.734247234014172);
#94=TOROIDAL_SURFACE('',#1035,4.,0.734247234014172);
#95=TOROIDAL_SURFACE('',#1040,4.,0.73424723401417);
#96=TOROIDAL_SURFACE('',#1045,4.,0.73424723401417);
#97=TOROIDAL_SURFACE('',#1058,4.,0.73424723401417);
#98=TOROIDAL_SURFACE('',#1068,4.,0.73424723401417);
#99=FACE_OUTER_BOUND('',#165,.T.);
#100=FACE_OUTER_BOUND('',#166,.T.);
#101=FACE_OUTER_BOUND('',#167,.T.);
#102=FACE_OUTER_BOUND('',#168,.T.);
#103=FACE_OUTER_BOUND('',#169,.T.);
#104=FACE_OUTER_BOUND('',#170,.T.);
#105=FACE_OUTER_BOUND('',#171,.T.);
#106=FACE_OUTER_BOUND('',#172,.T.);
#107=FACE_OUTER_BOUND('',#173,.T.);
#108=FACE_OUTER_BOUND('',#174,.T.);
#109=FACE_OUTER_BOUND('',#176,.T.);
#110=FACE_OUTER_BOUND('',#177,.T.);
#111=FACE_OUTER_BOUND('',#178,.T.);
#112=FACE_OUTER_BOUND('',#179,.T.);
#113=FACE_OUTER_BOUND('',#181,.T.);
#114=FACE_OUTER_BOUND('',#182,.T.);
#115=FACE_OUTER_BOUND('',#183,.T.);
#116=FACE_OUTER_BOUND('',#184,.T.);
#117=FACE_OUTER_BOUND('',#185,.T.);
#118=FACE_OUTER_BOUND('',#186,.T.);
#119=FACE_OUTER_BOUND('',#187,.T.);
#120=FACE_OUTER_BOUND('',#188,.T.);
#121=FACE_OUTER_BOUND('',#189,.T.);
#122=FACE_OUTER_BOUND('',#191,.T.);
#123=FACE_OUTER_BOUND('',#192,.T.);
#124=FACE_OUTER_BOUND('',#193,.T.);
#125=FACE_OUTER_BOUND('',#194,.T.);
#126=FACE_OUTER_BOUND('',#196,.T.);
#127=FACE_OUTER_BOUND('',#197,.T.);
#128=FACE_OUTER_BOUND('',#198,.T.);
#129=FACE_OUTER_BOUND('',#199,.T.);
#130=FACE_OUTER_BOUND('',#200,.T.);
#131=FACE_OUTER_BOUND('',#201,.T.);
#132=FACE_OUTER_BOUND('',#202,.T.);
#133=FACE_OUTER_BOUND('',#203,.T.);
#134=FACE_OUTER_BOUND('',#204,.T.);
#135=FACE_OUTER_BOUND('',#205,.T.);
#136=FACE_OUTER_BOUND('',#206,.T.);
#137=FACE_OUTER_BOUND('',#207,.T.);
#138=FACE_OUTER_BOUND('',#208,.T.);
#139=FACE_OUTER_BOUND('',#209,.T.);
#140=FACE_OUTER_BOUND('',#210,.T.);
#141=FACE_OUTER_BOUND('',#211,.T.);
#142=FACE_OUTER_BOUND('',#212,.T.);
#143=FACE_OUTER_BOUND('',#213,.T.);
#144=FACE_OUTER_BOUND('',#214,.T.);
#145=FACE_OUTER_BOUND('',#215,.T.);
#146=FACE_OUTER_BOUND('',#216,.T.);
#147=FACE_OUTER_BOUND('',#217,.T.);
#148=FACE_OUTER_BOUND('',#218,.T.);
#149=FACE_OUTER_BOUND('',#219,.T.);
#150=FACE_OUTER_BOUND('',#220,.T.);
#151=FACE_OUTER_BOUND('',#221,.T.);
#152=FACE_OUTER_BOUND('',#222,.T.);
#153=FACE_OUTER_BOUND('',#223,.T.);
#154=FACE_OUTER_BOUND('',#224,.T.);
#155=FACE_OUTER_BOUND('',#225,.T.);
#156=FACE_OUTER_BOUND('',#227,.T.);
#157=FACE_OUTER_BOUND('',#228,.T.);
#158=FACE_OUTER_BOUND('',#230,.T.);
#159=FACE_OUTER_BOUND('',#231,.T.);
#160=FACE_OUTER_BOUND('',#232,.T.);
#161=FACE_OUTER_BOUND('',#233,.T.);
#162=FACE_OUTER_BOUND('',#235,.T.);
#163=FACE_OUTER_BOUND('',#236,.T.);
#164=FACE_OUTER_BOUND('',#238,.T.);
#165=EDGE_LOOP('',(#629,#630,#631,#632));
#166=EDGE_LOOP('',(#633,#634,#635,#636));
#167=EDGE_LOOP('',(#637,#638,#639,#640));
#168=EDGE_LOOP('',(#641,#642,#643,#644));
#169=EDGE_LOOP('',(#645,#646,#647,#648));
#170=EDGE_LOOP('',(#649,#650,#651,#652));
#171=EDGE_LOOP('',(#653,#654,#655,#656));
#172=EDGE_LOOP('',(#657,#658,#659,#660));
#173=EDGE_LOOP('',(#661,#662,#663,#664));
#174=EDGE_LOOP('',(#665,#666));
#175=EDGE_LOOP('',(#667,#668));
#176=EDGE_LOOP('',(#669,#670,#671,#672));
#177=EDGE_LOOP('',(#673,#674,#675,#676));
#178=EDGE_LOOP('',(#677,#678,#679,#680));
#179=EDGE_LOOP('',(#681,#682));
#180=EDGE_LOOP('',(#683,#684));
#181=EDGE_LOOP('',(#685,#686,#687,#688));
#182=EDGE_LOOP('',(#689,#690,#691,#692));
#183=EDGE_LOOP('',(#693,#694,#695,#696));
#184=EDGE_LOOP('',(#697,#698,#699,#700));
#185=EDGE_LOOP('',(#701,#702,#703,#704));
#186=EDGE_LOOP('',(#705,#706,#707,#708));
#187=EDGE_LOOP('',(#709,#710,#711,#712));
#188=EDGE_LOOP('',(#713,#714,#715,#716));
#189=EDGE_LOOP('',(#717,#718));
#190=EDGE_LOOP('',(#719,#720));
#191=EDGE_LOOP('',(#721,#722,#723,#724));
#192=EDGE_LOOP('',(#725,#726,#727,#728));
#193=EDGE_LOOP('',(#729,#730,#731,#732));
#194=EDGE_LOOP('',(#733,#734));
#195=EDGE_LOOP('',(#735,#736));
#196=EDGE_LOOP('',(#737,#738,#739,#740));
#197=EDGE_LOOP('',(#741,#742,#743,#744));
#198=EDGE_LOOP('',(#745,#746,#747,#748));
#199=EDGE_LOOP('',(#749,#750,#751,#752));
#200=EDGE_LOOP('',(#753,#754,#755,#756));
#201=EDGE_LOOP('',(#757,#758,#759,#760));
#202=EDGE_LOOP('',(#761,#762,#763,#764));
#203=EDGE_LOOP('',(#765,#766,#767,#768));
#204=EDGE_LOOP('',(#769,#770,#771,#772));
#205=EDGE_LOOP('',(#773,#774,#775,#776));
#206=EDGE_LOOP('',(#777,#778,#779,#780));
#207=EDGE_LOOP('',(#781,#782,#783,#784));
#208=EDGE_LOOP('',(#785,#786,#787,#788));
#209=EDGE_LOOP('',(#789,#790,#791,#792));
#210=EDGE_LOOP('',(#793,#794,#795,#796));
#211=EDGE_LOOP('',(#797,#798,#799,#800));
#212=EDGE_LOOP('',(#801,#802,#803,#804));
#213=EDGE_LOOP('',(#805,#806,#807,#808));
#214=EDGE_LOOP('',(#809,#810,#811,#812));
#215=EDGE_LOOP('',(#813,#814,#815,#816));
#216=EDGE_LOOP('',(#817,#818,#819,#820));
#217=EDGE_LOOP('',(#821,#822,#823,#824));
#218=EDGE_LOOP('',(#825,#826,#827,#828));
#219=EDGE_LOOP('',(#829,#830,#831,#832));
#220=EDGE_LOOP('',(#833,#834,#835,#836));
#221=EDGE_LOOP('',(#837,#838,#839,#840));
#222=EDGE_LOOP('',(#841,#842,#843,#844));
#223=EDGE_LOOP('',(#845,#846,#847,#848));
#224=EDGE_LOOP('',(#849,#850,#851,#852));
#225=EDGE_LOOP('',(#853,#854));
#226=EDGE_LOOP('',(#855,#856));
#227=EDGE_LOOP('',(#857,#858,#859,#860));
#228=EDGE_LOOP('',(#861,#862));
#229=EDGE_LOOP('',(#863,#864));
#230=EDGE_LOOP('',(#865,#866,#867,#868));
#231=EDGE_LOOP('',(#869,#870,#871,#872));
#232=EDGE_LOOP('',(#873,#874,#875,#876));
#233=EDGE_LOOP('',(#877,#878));
#234=EDGE_LOOP('',(#879,#880));
#235=EDGE_LOOP('',(#881,#882,#883,#884));
#236=EDGE_LOOP('',(#885,#886));
#237=EDGE_LOOP('',(#887,#888));
#238=EDGE_LOOP('',(#889,#890,#891,#892));
#239=LINE('',#1554,#267);
#240=LINE('',#1557,#268);
#241=LINE('',#1568,#269);
#242=LINE('',#1569,#270);
#243=LINE('',#1575,#271);
#244=LINE('',#1578,#272);
#245=LINE('',#1581,#273);
#246=LINE('',#1584,#274);
#247=LINE('',#1589,#275);
#248=LINE('',#1590,#276);
#249=LINE('',#1624,#277);
#250=LINE('',#1627,#278);
#251=LINE('',#1632,#279);
#252=LINE('',#1633,#280);
#253=LINE('',#1636,#281);
#254=LINE('',#1639,#282);
#255=LINE('',#1645,#283);
#256=LINE('',#1648,#284);
#257=LINE('',#1655,#285);
#258=LINE('',#1658,#286);
#259=LINE('',#1798,#287);
#260=LINE('',#1801,#288);
#261=LINE('',#1807,#289);
#262=LINE('',#1810,#290);
#263=LINE('',#1824,#291);
#264=LINE('',#1827,#292);
#265=LINE('',#1833,#293);
#266=LINE('',#1836,#294);
#267=VECTOR('',#1184,1000.);
#268=VECTOR('',#1187,1000.);
#269=VECTOR('',#1200,1000.);
#270=VECTOR('',#1201,1000.);
#271=VECTOR('',#1206,1000.);
#272=VECTOR('',#1209,1000.);
#273=VECTOR('',#1212,1000.);
#274=VECTOR('',#1215,1000.);
#275=VECTOR('',#1220,1000.);
#276=VECTOR('',#1221,1000.);
#277=VECTOR('',#1274,1000.);
#278=VECTOR('',#1277,1000.);
#279=VECTOR('',#1282,1000.);
#280=VECTOR('',#1283,1000.);
#281=VECTOR('',#1286,1000.);
#282=VECTOR('',#1289,1000.);
#283=VECTOR('',#1294,1000.);
#284=VECTOR('',#1297,1000.);
#285=VECTOR('',#1308,1000.);
#286=VECTOR('',#1311,1000.);
#287=VECTOR('',#1488,1000.);
#288=VECTOR('',#1491,1000.);
#289=VECTOR('',#1496,1000.);
#290=VECTOR('',#1499,1000.);
#291=VECTOR('',#1520,1000.);
#292=VECTOR('',#1523,1000.);
#293=VECTOR('',#1528,1000.);
#294=VECTOR('',#1531,1000.);
#295=CIRCLE('',#1009,4.30769230769231);
#296=CIRCLE('',#1010,4.30769230769231);
#297=CIRCLE('',#1012,4.30769230769231);
#298=CIRCLE('',#1013,0.734247234014171);
#299=CIRCLE('',#1014,0.734247234014172);
#300=CIRCLE('',#1016,4.30769230769231);
#301=CIRCLE('',#1018,4.85);
#302=CIRCLE('',#1019,5.);
#303=CIRCLE('',#1021,5.);
#304=CIRCLE('',#1023,4.85);
#305=CIRCLE('',#1025,4.85);
#306=CIRCLE('',#1026,5.);
#307=CIRCLE('',#1028,5.);
#308=CIRCLE('',#1030,4.85);
#309=CIRCLE('',#1032,4.30769230769231);
#310=CIRCLE('',#1034,4.30769230769231);
#311=CIRCLE('',#1036,4.30769230769231);
#312=CIRCLE('',#1038,4.30769230769231);
#313=CIRCLE('',#1041,0.73424723401417);
#314=CIRCLE('',#1042,3.26575276598583);
#315=CIRCLE('',#1043,0.73424723401417);
#316=CIRCLE('',#1044,3.69230769230769);
#317=CIRCLE('',#1046,3.26575276598583);
#318=CIRCLE('',#1047,3.69230769230769);
#319=CIRCLE('',#1049,3.);
#320=CIRCLE('',#1050,3.15);
#321=CIRCLE('',#1052,3.);
#322=CIRCLE('',#1054,3.15);
#323=CIRCLE('',#1056,3.69230769230769);
#324=CIRCLE('',#1057,3.69230769230769);
#325=CIRCLE('',#1059,0.73424723401417);
#326=CIRCLE('',#1060,3.69230769230769);
#327=CIRCLE('',#1061,0.73424723401417);
#328=CIRCLE('',#1063,3.69230769230769);
#329=CIRCLE('',#1065,3.69230769230769);
#330=CIRCLE('',#1066,3.15);
#331=CIRCLE('',#1070,3.69230769230769);
#332=CIRCLE('',#1072,3.15);
#333=CIRCLE('',#1074,3.);
#334=CIRCLE('',#1076,3.);
#335=CIRCLE('',#1079,0.734247234014171);
#336=CIRCLE('',#1080,0.734247234014171);
#337=CIRCLE('',#1081,0.734247234014171);
#338=CIRCLE('',#1083,0.734247234014171);
#339=CIRCLE('',#1085,0.734247234014172);
#340=CIRCLE('',#1086,0.734247234014171);
#341=CIRCLE('',#1087,0.734247234014172);
#342=CIRCLE('',#1089,0.734247234014171);
#343=CIRCLE('',#1091,0.734247234014171);
#344=CIRCLE('',#1092,0.734247234014171);
#345=CIRCLE('',#1093,0.734247234014171);
#346=CIRCLE('',#1095,0.734247234014171);
#347=CIRCLE('',#1097,0.734247234014171);
#348=CIRCLE('',#1098,0.734247234014171);
#349=CIRCLE('',#1099,0.734247234014171);
#350=CIRCLE('',#1101,0.734247234014171);
#351=CIRCLE('',#1103,0.734247234014171);
#352=CIRCLE('',#1104,0.734247234014172);
#353=CIRCLE('',#1105,0.734247234014171);
#354=CIRCLE('',#1107,0.734247234014172);
#355=CIRCLE('',#1109,0.734247234014171);
#356=CIRCLE('',#1110,0.734247234014171);
#357=CIRCLE('',#1111,0.734247234014171);
#358=CIRCLE('',#1113,0.734247234014171);
#359=CIRCLE('',#1115,0.734247234014171);
#360=CIRCLE('',#1116,0.734247234014171);
#361=CIRCLE('',#1117,0.734247234014171);
#362=CIRCLE('',#1119,0.734247234014171);
#363=CIRCLE('',#1121,0.734247234014171);
#364=CIRCLE('',#1122,0.734247234014171);
#365=CIRCLE('',#1123,0.734247234014171);
#366=CIRCLE('',#1125,0.734247234014171);
#367=CIRCLE('',#1127,0.734247234014171);
#368=CIRCLE('',#1128,0.734247234014171);
#369=CIRCLE('',#1129,0.734247234014171);
#370=CIRCLE('',#1131,0.734247234014171);
#371=CIRCLE('',#1133,0.734247234014171);
#372=CIRCLE('',#1134,0.734247234014171);
#373=CIRCLE('',#1135,0.734247234014171);
#374=CIRCLE('',#1137,0.734247234014171);
#375=CIRCLE('',#1139,0.734247234014172);
#376=CIRCLE('',#1140,0.734247234014171);
#377=CIRCLE('',#1141,0.734247234014172);
#378=CIRCLE('',#1143,0.734247234014171);
#379=CIRCLE('',#1145,0.734247234014171);
#380=CIRCLE('',#1146,0.734247234014171);
#381=CIRCLE('',#1147,0.734247234014171);
#382=CIRCLE('',#1149,0.734247234014171);
#383=CIRCLE('',#1151,4.30769230769231);
#384=CIRCLE('',#1152,4.30769230769231);
#385=CIRCLE('',#1154,3.69230769230769);
#386=CIRCLE('',#1155,3.69230769230769);
#387=CIRCLE('',#1157,4.30769230769231);
#388=CIRCLE('',#1158,3.69230769230769);
#389=CIRCLE('',#1160,3.69230769230769);
#390=CIRCLE('',#1162,4.30769230769231);
#391=CIRCLE('',#1165,4.30769230769231);
#392=CIRCLE('',#1166,4.30769230769231);
#393=CIRCLE('',#1168,3.69230769230769);
#394=CIRCLE('',#1169,3.69230769230769);
#395=CIRCLE('',#1171,4.30769230769231);
#396=CIRCLE('',#1172,3.69230769230769);
#397=CIRCLE('',#1174,3.69230769230769);
#398=CIRCLE('',#1176,4.30769230769231);
#399=VERTEX_POINT('',#1550);
#400=VERTEX_POINT('',#1551);
#401=VERTEX_POINT('',#1553);
#402=VERTEX_POINT('',#1555);
#403=VERTEX_POINT('',#1559);
#404=VERTEX_POINT('',#1560);
#405=VERTEX_POINT('',#1565);
#406=VERTEX_POINT('',#1566);
#407=VERTEX_POINT('',#1571);
#408=VERTEX_POINT('',#1572);
#409=VERTEX_POINT('',#1574);
#410=VERTEX_POINT('',#1576);
#411=VERTEX_POINT('',#1580);
#412=VERTEX_POINT('',#1582);
#413=VERTEX_POINT('',#1586);
#414=VERTEX_POINT('',#1587);
#415=VERTEX_POINT('',#1608);
#416=VERTEX_POINT('',#1609);
#417=VERTEX_POINT('',#1611);
#418=VERTEX_POINT('',#1613);
#419=VERTEX_POINT('',#1620);
#420=VERTEX_POINT('',#1621);
#421=VERTEX_POINT('',#1623);
#422=VERTEX_POINT('',#1625);
#423=VERTEX_POINT('',#1629);
#424=VERTEX_POINT('',#1630);
#425=VERTEX_POINT('',#1635);
#426=VERTEX_POINT('',#1637);
#427=VERTEX_POINT('',#1641);
#428=VERTEX_POINT('',#1642);
#429=VERTEX_POINT('',#1644);
#430=VERTEX_POINT('',#1646);
#431=VERTEX_POINT('',#1654);
#432=VERTEX_POINT('',#1656);
#433=VERTEX_POINT('',#1674);
#434=VERTEX_POINT('',#1675);
#435=VERTEX_POINT('',#1677);
#436=VERTEX_POINT('',#1681);
#437=VERTEX_POINT('',#1684);
#438=VERTEX_POINT('',#1685);
#439=VERTEX_POINT('',#1687);
#440=VERTEX_POINT('',#1691);
#441=VERTEX_POINT('',#1694);
#442=VERTEX_POINT('',#1695);
#443=VERTEX_POINT('',#1697);
#444=VERTEX_POINT('',#1701);
#445=VERTEX_POINT('',#1704);
#446=VERTEX_POINT('',#1705);
#447=VERTEX_POINT('',#1707);
#448=VERTEX_POINT('',#1711);
#449=VERTEX_POINT('',#1714);
#450=VERTEX_POINT('',#1715);
#451=VERTEX_POINT('',#1717);
#452=VERTEX_POINT('',#1721);
#453=VERTEX_POINT('',#1724);
#454=VERTEX_POINT('',#1725);
#455=VERTEX_POINT('',#1727);
#456=VERTEX_POINT('',#1731);
#457=VERTEX_POINT('',#1734);
#458=VERTEX_POINT('',#1735);
#459=VERTEX_POINT('',#1737);
#460=VERTEX_POINT('',#1741);
#461=VERTEX_POINT('',#1744);
#462=VERTEX_POINT('',#1745);
#463=VERTEX_POINT('',#1747);
#464=VERTEX_POINT('',#1751);
#465=VERTEX_POINT('',#1754);
#466=VERTEX_POINT('',#1755);
#467=VERTEX_POINT('',#1757);
#468=VERTEX_POINT('',#1761);
#469=VERTEX_POINT('',#1764);
#470=VERTEX_POINT('',#1765);
#471=VERTEX_POINT('',#1767);
#472=VERTEX_POINT('',#1771);
#473=VERTEX_POINT('',#1774);
#474=VERTEX_POINT('',#1775);
#475=VERTEX_POINT('',#1777);
#476=VERTEX_POINT('',#1781);
#477=VERTEX_POINT('',#1784);
#478=VERTEX_POINT('',#1785);
#479=VERTEX_POINT('',#1787);
#480=VERTEX_POINT('',#1791);
#481=VERTEX_POINT('',#1794);
#482=VERTEX_POINT('',#1795);
#483=VERTEX_POINT('',#1797);
#484=VERTEX_POINT('',#1799);
#485=VERTEX_POINT('',#1803);
#486=VERTEX_POINT('',#1804);
#487=VERTEX_POINT('',#1806);
#488=VERTEX_POINT('',#1808);
#489=VERTEX_POINT('',#1820);
#490=VERTEX_POINT('',#1821);
#491=VERTEX_POINT('',#1823);
#492=VERTEX_POINT('',#1825);
#493=VERTEX_POINT('',#1829);
#494=VERTEX_POINT('',#1830);
#495=VERTEX_POINT('',#1832);
#496=VERTEX_POINT('',#1834);
#497=EDGE_CURVE('',#399,#400,#295,.T.);
#498=EDGE_CURVE('',#399,#401,#239,.T.);
#499=EDGE_CURVE('',#401,#402,#296,.T.);
#500=EDGE_CURVE('',#400,#402,#240,.T.);
#501=EDGE_CURVE('',#403,#404,#297,.T.);
#502=EDGE_CURVE('',#403,#399,#298,.T.);
#503=EDGE_CURVE('',#404,#400,#299,.T.);
#504=EDGE_CURVE('',#405,#406,#300,.T.);
#505=EDGE_CURVE('',#405,#403,#241,.T.);
#506=EDGE_CURVE('',#406,#404,#242,.T.);
#507=EDGE_CURVE('',#407,#408,#301,.T.);
#508=EDGE_CURVE('',#408,#409,#243,.T.);
#509=EDGE_CURVE('',#410,#409,#302,.T.);
#510=EDGE_CURVE('',#407,#410,#244,.T.);
#511=EDGE_CURVE('',#409,#411,#245,.T.);
#512=EDGE_CURVE('',#412,#411,#303,.T.);
#513=EDGE_CURVE('',#410,#412,#246,.T.);
#514=EDGE_CURVE('',#413,#414,#304,.T.);
#515=EDGE_CURVE('',#413,#412,#247,.T.);
#516=EDGE_CURVE('',#414,#411,#248,.T.);
#517=EDGE_CURVE('',#414,#413,#305,.T.);
#518=EDGE_CURVE('',#411,#412,#306,.T.);
#519=EDGE_CURVE('',#409,#410,#307,.T.);
#520=EDGE_CURVE('',#408,#407,#308,.T.);
#521=EDGE_CURVE('',#406,#405,#309,.T.);
#522=EDGE_CURVE('',#404,#403,#310,.T.);
#523=EDGE_CURVE('',#400,#399,#311,.T.);
#524=EDGE_CURVE('',#402,#401,#312,.T.);
#525=EDGE_CURVE('',#415,#416,#313,.T.);
#526=EDGE_CURVE('',#416,#417,#314,.T.);
#527=EDGE_CURVE('',#418,#417,#315,.T.);
#528=EDGE_CURVE('',#415,#418,#316,.T.);
#529=EDGE_CURVE('',#417,#416,#317,.T.);
#530=EDGE_CURVE('',#418,#415,#318,.T.);
#531=EDGE_CURVE('',#419,#420,#319,.T.);
#532=EDGE_CURVE('',#419,#421,#249,.T.);
#533=EDGE_CURVE('',#421,#422,#320,.T.);
#534=EDGE_CURVE('',#420,#422,#250,.T.);
#535=EDGE_CURVE('',#423,#424,#321,.T.);
#536=EDGE_CURVE('',#423,#419,#251,.T.);
#537=EDGE_CURVE('',#424,#420,#252,.T.);
#538=EDGE_CURVE('',#424,#425,#253,.T.);
#539=EDGE_CURVE('',#426,#425,#322,.T.);
#540=EDGE_CURVE('',#423,#426,#254,.T.);
#541=EDGE_CURVE('',#427,#428,#323,.T.);
#542=EDGE_CURVE('',#428,#429,#255,.T.);
#543=EDGE_CURVE('',#430,#429,#324,.T.);
#544=EDGE_CURVE('',#427,#430,#256,.T.);
#545=EDGE_CURVE('',#417,#429,#325,.T.);
#546=EDGE_CURVE('',#429,#430,#326,.T.);
#547=EDGE_CURVE('',#416,#430,#327,.T.);
#548=EDGE_CURVE('',#418,#431,#257,.T.);
#549=EDGE_CURVE('',#432,#431,#328,.T.);
#550=EDGE_CURVE('',#415,#432,#258,.T.);
#551=EDGE_CURVE('',#431,#432,#329,.T.);
#552=EDGE_CURVE('',#422,#421,#330,.T.);
#553=EDGE_CURVE('',#428,#427,#331,.T.);
#554=EDGE_CURVE('',#425,#426,#332,.T.);
#555=EDGE_CURVE('',#424,#423,#333,.T.);
#556=EDGE_CURVE('',#420,#419,#334,.T.);
#557=EDGE_CURVE('',#433,#434,#335,.T.);
#558=EDGE_CURVE('',#434,#435,#336,.T.);
#559=EDGE_CURVE('',#434,#433,#337,.T.);
#560=EDGE_CURVE('',#436,#434,#338,.T.);
#561=EDGE_CURVE('',#437,#438,#339,.T.);
#562=EDGE_CURVE('',#438,#439,#340,.T.);
#563=EDGE_CURVE('',#438,#437,#341,.T.);
#564=EDGE_CURVE('',#440,#438,#342,.T.);
#565=EDGE_CURVE('',#441,#442,#343,.T.);
#566=EDGE_CURVE('',#442,#443,#344,.T.);
#567=EDGE_CURVE('',#442,#441,#345,.T.);
#568=EDGE_CURVE('',#444,#442,#346,.T.);
#569=EDGE_CURVE('',#445,#446,#347,.T.);
#570=EDGE_CURVE('',#447,#446,#348,.T.);
#571=EDGE_CURVE('',#446,#445,#349,.T.);
#572=EDGE_CURVE('',#446,#448,#350,.T.);
#573=EDGE_CURVE('',#449,#450,#351,.T.);
#574=EDGE_CURVE('',#451,#450,#352,.T.);
#575=EDGE_CURVE('',#450,#449,#353,.T.);
#576=EDGE_CURVE('',#450,#452,#354,.T.);
#577=EDGE_CURVE('',#453,#454,#355,.T.);
#578=EDGE_CURVE('',#455,#454,#356,.T.);
#579=EDGE_CURVE('',#454,#453,#357,.T.);
#580=EDGE_CURVE('',#454,#456,#358,.T.);
#581=EDGE_CURVE('',#457,#458,#359,.T.);
#582=EDGE_CURVE('',#459,#458,#360,.T.);
#583=EDGE_CURVE('',#458,#457,#361,.T.);
#584=EDGE_CURVE('',#458,#460,#362,.T.);
#585=EDGE_CURVE('',#461,#462,#363,.T.);
#586=EDGE_CURVE('',#463,#462,#364,.T.);
#587=EDGE_CURVE('',#462,#461,#365,.T.);
#588=EDGE_CURVE('',#462,#464,#366,.T.);
#589=EDGE_CURVE('',#465,#466,#367,.T.);
#590=EDGE_CURVE('',#467,#466,#368,.T.);
#591=EDGE_CURVE('',#466,#465,#369,.T.);
#592=EDGE_CURVE('',#466,#468,#370,.T.);
#593=EDGE_CURVE('',#469,#470,#371,.T.);
#594=EDGE_CURVE('',#470,#471,#372,.T.);
#595=EDGE_CURVE('',#470,#469,#373,.T.);
#596=EDGE_CURVE('',#472,#470,#374,.T.);
#597=EDGE_CURVE('',#473,#474,#375,.T.);
#598=EDGE_CURVE('',#474,#475,#376,.T.);
#599=EDGE_CURVE('',#474,#473,#377,.T.);
#600=EDGE_CURVE('',#476,#474,#378,.T.);
#601=EDGE_CURVE('',#477,#478,#379,.T.);
#602=EDGE_CURVE('',#478,#479,#380,.T.);
#603=EDGE_CURVE('',#478,#477,#381,.T.);
#604=EDGE_CURVE('',#480,#478,#382,.T.);
#605=EDGE_CURVE('',#481,#482,#383,.T.);
#606=EDGE_CURVE('',#482,#483,#259,.T.);
#607=EDGE_CURVE('',#484,#483,#384,.T.);
#608=EDGE_CURVE('',#481,#484,#260,.T.);
#609=EDGE_CURVE('',#485,#486,#385,.T.);
#610=EDGE_CURVE('',#485,#487,#261,.T.);
#611=EDGE_CURVE('',#487,#488,#386,.T.);
#612=EDGE_CURVE('',#486,#488,#262,.T.);
#613=EDGE_CURVE('',#483,#484,#387,.T.);
#614=EDGE_CURVE('',#488,#487,#388,.T.);
#615=EDGE_CURVE('',#486,#485,#389,.T.);
#616=EDGE_CURVE('',#482,#481,#390,.T.);
#617=EDGE_CURVE('',#489,#490,#391,.T.);
#618=EDGE_CURVE('',#490,#491,#263,.T.);
#619=EDGE_CURVE('',#492,#491,#392,.T.);
#620=EDGE_CURVE('',#489,#492,#264,.T.);
#621=EDGE_CURVE('',#493,#494,#393,.T.);
#622=EDGE_CURVE('',#493,#495,#265,.T.);
#623=EDGE_CURVE('',#495,#496,#394,.T.);
#624=EDGE_CURVE('',#494,#496,#266,.T.);
#625=EDGE_CURVE('',#490,#489,#395,.T.);
#626=EDGE_CURVE('',#494,#493,#396,.T.);
#627=EDGE_CURVE('',#496,#495,#397,.T.);
#628=EDGE_CURVE('',#491,#492,#398,.T.);
#629=ORIENTED_EDGE('',*,*,#497,.F.);
#630=ORIENTED_EDGE('',*,*,#498,.T.);
#631=ORIENTED_EDGE('',*,*,#499,.T.);
#632=ORIENTED_EDGE('',*,*,#500,.F.);
#633=ORIENTED_EDGE('',*,*,#501,.F.);
#634=ORIENTED_EDGE('',*,*,#502,.T.);
#635=ORIENTED_EDGE('',*,*,#497,.T.);
#636=ORIENTED_EDGE('',*,*,#503,.F.);
#637=ORIENTED_EDGE('',*,*,#504,.F.);
#638=ORIENTED_EDGE('',*,*,#505,.T.);
#639=ORIENTED_EDGE('',*,*,#501,.T.);
#640=ORIENTED_EDGE('',*,*,#506,.F.);
#641=ORIENTED_EDGE('',*,*,#507,.T.);
#642=ORIENTED_EDGE('',*,*,#508,.T.);
#643=ORIENTED_EDGE('',*,*,#509,.F.);
#644=ORIENTED_EDGE('',*,*,#510,.F.);
#645=ORIENTED_EDGE('',*,*,#509,.T.);
#646=ORIENTED_EDGE('',*,*,#511,.T.);
#647=ORIENTED_EDGE('',*,*,#512,.F.);
#648=ORIENTED_EDGE('',*,*,#513,.F.);
#649=ORIENTED_EDGE('',*,*,#514,.F.);
#650=ORIENTED_EDGE('',*,*,#515,.T.);
#651=ORIENTED_EDGE('',*,*,#512,.T.);
#652=ORIENTED_EDGE('',*,*,#516,.F.);
#653=ORIENTED_EDGE('',*,*,#515,.F.);
#654=ORIENTED_EDGE('',*,*,#517,.F.);
#655=ORIENTED_EDGE('',*,*,#516,.T.);
#656=ORIENTED_EDGE('',*,*,#518,.T.);
#657=ORIENTED_EDGE('',*,*,#511,.F.);
#658=ORIENTED_EDGE('',*,*,#519,.T.);
#659=ORIENTED_EDGE('',*,*,#513,.T.);
#660=ORIENTED_EDGE('',*,*,#518,.F.);
#661=ORIENTED_EDGE('',*,*,#508,.F.);
#662=ORIENTED_EDGE('',*,*,#520,.T.);
#663=ORIENTED_EDGE('',*,*,#510,.T.);
#664=ORIENTED_EDGE('',*,*,#519,.F.);
#665=ORIENTED_EDGE('',*,*,#507,.F.);
#666=ORIENTED_EDGE('',*,*,#520,.F.);
#667=ORIENTED_EDGE('',*,*,#521,.T.);
#668=ORIENTED_EDGE('',*,*,#504,.T.);
#669=ORIENTED_EDGE('',*,*,#505,.F.);
#670=ORIENTED_EDGE('',*,*,#521,.F.);
#671=ORIENTED_EDGE('',*,*,#506,.T.);
#672=ORIENTED_EDGE('',*,*,#522,.T.);
#673=ORIENTED_EDGE('',*,*,#502,.F.);
#674=ORIENTED_EDGE('',*,*,#522,.F.);
#675=ORIENTED_EDGE('',*,*,#503,.T.);
#676=ORIENTED_EDGE('',*,*,#523,.T.);
#677=ORIENTED_EDGE('',*,*,#498,.F.);
#678=ORIENTED_EDGE('',*,*,#523,.F.);
#679=ORIENTED_EDGE('',*,*,#500,.T.);
#680=ORIENTED_EDGE('',*,*,#524,.T.);
#681=ORIENTED_EDGE('',*,*,#517,.T.);
#682=ORIENTED_EDGE('',*,*,#514,.T.);
#683=ORIENTED_EDGE('',*,*,#524,.F.);
#684=ORIENTED_EDGE('',*,*,#499,.F.);
#685=ORIENTED_EDGE('',*,*,#525,.T.);
#686=ORIENTED_EDGE('',*,*,#526,.T.);
#687=ORIENTED_EDGE('',*,*,#527,.F.);
#688=ORIENTED_EDGE('',*,*,#528,.F.);
#689=ORIENTED_EDGE('',*,*,#527,.T.);
#690=ORIENTED_EDGE('',*,*,#529,.T.);
#691=ORIENTED_EDGE('',*,*,#525,.F.);
#692=ORIENTED_EDGE('',*,*,#530,.F.);
#693=ORIENTED_EDGE('',*,*,#531,.F.);
#694=ORIENTED_EDGE('',*,*,#532,.T.);
#695=ORIENTED_EDGE('',*,*,#533,.T.);
#696=ORIENTED_EDGE('',*,*,#534,.F.);
#697=ORIENTED_EDGE('',*,*,#535,.F.);
#698=ORIENTED_EDGE('',*,*,#536,.T.);
#699=ORIENTED_EDGE('',*,*,#531,.T.);
#700=ORIENTED_EDGE('',*,*,#537,.F.);
#701=ORIENTED_EDGE('',*,*,#535,.T.);
#702=ORIENTED_EDGE('',*,*,#538,.T.);
#703=ORIENTED_EDGE('',*,*,#539,.F.);
#704=ORIENTED_EDGE('',*,*,#540,.F.);
#705=ORIENTED_EDGE('',*,*,#541,.T.);
#706=ORIENTED_EDGE('',*,*,#542,.T.);
#707=ORIENTED_EDGE('',*,*,#543,.F.);
#708=ORIENTED_EDGE('',*,*,#544,.F.);
#709=ORIENTED_EDGE('',*,*,#529,.F.);
#710=ORIENTED_EDGE('',*,*,#545,.T.);
#711=ORIENTED_EDGE('',*,*,#546,.T.);
#712=ORIENTED_EDGE('',*,*,#547,.F.);
#713=ORIENTED_EDGE('',*,*,#528,.T.);
#714=ORIENTED_EDGE('',*,*,#548,.T.);
#715=ORIENTED_EDGE('',*,*,#549,.F.);
#716=ORIENTED_EDGE('',*,*,#550,.F.);
#717=ORIENTED_EDGE('',*,*,#549,.T.);
#718=ORIENTED_EDGE('',*,*,#551,.T.);
#719=ORIENTED_EDGE('',*,*,#552,.F.);
#720=ORIENTED_EDGE('',*,*,#533,.F.);
#721=ORIENTED_EDGE('',*,*,#548,.F.);
#722=ORIENTED_EDGE('',*,*,#530,.T.);
#723=ORIENTED_EDGE('',*,*,#550,.T.);
#724=ORIENTED_EDGE('',*,*,#551,.F.);
#725=ORIENTED_EDGE('',*,*,#526,.F.);
#726=ORIENTED_EDGE('',*,*,#547,.T.);
#727=ORIENTED_EDGE('',*,*,#543,.T.);
#728=ORIENTED_EDGE('',*,*,#545,.F.);
#729=ORIENTED_EDGE('',*,*,#542,.F.);
#730=ORIENTED_EDGE('',*,*,#553,.T.);
#731=ORIENTED_EDGE('',*,*,#544,.T.);
#732=ORIENTED_EDGE('',*,*,#546,.F.);
#733=ORIENTED_EDGE('',*,*,#541,.F.);
#734=ORIENTED_EDGE('',*,*,#553,.F.);
#735=ORIENTED_EDGE('',*,*,#539,.T.);
#736=ORIENTED_EDGE('',*,*,#554,.T.);
#737=ORIENTED_EDGE('',*,*,#538,.F.);
#738=ORIENTED_EDGE('',*,*,#555,.T.);
#739=ORIENTED_EDGE('',*,*,#540,.T.);
#740=ORIENTED_EDGE('',*,*,#554,.F.);
#741=ORIENTED_EDGE('',*,*,#536,.F.);
#742=ORIENTED_EDGE('',*,*,#555,.F.);
#743=ORIENTED_EDGE('',*,*,#537,.T.);
#744=ORIENTED_EDGE('',*,*,#556,.T.);
#745=ORIENTED_EDGE('',*,*,#532,.F.);
#746=ORIENTED_EDGE('',*,*,#556,.F.);
#747=ORIENTED_EDGE('',*,*,#534,.T.);
#748=ORIENTED_EDGE('',*,*,#552,.T.);
#749=ORIENTED_EDGE('',*,*,#557,.T.);
#750=ORIENTED_EDGE('',*,*,#558,.T.);
#751=ORIENTED_EDGE('',*,*,#558,.F.);
#752=ORIENTED_EDGE('',*,*,#559,.T.);
#753=ORIENTED_EDGE('',*,*,#557,.F.);
#754=ORIENTED_EDGE('',*,*,#559,.F.);
#755=ORIENTED_EDGE('',*,*,#560,.F.);
#756=ORIENTED_EDGE('',*,*,#560,.T.);
#757=ORIENTED_EDGE('',*,*,#561,.T.);
#758=ORIENTED_EDGE('',*,*,#562,.T.);
#759=ORIENTED_EDGE('',*,*,#562,.F.);
#760=ORIENTED_EDGE('',*,*,#563,.T.);
#761=ORIENTED_EDGE('',*,*,#561,.F.);
#762=ORIENTED_EDGE('',*,*,#563,.F.);
#763=ORIENTED_EDGE('',*,*,#564,.F.);
#764=ORIENTED_EDGE('',*,*,#564,.T.);
#765=ORIENTED_EDGE('',*,*,#565,.T.);
#766=ORIENTED_EDGE('',*,*,#566,.T.);
#767=ORIENTED_EDGE('',*,*,#566,.F.);
#768=ORIENTED_EDGE('',*,*,#567,.T.);
#769=ORIENTED_EDGE('',*,*,#565,.F.);
#770=ORIENTED_EDGE('',*,*,#567,.F.);
#771=ORIENTED_EDGE('',*,*,#568,.F.);
#772=ORIENTED_EDGE('',*,*,#568,.T.);
#773=ORIENTED_EDGE('',*,*,#569,.T.);
#774=ORIENTED_EDGE('',*,*,#570,.F.);
#775=ORIENTED_EDGE('',*,*,#570,.T.);
#776=ORIENTED_EDGE('',*,*,#571,.T.);
#777=ORIENTED_EDGE('',*,*,#569,.F.);
#778=ORIENTED_EDGE('',*,*,#571,.F.);
#779=ORIENTED_EDGE('',*,*,#572,.T.);
#780=ORIENTED_EDGE('',*,*,#572,.F.);
#781=ORIENTED_EDGE('',*,*,#573,.T.);
#782=ORIENTED_EDGE('',*,*,#574,.F.);
#783=ORIENTED_EDGE('',*,*,#574,.T.);
#784=ORIENTED_EDGE('',*,*,#575,.T.);
#785=ORIENTED_EDGE('',*,*,#573,.F.);
#786=ORIENTED_EDGE('',*,*,#575,.F.);
#787=ORIENTED_EDGE('',*,*,#576,.T.);
#788=ORIENTED_EDGE('',*,*,#576,.F.);
#789=ORIENTED_EDGE('',*,*,#577,.T.);
#790=ORIENTED_EDGE('',*,*,#578,.F.);
#791=ORIENTED_EDGE('',*,*,#578,.T.);
#792=ORIENTED_EDGE('',*,*,#579,.T.);
#793=ORIENTED_EDGE('',*,*,#577,.F.);
#794=ORIENTED_EDGE('',*,*,#579,.F.);
#795=ORIENTED_EDGE('',*,*,#580,.T.);
#796=ORIENTED_EDGE('',*,*,#580,.F.);
#797=ORIENTED_EDGE('',*,*,#581,.T.);
#798=ORIENTED_EDGE('',*,*,#582,.F.);
#799=ORIENTED_EDGE('',*,*,#582,.T.);
#800=ORIENTED_EDGE('',*,*,#583,.T.);
#801=ORIENTED_EDGE('',*,*,#581,.F.);
#802=ORIENTED_EDGE('',*,*,#583,.F.);
#803=ORIENTED_EDGE('',*,*,#584,.T.);
#804=ORIENTED_EDGE('',*,*,#584,.F.);
#805=ORIENTED_EDGE('',*,*,#585,.T.);
#806=ORIENTED_EDGE('',*,*,#586,.F.);
#807=ORIENTED_EDGE('',*,*,#586,.T.);
#808=ORIENTED_EDGE('',*,*,#587,.T.);
#809=ORIENTED_EDGE('',*,*,#585,.F.);
#810=ORIENTED_EDGE('',*,*,#587,.F.);
#811=ORIENTED_EDGE('',*,*,#588,.T.);
#812=ORIENTED_EDGE('',*,*,#588,.F.);
#813=ORIENTED_EDGE('',*,*,#589,.T.);
#814=ORIENTED_EDGE('',*,*,#590,.F.);
#815=ORIENTED_EDGE('',*,*,#590,.T.);
#816=ORIENTED_EDGE('',*,*,#591,.T.);
#817=ORIENTED_EDGE('',*,*,#589,.F.);
#818=ORIENTED_EDGE('',*,*,#591,.F.);
#819=ORIENTED_EDGE('',*,*,#592,.T.);
#820=ORIENTED_EDGE('',*,*,#592,.F.);
#821=ORIENTED_EDGE('',*,*,#593,.T.);
#822=ORIENTED_EDGE('',*,*,#594,.T.);
#823=ORIENTED_EDGE('',*,*,#594,.F.);
#824=ORIENTED_EDGE('',*,*,#595,.T.);
#825=ORIENTED_EDGE('',*,*,#593,.F.);
#826=ORIENTED_EDGE('',*,*,#595,.F.);
#827=ORIENTED_EDGE('',*,*,#596,.F.);
#828=ORIENTED_EDGE('',*,*,#596,.T.);
#829=ORIENTED_EDGE('',*,*,#597,.T.);
#830=ORIENTED_EDGE('',*,*,#598,.T.);
#831=ORIENTED_EDGE('',*,*,#598,.F.);
#832=ORIENTED_EDGE('',*,*,#599,.T.);
#833=ORIENTED_EDGE('',*,*,#597,.F.);
#834=ORIENTED_EDGE('',*,*,#599,.F.);
#835=ORIENTED_EDGE('',*,*,#600,.F.);
#836=ORIENTED_EDGE('',*,*,#600,.T.);
#837=ORIENTED_EDGE('',*,*,#601,.T.);
#838=ORIENTED_EDGE('',*,*,#602,.T.);
#839=ORIENTED_EDGE('',*,*,#602,.F.);
#840=ORIENTED_EDGE('',*,*,#603,.T.);
#841=ORIENTED_EDGE('',*,*,#601,.F.);
#842=ORIENTED_EDGE('',*,*,#603,.F.);
#843=ORIENTED_EDGE('',*,*,#604,.F.);
#844=ORIENTED_EDGE('',*,*,#604,.T.);
#845=ORIENTED_EDGE('',*,*,#605,.T.);
#846=ORIENTED_EDGE('',*,*,#606,.T.);
#847=ORIENTED_EDGE('',*,*,#607,.F.);
#848=ORIENTED_EDGE('',*,*,#608,.F.);
#849=ORIENTED_EDGE('',*,*,#609,.F.);
#850=ORIENTED_EDGE('',*,*,#610,.T.);
#851=ORIENTED_EDGE('',*,*,#611,.T.);
#852=ORIENTED_EDGE('',*,*,#612,.F.);
#853=ORIENTED_EDGE('',*,*,#607,.T.);
#854=ORIENTED_EDGE('',*,*,#613,.T.);
#855=ORIENTED_EDGE('',*,*,#614,.F.);
#856=ORIENTED_EDGE('',*,*,#611,.F.);
#857=ORIENTED_EDGE('',*,*,#610,.F.);
#858=ORIENTED_EDGE('',*,*,#615,.F.);
#859=ORIENTED_EDGE('',*,*,#612,.T.);
#860=ORIENTED_EDGE('',*,*,#614,.T.);
#861=ORIENTED_EDGE('',*,*,#605,.F.);
#862=ORIENTED_EDGE('',*,*,#616,.F.);
#863=ORIENTED_EDGE('',*,*,#615,.T.);
#864=ORIENTED_EDGE('',*,*,#609,.T.);
#865=ORIENTED_EDGE('',*,*,#606,.F.);
#866=ORIENTED_EDGE('',*,*,#616,.T.);
#867=ORIENTED_EDGE('',*,*,#608,.T.);
#868=ORIENTED_EDGE('',*,*,#613,.F.);
#869=ORIENTED_EDGE('',*,*,#617,.T.);
#870=ORIENTED_EDGE('',*,*,#618,.T.);
#871=ORIENTED_EDGE('',*,*,#619,.F.);
#872=ORIENTED_EDGE('',*,*,#620,.F.);
#873=ORIENTED_EDGE('',*,*,#621,.F.);
#874=ORIENTED_EDGE('',*,*,#622,.T.);
#875=ORIENTED_EDGE('',*,*,#623,.T.);
#876=ORIENTED_EDGE('',*,*,#624,.F.);
#877=ORIENTED_EDGE('',*,*,#617,.F.);
#878=ORIENTED_EDGE('',*,*,#625,.F.);
#879=ORIENTED_EDGE('',*,*,#626,.T.);
#880=ORIENTED_EDGE('',*,*,#621,.T.);
#881=ORIENTED_EDGE('',*,*,#622,.F.);
#882=ORIENTED_EDGE('',*,*,#626,.F.);
#883=ORIENTED_EDGE('',*,*,#624,.T.);
#884=ORIENTED_EDGE('',*,*,#627,.T.);
#885=ORIENTED_EDGE('',*,*,#619,.T.);
#886=ORIENTED_EDGE('',*,*,#628,.T.);
#887=ORIENTED_EDGE('',*,*,#627,.F.);
#888=ORIENTED_EDGE('',*,*,#623,.F.);
#889=ORIENTED_EDGE('',*,*,#618,.F.);
#890=ORIENTED_EDGE('',*,*,#625,.T.);
#891=ORIENTED_EDGE('',*,*,#620,.T.);
#892=ORIENTED_EDGE('',*,*,#628,.F.);
#893=CYLINDRICAL_SURFACE('',#1008,4.30769230769231);
#894=CYLINDRICAL_SURFACE('',#1015,4.30769230769231);
#895=CYLINDRICAL_SURFACE('',#1020,5.);
#896=CYLINDRICAL_SURFACE('',#1027,5.);
#897=CYLINDRICAL_SURFACE('',#1033,4.30769230769231);
#898=CYLINDRICAL_SURFACE('',#1037,4.30769230769231);
#899=CYLINDRICAL_SURFACE('',#1051,3.);
#900=CYLINDRICAL_SURFACE('',#1055,3.69230769230769);
#901=CYLINDRICAL_SURFACE('',#1062,3.69230769230769);
#902=CYLINDRICAL_SURFACE('',#1067,3.69230769230769);
#903=CYLINDRICAL_SURFACE('',#1069,3.69230769230769);
#904=CYLINDRICAL_SURFACE('',#1075,3.);
#905=CYLINDRICAL_SURFACE('',#1150,4.30769230769231);
#906=CYLINDRICAL_SURFACE('',#1153,3.69230769230769);
#907=CYLINDRICAL_SURFACE('',#1159,3.69230769230769);
#908=CYLINDRICAL_SURFACE('',#1163,4.30769230769231);
#909=CYLINDRICAL_SURFACE('',#1164,4.30769230769231);
#910=CYLINDRICAL_SURFACE('',#1167,3.69230769230769);
#911=CYLINDRICAL_SURFACE('',#1173,3.69230769230769);
#912=CYLINDRICAL_SURFACE('',#1177,4.30769230769231);
#913=ADVANCED_FACE('',(#99),#893,.F.);
#914=ADVANCED_FACE('',(#100),#93,.F.);
#915=ADVANCED_FACE('',(#101),#894,.F.);
#916=ADVANCED_FACE('',(#102),#85,.T.);
#917=ADVANCED_FACE('',(#103),#895,.T.);
#918=ADVANCED_FACE('',(#104),#86,.T.);
#919=ADVANCED_FACE('',(#105),#87,.T.);
#920=ADVANCED_FACE('',(#106),#896,.T.);
#921=ADVANCED_FACE('',(#107),#88,.T.);
#922=ADVANCED_FACE('',(#108,#69),#77,.F.);
#923=ADVANCED_FACE('',(#109),#897,.F.);
#924=ADVANCED_FACE('',(#110),#94,.F.);
#925=ADVANCED_FACE('',(#111),#898,.F.);
#926=ADVANCED_FACE('',(#112,#70),#78,.F.);
#927=ADVANCED_FACE('',(#113),#95,.F.);
#928=ADVANCED_FACE('',(#114),#96,.F.);
#929=ADVANCED_FACE('',(#115),#89,.F.);
#930=ADVANCED_FACE('',(#116),#899,.F.);
#931=ADVANCED_FACE('',(#117),#90,.F.);
#932=ADVANCED_FACE('',(#118),#900,.T.);
#933=ADVANCED_FACE('',(#119),#97,.F.);
#934=ADVANCED_FACE('',(#120),#901,.T.);
#935=ADVANCED_FACE('',(#121,#71),#79,.F.);
#936=ADVANCED_FACE('',(#122),#902,.T.);
#937=ADVANCED_FACE('',(#123),#98,.F.);
#938=ADVANCED_FACE('',(#124),#903,.T.);
#939=ADVANCED_FACE('',(#125,#72),#80,.F.);
#940=ADVANCED_FACE('',(#126),#91,.F.);
#941=ADVANCED_FACE('',(#127),#904,.F.);
#942=ADVANCED_FACE('',(#128),#92,.F.);
#943=ADVANCED_FACE('',(#129),#13,.T.);
#944=ADVANCED_FACE('',(#130),#14,.T.);
#945=ADVANCED_FACE('',(#131),#15,.T.);
#946=ADVANCED_FACE('',(#132),#16,.T.);
#947=ADVANCED_FACE('',(#133),#17,.T.);
#948=ADVANCED_FACE('',(#134),#18,.T.);
#949=ADVANCED_FACE('',(#135),#19,.T.);
#950=ADVANCED_FACE('',(#136),#20,.T.);
#951=ADVANCED_FACE('',(#137),#21,.T.);
#952=ADVANCED_FACE('',(#138),#22,.T.);
#953=ADVANCED_FACE('',(#139),#23,.T.);
#954=ADVANCED_FACE('',(#140),#24,.T.);
#955=ADVANCED_FACE('',(#141),#25,.T.);
#956=ADVANCED_FACE('',(#142),#26,.T.);
#957=ADVANCED_FACE('',(#143),#27,.T.);
#958=ADVANCED_FACE('',(#144),#28,.T.);
#959=ADVANCED_FACE('',(#145),#29,.T.);
#960=ADVANCED_FACE('',(#146),#30,.T.);
#961=ADVANCED_FACE('',(#147),#31,.T.);
#962=ADVANCED_FACE('',(#148),#32,.T.);
#963=ADVANCED_FACE('',(#149),#33,.T.);
#964=ADVANCED_FACE('',(#150),#34,.T.);
#965=ADVANCED_FACE('',(#151),#35,.T.);
#966=ADVANCED_FACE('',(#152),#36,.T.);
#967=ADVANCED_FACE('',(#153),#905,.T.);
#968=ADVANCED_FACE('',(#154),#906,.F.);
#969=ADVANCED_FACE('',(#155,#73),#81,.F.);
#970=ADVANCED_FACE('',(#156),#907,.F.);
#971=ADVANCED_FACE('',(#157,#74),#82,.F.);
#972=ADVANCED_FACE('',(#158),#908,.T.);
#973=ADVANCED_FACE('',(#159),#909,.T.);
#974=ADVANCED_FACE('',(#160),#910,.F.);
#975=ADVANCED_FACE('',(#161,#75),#83,.F.);
#976=ADVANCED_FACE('',(#162),#911,.F.);
#977=ADVANCED_FACE('',(#163,#76),#84,.F.);
#978=ADVANCED_FACE('',(#164),#912,.T.);
#979=CLOSED_SHELL('',(#913,#914,#915,#916,#917,#918,#919,#920,#921,#922,
#923,#924,#925,#926));
#980=CLOSED_SHELL('',(#927,#928,#929,#930,#931,#932,#933,#934,#935,#936,
#937,#938,#939,#940,#941,#942));
#981=CLOSED_SHELL('',(#943,#944));
#982=CLOSED_SHELL('',(#945,#946));
#983=CLOSED_SHELL('',(#947,#948));
#984=CLOSED_SHELL('',(#949,#950));
#985=CLOSED_SHELL('',(#951,#952));
#986=CLOSED_SHELL('',(#953,#954));
#987=CLOSED_SHELL('',(#955,#956));
#988=CLOSED_SHELL('',(#957,#958));
#989=CLOSED_SHELL('',(#959,#960));
#990=CLOSED_SHELL('',(#961,#962));
#991=CLOSED_SHELL('',(#963,#964));
#992=CLOSED_SHELL('',(#965,#966));
#993=CLOSED_SHELL('',(#967,#968,#969,#970,#971,#972));
#994=CLOSED_SHELL('',(#973,#974,#975,#976,#977,#978));
#995=DERIVED_UNIT_ELEMENT(#997,1.);
#996=DERIVED_UNIT_ELEMENT(#1850,-3.);
#997=(
MASS_UNIT()
NAMED_UNIT(*)
SI_UNIT(.KILO.,.GRAM.)
);
#998=DERIVED_UNIT((#995,#996));
#999=MEASURE_REPRESENTATION_ITEM('density measure',
POSITIVE_RATIO_MEASURE(7850.),#998);
#1000=PROPERTY_DEFINITION_REPRESENTATION(#1005,#1002);
#1001=PROPERTY_DEFINITION_REPRESENTATION(#1006,#1003);
#1002=REPRESENTATION('material name',(#1004),#1847);
#1003=REPRESENTATION('density',(#999),#1847);
#1004=DESCRIPTIVE_REPRESENTATION_ITEM('Steel','Steel');
#1005=PROPERTY_DEFINITION('material property','material name',#1857);
#1006=PROPERTY_DEFINITION('material property','density of part',#1857);
#1007=AXIS2_PLACEMENT_3D('',#1548,#1178,#1179);
#1008=AXIS2_PLACEMENT_3D('',#1549,#1180,#1181);
#1009=AXIS2_PLACEMENT_3D('',#1552,#1182,#1183);
#1010=AXIS2_PLACEMENT_3D('',#1556,#1185,#1186);
#1011=AXIS2_PLACEMENT_3D('',#1558,#1188,#1189);
#1012=AXIS2_PLACEMENT_3D('',#1561,#1190,#1191);
#1013=AXIS2_PLACEMENT_3D('',#1562,#1192,#1193);
#1014=AXIS2_PLACEMENT_3D('',#1563,#1194,#1195);
#1015=AXIS2_PLACEMENT_3D('',#1564,#1196,#1197);
#1016=AXIS2_PLACEMENT_3D('',#1567,#1198,#1199);
#1017=AXIS2_PLACEMENT_3D('',#1570,#1202,#1203);
#1018=AXIS2_PLACEMENT_3D('',#1573,#1204,#1205);
#1019=AXIS2_PLACEMENT_3D('',#1577,#1207,#1208);
#1020=AXIS2_PLACEMENT_3D('',#1579,#1210,#1211);
#1021=AXIS2_PLACEMENT_3D('',#1583,#1213,#1214);
#1022=AXIS2_PLACEMENT_3D('',#1585,#1216,#1217);
#1023=AXIS2_PLACEMENT_3D('',#1588,#1218,#1219);
#1024=AXIS2_PLACEMENT_3D('',#1591,#1222,#1223);
#1025=AXIS2_PLACEMENT_3D('',#1592,#1224,#1225);
#1026=AXIS2_PLACEMENT_3D('',#1593,#1226,#1227);
#1027=AXIS2_PLACEMENT_3D('',#1594,#1228,#1229);
#1028=AXIS2_PLACEMENT_3D('',#1595,#1230,#1231);
#1029=AXIS2_PLACEMENT_3D('',#1596,#1232,#1233);
#1030=AXIS2_PLACEMENT_3D('',#1597,#1234,#1235);
#1031=AXIS2_PLACEMENT_3D('',#1598,#1236,#1237);
#1032=AXIS2_PLACEMENT_3D('',#1599,#1238,#1239);
#1033=AXIS2_PLACEMENT_3D('',#1600,#1240,#1241);
#1034=AXIS2_PLACEMENT_3D('',#1601,#1242,#1243);
#1035=AXIS2_PLACEMENT_3D('',#1602,#1244,#1245);
#1036=AXIS2_PLACEMENT_3D('',#1603,#1246,#1247);
#1037=AXIS2_PLACEMENT_3D('',#1604,#1248,#1249);
#1038=AXIS2_PLACEMENT_3D('',#1605,#1250,#1251);
#1039=AXIS2_PLACEMENT_3D('',#1606,#1252,#1253);
#1040=AXIS2_PLACEMENT_3D('',#1607,#1254,#1255);
#1041=AXIS2_PLACEMENT_3D('',#1610,#1256,#1257);
#1042=AXIS2_PLACEMENT_3D('',#1612,#1258,#1259);
#1043=AXIS2_PLACEMENT_3D('',#1614,#1260,#1261);
#1044=AXIS2_PLACEMENT_3D('',#1615,#1262,#1263);
#1045=AXIS2_PLACEMENT_3D('',#1616,#1264,#1265);
#1046=AXIS2_PLACEMENT_3D('',#1617,#1266,#1267);
#1047=AXIS2_PLACEMENT_3D('',#1618,#1268,#1269);
#1048=AXIS2_PLACEMENT_3D('',#1619,#1270,#1271);
#1049=AXIS2_PLACEMENT_3D('',#1622,#1272,#1273);
#1050=AXIS2_PLACEMENT_3D('',#1626,#1275,#1276);
#1051=AXIS2_PLACEMENT_3D('',#1628,#1278,#1279);
#1052=AXIS2_PLACEMENT_3D('',#1631,#1280,#1281);
#1053=AXIS2_PLACEMENT_3D('',#1634,#1284,#1285);
#1054=AXIS2_PLACEMENT_3D('',#1638,#1287,#1288);
#1055=AXIS2_PLACEMENT_3D('',#1640,#1290,#1291);
#1056=AXIS2_PLACEMENT_3D('',#1643,#1292,#1293);
#1057=AXIS2_PLACEMENT_3D('',#1647,#1295,#1296);
#1058=AXIS2_PLACEMENT_3D('',#1649,#1298,#1299);
#1059=AXIS2_PLACEMENT_3D('',#1650,#1300,#1301);
#1060=AXIS2_PLACEMENT_3D('',#1651,#1302,#1303);
#1061=AXIS2_PLACEMENT_3D('',#1652,#1304,#1305);
#1062=AXIS2_PLACEMENT_3D('',#1653,#1306,#1307);
#1063=AXIS2_PLACEMENT_3D('',#1657,#1309,#1310);
#1064=AXIS2_PLACEMENT_3D('',#1659,#1312,#1313);
#1065=AXIS2_PLACEMENT_3D('',#1660,#1314,#1315);
#1066=AXIS2_PLACEMENT_3D('',#1661,#1316,#1317);
#1067=AXIS2_PLACEMENT_3D('',#1662,#1318,#1319);
#1068=AXIS2_PLACEMENT_3D('',#1663,#1320,#1321);
#1069=AXIS2_PLACEMENT_3D('',#1664,#1322,#1323);
#1070=AXIS2_PLACEMENT_3D('',#1665,#1324,#1325);
#1071=AXIS2_PLACEMENT_3D('',#1666,#1326,#1327);
#1072=AXIS2_PLACEMENT_3D('',#1667,#1328,#1329);
#1073=AXIS2_PLACEMENT_3D('',#1668,#1330,#1331);
#1074=AXIS2_PLACEMENT_3D('',#1669,#1332,#1333);
#1075=AXIS2_PLACEMENT_3D('',#1670,#1334,#1335);
#1076=AXIS2_PLACEMENT_3D('',#1671,#1336,#1337);
#1077=AXIS2_PLACEMENT_3D('',#1672,#1338,#1339);
#1078=AXIS2_PLACEMENT_3D('',#1673,#1340,#1341);
#1079=AXIS2_PLACEMENT_3D('',#1676,#1342,#1343);
#1080=AXIS2_PLACEMENT_3D('',#1678,#1344,#1345);
#1081=AXIS2_PLACEMENT_3D('',#1679,#1346,#1347);
#1082=AXIS2_PLACEMENT_3D('',#1680,#1348,#1349);
#1083=AXIS2_PLACEMENT_3D('',#1682,#1350,#1351);
#1084=AXIS2_PLACEMENT_3D('',#1683,#1352,#1353);
#1085=AXIS2_PLACEMENT_3D('',#1686,#1354,#1355);
#1086=AXIS2_PLACEMENT_3D('',#1688,#1356,#1357);
#1087=AXIS2_PLACEMENT_3D('',#1689,#1358,#1359);
#1088=AXIS2_PLACEMENT_3D('',#1690,#1360,#1361);
#1089=AXIS2_PLACEMENT_3D('',#1692,#1362,#1363);
#1090=AXIS2_PLACEMENT_3D('',#1693,#1364,#1365);
#1091=AXIS2_PLACEMENT_3D('',#1696,#1366,#1367);
#1092=AXIS2_PLACEMENT_3D('',#1698,#1368,#1369);
#1093=AXIS2_PLACEMENT_3D('',#1699,#1370,#1371);
#1094=AXIS2_PLACEMENT_3D('',#1700,#1372,#1373);
#1095=AXIS2_PLACEMENT_3D('',#1702,#1374,#1375);
#1096=AXIS2_PLACEMENT_3D('',#1703,#1376,#1377);
#1097=AXIS2_PLACEMENT_3D('',#1706,#1378,#1379);
#1098=AXIS2_PLACEMENT_3D('',#1708,#1380,#1381);
#1099=AXIS2_PLACEMENT_3D('',#1709,#1382,#1383);
#1100=AXIS2_PLACEMENT_3D('',#1710,#1384,#1385);
#1101=AXIS2_PLACEMENT_3D('',#1712,#1386,#1387);
#1102=AXIS2_PLACEMENT_3D('',#1713,#1388,#1389);
#1103=AXIS2_PLACEMENT_3D('',#1716,#1390,#1391);
#1104=AXIS2_PLACEMENT_3D('',#1718,#1392,#1393);
#1105=AXIS2_PLACEMENT_3D('',#1719,#1394,#1395);
#1106=AXIS2_PLACEMENT_3D('',#1720,#1396,#1397);
#1107=AXIS2_PLACEMENT_3D('',#1722,#1398,#1399);
#1108=AXIS2_PLACEMENT_3D('',#1723,#1400,#1401);
#1109=AXIS2_PLACEMENT_3D('',#1726,#1402,#1403);
#1110=AXIS2_PLACEMENT_3D('',#1728,#1404,#1405);
#1111=AXIS2_PLACEMENT_3D('',#1729,#1406,#1407);
#1112=AXIS2_PLACEMENT_3D('',#1730,#1408,#1409);
#1113=AXIS2_PLACEMENT_3D('',#1732,#1410,#1411);
#1114=AXIS2_PLACEMENT_3D('',#1733,#1412,#1413);
#1115=AXIS2_PLACEMENT_3D('',#1736,#1414,#1415);
#1116=AXIS2_PLACEMENT_3D('',#1738,#1416,#1417);
#1117=AXIS2_PLACEMENT_3D('',#1739,#1418,#1419);
#1118=AXIS2_PLACEMENT_3D('',#1740,#1420,#1421);
#1119=AXIS2_PLACEMENT_3D('',#1742,#1422,#1423);
#1120=AXIS2_PLACEMENT_3D('',#1743,#1424,#1425);
#1121=AXIS2_PLACEMENT_3D('',#1746,#1426,#1427);
#1122=AXIS2_PLACEMENT_3D('',#1748,#1428,#1429);
#1123=AXIS2_PLACEMENT_3D('',#1749,#1430,#1431);
#1124=AXIS2_PLACEMENT_3D('',#1750,#1432,#1433);
#1125=AXIS2_PLACEMENT_3D('',#1752,#1434,#1435);
#1126=AXIS2_PLACEMENT_3D('',#1753,#1436,#1437);
#1127=AXIS2_PLACEMENT_3D('',#1756,#1438,#1439);
#1128=AXIS2_PLACEMENT_3D('',#1758,#1440,#1441);
#1129=AXIS2_PLACEMENT_3D('',#1759,#1442,#1443);
#1130=AXIS2_PLACEMENT_3D('',#1760,#1444,#1445);
#1131=AXIS2_PLACEMENT_3D('',#1762,#1446,#1447);
#1132=AXIS2_PLACEMENT_3D('',#1763,#1448,#1449);
#1133=AXIS2_PLACEMENT_3D('',#1766,#1450,#1451);
#1134=AXIS2_PLACEMENT_3D('',#1768,#1452,#1453);
#1135=AXIS2_PLACEMENT_3D('',#1769,#1454,#1455);
#1136=AXIS2_PLACEMENT_3D('',#1770,#1456,#1457);
#1137=AXIS2_PLACEMENT_3D('',#1772,#1458,#1459);
#1138=AXIS2_PLACEMENT_3D('',#1773,#1460,#1461);
#1139=AXIS2_PLACEMENT_3D('',#1776,#1462,#1463);
#1140=AXIS2_PLACEMENT_3D('',#1778,#1464,#1465);
#1141=AXIS2_PLACEMENT_3D('',#1779,#1466,#1467);
#1142=AXIS2_PLACEMENT_3D('',#1780,#1468,#1469);
#1143=AXIS2_PLACEMENT_3D('',#1782,#1470,#1471);
#1144=AXIS2_PLACEMENT_3D('',#1783,#1472,#1473);
#1145=AXIS2_PLACEMENT_3D('',#1786,#1474,#1475);
#1146=AXIS2_PLACEMENT_3D('',#1788,#1476,#1477);
#1147=AXIS2_PLACEMENT_3D('',#1789,#1478,#1479);
#1148=AXIS2_PLACEMENT_3D('',#1790,#1480,#1481);
#1149=AXIS2_PLACEMENT_3D('',#1792,#1482,#1483);
#1150=AXIS2_PLACEMENT_3D('',#1793,#1484,#1485);
#1151=AXIS2_PLACEMENT_3D('',#1796,#1486,#1487);
#1152=AXIS2_PLACEMENT_3D('',#1800,#1489,#1490);
#1153=AXIS2_PLACEMENT_3D('',#1802,#1492,#1493);
#1154=AXIS2_PLACEMENT_3D('',#1805,#1494,#1495);
#1155=AXIS2_PLACEMENT_3D('',#1809,#1497,#1498);
#1156=AXIS2_PLACEMENT_3D('',#1811,#1500,#1501);
#1157=AXIS2_PLACEMENT_3D('',#1812,#1502,#1503);
#1158=AXIS2_PLACEMENT_3D('',#1813,#1504,#1505);
#1159=AXIS2_PLACEMENT_3D('',#1814,#1506,#1507);
#1160=AXIS2_PLACEMENT_3D('',#1815,#1508,#1509);
#1161=AXIS2_PLACEMENT_3D('',#1816,#1510,#1511);
#1162=AXIS2_PLACEMENT_3D('',#1817,#1512,#1513);
#1163=AXIS2_PLACEMENT_3D('',#1818,#1514,#1515);
#1164=AXIS2_PLACEMENT_3D('',#1819,#1516,#1517);
#1165=AXIS2_PLACEMENT_3D('',#1822,#1518,#1519);
#1166=AXIS2_PLACEMENT_3D('',#1826,#1521,#1522);
#1167=AXIS2_PLACEMENT_3D('',#1828,#1524,#1525);
#1168=AXIS2_PLACEMENT_3D('',#1831,#1526,#1527);
#1169=AXIS2_PLACEMENT_3D('',#1835,#1529,#1530);
#1170=AXIS2_PLACEMENT_3D('',#1837,#1532,#1533);
#1171=AXIS2_PLACEMENT_3D('',#1838,#1534,#1535);
#1172=AXIS2_PLACEMENT_3D('',#1839,#1536,#1537);
#1173=AXIS2_PLACEMENT_3D('',#1840,#1538,#1539);
#1174=AXIS2_PLACEMENT_3D('',#1841,#1540,#1541);
#1175=AXIS2_PLACEMENT_3D('',#1842,#1542,#1543);
#1176=AXIS2_PLACEMENT_3D('',#1843,#1544,#1545);
#1177=AXIS2_PLACEMENT_3D('',#1844,#1546,#1547);
#1178=DIRECTION('axis',(0.,0.,1.));
#1179=DIRECTION('refdir',(1.,0.,0.));
#1180=DIRECTION('center_axis',(0.,0.,1.));
#1181=DIRECTION('ref_axis',(1.,0.,0.));
#1182=DIRECTION('center_axis',(0.,0.,1.));
#1183=DIRECTION('ref_axis',(1.,0.,0.));
#1184=DIRECTION('',(0.,0.,1.));
#1185=DIRECTION('center_axis',(0.,0.,1.));
#1186=DIRECTION('ref_axis',(1.,0.,0.));
#1187=DIRECTION('',(0.,0.,1.));
#1188=DIRECTION('center_axis',(0.,0.,1.));
#1189=DIRECTION('ref_axis',(1.,0.,0.));
#1190=DIRECTION('center_axis',(0.,0.,1.));
#1191=DIRECTION('ref_axis',(1.,0.,0.));
#1192=DIRECTION('center_axis',(1.22464679914735E-16,1.,0.));
#1193=DIRECTION('ref_axis',(-1.,1.22464679914735E-16,0.));
#1194=DIRECTION('center_axis',(0.,-1.,0.));
#1195=DIRECTION('ref_axis',(0.,0.,-1.));
#1196=DIRECTION('center_axis',(0.,0.,1.));
#1197=DIRECTION('ref_axis',(1.,0.,0.));
#1198=DIRECTION('center_axis',(0.,0.,1.));
#1199=DIRECTION('ref_axis',(1.,0.,0.));
#1200=DIRECTION('',(0.,0.,1.));
#1201=DIRECTION('',(0.,0.,1.));
#1202=DIRECTION('center_axis',(0.,0.,1.));
#1203=DIRECTION('ref_axis',(1.,0.,0.));
#1204=DIRECTION('center_axis',(0.,0.,1.));
#1205=DIRECTION('ref_axis',(1.,0.,0.));
#1206=DIRECTION('',(-0.707106781186545,8.65956056235491E-17,0.70710678118655));
#1207=DIRECTION('center_axis',(0.,0.,1.));
#1208=DIRECTION('ref_axis',(1.,0.,0.));
#1209=DIRECTION('',(0.707106781186545,0.,0.70710678118655));
#1210=DIRECTION('center_axis',(0.,0.,1.));
#1211=DIRECTION('ref_axis',(1.,0.,0.));
#1212=DIRECTION('',(0.,0.,1.));
#1213=DIRECTION('center_axis',(0.,0.,1.));
#1214=DIRECTION('ref_axis',(1.,0.,0.));
#1215=DIRECTION('',(0.,0.,1.));
#1216=DIRECTION('center_axis',(0.,0.,-1.));
#1217=DIRECTION('ref_axis',(-1.,0.,0.));
#1218=DIRECTION('center_axis',(0.,0.,1.));
#1219=DIRECTION('ref_axis',(1.,0.,0.));
#1220=DIRECTION('',(0.707106781186545,8.65956056235491E-17,-0.70710678118655));
#1221=DIRECTION('',(-0.707106781186545,0.,-0.70710678118655));
#1222=DIRECTION('center_axis',(0.,0.,-1.));
#1223=DIRECTION('ref_axis',(-1.,0.,0.));
#1224=DIRECTION('center_axis',(0.,0.,1.));
#1225=DIRECTION('ref_axis',(1.,0.,0.));
#1226=DIRECTION('center_axis',(0.,0.,1.));
#1227=DIRECTION('ref_axis',(1.,0.,0.));
#1228=DIRECTION('center_axis',(0.,0.,1.));
#1229=DIRECTION('ref_axis',(1.,0.,0.));
#1230=DIRECTION('center_axis',(0.,0.,1.));
#1231=DIRECTION('ref_axis',(1.,0.,0.));
#1232=DIRECTION('center_axis',(0.,0.,1.));
#1233=DIRECTION('ref_axis',(1.,0.,0.));
#1234=DIRECTION('center_axis',(0.,0.,1.));
#1235=DIRECTION('ref_axis',(1.,0.,0.));
#1236=DIRECTION('center_axis',(0.,0.,1.));
#1237=DIRECTION('ref_axis',(1.,0.,0.));
#1238=DIRECTION('center_axis',(0.,0.,1.));
#1239=DIRECTION('ref_axis',(1.,0.,0.));
#1240=DIRECTION('center_axis',(0.,0.,1.));
#1241=DIRECTION('ref_axis',(1.,0.,0.));
#1242=DIRECTION('center_axis',(0.,0.,1.));
#1243=DIRECTION('ref_axis',(1.,0.,0.));
#1244=DIRECTION('center_axis',(0.,0.,1.));
#1245=DIRECTION('ref_axis',(1.,0.,0.));
#1246=DIRECTION('center_axis',(0.,0.,1.));
#1247=DIRECTION('ref_axis',(1.,0.,0.));
#1248=DIRECTION('center_axis',(0.,0.,1.));
#1249=DIRECTION('ref_axis',(1.,0.,0.));
#1250=DIRECTION('center_axis',(0.,0.,1.));
#1251=DIRECTION('ref_axis',(1.,0.,0.));
#1252=DIRECTION('center_axis',(0.,0.,-1.));
#1253=DIRECTION('ref_axis',(-1.,0.,0.));
#1254=DIRECTION('center_axis',(0.,0.,1.));
#1255=DIRECTION('ref_axis',(1.,0.,0.));
#1256=DIRECTION('center_axis',(0.,-1.,0.));
#1257=DIRECTION('ref_axis',(0.,0.,-1.));
#1258=DIRECTION('center_axis',(0.,0.,1.));
#1259=DIRECTION('ref_axis',(1.,0.,0.));
#1260=DIRECTION('center_axis',(1.22464679914735E-16,1.,0.));
#1261=DIRECTION('ref_axis',(-1.,1.22464679914735E-16,0.));
#1262=DIRECTION('center_axis',(0.,0.,1.));
#1263=DIRECTION('ref_axis',(1.,0.,0.));
#1264=DIRECTION('center_axis',(0.,0.,1.));
#1265=DIRECTION('ref_axis',(1.,0.,0.));
#1266=DIRECTION('center_axis',(0.,0.,1.));
#1267=DIRECTION('ref_axis',(1.,0.,0.));
#1268=DIRECTION('center_axis',(0.,0.,1.));
#1269=DIRECTION('ref_axis',(1.,0.,0.));
#1270=DIRECTION('center_axis',(0.,0.,1.));
#1271=DIRECTION('ref_axis',(1.,0.,0.));
#1272=DIRECTION('center_axis',(0.,0.,1.));
#1273=DIRECTION('ref_axis',(1.,0.,0.));
#1274=DIRECTION('',(-0.70710678118655,8.65956056235496E-17,0.707106781186545));
#1275=DIRECTION('center_axis',(0.,0.,1.));
#1276=DIRECTION('ref_axis',(1.,0.,0.));
#1277=DIRECTION('',(0.70710678118655,0.,0.707106781186545));
#1278=DIRECTION('center_axis',(0.,0.,1.));
#1279=DIRECTION('ref_axis',(1.,0.,0.));
#1280=DIRECTION('center_axis',(0.,0.,1.));
#1281=DIRECTION('ref_axis',(1.,0.,0.));
#1282=DIRECTION('',(0.,0.,1.));
#1283=DIRECTION('',(0.,0.,1.));
#1284=DIRECTION('center_axis',(0.,0.,-1.));
#1285=DIRECTION('ref_axis',(-1.,0.,0.));
#1286=DIRECTION('',(0.707106781186545,8.65956056235491E-17,-0.70710678118655));
#1287=DIRECTION('center_axis',(0.,0.,1.));
#1288=DIRECTION('ref_axis',(1.,0.,0.));
#1289=DIRECTION('',(-0.707106781186545,0.,-0.70710678118655));
#1290=DIRECTION('center_axis',(0.,0.,1.));
#1291=DIRECTION('ref_axis',(1.,0.,0.));
#1292=DIRECTION('center_axis',(0.,0.,1.));
#1293=DIRECTION('ref_axis',(1.,0.,0.));
#1294=DIRECTION('',(0.,0.,1.));
#1295=DIRECTION('center_axis',(0.,0.,1.));
#1296=DIRECTION('ref_axis',(1.,0.,0.));
#1297=DIRECTION('',(0.,0.,1.));
#1298=DIRECTION('center_axis',(0.,0.,1.));
#1299=DIRECTION('ref_axis',(1.,0.,0.));
#1300=DIRECTION('center_axis',(1.22464679914735E-16,1.,0.));
#1301=DIRECTION('ref_axis',(-1.,1.22464679914735E-16,0.));
#1302=DIRECTION('center_axis',(0.,0.,1.));
#1303=DIRECTION('ref_axis',(1.,0.,0.));
#1304=DIRECTION('center_axis',(0.,-1.,0.));
#1305=DIRECTION('ref_axis',(0.,0.,-1.));
#1306=DIRECTION('center_axis',(0.,0.,1.));
#1307=DIRECTION('ref_axis',(1.,0.,0.));
#1308=DIRECTION('',(0.,0.,1.));
#1309=DIRECTION('center_axis',(0.,0.,1.));
#1310=DIRECTION('ref_axis',(1.,0.,0.));
#1311=DIRECTION('',(0.,0.,1.));
#1312=DIRECTION('center_axis',(0.,0.,-1.));
#1313=DIRECTION('ref_axis',(-1.,0.,0.));
#1314=DIRECTION('center_axis',(0.,0.,1.));
#1315=DIRECTION('ref_axis',(1.,0.,0.));
#1316=DIRECTION('center_axis',(0.,0.,1.));
#1317=DIRECTION('ref_axis',(1.,0.,0.));
#1318=DIRECTION('center_axis',(0.,0.,1.));
#1319=DIRECTION('ref_axis',(1.,0.,0.));
#1320=DIRECTION('center_axis',(0.,0.,1.));
#1321=DIRECTION('ref_axis',(1.,0.,0.));
#1322=DIRECTION('center_axis',(0.,0.,1.));
#1323=DIRECTION('ref_axis',(1.,0.,0.));
#1324=DIRECTION('center_axis',(0.,0.,1.));
#1325=DIRECTION('ref_axis',(1.,0.,0.));
#1326=DIRECTION('center_axis',(0.,0.,1.));
#1327=DIRECTION('ref_axis',(1.,0.,0.));
#1328=DIRECTION('center_axis',(0.,0.,1.));
#1329=DIRECTION('ref_axis',(1.,0.,0.));
#1330=DIRECTION('center_axis',(0.,0.,-1.));
#1331=DIRECTION('ref_axis',(-1.,0.,0.));
#1332=DIRECTION('center_axis',(0.,0.,1.));
#1333=DIRECTION('ref_axis',(1.,0.,0.));
#1334=DIRECTION('center_axis',(0.,0.,1.));
#1335=DIRECTION('ref_axis',(1.,0.,0.));
#1336=DIRECTION('center_axis',(0.,0.,1.));
#1337=DIRECTION('ref_axis',(1.,0.,0.));
#1338=DIRECTION('center_axis',(0.,0.,1.));
#1339=DIRECTION('ref_axis',(1.,0.,0.));
#1340=DIRECTION('center_axis',(1.,0.,0.));
#1341=DIRECTION('ref_axis',(0.,-1.,0.));
#1342=DIRECTION('center_axis',(-1.,1.22464679914735E-16,0.));
#1343=DIRECTION('ref_axis',(-1.22464679914735E-16,-1.,0.));
#1344=DIRECTION('center_axis',(0.,0.,1.));
#1345=DIRECTION('ref_axis',(0.,1.,0.));
#1346=DIRECTION('center_axis',(-1.,1.22464679914735E-16,0.));
#1347=DIRECTION('ref_axis',(-1.22464679914735E-16,-1.,0.));
#1348=DIRECTION('center_axis',(1.,0.,0.));
#1349=DIRECTION('ref_axis',(0.,-1.,0.));
#1350=DIRECTION('center_axis',(0.,0.,1.));
#1351=DIRECTION('ref_axis',(0.,1.,0.));
#1352=DIRECTION('center_axis',(1.,0.,0.));
#1353=DIRECTION('ref_axis',(0.,-1.,0.));
#1354=DIRECTION('center_axis',(-0.866025403784438,0.500000000000001,0.));
#1355=DIRECTION('ref_axis',(-0.500000000000001,-0.866025403784438,0.));
#1356=DIRECTION('center_axis',(0.,0.,1.));
#1357=DIRECTION('ref_axis',(0.,1.,0.));
#1358=DIRECTION('center_axis',(-0.866025403784438,0.500000000000001,0.));
#1359=DIRECTION('ref_axis',(-0.500000000000001,-0.866025403784438,0.));
#1360=DIRECTION('center_axis',(1.,0.,0.));
#1361=DIRECTION('ref_axis',(0.,-1.,0.));
#1362=DIRECTION('center_axis',(0.,0.,1.));
#1363=DIRECTION('ref_axis',(0.,1.,0.));
#1364=DIRECTION('center_axis',(1.,0.,0.));
#1365=DIRECTION('ref_axis',(0.,-1.,0.));
#1366=DIRECTION('center_axis',(-0.499999999999998,0.86602540378444,0.));
#1367=DIRECTION('ref_axis',(-0.86602540378444,-0.499999999999998,0.));
#1368=DIRECTION('center_axis',(0.,0.,1.));
#1369=DIRECTION('ref_axis',(0.,1.,0.));
#1370=DIRECTION('center_axis',(-0.499999999999998,0.86602540378444,0.));
#1371=DIRECTION('ref_axis',(-0.86602540378444,-0.499999999999998,0.));
#1372=DIRECTION('center_axis',(1.,0.,0.));
#1373=DIRECTION('ref_axis',(0.,-1.,0.));
#1374=DIRECTION('center_axis',(0.,0.,1.));
#1375=DIRECTION('ref_axis',(0.,1.,0.));
#1376=DIRECTION('center_axis',(0.,1.,0.));
#1377=DIRECTION('ref_axis',(0.,0.,-1.));
#1378=DIRECTION('center_axis',(3.61394601875787E-15,1.,0.));
#1379=DIRECTION('ref_axis',(-1.,3.61394601875787E-15,0.));
#1380=DIRECTION('center_axis',(1.,0.,0.));
#1381=DIRECTION('ref_axis',(0.,0.,1.));
#1382=DIRECTION('center_axis',(3.61394601875787E-15,1.,0.));
#1383=DIRECTION('ref_axis',(-1.,3.61394601875787E-15,0.));
#1384=DIRECTION('center_axis',(0.,1.,0.));
#1385=DIRECTION('ref_axis',(0.,0.,-1.));
#1386=DIRECTION('center_axis',(1.,0.,0.));
#1387=DIRECTION('ref_axis',(0.,0.,1.));
#1388=DIRECTION('center_axis',(1.,0.,0.));
#1389=DIRECTION('ref_axis',(0.,-1.,0.));
#1390=DIRECTION('center_axis',(0.500000000000004,0.866025403784436,0.));
#1391=DIRECTION('ref_axis',(-0.866025403784436,0.500000000000004,0.));
#1392=DIRECTION('center_axis',(0.,0.,1.));
#1393=DIRECTION('ref_axis',(0.,1.,0.));
#1394=DIRECTION('center_axis',(0.500000000000004,0.866025403784436,0.));
#1395=DIRECTION('ref_axis',(-0.866025403784436,0.500000000000004,0.));
#1396=DIRECTION('center_axis',(1.,0.,0.));
#1397=DIRECTION('ref_axis',(0.,-1.,0.));
#1398=DIRECTION('center_axis',(0.,0.,1.));
#1399=DIRECTION('ref_axis',(0.,1.,0.));
#1400=DIRECTION('center_axis',(1.,0.,0.));
#1401=DIRECTION('ref_axis',(0.,-1.,0.));
#1402=DIRECTION('center_axis',(0.866025403784442,0.499999999999995,0.));
#1403=DIRECTION('ref_axis',(-0.499999999999995,0.866025403784442,0.));
#1404=DIRECTION('center_axis',(0.,0.,1.));
#1405=DIRECTION('ref_axis',(0.,1.,0.));
#1406=DIRECTION('center_axis',(0.866025403784442,0.499999999999995,0.));
#1407=DIRECTION('ref_axis',(-0.499999999999995,0.866025403784442,0.));
#1408=DIRECTION('center_axis',(1.,0.,0.));
#1409=DIRECTION('ref_axis',(0.,-1.,0.));
#1410=DIRECTION('center_axis',(0.,0.,1.));
#1411=DIRECTION('ref_axis',(0.,1.,0.));
#1412=DIRECTION('center_axis',(1.,0.,0.));
#1413=DIRECTION('ref_axis',(0.,-1.,0.));
#1414=DIRECTION('center_axis',(1.,-7.105427357601E-15,0.));
#1415=DIRECTION('ref_axis',(7.105427357601E-15,1.,0.));
#1416=DIRECTION('center_axis',(0.,0.,1.));
#1417=DIRECTION('ref_axis',(0.,1.,0.));
#1418=DIRECTION('center_axis',(1.,-7.105427357601E-15,0.));
#1419=DIRECTION('ref_axis',(7.105427357601E-15,1.,0.));
#1420=DIRECTION('center_axis',(1.,0.,0.));
#1421=DIRECTION('ref_axis',(0.,-1.,0.));
#1422=DIRECTION('center_axis',(0.,0.,1.));
#1423=DIRECTION('ref_axis',(0.,1.,0.));
#1424=DIRECTION('center_axis',(1.,0.,0.));
#1425=DIRECTION('ref_axis',(0.,-1.,0.));
#1426=DIRECTION('center_axis',(0.866025403784434,-0.500000000000007,0.));
#1427=DIRECTION('ref_axis',(0.500000000000007,0.866025403784434,0.));
#1428=DIRECTION('center_axis',(0.,0.,1.));
#1429=DIRECTION('ref_axis',(0.,1.,0.));
#1430=DIRECTION('center_axis',(0.866025403784434,-0.500000000000007,0.));
#1431=DIRECTION('ref_axis',(0.500000000000007,0.866025403784434,0.));
#1432=DIRECTION('center_axis',(1.,0.,0.));
#1433=DIRECTION('ref_axis',(0.,-1.,0.));
#1434=DIRECTION('center_axis',(0.,0.,1.));
#1435=DIRECTION('ref_axis',(0.,1.,0.));
#1436=DIRECTION('center_axis',(1.,0.,0.));
#1437=DIRECTION('ref_axis',(0.,-1.,0.));
#1438=DIRECTION('center_axis',(0.499999999999992,-0.866025403784443,0.));
#1439=DIRECTION('ref_axis',(0.866025403784443,0.499999999999992,0.));
#1440=DIRECTION('center_axis',(0.,0.,1.));
#1441=DIRECTION('ref_axis',(0.,1.,0.));
#1442=DIRECTION('center_axis',(0.499999999999992,-0.866025403784443,0.));
#1443=DIRECTION('ref_axis',(0.866025403784443,0.499999999999992,0.));
#1444=DIRECTION('center_axis',(1.,0.,0.));
#1445=DIRECTION('ref_axis',(0.,-1.,0.));
#1446=DIRECTION('center_axis',(0.,0.,1.));
#1447=DIRECTION('ref_axis',(0.,1.,0.));
#1448=DIRECTION('center_axis',(0.,1.,0.));
#1449=DIRECTION('ref_axis',(0.,0.,-1.));
#1450=DIRECTION('center_axis',(-1.05969086964441E-14,-1.,0.));
#1451=DIRECTION('ref_axis',(1.,-1.05969086964441E-14,0.));
#1452=DIRECTION('center_axis',(1.,0.,0.));
#1453=DIRECTION('ref_axis',(0.,0.,1.));
#1454=DIRECTION('center_axis',(-1.05969086964441E-14,-1.,0.));
#1455=DIRECTION('ref_axis',(1.,-1.05969086964441E-14,0.));
#1456=DIRECTION('center_axis',(0.,1.,0.));
#1457=DIRECTION('ref_axis',(0.,0.,-1.));
#1458=DIRECTION('center_axis',(1.,0.,0.));
#1459=DIRECTION('ref_axis',(0.,0.,1.));
#1460=DIRECTION('center_axis',(1.,0.,0.));
#1461=DIRECTION('ref_axis',(0.,-1.,0.));
#1462=DIRECTION('center_axis',(-0.50000000000001,-0.866025403784433,0.));
#1463=DIRECTION('ref_axis',(0.866025403784433,-0.50000000000001,0.));
#1464=DIRECTION('center_axis',(0.,0.,1.));
#1465=DIRECTION('ref_axis',(0.,1.,0.));
#1466=DIRECTION('center_axis',(-0.50000000000001,-0.866025403784433,0.));
#1467=DIRECTION('ref_axis',(0.866025403784433,-0.50000000000001,0.));
#1468=DIRECTION('center_axis',(1.,0.,0.));
#1469=DIRECTION('ref_axis',(0.,-1.,0.));
#1470=DIRECTION('center_axis',(0.,0.,1.));
#1471=DIRECTION('ref_axis',(0.,1.,0.));
#1472=DIRECTION('center_axis',(1.,0.,0.));
#1473=DIRECTION('ref_axis',(0.,-1.,0.));
#1474=DIRECTION('center_axis',(-0.866025403784445,-0.499999999999989,0.));
#1475=DIRECTION('ref_axis',(0.499999999999989,-0.866025403784445,0.));
#1476=DIRECTION('center_axis',(0.,0.,1.));
#1477=DIRECTION('ref_axis',(0.,1.,0.));
#1478=DIRECTION('center_axis',(-0.866025403784445,-0.499999999999989,0.));
#1479=DIRECTION('ref_axis',(0.499999999999989,-0.866025403784445,0.));
#1480=DIRECTION('center_axis',(1.,0.,0.));
#1481=DIRECTION('ref_axis',(0.,-1.,0.));
#1482=DIRECTION('center_axis',(0.,0.,1.));
#1483=DIRECTION('ref_axis',(0.,1.,0.));
#1484=DIRECTION('center_axis',(0.,0.,1.));
#1485=DIRECTION('ref_axis',(1.,0.,0.));
#1486=DIRECTION('center_axis',(0.,0.,1.));
#1487=DIRECTION('ref_axis',(1.,0.,0.));
#1488=DIRECTION('',(0.,0.,1.));
#1489=DIRECTION('center_axis',(0.,0.,1.));
#1490=DIRECTION('ref_axis',(1.,0.,0.));
#1491=DIRECTION('',(0.,0.,1.));
#1492=DIRECTION('center_axis',(0.,0.,1.));
#1493=DIRECTION('ref_axis',(1.,0.,0.));
#1494=DIRECTION('center_axis',(0.,0.,1.));
#1495=DIRECTION('ref_axis',(1.,0.,0.));
#1496=DIRECTION('',(0.,0.,1.));
#1497=DIRECTION('center_axis',(0.,0.,1.));
#1498=DIRECTION('ref_axis',(1.,0.,0.));
#1499=DIRECTION('',(0.,0.,1.));
#1500=DIRECTION('center_axis',(0.,0.,-1.));
#1501=DIRECTION('ref_axis',(-1.,0.,0.));
#1502=DIRECTION('center_axis',(0.,0.,1.));
#1503=DIRECTION('ref_axis',(1.,0.,0.));
#1504=DIRECTION('center_axis',(0.,0.,1.));
#1505=DIRECTION('ref_axis',(1.,0.,0.));
#1506=DIRECTION('center_axis',(0.,0.,1.));
#1507=DIRECTION('ref_axis',(1.,0.,0.));
#1508=DIRECTION('center_axis',(0.,0.,1.));
#1509=DIRECTION('ref_axis',(1.,0.,0.));
#1510=DIRECTION('center_axis',(0.,0.,1.));
#1511=DIRECTION('ref_axis',(1.,0.,0.));
#1512=DIRECTION('center_axis',(0.,0.,1.));
#1513=DIRECTION('ref_axis',(1.,0.,0.));
#1514=DIRECTION('center_axis',(0.,0.,1.));
#1515=DIRECTION('ref_axis',(1.,0.,0.));
#1516=DIRECTION('center_axis',(0.,0.,1.));
#1517=DIRECTION('ref_axis',(1.,0.,0.));
#1518=DIRECTION('center_axis',(0.,0.,1.));
#1519=DIRECTION('ref_axis',(1.,0.,0.));
#1520=DIRECTION('',(0.,0.,1.));
#1521=DIRECTION('center_axis',(0.,0.,1.));
#1522=DIRECTION('ref_axis',(1.,0.,0.));
#1523=DIRECTION('',(0.,0.,1.));
#1524=DIRECTION('center_axis',(0.,0.,1.));
#1525=DIRECTION('ref_axis',(1.,0.,0.));
#1526=DIRECTION('center_axis',(0.,0.,1.));
#1527=DIRECTION('ref_axis',(1.,0.,0.));
#1528=DIRECTION('',(0.,0.,1.));
#1529=DIRECTION('center_axis',(0.,0.,1.));
#1530=DIRECTION('ref_axis',(1.,0.,0.));
#1531=DIRECTION('',(0.,0.,1.));
#1532=DIRECTION('center_axis',(0.,0.,1.));
#1533=DIRECTION('ref_axis',(1.,0.,0.));
#1534=DIRECTION('center_axis',(0.,0.,1.));
#1535=DIRECTION('ref_axis',(1.,0.,0.));
#1536=DIRECTION('center_axis',(0.,0.,1.));
#1537=DIRECTION('ref_axis',(1.,0.,0.));
#1538=DIRECTION('center_axis',(0.,0.,1.));
#1539=DIRECTION('ref_axis',(1.,0.,0.));
#1540=DIRECTION('center_axis',(0.,0.,1.));
#1541=DIRECTION('ref_axis',(1.,0.,0.));
#1542=DIRECTION('center_axis',(0.,0.,-1.));
#1543=DIRECTION('ref_axis',(-1.,0.,0.));
#1544=DIRECTION('center_axis',(0.,0.,1.));
#1545=DIRECTION('ref_axis',(1.,0.,0.));
#1546=DIRECTION('center_axis',(0.,0.,1.));
#1547=DIRECTION('ref_axis',(1.,0.,0.));
#1548=CARTESIAN_POINT('',(0.,0.,0.));
#1549=CARTESIAN_POINT('Origin',(0.,0.,30.4));
#1550=CARTESIAN_POINT('',(-4.30769230769231,5.27540159632706E-16,29.5666666666667));
#1551=CARTESIAN_POINT('',(4.30769230769231,0.,29.5666666666667));
#1552=CARTESIAN_POINT('Origin',(0.,0.,29.5666666666667));
#1553=CARTESIAN_POINT('',(-4.30769230769231,5.27540159632706E-16,30.4));
#1554=CARTESIAN_POINT('',(-4.30769230769231,5.27540159632706E-16,30.4));
#1555=CARTESIAN_POINT('',(4.30769230769231,0.,30.4));
#1556=CARTESIAN_POINT('Origin',(0.,0.,30.4));
#1557=CARTESIAN_POINT('',(4.30769230769231,0.,30.4));
#1558=CARTESIAN_POINT('Origin',(0.,0.,28.9));
#1559=CARTESIAN_POINT('',(-4.30769230769231,5.27540159632706E-16,28.2333333333333));
#1560=CARTESIAN_POINT('',(4.30769230769231,0.,28.2333333333333));
#1561=CARTESIAN_POINT('Origin',(0.,0.,28.2333333333333));
#1562=CARTESIAN_POINT('Origin',(-4.,4.89858719658941E-16,28.9));
#1563=CARTESIAN_POINT('Origin',(4.,0.,28.9));
#1564=CARTESIAN_POINT('Origin',(0.,0.,30.4));
#1565=CARTESIAN_POINT('',(-4.30769230769231,5.27540159632706E-16,27.4));
#1566=CARTESIAN_POINT('',(4.30769230769231,0.,27.4));
#1567=CARTESIAN_POINT('Origin',(0.,0.,27.4));
#1568=CARTESIAN_POINT('',(-4.30769230769231,5.27540159632706E-16,30.4));
#1569=CARTESIAN_POINT('',(4.30769230769231,0.,30.4));
#1570=CARTESIAN_POINT('Origin',(0.,0.,27.4));
#1571=CARTESIAN_POINT('',(4.85,0.,27.4));
#1572=CARTESIAN_POINT('',(-4.85,6.03138548580072E-16,27.4));
#1573=CARTESIAN_POINT('Origin',(0.,0.,27.4));
#1574=CARTESIAN_POINT('',(-5.,6.12323399573677E-16,27.55));
#1575=CARTESIAN_POINT('',(-4.85,5.93953697586466E-16,27.4));
#1576=CARTESIAN_POINT('',(5.,0.,27.55));
#1577=CARTESIAN_POINT('Origin',(0.,0.,27.55));
#1578=CARTESIAN_POINT('',(4.85,0.,27.4));
#1579=CARTESIAN_POINT('Origin',(0.,0.,30.4));
#1580=CARTESIAN_POINT('',(-5.,0.,30.25));
#1581=CARTESIAN_POINT('',(-5.,6.12323399573677E-16,30.4));
#1582=CARTESIAN_POINT('',(5.,6.12323399573677E-16,30.25));
#1583=CARTESIAN_POINT('Origin',(0.,0.,30.25));
#1584=CARTESIAN_POINT('',(5.,0.,30.4));
#1585=CARTESIAN_POINT('Origin',(0.,0.,30.25));
#1586=CARTESIAN_POINT('',(4.85,6.03138548580072E-16,30.4));
#1587=CARTESIAN_POINT('',(-4.85,0.,30.4));
#1588=CARTESIAN_POINT('Origin',(0.,0.,30.4));
#1589=CARTESIAN_POINT('',(5.,6.12323399573677E-16,30.25));
#1590=CARTESIAN_POINT('',(-5.,0.,30.25));
#1591=CARTESIAN_POINT('Origin',(0.,0.,30.25));
#1592=CARTESIAN_POINT('Origin',(0.,0.,30.4));
#1593=CARTESIAN_POINT('Origin',(0.,0.,30.25));
#1594=CARTESIAN_POINT('Origin',(0.,0.,30.4));
#1595=CARTESIAN_POINT('Origin',(0.,0.,27.55));
#1596=CARTESIAN_POINT('Origin',(0.,0.,27.4));
#1597=CARTESIAN_POINT('Origin',(0.,0.,27.4));
#1598=CARTESIAN_POINT('Origin',(0.,4.85,27.4));
#1599=CARTESIAN_POINT('Origin',(0.,0.,27.4));
#1600=CARTESIAN_POINT('Origin',(0.,0.,30.4));
#1601=CARTESIAN_POINT('Origin',(0.,0.,28.2333333333333));
#1602=CARTESIAN_POINT('Origin',(0.,0.,28.9));
#1603=CARTESIAN_POINT('Origin',(0.,0.,29.5666666666667));
#1604=CARTESIAN_POINT('Origin',(0.,0.,30.4));
#1605=CARTESIAN_POINT('Origin',(0.,0.,30.4));
#1606=CARTESIAN_POINT('Origin',(0.,4.85,30.4));
#1607=CARTESIAN_POINT('Origin',(0.,0.,28.9));
#1608=CARTESIAN_POINT('',(3.69230769230769,0.,29.5666666666667));
#1609=CARTESIAN_POINT('',(3.26575276598583,0.,28.9));
#1610=CARTESIAN_POINT('Origin',(4.,0.,28.9));
#1611=CARTESIAN_POINT('',(-3.26575276598583,3.99939367167116E-16,28.9));
#1612=CARTESIAN_POINT('Origin',(0.,0.,28.9));
#1613=CARTESIAN_POINT('',(-3.69230769230769,4.52177279685177E-16,29.5666666666667));
#1614=CARTESIAN_POINT('Origin',(-4.,4.89858719658941E-16,28.9));
#1615=CARTESIAN_POINT('Origin',(0.,0.,29.5666666666667));
#1616=CARTESIAN_POINT('Origin',(0.,0.,28.9));
#1617=CARTESIAN_POINT('Origin',(0.,0.,28.9));
#1618=CARTESIAN_POINT('Origin',(0.,0.,29.5666666666667));
#1619=CARTESIAN_POINT('Origin',(0.,0.,30.4));
#1620=CARTESIAN_POINT('',(-3.,3.67394039744206E-16,30.25));
#1621=CARTESIAN_POINT('',(3.,0.,30.25));
#1622=CARTESIAN_POINT('Origin',(0.,0.,30.25));
#1623=CARTESIAN_POINT('',(-3.15,3.85763741731416E-16,30.4));
#1624=CARTESIAN_POINT('',(-3.15,3.85763741731416E-16,30.4));
#1625=CARTESIAN_POINT('',(3.15,0.,30.4));
#1626=CARTESIAN_POINT('Origin',(0.,0.,30.4));
#1627=CARTESIAN_POINT('',(3.15,0.,30.4));
#1628=CARTESIAN_POINT('Origin',(0.,0.,30.4));
#1629=CARTESIAN_POINT('',(-3.,0.,27.55));
#1630=CARTESIAN_POINT('',(3.,3.76578890737811E-16,27.55));
#1631=CARTESIAN_POINT('Origin',(0.,0.,27.55));
#1632=CARTESIAN_POINT('',(-3.,3.67394039744206E-16,30.4));
#1633=CARTESIAN_POINT('',(3.,0.,30.4));
#1634=CARTESIAN_POINT('Origin',(0.,0.,27.55));
#1635=CARTESIAN_POINT('',(3.15,3.85763741731416E-16,27.4));
#1636=CARTESIAN_POINT('',(3.,3.67394039744206E-16,27.55));
#1637=CARTESIAN_POINT('',(-3.15,0.,27.4));
#1638=CARTESIAN_POINT('Origin',(0.,0.,27.4));
#1639=CARTESIAN_POINT('',(-3.,0.,27.55));
#1640=CARTESIAN_POINT('Origin',(0.,0.,30.4));
#1641=CARTESIAN_POINT('',(3.69230769230769,0.,27.4));
#1642=CARTESIAN_POINT('',(-3.69230769230769,4.52177279685177E-16,27.4));
#1643=CARTESIAN_POINT('Origin',(0.,0.,27.4));
#1644=CARTESIAN_POINT('',(-3.69230769230769,4.52177279685177E-16,28.2333333333333));
#1645=CARTESIAN_POINT('',(-3.69230769230769,4.52177279685177E-16,30.4));
#1646=CARTESIAN_POINT('',(3.69230769230769,0.,28.2333333333333));
#1647=CARTESIAN_POINT('Origin',(0.,0.,28.2333333333333));
#1648=CARTESIAN_POINT('',(3.69230769230769,0.,30.4));
#1649=CARTESIAN_POINT('Origin',(0.,0.,28.9));
#1650=CARTESIAN_POINT('Origin',(-4.,4.89858719658941E-16,28.9));
#1651=CARTESIAN_POINT('Origin',(0.,0.,28.2333333333333));
#1652=CARTESIAN_POINT('Origin',(4.,0.,28.9));
#1653=CARTESIAN_POINT('Origin',(0.,0.,30.4));
#1654=CARTESIAN_POINT('',(-3.69230769230769,4.52177279685177E-16,30.4));
#1655=CARTESIAN_POINT('',(-3.69230769230769,4.52177279685177E-16,30.4));
#1656=CARTESIAN_POINT('',(3.69230769230769,0.,30.4));
#1657=CARTESIAN_POINT('Origin',(0.,0.,30.4));
#1658=CARTESIAN_POINT('',(3.69230769230769,0.,30.4));
#1659=CARTESIAN_POINT('Origin',(0.,3.69230769230769,30.4));
#1660=CARTESIAN_POINT('Origin',(0.,0.,30.4));
#1661=CARTESIAN_POINT('Origin',(0.,0.,30.4));
#1662=CARTESIAN_POINT('Origin',(0.,0.,30.4));
#1663=CARTESIAN_POINT('Origin',(0.,0.,28.9));
#1664=CARTESIAN_POINT('Origin',(0.,0.,30.4));
#1665=CARTESIAN_POINT('Origin',(0.,0.,27.4));
#1666=CARTESIAN_POINT('Origin',(0.,3.15,27.4));
#1667=CARTESIAN_POINT('Origin',(0.,0.,27.4));
#1668=CARTESIAN_POINT('Origin',(0.,0.,27.55));
#1669=CARTESIAN_POINT('Origin',(0.,0.,27.55));
#1670=CARTESIAN_POINT('Origin',(0.,0.,30.4));
#1671=CARTESIAN_POINT('Origin',(0.,0.,30.25));
#1672=CARTESIAN_POINT('Origin',(0.,0.,30.4));
#1673=CARTESIAN_POINT('Origin',(0.,4.,28.9));
#1674=CARTESIAN_POINT('',(0.,4.,28.1657527659858));
#1675=CARTESIAN_POINT('',(8.99193524918253E-17,4.73424723401417,28.9));
#1676=CARTESIAN_POINT('Origin',(0.,4.,28.9));
#1677=CARTESIAN_POINT('',(-0.734247234014171,4.,28.9));
#1678=CARTESIAN_POINT('Origin',(0.,4.,28.9));
#1679=CARTESIAN_POINT('Origin',(0.,4.,28.9));
#1680=CARTESIAN_POINT('Origin',(0.,4.,28.9));
#1681=CARTESIAN_POINT('',(0.734247234014171,4.,28.9));
#1682=CARTESIAN_POINT('Origin',(0.,4.,28.9));
#1683=CARTESIAN_POINT('Origin',(2.,3.46410161513775,28.9));
#1684=CARTESIAN_POINT('',(2.,3.46410161513775,28.1657527659858));
#1685=CARTESIAN_POINT('',(2.36712361700709,4.09997837245248,28.9));
#1686=CARTESIAN_POINT('Origin',(2.,3.46410161513775,28.9));
#1687=CARTESIAN_POINT('',(1.26575276598583,3.46410161513775,28.9));
#1688=CARTESIAN_POINT('Origin',(2.,3.46410161513775,28.9));
#1689=CARTESIAN_POINT('Origin',(2.,3.46410161513775,28.9));
#1690=CARTESIAN_POINT('Origin',(2.,3.46410161513775,28.9));
#1691=CARTESIAN_POINT('',(2.73424723401418,3.46410161513775,28.9));
#1692=CARTESIAN_POINT('Origin',(2.,3.46410161513775,28.9));
#1693=CARTESIAN_POINT('Origin',(3.46410161513776,1.99999999999999,28.9));
#1694=CARTESIAN_POINT('',(3.46410161513776,1.99999999999999,28.1657527659858));
#1695=CARTESIAN_POINT('',(4.09997837245249,2.36712361700708,28.9));
#1696=CARTESIAN_POINT('Origin',(3.46410161513776,1.99999999999999,28.9));
#1697=CARTESIAN_POINT('',(2.72985438112359,1.99999999999999,28.9));
#1698=CARTESIAN_POINT('Origin',(3.46410161513776,1.99999999999999,28.9));
#1699=CARTESIAN_POINT('Origin',(3.46410161513776,1.99999999999999,28.9));
#1700=CARTESIAN_POINT('Origin',(3.46410161513776,1.99999999999999,28.9));
#1701=CARTESIAN_POINT('',(4.19834884915193,1.99999999999999,28.9));
#1702=CARTESIAN_POINT('Origin',(3.46410161513776,1.99999999999999,28.9));
#1703=CARTESIAN_POINT('Origin',(4.,-1.39659253553725E-14,28.9));
#1704=CARTESIAN_POINT('',(4.,-1.39659253553725E-14,28.1657527659858));
#1705=CARTESIAN_POINT('',(4.,-1.39659253553725E-14,29.6342472340142));
#1706=CARTESIAN_POINT('Origin',(4.,-1.39659253553725E-14,28.9));
#1707=CARTESIAN_POINT('',(4.,0.734247234014157,28.9));
#1708=CARTESIAN_POINT('Origin',(4.,-1.39659253553725E-14,28.9));
#1709=CARTESIAN_POINT('Origin',(4.,-1.39659253553725E-14,28.9));
#1710=CARTESIAN_POINT('Origin',(4.,-1.39659253553725E-14,28.9));
#1711=CARTESIAN_POINT('',(4.,-0.734247234014185,28.9));
#1712=CARTESIAN_POINT('Origin',(4.,-1.39659253553725E-14,28.9));
#1713=CARTESIAN_POINT('Origin',(3.46410161513775,-2.00000000000002,28.9));
#1714=CARTESIAN_POINT('',(3.46410161513775,-2.00000000000002,28.1657527659858));
#1715=CARTESIAN_POINT('',(2.82822485782302,-1.63287638299293,28.9));
#1716=CARTESIAN_POINT('Origin',(3.46410161513775,-2.00000000000002,28.9));
#1717=CARTESIAN_POINT('',(4.19834884915192,-2.00000000000002,28.9));
#1718=CARTESIAN_POINT('Origin',(3.46410161513775,-2.00000000000002,28.9));
#1719=CARTESIAN_POINT('Origin',(3.46410161513775,-2.00000000000002,28.9));
#1720=CARTESIAN_POINT('Origin',(3.46410161513775,-2.00000000000002,28.9));
#1721=CARTESIAN_POINT('',(2.72985438112357,-2.00000000000002,28.9));
#1722=CARTESIAN_POINT('Origin',(3.46410161513775,-2.00000000000002,28.9));
#1723=CARTESIAN_POINT('Origin',(1.99999999999998,-3.46410161513777,28.9));
#1724=CARTESIAN_POINT('',(1.99999999999998,-3.46410161513777,28.1657527659858));
#1725=CARTESIAN_POINT('',(1.6328763829929,-2.82822485782303,28.9));
#1726=CARTESIAN_POINT('Origin',(1.99999999999998,-3.46410161513777,28.9));
#1727=CARTESIAN_POINT('',(2.73424723401415,-3.46410161513777,28.9));
#1728=CARTESIAN_POINT('Origin',(1.99999999999998,-3.46410161513777,28.9));
#1729=CARTESIAN_POINT('Origin',(1.99999999999998,-3.46410161513777,28.9));
#1730=CARTESIAN_POINT('Origin',(1.99999999999998,-3.46410161513777,28.9));
#1731=CARTESIAN_POINT('',(1.26575276598581,-3.46410161513777,28.9));
#1732=CARTESIAN_POINT('Origin',(1.99999999999998,-3.46410161513777,28.9));
#1733=CARTESIAN_POINT('Origin',(-2.79318507107451E-14,-4.,28.9));
#1734=CARTESIAN_POINT('',(-2.79318507107451E-14,-4.,28.1657527659858));
#1735=CARTESIAN_POINT('',(-2.27147103269379E-14,-3.26575276598583,28.9));
#1736=CARTESIAN_POINT('Origin',(-2.79318507107451E-14,-4.,28.9));
#1737=CARTESIAN_POINT('',(0.734247234014144,-4.,28.9));
#1738=CARTESIAN_POINT('Origin',(-2.79318507107451E-14,-4.,28.9));
#1739=CARTESIAN_POINT('Origin',(-2.79318507107451E-14,-4.,28.9));
#1740=CARTESIAN_POINT('Origin',(-2.79318507107451E-14,-4.,28.9));
#1741=CARTESIAN_POINT('',(-0.734247234014199,-4.,28.9));
#1742=CARTESIAN_POINT('Origin',(-2.79318507107451E-14,-4.,28.9));
#1743=CARTESIAN_POINT('Origin',(-2.00000000000003,-3.46410161513774,28.9));
#1744=CARTESIAN_POINT('',(-2.00000000000003,-3.46410161513774,28.1657527659858));
#1745=CARTESIAN_POINT('',(-1.63287638299294,-2.82822485782301,28.9));
#1746=CARTESIAN_POINT('Origin',(-2.00000000000003,-3.46410161513774,28.9));
#1747=CARTESIAN_POINT('',(-1.26575276598586,-3.46410161513774,28.9));
#1748=CARTESIAN_POINT('Origin',(-2.00000000000003,-3.46410161513774,28.9));
#1749=CARTESIAN_POINT('Origin',(-2.00000000000003,-3.46410161513774,28.9));
#1750=CARTESIAN_POINT('Origin',(-2.00000000000003,-3.46410161513774,28.9));
#1751=CARTESIAN_POINT('',(-2.7342472340142,-3.46410161513774,28.9));
#1752=CARTESIAN_POINT('Origin',(-2.00000000000003,-3.46410161513774,28.9));
#1753=CARTESIAN_POINT('Origin',(-3.46410161513777,-1.99999999999997,28.9));
#1754=CARTESIAN_POINT('',(-3.46410161513777,-1.99999999999997,28.1657527659858));
#1755=CARTESIAN_POINT('',(-2.82822485782304,-1.63287638299289,28.9));
#1756=CARTESIAN_POINT('Origin',(-3.46410161513777,-1.99999999999997,28.9));
#1757=CARTESIAN_POINT('',(-2.7298543811236,-1.99999999999997,28.9));
#1758=CARTESIAN_POINT('Origin',(-3.46410161513777,-1.99999999999997,28.9));
#1759=CARTESIAN_POINT('Origin',(-3.46410161513777,-1.99999999999997,28.9));
#1760=CARTESIAN_POINT('Origin',(-3.46410161513777,-1.99999999999997,28.9));
#1761=CARTESIAN_POINT('',(-4.19834884915194,-1.99999999999997,28.9));
#1762=CARTESIAN_POINT('Origin',(-3.46410161513777,-1.99999999999997,28.9));
#1763=CARTESIAN_POINT('Origin',(-4.,4.18977760661176E-14,28.9));
#1764=CARTESIAN_POINT('',(-4.,4.18977760661176E-14,28.1657527659858));
#1765=CARTESIAN_POINT('',(-4.,4.18977760661176E-14,29.6342472340142));
#1766=CARTESIAN_POINT('Origin',(-4.,4.18977760661176E-14,28.9));
#1767=CARTESIAN_POINT('',(-4.,-0.73424723401413,28.9));
#1768=CARTESIAN_POINT('Origin',(-4.,4.18977760661176E-14,28.9));
#1769=CARTESIAN_POINT('Origin',(-4.,4.18977760661176E-14,28.9));
#1770=CARTESIAN_POINT('Origin',(-4.,4.18977760661176E-14,28.9));
#1771=CARTESIAN_POINT('',(-4.,0.734247234014213,28.9));
#1772=CARTESIAN_POINT('Origin',(-4.,4.18977760661176E-14,28.9));
#1773=CARTESIAN_POINT('Origin',(-3.46410161513773,2.00000000000004,28.9));
#1774=CARTESIAN_POINT('',(-3.46410161513773,2.00000000000004,28.1657527659858));
#1775=CARTESIAN_POINT('',(-4.09997837245246,2.36712361700713,28.9));
#1776=CARTESIAN_POINT('Origin',(-3.46410161513773,2.00000000000004,28.9));
#1777=CARTESIAN_POINT('',(-4.1983488491519,2.00000000000004,28.9));
#1778=CARTESIAN_POINT('Origin',(-3.46410161513773,2.00000000000004,28.9));
#1779=CARTESIAN_POINT('Origin',(-3.46410161513773,2.00000000000004,28.9));
#1780=CARTESIAN_POINT('Origin',(-3.46410161513773,2.00000000000004,28.9));
#1781=CARTESIAN_POINT('',(-2.72985438112356,2.00000000000004,28.9));
#1782=CARTESIAN_POINT('Origin',(-3.46410161513773,2.00000000000004,28.9));
#1783=CARTESIAN_POINT('Origin',(-1.99999999999996,3.46410161513778,28.9));
#1784=CARTESIAN_POINT('',(-1.99999999999996,3.46410161513778,28.1657527659858));
#1785=CARTESIAN_POINT('',(-2.36712361700703,4.09997837245252,28.9));
#1786=CARTESIAN_POINT('Origin',(-1.99999999999996,3.46410161513778,28.9));
#1787=CARTESIAN_POINT('',(-2.73424723401413,3.46410161513778,28.9));
#1788=CARTESIAN_POINT('Origin',(-1.99999999999996,3.46410161513778,28.9));
#1789=CARTESIAN_POINT('Origin',(-1.99999999999996,3.46410161513778,28.9));
#1790=CARTESIAN_POINT('Origin',(-1.99999999999996,3.46410161513778,28.9));
#1791=CARTESIAN_POINT('',(-1.26575276598578,3.46410161513778,28.9));
#1792=CARTESIAN_POINT('Origin',(-1.99999999999996,3.46410161513778,28.9));
#1793=CARTESIAN_POINT('Origin',(0.,0.,30.4));
#1794=CARTESIAN_POINT('',(4.30769230769231,0.,29.6342472340142));
#1795=CARTESIAN_POINT('',(-4.30769230769231,5.27540159632706E-16,29.6342472340142));
#1796=CARTESIAN_POINT('Origin',(0.,0.,29.6342472340142));
#1797=CARTESIAN_POINT('',(-4.30769230769231,5.27540159632706E-16,30.325));
#1798=CARTESIAN_POINT('',(-4.30769230769231,5.27540159632706E-16,30.4));
#1799=CARTESIAN_POINT('',(4.30769230769231,0.,30.325));
#1800=CARTESIAN_POINT('Origin',(0.,0.,30.325));
#1801=CARTESIAN_POINT('',(4.30769230769231,0.,30.4));
#1802=CARTESIAN_POINT('Origin',(0.,0.,30.4));
#1803=CARTESIAN_POINT('',(-3.69230769230769,4.52177279685177E-16,29.6342472340142));
#1804=CARTESIAN_POINT('',(3.69230769230769,0.,29.6342472340142));
#1805=CARTESIAN_POINT('Origin',(0.,0.,29.6342472340142));
#1806=CARTESIAN_POINT('',(-3.69230769230769,4.52177279685177E-16,30.325));
#1807=CARTESIAN_POINT('',(-3.69230769230769,4.52177279685177E-16,30.4));
#1808=CARTESIAN_POINT('',(3.69230769230769,0.,30.325));
#1809=CARTESIAN_POINT('Origin',(0.,0.,30.325));
#1810=CARTESIAN_POINT('',(3.69230769230769,0.,30.4));
#1811=CARTESIAN_POINT('Origin',(0.,4.30769230769231,30.325));
#1812=CARTESIAN_POINT('Origin',(0.,0.,30.325));
#1813=CARTESIAN_POINT('Origin',(0.,0.,30.325));
#1814=CARTESIAN_POINT('Origin',(0.,0.,30.4));
#1815=CARTESIAN_POINT('Origin',(0.,0.,29.6342472340142));
#1816=CARTESIAN_POINT('Origin',(0.,4.30769230769231,29.6342472340142));
#1817=CARTESIAN_POINT('Origin',(0.,0.,29.6342472340142));
#1818=CARTESIAN_POINT('Origin',(0.,0.,30.4));
#1819=CARTESIAN_POINT('Origin',(0.,0.,30.4));
#1820=CARTESIAN_POINT('',(4.30769230769231,0.,27.475));
#1821=CARTESIAN_POINT('',(-4.30769230769231,5.27540159632706E-16,27.475));
#1822=CARTESIAN_POINT('Origin',(0.,0.,27.475));
#1823=CARTESIAN_POINT('',(-4.30769230769231,5.27540159632706E-16,28.1657527659858));
#1824=CARTESIAN_POINT('',(-4.30769230769231,5.27540159632706E-16,30.4));
#1825=CARTESIAN_POINT('',(4.30769230769231,0.,28.1657527659858));
#1826=CARTESIAN_POINT('Origin',(0.,0.,28.1657527659858));
#1827=CARTESIAN_POINT('',(4.30769230769231,0.,30.4));
#1828=CARTESIAN_POINT('Origin',(0.,0.,30.4));
#1829=CARTESIAN_POINT('',(-3.69230769230769,4.52177279685177E-16,27.475));
#1830=CARTESIAN_POINT('',(3.69230769230769,0.,27.475));
#1831=CARTESIAN_POINT('Origin',(0.,0.,27.475));
#1832=CARTESIAN_POINT('',(-3.69230769230769,4.52177279685177E-16,28.1657527659858));
#1833=CARTESIAN_POINT('',(-3.69230769230769,4.52177279685177E-16,30.4));
#1834=CARTESIAN_POINT('',(3.69230769230769,0.,28.1657527659858));
#1835=CARTESIAN_POINT('Origin',(0.,0.,28.1657527659858));
#1836=CARTESIAN_POINT('',(3.69230769230769,0.,30.4));
#1837=CARTESIAN_POINT('Origin',(0.,4.30769230769231,27.475));
#1838=CARTESIAN_POINT('Origin',(0.,0.,27.475));
#1839=CARTESIAN_POINT('Origin',(0.,0.,27.475));
#1840=CARTESIAN_POINT('Origin',(0.,0.,30.4));
#1841=CARTESIAN_POINT('Origin',(0.,0.,28.1657527659858));
#1842=CARTESIAN_POINT('Origin',(0.,4.30769230769231,28.1657527659858));
#1843=CARTESIAN_POINT('Origin',(0.,0.,28.1657527659858));
#1844=CARTESIAN_POINT('Origin',(0.,0.,30.4));
#1845=UNCERTAINTY_MEASURE_WITH_UNIT(LENGTH_MEASURE(0.01),#1849,
'DISTANCE_ACCURACY_VALUE',
'Maximum model space distance between geometric entities at asserted c
onnectivities');
#1846=UNCERTAINTY_MEASURE_WITH_UNIT(LENGTH_MEASURE(0.01),#1849,
'DISTANCE_ACCURACY_VALUE',
'Maximum model space distance between geometric entities at asserted c
onnectivities');
#1847=(
GEOMETRIC_REPRESENTATION_CONTEXT(3)
GLOBAL_UNCERTAINTY_ASSIGNED_CONTEXT((#1845))
GLOBAL_UNIT_ASSIGNED_CONTEXT((#1849,#1851,#1852))
REPRESENTATION_CONTEXT('','3D')
);
#1848=(
GEOMETRIC_REPRESENTATION_CONTEXT(3)
GLOBAL_UNCERTAINTY_ASSIGNED_CONTEXT((#1846))
GLOBAL_UNIT_ASSIGNED_CONTEXT((#1849,#1851,#1852))
REPRESENTATION_CONTEXT('','3D')
);
#1849=(
LENGTH_UNIT()
NAMED_UNIT(*)
SI_UNIT(.MILLI.,.METRE.)
);
#1850=(
LENGTH_UNIT()
NAMED_UNIT(*)
SI_UNIT($,.METRE.)
);
#1851=(
NAMED_UNIT(*)
PLANE_ANGLE_UNIT()
SI_UNIT($,.RADIAN.)
);
#1852=(
NAMED_UNIT(*)
SI_UNIT($,.STERADIAN.)
SOLID_ANGLE_UNIT()
);
#1853=SHAPE_DEFINITION_REPRESENTATION(#1854,#1855);
#1854=PRODUCT_DEFINITION_SHAPE('',$,#1857);
#1855=SHAPE_REPRESENTATION('',(#1007),#1847);
#1856=PRODUCT_DEFINITION_CONTEXT('part definition',#1861,'design');
#1857=PRODUCT_DEFINITION('7804K111_Stainless Steel Ball Bearing',
'7804K111_Stainless Steel Ball Bearing',#1858,#1856);
#1858=PRODUCT_DEFINITION_FORMATION('',$,#1863);
#1859=PRODUCT_RELATED_PRODUCT_CATEGORY(
'7804K111_Stainless Steel Ball Bearing',
'7804K111_Stainless Steel Ball Bearing',(#1863));
#1860=APPLICATION_PROTOCOL_DEFINITION('international standard',
'automotive_design',2009,#1861);
#1861=APPLICATION_CONTEXT(
'Core Data for Automotive Mechanical Design Process');
#1862=PRODUCT_CONTEXT('part definition',#1861,'mechanical');
#1863=PRODUCT('7804K111_Stainless Steel Ball Bearing',
'7804K111_Stainless Steel Ball Bearing',$,(#1862));
#1864=PRESENTATION_STYLE_ASSIGNMENT((#1865));
#1865=SURFACE_STYLE_USAGE(.BOTH.,#1866);
#1866=SURFACE_SIDE_STYLE('',(#1867));
#1867=SURFACE_STYLE_FILL_AREA(#1868);
#1868=FILL_AREA_STYLE('Steel - Satin',(#1869));
#1869=FILL_AREA_STYLE_COLOUR('Steel - Satin',#1870);
#1870=COLOUR_RGB('Steel - Satin',0.627450980392157,0.627450980392157,0.627450980392157);
ENDSEC;
END-ISO-10303-21;
